<!-- Generator: Adobe InDesign 20.3 SVG Export Plug-in, SVG Library version: 9.3 build 254 -->
<!DOCTYPE svg PUBLIC "-//W3C//DTD SVG 1.1//EN" "http://www.w3.org/Graphics/SVG/1.1/DTD/svg11.dtd">
<svg version="1.1" xmlns="http://www.w3.org/2000/svg" xmlns:xlink="http://www.w3.org/1999/xlink" x="0%" y="0%" width="100%"
	 height="100%" viewBox="0 0 435.573 74.58" preserveAspectRatio="xMidYMid slice" overflow="visible" xml:space="preserve">
<clipPath id="clp_unq_id_1" fill="none">
	<path shape-rendering="crispEdges" stroke="#000000" d="M0,0h435.573v74.58H0V0"/>
</clipPath>
<g clip-path="url(#clp_unq_id_1)" fill="none">
	<path fill="#000000" d="M162.192,18.773l-0.239-0.02l-0.472-0.089v-1.025l0.342,0.027c0.428,0,0.762-0.087,1.001-0.26
		c0.239-0.173,0.436-0.49,0.591-0.95l0.28-0.752l-2.639-7.314h1.381l1.846,5.544l1.723-5.544h1.354l-2.974,8.538
		C163.926,18.158,163.195,18.773,162.192,18.773 M133.498,18.698c-0.533,0-1.055-0.114-1.565-0.342
		c-0.51-0.228-0.9-0.54-1.169-0.936l0.656-0.759c0.542,0.67,1.205,1.005,1.989,1.005c0.615,0,1.095-0.173,1.439-0.519
		c0.344-0.346,0.516-0.834,0.516-1.463v-0.636c-0.506,0.583-1.196,0.875-2.071,0.875c-0.866,0-1.567-0.349-2.102-1.046
		c-0.535-0.697-0.803-1.647-0.803-2.851c0-1.153,0.267-2.07,0.8-2.751c0.533-0.681,1.239-1.022,2.119-1.022
		c0.902,0,1.607,0.319,2.112,0.957l0.061-0.82h1.155v7.219c0,0.957-0.284,1.711-0.851,2.263
		C135.217,18.422,134.455,18.698,133.498,18.698 M133.621,9.326c-0.615,0-1.096,0.239-1.442,0.718
		c-0.346,0.478-0.52,1.187-0.52,2.126c0,0.834,0.171,1.489,0.513,1.965c0.342,0.476,0.82,0.714,1.436,0.714
		c0.798,0,1.383-0.362,1.757-1.087v-3.377C134.977,9.679,134.396,9.326,133.621,9.326 M51.863,18.698
		c-0.533,0-1.055-0.114-1.565-0.342c-0.51-0.228-0.9-0.54-1.169-0.936l0.656-0.759c0.542,0.67,1.205,1.005,1.989,1.005
		c0.615,0,1.095-0.173,1.439-0.519c0.344-0.346,0.516-0.834,0.516-1.463v-0.636c-0.506,0.583-1.196,0.875-2.071,0.875
		c-0.866,0-1.567-0.349-2.102-1.046c-0.536-0.697-0.803-1.647-0.803-2.851c0-1.153,0.266-2.07,0.8-2.751s1.24-1.022,2.119-1.022
		c0.902,0,1.606,0.319,2.112,0.957l0.062-0.82h1.155v7.219c0,0.957-0.284,1.711-0.851,2.263
		C53.582,18.422,52.82,18.698,51.863,18.698 M51.986,9.326c-0.615,0-1.096,0.239-1.442,0.718c-0.346,0.478-0.52,1.187-0.52,2.126
		c0,0.834,0.171,1.489,0.513,1.965c0.342,0.476,0.82,0.714,1.436,0.714c0.798,0,1.383-0.362,1.757-1.087v-3.377
		C53.342,9.679,52.761,9.326,51.986,9.326 M252.345,18.63h-1.265V8.39h1.155l0.061,0.82c0.515-0.638,1.23-0.957,2.146-0.957
		c0.889,0,1.592,0.335,2.109,1.005s0.776,1.602,0.776,2.796v0.116c0,1.126-0.258,2.033-0.772,2.721
		c-0.515,0.688-1.212,1.032-2.092,1.032c-0.898,0-1.604-0.285-2.119-0.854V18.63 M254.068,9.326c-0.766,0-1.34,0.34-1.723,1.019
		v3.534c0.378,0.675,0.957,1.012,1.736,1.012c0.606,0,1.088-0.24,1.446-0.721c0.358-0.481,0.537-1.195,0.537-2.143
		c0-0.834-0.178-1.492-0.533-1.976C255.175,9.568,254.687,9.326,254.068,9.326 M391.295,15.923c-0.729,0-1.327-0.206-1.794-0.619
		c-0.467-0.412-0.701-0.935-0.701-1.569c0-0.77,0.293-1.368,0.878-1.794c0.586-0.426,1.409-0.639,2.471-0.639h1.23v-0.581
		c0-0.442-0.132-0.794-0.396-1.056c-0.264-0.262-0.654-0.393-1.169-0.393c-0.451,0-0.829,0.114-1.135,0.342
		c-0.305,0.228-0.458,0.504-0.458,0.827h-1.272c0-0.369,0.131-0.726,0.393-1.07c0.262-0.344,0.617-0.616,1.066-0.817
		c0.449-0.201,0.942-0.301,1.48-0.301c0.852,0,1.52,0.213,2.003,0.639c0.483,0.426,0.734,1.013,0.752,1.76v3.404
		c0,0.679,0.087,1.219,0.26,1.62v0.109h-1.326c-0.073-0.146-0.132-0.406-0.178-0.779C392.813,15.618,392.111,15.923,391.295,15.923
		 M392.389,12.197c-1.549,0-2.324,0.454-2.324,1.36c0,0.396,0.132,0.706,0.396,0.93c0.264,0.223,0.604,0.335,1.019,0.335
		c0.396,0,0.772-0.103,1.128-0.308c0.355-0.205,0.613-0.472,0.772-0.8v-1.518H392.389 M379.736,15.923
		c-1.003,0-1.818-0.329-2.447-0.988c-0.629-0.658-0.943-1.539-0.943-2.642v-0.232c0-0.734,0.14-1.389,0.42-1.965
		c0.28-0.576,0.672-1.028,1.176-1.354c0.504-0.326,1.049-0.489,1.637-0.489c0.962,0,1.709,0.317,2.242,0.95
		c0.533,0.633,0.8,1.54,0.8,2.721v0.526h-5.011c0.018,0.729,0.231,1.318,0.639,1.767c0.408,0.449,0.926,0.673,1.555,0.673
		c0.447,0,0.825-0.091,1.135-0.273c0.31-0.182,0.581-0.424,0.814-0.725l0.772,0.602C381.905,15.447,380.975,15.923,379.736,15.923
		 M379.578,9.292c-0.51,0-0.939,0.186-1.285,0.557c-0.346,0.372-0.561,0.892-0.643,1.562h3.705v-0.096
		c-0.037-0.643-0.21-1.14-0.52-1.494C380.526,9.469,380.107,9.292,379.578,9.292 M364.413,15.923c-1.003,0-1.818-0.329-2.447-0.988
		c-0.629-0.658-0.943-1.539-0.943-2.642v-0.232c0-0.734,0.14-1.389,0.42-1.965c0.28-0.576,0.672-1.028,1.176-1.354
		c0.504-0.326,1.049-0.489,1.637-0.489c0.962,0,1.709,0.317,2.242,0.95c0.533,0.633,0.8,1.54,0.8,2.721v0.526h-5.011
		c0.018,0.729,0.231,1.318,0.639,1.767c0.408,0.449,0.926,0.673,1.555,0.673c0.447,0,0.825-0.091,1.135-0.273
		c0.31-0.182,0.581-0.424,0.813-0.725l0.772,0.602C366.583,15.447,365.653,15.923,364.413,15.923 M364.256,9.292
		c-0.51,0-0.939,0.186-1.285,0.557c-0.346,0.372-0.561,0.892-0.643,1.562h3.705v-0.096c-0.037-0.643-0.21-1.14-0.52-1.494
		C365.204,9.469,364.785,9.292,364.256,9.292 M355.764,15.923c-0.811,0-1.531-0.19-2.16-0.571c-0.629-0.38-1.116-0.922-1.46-1.624
		c-0.344-0.702-0.521-1.515-0.53-2.44V10.42c0-1.499,0.35-2.661,1.049-3.486c0.699-0.825,1.683-1.237,2.95-1.237
		c1.039,0,1.875,0.266,2.509,0.796c0.633,0.531,1.021,1.284,1.162,2.259h-1.312c-0.246-1.322-1.03-1.982-2.352-1.982
		c-0.88,0-1.546,0.309-1.999,0.927c-0.454,0.618-0.683,1.513-0.687,2.685v0.814c0,1.117,0.255,2.006,0.766,2.665
		c0.51,0.659,1.201,0.989,2.071,0.989c0.492,0,0.923-0.055,1.292-0.164c0.369-0.109,0.674-0.293,0.916-0.552v-2.23h-2.304V10.83
		h3.609v3.65c-0.337,0.483-0.808,0.844-1.412,1.084C357.269,15.803,356.566,15.923,355.764,15.923 M338.496,15.923
		c-1.003,0-1.815-0.349-2.437-1.046c-0.622-0.697-0.933-1.62-0.933-2.769v-0.089c0-0.725,0.142-1.376,0.427-1.955
		c0.285-0.579,0.681-1.025,1.189-1.34c0.508-0.314,1.088-0.472,1.74-0.472c1.007,0,1.822,0.349,2.444,1.046
		c0.622,0.697,0.933,1.625,0.933,2.782v0.089c0,0.72-0.138,1.366-0.414,1.938c-0.276,0.572-0.67,1.017-1.183,1.336
		C339.75,15.763,339.161,15.923,338.496,15.923 M338.482,9.292c-0.624,0-1.128,0.248-1.511,0.745
		c-0.383,0.497-0.574,1.208-0.574,2.133c0,0.82,0.19,1.479,0.571,1.975c0.38,0.497,0.89,0.745,1.528,0.745
		c0.643,0,1.153-0.252,1.531-0.755c0.378-0.503,0.567-1.209,0.567-2.116c0-0.811-0.193-1.468-0.578-1.972
		C339.632,9.544,339.12,9.292,338.482,9.292 M326.489,15.923c-1.176,0-2.118-0.421-2.827-1.265
		c-0.709-0.843-1.063-1.971-1.063-3.384v-0.957c0-0.925,0.165-1.739,0.496-2.44c0.33-0.702,0.799-1.241,1.405-1.617
		c0.606-0.376,1.308-0.564,2.105-0.564c1.057,0,1.905,0.295,2.543,0.885c0.638,0.59,1.009,1.407,1.114,2.451h-1.319
		c-0.114-0.795-0.361-1.371-0.742-1.728c-0.381-0.357-0.913-0.535-1.596-0.535c-0.839,0-1.496,0.31-1.972,0.931
		c-0.476,0.62-0.714,1.503-0.714,2.648v0.965c0,1.081,0.226,1.941,0.677,2.579c0.451,0.639,1.082,0.958,1.893,0.958
		c0.729,0,1.289-0.165,1.678-0.496c0.39-0.33,0.648-0.906,0.776-1.726h1.319c-0.123,1.053-0.512,1.865-1.166,2.437
		C328.443,15.637,327.573,15.923,326.489,15.923 M316.895,15.923c-0.784,0-1.479-0.192-2.085-0.578s-1.077-0.934-1.412-1.648
		c-0.335-0.713-0.507-1.539-0.516-2.478v-0.718c0-0.957,0.166-1.802,0.499-2.536c0.333-0.734,0.803-1.295,1.412-1.685
		c0.608-0.39,1.304-0.584,2.088-0.584c0.797,0,1.501,0.193,2.109,0.578c0.608,0.385,1.077,0.943,1.405,1.675
		c0.328,0.731,0.492,1.583,0.492,2.553v0.629c0,0.975-0.164,1.826-0.492,2.553c-0.328,0.727-0.793,1.282-1.395,1.665
		C318.399,15.731,317.697,15.923,316.895,15.923 M316.881,6.824c-0.829,0-1.482,0.316-1.958,0.947
		c-0.476,0.631-0.721,1.507-0.735,2.628v0.731c0,1.144,0.24,2.043,0.721,2.697c0.481,0.654,1.143,0.981,1.986,0.981
		c0.848,0,1.504-0.309,1.969-0.926c0.465-0.617,0.704-1.503,0.718-2.656v-0.738c0-1.18-0.237-2.086-0.711-2.717
		C318.396,7.14,317.733,6.824,316.881,6.824 M307.388,15.923c-1.089,0-1.957-0.294-2.604-0.882
		c-0.647-0.588-0.975-1.397-0.984-2.427V5.833h1.299v6.74c0,0.72,0.198,1.279,0.595,1.678c0.396,0.399,0.962,0.598,1.695,0.598
		c0.743,0,1.311-0.198,1.706-0.595c0.394-0.396,0.591-0.955,0.591-1.675V5.833h1.319v6.768c-0.005,0.939-0.3,1.707-0.885,2.304
		c-0.586,0.597-1.38,0.932-2.382,1.005L307.388,15.923 M277.413,15.923c-1.003,0-1.818-0.329-2.447-0.988
		c-0.629-0.658-0.943-1.539-0.943-2.642v-0.232c0-0.734,0.14-1.389,0.42-1.965c0.28-0.576,0.672-1.028,1.176-1.354
		c0.504-0.326,1.049-0.489,1.637-0.489c0.962,0,1.709,0.317,2.242,0.95c0.533,0.633,0.8,1.54,0.8,2.721v0.526h-5.011
		c0.018,0.729,0.231,1.318,0.639,1.767c0.408,0.449,0.926,0.673,1.555,0.673c0.447,0,0.825-0.091,1.135-0.273
		c0.31-0.182,0.581-0.424,0.814-0.725l0.772,0.602C279.582,15.447,278.652,15.923,277.413,15.923 M277.256,9.292
		c-0.51,0-0.939,0.186-1.285,0.557c-0.346,0.372-0.561,0.892-0.643,1.562h3.705v-0.096c-0.037-0.643-0.21-1.14-0.519-1.494
		C278.203,9.469,277.784,9.292,277.256,9.292 M272.119,15.923c-0.565,0-0.991-0.171-1.278-0.513
		c-0.287-0.342-0.431-0.827-0.431-1.456V9.367h-1.347V8.39h1.347V6.599h1.265V8.39h1.381v0.978h-1.381v4.593
		c0,0.297,0.062,0.519,0.185,0.667c0.123,0.148,0.333,0.222,0.629,0.222c0.146,0,0.346-0.027,0.602-0.082v1.019
		C272.757,15.878,272.434,15.923,272.119,15.923 M265.465,15.923c-1.003,0-1.818-0.329-2.447-0.988
		c-0.629-0.658-0.943-1.539-0.943-2.642v-0.232c0-0.734,0.14-1.389,0.42-1.965c0.28-0.576,0.672-1.028,1.176-1.354
		c0.503-0.326,1.049-0.489,1.637-0.489c0.962,0,1.709,0.317,2.242,0.95c0.533,0.633,0.8,1.54,0.8,2.721v0.526h-5.011
		c0.018,0.729,0.231,1.318,0.639,1.767c0.408,0.449,0.926,0.673,1.555,0.673c0.447,0,0.825-0.091,1.135-0.273
		c0.31-0.182,0.581-0.424,0.813-0.725l0.772,0.602C267.634,15.447,266.704,15.923,265.465,15.923 M265.307,9.292
		c-0.51,0-0.939,0.186-1.285,0.557c-0.346,0.372-0.561,0.892-0.643,1.562h3.705v-0.096c-0.037-0.643-0.21-1.14-0.52-1.494
		C266.255,9.469,265.836,9.292,265.307,9.292 M233.742,15.923c-1.003,0-1.815-0.349-2.437-1.046
		c-0.622-0.697-0.933-1.62-0.933-2.769v-0.089c0-0.725,0.142-1.376,0.427-1.955c0.285-0.579,0.681-1.025,1.19-1.34
		c0.508-0.314,1.088-0.472,1.74-0.472c1.007,0,1.822,0.349,2.444,1.046c0.622,0.697,0.933,1.625,0.933,2.782v0.089
		c0,0.72-0.138,1.366-0.414,1.938c-0.276,0.572-0.67,1.017-1.183,1.336C234.996,15.763,234.407,15.923,233.742,15.923
		 M233.728,9.292c-0.624,0-1.128,0.248-1.511,0.745c-0.383,0.497-0.574,1.208-0.574,2.133c0,0.82,0.19,1.479,0.571,1.975
		c0.381,0.497,0.89,0.745,1.528,0.745c0.643,0,1.153-0.252,1.531-0.755c0.378-0.503,0.567-1.209,0.567-2.116
		c0-0.811-0.193-1.468-0.578-1.972C234.877,9.544,234.366,9.292,233.728,9.292 M226.237,15.923c-1.007,0-1.808-0.336-2.403-1.008
		c-0.595-0.672-0.892-1.592-0.892-2.758v-0.212c0-0.72,0.132-1.36,0.396-1.921c0.264-0.56,0.644-0.996,1.138-1.306
		c0.495-0.31,1.079-0.465,1.753-0.465c0.829,0,1.519,0.249,2.068,0.745c0.549,0.497,0.842,1.142,0.878,1.934h-1.196
		c-0.037-0.478-0.218-0.872-0.543-1.179c-0.326-0.308-0.728-0.461-1.207-0.461c-0.643,0-1.141,0.231-1.494,0.694
		c-0.353,0.463-0.53,1.131-0.53,2.006v0.239c0,0.852,0.175,1.508,0.526,1.969c0.351,0.46,0.852,0.69,1.504,0.69
		c0.451,0,0.845-0.137,1.183-0.41c0.337-0.273,0.524-0.615,0.561-1.025h1.196c-0.023,0.424-0.169,0.827-0.438,1.21
		c-0.269,0.383-0.628,0.688-1.077,0.916C227.214,15.809,226.739,15.923,226.237,15.923 M217.252,15.923
		c-0.565,0-0.991-0.171-1.278-0.513c-0.287-0.342-0.431-0.827-0.431-1.456V9.367h-1.347V8.39h1.347V6.599h1.265V8.39h1.381v0.978
		h-1.381v4.593c0,0.297,0.062,0.519,0.185,0.667c0.123,0.148,0.333,0.222,0.629,0.222c0.146,0,0.346-0.027,0.602-0.082v1.019
		C217.89,15.878,217.566,15.923,217.252,15.923 M210.424,15.923c-0.593,0-1.117-0.105-1.572-0.314
		c-0.456-0.21-0.812-0.502-1.07-0.878c-0.258-0.376-0.386-0.783-0.386-1.22h1.265c0.023,0.424,0.193,0.76,0.509,1.008
		c0.317,0.249,0.735,0.373,1.254,0.373c0.478,0,0.862-0.097,1.152-0.291c0.289-0.194,0.434-0.452,0.434-0.776
		c0-0.342-0.129-0.607-0.386-0.796c-0.258-0.189-0.706-0.352-1.347-0.489c-0.64-0.137-1.148-0.301-1.524-0.492
		c-0.376-0.191-0.654-0.419-0.834-0.684c-0.18-0.264-0.27-0.579-0.27-0.943c0-0.606,0.256-1.119,0.769-1.538
		c0.513-0.419,1.168-0.629,1.965-0.629c0.838,0,1.519,0.217,2.04,0.649c0.522,0.433,0.783,0.987,0.783,1.661h-1.271
		c0-0.346-0.147-0.645-0.441-0.895c-0.294-0.251-0.664-0.376-1.111-0.376c-0.46,0-0.82,0.1-1.08,0.301
		c-0.26,0.201-0.39,0.463-0.39,0.786c0,0.305,0.121,0.536,0.362,0.69c0.241,0.155,0.678,0.303,1.309,0.444
		c0.631,0.141,1.143,0.31,1.535,0.506c0.392,0.196,0.682,0.432,0.872,0.708c0.189,0.276,0.284,0.612,0.284,1.008
		c0,0.661-0.264,1.191-0.793,1.589C211.953,15.724,211.267,15.923,210.424,15.923 M202.396,15.923c-0.788,0-1.389-0.229-1.801-0.687
		c-0.413-0.458-0.621-1.136-0.625-2.034V8.39h1.265v4.778c0,1.121,0.456,1.682,1.367,1.682c0.966,0,1.609-0.36,1.928-1.08V8.39
		h1.265v7.396h-1.203l-0.027-0.731C204.071,15.634,203.349,15.923,202.396,15.923 M178.764,15.923c-0.789,0-1.389-0.229-1.801-0.687
		c-0.412-0.458-0.621-1.136-0.625-2.034V8.39h1.265v4.778c0,1.121,0.456,1.682,1.367,1.682c0.966,0,1.609-0.36,1.928-1.08V8.39
		h1.265v7.396h-1.203l-0.027-0.731C180.439,15.634,179.717,15.923,178.764,15.923 M171.374,15.923c-1.003,0-1.815-0.349-2.437-1.046
		c-0.622-0.697-0.933-1.62-0.933-2.769v-0.089c0-0.725,0.142-1.376,0.427-1.955c0.285-0.579,0.681-1.025,1.19-1.34
		c0.508-0.314,1.088-0.472,1.74-0.472c1.007,0,1.822,0.349,2.444,1.046c0.622,0.697,0.933,1.625,0.933,2.782v0.089
		c0,0.72-0.138,1.366-0.414,1.938c-0.276,0.572-0.67,1.017-1.183,1.336C172.628,15.763,172.039,15.923,171.374,15.923 M171.36,9.292
		c-0.624,0-1.128,0.248-1.511,0.745c-0.383,0.497-0.574,1.208-0.574,2.133c0,0.82,0.19,1.479,0.571,1.975
		c0.38,0.497,0.89,0.745,1.528,0.745c0.643,0,1.153-0.252,1.531-0.755c0.378-0.503,0.567-1.209,0.567-2.116
		c0-0.811-0.193-1.468-0.578-1.972C172.51,9.544,171.998,9.292,171.36,9.292 M153.911,15.923c-1.003,0-1.818-0.329-2.447-0.988
		c-0.629-0.658-0.943-1.539-0.943-2.642v-0.232c0-0.734,0.14-1.389,0.42-1.965c0.28-0.576,0.672-1.028,1.176-1.354
		c0.504-0.326,1.049-0.489,1.637-0.489c0.962,0,1.709,0.317,2.242,0.95c0.533,0.633,0.8,1.54,0.8,2.721v0.526h-5.011
		c0.018,0.729,0.231,1.318,0.639,1.767c0.408,0.449,0.926,0.673,1.555,0.673c0.447,0,0.825-0.091,1.135-0.273
		c0.31-0.182,0.581-0.424,0.813-0.725l0.772,0.602C156.08,15.447,155.15,15.923,153.911,15.923 M153.754,9.292
		c-0.51,0-0.939,0.186-1.285,0.557c-0.346,0.372-0.561,0.892-0.643,1.562h3.705v-0.096c-0.037-0.643-0.21-1.14-0.52-1.494
		C154.701,9.469,154.282,9.292,153.754,9.292 M146.382,15.923c-1.003,0-1.818-0.329-2.447-0.988
		c-0.629-0.658-0.943-1.539-0.943-2.642v-0.232c0-0.734,0.14-1.389,0.42-1.965c0.28-0.576,0.672-1.028,1.176-1.354
		c0.504-0.326,1.049-0.489,1.637-0.489c0.962,0,1.709,0.317,2.242,0.95c0.533,0.633,0.8,1.54,0.8,2.721v0.526h-5.011
		c0.018,0.729,0.231,1.318,0.639,1.767c0.408,0.449,0.926,0.673,1.555,0.673c0.447,0,0.825-0.091,1.135-0.273
		c0.31-0.182,0.581-0.424,0.813-0.725l0.773,0.602C148.551,15.447,147.621,15.923,146.382,15.923 M146.225,9.292
		c-0.511,0-0.939,0.186-1.285,0.557c-0.346,0.372-0.561,0.892-0.643,1.562h3.705v-0.096c-0.037-0.643-0.21-1.14-0.519-1.494
		C147.172,9.469,146.753,9.292,146.225,9.292 M126.236,15.923c-1.003,0-1.818-0.329-2.447-0.988
		c-0.629-0.658-0.943-1.539-0.943-2.642v-0.232c0-0.734,0.14-1.389,0.42-1.965c0.28-0.576,0.672-1.028,1.176-1.354
		c0.504-0.326,1.049-0.489,1.637-0.489c0.962,0,1.709,0.317,2.242,0.95c0.533,0.633,0.8,1.54,0.8,2.721v0.526h-5.011
		c0.018,0.729,0.231,1.318,0.639,1.767c0.408,0.449,0.926,0.673,1.555,0.673c0.447,0,0.825-0.091,1.135-0.273
		c0.31-0.182,0.581-0.424,0.814-0.725l0.772,0.602C128.405,15.447,127.475,15.923,126.236,15.923 M126.079,9.292
		c-0.511,0-0.939,0.186-1.285,0.557c-0.346,0.372-0.561,0.892-0.643,1.562h3.705v-0.096c-0.037-0.643-0.21-1.14-0.52-1.494
		C127.026,9.469,126.607,9.292,126.079,9.292 M117.821,15.923c-0.857,0-1.555-0.351-2.095-1.053c-0.54-0.702-0.81-1.618-0.81-2.748
		v-0.096c0-1.135,0.269-2.047,0.807-2.738c0.538-0.69,1.242-1.036,2.112-1.036c0.866,0,1.552,0.296,2.058,0.889V5.286h1.265v10.5
		h-1.162l-0.062-0.793C119.427,15.613,118.723,15.923,117.821,15.923 M118.149,9.326c-0.62,0-1.103,0.239-1.449,0.718
		c-0.346,0.478-0.519,1.187-0.519,2.126c0,0.839,0.173,1.495,0.519,1.969c0.346,0.474,0.825,0.711,1.436,0.711
		c0.802,0,1.388-0.36,1.757-1.08v-3.397C119.514,9.675,118.933,9.326,118.149,9.326 M107.12,15.923
		c-0.593,0-1.117-0.105-1.572-0.314c-0.456-0.21-0.812-0.502-1.07-0.878c-0.257-0.376-0.386-0.783-0.386-1.22h1.265
		c0.023,0.424,0.192,0.76,0.509,1.008c0.317,0.249,0.735,0.373,1.254,0.373c0.478,0,0.862-0.097,1.152-0.291
		c0.289-0.194,0.434-0.452,0.434-0.776c0-0.342-0.129-0.607-0.386-0.796c-0.258-0.189-0.706-0.352-1.347-0.489
		c-0.64-0.137-1.148-0.301-1.524-0.492c-0.376-0.191-0.654-0.419-0.834-0.684c-0.18-0.264-0.27-0.579-0.27-0.943
		c0-0.606,0.256-1.119,0.769-1.538c0.513-0.419,1.168-0.629,1.965-0.629c0.838,0,1.519,0.217,2.04,0.649
		c0.522,0.433,0.783,0.987,0.783,1.661h-1.272c0-0.346-0.147-0.645-0.441-0.895c-0.294-0.251-0.664-0.376-1.111-0.376
		c-0.46,0-0.82,0.1-1.08,0.301c-0.26,0.201-0.39,0.463-0.39,0.786c0,0.305,0.121,0.536,0.362,0.69
		c0.241,0.155,0.678,0.303,1.309,0.444c0.631,0.141,1.143,0.31,1.535,0.506c0.392,0.196,0.682,0.432,0.872,0.708
		c0.189,0.276,0.284,0.612,0.284,1.008c0,0.661-0.264,1.191-0.793,1.589C108.648,15.724,107.963,15.923,107.12,15.923
		 M90.985,15.923c-0.565,0-0.991-0.171-1.278-0.513c-0.287-0.342-0.431-0.827-0.431-1.456V9.367h-1.347V8.39h1.347V6.599h1.265V8.39
		h1.381v0.978h-1.381v4.593c0,0.297,0.061,0.519,0.184,0.667c0.123,0.148,0.333,0.222,0.629,0.222c0.146,0,0.346-0.027,0.602-0.082
		v1.019C91.623,15.878,91.3,15.923,90.985,15.923 M82.806,15.923c-0.565,0-0.991-0.171-1.278-0.513
		c-0.287-0.342-0.431-0.827-0.431-1.456V9.367H79.75V8.39h1.347V6.599h1.265V8.39h1.381v0.978h-1.381v4.593
		c0,0.297,0.061,0.519,0.184,0.667c0.123,0.148,0.333,0.222,0.629,0.222c0.146,0,0.346-0.027,0.602-0.082v1.019
		C83.444,15.878,83.12,15.923,82.806,15.923 M75.155,15.923c-0.788,0-1.389-0.229-1.801-0.687c-0.413-0.458-0.621-1.136-0.625-2.034
		V8.39h1.265v4.778c0,1.121,0.456,1.682,1.367,1.682c0.966,0,1.609-0.36,1.928-1.08V8.39h1.265v7.396H77.35l-0.027-0.731
		C76.83,15.634,76.108,15.923,75.155,15.923 M67.765,15.923c-1.003,0-1.815-0.349-2.437-1.046c-0.622-0.697-0.933-1.62-0.933-2.769
		v-0.089c0-0.725,0.142-1.376,0.427-1.955c0.285-0.579,0.681-1.025,1.189-1.34c0.508-0.314,1.088-0.472,1.74-0.472
		c1.007,0,1.822,0.349,2.444,1.046c0.622,0.697,0.933,1.625,0.933,2.782v0.089c0,0.72-0.138,1.366-0.414,1.938
		c-0.276,0.572-0.67,1.017-1.183,1.336C69.019,15.763,68.43,15.923,67.765,15.923 M67.751,9.292c-0.624,0-1.128,0.248-1.511,0.745
		c-0.383,0.497-0.574,1.208-0.574,2.133c0,0.82,0.19,1.479,0.571,1.975c0.38,0.497,0.89,0.745,1.528,0.745
		c0.643,0,1.153-0.252,1.531-0.755c0.378-0.503,0.567-1.209,0.567-2.116c0-0.811-0.193-1.468-0.578-1.972
		C68.901,9.544,68.389,9.292,67.751,9.292 M43.676,15.923c-0.788,0-1.389-0.229-1.801-0.687c-0.413-0.458-0.621-1.136-0.626-2.034
		V8.39h1.265v4.778c0,1.121,0.456,1.682,1.367,1.682c0.966,0,1.609-0.36,1.928-1.08V8.39h1.265v7.396h-1.203l-0.027-0.731
		C45.351,15.634,44.629,15.923,43.676,15.923 M36.286,15.923c-1.003,0-1.815-0.349-2.437-1.046c-0.622-0.697-0.933-1.62-0.933-2.769
		v-0.089c0-0.725,0.142-1.376,0.427-1.955c0.285-0.579,0.681-1.025,1.189-1.34c0.508-0.314,1.088-0.472,1.74-0.472
		c1.007,0,1.822,0.349,2.444,1.046c0.622,0.697,0.933,1.625,0.933,2.782v0.089c0,0.72-0.138,1.366-0.414,1.938
		c-0.276,0.572-0.67,1.017-1.183,1.336C37.54,15.763,36.951,15.923,36.286,15.923 M36.272,9.292c-0.624,0-1.128,0.248-1.511,0.745
		c-0.383,0.497-0.574,1.208-0.574,2.133c0,0.82,0.19,1.479,0.571,1.975c0.38,0.497,0.89,0.745,1.528,0.745
		c0.643,0,1.153-0.252,1.531-0.755c0.378-0.503,0.567-1.209,0.567-2.116c0-0.811-0.193-1.468-0.578-1.972
		C37.422,9.544,36.91,9.292,36.272,9.292 M397.962,15.786h-1.265v-10.5h1.265V15.786 M385.481,15.786h-1.265V8.39h1.231l0.02,0.855
		c0.415-0.661,1.003-0.991,1.764-0.991c0.246,0,0.433,0.032,0.561,0.096v1.176c-0.191-0.032-0.399-0.048-0.622-0.048
		c-0.829,0-1.392,0.353-1.689,1.06V15.786 M374.711,15.786h-1.265v-4.895c-0.005-0.533-0.126-0.927-0.366-1.183
		c-0.239-0.255-0.612-0.383-1.118-0.383c-0.41,0-0.77,0.109-1.08,0.328c-0.31,0.219-0.552,0.506-0.725,0.861v5.271h-1.265V8.39
		h1.196l0.041,0.93c0.565-0.711,1.303-1.066,2.215-1.066c1.563,0,2.351,0.882,2.365,2.646V15.786 M345.158,15.786h-1.265V9.367
		h-1.169V8.39h1.169V7.631c0-0.793,0.212-1.406,0.636-1.839c0.424-0.433,1.023-0.649,1.798-0.649c0.292,0,0.581,0.038,0.868,0.115
		l-0.068,1.019c-0.214-0.041-0.442-0.062-0.684-0.062c-0.41,0-0.727,0.12-0.95,0.36c-0.223,0.24-0.335,0.584-0.335,1.032V8.39h1.579
		v0.978h-1.579V15.786 M298.723,15.786h-6.521v-0.909l3.445-3.828c0.51-0.579,0.862-1.049,1.056-1.412
		c0.194-0.362,0.291-0.737,0.291-1.124c0-0.52-0.157-0.946-0.472-1.278c-0.314-0.333-0.734-0.499-1.258-0.499
		c-0.629,0-1.118,0.179-1.466,0.537c-0.349,0.358-0.523,0.856-0.523,1.494h-1.265c0-0.916,0.295-1.657,0.885-2.222
		c0.59-0.565,1.38-0.848,2.369-0.848c0.925,0,1.657,0.243,2.194,0.728c0.538,0.485,0.807,1.131,0.807,1.938
		c0,0.98-0.624,2.147-1.873,3.5l-2.666,2.892h4.997V15.786 M289.393,15.786h-1.272V7.357l-2.55,0.937V7.145l3.623-1.36h0.198V15.786
		 M260.345,15.786h-1.265v-10.5h1.265V15.786 M249.112,15.786h-1.265v-4.881c0-0.529-0.121-0.924-0.362-1.186
		c-0.242-0.262-0.647-0.393-1.217-0.393c-0.469,0-0.859,0.14-1.169,0.42c-0.31,0.28-0.49,0.658-0.54,1.131v4.908h-1.272v-4.847
		c0-1.075-0.526-1.613-1.579-1.613c-0.829,0-1.397,0.353-1.702,1.06v5.4h-1.265V8.39h1.196l0.034,0.82
		c0.542-0.638,1.274-0.957,2.194-0.957c1.034,0,1.739,0.397,2.112,1.19c0.246-0.355,0.566-0.643,0.96-0.861
		c0.394-0.219,0.86-0.328,1.398-0.328c1.622,0,2.447,0.859,2.475,2.577V15.786 M198.052,15.786h-1.265v-4.881
		c0-0.529-0.121-0.924-0.362-1.186c-0.242-0.262-0.647-0.393-1.217-0.393c-0.469,0-0.859,0.14-1.169,0.42
		c-0.31,0.28-0.49,0.658-0.54,1.131v4.908h-1.272v-4.847c0-1.075-0.526-1.613-1.579-1.613c-0.829,0-1.397,0.353-1.702,1.06v5.4
		h-1.265V8.39h1.196l0.034,0.82c0.542-0.638,1.274-0.957,2.194-0.957c1.034,0,1.739,0.397,2.112,1.19
		c0.246-0.355,0.566-0.643,0.96-0.861c0.394-0.219,0.86-0.328,1.398-0.328c1.622,0,2.447,0.859,2.475,2.577V15.786 M139.879,15.786
		h-1.265V8.39h1.231l0.02,0.855c0.415-0.661,1.003-0.991,1.764-0.991c0.246,0,0.433,0.032,0.561,0.096v1.176
		c-0.191-0.032-0.399-0.048-0.622-0.048c-0.829,0-1.392,0.353-1.689,1.06V15.786 M102.429,15.786h-1.265V8.39h1.265V15.786
		 M99.174,15.786h-1.265v-4.895c-0.005-0.533-0.126-0.927-0.366-1.183c-0.239-0.255-0.612-0.383-1.118-0.383
		c-0.41,0-0.77,0.109-1.08,0.328c-0.31,0.219-0.552,0.506-0.725,0.861v5.271h-1.265v-10.5h1.265v3.999
		c0.561-0.688,1.29-1.032,2.188-1.032c1.563,0,2.351,0.882,2.365,2.646V15.786 M62.797,15.786h-1.265v-4.895
		c-0.005-0.533-0.126-0.927-0.366-1.183c-0.239-0.255-0.612-0.383-1.118-0.383c-0.41,0-0.77,0.109-1.08,0.328
		c-0.31,0.219-0.551,0.506-0.725,0.861v5.271h-1.265v-10.5h1.265v3.999c0.561-0.688,1.29-1.032,2.187-1.032
		c1.563,0,2.352,0.882,2.365,2.646V15.786 M29.803,15.786h-1.265V8.39h1.231l0.021,0.855c0.415-0.661,1.003-0.991,1.764-0.991
		c0.246,0,0.433,0.032,0.561,0.096v1.176c-0.191-0.032-0.399-0.048-0.622-0.048c-0.829,0-1.392,0.353-1.689,1.06V15.786
		 M26.579,15.786h-1.265v-4.895c-0.005-0.533-0.126-0.927-0.366-1.183c-0.239-0.255-0.612-0.383-1.118-0.383
		c-0.41,0-0.77,0.109-1.08,0.328c-0.31,0.219-0.551,0.506-0.725,0.861v5.271h-1.265v-10.5h1.265v3.999
		c0.561-0.688,1.29-1.032,2.187-1.032c1.563,0,2.352,0.882,2.365,2.646V15.786 M16.148,15.786h-1.306v-8.88H11.65V5.833h7.697v1.073
		h-3.199V15.786 M101.807,7.145c-0.246,0-0.432-0.068-0.557-0.205c-0.125-0.137-0.188-0.308-0.188-0.513
		c0-0.205,0.063-0.378,0.188-0.52c0.125-0.141,0.311-0.212,0.557-0.212c0.246,0,0.433,0.071,0.561,0.212
		c0.127,0.141,0.191,0.314,0.191,0.52c0,0.205-0.064,0.376-0.191,0.513C102.239,7.077,102.053,7.145,101.807,7.145"/>
	<path fill="#000000" d="M194.756,36.773l-0.239-0.02l-0.472-0.089v-1.025l0.342,0.027c0.428,0,0.762-0.087,1.001-0.26
		c0.239-0.173,0.436-0.49,0.591-0.95l0.28-0.752l-2.639-7.314h1.381l1.846,5.544l1.723-5.544h1.354l-2.974,8.538
		C196.49,36.158,195.759,36.773,194.756,36.773 M220.663,36.63h-1.265V26.39h1.155l0.062,0.82c0.515-0.638,1.23-0.957,2.146-0.957
		c0.889,0,1.592,0.335,2.109,1.005c0.517,0.67,0.776,1.602,0.776,2.796v0.116c0,1.126-0.258,2.033-0.773,2.721
		c-0.515,0.688-1.212,1.032-2.092,1.032c-0.898,0-1.604-0.285-2.119-0.855V36.63 M222.386,27.326c-0.766,0-1.34,0.34-1.723,1.019
		v3.534c0.378,0.675,0.957,1.012,1.736,1.012c0.606,0,1.088-0.24,1.446-0.721c0.358-0.481,0.537-1.195,0.537-2.143
		c0-0.834-0.178-1.492-0.533-1.975C223.493,27.568,223.006,27.326,222.386,27.326 M373.649,35.769l-0.718-0.492
		c0.428-0.597,0.652-1.212,0.67-1.846v-1.142h1.237v0.991c0,0.46-0.113,0.92-0.338,1.381
		C374.274,35.121,373.99,35.49,373.649,35.769 M365.046,33.923c-1.003,0-1.818-0.329-2.447-0.988
		c-0.629-0.659-0.943-1.539-0.943-2.642v-0.232c0-0.734,0.14-1.389,0.42-1.965c0.28-0.576,0.672-1.028,1.176-1.354
		c0.503-0.326,1.049-0.489,1.637-0.489c0.962,0,1.709,0.317,2.242,0.95c0.533,0.634,0.8,1.54,0.8,2.721v0.526h-5.011
		c0.018,0.729,0.231,1.318,0.639,1.767c0.408,0.449,0.926,0.673,1.555,0.673c0.447,0,0.825-0.091,1.135-0.273
		c0.31-0.182,0.581-0.424,0.813-0.725l0.772,0.602C367.215,33.447,366.285,33.923,365.046,33.923 M364.888,27.292
		c-0.51,0-0.939,0.186-1.285,0.557c-0.346,0.372-0.56,0.892-0.643,1.562h3.705v-0.096c-0.037-0.643-0.21-1.14-0.519-1.494
		C365.836,27.469,365.417,27.292,364.888,27.292 M351.147,33.923c-1.003,0-1.818-0.329-2.447-0.988
		c-0.629-0.659-0.943-1.539-0.943-2.642v-0.232c0-0.734,0.14-1.389,0.42-1.965c0.28-0.576,0.672-1.028,1.176-1.354
		c0.504-0.326,1.049-0.489,1.637-0.489c0.962,0,1.709,0.317,2.242,0.95c0.533,0.634,0.8,1.54,0.8,2.721v0.526h-5.011
		c0.018,0.729,0.231,1.318,0.639,1.767c0.408,0.449,0.926,0.673,1.555,0.673c0.447,0,0.825-0.091,1.135-0.273
		c0.31-0.182,0.581-0.424,0.813-0.725l0.772,0.602C353.316,33.447,352.387,33.923,351.147,33.923 M350.99,27.292
		c-0.51,0-0.939,0.186-1.285,0.557c-0.346,0.372-0.561,0.892-0.643,1.562h3.705v-0.096c-0.037-0.643-0.21-1.14-0.52-1.494
		C351.938,27.469,351.518,27.292,350.99,27.292 M332.934,33.923c-1.003,0-1.815-0.349-2.437-1.046
		c-0.622-0.697-0.933-1.62-0.933-2.769V30.02c0-0.725,0.142-1.376,0.427-1.955c0.285-0.579,0.681-1.025,1.189-1.34
		c0.508-0.314,1.088-0.472,1.74-0.472c1.007,0,1.822,0.349,2.444,1.046c0.622,0.697,0.933,1.625,0.933,2.782v0.089
		c0,0.72-0.138,1.366-0.414,1.938c-0.276,0.572-0.67,1.017-1.183,1.336C334.188,33.763,333.599,33.923,332.934,33.923
		 M332.92,27.292c-0.624,0-1.128,0.248-1.511,0.745c-0.383,0.497-0.574,1.208-0.574,2.133c0,0.82,0.19,1.479,0.571,1.976
		c0.38,0.497,0.89,0.745,1.528,0.745c0.643,0,1.153-0.252,1.531-0.755c0.378-0.504,0.567-1.209,0.567-2.116
		c0-0.811-0.193-1.469-0.578-1.972C334.07,27.544,333.558,27.292,332.92,27.292 M308.084,33.923c-0.592,0-1.117-0.105-1.572-0.314
		c-0.456-0.21-0.812-0.502-1.07-0.878c-0.258-0.376-0.386-0.783-0.386-1.22h1.265c0.023,0.424,0.192,0.76,0.509,1.008
		c0.317,0.249,0.735,0.373,1.254,0.373c0.478,0,0.862-0.097,1.152-0.29c0.289-0.194,0.434-0.452,0.434-0.776
		c0-0.342-0.129-0.607-0.386-0.796c-0.257-0.189-0.706-0.352-1.347-0.489c-0.64-0.137-1.148-0.301-1.524-0.492
		c-0.376-0.191-0.654-0.419-0.834-0.684c-0.18-0.264-0.27-0.579-0.27-0.943c0-0.606,0.256-1.119,0.769-1.538
		c0.513-0.419,1.168-0.629,1.965-0.629c0.838,0,1.519,0.216,2.04,0.649s0.783,0.987,0.783,1.661h-1.271
		c0-0.346-0.147-0.645-0.441-0.896c-0.294-0.251-0.664-0.376-1.111-0.376c-0.46,0-0.82,0.1-1.08,0.301
		c-0.26,0.201-0.39,0.463-0.39,0.786c0,0.305,0.121,0.535,0.362,0.69c0.242,0.155,0.678,0.303,1.309,0.444
		c0.631,0.141,1.143,0.31,1.535,0.506c0.392,0.196,0.682,0.432,0.872,0.707c0.189,0.276,0.284,0.612,0.284,1.008
		c0,0.661-0.264,1.191-0.793,1.589C309.613,33.724,308.927,33.923,308.084,33.923 M301.01,33.923c-1.003,0-1.818-0.329-2.447-0.988
		c-0.629-0.659-0.943-1.539-0.943-2.642v-0.232c0-0.734,0.14-1.389,0.42-1.965c0.28-0.576,0.672-1.028,1.176-1.354
		c0.504-0.326,1.049-0.489,1.637-0.489c0.962,0,1.709,0.317,2.242,0.95c0.533,0.634,0.8,1.54,0.8,2.721v0.526h-5.011
		c0.018,0.729,0.231,1.318,0.639,1.767c0.408,0.449,0.926,0.673,1.555,0.673c0.447,0,0.825-0.091,1.135-0.273
		c0.31-0.182,0.581-0.424,0.813-0.725l0.772,0.602C303.179,33.447,302.249,33.923,301.01,33.923 M300.853,27.292
		c-0.51,0-0.939,0.186-1.285,0.557c-0.346,0.372-0.561,0.892-0.643,1.562h3.705v-0.096c-0.037-0.643-0.21-1.14-0.52-1.494
		C301.801,27.469,301.381,27.292,300.853,27.292 M293.47,33.923c-0.592,0-1.117-0.105-1.572-0.314
		c-0.456-0.21-0.812-0.502-1.07-0.878c-0.257-0.376-0.386-0.783-0.386-1.22h1.265c0.023,0.424,0.192,0.76,0.509,1.008
		c0.317,0.249,0.735,0.373,1.254,0.373c0.479,0,0.862-0.097,1.152-0.29c0.289-0.194,0.434-0.452,0.434-0.776
		c0-0.342-0.129-0.607-0.386-0.796c-0.258-0.189-0.706-0.352-1.347-0.489c-0.64-0.137-1.149-0.301-1.525-0.492
		c-0.376-0.191-0.654-0.419-0.834-0.684c-0.18-0.264-0.27-0.579-0.27-0.943c0-0.606,0.256-1.119,0.769-1.538
		c0.513-0.419,1.168-0.629,1.965-0.629c0.839,0,1.519,0.216,2.041,0.649c0.522,0.433,0.783,0.987,0.783,1.661h-1.272
		c0-0.346-0.147-0.645-0.441-0.896c-0.294-0.251-0.664-0.376-1.111-0.376c-0.46,0-0.82,0.1-1.08,0.301
		c-0.26,0.201-0.39,0.463-0.39,0.786c0,0.305,0.121,0.535,0.362,0.69s0.678,0.303,1.309,0.444c0.631,0.141,1.143,0.31,1.535,0.506
		c0.392,0.196,0.682,0.432,0.872,0.707c0.189,0.276,0.284,0.612,0.284,1.008c0,0.661-0.264,1.191-0.793,1.589
		C294.999,33.724,294.314,33.923,293.47,33.923 M280.557,33.923c-0.788,0-1.389-0.229-1.801-0.687
		c-0.413-0.458-0.621-1.136-0.626-2.034V26.39h1.265v4.778c0,1.121,0.456,1.682,1.367,1.682c0.966,0,1.609-0.36,1.928-1.08v-5.38
		h1.265v7.396h-1.203l-0.027-0.731C282.232,33.634,281.509,33.923,280.557,33.923 M273.166,33.923c-1.003,0-1.815-0.349-2.437-1.046
		c-0.622-0.697-0.933-1.62-0.933-2.769V30.02c0-0.725,0.142-1.376,0.427-1.955c0.285-0.579,0.681-1.025,1.189-1.34
		c0.508-0.314,1.088-0.472,1.74-0.472c1.007,0,1.822,0.349,2.444,1.046c0.622,0.697,0.933,1.625,0.933,2.782v0.089
		c0,0.72-0.138,1.366-0.414,1.938c-0.276,0.572-0.67,1.017-1.183,1.336C274.421,33.763,273.832,33.923,273.166,33.923
		 M273.153,27.292c-0.624,0-1.128,0.248-1.511,0.745c-0.383,0.497-0.574,1.208-0.574,2.133c0,0.82,0.19,1.479,0.571,1.976
		c0.38,0.497,0.89,0.745,1.528,0.745c0.643,0,1.153-0.252,1.531-0.755c0.378-0.504,0.567-1.209,0.567-2.116
		c0-0.811-0.193-1.469-0.578-1.972C274.302,27.544,273.791,27.292,273.153,27.292 M265.662,33.923c-1.007,0-1.808-0.336-2.403-1.008
		c-0.595-0.672-0.892-1.592-0.892-2.758v-0.212c0-0.72,0.132-1.36,0.397-1.921c0.264-0.561,0.644-0.996,1.138-1.306
		c0.494-0.31,1.079-0.465,1.753-0.465c0.829,0,1.519,0.248,2.068,0.745c0.549,0.497,0.842,1.142,0.878,1.935h-1.196
		c-0.037-0.479-0.218-0.872-0.543-1.179c-0.326-0.308-0.728-0.461-1.207-0.461c-0.643,0-1.141,0.231-1.494,0.694
		c-0.353,0.463-0.53,1.131-0.53,2.006v0.239c0,0.852,0.175,1.508,0.526,1.969c0.351,0.46,0.852,0.69,1.504,0.69
		c0.451,0,0.845-0.137,1.183-0.41c0.337-0.273,0.524-0.615,0.561-1.025h1.196c-0.023,0.424-0.169,0.827-0.437,1.21
		c-0.269,0.383-0.628,0.688-1.077,0.916C266.638,33.809,266.163,33.923,265.662,33.923 M254.742,33.923
		c-1.003,0-1.818-0.329-2.447-0.988c-0.629-0.659-0.943-1.539-0.943-2.642v-0.232c0-0.734,0.14-1.389,0.42-1.965
		c0.28-0.576,0.672-1.028,1.176-1.354c0.504-0.326,1.049-0.489,1.637-0.489c0.961,0,1.709,0.317,2.242,0.95
		c0.533,0.634,0.8,1.54,0.8,2.721v0.526h-5.011c0.018,0.729,0.231,1.318,0.639,1.767c0.408,0.449,0.926,0.673,1.555,0.673
		c0.447,0,0.825-0.091,1.135-0.273c0.31-0.182,0.581-0.424,0.813-0.725l0.772,0.602C256.911,33.447,255.981,33.923,254.742,33.923
		 M254.585,27.292c-0.511,0-0.939,0.186-1.285,0.557c-0.346,0.372-0.561,0.892-0.643,1.562h3.705v-0.096
		c-0.037-0.643-0.21-1.14-0.519-1.494C255.532,27.469,255.113,27.292,254.585,27.292 M249.448,33.923
		c-0.565,0-0.991-0.171-1.278-0.513c-0.287-0.342-0.431-0.827-0.431-1.456v-4.587h-1.347V26.39h1.347v-1.791h1.265v1.791h1.381
		v0.978h-1.381v4.593c0,0.297,0.062,0.519,0.185,0.667c0.123,0.148,0.333,0.222,0.629,0.222c0.146,0,0.346-0.027,0.602-0.082v1.019
		C250.086,33.878,249.763,33.923,249.448,33.923 M241.922,33.923c-0.729,0-1.327-0.206-1.794-0.619
		c-0.467-0.412-0.701-0.935-0.701-1.569c0-0.77,0.293-1.368,0.878-1.794c0.586-0.426,1.409-0.639,2.471-0.639h1.23v-0.581
		c0-0.442-0.132-0.794-0.396-1.056c-0.264-0.262-0.654-0.393-1.169-0.393c-0.451,0-0.829,0.114-1.135,0.342
		c-0.305,0.228-0.458,0.504-0.458,0.827h-1.272c0-0.369,0.131-0.726,0.393-1.07c0.262-0.344,0.617-0.616,1.066-0.817
		c0.449-0.2,0.942-0.301,1.48-0.301c0.852,0,1.52,0.213,2.003,0.639c0.483,0.426,0.734,1.013,0.752,1.76v3.404
		c0,0.679,0.087,1.219,0.26,1.62v0.109h-1.326c-0.073-0.146-0.132-0.406-0.178-0.779C243.44,33.618,242.738,33.923,241.922,33.923
		 M243.016,30.197c-1.549,0-2.324,0.454-2.324,1.36c0,0.396,0.132,0.706,0.396,0.93c0.264,0.223,0.604,0.335,1.019,0.335
		c0.396,0,0.772-0.103,1.128-0.308c0.355-0.205,0.613-0.472,0.772-0.8v-1.518H243.016 M229.487,33.923
		c-0.729,0-1.327-0.206-1.794-0.619c-0.467-0.412-0.701-0.935-0.701-1.569c0-0.77,0.293-1.368,0.878-1.794
		c0.586-0.426,1.409-0.639,2.471-0.639h1.23v-0.581c0-0.442-0.132-0.794-0.396-1.056s-0.654-0.393-1.169-0.393
		c-0.451,0-0.829,0.114-1.135,0.342c-0.305,0.228-0.458,0.504-0.458,0.827h-1.272c0-0.369,0.131-0.726,0.393-1.07
		c0.262-0.344,0.617-0.616,1.066-0.817c0.449-0.2,0.942-0.301,1.48-0.301c0.852,0,1.52,0.213,2.003,0.639
		c0.483,0.426,0.734,1.013,0.752,1.76v3.404c0,0.679,0.087,1.219,0.26,1.62v0.109h-1.326c-0.073-0.146-0.132-0.406-0.178-0.779
		C231.005,33.618,230.303,33.923,229.487,33.923 M230.581,30.197c-1.549,0-2.324,0.454-2.324,1.36c0,0.396,0.132,0.706,0.396,0.93
		c0.264,0.223,0.604,0.335,1.019,0.335c0.396,0,0.772-0.103,1.128-0.308c0.355-0.205,0.613-0.472,0.772-0.8v-1.518H230.581
		 M214.918,33.923c-1.003,0-1.818-0.329-2.447-0.988c-0.629-0.659-0.943-1.539-0.943-2.642v-0.232c0-0.734,0.14-1.389,0.42-1.965
		c0.28-0.576,0.672-1.028,1.176-1.354c0.503-0.326,1.049-0.489,1.637-0.489c0.962,0,1.709,0.317,2.242,0.95
		c0.533,0.634,0.8,1.54,0.8,2.721v0.526h-5.011c0.018,0.729,0.231,1.318,0.639,1.767c0.408,0.449,0.926,0.673,1.555,0.673
		c0.447,0,0.825-0.091,1.135-0.273c0.31-0.182,0.581-0.424,0.813-0.725l0.772,0.602C217.087,33.447,216.158,33.923,214.918,33.923
		 M214.761,27.292c-0.51,0-0.939,0.186-1.285,0.557c-0.346,0.372-0.561,0.892-0.643,1.562h3.705v-0.096
		c-0.037-0.643-0.21-1.14-0.52-1.494C215.709,27.469,215.289,27.292,214.761,27.292 M207.379,33.923
		c-0.593,0-1.117-0.105-1.572-0.314c-0.456-0.21-0.812-0.502-1.07-0.878c-0.257-0.376-0.386-0.783-0.386-1.22h1.265
		c0.023,0.424,0.192,0.76,0.509,1.008c0.317,0.249,0.735,0.373,1.254,0.373c0.478,0,0.862-0.097,1.152-0.29
		c0.289-0.194,0.434-0.452,0.434-0.776c0-0.342-0.129-0.607-0.386-0.796c-0.258-0.189-0.706-0.352-1.347-0.489
		c-0.64-0.137-1.148-0.301-1.524-0.492c-0.376-0.191-0.654-0.419-0.834-0.684c-0.18-0.264-0.27-0.579-0.27-0.943
		c0-0.606,0.256-1.119,0.769-1.538c0.513-0.419,1.168-0.629,1.965-0.629c0.839,0,1.519,0.216,2.041,0.649
		c0.522,0.433,0.783,0.987,0.783,1.661h-1.272c0-0.346-0.147-0.645-0.441-0.896c-0.294-0.251-0.664-0.376-1.111-0.376
		c-0.46,0-0.82,0.1-1.08,0.301c-0.26,0.201-0.39,0.463-0.39,0.786c0,0.305,0.121,0.535,0.362,0.69
		c0.242,0.155,0.678,0.303,1.309,0.444c0.631,0.141,1.143,0.31,1.535,0.506c0.392,0.196,0.682,0.432,0.872,0.707
		c0.189,0.276,0.284,0.612,0.284,1.008c0,0.661-0.264,1.191-0.793,1.589C208.908,33.724,208.222,33.923,207.379,33.923
		 M182.311,33.923c-0.729,0-1.327-0.206-1.794-0.619c-0.467-0.412-0.701-0.935-0.701-1.569c0-0.77,0.293-1.368,0.878-1.794
		c0.586-0.426,1.409-0.639,2.471-0.639h1.23v-0.581c0-0.442-0.132-0.794-0.396-1.056c-0.264-0.262-0.654-0.393-1.169-0.393
		c-0.451,0-0.829,0.114-1.135,0.342c-0.305,0.228-0.458,0.504-0.458,0.827h-1.272c0-0.369,0.131-0.726,0.393-1.07
		c0.262-0.344,0.617-0.616,1.066-0.817c0.449-0.2,0.942-0.301,1.48-0.301c0.852,0,1.52,0.213,2.003,0.639
		c0.483,0.426,0.734,1.013,0.752,1.76v3.404c0,0.679,0.087,1.219,0.26,1.62v0.109h-1.326c-0.073-0.146-0.132-0.406-0.178-0.779
		C183.829,33.618,183.127,33.923,182.311,33.923 M183.405,30.197c-1.549,0-2.324,0.454-2.324,1.36c0,0.396,0.132,0.706,0.396,0.93
		c0.264,0.223,0.604,0.335,1.019,0.335c0.396,0,0.772-0.103,1.128-0.308c0.355-0.205,0.613-0.472,0.772-0.8v-1.518H183.405
		 M157.942,33.923c-1.003,0-1.815-0.349-2.437-1.046c-0.622-0.697-0.933-1.62-0.933-2.769V30.02c0-0.725,0.142-1.376,0.427-1.955
		c0.285-0.579,0.681-1.025,1.189-1.34c0.508-0.314,1.088-0.472,1.74-0.472c1.007,0,1.822,0.349,2.444,1.046
		c0.622,0.697,0.933,1.625,0.933,2.782v0.089c0,0.72-0.138,1.366-0.413,1.938c-0.276,0.572-0.67,1.017-1.183,1.336
		C159.196,33.763,158.607,33.923,157.942,33.923 M157.928,27.292c-0.624,0-1.128,0.248-1.511,0.745
		c-0.383,0.497-0.574,1.208-0.574,2.133c0,0.82,0.19,1.479,0.571,1.976c0.38,0.497,0.89,0.745,1.528,0.745
		c0.643,0,1.153-0.252,1.531-0.755c0.378-0.504,0.567-1.209,0.567-2.116c0-0.811-0.193-1.469-0.578-1.972
		C159.078,27.544,158.566,27.292,157.928,27.292 M139.197,33.923c-1.003,0-1.818-0.329-2.447-0.988
		c-0.629-0.659-0.943-1.539-0.943-2.642v-0.232c0-0.734,0.14-1.389,0.42-1.965c0.28-0.576,0.672-1.028,1.176-1.354
		c0.504-0.326,1.049-0.489,1.637-0.489c0.962,0,1.709,0.317,2.242,0.95c0.533,0.634,0.8,1.54,0.8,2.721v0.526h-5.011
		c0.018,0.729,0.231,1.318,0.639,1.767c0.408,0.449,0.926,0.673,1.555,0.673c0.447,0,0.825-0.091,1.135-0.273
		s0.581-0.424,0.814-0.725l0.772,0.602C141.366,33.447,140.436,33.923,139.197,33.923 M139.039,27.292
		c-0.51,0-0.939,0.186-1.285,0.557c-0.346,0.372-0.561,0.892-0.643,1.562h3.705v-0.096c-0.037-0.643-0.21-1.14-0.52-1.494
		C139.987,27.469,139.568,27.292,139.039,27.292 M126.073,33.923c-0.729,0-1.327-0.206-1.794-0.619
		c-0.467-0.412-0.701-0.935-0.701-1.569c0-0.77,0.293-1.368,0.878-1.794c0.585-0.426,1.409-0.639,2.471-0.639h1.231v-0.581
		c0-0.442-0.132-0.794-0.396-1.056c-0.264-0.262-0.654-0.393-1.169-0.393c-0.451,0-0.83,0.114-1.135,0.342
		C125.153,27.841,125,28.117,125,28.44h-1.272c0-0.369,0.131-0.726,0.393-1.07c0.262-0.344,0.617-0.616,1.066-0.817
		c0.449-0.2,0.942-0.301,1.48-0.301c0.852,0,1.52,0.213,2.003,0.639c0.483,0.426,0.734,1.013,0.752,1.76v3.404
		c0,0.679,0.086,1.219,0.26,1.62v0.109h-1.326c-0.073-0.146-0.132-0.406-0.178-0.779C127.591,33.618,126.889,33.923,126.073,33.923
		 M127.167,30.197c-1.55,0-2.324,0.454-2.324,1.36c0,0.396,0.132,0.706,0.396,0.93c0.264,0.223,0.604,0.335,1.019,0.335
		c0.396,0,0.772-0.103,1.128-0.308c0.355-0.205,0.613-0.472,0.772-0.8v-1.518H127.167 M115.837,33.923
		c-1.003,0-1.818-0.329-2.447-0.988c-0.629-0.659-0.943-1.539-0.943-2.642v-0.232c0-0.734,0.14-1.389,0.42-1.965
		c0.28-0.576,0.672-1.028,1.176-1.354c0.504-0.326,1.049-0.489,1.637-0.489c0.962,0,1.709,0.317,2.242,0.95
		c0.533,0.634,0.8,1.54,0.8,2.721v0.526h-5.011c0.018,0.729,0.231,1.318,0.639,1.767c0.408,0.449,0.926,0.673,1.555,0.673
		c0.447,0,0.825-0.091,1.135-0.273c0.31-0.182,0.581-0.424,0.813-0.725l0.772,0.602C118.006,33.447,117.076,33.923,115.837,33.923
		 M115.679,27.292c-0.51,0-0.939,0.186-1.285,0.557c-0.346,0.372-0.561,0.892-0.643,1.562h3.705v-0.096
		c-0.037-0.643-0.21-1.14-0.52-1.494C116.627,27.469,116.208,27.292,115.679,27.292 M108.297,33.923
		c-0.592,0-1.117-0.105-1.572-0.314c-0.456-0.21-0.812-0.502-1.07-0.878c-0.258-0.376-0.386-0.783-0.386-1.22h1.265
		c0.023,0.424,0.192,0.76,0.509,1.008c0.317,0.249,0.735,0.373,1.254,0.373c0.479,0,0.862-0.097,1.152-0.29
		c0.289-0.194,0.434-0.452,0.434-0.776c0-0.342-0.129-0.607-0.386-0.796c-0.258-0.189-0.706-0.352-1.347-0.489
		c-0.64-0.137-1.149-0.301-1.525-0.492c-0.376-0.191-0.654-0.419-0.834-0.684c-0.18-0.264-0.27-0.579-0.27-0.943
		c0-0.606,0.256-1.119,0.769-1.538c0.513-0.419,1.168-0.629,1.965-0.629c0.839,0,1.519,0.216,2.041,0.649
		c0.522,0.433,0.783,0.987,0.783,1.661h-1.272c0-0.346-0.147-0.645-0.441-0.896c-0.294-0.251-0.664-0.376-1.111-0.376
		c-0.46,0-0.82,0.1-1.08,0.301c-0.26,0.201-0.39,0.463-0.39,0.786c0,0.305,0.121,0.535,0.362,0.69
		c0.242,0.155,0.678,0.303,1.309,0.444c0.631,0.141,1.143,0.31,1.535,0.506c0.392,0.196,0.682,0.432,0.872,0.707
		c0.189,0.276,0.284,0.612,0.284,1.008c0,0.661-0.264,1.191-0.793,1.589C109.826,33.724,109.14,33.923,108.297,33.923
		 M101.223,33.923c-1.003,0-1.818-0.329-2.447-0.988c-0.629-0.659-0.943-1.539-0.943-2.642v-0.232c0-0.734,0.14-1.389,0.42-1.965
		c0.28-0.576,0.672-1.028,1.176-1.354c0.503-0.326,1.049-0.489,1.637-0.489c0.962,0,1.709,0.317,2.242,0.95
		c0.533,0.634,0.8,1.54,0.8,2.721v0.526h-5.011c0.018,0.729,0.231,1.318,0.639,1.767c0.408,0.449,0.926,0.673,1.555,0.673
		c0.447,0,0.825-0.091,1.135-0.273c0.31-0.182,0.581-0.424,0.813-0.725l0.772,0.602C103.392,33.447,102.463,33.923,101.223,33.923
		 M101.066,27.292c-0.51,0-0.939,0.186-1.285,0.557c-0.346,0.372-0.56,0.892-0.643,1.562h3.705v-0.096
		c-0.037-0.643-0.21-1.14-0.52-1.494C102.014,27.469,101.595,27.292,101.066,27.292 M61.841,33.923
		c-1.003,0-1.815-0.349-2.437-1.046c-0.622-0.697-0.933-1.62-0.933-2.769V30.02c0-0.725,0.142-1.376,0.427-1.955
		c0.285-0.579,0.681-1.025,1.189-1.34c0.508-0.314,1.088-0.472,1.74-0.472c1.007,0,1.822,0.349,2.444,1.046
		c0.622,0.697,0.933,1.625,0.933,2.782v0.089c0,0.72-0.138,1.366-0.414,1.938c-0.276,0.572-0.67,1.017-1.183,1.336
		C63.095,33.763,62.506,33.923,61.841,33.923 M61.827,27.292c-0.624,0-1.128,0.248-1.511,0.745
		c-0.383,0.497-0.574,1.208-0.574,2.133c0,0.82,0.19,1.479,0.571,1.976c0.38,0.497,0.89,0.745,1.528,0.745
		c0.643,0,1.153-0.252,1.531-0.755c0.378-0.504,0.567-1.209,0.567-2.116c0-0.811-0.193-1.469-0.578-1.972
		C62.977,27.544,62.465,27.292,61.827,27.292 M53.104,33.923c-0.565,0-0.991-0.171-1.278-0.513
		c-0.287-0.342-0.431-0.827-0.431-1.456v-4.587h-1.347V26.39h1.347v-1.791h1.265v1.791h1.381v0.978H52.66v4.593
		c0,0.297,0.062,0.519,0.185,0.667c0.123,0.148,0.333,0.222,0.629,0.222c0.146,0,0.346-0.027,0.602-0.082v1.019
		C53.742,33.878,53.419,33.923,53.104,33.923 M45.579,33.923c-0.729,0-1.327-0.206-1.794-0.619
		c-0.467-0.412-0.701-0.935-0.701-1.569c0-0.77,0.293-1.368,0.878-1.794c0.586-0.426,1.409-0.639,2.471-0.639h1.23v-0.581
		c0-0.442-0.132-0.794-0.396-1.056s-0.654-0.393-1.169-0.393c-0.451,0-0.829,0.114-1.135,0.342
		c-0.305,0.228-0.458,0.504-0.458,0.827h-1.272c0-0.369,0.131-0.726,0.393-1.07c0.262-0.344,0.618-0.616,1.066-0.817
		c0.449-0.2,0.942-0.301,1.48-0.301c0.852,0,1.52,0.213,2.003,0.639c0.483,0.426,0.734,1.013,0.752,1.76v3.404
		c0,0.679,0.087,1.219,0.26,1.62v0.109h-1.326c-0.073-0.146-0.132-0.406-0.178-0.779C47.096,33.618,46.394,33.923,45.579,33.923
		 M46.672,30.197c-1.549,0-2.324,0.454-2.324,1.36c0,0.396,0.132,0.706,0.396,0.93c0.264,0.223,0.604,0.335,1.019,0.335
		c0.396,0,0.772-0.103,1.128-0.308c0.355-0.205,0.613-0.472,0.772-0.8v-1.518H46.672 M38.854,33.923
		c-1.007,0-1.808-0.336-2.403-1.008c-0.595-0.672-0.892-1.592-0.892-2.758v-0.212c0-0.72,0.132-1.36,0.396-1.921
		s0.644-0.996,1.138-1.306c0.494-0.31,1.079-0.465,1.753-0.465c0.829,0,1.519,0.248,2.068,0.745
		c0.549,0.497,0.842,1.142,0.878,1.935h-1.196c-0.037-0.479-0.218-0.872-0.543-1.179c-0.326-0.308-0.728-0.461-1.207-0.461
		c-0.643,0-1.141,0.231-1.494,0.694c-0.353,0.463-0.53,1.131-0.53,2.006v0.239c0,0.852,0.175,1.508,0.526,1.969
		c0.351,0.46,0.852,0.69,1.504,0.69c0.451,0,0.845-0.137,1.183-0.41c0.337-0.273,0.524-0.615,0.561-1.025h1.196
		c-0.023,0.424-0.169,0.827-0.437,1.21c-0.269,0.383-0.628,0.688-1.077,0.916C39.831,33.809,39.356,33.923,38.854,33.923
		 M30.496,33.923c-0.788,0-1.389-0.229-1.801-0.687c-0.413-0.458-0.621-1.136-0.626-2.034V26.39h1.265v4.778
		c0,1.121,0.456,1.682,1.367,1.682c0.966,0,1.609-0.36,1.928-1.08v-5.38h1.265v7.396h-1.203l-0.027-0.731
		C32.171,33.634,31.449,33.923,30.496,33.923 M22.753,33.923c-0.857,0-1.555-0.351-2.095-1.053c-0.54-0.702-0.81-1.618-0.81-2.748
		v-0.096c0-1.135,0.269-2.047,0.807-2.738c0.538-0.69,1.242-1.036,2.112-1.036c0.866,0,1.552,0.296,2.058,0.889v-3.855h1.265v10.5
		h-1.162l-0.062-0.793C24.359,33.613,23.655,33.923,22.753,33.923 M23.081,27.326c-0.62,0-1.103,0.239-1.449,0.718
		c-0.346,0.478-0.519,1.187-0.519,2.126c0,0.839,0.173,1.495,0.519,1.969c0.346,0.474,0.825,0.711,1.436,0.711
		c0.802,0,1.388-0.36,1.757-1.08v-3.398C24.446,27.675,23.865,27.326,23.081,27.326 M313.386,33.861
		c-0.26,0-0.455-0.071-0.584-0.212c-0.13-0.141-0.195-0.317-0.195-0.526c0-0.219,0.065-0.401,0.195-0.547
		c0.13-0.146,0.325-0.219,0.584-0.219s0.457,0.073,0.591,0.219c0.134,0.146,0.202,0.328,0.202,0.547c0,0.21-0.067,0.385-0.202,0.526
		C313.843,33.791,313.645,33.861,313.386,33.861 M75.415,33.861c-0.26,0-0.455-0.071-0.584-0.212
		c-0.13-0.141-0.195-0.317-0.195-0.526c0-0.219,0.065-0.401,0.195-0.547c0.13-0.146,0.325-0.219,0.584-0.219
		c0.26,0,0.457,0.073,0.591,0.219c0.134,0.146,0.202,0.328,0.202,0.547c0,0.21-0.067,0.385-0.202,0.526
		C75.872,33.791,75.675,33.861,75.415,33.861 M370.791,33.786h-1.265V26.39h1.23l0.021,0.854c0.415-0.661,1.003-0.991,1.764-0.991
		c0.246,0,0.433,0.032,0.56,0.096v1.176c-0.191-0.032-0.399-0.048-0.622-0.048c-0.829,0-1.392,0.353-1.688,1.06V33.786
		 M358.323,33.786h-0.964l-2.68-7.396h1.292l1.88,5.681l1.832-5.681h1.292L358.323,33.786 M344.813,33.786h-1.025l-1.798-5.605
		l-1.75,5.605h-1.025l-2.147-7.396h1.258l1.456,5.537l1.723-5.537h1.019l1.757,5.653l1.422-5.653h1.265L344.813,33.786
		 M327.717,33.786h-1.319v-4.601h-5.018v4.601h-1.312v-9.953h1.312v4.279h5.018v-4.279h1.319V33.786 M287.203,33.786h-1.265V26.39
		h1.231l0.021,0.854c0.415-0.661,1.003-0.991,1.764-0.991c0.246,0,0.433,0.032,0.561,0.096v1.176
		c-0.191-0.032-0.399-0.048-0.622-0.048c-0.829,0-1.392,0.353-1.688,1.06V33.786 M236.108,33.786h-1.265V26.39h1.231l0.02,0.854
		c0.415-0.661,1.003-0.991,1.764-0.991c0.246,0,0.433,0.032,0.561,0.096v1.176c-0.191-0.032-0.399-0.048-0.622-0.048
		c-0.829,0-1.392,0.353-1.689,1.06V33.786 M192.326,33.786h-1.265v-10.5h1.265V33.786 M188.978,33.786h-1.265v-10.5h1.265V33.786
		 M178.15,33.786h-1.265v-4.881c0-0.529-0.121-0.924-0.362-1.186c-0.242-0.262-0.647-0.393-1.217-0.393
		c-0.469,0-0.859,0.14-1.169,0.42c-0.31,0.28-0.49,0.657-0.54,1.131v4.908h-1.272V28.94c0-1.076-0.526-1.613-1.579-1.613
		c-0.829,0-1.397,0.353-1.702,1.06v5.4h-1.265V26.39h1.196l0.034,0.82c0.542-0.638,1.274-0.957,2.194-0.957
		c1.034,0,1.739,0.396,2.112,1.189c0.246-0.355,0.566-0.643,0.96-0.861c0.394-0.219,0.86-0.328,1.398-0.328
		c1.622,0,2.447,0.859,2.475,2.577V33.786 M164.206,33.786h-1.265V26.39h1.231l0.021,0.854c0.415-0.661,1.003-0.991,1.764-0.991
		c0.246,0,0.433,0.032,0.561,0.096v1.176c-0.191-0.032-0.399-0.048-0.622-0.048c-0.829,0-1.392,0.353-1.689,1.06V33.786
		 M152.967,33.786h-1.265v-4.895c-0.005-0.533-0.126-0.927-0.366-1.183c-0.239-0.255-0.612-0.383-1.118-0.383
		c-0.41,0-0.77,0.109-1.08,0.328c-0.31,0.219-0.551,0.506-0.725,0.861v5.27h-1.265V26.39h1.196l0.041,0.93
		c0.565-0.711,1.303-1.066,2.215-1.066c1.563,0,2.352,0.882,2.365,2.645V33.786 M132.694,33.786h-1.265V26.39h1.23l0.021,0.854
		c0.415-0.661,1.003-0.991,1.764-0.991c0.246,0,0.433,0.032,0.56,0.096v1.176c-0.191-0.032-0.399-0.048-0.622-0.048
		c-0.829,0-1.392,0.353-1.688,1.06V33.786 M96.206,33.786h-1.265v-4.895c-0.005-0.533-0.126-0.927-0.366-1.183
		c-0.239-0.255-0.612-0.383-1.118-0.383c-0.41,0-0.77,0.109-1.08,0.328c-0.31,0.219-0.551,0.506-0.725,0.861v5.27h-1.265v-10.5
		h1.265v3.999c0.561-0.688,1.29-1.032,2.187-1.032c1.563,0,2.352,0.882,2.365,2.645V33.786 M85.775,33.786h-1.306v-8.88h-3.192
		v-1.073h7.697v1.073h-3.199V33.786 M72.658,33.786h-1.265v-4.895c-0.005-0.533-0.126-0.927-0.366-1.183
		c-0.239-0.255-0.612-0.383-1.118-0.383c-0.41,0-0.77,0.109-1.08,0.328c-0.31,0.219-0.551,0.506-0.725,0.861v5.27h-1.265V26.39
		h1.196l0.041,0.93c0.565-0.711,1.303-1.066,2.215-1.066c1.563,0,2.352,0.882,2.365,2.645V33.786 M56.794,33.786h-1.265V26.39h1.265
		V33.786 M18.794,33.786h-6.323v-9.953h6.255v1.073h-4.942v3.206h4.314v1.073h-4.314v3.527h5.011V33.786 M56.172,25.146
		c-0.246,0-0.432-0.068-0.557-0.205c-0.125-0.137-0.188-0.308-0.188-0.513c0-0.205,0.063-0.378,0.188-0.519
		c0.125-0.141,0.311-0.212,0.557-0.212s0.433,0.071,0.56,0.212c0.128,0.141,0.191,0.314,0.191,0.519
		c0,0.205-0.064,0.376-0.191,0.513C56.604,25.077,56.418,25.146,56.172,25.146"/>
	<path fill="#000000" d="M331.343,54.773l-0.239-0.021l-0.472-0.089v-1.025l0.342,0.027c0.428,0,0.762-0.087,1.002-0.26
		c0.239-0.173,0.436-0.49,0.591-0.95l0.28-0.752l-2.639-7.314h1.381l1.846,5.544l1.723-5.544h1.354l-2.974,8.538
		C333.077,54.158,332.346,54.773,331.343,54.773 M285.84,54.773l-0.239-0.021l-0.472-0.089v-1.025l0.342,0.027
		c0.428,0,0.762-0.087,1.001-0.26c0.239-0.173,0.436-0.49,0.591-0.95l0.28-0.752l-2.639-7.314h1.381l1.846,5.544l1.723-5.544h1.354
		l-2.974,8.538C287.574,54.158,286.843,54.773,285.84,54.773 M101.234,54.773l-0.239-0.021l-0.472-0.089v-1.025l0.342,0.027
		c0.428,0,0.762-0.087,1.001-0.26c0.239-0.173,0.436-0.49,0.591-0.95l0.28-0.752l-2.639-7.314h1.381l1.846,5.544l1.723-5.544h1.354
		l-2.974,8.538C102.968,54.158,102.236,54.773,101.234,54.773 M72.89,54.698c-0.533,0-1.055-0.114-1.565-0.342
		c-0.51-0.228-0.9-0.54-1.169-0.937l0.656-0.759c0.542,0.67,1.205,1.005,1.989,1.005c0.615,0,1.095-0.173,1.439-0.519
		c0.344-0.346,0.516-0.834,0.516-1.463v-0.636c-0.506,0.583-1.196,0.875-2.071,0.875c-0.866,0-1.567-0.349-2.102-1.046
		c-0.535-0.697-0.803-1.647-0.803-2.851c0-1.153,0.267-2.07,0.8-2.751s1.24-1.022,2.119-1.022c0.902,0,1.607,0.319,2.112,0.957
		l0.062-0.82h1.155v7.219c0,0.957-0.284,1.711-0.851,2.263C74.609,54.422,73.847,54.698,72.89,54.698 M73.013,45.326
		c-0.615,0-1.096,0.239-1.442,0.718c-0.346,0.479-0.519,1.187-0.519,2.126c0,0.834,0.171,1.489,0.513,1.965
		c0.342,0.476,0.82,0.714,1.436,0.714c0.797,0,1.383-0.362,1.757-1.087v-3.377C74.369,45.679,73.788,45.326,73.013,45.326
		 M201.321,54.63h-1.265V44.39h1.155l0.062,0.82c0.515-0.638,1.23-0.957,2.146-0.957c0.889,0,1.592,0.335,2.109,1.005
		c0.517,0.67,0.776,1.602,0.776,2.796v0.116c0,1.126-0.257,2.033-0.772,2.721c-0.515,0.688-1.212,1.032-2.092,1.032
		c-0.898,0-1.604-0.285-2.119-0.854V54.63 M203.044,45.326c-0.766,0-1.34,0.34-1.723,1.019v3.534
		c0.378,0.675,0.957,1.012,1.736,1.012c0.606,0,1.088-0.24,1.446-0.721c0.358-0.481,0.537-1.195,0.537-2.143
		c0-0.834-0.178-1.492-0.533-1.976C204.152,45.568,203.664,45.326,203.044,45.326 M29.03,54.63h-1.265V44.39h1.155l0.062,0.82
		c0.515-0.638,1.23-0.957,2.146-0.957c0.889,0,1.592,0.335,2.109,1.005c0.517,0.67,0.776,1.602,0.776,2.796v0.116
		c0,1.126-0.258,2.033-0.772,2.721c-0.515,0.688-1.212,1.032-2.092,1.032c-0.898,0-1.604-0.285-2.119-0.854V54.63 M30.753,45.326
		c-0.766,0-1.34,0.34-1.723,1.019v3.534c0.378,0.675,0.957,1.012,1.736,1.012c0.606,0,1.088-0.24,1.446-0.721
		c0.358-0.481,0.537-1.195,0.537-2.143c0-0.834-0.178-1.492-0.533-1.976C31.86,45.568,31.373,45.326,30.753,45.326 M279.117,53.769
		l-0.718-0.492c0.428-0.597,0.652-1.212,0.67-1.846v-1.142h1.237v0.991c0,0.46-0.113,0.921-0.338,1.381
		C279.743,53.121,279.459,53.491,279.117,53.769 M397.59,51.923c-1.003,0-1.815-0.349-2.437-1.046
		c-0.622-0.697-0.933-1.62-0.933-2.769V48.02c0-0.725,0.142-1.376,0.427-1.955c0.285-0.579,0.681-1.025,1.189-1.34
		c0.508-0.314,1.088-0.472,1.74-0.472c1.007,0,1.822,0.349,2.444,1.046c0.622,0.697,0.933,1.625,0.933,2.782v0.089
		c0,0.72-0.138,1.366-0.414,1.938c-0.276,0.572-0.67,1.018-1.183,1.337C398.844,51.763,398.255,51.923,397.59,51.923
		 M397.576,45.292c-0.624,0-1.128,0.249-1.511,0.745c-0.383,0.497-0.574,1.208-0.574,2.133c0,0.82,0.19,1.479,0.571,1.976
		c0.38,0.497,0.89,0.745,1.528,0.745c0.643,0,1.153-0.252,1.531-0.755c0.378-0.503,0.567-1.209,0.567-2.116
		c0-0.811-0.193-1.469-0.578-1.972C398.725,45.544,398.214,45.292,397.576,45.292 M392.344,51.923c-0.565,0-0.991-0.171-1.278-0.513
		c-0.287-0.342-0.431-0.827-0.431-1.456v-4.587h-1.347V44.39h1.347v-1.791h1.265v1.791h1.381v0.978H391.9v4.593
		c0,0.297,0.062,0.519,0.185,0.667c0.123,0.148,0.333,0.222,0.629,0.222c0.146,0,0.346-0.027,0.602-0.082v1.019
		C392.982,51.878,392.659,51.923,392.344,51.923 M382.231,51.923c-1.003,0-1.818-0.329-2.447-0.988
		c-0.629-0.658-0.943-1.539-0.943-2.642v-0.232c0-0.734,0.14-1.389,0.42-1.965c0.28-0.576,0.672-1.028,1.176-1.354
		c0.504-0.326,1.049-0.489,1.637-0.489c0.962,0,1.709,0.317,2.242,0.95c0.533,0.634,0.8,1.54,0.8,2.721v0.526h-5.011
		c0.018,0.729,0.231,1.318,0.639,1.767c0.408,0.449,0.926,0.673,1.555,0.673c0.447,0,0.825-0.091,1.135-0.273
		c0.31-0.182,0.581-0.424,0.814-0.725l0.772,0.601C384.4,51.447,383.47,51.923,382.231,51.923 M382.074,45.292
		c-0.51,0-0.939,0.186-1.285,0.557c-0.346,0.372-0.561,0.892-0.643,1.562h3.705v-0.096c-0.037-0.643-0.21-1.14-0.519-1.494
		C383.021,45.469,382.602,45.292,382.074,45.292 M371.23,51.923c-0.934,0-1.657-0.33-2.167-0.991l-0.061,0.854h-1.162v-10.5h1.265
		v3.917c0.51-0.633,1.215-0.95,2.112-0.95c0.898,0,1.603,0.34,2.116,1.019c0.513,0.679,0.769,1.609,0.769,2.789v0.109
		c0,1.13-0.26,2.038-0.779,2.724C372.802,51.58,372.105,51.923,371.23,51.923 M370.902,45.326c-0.834,0-1.433,0.387-1.798,1.162
		v3.199c0.387,0.775,0.991,1.162,1.812,1.162c0.606,0,1.078-0.235,1.415-0.704c0.337-0.469,0.506-1.176,0.506-2.119
		c0-0.861-0.166-1.527-0.499-1.996C372.005,45.561,371.526,45.326,370.902,45.326 M362.484,51.923c-0.729,0-1.327-0.206-1.794-0.619
		c-0.467-0.412-0.701-0.935-0.701-1.569c0-0.77,0.293-1.368,0.878-1.794c0.586-0.426,1.409-0.639,2.471-0.639h1.231v-0.581
		c0-0.442-0.132-0.794-0.396-1.056c-0.264-0.262-0.654-0.393-1.169-0.393c-0.451,0-0.829,0.114-1.135,0.342
		c-0.305,0.228-0.458,0.504-0.458,0.827h-1.271c0-0.369,0.131-0.726,0.393-1.07c0.262-0.344,0.618-0.616,1.066-0.817
		c0.449-0.201,0.942-0.301,1.48-0.301c0.852,0,1.52,0.213,2.003,0.639c0.483,0.426,0.734,1.013,0.752,1.76v3.404
		c0,0.679,0.086,1.219,0.26,1.62v0.109h-1.326c-0.073-0.146-0.132-0.406-0.178-0.779C364.001,51.618,363.299,51.923,362.484,51.923
		 M363.577,48.197c-1.549,0-2.324,0.453-2.324,1.36c0,0.396,0.132,0.706,0.396,0.93c0.264,0.223,0.604,0.335,1.019,0.335
		c0.397,0,0.773-0.103,1.128-0.308c0.355-0.205,0.613-0.472,0.772-0.8v-1.518H363.577 M352.247,51.923
		c-1.003,0-1.818-0.329-2.447-0.988c-0.629-0.658-0.943-1.539-0.943-2.642v-0.232c0-0.734,0.14-1.389,0.42-1.965
		c0.28-0.576,0.672-1.028,1.176-1.354c0.504-0.326,1.049-0.489,1.637-0.489c0.962,0,1.709,0.317,2.242,0.95
		c0.533,0.634,0.8,1.54,0.8,2.721v0.526h-5.011c0.018,0.729,0.231,1.318,0.639,1.767c0.408,0.449,0.926,0.673,1.555,0.673
		c0.447,0,0.825-0.091,1.135-0.273c0.31-0.182,0.581-0.424,0.814-0.725l0.772,0.601C354.416,51.447,353.486,51.923,352.247,51.923
		 M352.09,45.292c-0.51,0-0.939,0.186-1.285,0.557c-0.346,0.372-0.561,0.892-0.643,1.562h3.705v-0.096
		c-0.037-0.643-0.21-1.14-0.519-1.494C353.038,45.469,352.618,45.292,352.09,45.292 M344.635,51.923
		c-0.934,0-1.657-0.33-2.167-0.991l-0.061,0.854h-1.162v-10.5h1.265v3.917c0.51-0.633,1.214-0.95,2.112-0.95
		c0.898,0,1.603,0.34,2.116,1.019c0.513,0.679,0.769,1.609,0.769,2.789v0.109c0,1.13-0.26,2.038-0.779,2.724
		C346.208,51.58,345.51,51.923,344.635,51.923 M344.307,45.326c-0.834,0-1.433,0.387-1.798,1.162v3.199
		c0.387,0.775,0.991,1.162,1.812,1.162c0.606,0,1.078-0.235,1.415-0.704c0.337-0.469,0.506-1.176,0.506-2.119
		c0-0.861-0.166-1.527-0.499-1.996C345.41,45.561,344.932,45.326,344.307,45.326 M325.861,51.923c-0.729,0-1.327-0.206-1.794-0.619
		c-0.467-0.412-0.701-0.935-0.701-1.569c0-0.77,0.293-1.368,0.878-1.794c0.586-0.426,1.409-0.639,2.471-0.639h1.23v-0.581
		c0-0.442-0.132-0.794-0.396-1.056c-0.264-0.262-0.654-0.393-1.169-0.393c-0.451,0-0.829,0.114-1.135,0.342
		c-0.305,0.228-0.458,0.504-0.458,0.827h-1.272c0-0.369,0.131-0.726,0.393-1.07c0.262-0.344,0.617-0.616,1.066-0.817
		c0.449-0.201,0.942-0.301,1.48-0.301c0.852,0,1.52,0.213,2.003,0.639c0.483,0.426,0.734,1.013,0.752,1.76v3.404
		c0,0.679,0.087,1.219,0.26,1.62v0.109h-1.326c-0.073-0.146-0.132-0.406-0.178-0.779C327.378,51.618,326.676,51.923,325.861,51.923
		 M326.954,48.197c-1.549,0-2.324,0.453-2.324,1.36c0,0.396,0.132,0.706,0.396,0.93c0.264,0.223,0.604,0.335,1.019,0.335
		c0.396,0,0.772-0.103,1.128-0.308c0.355-0.205,0.613-0.472,0.772-0.8v-1.518H326.954 M302.412,51.923
		c-0.788,0-1.389-0.229-1.801-0.687c-0.413-0.458-0.621-1.136-0.625-2.034V44.39h1.265v4.778c0,1.121,0.456,1.682,1.367,1.682
		c0.966,0,1.609-0.36,1.928-1.08v-5.38h1.265v7.396h-1.203l-0.027-0.731C304.087,51.633,303.365,51.923,302.412,51.923
		 M295.021,51.923c-1.003,0-1.815-0.349-2.437-1.046c-0.622-0.697-0.933-1.62-0.933-2.769V48.02c0-0.725,0.142-1.376,0.427-1.955
		c0.285-0.579,0.681-1.025,1.189-1.34c0.508-0.314,1.088-0.472,1.74-0.472c1.007,0,1.822,0.349,2.444,1.046
		c0.622,0.697,0.933,1.625,0.933,2.782v0.089c0,0.72-0.138,1.366-0.414,1.938c-0.276,0.572-0.67,1.018-1.183,1.337
		C296.276,51.763,295.687,51.923,295.021,51.923 M295.008,45.292c-0.624,0-1.128,0.249-1.511,0.745
		c-0.383,0.497-0.574,1.208-0.574,2.133c0,0.82,0.19,1.479,0.571,1.976c0.38,0.497,0.89,0.745,1.528,0.745
		c0.643,0,1.153-0.252,1.531-0.755c0.378-0.503,0.567-1.209,0.567-2.116c0-0.811-0.193-1.469-0.578-1.972
		S295.646,45.292,295.008,45.292 M266.237,51.923c-1.003,0-1.815-0.349-2.437-1.046c-0.622-0.697-0.933-1.62-0.933-2.769V48.02
		c0-0.725,0.142-1.376,0.427-1.955c0.285-0.579,0.681-1.025,1.189-1.34c0.508-0.314,1.088-0.472,1.74-0.472
		c1.007,0,1.822,0.349,2.444,1.046c0.622,0.697,0.933,1.625,0.933,2.782v0.089c0,0.72-0.138,1.366-0.414,1.938
		c-0.276,0.572-0.67,1.018-1.183,1.337C267.491,51.763,266.902,51.923,266.237,51.923 M266.223,45.292
		c-0.624,0-1.128,0.249-1.511,0.745c-0.383,0.497-0.574,1.208-0.574,2.133c0,0.82,0.19,1.479,0.571,1.976
		c0.38,0.497,0.89,0.745,1.528,0.745c0.643,0,1.153-0.252,1.531-0.755c0.378-0.503,0.567-1.209,0.567-2.116
		c0-0.811-0.193-1.469-0.578-1.972S266.861,45.292,266.223,45.292 M257.5,51.923c-0.565,0-0.991-0.171-1.278-0.513
		c-0.287-0.342-0.431-0.827-0.431-1.456v-4.587h-1.347V44.39h1.347v-1.791h1.265v1.791h1.381v0.978h-1.381v4.593
		c0,0.297,0.062,0.519,0.185,0.667c0.123,0.148,0.333,0.222,0.629,0.222c0.146,0,0.346-0.027,0.602-0.082v1.019
		C258.138,51.878,257.815,51.923,257.5,51.923 M249.974,51.923c-0.729,0-1.327-0.206-1.794-0.619
		c-0.467-0.412-0.701-0.935-0.701-1.569c0-0.77,0.293-1.368,0.878-1.794c0.586-0.426,1.409-0.639,2.471-0.639h1.23v-0.581
		c0-0.442-0.132-0.794-0.396-1.056c-0.264-0.262-0.654-0.393-1.169-0.393c-0.451,0-0.829,0.114-1.135,0.342
		c-0.305,0.228-0.458,0.504-0.458,0.827h-1.272c0-0.369,0.131-0.726,0.393-1.07c0.262-0.344,0.618-0.616,1.066-0.817
		c0.449-0.201,0.942-0.301,1.48-0.301c0.852,0,1.52,0.213,2.003,0.639c0.483,0.426,0.734,1.013,0.752,1.76v3.404
		c0,0.679,0.087,1.219,0.26,1.62v0.109h-1.326c-0.073-0.146-0.132-0.406-0.178-0.779C251.492,51.618,250.79,51.923,249.974,51.923
		 M251.068,48.197c-1.549,0-2.324,0.453-2.324,1.36c0,0.396,0.132,0.706,0.396,0.93c0.264,0.223,0.604,0.335,1.019,0.335
		c0.396,0,0.772-0.103,1.128-0.308c0.355-0.205,0.613-0.472,0.772-0.8v-1.518H251.068 M243.228,51.923
		c-0.593,0-1.117-0.105-1.572-0.314c-0.456-0.21-0.812-0.502-1.07-0.878s-0.386-0.783-0.386-1.22h1.265
		c0.023,0.424,0.192,0.76,0.509,1.008c0.317,0.248,0.735,0.373,1.254,0.373c0.478,0,0.862-0.097,1.152-0.291
		c0.289-0.194,0.434-0.452,0.434-0.776c0-0.342-0.129-0.607-0.386-0.796c-0.258-0.189-0.706-0.352-1.347-0.489
		c-0.64-0.137-1.148-0.301-1.524-0.492c-0.376-0.191-0.654-0.419-0.834-0.684c-0.18-0.264-0.27-0.579-0.27-0.943
		c0-0.606,0.256-1.119,0.769-1.538c0.513-0.419,1.168-0.629,1.965-0.629c0.839,0,1.519,0.217,2.041,0.649
		c0.522,0.433,0.783,0.987,0.783,1.661h-1.272c0-0.346-0.147-0.645-0.441-0.896c-0.294-0.251-0.664-0.376-1.111-0.376
		c-0.46,0-0.82,0.1-1.08,0.301c-0.26,0.201-0.39,0.463-0.39,0.786c0,0.305,0.121,0.536,0.362,0.69
		c0.242,0.155,0.678,0.303,1.309,0.444c0.631,0.141,1.143,0.31,1.535,0.506c0.392,0.196,0.682,0.432,0.872,0.708
		c0.189,0.276,0.284,0.612,0.284,1.008c0,0.661-0.264,1.191-0.793,1.589C244.757,51.724,244.071,51.923,243.228,51.923
		 M228.513,51.923c-0.729,0-1.327-0.206-1.794-0.619c-0.467-0.412-0.701-0.935-0.701-1.569c0-0.77,0.293-1.368,0.878-1.794
		c0.586-0.426,1.409-0.639,2.471-0.639h1.23v-0.581c0-0.442-0.132-0.794-0.396-1.056c-0.264-0.262-0.654-0.393-1.169-0.393
		c-0.451,0-0.829,0.114-1.135,0.342c-0.305,0.228-0.458,0.504-0.458,0.827h-1.272c0-0.369,0.131-0.726,0.393-1.07
		c0.262-0.344,0.618-0.616,1.066-0.817c0.449-0.201,0.942-0.301,1.48-0.301c0.852,0,1.52,0.213,2.003,0.639
		c0.483,0.426,0.734,1.013,0.752,1.76v3.404c0,0.679,0.087,1.219,0.26,1.62v0.109h-1.326c-0.073-0.146-0.132-0.406-0.178-0.779
		C230.031,51.618,229.329,51.923,228.513,51.923 M229.607,48.197c-1.549,0-2.324,0.453-2.324,1.36c0,0.396,0.132,0.706,0.396,0.93
		c0.264,0.223,0.604,0.335,1.019,0.335c0.396,0,0.772-0.103,1.128-0.308c0.355-0.205,0.613-0.472,0.772-0.8v-1.518H229.607
		 M218.485,51.923c-1.007,0-1.808-0.336-2.403-1.008c-0.595-0.672-0.892-1.592-0.892-2.758v-0.212c0-0.72,0.132-1.36,0.396-1.921
		c0.264-0.56,0.644-0.996,1.138-1.306c0.495-0.31,1.079-0.465,1.753-0.465c0.829,0,1.519,0.249,2.068,0.745
		c0.549,0.497,0.842,1.142,0.878,1.934h-1.196c-0.037-0.478-0.218-0.872-0.543-1.179c-0.326-0.308-0.728-0.461-1.207-0.461
		c-0.643,0-1.141,0.231-1.494,0.694c-0.353,0.463-0.53,1.131-0.53,2.006v0.239c0,0.852,0.175,1.508,0.526,1.969
		c0.351,0.46,0.852,0.69,1.504,0.69c0.451,0,0.845-0.137,1.183-0.41c0.337-0.273,0.524-0.615,0.561-1.025h1.196
		c-0.023,0.424-0.169,0.827-0.438,1.21c-0.269,0.383-0.628,0.688-1.077,0.916C219.462,51.809,218.987,51.923,218.485,51.923
		 M211.052,51.923c-1.003,0-1.818-0.329-2.447-0.988c-0.629-0.658-0.943-1.539-0.943-2.642v-0.232c0-0.734,0.14-1.389,0.42-1.965
		c0.28-0.576,0.672-1.028,1.176-1.354c0.503-0.326,1.049-0.489,1.637-0.489c0.962,0,1.709,0.317,2.242,0.95
		c0.533,0.634,0.8,1.54,0.8,2.721v0.526h-5.011c0.018,0.729,0.231,1.318,0.639,1.767c0.408,0.449,0.926,0.673,1.555,0.673
		c0.447,0,0.825-0.091,1.135-0.273c0.31-0.182,0.581-0.424,0.813-0.725l0.772,0.601C213.221,51.447,212.292,51.923,211.052,51.923
		 M210.895,45.292c-0.51,0-0.939,0.186-1.285,0.557c-0.346,0.372-0.56,0.892-0.643,1.562h3.705v-0.096
		c-0.037-0.643-0.21-1.14-0.519-1.494C211.843,45.469,211.423,45.292,210.895,45.292 M195.517,51.923
		c-0.592,0-1.117-0.105-1.572-0.314c-0.456-0.21-0.812-0.502-1.07-0.878s-0.386-0.783-0.386-1.22h1.265
		c0.023,0.424,0.192,0.76,0.509,1.008c0.317,0.248,0.735,0.373,1.254,0.373c0.479,0,0.862-0.097,1.152-0.291
		c0.289-0.194,0.434-0.452,0.434-0.776c0-0.342-0.129-0.607-0.386-0.796c-0.258-0.189-0.706-0.352-1.347-0.489
		c-0.64-0.137-1.149-0.301-1.525-0.492c-0.376-0.191-0.654-0.419-0.834-0.684c-0.18-0.264-0.27-0.579-0.27-0.943
		c0-0.606,0.256-1.119,0.769-1.538c0.513-0.419,1.168-0.629,1.965-0.629c0.839,0,1.519,0.217,2.041,0.649
		c0.522,0.433,0.783,0.987,0.783,1.661h-1.272c0-0.346-0.147-0.645-0.441-0.896c-0.294-0.251-0.664-0.376-1.111-0.376
		c-0.46,0-0.82,0.1-1.08,0.301c-0.26,0.201-0.39,0.463-0.39,0.786c0,0.305,0.121,0.536,0.362,0.69
		c0.242,0.155,0.678,0.303,1.309,0.444c0.631,0.141,1.143,0.31,1.535,0.506c0.392,0.196,0.682,0.432,0.872,0.708
		c0.189,0.276,0.284,0.612,0.284,1.008c0,0.661-0.264,1.191-0.793,1.589C197.046,51.724,196.36,51.923,195.517,51.923
		 M179.554,51.923c-1.003,0-1.815-0.349-2.437-1.046c-0.622-0.697-0.933-1.62-0.933-2.769V48.02c0-0.725,0.142-1.376,0.427-1.955
		c0.285-0.579,0.681-1.025,1.189-1.34s1.088-0.472,1.74-0.472c1.007,0,1.822,0.349,2.444,1.046c0.622,0.697,0.933,1.625,0.933,2.782
		v0.089c0,0.72-0.138,1.366-0.414,1.938c-0.276,0.572-0.67,1.018-1.183,1.337C180.809,51.763,180.219,51.923,179.554,51.923
		 M179.54,45.292c-0.624,0-1.128,0.249-1.511,0.745c-0.383,0.497-0.574,1.208-0.574,2.133c0,0.82,0.19,1.479,0.571,1.976
		c0.38,0.497,0.89,0.745,1.528,0.745c0.643,0,1.153-0.252,1.531-0.755c0.378-0.503,0.567-1.209,0.567-2.116
		c0-0.811-0.193-1.469-0.578-1.972C180.69,45.544,180.178,45.292,179.54,45.292 M168.566,51.923c-1.003,0-1.818-0.329-2.447-0.988
		c-0.629-0.658-0.943-1.539-0.943-2.642v-0.232c0-0.734,0.14-1.389,0.42-1.965c0.28-0.576,0.672-1.028,1.176-1.354
		c0.504-0.326,1.049-0.489,1.637-0.489c0.962,0,1.709,0.317,2.242,0.95c0.533,0.634,0.8,1.54,0.8,2.721v0.526h-5.011
		c0.018,0.729,0.231,1.318,0.639,1.767c0.408,0.449,0.926,0.673,1.555,0.673c0.447,0,0.825-0.091,1.135-0.273
		c0.31-0.182,0.581-0.424,0.814-0.725l0.772,0.601C170.735,51.447,169.805,51.923,168.566,51.923 M168.408,45.292
		c-0.511,0-0.939,0.186-1.285,0.557c-0.346,0.372-0.561,0.892-0.643,1.562h3.705v-0.096c-0.037-0.643-0.21-1.14-0.519-1.494
		C169.356,45.469,168.937,45.292,168.408,45.292 M161.034,51.923c-1.007,0-1.808-0.336-2.403-1.008
		c-0.595-0.672-0.892-1.592-0.892-2.758v-0.212c0-0.72,0.132-1.36,0.396-1.921c0.264-0.56,0.644-0.996,1.138-1.306
		c0.494-0.31,1.079-0.465,1.753-0.465c0.829,0,1.519,0.249,2.068,0.745c0.549,0.497,0.842,1.142,0.878,1.934h-1.196
		c-0.037-0.478-0.218-0.872-0.543-1.179c-0.326-0.308-0.728-0.461-1.207-0.461c-0.643,0-1.141,0.231-1.494,0.694
		c-0.353,0.463-0.53,1.131-0.53,2.006v0.239c0,0.852,0.175,1.508,0.526,1.969c0.351,0.46,0.852,0.69,1.504,0.69
		c0.451,0,0.845-0.137,1.183-0.41c0.337-0.273,0.524-0.615,0.561-1.025h1.196c-0.023,0.424-0.169,0.827-0.437,1.21
		c-0.269,0.383-0.628,0.688-1.077,0.916C162.011,51.809,161.535,51.923,161.034,51.923 M149.754,51.923
		c-1.003,0-1.815-0.349-2.437-1.046c-0.622-0.697-0.933-1.62-0.933-2.769V48.02c0-0.725,0.142-1.376,0.427-1.955
		c0.285-0.579,0.681-1.025,1.189-1.34c0.508-0.314,1.088-0.472,1.74-0.472c1.007,0,1.822,0.349,2.444,1.046
		c0.622,0.697,0.933,1.625,0.933,2.782v0.089c0,0.72-0.138,1.366-0.414,1.938c-0.276,0.572-0.67,1.018-1.183,1.337
		C151.009,51.763,150.42,51.923,149.754,51.923 M149.741,45.292c-0.624,0-1.128,0.249-1.511,0.745
		c-0.383,0.497-0.574,1.208-0.574,2.133c0,0.82,0.19,1.479,0.571,1.976c0.38,0.497,0.89,0.745,1.528,0.745
		c0.643,0,1.153-0.252,1.531-0.755c0.378-0.503,0.567-1.209,0.567-2.116c0-0.811-0.193-1.469-0.578-1.972
		C150.89,45.544,150.379,45.292,149.741,45.292 M134.497,51.923c-1.007,0-1.808-0.336-2.403-1.008
		c-0.595-0.672-0.892-1.592-0.892-2.758v-0.212c0-0.72,0.132-1.36,0.396-1.921c0.264-0.56,0.644-0.996,1.138-1.306
		c0.494-0.31,1.079-0.465,1.753-0.465c0.829,0,1.519,0.249,2.068,0.745c0.549,0.497,0.842,1.142,0.878,1.934h-1.196
		c-0.037-0.478-0.218-0.872-0.543-1.179c-0.326-0.308-0.728-0.461-1.207-0.461c-0.643,0-1.141,0.231-1.494,0.694
		c-0.353,0.463-0.53,1.131-0.53,2.006v0.239c0,0.852,0.175,1.508,0.526,1.969c0.351,0.46,0.852,0.69,1.504,0.69
		c0.451,0,0.845-0.137,1.183-0.41c0.337-0.273,0.524-0.615,0.561-1.025h1.196c-0.023,0.424-0.169,0.827-0.437,1.21
		c-0.269,0.383-0.628,0.688-1.077,0.916C135.473,51.809,134.998,51.923,134.497,51.923 M117.806,51.923
		c-0.788,0-1.389-0.229-1.801-0.687c-0.413-0.458-0.621-1.136-0.625-2.034V44.39h1.265v4.778c0,1.121,0.456,1.682,1.367,1.682
		c0.966,0,1.609-0.36,1.928-1.08v-5.38h1.265v7.396H120l-0.027-0.731C119.481,51.633,118.758,51.923,117.806,51.923 M110.415,51.923
		c-1.003,0-1.815-0.349-2.437-1.046c-0.622-0.697-0.933-1.62-0.933-2.769V48.02c0-0.725,0.142-1.376,0.427-1.955
		c0.285-0.579,0.681-1.025,1.19-1.34c0.508-0.314,1.088-0.472,1.74-0.472c1.007,0,1.822,0.349,2.444,1.046
		c0.622,0.697,0.933,1.625,0.933,2.782v0.089c0,0.72-0.138,1.366-0.414,1.938c-0.276,0.572-0.67,1.018-1.183,1.337
		C111.67,51.763,111.08,51.923,110.415,51.923 M110.401,45.292c-0.624,0-1.128,0.249-1.511,0.745
		c-0.383,0.497-0.574,1.208-0.574,2.133c0,0.82,0.19,1.479,0.571,1.976c0.381,0.497,0.89,0.745,1.528,0.745
		c0.643,0,1.153-0.252,1.531-0.755c0.378-0.503,0.567-1.209,0.567-2.116c0-0.811-0.193-1.469-0.578-1.972
		C111.551,45.544,111.039,45.292,110.401,45.292 M84.576,51.923c-1.003,0-1.815-0.349-2.437-1.046
		c-0.622-0.697-0.933-1.62-0.933-2.769V48.02c0-0.725,0.142-1.376,0.427-1.955c0.285-0.579,0.681-1.025,1.189-1.34
		c0.508-0.314,1.088-0.472,1.74-0.472c1.007,0,1.822,0.349,2.444,1.046c0.622,0.697,0.933,1.625,0.933,2.782v0.089
		c0,0.72-0.138,1.366-0.413,1.938c-0.276,0.572-0.67,1.018-1.183,1.337C85.83,51.763,85.241,51.923,84.576,51.923 M84.562,45.292
		c-0.624,0-1.128,0.249-1.511,0.745c-0.383,0.497-0.574,1.208-0.574,2.133c0,0.82,0.19,1.479,0.571,1.976
		c0.38,0.497,0.89,0.745,1.528,0.745c0.643,0,1.153-0.252,1.531-0.755c0.378-0.503,0.567-1.209,0.567-2.116
		c0-0.811-0.193-1.469-0.578-1.972C85.712,45.544,85.2,45.292,84.562,45.292 M53.604,51.923c-0.857,0-1.555-0.351-2.095-1.053
		c-0.54-0.702-0.81-1.618-0.81-2.748v-0.096c0-1.135,0.269-2.047,0.807-2.738c0.538-0.69,1.242-1.036,2.112-1.036
		c0.866,0,1.552,0.296,2.058,0.889v-3.855h1.265v10.5h-1.162l-0.061-0.793C55.211,51.613,54.507,51.923,53.604,51.923
		 M53.932,45.326c-0.62,0-1.103,0.239-1.449,0.718c-0.346,0.479-0.52,1.187-0.52,2.126c0,0.839,0.173,1.495,0.52,1.969
		c0.346,0.474,0.825,0.711,1.436,0.711c0.802,0,1.388-0.36,1.757-1.08v-3.397C55.297,45.675,54.716,45.326,53.932,45.326
		 M38.761,51.923c-1.003,0-1.818-0.329-2.447-0.988c-0.629-0.658-0.943-1.539-0.943-2.642v-0.232c0-0.734,0.14-1.389,0.42-1.965
		s0.672-1.028,1.176-1.354c0.503-0.326,1.049-0.489,1.637-0.489c0.962,0,1.709,0.317,2.242,0.95c0.533,0.634,0.8,1.54,0.8,2.721
		v0.526h-5.011c0.018,0.729,0.231,1.318,0.639,1.767c0.408,0.449,0.926,0.673,1.555,0.673c0.447,0,0.825-0.091,1.135-0.273
		c0.31-0.182,0.581-0.424,0.813-0.725l0.772,0.601C40.93,51.447,40,51.923,38.761,51.923 M38.603,45.292
		c-0.51,0-0.939,0.186-1.285,0.557c-0.346,0.372-0.56,0.892-0.643,1.562h3.705v-0.096c-0.037-0.643-0.21-1.14-0.519-1.494
		C39.551,45.469,39.132,45.292,38.603,45.292 M23.285,51.923c-1.003,0-1.818-0.329-2.447-0.988
		c-0.629-0.658-0.943-1.539-0.943-2.642v-0.232c0-0.734,0.14-1.389,0.42-1.965s0.672-1.028,1.176-1.354
		c0.503-0.326,1.049-0.489,1.637-0.489c0.962,0,1.709,0.317,2.242,0.95c0.533,0.634,0.8,1.54,0.8,2.721v0.526h-5.011
		c0.018,0.729,0.231,1.318,0.639,1.767c0.408,0.449,0.926,0.673,1.555,0.673c0.447,0,0.825-0.091,1.135-0.273
		c0.31-0.182,0.581-0.424,0.813-0.725l0.772,0.601C25.454,51.447,24.524,51.923,23.285,51.923 M23.128,45.292
		c-0.51,0-0.939,0.186-1.285,0.557c-0.346,0.372-0.56,0.892-0.643,1.562h3.705v-0.096c-0.037-0.643-0.21-1.14-0.519-1.494
		C24.076,45.469,23.656,45.292,23.128,45.292 M14.87,51.923c-0.857,0-1.555-0.351-2.095-1.053c-0.54-0.702-0.81-1.618-0.81-2.748
		v-0.096c0-1.135,0.269-2.047,0.807-2.738c0.538-0.69,1.242-1.036,2.112-1.036c0.866,0,1.552,0.296,2.058,0.889v-3.855h1.265v10.5
		h-1.162l-0.061-0.793C16.477,51.613,15.772,51.923,14.87,51.923 M15.198,45.326c-0.62,0-1.103,0.239-1.449,0.718
		c-0.346,0.479-0.52,1.187-0.52,2.126c0,0.839,0.173,1.495,0.52,1.969c0.346,0.474,0.825,0.711,1.436,0.711
		c0.802,0,1.388-0.36,1.757-1.08v-3.397C16.563,45.675,15.982,45.326,15.198,45.326 M377.111,51.786h-1.265v-10.5h1.265V51.786
		 M321.7,51.786h-1.265v-4.881c0-0.529-0.121-0.924-0.362-1.186c-0.242-0.262-0.647-0.393-1.217-0.393
		c-0.469,0-0.859,0.14-1.169,0.42c-0.31,0.28-0.49,0.657-0.54,1.131v4.908h-1.272v-4.847c0-1.075-0.526-1.613-1.579-1.613
		c-0.83,0-1.397,0.353-1.702,1.06v5.4h-1.265V44.39h1.196l0.034,0.82c0.542-0.638,1.274-0.957,2.194-0.957
		c1.034,0,1.739,0.396,2.112,1.19c0.246-0.355,0.566-0.643,0.96-0.861c0.394-0.219,0.86-0.328,1.398-0.328
		c1.622,0,2.447,0.859,2.475,2.577V51.786 M277.054,51.786h-1.265v-4.895c-0.005-0.533-0.126-0.927-0.366-1.183
		c-0.239-0.255-0.612-0.383-1.118-0.383c-0.41,0-0.77,0.109-1.08,0.328c-0.31,0.219-0.552,0.506-0.725,0.861v5.271h-1.265V44.39
		h1.196l0.041,0.93c0.565-0.711,1.303-1.066,2.215-1.066c1.563,0,2.352,0.882,2.365,2.646V51.786 M261.189,51.786h-1.265V44.39
		h1.265V51.786 M238.537,51.786h-1.265V44.39h1.265V51.786 M235.18,51.786h-1.265v-10.5h1.265V51.786 M224.281,51.786h-1.265V44.39
		h1.265V51.786 M186.217,51.786h-1.265v-6.419h-1.169V44.39h1.169v-0.759c0-0.793,0.212-1.406,0.636-1.839
		c0.424-0.433,1.023-0.649,1.798-0.649c0.292,0,0.581,0.038,0.868,0.115l-0.068,1.019c-0.214-0.041-0.442-0.061-0.684-0.061
		c-0.41,0-0.727,0.12-0.95,0.36c-0.223,0.24-0.335,0.584-0.335,1.032v0.782h1.579v0.978h-1.579V51.786 M156.055,51.786h-1.265V44.39
		h1.265V51.786 M144.786,51.786h-1.265v-4.895c-0.005-0.533-0.126-0.927-0.366-1.183c-0.239-0.255-0.612-0.383-1.118-0.383
		c-0.41,0-0.77,0.109-1.08,0.328c-0.31,0.219-0.551,0.506-0.725,0.861v5.271h-1.265v-10.5h1.265v3.999
		c0.561-0.688,1.29-1.032,2.187-1.032c1.563,0,2.352,0.882,2.365,2.646V51.786 M124.452,51.786h-1.265V44.39h1.231l0.021,0.854
		c0.415-0.661,1.003-0.991,1.764-0.991c0.246,0,0.433,0.032,0.561,0.096v1.176c-0.191-0.032-0.399-0.048-0.622-0.048
		c-0.829,0-1.392,0.353-1.688,1.06V51.786 M95.393,51.786h-1.265v-4.895c-0.005-0.533-0.126-0.927-0.366-1.183
		c-0.239-0.255-0.612-0.383-1.118-0.383c-0.41,0-0.77,0.109-1.08,0.328c-0.31,0.219-0.551,0.506-0.725,0.861v5.271h-1.265V44.39
		h1.196l0.041,0.93c0.565-0.711,1.303-1.066,2.215-1.066c1.563,0,2.352,0.882,2.365,2.646V51.786 M68.132,51.786h-1.265v-4.895
		c-0.005-0.533-0.126-0.927-0.366-1.183c-0.239-0.255-0.612-0.383-1.118-0.383c-0.41,0-0.77,0.109-1.08,0.328
		c-0.31,0.219-0.551,0.506-0.725,0.861v5.271h-1.265V44.39h1.196l0.041,0.93c0.565-0.711,1.303-1.066,2.215-1.066
		c1.563,0,2.352,0.882,2.365,2.646V51.786 M60.275,51.786H59.01V44.39h1.265V51.786 M49.059,51.786h-1.265v-4.895
		c-0.005-0.533-0.126-0.927-0.366-1.183c-0.239-0.255-0.612-0.383-1.118-0.383c-0.41,0-0.77,0.109-1.08,0.328
		c-0.31,0.219-0.552,0.506-0.725,0.861v5.271h-1.265V44.39h1.196l0.041,0.93c0.565-0.711,1.303-1.066,2.215-1.066
		c1.563,0,2.352,0.882,2.365,2.646V51.786 M260.567,43.145c-0.246,0-0.432-0.068-0.557-0.205c-0.125-0.137-0.188-0.308-0.188-0.513
		c0-0.205,0.063-0.378,0.188-0.52c0.125-0.141,0.311-0.212,0.557-0.212c0.246,0,0.433,0.071,0.56,0.212
		c0.128,0.141,0.191,0.314,0.191,0.52c0,0.205-0.064,0.376-0.191,0.513C261,43.077,260.813,43.145,260.567,43.145 M237.915,43.145
		c-0.246,0-0.432-0.068-0.557-0.205c-0.125-0.137-0.188-0.308-0.188-0.513c0-0.205,0.063-0.378,0.188-0.52
		c0.125-0.141,0.311-0.212,0.557-0.212s0.433,0.071,0.56,0.212c0.128,0.141,0.191,0.314,0.191,0.52c0,0.205-0.064,0.376-0.191,0.513
		C238.348,43.077,238.161,43.145,237.915,43.145 M223.659,43.145c-0.246,0-0.432-0.068-0.557-0.205
		c-0.125-0.137-0.188-0.308-0.188-0.513c0-0.205,0.063-0.378,0.188-0.52c0.125-0.141,0.311-0.212,0.557-0.212
		c0.246,0,0.433,0.071,0.56,0.212c0.128,0.141,0.191,0.314,0.191,0.52c0,0.205-0.064,0.376-0.191,0.513
		C224.092,43.077,223.905,43.145,223.659,43.145 M155.433,43.145c-0.246,0-0.432-0.068-0.557-0.205
		c-0.125-0.137-0.188-0.308-0.188-0.513c0-0.205,0.063-0.378,0.188-0.52c0.125-0.141,0.311-0.212,0.557-0.212
		s0.433,0.071,0.56,0.212c0.128,0.141,0.191,0.314,0.191,0.52c0,0.205-0.064,0.376-0.191,0.513
		C155.866,43.077,155.679,43.145,155.433,43.145 M59.653,43.145c-0.246,0-0.432-0.068-0.557-0.205
		c-0.125-0.137-0.188-0.308-0.188-0.513c0-0.205,0.063-0.378,0.188-0.52c0.125-0.141,0.311-0.212,0.557-0.212
		s0.433,0.071,0.561,0.212c0.127,0.141,0.191,0.314,0.191,0.52c0,0.205-0.064,0.376-0.191,0.513
		C60.086,43.077,59.899,43.145,59.653,43.145"/>
	<path fill="#000000" d="M195.071,72.773l-0.239-0.021l-0.472-0.089v-1.025l0.342,0.027c0.428,0,0.762-0.087,1.001-0.26
		c0.239-0.173,0.436-0.49,0.591-0.95l0.28-0.752l-2.639-7.314h1.381l1.846,5.544l1.723-5.544h1.354l-2.974,8.538
		C196.805,72.158,196.073,72.773,195.071,72.773 M233.893,72.63h-1.265V62.39h1.155l0.062,0.82c0.515-0.638,1.231-0.957,2.146-0.957
		c0.889,0,1.592,0.335,2.109,1.005c0.517,0.67,0.776,1.602,0.776,2.796v0.116c0,1.126-0.258,2.033-0.772,2.721
		c-0.515,0.688-1.212,1.032-2.092,1.032c-0.898,0-1.604-0.285-2.119-0.854V72.63 M235.615,63.326c-0.766,0-1.34,0.34-1.723,1.019
		v3.534c0.378,0.675,0.957,1.012,1.736,1.012c0.606,0,1.088-0.24,1.446-0.721c0.358-0.481,0.537-1.195,0.537-2.143
		c0-0.834-0.178-1.492-0.533-1.976C236.723,63.568,236.235,63.326,235.615,63.326 M92.44,72.63h-1.265v-3.527
		c-0.51,0.547-1.189,0.82-2.037,0.82c-0.893,0-1.605-0.347-2.136-1.042c-0.531-0.695-0.796-1.617-0.796-2.765v-0.089
		c0-1.162,0.267-2.081,0.8-2.758c0.533-0.677,1.249-1.015,2.146-1.015c0.875,0,1.565,0.294,2.071,0.882l0.055-0.745h1.162V72.63
		 M89.466,63.292c-0.611,0-1.096,0.243-1.456,0.728c-0.36,0.485-0.54,1.202-0.54,2.15c0,0.848,0.179,1.513,0.537,1.996
		c0.358,0.483,0.84,0.725,1.446,0.725c0.752,0,1.326-0.333,1.723-0.998V64.27C90.774,63.618,90.205,63.292,89.466,63.292
		 M298.808,69.923c-1.003,0-1.815-0.349-2.437-1.046c-0.622-0.697-0.933-1.62-0.933-2.769V66.02c0-0.725,0.142-1.376,0.427-1.955
		c0.285-0.579,0.681-1.025,1.19-1.34c0.508-0.314,1.088-0.472,1.74-0.472c1.007,0,1.822,0.349,2.444,1.046
		c0.622,0.697,0.933,1.625,0.933,2.782v0.089c0,0.72-0.138,1.366-0.414,1.938c-0.276,0.572-0.67,1.017-1.183,1.336
		C300.062,69.763,299.473,69.923,298.808,69.923 M298.794,63.292c-0.624,0-1.128,0.248-1.511,0.745
		c-0.383,0.497-0.574,1.208-0.574,2.133c0,0.82,0.19,1.479,0.571,1.976c0.381,0.497,0.89,0.745,1.528,0.745
		c0.643,0,1.153-0.252,1.531-0.755c0.378-0.504,0.567-1.209,0.567-2.116c0-0.811-0.193-1.469-0.578-1.972
		C299.944,63.544,299.432,63.292,298.794,63.292 M290.071,69.923c-0.565,0-0.991-0.171-1.278-0.513
		c-0.287-0.342-0.431-0.827-0.431-1.456v-4.587h-1.347V62.39h1.347v-1.791h1.265v1.791h1.381v0.978h-1.381v4.593
		c0,0.297,0.061,0.519,0.185,0.667c0.123,0.148,0.333,0.222,0.629,0.222c0.146,0,0.346-0.027,0.602-0.082v1.019
		C290.709,69.878,290.386,69.923,290.071,69.923 M282.546,69.923c-0.729,0-1.327-0.206-1.794-0.619
		c-0.467-0.412-0.701-0.935-0.701-1.569c0-0.77,0.293-1.368,0.878-1.794c0.586-0.426,1.409-0.639,2.471-0.639h1.231v-0.581
		c0-0.442-0.132-0.794-0.396-1.056c-0.264-0.262-0.654-0.393-1.169-0.393c-0.451,0-0.83,0.114-1.135,0.342
		c-0.305,0.228-0.458,0.504-0.458,0.827h-1.271c0-0.369,0.131-0.726,0.393-1.07c0.262-0.344,0.617-0.616,1.066-0.817
		c0.449-0.201,0.942-0.301,1.48-0.301c0.852,0,1.52,0.213,2.003,0.639c0.483,0.426,0.734,1.013,0.752,1.76v3.404
		c0,0.679,0.086,1.219,0.26,1.62v0.109h-1.326c-0.073-0.146-0.132-0.406-0.178-0.779C284.063,69.618,283.361,69.923,282.546,69.923
		 M283.639,66.197c-1.55,0-2.324,0.454-2.324,1.36c0,0.396,0.132,0.706,0.396,0.93c0.264,0.223,0.604,0.335,1.019,0.335
		c0.396,0,0.772-0.102,1.128-0.308s0.613-0.472,0.772-0.8v-1.518H283.639 M275.799,69.923c-0.592,0-1.117-0.105-1.572-0.314
		c-0.456-0.21-0.812-0.502-1.07-0.878c-0.258-0.376-0.386-0.783-0.386-1.22h1.265c0.023,0.424,0.192,0.76,0.509,1.008
		c0.317,0.249,0.735,0.373,1.254,0.373c0.479,0,0.862-0.097,1.152-0.29c0.289-0.194,0.434-0.452,0.434-0.776
		c0-0.342-0.129-0.607-0.386-0.796c-0.257-0.189-0.706-0.352-1.347-0.489c-0.64-0.137-1.148-0.301-1.524-0.492
		c-0.376-0.191-0.654-0.419-0.834-0.684c-0.18-0.264-0.27-0.579-0.27-0.943c0-0.606,0.256-1.119,0.769-1.538
		c0.513-0.419,1.168-0.629,1.965-0.629c0.838,0,1.519,0.216,2.04,0.649c0.522,0.433,0.783,0.987,0.783,1.661h-1.272
		c0-0.346-0.147-0.645-0.441-0.895c-0.294-0.251-0.664-0.376-1.111-0.376c-0.46,0-0.82,0.1-1.08,0.301
		c-0.26,0.201-0.39,0.463-0.39,0.786c0,0.305,0.121,0.535,0.362,0.69c0.242,0.155,0.678,0.303,1.309,0.444
		c0.631,0.141,1.143,0.31,1.535,0.506c0.392,0.196,0.682,0.432,0.872,0.707c0.189,0.276,0.284,0.612,0.284,1.008
		c0,0.661-0.264,1.191-0.793,1.589C277.328,69.724,276.642,69.923,275.799,69.923 M261.085,69.923c-0.729,0-1.327-0.206-1.794-0.619
		c-0.467-0.412-0.701-0.935-0.701-1.569c0-0.77,0.293-1.368,0.878-1.794c0.585-0.426,1.409-0.639,2.471-0.639h1.23v-0.581
		c0-0.442-0.132-0.794-0.396-1.056c-0.264-0.262-0.654-0.393-1.169-0.393c-0.451,0-0.83,0.114-1.135,0.342
		c-0.305,0.228-0.458,0.504-0.458,0.827h-1.272c0-0.369,0.131-0.726,0.393-1.07c0.262-0.344,0.617-0.616,1.066-0.817
		c0.449-0.201,0.942-0.301,1.48-0.301c0.852,0,1.52,0.213,2.003,0.639c0.483,0.426,0.734,1.013,0.752,1.76v3.404
		c0,0.679,0.086,1.219,0.26,1.62v0.109h-1.326c-0.073-0.146-0.132-0.406-0.178-0.779C262.602,69.618,261.9,69.923,261.085,69.923
		 M262.178,66.197c-1.55,0-2.324,0.454-2.324,1.36c0,0.396,0.132,0.706,0.396,0.93c0.264,0.223,0.604,0.335,1.019,0.335
		c0.396,0,0.772-0.102,1.128-0.308c0.355-0.205,0.613-0.472,0.772-0.8v-1.518H262.178 M251.057,69.923
		c-1.007,0-1.808-0.336-2.403-1.008c-0.595-0.672-0.892-1.592-0.892-2.758v-0.212c0-0.72,0.132-1.36,0.397-1.921
		c0.264-0.561,0.644-0.996,1.138-1.306c0.494-0.31,1.079-0.465,1.753-0.465c0.829,0,1.519,0.248,2.068,0.745
		c0.549,0.497,0.842,1.142,0.878,1.935H252.8c-0.037-0.479-0.218-0.872-0.543-1.179c-0.326-0.308-0.728-0.461-1.207-0.461
		c-0.643,0-1.141,0.231-1.494,0.694c-0.353,0.463-0.53,1.131-0.53,2.006v0.239c0,0.852,0.175,1.508,0.526,1.969
		c0.351,0.46,0.852,0.69,1.504,0.69c0.451,0,0.845-0.137,1.183-0.41c0.337-0.273,0.524-0.615,0.561-1.025h1.196
		c-0.023,0.424-0.169,0.827-0.437,1.21c-0.269,0.383-0.628,0.688-1.077,0.916C252.033,69.809,251.558,69.923,251.057,69.923
		 M243.623,69.923c-1.003,0-1.818-0.329-2.447-0.988c-0.629-0.658-0.943-1.539-0.943-2.642v-0.232c0-0.734,0.14-1.389,0.42-1.965
		c0.28-0.577,0.672-1.028,1.176-1.354c0.504-0.326,1.049-0.489,1.637-0.489c0.962,0,1.709,0.317,2.242,0.95
		c0.533,0.633,0.8,1.54,0.8,2.721v0.526h-5.011c0.018,0.729,0.231,1.318,0.639,1.767c0.408,0.449,0.926,0.673,1.555,0.673
		c0.447,0,0.825-0.091,1.135-0.273c0.31-0.182,0.581-0.424,0.814-0.725l0.772,0.602C245.792,69.447,244.863,69.923,243.623,69.923
		 M243.466,63.292c-0.511,0-0.939,0.186-1.285,0.557c-0.346,0.372-0.561,0.892-0.643,1.562h3.705v-0.096
		c-0.037-0.643-0.21-1.14-0.519-1.494C244.414,63.469,243.994,63.292,243.466,63.292 M228.088,69.923
		c-0.593,0-1.117-0.105-1.572-0.314c-0.456-0.21-0.812-0.502-1.07-0.878c-0.258-0.376-0.386-0.783-0.386-1.22h1.265
		c0.023,0.424,0.192,0.76,0.509,1.008c0.317,0.249,0.735,0.373,1.254,0.373c0.478,0,0.862-0.097,1.152-0.29s0.434-0.452,0.434-0.776
		c0-0.342-0.129-0.607-0.386-0.796c-0.257-0.189-0.706-0.352-1.347-0.489c-0.64-0.137-1.148-0.301-1.524-0.492
		c-0.376-0.191-0.654-0.419-0.834-0.684c-0.18-0.264-0.27-0.579-0.27-0.943c0-0.606,0.256-1.119,0.769-1.538
		c0.513-0.419,1.168-0.629,1.965-0.629c0.838,0,1.519,0.216,2.04,0.649c0.522,0.433,0.783,0.987,0.783,1.661h-1.271
		c0-0.346-0.147-0.645-0.441-0.895c-0.294-0.251-0.664-0.376-1.111-0.376c-0.46,0-0.82,0.1-1.08,0.301
		c-0.26,0.201-0.39,0.463-0.39,0.786c0,0.305,0.121,0.535,0.362,0.69c0.242,0.155,0.678,0.303,1.309,0.444
		c0.631,0.141,1.143,0.31,1.535,0.506c0.392,0.196,0.682,0.432,0.872,0.707c0.189,0.276,0.284,0.612,0.284,1.008
		c0,0.661-0.264,1.191-0.793,1.589C229.617,69.724,228.931,69.923,228.088,69.923 M211.643,69.923c-0.788,0-1.389-0.229-1.801-0.687
		c-0.413-0.458-0.621-1.136-0.625-2.034V62.39h1.265v4.778c0,1.121,0.456,1.682,1.367,1.682c0.966,0,1.609-0.36,1.928-1.08v-5.38
		h1.265v7.397h-1.203l-0.027-0.731C213.318,69.634,212.595,69.923,211.643,69.923 M204.252,69.923c-1.003,0-1.815-0.349-2.437-1.046
		c-0.622-0.697-0.933-1.62-0.933-2.769V66.02c0-0.725,0.142-1.376,0.427-1.955c0.285-0.579,0.681-1.025,1.19-1.34
		c0.508-0.314,1.088-0.472,1.74-0.472c1.007,0,1.822,0.349,2.444,1.046c0.622,0.697,0.933,1.625,0.933,2.782v0.089
		c0,0.72-0.138,1.366-0.414,1.938c-0.276,0.572-0.67,1.017-1.183,1.336C205.506,69.763,204.917,69.923,204.252,69.923
		 M204.238,63.292c-0.624,0-1.128,0.248-1.511,0.745c-0.383,0.497-0.574,1.208-0.574,2.133c0,0.82,0.19,1.479,0.571,1.976
		c0.381,0.497,0.89,0.745,1.528,0.745c0.643,0,1.153-0.252,1.531-0.755c0.378-0.504,0.567-1.209,0.567-2.116
		c0-0.811-0.193-1.469-0.578-1.972C205.388,63.544,204.876,63.292,204.238,63.292 M169.929,69.923c-0.565,0-0.991-0.171-1.278-0.513
		c-0.287-0.342-0.431-0.827-0.431-1.456v-4.587h-1.347V62.39h1.347v-1.791h1.265v1.791h1.381v0.978h-1.381v4.593
		c0,0.297,0.061,0.519,0.185,0.667c0.123,0.148,0.333,0.222,0.629,0.222c0.146,0,0.346-0.027,0.602-0.082v1.019
		C170.567,69.878,170.243,69.923,169.929,69.923 M147.722,69.923c-0.565,0-0.991-0.171-1.278-0.513
		c-0.287-0.342-0.431-0.827-0.431-1.456v-4.587h-1.347V62.39h1.347v-1.791h1.265v1.791h1.381v0.978h-1.381v4.593
		c0,0.297,0.062,0.519,0.185,0.667c0.123,0.148,0.333,0.222,0.629,0.222c0.146,0,0.346-0.027,0.602-0.082v1.019
		C148.36,69.878,148.037,69.923,147.722,69.923 M133.273,69.923c-1.003,0-1.818-0.329-2.447-0.988
		c-0.629-0.658-0.943-1.539-0.943-2.642v-0.232c0-0.734,0.14-1.389,0.42-1.965c0.28-0.577,0.672-1.028,1.176-1.354
		c0.504-0.326,1.049-0.489,1.637-0.489c0.962,0,1.709,0.317,2.242,0.95c0.533,0.633,0.8,1.54,0.8,2.721v0.526h-5.011
		c0.018,0.729,0.231,1.318,0.639,1.767c0.408,0.449,0.926,0.673,1.555,0.673c0.447,0,0.825-0.091,1.135-0.273
		c0.31-0.182,0.581-0.424,0.813-0.725l0.773,0.602C135.442,69.447,134.512,69.923,133.273,69.923 M133.116,63.292
		c-0.511,0-0.939,0.186-1.285,0.557c-0.346,0.372-0.561,0.892-0.643,1.562h3.705v-0.096c-0.037-0.643-0.21-1.14-0.519-1.494
		C134.064,63.469,133.644,63.292,133.116,63.292 M113.396,69.923c-1.003,0-1.818-0.329-2.447-0.988
		c-0.629-0.658-0.943-1.539-0.943-2.642v-0.232c0-0.734,0.14-1.389,0.42-1.965c0.28-0.577,0.672-1.028,1.176-1.354
		c0.503-0.326,1.049-0.489,1.637-0.489c0.962,0,1.709,0.317,2.242,0.95s0.8,1.54,0.8,2.721v0.526h-5.011
		c0.018,0.729,0.231,1.318,0.639,1.767c0.408,0.449,0.926,0.673,1.555,0.673c0.447,0,0.825-0.091,1.135-0.273
		c0.31-0.182,0.581-0.424,0.813-0.725l0.772,0.602C115.566,69.447,114.636,69.923,113.396,69.923 M113.239,63.292
		c-0.51,0-0.939,0.186-1.285,0.557c-0.346,0.372-0.561,0.892-0.643,1.562h3.705v-0.096c-0.037-0.643-0.21-1.14-0.52-1.494
		C114.187,63.469,113.768,63.292,113.239,63.292 M96.878,69.923c-0.788,0-1.389-0.229-1.801-0.687
		c-0.412-0.458-0.621-1.136-0.625-2.034V62.39h1.265v4.778c0,1.121,0.456,1.682,1.367,1.682c0.966,0,1.609-0.36,1.928-1.08v-5.38
		h1.265v7.397h-1.203l-0.027-0.731C98.553,69.634,97.831,69.923,96.878,69.923 M82.03,69.923c-1.003,0-1.818-0.329-2.447-0.988
		c-0.629-0.658-0.943-1.539-0.943-2.642v-0.232c0-0.734,0.14-1.389,0.42-1.965c0.28-0.577,0.672-1.028,1.176-1.354
		c0.504-0.326,1.049-0.489,1.637-0.489c0.962,0,1.709,0.317,2.242,0.95s0.8,1.54,0.8,2.721v0.526h-5.011
		c0.018,0.729,0.231,1.318,0.639,1.767c0.408,0.449,0.926,0.673,1.555,0.673c0.447,0,0.825-0.091,1.135-0.273
		c0.31-0.182,0.581-0.424,0.814-0.725l0.772,0.602C84.199,69.447,83.269,69.923,82.03,69.923 M81.873,63.292
		c-0.51,0-0.939,0.186-1.285,0.557c-0.346,0.372-0.561,0.892-0.643,1.562h3.705v-0.096c-0.037-0.643-0.21-1.14-0.52-1.494
		C82.82,63.469,82.401,63.292,81.873,63.292 M66.158,69.923c-0.592,0-1.117-0.105-1.572-0.314c-0.456-0.21-0.812-0.502-1.07-0.878
		c-0.258-0.376-0.386-0.783-0.386-1.22h1.265c0.023,0.424,0.192,0.76,0.509,1.008c0.317,0.249,0.735,0.373,1.254,0.373
		c0.479,0,0.862-0.097,1.152-0.29c0.289-0.194,0.434-0.452,0.434-0.776c0-0.342-0.129-0.607-0.386-0.796
		c-0.258-0.189-0.706-0.352-1.347-0.489c-0.64-0.137-1.149-0.301-1.525-0.492c-0.376-0.191-0.654-0.419-0.834-0.684
		c-0.18-0.264-0.27-0.579-0.27-0.943c0-0.606,0.256-1.119,0.769-1.538c0.513-0.419,1.168-0.629,1.965-0.629
		c0.839,0,1.519,0.216,2.041,0.649c0.522,0.433,0.783,0.987,0.783,1.661h-1.272c0-0.346-0.147-0.645-0.441-0.895
		c-0.294-0.251-0.664-0.376-1.111-0.376c-0.46,0-0.82,0.1-1.08,0.301c-0.26,0.201-0.39,0.463-0.39,0.786
		c0,0.305,0.121,0.535,0.362,0.69c0.242,0.155,0.678,0.303,1.309,0.444c0.631,0.141,1.143,0.31,1.535,0.506
		c0.392,0.196,0.682,0.432,0.872,0.707c0.189,0.276,0.284,0.612,0.284,1.008c0,0.661-0.264,1.191-0.793,1.589
		C67.687,69.724,67.002,69.923,66.158,69.923 M50.024,69.923c-0.565,0-0.991-0.171-1.278-0.513
		c-0.287-0.342-0.431-0.827-0.431-1.456v-4.587h-1.347V62.39h1.347v-1.791h1.265v1.791h1.381v0.978H49.58v4.593
		c0,0.297,0.062,0.519,0.185,0.667c0.123,0.148,0.333,0.222,0.629,0.222c0.146,0,0.346-0.027,0.602-0.082v1.019
		C50.662,69.878,50.339,69.923,50.024,69.923 M41.845,69.923c-0.565,0-0.991-0.171-1.278-0.513
		c-0.287-0.342-0.431-0.827-0.431-1.456v-4.587h-1.347V62.39h1.347v-1.791h1.265v1.791h1.381v0.978h-1.381v4.593
		c0,0.297,0.061,0.519,0.185,0.667c0.123,0.148,0.333,0.222,0.629,0.222c0.146,0,0.346-0.027,0.602-0.082v1.019
		C42.483,69.878,42.16,69.923,41.845,69.923 M35.19,69.923c-1.003,0-1.818-0.329-2.447-0.988c-0.629-0.658-0.943-1.539-0.943-2.642
		v-0.232c0-0.734,0.14-1.389,0.42-1.965c0.28-0.577,0.672-1.028,1.176-1.354c0.504-0.326,1.049-0.489,1.637-0.489
		c0.962,0,1.709,0.317,2.242,0.95s0.8,1.54,0.8,2.721v0.526h-5.011c0.018,0.729,0.231,1.318,0.639,1.767
		c0.408,0.449,0.926,0.673,1.555,0.673c0.447,0,0.825-0.091,1.135-0.273c0.31-0.182,0.581-0.424,0.814-0.725l0.772,0.602
		C37.36,69.447,36.43,69.923,35.19,69.923 M35.033,63.292c-0.51,0-0.939,0.186-1.285,0.557c-0.346,0.372-0.561,0.892-0.643,1.562
		h3.705v-0.096c-0.037-0.643-0.21-1.14-0.52-1.494C35.981,63.469,35.562,63.292,35.033,63.292 M27.661,69.923
		c-1.003,0-1.818-0.329-2.447-0.988c-0.629-0.658-0.943-1.539-0.943-2.642v-0.232c0-0.734,0.14-1.389,0.42-1.965
		c0.28-0.577,0.672-1.028,1.176-1.354c0.504-0.326,1.049-0.489,1.637-0.489c0.962,0,1.709,0.317,2.242,0.95s0.8,1.54,0.8,2.721
		v0.526h-5.011c0.018,0.729,0.231,1.318,0.639,1.767c0.408,0.449,0.926,0.673,1.555,0.673c0.447,0,0.825-0.091,1.135-0.273
		c0.31-0.182,0.581-0.424,0.813-0.725l0.773,0.602C29.83,69.447,28.901,69.923,27.661,69.923 M27.504,63.292
		c-0.511,0-0.939,0.186-1.285,0.557c-0.346,0.372-0.561,0.892-0.643,1.562h3.705v-0.096c-0.037-0.643-0.21-1.14-0.519-1.494
		C28.452,63.469,28.033,63.292,27.504,63.292 M312.382,69.861c-0.26,0-0.455-0.071-0.584-0.212c-0.13-0.141-0.195-0.317-0.195-0.526
		c0-0.219,0.065-0.401,0.195-0.547c0.13-0.146,0.325-0.219,0.584-0.219c0.26,0,0.457,0.073,0.591,0.219
		c0.134,0.146,0.202,0.328,0.202,0.547c0,0.21-0.067,0.385-0.202,0.526C312.839,69.791,312.642,69.861,312.382,69.861
		 M309.625,69.786h-1.265v-4.895c-0.005-0.533-0.126-0.927-0.366-1.183c-0.239-0.255-0.612-0.383-1.118-0.383
		c-0.41,0-0.77,0.109-1.08,0.328c-0.31,0.219-0.551,0.506-0.725,0.861v5.271h-1.265V62.39h1.196l0.041,0.93
		c0.565-0.711,1.303-1.066,2.215-1.066c1.563,0,2.352,0.882,2.365,2.645V69.786 M293.76,69.786h-1.265V62.39h1.265V69.786
		 M271.108,69.786h-1.265V62.39h1.265V69.786 M267.751,69.786h-1.265v-10.5h1.265V69.786 M256.852,69.786h-1.265V62.39h1.265V69.786
		 M218.289,69.786h-1.265V62.39h1.231l0.02,0.855c0.415-0.661,1.003-0.991,1.764-0.991c0.246,0,0.433,0.032,0.561,0.096v1.176
		c-0.191-0.032-0.399-0.048-0.622-0.048c-0.829,0-1.392,0.353-1.689,1.06V69.786 M189.23,69.786h-1.265v-4.895
		c-0.005-0.533-0.126-0.927-0.366-1.183c-0.239-0.255-0.612-0.383-1.118-0.383c-0.41,0-0.77,0.109-1.08,0.328
		c-0.31,0.219-0.551,0.506-0.725,0.861v5.271h-1.265V62.39h1.196l0.041,0.93c0.565-0.711,1.303-1.066,2.215-1.066
		c1.563,0,2.352,0.882,2.365,2.645V69.786 M181.372,69.786h-1.265V62.39h1.265V69.786 M178.117,69.786h-1.265v-4.895
		c-0.005-0.533-0.126-0.927-0.366-1.183c-0.239-0.255-0.612-0.383-1.118-0.383c-0.41,0-0.77,0.109-1.08,0.328
		c-0.31,0.219-0.551,0.506-0.725,0.861v5.271H172.3v-10.5h1.265v3.999c0.561-0.688,1.29-1.032,2.187-1.032
		c1.563,0,2.352,0.882,2.365,2.645V69.786 M165.625,69.786h-1.265V62.39h1.265V69.786 M160.823,69.786h-1.025L158,64.181
		l-1.75,5.605h-1.025l-2.147-7.397h1.258l1.456,5.537l1.723-5.537h1.019l1.757,5.653l1.422-5.653h1.265L160.823,69.786
		 M143.571,69.786h-1.265v-4.895c-0.005-0.533-0.126-0.927-0.366-1.183c-0.239-0.255-0.612-0.383-1.118-0.383
		c-0.41,0-0.77,0.109-1.08,0.328c-0.31,0.219-0.551,0.506-0.725,0.861v5.271h-1.265V62.39h1.196l0.041,0.93
		c0.565-0.711,1.303-1.066,2.215-1.066c1.563,0,2.352,0.882,2.365,2.645V69.786 M128.247,69.786h-1.265v-4.881
		c0-0.529-0.121-0.924-0.362-1.186c-0.242-0.262-0.647-0.393-1.217-0.393c-0.469,0-0.859,0.14-1.169,0.42
		c-0.31,0.28-0.49,0.657-0.54,1.131v4.908h-1.271v-4.847c0-1.075-0.526-1.613-1.579-1.613c-0.829,0-1.397,0.353-1.702,1.06v5.4
		h-1.265V62.39h1.196l0.034,0.82c0.542-0.638,1.274-0.957,2.194-0.957c1.034,0,1.739,0.396,2.112,1.189
		c0.246-0.355,0.566-0.643,0.96-0.861c0.394-0.219,0.86-0.328,1.398-0.328c1.622,0,2.447,0.859,2.475,2.577V69.786 M106.894,69.786
		h-1.265V62.39h1.23l0.021,0.855c0.415-0.661,1.003-0.991,1.764-0.991c0.246,0,0.433,0.032,0.561,0.096v1.176
		c-0.191-0.032-0.399-0.048-0.622-0.048c-0.83,0-1.392,0.353-1.689,1.06V69.786 M103.589,69.786h-1.265V62.39h1.265V69.786
		 M75.527,69.786h-1.265V62.39h1.23l0.021,0.855c0.415-0.661,1.003-0.991,1.764-0.991c0.246,0,0.433,0.032,0.56,0.096v1.176
		c-0.191-0.032-0.399-0.048-0.622-0.048c-0.829,0-1.392,0.353-1.688,1.06V69.786 M61.468,69.786h-1.265V62.39h1.265V69.786
		 M58.213,69.786h-1.265v-4.895c-0.005-0.533-0.126-0.927-0.366-1.183c-0.239-0.255-0.612-0.383-1.118-0.383
		c-0.41,0-0.77,0.109-1.08,0.328c-0.31,0.219-0.551,0.506-0.725,0.861v5.271h-1.265v-10.5h1.265v3.999
		c0.561-0.688,1.29-1.032,2.187-1.032c1.563,0,2.352,0.882,2.365,2.645V69.786 M22.636,69.786h-1.265v-4.881
		c0-0.529-0.121-0.924-0.362-1.186c-0.242-0.262-0.647-0.393-1.217-0.393c-0.469,0-0.859,0.14-1.169,0.42
		c-0.31,0.28-0.49,0.657-0.54,1.131v4.908h-1.271v-4.847c0-1.075-0.526-1.613-1.579-1.613c-0.829,0-1.397,0.353-1.702,1.06v5.4
		h-1.265V62.39h1.196l0.034,0.82c0.542-0.638,1.274-0.957,2.194-0.957c1.034,0,1.739,0.396,2.112,1.189
		c0.246-0.355,0.566-0.643,0.96-0.861c0.394-0.219,0.86-0.328,1.398-0.328c1.622,0,2.447,0.859,2.475,2.577V69.786 M293.138,61.146
		c-0.246,0-0.432-0.068-0.557-0.205c-0.125-0.137-0.188-0.308-0.188-0.513c0-0.205,0.063-0.378,0.188-0.52
		c0.125-0.141,0.311-0.212,0.557-0.212c0.246,0,0.433,0.071,0.561,0.212c0.127,0.141,0.191,0.314,0.191,0.52
		c0,0.205-0.064,0.376-0.191,0.513C293.571,61.077,293.384,61.146,293.138,61.146 M270.486,61.146c-0.246,0-0.432-0.068-0.557-0.205
		c-0.125-0.137-0.188-0.308-0.188-0.513c0-0.205,0.063-0.378,0.188-0.52c0.125-0.141,0.311-0.212,0.557-0.212
		c0.246,0,0.433,0.071,0.561,0.212c0.127,0.141,0.191,0.314,0.191,0.52c0,0.205-0.064,0.376-0.191,0.513
		C270.919,61.077,270.732,61.146,270.486,61.146 M256.23,61.146c-0.246,0-0.432-0.068-0.557-0.205
		c-0.125-0.137-0.188-0.308-0.188-0.513c0-0.205,0.063-0.378,0.188-0.52c0.125-0.141,0.311-0.212,0.557-0.212
		c0.246,0,0.433,0.071,0.561,0.212c0.127,0.141,0.191,0.314,0.191,0.52c0,0.205-0.064,0.376-0.191,0.513
		C256.663,61.077,256.476,61.146,256.23,61.146 M180.75,61.146c-0.246,0-0.432-0.068-0.557-0.205
		c-0.125-0.137-0.188-0.308-0.188-0.513c0-0.205,0.063-0.378,0.188-0.52c0.125-0.141,0.311-0.212,0.557-0.212
		c0.246,0,0.433,0.071,0.56,0.212c0.128,0.141,0.191,0.314,0.191,0.52c0,0.205-0.064,0.376-0.191,0.513
		S180.996,61.146,180.75,61.146 M165.002,61.146c-0.246,0-0.432-0.068-0.557-0.205c-0.125-0.137-0.188-0.308-0.188-0.513
		c0-0.205,0.063-0.378,0.188-0.52c0.125-0.141,0.311-0.212,0.557-0.212s0.433,0.071,0.561,0.212c0.127,0.141,0.191,0.314,0.191,0.52
		c0,0.205-0.064,0.376-0.191,0.513C165.435,61.077,165.249,61.146,165.002,61.146 M102.967,61.146c-0.246,0-0.432-0.068-0.557-0.205
		c-0.125-0.137-0.188-0.308-0.188-0.513c0-0.205,0.063-0.378,0.188-0.52c0.125-0.141,0.311-0.212,0.557-0.212
		s0.433,0.071,0.561,0.212c0.128,0.141,0.191,0.314,0.191,0.52c0,0.205-0.064,0.376-0.191,0.513
		C103.4,61.077,103.213,61.146,102.967,61.146 M60.845,61.146c-0.246,0-0.432-0.068-0.557-0.205
		c-0.125-0.137-0.188-0.308-0.188-0.513c0-0.205,0.063-0.378,0.188-0.52c0.125-0.141,0.311-0.212,0.557-0.212
		c0.246,0,0.433,0.071,0.561,0.212c0.128,0.141,0.191,0.314,0.191,0.52c0,0.205-0.064,0.376-0.191,0.513
		S61.092,61.146,60.845,61.146"/>
</g>
</svg>
