<!-- Generator: Adobe InDesign 20.4 SVG Export Plug-in, SVG Library version: 9.3 build 117 -->
<!DOCTYPE svg PUBLIC "-//W3C//DTD SVG 1.1//EN" "http://www.w3.org/Graphics/SVG/1.1/DTD/svg11.dtd">
<svg version="1.1" xmlns="http://www.w3.org/2000/svg" xmlns:xlink="http://www.w3.org/1999/xlink" x="0%" y="0%" width="100%"
	 height="100%" viewBox="0 0 535.251 94.08" preserveAspectRatio="xMidYMid slice" overflow="visible" xml:space="preserve">
<clipPath id="clp_unq_id_1" fill="none">
	<path shape-rendering="crispEdges" stroke="#000000" d="M0,0h535.251v94.08H0V0"/>
</clipPath>
<g clip-path="url(#clp_unq_id_1)" fill="none">
	<g transform="matrix(1 0 0 1 11.3154 33.7861)">
		<path stroke="#0080FF" stroke-width="0.6836" stroke-miterlimit="10" d="M123.796,2h97.932"/>
	</g>
	<g transform="matrix(1 0 0 1 11.3154 69.7861)">
		<path stroke="#0080FF" stroke-width="0.6836" stroke-miterlimit="10" d="M402.543,2h60.296"/>
	</g>
	<g transform="matrix(1 0 0 1 11.3154 87.7861)">
		<path stroke="#0080FF" stroke-width="0.6836" stroke-miterlimit="10" d="M0,2h60.165"/>
	</g>
	<path fill="#000000" d="M443.645,18.698c-0.533,0-1.055-0.114-1.565-0.342c-0.511-0.228-0.9-0.54-1.169-0.936l0.656-0.759
		c0.542,0.67,1.205,1.005,1.989,1.005c0.615,0,1.095-0.173,1.439-0.519c0.344-0.346,0.516-0.834,0.516-1.463v-0.636
		c-0.506,0.583-1.196,0.875-2.071,0.875c-0.866,0-1.567-0.349-2.102-1.046c-0.536-0.697-0.803-1.647-0.803-2.85
		c0-1.153,0.267-2.07,0.8-2.752c0.533-0.681,1.24-1.022,2.119-1.022c0.902,0,1.606,0.319,2.112,0.957l0.061-0.82h1.155v7.219
		c0,0.957-0.284,1.711-0.851,2.263C445.364,18.422,444.602,18.698,443.645,18.698 M443.768,9.326c-0.615,0-1.096,0.239-1.442,0.718
		c-0.346,0.478-0.52,1.187-0.52,2.126c0,0.834,0.171,1.489,0.513,1.965c0.342,0.476,0.82,0.714,1.436,0.714
		c0.797,0,1.383-0.362,1.757-1.087v-3.377C445.123,9.679,444.542,9.326,443.768,9.326 M310.215,18.698
		c-0.533,0-1.055-0.114-1.565-0.342c-0.51-0.228-0.9-0.54-1.169-0.936l0.656-0.759c0.542,0.67,1.205,1.005,1.989,1.005
		c0.615,0,1.095-0.173,1.439-0.519c0.344-0.346,0.516-0.834,0.516-1.463v-0.636c-0.506,0.583-1.196,0.875-2.071,0.875
		c-0.866,0-1.567-0.349-2.102-1.046c-0.536-0.697-0.803-1.647-0.803-2.85c0-1.153,0.267-2.07,0.8-2.752
		c0.533-0.681,1.239-1.022,2.119-1.022c0.902,0,1.606,0.319,2.112,0.957l0.061-0.82h1.155v7.219c0,0.957-0.284,1.711-0.851,2.263
		C311.934,18.422,311.172,18.698,310.215,18.698 M310.338,9.326c-0.615,0-1.096,0.239-1.442,0.718
		c-0.346,0.478-0.52,1.187-0.52,2.126c0,0.834,0.171,1.489,0.513,1.965c0.342,0.476,0.82,0.714,1.435,0.714
		c0.798,0,1.383-0.362,1.757-1.087v-3.377C311.694,9.679,311.112,9.326,310.338,9.326 M99.755,18.698
		c-0.533,0-1.055-0.114-1.565-0.342c-0.51-0.228-0.9-0.54-1.169-0.936l0.656-0.759c0.542,0.67,1.205,1.005,1.989,1.005
		c0.615,0,1.095-0.173,1.439-0.519c0.344-0.346,0.516-0.834,0.516-1.463v-0.636c-0.506,0.583-1.196,0.875-2.071,0.875
		c-0.866,0-1.567-0.349-2.102-1.046c-0.536-0.697-0.803-1.647-0.803-2.85c0-1.153,0.267-2.07,0.8-2.752
		c0.533-0.681,1.24-1.022,2.119-1.022c0.902,0,1.606,0.319,2.112,0.957l0.062-0.82h1.155v7.219c0,0.957-0.284,1.711-0.851,2.263
		C101.475,18.422,100.712,18.698,99.755,18.698 M99.878,9.326c-0.615,0-1.096,0.239-1.442,0.718c-0.346,0.478-0.52,1.187-0.52,2.126
		c0,0.834,0.171,1.489,0.513,1.965c0.342,0.476,0.82,0.714,1.435,0.714c0.798,0,1.383-0.362,1.757-1.087v-3.377
		C101.234,9.679,100.653,9.326,99.878,9.326 M168.386,18.63h-1.265v-3.527c-0.511,0.547-1.189,0.82-2.037,0.82
		c-0.893,0-1.605-0.347-2.136-1.042c-0.531-0.695-0.796-1.617-0.796-2.765v-0.089c0-1.162,0.267-2.082,0.8-2.758
		c0.533-0.677,1.249-1.015,2.146-1.015c0.875,0,1.565,0.294,2.071,0.882l0.055-0.745h1.162V18.63 M165.413,9.292
		c-0.611,0-1.096,0.243-1.456,0.728c-0.36,0.485-0.54,1.202-0.54,2.15c0,0.848,0.179,1.513,0.537,1.996
		c0.358,0.483,0.84,0.725,1.446,0.725c0.752,0,1.326-0.333,1.723-0.998v-3.623C166.721,9.618,166.151,9.292,165.413,9.292
		 M273.783,17.768l-0.718-0.492c0.428-0.597,0.652-1.212,0.67-1.846v-1.142h1.237v0.991c0,0.46-0.113,0.921-0.338,1.381
		C274.408,17.121,274.124,17.49,273.783,17.768 M455.84,15.923c-0.729,0-1.327-0.206-1.794-0.619
		c-0.467-0.412-0.701-0.935-0.701-1.569c0-0.77,0.293-1.368,0.878-1.794c0.586-0.426,1.409-0.639,2.471-0.639h1.23v-0.581
		c0-0.442-0.132-0.794-0.396-1.056c-0.264-0.262-0.654-0.393-1.169-0.393c-0.451,0-0.83,0.114-1.135,0.342
		c-0.305,0.228-0.458,0.504-0.458,0.827h-1.271c0-0.369,0.131-0.726,0.393-1.07c0.262-0.344,0.618-0.616,1.066-0.817
		c0.449-0.2,0.942-0.301,1.48-0.301c0.852,0,1.52,0.213,2.003,0.639c0.483,0.426,0.734,1.013,0.752,1.76v3.404
		c0,0.679,0.086,1.219,0.26,1.62v0.109h-1.326c-0.073-0.146-0.132-0.406-0.178-0.779C457.358,15.618,456.656,15.923,455.84,15.923
		 M456.934,12.197c-1.549,0-2.324,0.454-2.324,1.36c0,0.396,0.132,0.706,0.396,0.93c0.264,0.223,0.604,0.335,1.018,0.335
		c0.396,0,0.772-0.103,1.128-0.308c0.355-0.205,0.613-0.472,0.772-0.8v-1.518H456.934 M435.841,15.923
		c-1.003,0-1.815-0.349-2.437-1.046c-0.622-0.697-0.933-1.62-0.933-2.768V12.02c0-0.725,0.142-1.376,0.427-1.955
		c0.285-0.579,0.681-1.025,1.189-1.34c0.508-0.314,1.088-0.472,1.74-0.472c1.007,0,1.822,0.349,2.444,1.046
		c0.622,0.697,0.933,1.625,0.933,2.782v0.089c0,0.72-0.138,1.366-0.414,1.938c-0.276,0.572-0.67,1.018-1.183,1.336
		C437.095,15.763,436.506,15.923,435.841,15.923 M435.827,9.292c-0.625,0-1.128,0.248-1.511,0.745
		c-0.383,0.497-0.574,1.208-0.574,2.133c0,0.82,0.19,1.479,0.571,1.976c0.381,0.497,0.89,0.745,1.528,0.745
		c0.643,0,1.153-0.252,1.531-0.755c0.378-0.504,0.567-1.209,0.567-2.116c0-0.811-0.193-1.469-0.578-1.972
		C436.977,9.544,436.465,9.292,435.827,9.292 M411.273,15.923c-1.003,0-1.818-0.329-2.447-0.988
		c-0.629-0.658-0.943-1.539-0.943-2.642v-0.232c0-0.734,0.14-1.389,0.421-1.965c0.28-0.576,0.672-1.028,1.176-1.353
		c0.503-0.326,1.049-0.489,1.637-0.489c0.962,0,1.709,0.317,2.242,0.95c0.533,0.634,0.8,1.54,0.8,2.721v0.526h-5.011
		c0.018,0.729,0.231,1.318,0.639,1.767c0.408,0.449,0.926,0.673,1.555,0.673c0.447,0,0.825-0.091,1.135-0.273
		c0.31-0.182,0.581-0.424,0.813-0.725l0.772,0.602C413.442,15.447,412.513,15.923,411.273,15.923 M411.116,9.292
		c-0.51,0-0.939,0.186-1.285,0.557c-0.346,0.371-0.561,0.892-0.643,1.562h3.705v-0.096c-0.036-0.643-0.21-1.14-0.52-1.494
		C412.064,9.469,411.644,9.292,411.116,9.292 M398.124,15.923c-0.788,0-1.389-0.229-1.801-0.687
		c-0.413-0.458-0.621-1.136-0.625-2.034V8.39h1.265v4.778c0,1.121,0.456,1.682,1.367,1.682c0.966,0,1.609-0.36,1.928-1.08V8.39
		h1.265v7.397h-1.203l-0.027-0.731C399.799,15.634,399.077,15.923,398.124,15.923 M393.354,15.923c-0.565,0-0.991-0.171-1.278-0.513
		c-0.287-0.342-0.431-0.827-0.431-1.456V9.367h-1.347V8.39h1.347V6.599h1.265V8.39h1.381v0.977h-1.381v4.593
		c0,0.297,0.061,0.519,0.185,0.667c0.123,0.148,0.333,0.222,0.629,0.222c0.146,0,0.346-0.027,0.602-0.082v1.019
		C393.992,15.878,393.668,15.923,393.354,15.923 M386.591,15.923c-1.007,0-1.808-0.336-2.403-1.008
		c-0.595-0.672-0.892-1.592-0.892-2.758v-0.212c0-0.72,0.132-1.36,0.396-1.921c0.264-0.561,0.644-0.996,1.138-1.306
		c0.495-0.31,1.079-0.465,1.753-0.465c0.829,0,1.519,0.249,2.068,0.745c0.549,0.497,0.842,1.142,0.878,1.935h-1.196
		c-0.036-0.478-0.218-0.872-0.543-1.179c-0.326-0.308-0.728-0.461-1.207-0.461c-0.643,0-1.141,0.231-1.494,0.694
		c-0.353,0.463-0.53,1.131-0.53,2.006v0.239c0,0.852,0.175,1.509,0.526,1.969c0.351,0.46,0.852,0.69,1.504,0.69
		c0.451,0,0.845-0.137,1.183-0.41c0.337-0.273,0.524-0.615,0.56-1.025h1.196c-0.023,0.424-0.169,0.827-0.437,1.21
		s-0.628,0.688-1.077,0.916S387.093,15.923,386.591,15.923 M379.158,15.923c-1.003,0-1.818-0.329-2.447-0.988
		c-0.629-0.658-0.943-1.539-0.943-2.642v-0.232c0-0.734,0.14-1.389,0.42-1.965c0.28-0.576,0.672-1.028,1.176-1.353
		c0.503-0.326,1.049-0.489,1.637-0.489c0.962,0,1.709,0.317,2.242,0.95c0.533,0.634,0.8,1.54,0.8,2.721v0.526h-5.011
		c0.018,0.729,0.231,1.318,0.639,1.767c0.408,0.449,0.926,0.673,1.555,0.673c0.447,0,0.825-0.091,1.135-0.273
		c0.31-0.182,0.581-0.424,0.813-0.725l0.772,0.602C381.327,15.447,380.398,15.923,379.158,15.923 M379.001,9.292
		c-0.51,0-0.939,0.186-1.285,0.557c-0.346,0.371-0.561,0.892-0.643,1.562h3.705v-0.096c-0.036-0.643-0.21-1.14-0.52-1.494
		C379.949,9.469,379.529,9.292,379.001,9.292 M373.865,15.923c-0.565,0-0.991-0.171-1.278-0.513
		c-0.287-0.342-0.431-0.827-0.431-1.456V9.367h-1.347V8.39h1.347V6.599h1.265V8.39h1.381v0.977h-1.381v4.593
		c0,0.297,0.062,0.519,0.185,0.667c0.123,0.148,0.333,0.222,0.629,0.222c0.146,0,0.346-0.027,0.602-0.082v1.019
		C374.503,15.878,374.179,15.923,373.865,15.923 M356.016,15.923c-1.007,0-1.808-0.336-2.403-1.008
		c-0.595-0.672-0.892-1.592-0.892-2.758v-0.212c0-0.72,0.132-1.36,0.396-1.921c0.264-0.561,0.644-0.996,1.138-1.306
		c0.494-0.31,1.079-0.465,1.753-0.465c0.829,0,1.519,0.249,2.068,0.745c0.549,0.497,0.842,1.142,0.878,1.935h-1.196
		c-0.037-0.478-0.218-0.872-0.543-1.179c-0.326-0.308-0.728-0.461-1.207-0.461c-0.642,0-1.14,0.231-1.494,0.694
		c-0.353,0.463-0.53,1.131-0.53,2.006v0.239c0,0.852,0.175,1.509,0.526,1.969c0.351,0.46,0.852,0.69,1.504,0.69
		c0.451,0,0.845-0.137,1.183-0.41c0.337-0.273,0.524-0.615,0.561-1.025h1.196c-0.023,0.424-0.169,0.827-0.438,1.21
		s-0.628,0.688-1.077,0.916S356.518,15.923,356.016,15.923 M329.615,15.923c-0.971,0-1.75-0.257-2.338-0.772
		c-0.588-0.515-0.882-1.194-0.882-2.037c0-0.478,0.133-0.918,0.4-1.319c0.267-0.401,0.776-0.868,1.528-1.401
		c-0.442-0.538-0.738-0.971-0.889-1.299c-0.15-0.328-0.225-0.654-0.225-0.977c0-0.756,0.223-1.349,0.67-1.777
		s1.053-0.643,1.818-0.643c0.684,0,1.249,0.2,1.695,0.598c0.447,0.399,0.67,0.901,0.67,1.507c0,0.401-0.101,0.771-0.304,1.111
		c-0.203,0.34-0.557,0.696-1.063,1.07l-0.731,0.54l2.215,2.645c0.31-0.592,0.465-1.251,0.465-1.975h1.142
		c0,1.162-0.28,2.126-0.841,2.892l1.422,1.702h-1.518L332.185,15c-0.337,0.301-0.733,0.53-1.186,0.687
		C330.545,15.844,330.084,15.923,329.615,15.923 M329.027,11.22l-0.226,0.164c-0.761,0.561-1.142,1.137-1.142,1.729
		c0,0.538,0.174,0.969,0.523,1.292c0.349,0.324,0.826,0.485,1.432,0.485c0.67,0,1.283-0.255,1.839-0.766L329.027,11.22
		 M329.69,6.735c-0.374,0-0.67,0.126-0.889,0.379c-0.219,0.253-0.328,0.573-0.328,0.96c0,0.437,0.269,0.984,0.807,1.641l0.807-0.567
		c0.31-0.219,0.522-0.427,0.636-0.625c0.114-0.198,0.171-0.439,0.171-0.721c0-0.305-0.114-0.559-0.342-0.762
		C330.323,6.837,330.036,6.735,329.69,6.735 M299.538,15.923c-0.592,0-1.117-0.105-1.572-0.314c-0.456-0.21-0.812-0.502-1.07-0.878
		c-0.258-0.376-0.386-0.783-0.386-1.22h1.265c0.023,0.424,0.193,0.76,0.509,1.008c0.317,0.248,0.735,0.373,1.254,0.373
		c0.479,0,0.863-0.097,1.152-0.29c0.289-0.194,0.434-0.452,0.434-0.776c0-0.342-0.129-0.607-0.386-0.796
		c-0.258-0.189-0.706-0.352-1.347-0.489c-0.64-0.137-1.148-0.301-1.524-0.492c-0.376-0.191-0.654-0.419-0.834-0.684
		c-0.18-0.264-0.27-0.579-0.27-0.943c0-0.606,0.256-1.119,0.769-1.538c0.513-0.419,1.168-0.629,1.965-0.629
		c0.839,0,1.519,0.217,2.041,0.649c0.522,0.433,0.783,0.987,0.783,1.661h-1.271c0-0.346-0.147-0.645-0.441-0.895
		c-0.294-0.251-0.664-0.376-1.111-0.376c-0.46,0-0.82,0.1-1.08,0.301c-0.26,0.201-0.39,0.463-0.39,0.786
		c0,0.305,0.121,0.535,0.362,0.69c0.241,0.155,0.678,0.303,1.309,0.444c0.631,0.141,1.143,0.31,1.535,0.506
		c0.392,0.196,0.682,0.432,0.871,0.707c0.189,0.276,0.284,0.612,0.284,1.008c0,0.661-0.264,1.191-0.793,1.589
		C301.067,15.724,300.381,15.923,299.538,15.923 M292.464,15.923c-1.003,0-1.818-0.329-2.447-0.988
		c-0.629-0.658-0.943-1.539-0.943-2.642v-0.232c0-0.734,0.14-1.389,0.42-1.965c0.28-0.576,0.672-1.028,1.176-1.353
		c0.504-0.326,1.049-0.489,1.637-0.489c0.962,0,1.709,0.317,2.242,0.95c0.533,0.634,0.8,1.54,0.8,2.721v0.526h-5.011
		c0.018,0.729,0.231,1.318,0.639,1.767c0.408,0.449,0.926,0.673,1.555,0.673c0.447,0,0.825-0.091,1.135-0.273
		c0.31-0.182,0.581-0.424,0.813-0.725l0.772,0.602C294.633,15.447,293.703,15.923,292.464,15.923 M292.306,9.292
		c-0.51,0-0.939,0.186-1.285,0.557s-0.56,0.892-0.643,1.562h3.705v-0.096c-0.037-0.643-0.21-1.14-0.52-1.494
		C293.254,9.469,292.835,9.292,292.306,9.292 M269.166,15.923c-0.592,0-1.117-0.105-1.572-0.314c-0.456-0.21-0.812-0.502-1.07-0.878
		c-0.258-0.376-0.386-0.783-0.386-1.22h1.265c0.023,0.424,0.193,0.76,0.509,1.008c0.317,0.248,0.735,0.373,1.254,0.373
		c0.479,0,0.863-0.097,1.152-0.29c0.289-0.194,0.434-0.452,0.434-0.776c0-0.342-0.129-0.607-0.386-0.796
		c-0.258-0.189-0.706-0.352-1.347-0.489c-0.64-0.137-1.148-0.301-1.524-0.492c-0.376-0.191-0.654-0.419-0.834-0.684
		c-0.18-0.264-0.27-0.579-0.27-0.943c0-0.606,0.256-1.119,0.769-1.538c0.513-0.419,1.168-0.629,1.965-0.629
		c0.839,0,1.519,0.217,2.041,0.649c0.522,0.433,0.783,0.987,0.783,1.661h-1.271c0-0.346-0.147-0.645-0.441-0.895
		c-0.294-0.251-0.664-0.376-1.111-0.376c-0.46,0-0.82,0.1-1.08,0.301c-0.26,0.201-0.39,0.463-0.39,0.786
		c0,0.305,0.121,0.535,0.362,0.69c0.241,0.155,0.678,0.303,1.309,0.444c0.631,0.141,1.143,0.31,1.535,0.506
		c0.392,0.196,0.682,0.432,0.871,0.707c0.189,0.276,0.284,0.612,0.284,1.008c0,0.661-0.264,1.191-0.793,1.589
		C270.695,15.724,270.009,15.923,269.166,15.923 M264.052,15.923c-0.565,0-0.991-0.171-1.278-0.513
		c-0.287-0.342-0.431-0.827-0.431-1.456V9.367h-1.347V8.39h1.347V6.599h1.265V8.39h1.381v0.977h-1.381v4.593
		c0,0.297,0.061,0.519,0.185,0.667c0.123,0.148,0.333,0.222,0.629,0.222c0.146,0,0.346-0.027,0.602-0.082v1.019
		C264.69,15.878,264.366,15.923,264.052,15.923 M239.311,15.923c-1.003,0-1.818-0.329-2.447-0.988
		c-0.629-0.658-0.943-1.539-0.943-2.642v-0.232c0-0.734,0.14-1.389,0.42-1.965c0.28-0.576,0.672-1.028,1.176-1.353
		c0.503-0.326,1.049-0.489,1.637-0.489c0.962,0,1.709,0.317,2.242,0.95c0.533,0.634,0.8,1.54,0.8,2.721v0.526h-5.011
		c0.018,0.729,0.231,1.318,0.639,1.767c0.408,0.449,0.926,0.673,1.555,0.673c0.447,0,0.825-0.091,1.135-0.273
		c0.31-0.182,0.581-0.424,0.813-0.725l0.772,0.602C241.48,15.447,240.55,15.923,239.311,15.923 M239.153,9.292
		c-0.51,0-0.939,0.186-1.285,0.557c-0.346,0.371-0.56,0.892-0.643,1.562h3.705v-0.096c-0.036-0.643-0.21-1.14-0.52-1.494
		C240.101,9.469,239.682,9.292,239.153,9.292 M226.105,15.923c-0.565,0-0.991-0.171-1.278-0.513
		c-0.287-0.342-0.431-0.827-0.431-1.456V9.367h-1.347V8.39h1.347V6.599h1.265V8.39h1.381v0.977h-1.381v4.593
		c0,0.297,0.062,0.519,0.185,0.667c0.123,0.148,0.333,0.222,0.629,0.222c0.146,0,0.346-0.027,0.602-0.082v1.019
		C226.742,15.878,226.419,15.923,226.105,15.923 M215.389,15.923c-1.003,0-1.815-0.349-2.437-1.046
		c-0.622-0.697-0.933-1.62-0.933-2.768V12.02c0-0.725,0.142-1.376,0.427-1.955c0.285-0.579,0.681-1.025,1.189-1.34
		c0.508-0.314,1.088-0.472,1.74-0.472c1.007,0,1.822,0.349,2.444,1.046c0.622,0.697,0.933,1.625,0.933,2.782v0.089
		c0,0.72-0.138,1.366-0.414,1.938c-0.276,0.572-0.67,1.018-1.183,1.336C216.644,15.763,216.055,15.923,215.389,15.923
		 M215.376,9.292c-0.624,0-1.128,0.248-1.511,0.745c-0.383,0.497-0.574,1.208-0.574,2.133c0,0.82,0.19,1.479,0.571,1.976
		c0.381,0.497,0.89,0.745,1.528,0.745c0.643,0,1.153-0.252,1.531-0.755c0.378-0.504,0.567-1.209,0.567-2.116
		c0-0.811-0.193-1.469-0.578-1.972C216.525,9.544,216.014,9.292,215.376,9.292 M210.144,15.923c-0.565,0-0.991-0.171-1.278-0.513
		c-0.287-0.342-0.431-0.827-0.431-1.456V9.367h-1.347V8.39h1.347V6.599h1.265V8.39h1.381v0.977H209.7v4.593
		c0,0.297,0.061,0.519,0.185,0.667c0.123,0.148,0.333,0.222,0.629,0.222c0.146,0,0.346-0.027,0.602-0.082v1.019
		C210.782,15.878,210.459,15.923,210.144,15.923 M199.88,15.923c-0.593,0-1.117-0.105-1.572-0.314
		c-0.456-0.21-0.812-0.502-1.07-0.878c-0.258-0.376-0.386-0.783-0.386-1.22h1.265c0.023,0.424,0.192,0.76,0.509,1.008
		c0.317,0.248,0.735,0.373,1.254,0.373c0.479,0,0.862-0.097,1.152-0.29c0.289-0.194,0.434-0.452,0.434-0.776
		c0-0.342-0.129-0.607-0.386-0.796c-0.258-0.189-0.706-0.352-1.347-0.489c-0.64-0.137-1.148-0.301-1.524-0.492
		c-0.376-0.191-0.654-0.419-0.834-0.684c-0.18-0.264-0.27-0.579-0.27-0.943c0-0.606,0.256-1.119,0.769-1.538
		c0.513-0.419,1.168-0.629,1.965-0.629c0.838,0,1.519,0.217,2.04,0.649c0.522,0.433,0.783,0.987,0.783,1.661h-1.271
		c0-0.346-0.147-0.645-0.441-0.895c-0.294-0.251-0.664-0.376-1.111-0.376c-0.46,0-0.82,0.1-1.08,0.301
		c-0.26,0.201-0.39,0.463-0.39,0.786c0,0.305,0.121,0.535,0.362,0.69c0.242,0.155,0.678,0.303,1.309,0.444
		c0.631,0.141,1.143,0.31,1.535,0.506c0.392,0.196,0.682,0.432,0.872,0.707c0.189,0.276,0.284,0.612,0.284,1.008
		c0,0.661-0.264,1.191-0.793,1.589C201.409,15.724,200.723,15.923,199.88,15.923 M192.806,15.923c-1.003,0-1.818-0.329-2.447-0.988
		c-0.629-0.658-0.943-1.539-0.943-2.642v-0.232c0-0.734,0.14-1.389,0.42-1.965c0.28-0.576,0.672-1.028,1.176-1.353
		c0.504-0.326,1.049-0.489,1.637-0.489c0.962,0,1.709,0.317,2.242,0.95c0.533,0.634,0.8,1.54,0.8,2.721v0.526h-5.011
		c0.018,0.729,0.231,1.318,0.639,1.767c0.408,0.449,0.926,0.673,1.555,0.673c0.447,0,0.825-0.091,1.135-0.273
		c0.31-0.182,0.581-0.424,0.813-0.725l0.772,0.602C194.975,15.447,194.046,15.923,192.806,15.923 M192.649,9.292
		c-0.511,0-0.939,0.186-1.285,0.557c-0.346,0.371-0.561,0.892-0.643,1.562h3.705v-0.096c-0.037-0.643-0.21-1.14-0.52-1.494
		C193.597,9.469,193.177,9.292,192.649,9.292 M172.825,15.923c-0.788,0-1.389-0.229-1.801-0.687
		c-0.412-0.458-0.621-1.136-0.625-2.034V8.39h1.265v4.778c0,1.121,0.456,1.682,1.367,1.682c0.966,0,1.609-0.36,1.928-1.08V8.39
		h1.265v7.397h-1.203l-0.027-0.731C174.499,15.634,173.777,15.923,172.825,15.923 M150.191,15.923c-1.003,0-1.818-0.329-2.447-0.988
		c-0.629-0.658-0.943-1.539-0.943-2.642v-0.232c0-0.734,0.14-1.389,0.42-1.965c0.28-0.576,0.672-1.028,1.176-1.353
		c0.503-0.326,1.049-0.489,1.637-0.489c0.962,0,1.709,0.317,2.242,0.95c0.533,0.634,0.8,1.54,0.8,2.721v0.526h-5.011
		c0.018,0.729,0.231,1.318,0.639,1.767c0.408,0.449,0.926,0.673,1.555,0.673c0.447,0,0.825-0.091,1.135-0.273
		c0.31-0.182,0.581-0.424,0.813-0.725l0.772,0.602C152.361,15.447,151.431,15.923,150.191,15.923 M150.034,9.292
		c-0.51,0-0.939,0.186-1.285,0.557c-0.346,0.371-0.561,0.892-0.643,1.562h3.705v-0.096c-0.037-0.643-0.21-1.14-0.52-1.494
		C150.982,9.469,150.563,9.292,150.034,9.292 M134.826,15.923c-0.729,0-1.327-0.206-1.794-0.619
		c-0.467-0.412-0.701-0.935-0.701-1.569c0-0.77,0.293-1.368,0.878-1.794c0.586-0.426,1.409-0.639,2.471-0.639h1.23v-0.581
		c0-0.442-0.132-0.794-0.396-1.056c-0.264-0.262-0.654-0.393-1.169-0.393c-0.451,0-0.83,0.114-1.135,0.342
		c-0.305,0.228-0.458,0.504-0.458,0.827h-1.271c0-0.369,0.131-0.726,0.393-1.07c0.262-0.344,0.618-0.616,1.066-0.817
		c0.449-0.2,0.942-0.301,1.48-0.301c0.852,0,1.52,0.213,2.003,0.639c0.483,0.426,0.734,1.013,0.752,1.76v3.404
		c0,0.679,0.086,1.219,0.26,1.62v0.109h-1.326c-0.073-0.146-0.132-0.406-0.178-0.779C136.344,15.618,135.642,15.923,134.826,15.923
		 M135.92,12.197c-1.55,0-2.324,0.454-2.324,1.36c0,0.396,0.132,0.706,0.396,0.93c0.264,0.223,0.604,0.335,1.019,0.335
		c0.396,0,0.772-0.103,1.128-0.308c0.355-0.205,0.613-0.472,0.772-0.8v-1.518H135.92 M123.266,15.923
		c-1.003,0-1.818-0.329-2.447-0.988c-0.629-0.658-0.943-1.539-0.943-2.642v-0.232c0-0.734,0.14-1.389,0.42-1.965
		c0.28-0.576,0.672-1.028,1.176-1.353c0.504-0.326,1.049-0.489,1.637-0.489c0.962,0,1.709,0.317,2.242,0.95
		c0.533,0.634,0.8,1.54,0.8,2.721v0.526h-5.011c0.018,0.729,0.231,1.318,0.639,1.767c0.408,0.449,0.926,0.673,1.555,0.673
		c0.447,0,0.825-0.091,1.135-0.273c0.31-0.182,0.581-0.424,0.813-0.725l0.772,0.602C125.435,15.447,124.506,15.923,123.266,15.923
		 M123.109,9.292c-0.51,0-0.939,0.186-1.285,0.557c-0.346,0.371-0.56,0.892-0.643,1.562h3.705v-0.096
		c-0.037-0.643-0.21-1.14-0.52-1.494C124.057,9.469,123.637,9.292,123.109,9.292 M107.944,15.923c-1.003,0-1.818-0.329-2.447-0.988
		c-0.629-0.658-0.943-1.539-0.943-2.642v-0.232c0-0.734,0.14-1.389,0.42-1.965c0.28-0.576,0.672-1.028,1.176-1.353
		c0.503-0.326,1.049-0.489,1.637-0.489c0.962,0,1.709,0.317,2.242,0.95c0.533,0.634,0.8,1.54,0.8,2.721v0.526h-5.011
		c0.018,0.729,0.231,1.318,0.639,1.767c0.408,0.449,0.926,0.673,1.555,0.673c0.446,0,0.825-0.091,1.135-0.273
		c0.31-0.182,0.581-0.424,0.813-0.725l0.772,0.602C110.113,15.447,109.183,15.923,107.944,15.923 M107.787,9.292
		c-0.511,0-0.939,0.186-1.285,0.557c-0.346,0.371-0.56,0.892-0.643,1.562h3.705v-0.096c-0.036-0.643-0.21-1.14-0.519-1.494
		C108.734,9.469,108.315,9.292,107.787,9.292 M90.927,15.923c-0.565,0-0.991-0.171-1.278-0.513
		c-0.287-0.342-0.431-0.827-0.431-1.456V9.367h-1.347V8.39h1.347V6.599h1.265V8.39h1.381v0.977h-1.381v4.593
		c0,0.297,0.062,0.519,0.185,0.667C90.79,14.775,91,14.85,91.296,14.85c0.146,0,0.346-0.027,0.602-0.082v1.019
		C91.565,15.878,91.241,15.923,90.927,15.923 M84.165,15.923c-1.007,0-1.808-0.336-2.403-1.008
		c-0.595-0.672-0.892-1.592-0.892-2.758v-0.212c0-0.72,0.132-1.36,0.396-1.921c0.264-0.561,0.644-0.996,1.138-1.306
		c0.494-0.31,1.079-0.465,1.753-0.465c0.829,0,1.519,0.249,2.068,0.745c0.549,0.497,0.842,1.142,0.878,1.935h-1.196
		c-0.037-0.478-0.218-0.872-0.543-1.179c-0.326-0.308-0.728-0.461-1.207-0.461c-0.643,0-1.14,0.231-1.494,0.694
		c-0.353,0.463-0.53,1.131-0.53,2.006v0.239c0,0.852,0.175,1.509,0.526,1.969c0.351,0.46,0.852,0.69,1.504,0.69
		c0.451,0,0.845-0.137,1.183-0.41c0.337-0.273,0.524-0.615,0.561-1.025h1.196c-0.023,0.424-0.169,0.827-0.437,1.21
		s-0.628,0.688-1.077,0.916S84.666,15.923,84.165,15.923 M76.731,15.923c-1.003,0-1.818-0.329-2.447-0.988
		c-0.629-0.658-0.943-1.539-0.943-2.642v-0.232c0-0.734,0.14-1.389,0.42-1.965c0.28-0.576,0.672-1.028,1.176-1.353
		c0.503-0.326,1.049-0.489,1.637-0.489c0.962,0,1.709,0.317,2.242,0.95c0.533,0.634,0.8,1.54,0.8,2.721v0.526h-5.011
		c0.018,0.729,0.231,1.318,0.639,1.767c0.408,0.449,0.926,0.673,1.555,0.673c0.447,0,0.825-0.091,1.135-0.273
		c0.31-0.182,0.581-0.424,0.813-0.725l0.772,0.602C78.9,15.447,77.971,15.923,76.731,15.923 M76.574,9.292
		c-0.51,0-0.939,0.186-1.285,0.557c-0.346,0.371-0.561,0.892-0.643,1.562h3.705v-0.096c-0.036-0.643-0.21-1.14-0.52-1.494
		C77.522,9.469,77.103,9.292,76.574,9.292 M60.253,15.923c-0.857,0-1.555-0.351-2.095-1.053c-0.54-0.702-0.81-1.618-0.81-2.748
		v-0.096c0-1.135,0.269-2.047,0.807-2.738c0.538-0.69,1.242-1.036,2.112-1.036c0.866,0,1.552,0.296,2.058,0.889V5.286h1.265v10.5
		h-1.162l-0.062-0.793C61.859,15.613,61.155,15.923,60.253,15.923 M60.581,9.326c-0.62,0-1.103,0.239-1.449,0.718
		c-0.346,0.478-0.52,1.187-0.52,2.126c0,0.839,0.173,1.495,0.52,1.969c0.346,0.474,0.825,0.711,1.435,0.711
		c0.802,0,1.388-0.36,1.757-1.08v-3.397C61.946,9.675,61.365,9.326,60.581,9.326 M49.702,15.923c-1.003,0-1.818-0.329-2.447-0.988
		c-0.629-0.658-0.943-1.539-0.943-2.642v-0.232c0-0.734,0.14-1.389,0.42-1.965c0.28-0.576,0.672-1.028,1.176-1.353
		c0.504-0.326,1.049-0.489,1.637-0.489c0.962,0,1.709,0.317,2.242,0.95c0.533,0.634,0.8,1.54,0.8,2.721v0.526h-5.011
		c0.018,0.729,0.231,1.318,0.639,1.767c0.408,0.449,0.926,0.673,1.555,0.673c0.447,0,0.825-0.091,1.135-0.273
		c0.31-0.182,0.581-0.424,0.813-0.725l0.772,0.602C51.871,15.447,50.941,15.923,49.702,15.923 M49.545,9.292
		c-0.511,0-0.939,0.186-1.285,0.557c-0.346,0.371-0.561,0.892-0.643,1.562h3.705v-0.096c-0.036-0.643-0.21-1.14-0.519-1.494
		C50.493,9.469,50.073,9.292,49.545,9.292 M42.162,15.923c-0.593,0-1.117-0.105-1.572-0.314c-0.456-0.21-0.812-0.502-1.07-0.878
		c-0.258-0.376-0.386-0.783-0.386-1.22h1.265c0.023,0.424,0.192,0.76,0.509,1.008c0.317,0.248,0.735,0.373,1.254,0.373
		c0.478,0,0.862-0.097,1.152-0.29c0.289-0.194,0.434-0.452,0.434-0.776c0-0.342-0.129-0.607-0.386-0.796
		c-0.257-0.189-0.706-0.352-1.347-0.489c-0.64-0.137-1.148-0.301-1.524-0.492c-0.376-0.191-0.654-0.419-0.834-0.684
		c-0.18-0.264-0.27-0.579-0.27-0.943c0-0.606,0.256-1.119,0.769-1.538c0.513-0.419,1.168-0.629,1.965-0.629
		c0.838,0,1.519,0.217,2.04,0.649c0.522,0.433,0.783,0.987,0.783,1.661h-1.271c0-0.346-0.147-0.645-0.441-0.895
		c-0.294-0.251-0.664-0.376-1.111-0.376c-0.46,0-0.82,0.1-1.08,0.301c-0.26,0.201-0.39,0.463-0.39,0.786
		c0,0.305,0.121,0.535,0.362,0.69c0.242,0.155,0.678,0.303,1.309,0.444c0.631,0.141,1.143,0.31,1.535,0.506
		c0.392,0.196,0.682,0.432,0.872,0.707c0.189,0.276,0.284,0.612,0.284,1.008c0,0.661-0.264,1.191-0.793,1.589
		C43.691,15.724,43.006,15.923,42.162,15.923 M34.198,15.923c-0.729,0-1.327-0.206-1.794-0.619
		c-0.467-0.412-0.701-0.935-0.701-1.569c0-0.77,0.293-1.368,0.878-1.794s1.409-0.639,2.471-0.639h1.23v-0.581
		c0-0.442-0.132-0.794-0.396-1.056c-0.264-0.262-0.654-0.393-1.169-0.393c-0.451,0-0.829,0.114-1.135,0.342
		s-0.458,0.504-0.458,0.827h-1.271c0-0.369,0.131-0.726,0.393-1.07c0.262-0.344,0.617-0.616,1.066-0.817
		c0.449-0.2,0.942-0.301,1.48-0.301c0.852,0,1.52,0.213,2.003,0.639c0.483,0.426,0.734,1.013,0.752,1.76v3.404
		c0,0.679,0.087,1.219,0.26,1.62v0.109h-1.326c-0.073-0.146-0.132-0.406-0.178-0.779C35.716,15.618,35.014,15.923,34.198,15.923
		 M35.292,12.197c-1.55,0-2.324,0.454-2.324,1.36c0,0.396,0.132,0.706,0.396,0.93c0.264,0.223,0.604,0.335,1.018,0.335
		c0.396,0,0.772-0.103,1.128-0.308c0.355-0.205,0.613-0.472,0.772-0.8v-1.518H35.292 M27.577,15.923
		c-1.003,0-1.818-0.329-2.447-0.988c-0.629-0.658-0.943-1.539-0.943-2.642v-0.232c0-0.734,0.14-1.389,0.42-1.965
		c0.28-0.576,0.672-1.028,1.176-1.353c0.504-0.326,1.049-0.489,1.637-0.489c0.961,0,1.709,0.317,2.242,0.95
		c0.533,0.634,0.8,1.54,0.8,2.721v0.526h-5.011c0.018,0.729,0.231,1.318,0.639,1.767c0.408,0.449,0.926,0.673,1.555,0.673
		c0.447,0,0.825-0.091,1.135-0.273c0.31-0.182,0.581-0.424,0.813-0.725l0.772,0.602C29.746,15.447,28.816,15.923,27.577,15.923
		 M27.42,9.292c-0.511,0-0.939,0.186-1.285,0.557c-0.346,0.371-0.56,0.892-0.643,1.562h3.705v-0.096
		c-0.037-0.643-0.21-1.14-0.519-1.494C28.367,9.469,27.948,9.292,27.42,9.292 M471.568,15.786h-1.265v-4.881
		c0-0.529-0.121-0.924-0.362-1.186c-0.242-0.262-0.647-0.393-1.217-0.393c-0.47,0-0.859,0.14-1.169,0.42
		c-0.31,0.28-0.49,0.657-0.54,1.131v4.908h-1.272v-4.847c0-1.075-0.526-1.613-1.579-1.613c-0.83,0-1.397,0.353-1.702,1.06v5.4
		h-1.265V8.39h1.196l0.034,0.82c0.542-0.638,1.274-0.957,2.194-0.957c1.034,0,1.739,0.396,2.112,1.189
		c0.246-0.355,0.566-0.643,0.96-0.861c0.394-0.219,0.86-0.328,1.398-0.328c1.622,0,2.447,0.859,2.475,2.577V15.786 M450.025,15.786
		h-1.265V8.39h1.23l0.021,0.854c0.415-0.661,1.003-0.991,1.764-0.991c0.246,0,0.433,0.032,0.56,0.096v1.176
		c-0.191-0.032-0.399-0.048-0.622-0.048c-0.83,0-1.392,0.353-1.688,1.06V15.786 M429.358,15.786h-1.265V8.39h1.23l0.02,0.854
		c0.415-0.661,1.003-0.991,1.764-0.991c0.246,0,0.433,0.032,0.561,0.096v1.176c-0.191-0.032-0.399-0.048-0.622-0.048
		c-0.83,0-1.392,0.353-1.688,1.06V15.786 M420.737,15.786h-1.312V5.833h3.671c1.089,0,1.942,0.278,2.56,0.834
		c0.618,0.556,0.926,1.292,0.926,2.208c0,0.966-0.302,1.71-0.906,2.232c-0.604,0.522-1.469,0.783-2.594,0.783h-2.345V15.786
		 M420.737,6.906v3.91h2.358c0.702,0,1.24-0.165,1.613-0.496c0.374-0.331,0.56-0.809,0.56-1.435c0-0.593-0.187-1.068-0.56-1.424
		c-0.374-0.356-0.887-0.541-1.538-0.555H420.737 M404.77,15.786h-1.265V8.39h1.23l0.02,0.854c0.415-0.661,1.003-0.991,1.764-0.991
		c0.246,0,0.433,0.032,0.56,0.096v1.176c-0.191-0.032-0.399-0.048-0.622-0.048c-0.829,0-1.392,0.353-1.688,1.06V15.786
		 M369.561,15.786h-1.265V8.39h1.265V15.786 M366.306,15.786h-1.265v-4.895c-0.005-0.533-0.126-0.927-0.366-1.183
		c-0.239-0.255-0.612-0.383-1.118-0.383c-0.41,0-0.77,0.109-1.08,0.328c-0.31,0.219-0.552,0.506-0.725,0.861v5.271h-1.265v-10.5
		h1.265v3.999c0.561-0.688,1.29-1.032,2.187-1.032c1.563,0,2.352,0.882,2.365,2.646V15.786 M349.574,15.786h-1.265V8.39h1.23
		l0.02,0.854c0.415-0.661,1.003-0.991,1.764-0.991c0.246,0,0.433,0.032,0.561,0.096v1.176c-0.191-0.032-0.399-0.048-0.622-0.048
		c-0.83,0-1.392,0.353-1.688,1.06V15.786 M346.961,15.786h-1.347l-0.95-2.605h-4.17l-0.936,2.605h-1.353l3.801-9.953h1.148
		L346.961,15.786 M342.579,7.453l-1.688,4.655h3.384L342.579,7.453 M321.148,15.786h-1.265v-4.895
		c-0.005-0.533-0.126-0.927-0.366-1.183c-0.239-0.255-0.612-0.383-1.118-0.383c-0.41,0-0.77,0.109-1.08,0.328
		c-0.31,0.219-0.551,0.506-0.725,0.861v5.271h-1.265V8.39h1.196l0.041,0.93c0.565-0.711,1.303-1.066,2.215-1.066
		c1.563,0,2.351,0.882,2.365,2.646V15.786 M305.382,15.786h-1.265V8.39h1.265V15.786 M283.13,15.786h-2.755V5.833h2.81
		c0.866,0,1.631,0.191,2.297,0.574c0.665,0.383,1.179,0.927,1.541,1.634c0.362,0.706,0.546,1.518,0.55,2.434v0.636
		c0,0.939-0.181,1.761-0.543,2.468c-0.362,0.707-0.88,1.249-1.552,1.627C284.806,15.583,284.024,15.777,283.13,15.786
		 M281.688,6.906v7.807h1.381c1.012,0,1.799-0.315,2.362-0.944c0.563-0.629,0.844-1.526,0.844-2.689v-0.582
		c0-1.131-0.266-2.01-0.796-2.638c-0.531-0.627-1.284-0.945-2.259-0.954H281.688 M257.869,15.786h-1.265V8.39h1.23l0.021,0.854
		c0.415-0.661,1.003-0.991,1.764-0.991c0.246,0,0.433,0.032,0.56,0.096v1.176c-0.191-0.032-0.399-0.048-0.622-0.048
		c-0.83,0-1.392,0.353-1.688,1.06V15.786 M255.255,15.786h-1.347l-0.95-2.605h-4.17l-0.936,2.605h-1.354l3.801-9.953h1.148
		L255.255,15.786 M250.873,7.453l-1.688,4.655h3.384L250.873,7.453 M234.293,15.786h-1.265v-4.895
		c-0.005-0.533-0.126-0.927-0.366-1.183c-0.239-0.255-0.612-0.383-1.118-0.383c-0.41,0-0.77,0.109-1.08,0.328
		c-0.31,0.219-0.552,0.506-0.725,0.861v5.271h-1.265v-10.5h1.265v3.999c0.561-0.688,1.29-1.032,2.188-1.032
		c1.563,0,2.351,0.882,2.365,2.646V15.786 M187.732,15.786h-1.265V8.39h1.265V15.786 M182.84,15.786h-1.265V8.39h1.23l0.021,0.854
		c0.415-0.661,1.003-0.991,1.764-0.991c0.246,0,0.433,0.032,0.561,0.096v1.176c-0.191-0.032-0.399-0.048-0.622-0.048
		c-0.83,0-1.392,0.353-1.688,1.06V15.786 M179.535,15.786h-1.265V8.39h1.265V15.786 M160.49,15.786h-1.265v-4.895
		c-0.005-0.533-0.126-0.927-0.366-1.183c-0.239-0.255-0.612-0.383-1.118-0.383c-0.41,0-0.77,0.109-1.08,0.328
		c-0.31,0.219-0.551,0.506-0.725,0.861v5.271h-1.265V8.39h1.196l0.041,0.93c0.565-0.711,1.303-1.066,2.215-1.066
		c1.563,0,2.352,0.882,2.365,2.646V15.786 M141.493,15.786h-1.265v-10.5h1.265V15.786 M129.011,15.786h-1.265V8.39h1.23l0.021,0.854
		c0.415-0.661,1.003-0.991,1.764-0.991c0.246,0,0.433,0.032,0.561,0.096v1.176c-0.191-0.032-0.399-0.048-0.622-0.048
		c-0.83,0-1.392,0.353-1.688,1.06V15.786 M118.242,15.786h-1.265v-4.895c-0.005-0.533-0.126-0.927-0.366-1.183
		c-0.239-0.255-0.612-0.383-1.118-0.383c-0.41,0-0.77,0.109-1.08,0.328c-0.31,0.219-0.551,0.506-0.725,0.861v5.271h-1.265V8.39
		h1.196l0.041,0.93c0.565-0.711,1.303-1.066,2.215-1.066c1.563,0,2.351,0.882,2.365,2.646V15.786 M70.228,15.786h-1.265V8.39h1.23
		l0.021,0.854c0.415-0.661,1.003-0.991,1.764-0.991c0.246,0,0.433,0.032,0.561,0.096v1.176c-0.191-0.032-0.399-0.048-0.622-0.048
		c-0.829,0-1.392,0.353-1.688,1.06V15.786 M66.923,15.786h-1.265V8.39h1.265V15.786 M22.457,15.786h-1.265v-10.5h1.265V15.786
		 M13.783,15.786h-1.312V5.833h3.671c1.089,0,1.942,0.278,2.56,0.834c0.617,0.556,0.926,1.292,0.926,2.208
		c0,0.966-0.302,1.71-0.906,2.232c-0.604,0.522-1.469,0.783-2.594,0.783h-2.345V15.786 M13.783,6.906v3.91h2.358
		c0.702,0,1.239-0.165,1.613-0.496c0.374-0.331,0.561-0.809,0.561-1.435c0-0.593-0.187-1.068-0.561-1.424
		c-0.374-0.356-0.886-0.541-1.538-0.555H13.783 M368.939,7.146c-0.246,0-0.432-0.068-0.557-0.205
		c-0.125-0.137-0.188-0.308-0.188-0.513c0-0.205,0.063-0.378,0.188-0.519c0.125-0.141,0.311-0.212,0.557-0.212
		c0.246,0,0.433,0.071,0.561,0.212c0.128,0.141,0.191,0.314,0.191,0.519c0,0.205-0.064,0.376-0.191,0.513
		C369.372,7.077,369.185,7.146,368.939,7.146 M304.76,7.146c-0.246,0-0.432-0.068-0.557-0.205c-0.125-0.137-0.188-0.308-0.188-0.513
		c0-0.205,0.063-0.378,0.188-0.519c0.125-0.141,0.311-0.212,0.557-0.212s0.433,0.071,0.56,0.212
		c0.128,0.141,0.191,0.314,0.191,0.519c0,0.205-0.064,0.376-0.191,0.513C305.193,7.077,305.006,7.146,304.76,7.146 M187.109,7.146
		c-0.246,0-0.432-0.068-0.557-0.205c-0.125-0.137-0.188-0.308-0.188-0.513c0-0.205,0.063-0.378,0.188-0.519
		c0.125-0.141,0.311-0.212,0.557-0.212c0.246,0,0.433,0.071,0.561,0.212c0.127,0.141,0.191,0.314,0.191,0.519
		c0,0.205-0.064,0.376-0.191,0.513C187.542,7.077,187.356,7.146,187.109,7.146 M178.913,7.146c-0.246,0-0.432-0.068-0.557-0.205
		c-0.125-0.137-0.188-0.308-0.188-0.513c0-0.205,0.063-0.378,0.188-0.519c0.125-0.141,0.311-0.212,0.557-0.212
		c0.246,0,0.433,0.071,0.561,0.212c0.128,0.141,0.191,0.314,0.191,0.519c0,0.205-0.064,0.376-0.191,0.513
		C179.346,7.077,179.159,7.146,178.913,7.146 M66.301,7.146c-0.246,0-0.432-0.068-0.557-0.205c-0.125-0.137-0.188-0.308-0.188-0.513
		c0-0.205,0.063-0.378,0.188-0.519c0.125-0.141,0.311-0.212,0.557-0.212c0.246,0,0.433,0.071,0.561,0.212
		c0.128,0.141,0.191,0.314,0.191,0.519c0,0.205-0.064,0.376-0.191,0.513C66.734,7.077,66.547,7.146,66.301,7.146"/>
	<path fill="#000000" d="M119.635,36.698c-0.533,0-1.055-0.114-1.565-0.342c-0.511-0.228-0.9-0.54-1.169-0.937l0.656-0.759
		c0.542,0.67,1.205,1.005,1.989,1.005c0.615,0,1.095-0.173,1.439-0.519c0.344-0.346,0.516-0.834,0.516-1.463v-0.636
		c-0.506,0.583-1.196,0.875-2.071,0.875c-0.866,0-1.567-0.349-2.102-1.046c-0.536-0.697-0.803-1.647-0.803-2.851
		c0-1.153,0.267-2.07,0.8-2.751c0.533-0.681,1.24-1.022,2.119-1.022c0.902,0,1.606,0.319,2.112,0.957l0.062-0.82h1.155v7.219
		c0,0.957-0.284,1.711-0.851,2.263C121.354,36.422,120.592,36.698,119.635,36.698 M119.758,27.326c-0.615,0-1.096,0.239-1.442,0.718
		c-0.347,0.478-0.52,1.187-0.52,2.126c0,0.834,0.171,1.489,0.513,1.965c0.342,0.476,0.82,0.714,1.435,0.714
		c0.797,0,1.383-0.362,1.757-1.087v-3.377C121.114,27.679,120.533,27.326,119.758,27.326 M22.05,36.63h-1.265V26.39h1.155
		l0.062,0.82c0.515-0.638,1.23-0.957,2.146-0.957c0.889,0,1.592,0.335,2.109,1.005c0.517,0.67,0.776,1.602,0.776,2.796v0.116
		c0,1.126-0.258,2.033-0.772,2.721c-0.515,0.688-1.212,1.032-2.092,1.032c-0.898,0-1.604-0.285-2.119-0.854V36.63 M23.773,27.326
		c-0.766,0-1.34,0.34-1.723,1.018v3.534c0.378,0.675,0.957,1.012,1.736,1.012c0.606,0,1.088-0.24,1.446-0.721
		c0.358-0.481,0.537-1.195,0.537-2.143c0-0.834-0.178-1.492-0.533-1.975C24.88,27.568,24.392,27.326,23.773,27.326 M111.448,33.923
		c-0.788,0-1.389-0.229-1.801-0.687c-0.413-0.458-0.621-1.136-0.625-2.034V26.39h1.265v4.778c0,1.121,0.456,1.682,1.367,1.682
		c0.966,0,1.609-0.36,1.928-1.08v-5.38h1.265v7.396h-1.203l-0.027-0.731C113.123,33.633,112.401,33.923,111.448,33.923
		 M104.058,33.923c-1.003,0-1.815-0.349-2.437-1.046c-0.622-0.697-0.933-1.62-0.933-2.768v-0.089c0-0.725,0.142-1.376,0.427-1.955
		c0.285-0.579,0.681-1.025,1.189-1.34c0.508-0.314,1.088-0.472,1.74-0.472c1.007,0,1.822,0.349,2.444,1.046
		c0.622,0.697,0.933,1.625,0.933,2.782v0.089c0,0.72-0.138,1.366-0.414,1.938c-0.276,0.572-0.67,1.017-1.183,1.336
		C105.312,33.763,104.723,33.923,104.058,33.923 M104.044,27.292c-0.624,0-1.128,0.248-1.511,0.745
		c-0.383,0.497-0.574,1.208-0.574,2.133c0,0.82,0.19,1.479,0.571,1.975c0.38,0.497,0.89,0.745,1.528,0.745
		c0.643,0,1.153-0.252,1.531-0.755c0.378-0.504,0.567-1.209,0.567-2.116c0-0.811-0.193-1.468-0.578-1.972
		C105.193,27.544,104.682,27.292,104.044,27.292 M86.162,33.923c-0.565,0-0.991-0.171-1.278-0.513
		c-0.287-0.342-0.431-0.827-0.431-1.456v-4.587h-1.347V26.39h1.347v-1.791h1.265v1.791h1.381v0.977h-1.381v4.593
		c0,0.297,0.062,0.519,0.185,0.667c0.123,0.148,0.333,0.222,0.629,0.222c0.146,0,0.346-0.027,0.602-0.082v1.019
		C86.801,33.878,86.477,33.923,86.162,33.923 M75.898,33.923c-0.593,0-1.117-0.105-1.572-0.314c-0.456-0.21-0.812-0.502-1.07-0.878
		c-0.258-0.376-0.386-0.783-0.386-1.22h1.265c0.023,0.424,0.192,0.76,0.509,1.008c0.317,0.248,0.735,0.373,1.254,0.373
		c0.478,0,0.862-0.097,1.152-0.291c0.289-0.194,0.434-0.452,0.434-0.776c0-0.342-0.129-0.607-0.386-0.796
		c-0.258-0.189-0.707-0.352-1.347-0.489c-0.64-0.137-1.148-0.301-1.524-0.492c-0.376-0.191-0.654-0.419-0.834-0.684
		c-0.18-0.264-0.27-0.579-0.27-0.943c0-0.606,0.256-1.119,0.769-1.538s1.168-0.629,1.965-0.629c0.839,0,1.519,0.217,2.04,0.649
		c0.522,0.433,0.783,0.987,0.783,1.661h-1.271c0-0.346-0.147-0.645-0.441-0.895c-0.294-0.251-0.664-0.376-1.111-0.376
		c-0.46,0-0.82,0.1-1.08,0.301c-0.26,0.201-0.39,0.463-0.39,0.786c0,0.305,0.121,0.536,0.362,0.69
		c0.242,0.155,0.678,0.303,1.309,0.444c0.631,0.141,1.143,0.31,1.535,0.506c0.392,0.196,0.682,0.432,0.872,0.708
		c0.189,0.276,0.284,0.612,0.284,1.008c0,0.661-0.264,1.191-0.793,1.589C77.427,33.723,76.742,33.923,75.898,33.923 M70.784,33.923
		c-0.565,0-0.991-0.171-1.278-0.513c-0.287-0.342-0.431-0.827-0.431-1.456v-4.587h-1.347V26.39h1.347v-1.791h1.265v1.791h1.381
		v0.977H70.34v4.593c0,0.297,0.062,0.519,0.185,0.667c0.123,0.148,0.333,0.222,0.629,0.222c0.146,0,0.346-0.027,0.602-0.082v1.019
		C71.422,33.878,71.099,33.923,70.784,33.923 M63.957,33.923c-0.593,0-1.117-0.105-1.572-0.314c-0.456-0.21-0.812-0.502-1.07-0.878
		c-0.258-0.376-0.386-0.783-0.386-1.22h1.265c0.023,0.424,0.193,0.76,0.509,1.008c0.317,0.248,0.735,0.373,1.254,0.373
		c0.478,0,0.862-0.097,1.152-0.291c0.289-0.194,0.434-0.452,0.434-0.776c0-0.342-0.129-0.607-0.386-0.796
		c-0.258-0.189-0.706-0.352-1.347-0.489c-0.64-0.137-1.148-0.301-1.524-0.492c-0.376-0.191-0.654-0.419-0.834-0.684
		c-0.18-0.264-0.27-0.579-0.27-0.943c0-0.606,0.256-1.119,0.769-1.538c0.513-0.419,1.168-0.629,1.965-0.629
		c0.838,0,1.519,0.217,2.04,0.649c0.522,0.433,0.783,0.987,0.783,1.661h-1.271c0-0.346-0.147-0.645-0.441-0.895
		c-0.294-0.251-0.664-0.376-1.111-0.376c-0.46,0-0.82,0.1-1.08,0.301c-0.26,0.201-0.39,0.463-0.39,0.786
		c0,0.305,0.121,0.536,0.362,0.69c0.241,0.155,0.678,0.303,1.309,0.444c0.631,0.141,1.143,0.31,1.535,0.506
		c0.392,0.196,0.682,0.432,0.872,0.708c0.189,0.276,0.284,0.612,0.284,1.008c0,0.661-0.264,1.191-0.793,1.589
		C65.486,33.723,64.8,33.923,63.957,33.923 M49.242,33.923c-0.729,0-1.327-0.206-1.794-0.619c-0.467-0.412-0.701-0.935-0.701-1.569
		c0-0.77,0.293-1.368,0.878-1.794c0.586-0.426,1.409-0.639,2.471-0.639h1.23v-0.581c0-0.442-0.132-0.794-0.396-1.056
		c-0.264-0.262-0.654-0.393-1.169-0.393c-0.451,0-0.83,0.114-1.135,0.342c-0.305,0.228-0.458,0.504-0.458,0.827h-1.271
		c0-0.369,0.131-0.726,0.393-1.07c0.262-0.344,0.617-0.616,1.066-0.817c0.449-0.2,0.942-0.301,1.48-0.301
		c0.852,0,1.52,0.213,2.003,0.639c0.483,0.426,0.734,1.013,0.752,1.76v3.404c0,0.679,0.087,1.219,0.26,1.62v0.109h-1.326
		c-0.073-0.146-0.132-0.405-0.178-0.779C50.76,33.618,50.058,33.923,49.242,33.923 M50.336,30.197c-1.55,0-2.324,0.453-2.324,1.36
		c0,0.396,0.132,0.706,0.396,0.93c0.264,0.223,0.604,0.335,1.019,0.335c0.396,0,0.772-0.103,1.128-0.308
		c0.355-0.205,0.613-0.472,0.772-0.8v-1.517H50.336 M39.214,33.923c-1.007,0-1.808-0.336-2.403-1.008
		c-0.595-0.672-0.892-1.592-0.892-2.758v-0.212c0-0.72,0.132-1.36,0.396-1.921c0.264-0.56,0.644-0.996,1.138-1.306
		c0.494-0.31,1.079-0.465,1.753-0.465c0.829,0,1.519,0.248,2.068,0.745c0.549,0.497,0.842,1.142,0.878,1.935h-1.196
		c-0.037-0.478-0.218-0.872-0.543-1.179c-0.326-0.308-0.728-0.461-1.206-0.461c-0.643,0-1.141,0.231-1.494,0.694
		s-0.53,1.131-0.53,2.006v0.239c0,0.852,0.175,1.509,0.526,1.969c0.351,0.46,0.852,0.69,1.504,0.69c0.451,0,0.845-0.137,1.183-0.41
		c0.337-0.273,0.524-0.615,0.561-1.025h1.196c-0.023,0.424-0.169,0.827-0.437,1.21c-0.269,0.383-0.628,0.688-1.077,0.916
		C40.19,33.809,39.715,33.923,39.214,33.923 M31.781,33.923c-1.003,0-1.818-0.329-2.447-0.988c-0.629-0.658-0.943-1.539-0.943-2.642
		V30.06c0-0.734,0.14-1.389,0.42-1.965c0.28-0.576,0.672-1.028,1.176-1.353c0.504-0.326,1.049-0.489,1.637-0.489
		c0.962,0,1.709,0.317,2.242,0.95c0.533,0.634,0.8,1.541,0.8,2.721v0.526h-5.011c0.018,0.729,0.231,1.318,0.639,1.767
		c0.408,0.449,0.926,0.673,1.555,0.673c0.447,0,0.825-0.091,1.135-0.273c0.31-0.182,0.581-0.424,0.813-0.725l0.772,0.602
		C33.95,33.447,33.02,33.923,31.781,33.923 M31.623,27.292c-0.51,0-0.939,0.186-1.285,0.557s-0.56,0.892-0.643,1.562h3.705v-0.096
		c-0.037-0.643-0.21-1.14-0.52-1.494C32.571,27.469,32.152,27.292,31.623,27.292 M15.629,33.923c-0.684,0-1.322-0.131-1.914-0.393
		c-0.593-0.262-1.049-0.621-1.371-1.077c-0.321-0.456-0.482-0.973-0.482-1.552h1.319c0,0.602,0.222,1.077,0.667,1.425
		c0.444,0.349,1.038,0.523,1.781,0.523c0.693,0,1.224-0.141,1.593-0.424c0.369-0.282,0.554-0.668,0.554-1.155
		c0-0.488-0.171-0.865-0.513-1.131s-0.962-0.53-1.859-0.789c-1.126-0.324-1.945-0.721-2.458-1.193
		c-0.513-0.472-0.769-1.054-0.769-1.746c0-0.784,0.313-1.432,0.94-1.945c0.627-0.513,1.441-0.769,2.444-0.769
		c0.684,0,1.293,0.132,1.829,0.396c0.535,0.264,0.95,0.629,1.244,1.094c0.294,0.465,0.441,0.973,0.441,1.524h-1.319
		c0-0.604-0.191-1.078-0.574-1.423c-0.383-0.345-0.923-0.518-1.62-0.518c-0.647,0-1.152,0.143-1.514,0.428
		c-0.362,0.285-0.543,0.681-0.543,1.188c0,0.406,0.172,0.75,0.516,1.031c0.344,0.281,0.93,0.538,1.757,0.77
		c0.827,0.233,1.474,0.489,1.941,0.77c0.467,0.28,0.813,0.607,1.039,0.981c0.226,0.374,0.338,0.813,0.338,1.319
		c0,0.807-0.314,1.453-0.943,1.938C17.522,33.68,16.682,33.923,15.629,33.923 M130.569,33.786h-1.265v-4.894
		c-0.005-0.533-0.126-0.927-0.366-1.183c-0.239-0.255-0.612-0.383-1.118-0.383c-0.41,0-0.77,0.109-1.08,0.328
		c-0.31,0.219-0.552,0.506-0.725,0.861v5.27h-1.265v-10.5h1.265v3.999c0.561-0.688,1.29-1.032,2.187-1.032
		c1.563,0,2.352,0.882,2.365,2.646V33.786 M97.575,33.786H96.31V26.39h1.23l0.021,0.854c0.415-0.661,1.003-0.991,1.764-0.991
		c0.246,0,0.433,0.032,0.561,0.096v1.176c-0.191-0.032-0.399-0.048-0.622-0.048c-0.83,0-1.392,0.353-1.688,1.06V33.786
		 M94.351,33.786h-1.265v-4.894c-0.005-0.533-0.126-0.927-0.366-1.183c-0.239-0.255-0.612-0.383-1.118-0.383
		c-0.41,0-0.77,0.109-1.08,0.328c-0.31,0.219-0.552,0.506-0.725,0.861v5.27h-1.265v-10.5h1.265v3.999
		c0.561-0.688,1.29-1.032,2.187-1.032c1.563,0,2.352,0.882,2.365,2.646V33.786 M59.266,33.786h-1.265V26.39h1.265V33.786
		 M55.909,33.786h-1.265v-10.5h1.265V33.786 M45.01,33.786h-1.265V26.39h1.265V33.786 M58.644,25.146
		c-0.246,0-0.432-0.068-0.557-0.205c-0.125-0.137-0.188-0.308-0.188-0.513c0-0.205,0.063-0.378,0.188-0.519
		c0.125-0.141,0.311-0.212,0.557-0.212c0.246,0,0.433,0.071,0.561,0.212c0.128,0.141,0.191,0.314,0.191,0.519
		c0,0.205-0.064,0.376-0.191,0.513S58.89,25.146,58.644,25.146 M44.387,25.146c-0.246,0-0.432-0.068-0.557-0.205
		c-0.125-0.137-0.188-0.308-0.188-0.513c0-0.205,0.063-0.378,0.188-0.519c0.125-0.141,0.311-0.212,0.557-0.212
		c0.246,0,0.433,0.071,0.561,0.212c0.127,0.141,0.191,0.314,0.191,0.519c0,0.205-0.064,0.376-0.191,0.513
		C44.82,25.077,44.634,25.146,44.387,25.146"/>
	<path fill="#0080FF" d="M136.099,24.277c-0.221,0.456-0.332,0.916-0.332,1.381v0.793h1.258v-0.93
		c0.014-0.67,0.232-1.294,0.656-1.873l-0.725-0.492C136.606,23.448,136.32,23.822,136.099,24.277z M144.642,33.786h1.347
		l-3.808-9.953h-1.148l-3.801,9.953h1.354l0.937-2.604h4.17L144.642,33.786z M141.607,25.453l1.695,4.655h-3.384L141.607,25.453z
		 M151.056,32.6c-0.289,0.194-0.673,0.291-1.152,0.291c-0.52,0-0.938-0.124-1.254-0.373c-0.317-0.248-0.487-0.584-0.509-1.008
		h-1.265c0,0.438,0.129,0.844,0.386,1.22c0.257,0.376,0.614,0.669,1.07,0.878c0.456,0.21,0.98,0.314,1.572,0.314
		c0.843,0,1.529-0.199,2.058-0.598c0.529-0.399,0.793-0.929,0.793-1.589c0-0.396-0.095-0.733-0.284-1.008
		c-0.189-0.276-0.48-0.512-0.872-0.708c-0.392-0.196-0.904-0.365-1.535-0.506c-0.631-0.141-1.068-0.289-1.309-0.444
		c-0.242-0.155-0.362-0.385-0.362-0.69c0-0.324,0.13-0.586,0.39-0.786c0.26-0.2,0.62-0.301,1.08-0.301
		c0.447,0,0.817,0.125,1.111,0.376c0.294,0.251,0.441,0.549,0.441,0.896h1.271c0-0.674-0.261-1.228-0.783-1.661
		c-0.522-0.433-1.202-0.649-2.041-0.649c-0.798,0-1.453,0.21-1.965,0.629c-0.513,0.419-0.769,0.932-0.769,1.538
		c0,0.365,0.09,0.679,0.27,0.943c0.18,0.264,0.458,0.492,0.834,0.684s0.884,0.355,1.524,0.492c0.64,0.137,1.089,0.3,1.347,0.489
		c0.257,0.189,0.386,0.455,0.386,0.796C151.49,32.148,151.345,32.406,151.056,32.6z M159.086,33.786h1.483l-3.213-4.307l2.878-3.09
		h-1.538l-2.304,2.434l-0.677,0.813v-6.351h-1.265v10.5h1.265v-2.598l0.793-0.827L159.086,33.786z M171.038,33.786v-0.109
		c-0.173-0.401-0.26-0.941-0.26-1.62v-3.404c-0.018-0.747-0.269-1.334-0.752-1.76c-0.483-0.426-1.151-0.639-2.003-0.639
		c-0.538,0-1.031,0.1-1.48,0.301c-0.449,0.201-0.804,0.473-1.066,0.817c-0.262,0.344-0.393,0.701-0.393,1.07h1.271
		c0-0.324,0.153-0.599,0.458-0.827c0.305-0.228,0.684-0.342,1.135-0.342c0.515,0,0.905,0.131,1.169,0.393
		c0.264,0.262,0.396,0.614,0.396,1.056v0.581h-1.23c-1.062,0-1.886,0.213-2.471,0.639c-0.586,0.426-0.878,1.024-0.878,1.794
		c0,0.633,0.233,1.156,0.701,1.569c0.467,0.413,1.065,0.619,1.794,0.619c0.816,0,1.518-0.305,2.105-0.916
		c0.046,0.374,0.105,0.633,0.178,0.779H171.038z M166.595,32.487c-0.264-0.223-0.396-0.533-0.396-0.93
		c0-0.907,0.775-1.36,2.324-1.36h0.991v1.518c-0.16,0.328-0.417,0.595-0.772,0.8s-0.731,0.308-1.128,0.308
		C167.199,32.822,166.859,32.711,166.595,32.487z M184.166,28.495c0-0.971-0.164-1.819-0.492-2.546
		c-0.328-0.727-0.796-1.284-1.405-1.671c-0.608-0.387-1.314-0.581-2.116-0.581c-0.784,0-1.48,0.195-2.088,0.584
		s-1.079,0.951-1.412,1.685c-0.333,0.734-0.499,1.579-0.499,2.536v0.718c0.009,0.939,0.181,1.765,0.516,2.478
		c0.335,0.713,0.805,1.262,1.412,1.647c0.606,0.385,1.301,0.578,2.085,0.578c0.365,0,0.711-0.041,1.039-0.123l2.099,1.668
		l0.896-0.827l-1.777-1.395c0.551-0.392,0.98-0.935,1.285-1.63c0.305-0.695,0.458-1.523,0.458-2.485V28.495z M182.854,29.227
		c-0.014,1.153-0.253,2.038-0.718,2.656c-0.465,0.618-1.121,0.926-1.969,0.926s-1.51-0.328-1.986-0.984
		c-0.476-0.656-0.714-1.554-0.714-2.693v-0.731c0.014-1.121,0.259-1.997,0.735-2.628c0.476-0.631,1.127-0.947,1.952-0.947
		c0.866,0,1.532,0.318,2,0.954c0.467,0.636,0.701,1.539,0.701,2.71V29.227z M190.672,33.786h1.203V26.39h-1.265v5.38
		c-0.319,0.72-0.962,1.08-1.928,1.08c-0.912,0-1.367-0.561-1.367-1.682V26.39h-1.265v4.812c0.004,0.898,0.213,1.576,0.625,2.034
		c0.412,0.458,1.013,0.687,1.801,0.687c0.952,0,1.675-0.289,2.167-0.868L190.672,33.786z M199.72,32.494l-0.772-0.602
		c-0.232,0.301-0.504,0.542-0.813,0.725c-0.31,0.182-0.688,0.273-1.135,0.273c-0.629,0-1.147-0.224-1.555-0.673
		c-0.408-0.449-0.621-1.038-0.639-1.767h5.011v-0.526c0-1.18-0.267-2.087-0.8-2.721c-0.533-0.633-1.281-0.95-2.242-0.95
		c-0.588,0-1.134,0.163-1.637,0.489c-0.504,0.326-0.896,0.777-1.176,1.354c-0.28,0.577-0.42,1.232-0.42,1.965v0.232
		c0,1.103,0.314,1.984,0.943,2.642c0.629,0.659,1.445,0.988,2.447,0.988C198.171,33.923,199.101,33.447,199.72,32.494z
		 M198.032,27.822c0.31,0.353,0.483,0.851,0.52,1.494v0.096h-3.705c0.082-0.67,0.296-1.191,0.643-1.562
		c0.346-0.371,0.775-0.557,1.285-0.557C197.303,27.292,197.722,27.469,198.032,27.822z M205.157,32.6
		c-0.289,0.194-0.673,0.291-1.152,0.291c-0.52,0-0.938-0.124-1.254-0.373c-0.317-0.248-0.487-0.584-0.509-1.008h-1.265
		c0,0.438,0.129,0.844,0.386,1.22c0.257,0.376,0.614,0.669,1.07,0.878c0.456,0.21,0.98,0.314,1.572,0.314
		c0.843,0,1.529-0.199,2.058-0.598c0.529-0.399,0.793-0.929,0.793-1.589c0-0.396-0.095-0.733-0.284-1.008
		c-0.189-0.276-0.48-0.512-0.872-0.708c-0.392-0.196-0.904-0.365-1.535-0.506c-0.631-0.141-1.068-0.289-1.309-0.444
		c-0.242-0.155-0.362-0.385-0.362-0.69c0-0.324,0.13-0.586,0.39-0.786c0.26-0.2,0.62-0.301,1.08-0.301
		c0.447,0,0.817,0.125,1.111,0.376c0.294,0.251,0.441,0.549,0.441,0.896h1.271c0-0.674-0.261-1.228-0.783-1.661
		c-0.522-0.433-1.202-0.649-2.041-0.649c-0.798,0-1.453,0.21-1.965,0.629c-0.513,0.419-0.769,0.932-0.769,1.538
		c0,0.365,0.09,0.679,0.27,0.943c0.18,0.264,0.458,0.492,0.834,0.684s0.884,0.355,1.524,0.492c0.64,0.137,1.089,0.3,1.347,0.489
		c0.257,0.189,0.386,0.455,0.386,0.796C205.591,32.148,205.447,32.406,205.157,32.6z M209.124,24.599v1.791h-1.347v0.978h1.347
		v4.587c0,0.629,0.144,1.114,0.431,1.456s0.713,0.513,1.278,0.513c0.314,0,0.638-0.045,0.971-0.136v-1.019
		c-0.255,0.055-0.456,0.082-0.602,0.082c-0.296,0-0.506-0.074-0.629-0.222s-0.185-0.371-0.185-0.667v-4.593h1.381V26.39h-1.381
		v-1.791H209.124z M214.522,26.39h-1.265v7.396h1.265V26.39z M213.343,24.94c0.125,0.137,0.311,0.205,0.557,0.205
		s0.433-0.068,0.561-0.205c0.128-0.137,0.191-0.308,0.191-0.513s-0.064-0.378-0.191-0.52c-0.128-0.141-0.314-0.212-0.561-0.212
		s-0.432,0.071-0.557,0.212c-0.125,0.141-0.188,0.314-0.188,0.52S213.217,24.804,213.343,24.94z M216.199,30.108
		c0,1.148,0.311,2.071,0.933,2.769s1.434,1.046,2.437,1.046c0.665,0,1.254-0.159,1.767-0.479c0.513-0.319,0.907-0.764,1.183-1.336
		c0.276-0.572,0.414-1.218,0.414-1.938v-0.089c0-1.158-0.311-2.085-0.933-2.782s-1.437-1.046-2.444-1.046
		c-0.652,0-1.232,0.157-1.74,0.472c-0.508,0.314-0.905,0.761-1.189,1.34c-0.285,0.579-0.427,1.23-0.427,1.955V30.108z
		 M218.045,28.037c0.383-0.497,0.886-0.745,1.511-0.745c0.638,0,1.15,0.252,1.535,0.755c0.385,0.504,0.578,1.161,0.578,1.972
		c0,0.907-0.189,1.612-0.567,2.116c-0.378,0.504-0.889,0.755-1.531,0.755c-0.638,0-1.147-0.248-1.528-0.745
		c-0.381-0.497-0.571-1.155-0.571-1.976C217.471,29.245,217.662,28.534,218.045,28.037z M224.569,26.39v7.396h1.265v-5.271
		c0.173-0.355,0.415-0.643,0.725-0.861c0.31-0.219,0.67-0.328,1.08-0.328c0.506,0,0.878,0.128,1.118,0.383
		c0.239,0.255,0.361,0.649,0.366,1.183v4.895h1.265v-4.888c-0.014-1.764-0.802-2.646-2.365-2.646c-0.912,0-1.65,0.355-2.215,1.066
		l-0.041-0.93H224.569z M233.075,25.539c0.221-0.453,0.334-0.908,0.338-1.364v-0.889h-1.251v0.984
		c-0.014,0.656-0.232,1.281-0.656,1.873l0.718,0.492C232.571,26.358,232.854,25.992,233.075,25.539z"/>
	<path fill="#000000" d="M234.807,33.861c-0.26,0-0.455-0.071-0.584-0.212c-0.13-0.141-0.195-0.317-0.195-0.526
		c0-0.219,0.065-0.401,0.195-0.547c0.13-0.146,0.325-0.219,0.584-0.219c0.26,0,0.457,0.073,0.591,0.219
		c0.134,0.146,0.202,0.328,0.202,0.547c0,0.21-0.067,0.385-0.202,0.526C235.264,33.791,235.067,33.861,234.807,33.861"/>
	<path fill="#000000" d="M268.796,72.698c-0.533,0-1.055-0.114-1.565-0.342c-0.51-0.228-0.9-0.54-1.169-0.936l0.656-0.759
		c0.542,0.67,1.205,1.005,1.989,1.005c0.615,0,1.095-0.173,1.439-0.519c0.344-0.346,0.516-0.834,0.516-1.463v-0.636
		c-0.506,0.583-1.196,0.875-2.071,0.875c-0.866,0-1.567-0.349-2.102-1.046c-0.536-0.697-0.803-1.647-0.803-2.851
		c0-1.153,0.267-2.07,0.8-2.751c0.533-0.681,1.24-1.022,2.119-1.022c0.902,0,1.606,0.319,2.112,0.957l0.061-0.82h1.155v7.219
		c0,0.957-0.284,1.711-0.851,2.263C270.515,72.422,269.753,72.698,268.796,72.698 M268.919,63.326c-0.615,0-1.096,0.239-1.442,0.718
		c-0.346,0.479-0.52,1.187-0.52,2.126c0,0.834,0.171,1.489,0.513,1.965c0.342,0.476,0.82,0.714,1.435,0.714
		c0.798,0,1.383-0.362,1.757-1.087v-3.377C270.275,63.679,269.694,63.326,268.919,63.326 M295.625,72.63h-1.265v-3.527
		c-0.511,0.547-1.189,0.82-2.037,0.82c-0.893,0-1.605-0.347-2.136-1.042c-0.531-0.695-0.796-1.617-0.796-2.765v-0.089
		c0-1.162,0.267-2.082,0.8-2.758c0.533-0.677,1.249-1.015,2.146-1.015c0.875,0,1.565,0.294,2.071,0.882l0.055-0.745h1.162V72.63
		 M292.651,63.292c-0.611,0-1.096,0.243-1.456,0.728c-0.36,0.485-0.54,1.202-0.54,2.15c0,0.848,0.179,1.513,0.537,1.996
		c0.358,0.483,0.84,0.725,1.446,0.725c0.752,0,1.326-0.333,1.723-0.998V64.27C293.959,63.618,293.389,63.292,292.651,63.292
		 M174.213,72.63h-1.265v-3.527c-0.51,0.547-1.189,0.82-2.037,0.82c-0.893,0-1.605-0.347-2.136-1.042
		c-0.531-0.695-0.796-1.617-0.796-2.765v-0.089c0-1.162,0.267-2.082,0.8-2.758c0.533-0.677,1.249-1.015,2.146-1.015
		c0.875,0,1.565,0.294,2.071,0.882l0.055-0.745h1.162V72.63 M171.239,63.292c-0.611,0-1.096,0.243-1.456,0.728
		c-0.36,0.485-0.54,1.202-0.54,2.15c0,0.848,0.179,1.513,0.537,1.996c0.358,0.483,0.84,0.725,1.446,0.725
		c0.752,0,1.326-0.333,1.723-0.998V64.27C172.547,63.618,171.978,63.292,171.239,63.292 M44.823,72.63h-1.265V62.39h1.155
		l0.062,0.82c0.515-0.638,1.23-0.957,2.146-0.957c0.889,0,1.592,0.335,2.109,1.005c0.517,0.67,0.776,1.602,0.776,2.796v0.116
		c0,1.126-0.258,2.033-0.772,2.721c-0.515,0.688-1.212,1.032-2.092,1.032c-0.898,0-1.604-0.285-2.119-0.854V72.63 M46.546,63.326
		c-0.766,0-1.34,0.34-1.723,1.019v3.534c0.378,0.675,0.957,1.012,1.736,1.012c0.606,0,1.088-0.24,1.446-0.721
		c0.358-0.481,0.537-1.195,0.537-2.143c0-0.834-0.178-1.493-0.533-1.976C47.653,63.568,47.165,63.326,46.546,63.326 M382.5,71.769
		l-0.718-0.492c0.428-0.597,0.652-1.212,0.67-1.846v-1.142h1.237v0.991c0,0.46-0.113,0.92-0.338,1.381
		C383.126,71.121,382.842,71.491,382.5,71.769 M210.737,71.769l-0.718-0.492c0.428-0.597,0.652-1.212,0.67-1.846v-1.142h1.237v0.991
		c0,0.46-0.113,0.92-0.338,1.381C211.363,71.121,211.079,71.491,210.737,71.769 M406.862,69.923c-1.003,0-1.818-0.329-2.447-0.988
		c-0.629-0.658-0.943-1.539-0.943-2.642v-0.232c0-0.734,0.14-1.389,0.42-1.965c0.28-0.576,0.672-1.028,1.176-1.354
		c0.504-0.326,1.049-0.489,1.637-0.489c0.962,0,1.709,0.317,2.242,0.95c0.533,0.634,0.8,1.54,0.8,2.721v0.526h-5.011
		c0.018,0.729,0.231,1.318,0.639,1.767c0.408,0.449,0.926,0.673,1.555,0.673c0.447,0,0.825-0.091,1.135-0.273
		c0.31-0.182,0.581-0.424,0.813-0.725l0.772,0.602C409.031,69.447,408.101,69.923,406.862,69.923 M406.704,63.292
		c-0.511,0-0.939,0.186-1.285,0.557c-0.346,0.371-0.561,0.892-0.643,1.562h3.705v-0.096c-0.037-0.643-0.21-1.14-0.52-1.494
		C407.652,63.469,407.233,63.292,406.704,63.292 M399.322,69.923c-0.593,0-1.117-0.105-1.572-0.314
		c-0.456-0.21-0.812-0.502-1.07-0.878c-0.258-0.376-0.386-0.783-0.386-1.22h1.265c0.023,0.424,0.192,0.76,0.509,1.008
		c0.317,0.248,0.735,0.373,1.254,0.373c0.479,0,0.862-0.097,1.152-0.291s0.434-0.452,0.434-0.776c0-0.342-0.129-0.607-0.386-0.796
		c-0.257-0.189-0.706-0.352-1.347-0.489c-0.64-0.137-1.148-0.301-1.524-0.492c-0.376-0.191-0.654-0.419-0.834-0.684
		c-0.18-0.264-0.27-0.579-0.27-0.943c0-0.606,0.256-1.119,0.769-1.538c0.513-0.419,1.168-0.629,1.965-0.629
		c0.838,0,1.519,0.216,2.04,0.649c0.522,0.433,0.783,0.987,0.783,1.661h-1.271c0-0.346-0.147-0.645-0.441-0.895
		c-0.294-0.251-0.664-0.376-1.111-0.376c-0.46,0-0.82,0.1-1.08,0.301c-0.26,0.201-0.39,0.463-0.39,0.786
		c0,0.305,0.121,0.536,0.362,0.69c0.242,0.155,0.678,0.303,1.309,0.444c0.631,0.141,1.143,0.31,1.535,0.506
		c0.392,0.196,0.682,0.432,0.872,0.707c0.189,0.276,0.284,0.612,0.284,1.008c0,0.661-0.264,1.191-0.793,1.589
		C400.851,69.724,400.165,69.923,399.322,69.923 M391.294,69.923c-0.788,0-1.389-0.229-1.801-0.687s-0.621-1.136-0.625-2.034V62.39
		h1.265v4.778c0,1.121,0.456,1.682,1.367,1.682c0.966,0,1.609-0.36,1.928-1.08v-5.38h1.265v7.397h-1.203l-0.027-0.731
		C392.969,69.634,392.247,69.923,391.294,69.923 M377.883,69.923c-0.593,0-1.117-0.105-1.572-0.314
		c-0.456-0.21-0.812-0.502-1.07-0.878c-0.258-0.376-0.386-0.783-0.386-1.22h1.265c0.023,0.424,0.193,0.76,0.509,1.008
		c0.317,0.248,0.735,0.373,1.254,0.373c0.478,0,0.862-0.097,1.152-0.291c0.289-0.194,0.434-0.452,0.434-0.776
		c0-0.342-0.129-0.607-0.386-0.796c-0.258-0.189-0.706-0.352-1.347-0.489c-0.64-0.137-1.148-0.301-1.524-0.492
		c-0.376-0.191-0.654-0.419-0.834-0.684c-0.18-0.264-0.27-0.579-0.27-0.943c0-0.606,0.256-1.119,0.769-1.538
		c0.513-0.419,1.168-0.629,1.965-0.629c0.839,0,1.519,0.216,2.041,0.649c0.522,0.433,0.783,0.987,0.783,1.661h-1.271
		c0-0.346-0.147-0.645-0.441-0.895c-0.294-0.251-0.664-0.376-1.111-0.376c-0.46,0-0.82,0.1-1.08,0.301
		c-0.26,0.201-0.39,0.463-0.39,0.786c0,0.305,0.121,0.536,0.362,0.69c0.241,0.155,0.678,0.303,1.309,0.444
		c0.631,0.141,1.143,0.31,1.535,0.506c0.392,0.196,0.682,0.432,0.872,0.707c0.189,0.276,0.284,0.612,0.284,1.008
		c0,0.661-0.264,1.191-0.793,1.589C379.412,69.724,378.726,69.923,377.883,69.923 M365.871,69.923c-1.003,0-1.818-0.329-2.447-0.988
		c-0.629-0.658-0.943-1.539-0.943-2.642v-0.232c0-0.734,0.14-1.389,0.42-1.965c0.28-0.576,0.672-1.028,1.176-1.354
		c0.503-0.326,1.049-0.489,1.637-0.489c0.962,0,1.709,0.317,2.242,0.95c0.533,0.634,0.8,1.54,0.8,2.721v0.526h-5.011
		c0.018,0.729,0.231,1.318,0.639,1.767c0.408,0.449,0.926,0.673,1.555,0.673c0.447,0,0.825-0.091,1.135-0.273
		c0.31-0.182,0.581-0.424,0.813-0.725l0.772,0.602C368.04,69.447,367.11,69.923,365.871,69.923 M365.713,63.292
		c-0.51,0-0.939,0.186-1.285,0.557c-0.346,0.371-0.56,0.892-0.642,1.562h3.705v-0.096c-0.037-0.643-0.21-1.14-0.52-1.494
		C366.661,63.469,366.242,63.292,365.713,63.292 M347.51,69.923c-0.729,0-1.327-0.206-1.794-0.619
		c-0.467-0.412-0.701-0.935-0.701-1.569c0-0.77,0.293-1.368,0.878-1.794c0.586-0.426,1.409-0.639,2.471-0.639h1.23v-0.581
		c0-0.442-0.132-0.794-0.397-1.056c-0.264-0.262-0.654-0.393-1.169-0.393c-0.451,0-0.829,0.114-1.135,0.342
		c-0.305,0.228-0.458,0.504-0.458,0.827h-1.271c0-0.369,0.131-0.726,0.393-1.07c0.262-0.344,0.617-0.616,1.066-0.817
		c0.449-0.2,0.942-0.301,1.48-0.301c0.852,0,1.52,0.213,2.003,0.639c0.483,0.426,0.734,1.013,0.752,1.76v3.404
		c0,0.679,0.087,1.219,0.26,1.62v0.109h-1.326c-0.073-0.146-0.132-0.406-0.178-0.779C349.028,69.618,348.326,69.923,347.51,69.923
		 M348.604,66.197c-1.549,0-2.324,0.454-2.324,1.36c0,0.396,0.132,0.706,0.396,0.93c0.264,0.223,0.604,0.335,1.018,0.335
		c0.396,0,0.772-0.103,1.128-0.308c0.355-0.205,0.613-0.472,0.772-0.8v-1.518H348.604 M326.906,69.923
		c-1.003,0-1.818-0.329-2.447-0.988c-0.629-0.658-0.943-1.539-0.943-2.642v-0.232c0-0.734,0.14-1.389,0.421-1.965
		c0.28-0.576,0.672-1.028,1.176-1.354c0.504-0.326,1.049-0.489,1.637-0.489c0.962,0,1.709,0.317,2.242,0.95
		c0.533,0.634,0.8,1.54,0.8,2.721v0.526h-5.011c0.018,0.729,0.231,1.318,0.639,1.767s0.926,0.673,1.555,0.673
		c0.447,0,0.825-0.091,1.135-0.273c0.31-0.182,0.581-0.424,0.813-0.725l0.772,0.602C329.075,69.447,328.145,69.923,326.906,69.923
		 M326.748,63.292c-0.51,0-0.939,0.186-1.285,0.557c-0.346,0.371-0.561,0.892-0.643,1.562h3.705v-0.096
		c-0.036-0.643-0.21-1.14-0.52-1.494C327.696,63.469,327.277,63.292,326.748,63.292 M321.612,69.923
		c-0.565,0-0.991-0.171-1.278-0.513c-0.287-0.342-0.431-0.827-0.431-1.456v-4.587h-1.347V62.39h1.347v-1.791h1.265v1.791h1.381
		v0.977h-1.381v4.593c0,0.297,0.062,0.519,0.185,0.667c0.123,0.148,0.333,0.222,0.629,0.222c0.146,0,0.346-0.027,0.602-0.082v1.019
		C322.25,69.878,321.927,69.923,321.612,69.923 M311.464,69.923c-0.593,0-1.117-0.105-1.572-0.314
		c-0.456-0.21-0.812-0.502-1.07-0.878c-0.258-0.376-0.386-0.783-0.386-1.22h1.265c0.023,0.424,0.192,0.76,0.509,1.008
		c0.317,0.248,0.735,0.373,1.254,0.373c0.478,0,0.862-0.097,1.152-0.291s0.434-0.452,0.434-0.776c0-0.342-0.129-0.607-0.386-0.796
		c-0.258-0.189-0.706-0.352-1.347-0.489c-0.64-0.137-1.148-0.301-1.524-0.492c-0.376-0.191-0.654-0.419-0.834-0.684
		c-0.18-0.264-0.27-0.579-0.27-0.943c0-0.606,0.256-1.119,0.769-1.538c0.513-0.419,1.168-0.629,1.965-0.629
		c0.838,0,1.519,0.216,2.04,0.649c0.522,0.433,0.783,0.987,0.783,1.661h-1.271c0-0.346-0.147-0.645-0.441-0.895
		c-0.294-0.251-0.664-0.376-1.111-0.376c-0.46,0-0.82,0.1-1.08,0.301c-0.26,0.201-0.39,0.463-0.39,0.786
		c0,0.305,0.121,0.536,0.362,0.69c0.242,0.155,0.678,0.303,1.309,0.444c0.631,0.141,1.143,0.31,1.535,0.506
		c0.392,0.196,0.682,0.432,0.872,0.707c0.189,0.276,0.284,0.612,0.284,1.008c0,0.661-0.264,1.191-0.793,1.589
		C312.993,69.724,312.307,69.923,311.464,69.923 M300.063,69.923c-0.788,0-1.389-0.229-1.801-0.687
		c-0.412-0.458-0.621-1.136-0.625-2.034V62.39h1.265v4.778c0,1.121,0.456,1.682,1.367,1.682c0.966,0,1.609-0.36,1.928-1.08v-5.38
		h1.265v7.397h-1.203l-0.027-0.731C301.737,69.634,301.015,69.923,300.063,69.923 M285.214,69.923c-1.003,0-1.818-0.329-2.447-0.988
		c-0.629-0.658-0.943-1.539-0.943-2.642v-0.232c0-0.734,0.14-1.389,0.42-1.965c0.28-0.576,0.672-1.028,1.176-1.354
		c0.504-0.326,1.049-0.489,1.637-0.489c0.962,0,1.709,0.317,2.242,0.95c0.533,0.634,0.8,1.54,0.8,2.721v0.526h-5.011
		c0.018,0.729,0.231,1.318,0.639,1.767c0.408,0.449,0.926,0.673,1.555,0.673c0.447,0,0.825-0.091,1.135-0.273
		c0.31-0.182,0.581-0.424,0.813-0.725l0.772,0.602C287.384,69.447,286.454,69.923,285.214,69.923 M285.057,63.292
		c-0.51,0-0.939,0.186-1.285,0.557c-0.346,0.371-0.56,0.892-0.642,1.562h3.705v-0.096c-0.037-0.643-0.21-1.14-0.52-1.494
		C286.005,63.469,285.586,63.292,285.057,63.292 M249.511,69.923c-0.857,0-1.555-0.351-2.095-1.053
		c-0.54-0.702-0.81-1.618-0.81-2.748v-0.096c0-1.135,0.269-2.047,0.807-2.738c0.538-0.69,1.242-1.036,2.112-1.036
		c0.866,0,1.552,0.296,2.058,0.889v-3.855h1.265v10.5h-1.162l-0.062-0.793C251.117,69.613,250.413,69.923,249.511,69.923
		 M249.839,63.326c-0.62,0-1.103,0.239-1.449,0.718c-0.346,0.479-0.52,1.187-0.52,2.126c0,0.839,0.173,1.495,0.52,1.969
		c0.346,0.474,0.825,0.711,1.435,0.711c0.802,0,1.388-0.36,1.757-1.08v-3.397C251.204,63.675,250.623,63.326,249.839,63.326
		 M241.536,69.923c-0.789,0-1.389-0.229-1.801-0.687c-0.413-0.458-0.621-1.136-0.625-2.034V62.39h1.265v4.778
		c0,1.121,0.456,1.682,1.367,1.682c0.966,0,1.609-0.36,1.928-1.08v-5.38h1.265v7.397h-1.203l-0.027-0.731
		C243.211,69.634,242.488,69.923,241.536,69.923 M231.292,69.923c-1.007,0-1.808-0.336-2.403-1.008
		c-0.595-0.672-0.892-1.592-0.892-2.758v-0.212c0-0.72,0.132-1.36,0.396-1.921c0.264-0.56,0.644-0.996,1.138-1.306
		c0.494-0.31,1.079-0.465,1.753-0.465c0.829,0,1.519,0.248,2.068,0.745c0.549,0.497,0.842,1.141,0.878,1.934h-1.196
		c-0.036-0.478-0.218-0.871-0.543-1.179c-0.326-0.308-0.728-0.461-1.206-0.461c-0.643,0-1.141,0.231-1.494,0.694
		c-0.353,0.463-0.53,1.131-0.53,2.006v0.239c0,0.852,0.175,1.509,0.526,1.969c0.351,0.46,0.852,0.69,1.504,0.69
		c0.451,0,0.845-0.137,1.183-0.41c0.337-0.273,0.524-0.615,0.561-1.025h1.196c-0.023,0.424-0.169,0.827-0.438,1.21
		c-0.269,0.383-0.628,0.688-1.077,0.916C232.269,69.809,231.794,69.923,231.292,69.923 M206.12,69.923
		c-0.592,0-1.117-0.105-1.572-0.314c-0.456-0.21-0.812-0.502-1.07-0.878c-0.258-0.376-0.386-0.783-0.386-1.22h1.265
		c0.023,0.424,0.192,0.76,0.509,1.008c0.317,0.248,0.735,0.373,1.254,0.373c0.479,0,0.862-0.097,1.152-0.291
		c0.289-0.194,0.434-0.452,0.434-0.776c0-0.342-0.129-0.607-0.386-0.796c-0.258-0.189-0.707-0.352-1.347-0.489
		s-1.148-0.301-1.524-0.492c-0.376-0.191-0.654-0.419-0.834-0.684c-0.18-0.264-0.27-0.579-0.27-0.943
		c0-0.606,0.256-1.119,0.769-1.538c0.513-0.419,1.168-0.629,1.965-0.629c0.839,0,1.519,0.216,2.041,0.649
		c0.522,0.433,0.783,0.987,0.783,1.661h-1.271c0-0.346-0.147-0.645-0.441-0.895c-0.294-0.251-0.664-0.376-1.111-0.376
		c-0.46,0-0.82,0.1-1.08,0.301c-0.26,0.201-0.39,0.463-0.39,0.786c0,0.305,0.121,0.536,0.362,0.69
		c0.242,0.155,0.678,0.303,1.309,0.444c0.631,0.141,1.143,0.31,1.535,0.506c0.392,0.196,0.682,0.432,0.872,0.707
		c0.189,0.276,0.284,0.612,0.284,1.008c0,0.661-0.264,1.191-0.793,1.589C207.649,69.724,206.964,69.923,206.12,69.923
		 M201.006,69.923c-0.565,0-0.991-0.171-1.278-0.513c-0.287-0.342-0.431-0.827-0.431-1.456v-4.587h-1.347V62.39h1.347v-1.791h1.265
		v1.791h1.381v0.977h-1.381v4.593c0,0.297,0.062,0.519,0.185,0.667c0.123,0.148,0.333,0.222,0.629,0.222
		c0.146,0,0.346-0.027,0.602-0.082v1.019C201.644,69.878,201.321,69.923,201.006,69.923 M194.179,69.923
		c-0.593,0-1.117-0.105-1.572-0.314c-0.456-0.21-0.812-0.502-1.07-0.878c-0.258-0.376-0.386-0.783-0.386-1.22h1.265
		c0.023,0.424,0.193,0.76,0.509,1.008c0.317,0.248,0.735,0.373,1.254,0.373c0.479,0,0.862-0.097,1.152-0.291
		c0.289-0.194,0.434-0.452,0.434-0.776c0-0.342-0.129-0.607-0.386-0.796c-0.258-0.189-0.706-0.352-1.347-0.489
		c-0.64-0.137-1.148-0.301-1.524-0.492c-0.376-0.191-0.654-0.419-0.834-0.684c-0.18-0.264-0.27-0.579-0.27-0.943
		c0-0.606,0.256-1.119,0.769-1.538c0.513-0.419,1.168-0.629,1.965-0.629c0.838,0,1.519,0.216,2.04,0.649
		c0.522,0.433,0.783,0.987,0.783,1.661h-1.271c0-0.346-0.147-0.645-0.441-0.895c-0.294-0.251-0.664-0.376-1.111-0.376
		c-0.46,0-0.82,0.1-1.08,0.301c-0.26,0.201-0.39,0.463-0.39,0.786c0,0.305,0.121,0.536,0.362,0.69
		c0.241,0.155,0.678,0.303,1.309,0.444c0.631,0.141,1.143,0.31,1.535,0.506c0.392,0.196,0.682,0.432,0.871,0.707
		c0.189,0.276,0.284,0.612,0.284,1.008c0,0.661-0.264,1.191-0.793,1.589C195.708,69.724,195.022,69.923,194.179,69.923
		 M187.105,69.923c-1.003,0-1.818-0.329-2.447-0.988c-0.629-0.658-0.943-1.539-0.943-2.642v-0.232c0-0.734,0.14-1.389,0.42-1.965
		c0.28-0.576,0.672-1.028,1.176-1.354c0.504-0.326,1.049-0.489,1.637-0.489c0.961,0,1.709,0.317,2.242,0.95
		c0.533,0.634,0.8,1.54,0.8,2.721v0.526h-5.011c0.018,0.729,0.231,1.318,0.639,1.767c0.408,0.449,0.926,0.673,1.555,0.673
		c0.447,0,0.825-0.091,1.135-0.273c0.31-0.182,0.581-0.424,0.813-0.725l0.772,0.602C189.274,69.447,188.344,69.923,187.105,69.923
		 M186.948,63.292c-0.511,0-0.939,0.186-1.285,0.557c-0.346,0.371-0.561,0.892-0.643,1.562h3.705v-0.096
		c-0.037-0.643-0.21-1.14-0.52-1.494C187.895,63.469,187.476,63.292,186.948,63.292 M178.651,69.923
		c-0.789,0-1.389-0.229-1.801-0.687c-0.413-0.458-0.621-1.136-0.625-2.034V62.39h1.265v4.778c0,1.121,0.456,1.682,1.367,1.682
		c0.966,0,1.609-0.36,1.928-1.08v-5.38h1.265v7.397h-1.203l-0.027-0.731C180.326,69.634,179.604,69.923,178.651,69.923
		 M163.803,69.923c-1.003,0-1.818-0.329-2.447-0.988c-0.629-0.658-0.943-1.539-0.943-2.642v-0.232c0-0.734,0.14-1.389,0.42-1.965
		c0.28-0.576,0.672-1.028,1.176-1.354c0.504-0.326,1.049-0.489,1.637-0.489c0.961,0,1.709,0.317,2.242,0.95
		c0.533,0.634,0.8,1.54,0.8,2.721v0.526h-5.011c0.018,0.729,0.231,1.318,0.639,1.767c0.408,0.449,0.926,0.673,1.555,0.673
		c0.447,0,0.825-0.091,1.135-0.273c0.31-0.182,0.581-0.424,0.813-0.725l0.772,0.602C165.972,69.447,165.043,69.923,163.803,69.923
		 M163.646,63.292c-0.511,0-0.939,0.186-1.285,0.557c-0.346,0.371-0.561,0.892-0.643,1.562h3.705v-0.096
		c-0.037-0.643-0.21-1.14-0.519-1.494C164.593,63.469,164.174,63.292,163.646,63.292 M150.017,69.923
		c-0.565,0-0.991-0.171-1.278-0.513c-0.287-0.342-0.431-0.827-0.431-1.456v-4.587h-1.347V62.39h1.347v-1.791h1.265v1.791h1.381
		v0.977h-1.381v4.593c0,0.297,0.062,0.519,0.185,0.667s0.333,0.222,0.629,0.222c0.146,0,0.346-0.027,0.602-0.082v1.019
		C150.655,69.878,150.331,69.923,150.017,69.923 M135.567,69.923c-1.003,0-1.818-0.329-2.447-0.988
		c-0.629-0.658-0.943-1.539-0.943-2.642v-0.232c0-0.734,0.14-1.389,0.42-1.965c0.28-0.576,0.672-1.028,1.176-1.354
		c0.504-0.326,1.049-0.489,1.637-0.489c0.962,0,1.709,0.317,2.242,0.95c0.533,0.634,0.8,1.54,0.8,2.721v0.526h-5.011
		c0.018,0.729,0.231,1.318,0.639,1.767c0.408,0.449,0.926,0.673,1.555,0.673c0.447,0,0.825-0.091,1.135-0.273
		c0.31-0.182,0.581-0.424,0.813-0.725l0.772,0.602C137.736,69.447,136.807,69.923,135.567,69.923 M135.41,63.292
		c-0.51,0-0.939,0.186-1.285,0.557c-0.346,0.371-0.561,0.892-0.643,1.562h3.705v-0.096c-0.037-0.643-0.21-1.14-0.52-1.494
		C136.358,63.469,135.938,63.292,135.41,63.292 M111.806,69.923c-1.003,0-1.815-0.349-2.437-1.046
		c-0.622-0.697-0.933-1.62-0.933-2.769V66.02c0-0.725,0.142-1.376,0.427-1.955c0.285-0.579,0.681-1.025,1.189-1.34
		c0.508-0.314,1.088-0.472,1.74-0.472c1.007,0,1.822,0.349,2.444,1.046c0.622,0.697,0.933,1.625,0.933,2.782v0.089
		c0,0.72-0.138,1.366-0.414,1.938c-0.276,0.572-0.67,1.018-1.183,1.336C113.061,69.763,112.472,69.923,111.806,69.923
		 M111.793,63.292c-0.624,0-1.128,0.248-1.511,0.745c-0.383,0.497-0.574,1.208-0.574,2.133c0,0.82,0.19,1.479,0.571,1.976
		c0.38,0.497,0.89,0.745,1.528,0.745c0.643,0,1.153-0.252,1.531-0.755c0.378-0.503,0.567-1.209,0.567-2.116
		c0-0.811-0.193-1.469-0.578-1.972C112.942,63.544,112.431,63.292,111.793,63.292 M91.795,69.923c-1.003,0-1.818-0.329-2.447-0.988
		c-0.629-0.658-0.943-1.539-0.943-2.642v-0.232c0-0.734,0.14-1.389,0.42-1.965c0.28-0.576,0.672-1.028,1.176-1.354
		c0.503-0.326,1.049-0.489,1.637-0.489c0.962,0,1.709,0.317,2.242,0.95c0.533,0.634,0.8,1.54,0.8,2.721v0.526h-5.011
		c0.018,0.729,0.231,1.318,0.639,1.767c0.408,0.449,0.926,0.673,1.555,0.673c0.446,0,0.825-0.091,1.135-0.273
		c0.31-0.182,0.581-0.424,0.813-0.725l0.772,0.602C93.964,69.447,93.035,69.923,91.795,69.923 M91.638,63.292
		c-0.51,0-0.939,0.186-1.285,0.557c-0.346,0.371-0.561,0.892-0.643,1.562h3.705v-0.096c-0.036-0.643-0.21-1.14-0.52-1.494
		C92.586,63.469,92.166,63.292,91.638,63.292 M80.759,69.923c-1.007,0-1.808-0.336-2.403-1.008
		c-0.595-0.672-0.892-1.592-0.892-2.758v-0.212c0-0.72,0.132-1.36,0.396-1.921c0.264-0.56,0.644-0.996,1.138-1.306
		c0.494-0.31,1.079-0.465,1.753-0.465c0.829,0,1.519,0.248,2.068,0.745c0.549,0.497,0.842,1.141,0.878,1.934h-1.196
		c-0.037-0.478-0.218-0.871-0.543-1.179c-0.326-0.308-0.728-0.461-1.207-0.461c-0.643,0-1.14,0.231-1.494,0.694
		c-0.353,0.463-0.53,1.131-0.53,2.006v0.239c0,0.852,0.175,1.509,0.526,1.969c0.351,0.46,0.852,0.69,1.504,0.69
		c0.451,0,0.845-0.137,1.183-0.41c0.337-0.273,0.524-0.615,0.561-1.025h1.196c-0.023,0.424-0.169,0.827-0.437,1.21
		c-0.269,0.383-0.628,0.688-1.077,0.916C81.735,69.809,81.26,69.923,80.759,69.923 M61.987,69.923c-1.007,0-1.808-0.336-2.403-1.008
		c-0.595-0.672-0.892-1.592-0.892-2.758v-0.212c0-0.72,0.132-1.36,0.396-1.921c0.264-0.56,0.644-0.996,1.138-1.306
		c0.494-0.31,1.079-0.465,1.753-0.465c0.829,0,1.519,0.248,2.068,0.745c0.549,0.497,0.842,1.141,0.878,1.934H63.73
		c-0.037-0.478-0.218-0.871-0.543-1.179c-0.326-0.308-0.728-0.461-1.206-0.461c-0.643,0-1.141,0.231-1.494,0.694
		c-0.353,0.463-0.53,1.131-0.53,2.006v0.239c0,0.852,0.175,1.509,0.526,1.969c0.351,0.46,0.852,0.69,1.504,0.69
		c0.451,0,0.845-0.137,1.183-0.41c0.337-0.273,0.524-0.615,0.56-1.025h1.196c-0.023,0.424-0.169,0.827-0.437,1.21
		c-0.269,0.383-0.628,0.688-1.077,0.916C62.963,69.809,62.488,69.923,61.987,69.923 M54.554,69.923
		c-1.003,0-1.818-0.329-2.447-0.988c-0.629-0.658-0.943-1.539-0.943-2.642v-0.232c0-0.734,0.14-1.389,0.42-1.965
		c0.28-0.576,0.672-1.028,1.176-1.354c0.504-0.326,1.049-0.489,1.637-0.489c0.961,0,1.709,0.317,2.242,0.95
		c0.533,0.634,0.8,1.54,0.8,2.721v0.526h-5.011c0.018,0.729,0.231,1.318,0.639,1.767c0.408,0.449,0.926,0.673,1.555,0.673
		c0.447,0,0.825-0.091,1.135-0.273c0.31-0.182,0.581-0.424,0.813-0.725l0.772,0.602C56.723,69.447,55.793,69.923,54.554,69.923
		 M54.396,63.292c-0.511,0-0.939,0.186-1.285,0.557c-0.346,0.371-0.561,0.892-0.643,1.562h3.705v-0.096
		c-0.037-0.643-0.21-1.14-0.519-1.494C55.344,63.469,54.925,63.292,54.396,63.292 M39.018,69.923c-0.592,0-1.117-0.105-1.572-0.314
		c-0.456-0.21-0.812-0.502-1.07-0.878c-0.257-0.376-0.386-0.783-0.386-1.22h1.265c0.023,0.424,0.193,0.76,0.509,1.008
		c0.317,0.248,0.735,0.373,1.254,0.373c0.479,0,0.862-0.097,1.152-0.291c0.289-0.194,0.434-0.452,0.434-0.776
		c0-0.342-0.129-0.607-0.386-0.796c-0.258-0.189-0.706-0.352-1.347-0.489c-0.64-0.137-1.148-0.301-1.524-0.492
		c-0.376-0.191-0.654-0.419-0.834-0.684c-0.18-0.264-0.27-0.579-0.27-0.943c0-0.606,0.256-1.119,0.769-1.538
		c0.513-0.419,1.168-0.629,1.965-0.629c0.839,0,1.519,0.216,2.041,0.649c0.522,0.433,0.783,0.987,0.783,1.661h-1.271
		c0-0.346-0.147-0.645-0.441-0.895c-0.294-0.251-0.664-0.376-1.111-0.376c-0.46,0-0.82,0.1-1.08,0.301
		c-0.26,0.201-0.39,0.463-0.39,0.786c0,0.305,0.121,0.536,0.362,0.69c0.241,0.155,0.678,0.303,1.309,0.444
		c0.631,0.141,1.143,0.31,1.535,0.506c0.392,0.196,0.682,0.432,0.872,0.707c0.189,0.276,0.284,0.612,0.284,1.008
		c0,0.661-0.264,1.191-0.793,1.589C40.547,69.724,39.861,69.923,39.018,69.923 M22.955,69.923c-1.003,0-1.815-0.349-2.437-1.046
		c-0.622-0.697-0.933-1.62-0.933-2.769V66.02c0-0.725,0.142-1.376,0.427-1.955c0.285-0.579,0.681-1.025,1.189-1.34
		c0.508-0.314,1.088-0.472,1.74-0.472c1.007,0,1.822,0.349,2.444,1.046c0.622,0.697,0.933,1.625,0.933,2.782v0.089
		c0,0.72-0.138,1.366-0.414,1.938c-0.276,0.572-0.67,1.018-1.183,1.336C24.209,69.763,23.62,69.923,22.955,69.923 M22.941,63.292
		c-0.624,0-1.128,0.248-1.511,0.745s-0.574,1.208-0.574,2.133c0,0.82,0.19,1.479,0.571,1.976c0.38,0.497,0.89,0.745,1.528,0.745
		c0.643,0,1.153-0.252,1.531-0.755c0.378-0.503,0.567-1.209,0.567-2.116c0-0.811-0.193-1.469-0.578-1.972
		C24.091,63.544,23.579,63.292,22.941,63.292 M371.616,69.786h-1.265V62.39h1.23l0.02,0.854c0.415-0.661,1.003-0.991,1.764-0.991
		c0.246,0,0.433,0.032,0.561,0.096v1.176c-0.191-0.032-0.399-0.048-0.622-0.048c-0.83,0-1.392,0.353-1.688,1.059V69.786
		 M359.148,69.786h-0.964l-2.68-7.397h1.292l1.88,5.681l1.832-5.681h1.292L359.148,69.786 M354.176,69.786h-1.265V62.39h1.265
		V69.786 M341.941,69.786h-1.025l-1.798-5.606l-1.75,5.606h-1.025l-2.146-7.397h1.258l1.456,5.537l1.723-5.537h1.019l1.757,5.653
		l1.422-5.653h1.265L341.941,69.786 M317.308,69.786h-1.265V62.39h1.265V69.786 M306.773,69.786h-1.265V62.39h1.265V69.786
		 M278.711,69.786h-1.265V62.39h1.23l0.021,0.854c0.415-0.661,1.003-0.991,1.764-0.991c0.246,0,0.433,0.032,0.561,0.096v1.176
		c-0.191-0.032-0.399-0.048-0.622-0.048c-0.83,0-1.392,0.353-1.689,1.059V69.786 M264.039,69.786h-1.265v-4.895
		c-0.005-0.533-0.126-0.927-0.366-1.183c-0.239-0.255-0.612-0.383-1.118-0.383c-0.41,0-0.77,0.109-1.08,0.328
		c-0.31,0.219-0.551,0.506-0.724,0.861v5.271h-1.265V62.39h1.196l0.041,0.93c0.565-0.711,1.303-1.066,2.215-1.066
		c1.563,0,2.352,0.882,2.365,2.645V69.786 M256.181,69.786h-1.265V62.39h1.265V69.786 M237.098,69.786h-1.265v-10.5h1.265V69.786
		 M226.364,69.786h-1.265v-4.895c-0.005-0.533-0.126-0.927-0.366-1.183c-0.239-0.255-0.612-0.383-1.118-0.383
		c-0.41,0-0.77,0.109-1.08,0.328c-0.31,0.219-0.551,0.506-0.725,0.861v5.271h-1.265V62.39h1.196l0.041,0.93
		c0.565-0.711,1.303-1.066,2.215-1.066c1.563,0,2.352,0.882,2.365,2.645V69.786 M218.506,69.786h-1.265V62.39h1.265V69.786
		 M157.3,69.786h-1.265V62.39h1.23l0.021,0.854c0.415-0.661,1.002-0.991,1.764-0.991c0.246,0,0.433,0.032,0.561,0.096v1.176
		c-0.191-0.032-0.399-0.048-0.622-0.048c-0.83,0-1.392,0.353-1.688,1.059V69.786 M145.865,69.786h-1.265v-4.895
		c-0.005-0.533-0.126-0.927-0.366-1.183c-0.239-0.255-0.612-0.383-1.118-0.383c-0.41,0-0.77,0.109-1.08,0.328
		c-0.31,0.219-0.552,0.506-0.725,0.861v5.271h-1.265V62.39h1.196l0.041,0.93c0.565-0.711,1.303-1.066,2.215-1.066
		c1.563,0,2.352,0.882,2.365,2.645V69.786 M130.542,69.786h-1.265v-4.881c0-0.529-0.121-0.924-0.362-1.186s-0.647-0.393-1.217-0.393
		c-0.469,0-0.859,0.14-1.169,0.42c-0.31,0.28-0.49,0.657-0.54,1.131v4.908h-1.271v-4.847c0-1.075-0.526-1.613-1.579-1.613
		c-0.829,0-1.397,0.353-1.702,1.06v5.4h-1.265V62.39h1.196l0.034,0.82c0.542-0.638,1.274-0.957,2.194-0.957
		c1.035,0,1.739,0.396,2.112,1.189c0.246-0.355,0.566-0.643,0.96-0.861c0.394-0.219,0.86-0.328,1.398-0.328
		c1.622,0,2.447,0.859,2.475,2.577V69.786 M118.138,69.786h-1.265v-10.5h1.265V69.786 M105.324,69.786h-1.265V62.39h1.23
		l0.021,0.854c0.415-0.661,1.003-0.991,1.764-0.991c0.246,0,0.433,0.032,0.561,0.096v1.176c-0.191-0.032-0.399-0.048-0.622-0.048
		c-0.829,0-1.392,0.353-1.688,1.059V69.786 M102.093,69.786h-1.265v-4.895c-0.005-0.533-0.126-0.927-0.366-1.183
		c-0.239-0.255-0.612-0.383-1.118-0.383c-0.41,0-0.77,0.109-1.08,0.328c-0.31,0.219-0.551,0.506-0.725,0.861v5.271h-1.265V62.39
		h1.196l0.041,0.93c0.565-0.711,1.303-1.066,2.215-1.066c1.563,0,2.352,0.882,2.365,2.645V69.786 M75.636,69.786h-1.271V62.39h1.271
		V69.786 M71.637,69.786h-1.271v-6.419h-1.169V62.39h1.169v-0.629c0-0.825,0.236-1.467,0.707-1.928c0.472-0.46,1.138-0.69,2-0.69
		c0.51,0,1.155,0.139,1.934,0.417l-0.212,1.066c-0.57-0.228-1.112-0.342-1.627-0.342c-0.542,0-0.933,0.122-1.172,0.366
		c-0.239,0.244-0.359,0.61-0.359,1.097v0.643h1.511v0.977h-1.511V69.786 M67.783,69.786h-1.265V62.39h1.265V69.786 M29.219,69.786
		h-1.265V62.39h1.23l0.021,0.854c0.415-0.661,1.003-0.991,1.764-0.991c0.246,0,0.433,0.032,0.561,0.096v1.176
		c-0.191-0.032-0.399-0.048-0.622-0.048c-0.829,0-1.392,0.353-1.688,1.059V69.786 M13.783,69.786h-1.312v-9.953h6.166v1.073h-4.854
		v3.411h4.177v1.073h-4.177V69.786 M353.554,61.145c-0.246,0-0.432-0.068-0.557-0.205c-0.125-0.137-0.188-0.308-0.188-0.513
		c0-0.205,0.063-0.378,0.188-0.52c0.125-0.141,0.311-0.212,0.557-0.212c0.246,0,0.433,0.071,0.56,0.212
		c0.128,0.141,0.191,0.314,0.191,0.52c0,0.205-0.064,0.376-0.191,0.513C353.987,61.077,353.8,61.145,353.554,61.145 M316.686,61.145
		c-0.246,0-0.432-0.068-0.557-0.205c-0.125-0.137-0.188-0.308-0.188-0.513c0-0.205,0.063-0.378,0.188-0.52
		c0.125-0.141,0.311-0.212,0.557-0.212c0.246,0,0.433,0.071,0.561,0.212c0.128,0.141,0.191,0.314,0.191,0.52
		c0,0.205-0.064,0.376-0.191,0.513C317.119,61.077,316.932,61.145,316.686,61.145 M306.151,61.145c-0.246,0-0.432-0.068-0.557-0.205
		c-0.125-0.137-0.188-0.308-0.188-0.513c0-0.205,0.063-0.378,0.188-0.52c0.125-0.141,0.311-0.212,0.557-0.212
		c0.246,0,0.433,0.071,0.56,0.212c0.128,0.141,0.191,0.314,0.191,0.52c0,0.205-0.064,0.376-0.191,0.513
		C306.584,61.077,306.397,61.145,306.151,61.145 M255.559,61.145c-0.246,0-0.432-0.068-0.557-0.205
		c-0.125-0.137-0.188-0.308-0.188-0.513c0-0.205,0.063-0.378,0.188-0.52c0.125-0.141,0.311-0.212,0.557-0.212
		c0.246,0,0.433,0.071,0.561,0.212c0.128,0.141,0.191,0.314,0.191,0.52c0,0.205-0.064,0.376-0.191,0.513
		C255.992,61.077,255.805,61.145,255.559,61.145 M217.884,61.145c-0.246,0-0.432-0.068-0.557-0.205
		c-0.125-0.137-0.188-0.308-0.188-0.513c0-0.205,0.063-0.378,0.188-0.52c0.125-0.141,0.311-0.212,0.557-0.212
		c0.246,0,0.433,0.071,0.561,0.212c0.128,0.141,0.191,0.314,0.191,0.52c0,0.205-0.064,0.376-0.191,0.513
		C218.317,61.077,218.13,61.145,217.884,61.145 M67.161,61.145c-0.246,0-0.432-0.068-0.557-0.205
		c-0.125-0.137-0.188-0.308-0.188-0.513c0-0.205,0.063-0.378,0.188-0.52c0.125-0.141,0.311-0.212,0.557-0.212
		c0.246,0,0.433,0.071,0.561,0.212c0.127,0.141,0.191,0.314,0.191,0.52c0,0.205-0.064,0.376-0.191,0.513
		C67.593,61.077,67.407,61.145,67.161,61.145"/>
	<path fill="#0080FF" d="M420.708,69.786v-0.109c-0.173-0.401-0.26-0.941-0.26-1.62v-3.404c-0.018-0.747-0.269-1.334-0.752-1.76
		c-0.483-0.426-1.151-0.639-2.003-0.639c-0.538,0-1.031,0.1-1.48,0.301c-0.449,0.201-0.804,0.473-1.066,0.817
		c-0.262,0.344-0.393,0.701-0.393,1.07h1.271c0-0.324,0.153-0.599,0.458-0.827c0.305-0.228,0.684-0.342,1.135-0.342
		c0.515,0,0.905,0.131,1.169,0.393c0.264,0.262,0.396,0.614,0.396,1.056v0.581h-1.23c-1.062,0-1.886,0.213-2.471,0.639
		c-0.586,0.426-0.878,1.024-0.878,1.794c0,0.633,0.233,1.156,0.701,1.569c0.467,0.413,1.065,0.619,1.794,0.619
		c0.816,0,1.518-0.305,2.105-0.916c0.046,0.374,0.105,0.633,0.178,0.779H420.708z M416.264,68.487
		c-0.264-0.223-0.396-0.533-0.396-0.93c0-0.907,0.775-1.36,2.324-1.36h0.991v1.518c-0.16,0.328-0.417,0.595-0.772,0.8
		s-0.731,0.308-1.128,0.308C416.868,68.822,416.529,68.711,416.264,68.487z M422.454,62.39v7.396h1.265v-5.271
		c0.173-0.355,0.415-0.643,0.725-0.861c0.31-0.219,0.67-0.328,1.08-0.328c0.506,0,0.878,0.128,1.118,0.383
		c0.239,0.255,0.361,0.649,0.366,1.183v4.895h1.265v-4.888c-0.014-1.764-0.802-2.646-2.365-2.646c-0.912,0-1.65,0.355-2.215,1.066
		l-0.041-0.93H422.454z M433.45,66.108c0,1.148,0.311,2.071,0.933,2.769s1.434,1.046,2.437,1.046c0.665,0,1.254-0.159,1.767-0.479
		c0.513-0.319,0.907-0.764,1.183-1.336c0.276-0.572,0.414-1.218,0.414-1.938v-0.089c0-1.158-0.311-2.085-0.933-2.782
		s-1.437-1.046-2.444-1.046c-0.652,0-1.232,0.157-1.74,0.472c-0.508,0.314-0.905,0.761-1.189,1.34
		c-0.285,0.579-0.427,1.23-0.427,1.955V66.108z M435.295,64.037c0.383-0.497,0.886-0.745,1.511-0.745
		c0.638,0,1.15,0.252,1.535,0.755c0.385,0.504,0.578,1.161,0.578,1.972c0,0.907-0.189,1.612-0.567,2.116
		c-0.378,0.504-0.889,0.755-1.531,0.755c-0.638,0-1.147-0.248-1.528-0.745c-0.381-0.497-0.571-1.155-0.571-1.976
		C434.721,65.245,434.912,64.534,435.295,64.037z M441.819,62.39v7.396h1.265v-5.271c0.173-0.355,0.415-0.643,0.725-0.861
		c0.31-0.219,0.67-0.328,1.08-0.328c0.506,0,0.878,0.128,1.118,0.383c0.239,0.255,0.361,0.649,0.366,1.183v4.895h1.265v-4.888
		c-0.014-1.764-0.802-2.646-2.365-2.646c-0.912,0-1.65,0.355-2.215,1.066l-0.041-0.93H441.819z M450.919,59.286h-1.265v10.5h1.265
		V59.286z M454.276,62.39h-1.265v7.396h1.265V62.39z M453.097,60.94c0.125,0.137,0.311,0.205,0.557,0.205s0.433-0.068,0.561-0.205
		c0.128-0.137,0.191-0.308,0.191-0.513s-0.064-0.378-0.191-0.52c-0.128-0.141-0.314-0.212-0.561-0.212s-0.432,0.071-0.557,0.212
		c-0.125,0.141-0.188,0.314-0.188,0.52S452.972,60.804,453.097,60.94z M456.316,62.39v7.396h1.265v-5.271
		c0.173-0.355,0.415-0.643,0.725-0.861c0.31-0.219,0.67-0.328,1.08-0.328c0.506,0,0.878,0.128,1.118,0.383
		c0.239,0.255,0.361,0.649,0.366,1.183v4.895h1.265v-4.888c-0.014-1.764-0.802-2.646-2.365-2.646c-0.912,0-1.65,0.355-2.215,1.066
		l-0.041-0.93H456.316z M469.947,68.494l-0.772-0.602c-0.232,0.301-0.504,0.542-0.813,0.725c-0.31,0.182-0.688,0.273-1.135,0.273
		c-0.629,0-1.147-0.224-1.555-0.673c-0.408-0.449-0.621-1.038-0.639-1.767h5.011v-0.526c0-1.18-0.267-2.087-0.8-2.721
		c-0.533-0.633-1.281-0.95-2.242-0.95c-0.588,0-1.134,0.163-1.637,0.489c-0.504,0.326-0.896,0.777-1.176,1.354
		c-0.28,0.577-0.42,1.232-0.42,1.965v0.232c0,1.103,0.314,1.984,0.943,2.642c0.629,0.659,1.445,0.988,2.447,0.988
		C468.398,69.923,469.327,69.447,469.947,68.494z M468.259,63.822c0.31,0.353,0.483,0.851,0.52,1.494v0.096h-3.705
		c0.082-0.67,0.296-1.191,0.643-1.562c0.346-0.371,0.775-0.557,1.285-0.557C467.529,63.292,467.949,63.469,468.259,63.822z"/>
	<path fill="#0080FF" d="M12.303,78.277c-0.221,0.456-0.332,0.916-0.332,1.381v0.793h1.258v-0.93
		c0.014-0.67,0.232-1.294,0.656-1.873l-0.725-0.492C12.81,77.448,12.524,77.822,12.303,78.277z M20.051,80.39h-1.019l-1.723,5.537
		l-1.456-5.537h-1.258l2.146,7.396h1.025l1.75-5.605l1.798,5.605h1.025l2.153-7.396h-1.265l-1.422,5.653L20.051,80.39z
		 M31.464,86.494l-0.772-0.602c-0.232,0.301-0.504,0.542-0.813,0.725c-0.31,0.182-0.688,0.273-1.135,0.273
		c-0.629,0-1.147-0.224-1.555-0.673c-0.408-0.449-0.621-1.038-0.639-1.767h5.011v-0.526c0-1.18-0.267-2.087-0.8-2.721
		c-0.533-0.633-1.281-0.95-2.242-0.95c-0.588,0-1.134,0.163-1.637,0.489c-0.504,0.326-0.896,0.777-1.176,1.354
		c-0.28,0.577-0.42,1.232-0.42,1.965v0.232c0,1.103,0.314,1.984,0.943,2.642c0.629,0.659,1.445,0.988,2.447,0.988
		C29.915,87.923,30.844,87.447,31.464,86.494z M29.776,81.822c0.31,0.353,0.483,0.851,0.52,1.494v0.096H26.59
		c0.082-0.67,0.296-1.191,0.643-1.562c0.346-0.371,0.775-0.557,1.285-0.557C29.046,81.292,29.466,81.469,29.776,81.822z
		 M39.417,84.061c0-1.18-0.256-2.11-0.769-2.789c-0.513-0.679-1.218-1.019-2.116-1.019c-0.898,0-1.602,0.317-2.112,0.95v-3.917
		h-1.265v10.5h1.162l0.062-0.854c0.51,0.661,1.233,0.991,2.167,0.991c0.875,0,1.572-0.343,2.092-1.029
		c0.52-0.686,0.779-1.594,0.779-2.724V84.061z M37.647,86.146c-0.337,0.469-0.809,0.704-1.415,0.704
		c-0.82,0-1.424-0.387-1.812-1.162v-3.199c0.365-0.775,0.964-1.162,1.798-1.162c0.624,0,1.103,0.235,1.436,0.704
		c0.333,0.469,0.499,1.135,0.499,1.996C38.153,84.97,37.984,85.676,37.647,86.146z M42.789,87.786v-6.419h1.579V80.39h-1.579v-0.782
		c0-0.448,0.112-0.792,0.335-1.032c0.223-0.24,0.54-0.36,0.95-0.36c0.242,0,0.469,0.021,0.684,0.062l0.068-1.019
		c-0.287-0.077-0.577-0.115-0.868-0.115c-0.775,0-1.374,0.217-1.798,0.649c-0.424,0.433-0.636,1.046-0.636,1.839v0.759h-1.169v0.978
		h1.169v6.419H42.789z M45.243,84.108c0,1.148,0.311,2.071,0.933,2.769s1.434,1.046,2.437,1.046c0.665,0,1.254-0.159,1.767-0.479
		c0.513-0.319,0.907-0.764,1.183-1.336c0.276-0.572,0.414-1.218,0.414-1.938v-0.089c0-1.158-0.311-2.085-0.933-2.782
		s-1.437-1.046-2.444-1.046c-0.652,0-1.232,0.157-1.74,0.472c-0.508,0.314-0.905,0.761-1.189,1.34
		c-0.285,0.579-0.427,1.23-0.427,1.955V84.108z M47.089,82.037c0.383-0.497,0.886-0.745,1.511-0.745c0.638,0,1.15,0.252,1.535,0.755
		c0.385,0.504,0.578,1.161,0.578,1.972c0,0.907-0.189,1.612-0.567,2.116c-0.378,0.504-0.889,0.755-1.531,0.755
		c-0.638,0-1.147-0.248-1.528-0.745c-0.381-0.497-0.571-1.155-0.571-1.976C46.514,83.245,46.706,82.534,47.089,82.037z
		 M57.188,80.349c-0.128-0.064-0.314-0.096-0.561-0.096c-0.761,0-1.349,0.33-1.764,0.991l-0.021-0.854h-1.23v7.396h1.265v-5.25
		c0.296-0.706,0.859-1.06,1.688-1.06c0.223,0,0.431,0.016,0.622,0.048V80.349z M58.451,80.39v7.396h1.265v-5.4
		c0.305-0.706,0.873-1.06,1.702-1.06c1.053,0,1.579,0.538,1.579,1.613v4.847h1.271v-4.908c0.05-0.474,0.23-0.851,0.54-1.131
		c0.31-0.28,0.7-0.42,1.169-0.42c0.57,0,0.975,0.131,1.217,0.393c0.242,0.262,0.362,0.657,0.362,1.186v4.881h1.265V82.83
		c-0.027-1.718-0.852-2.577-2.475-2.577c-0.538,0-1.004,0.109-1.398,0.328c-0.394,0.219-0.714,0.506-0.96,0.861
		c-0.374-0.793-1.078-1.189-2.112-1.189c-0.921,0-1.652,0.319-2.194,0.957l-0.034-0.82H58.451z M71.513,79.539
		c0.221-0.453,0.334-0.908,0.338-1.364v-0.889H70.6v0.984c-0.014,0.656-0.232,1.281-0.656,1.873l0.718,0.492
		C71.008,80.358,71.292,79.992,71.513,79.539z"/>
	<path fill="#000000" d="M73.244,87.861c-0.26,0-0.455-0.071-0.584-0.212c-0.13-0.141-0.195-0.317-0.195-0.526
		c0-0.219,0.065-0.401,0.195-0.547c0.13-0.146,0.325-0.219,0.584-0.219c0.26,0,0.457,0.073,0.591,0.219
		c0.134,0.146,0.202,0.328,0.202,0.547c0,0.21-0.067,0.385-0.202,0.526C73.701,87.791,73.504,87.861,73.244,87.861"/>
</g>
</svg>
