<!-- Generator: Adobe InDesign 20.3 SVG Export Plug-in, SVG Library version: 9.3 build 254 -->
<!DOCTYPE svg PUBLIC "-//W3C//DTD SVG 1.1//EN" "http://www.w3.org/Graphics/SVG/1.1/DTD/svg11.dtd">
<svg version="1.1" xmlns="http://www.w3.org/2000/svg" xmlns:xlink="http://www.w3.org/1999/xlink" x="0%" y="0%" width="100%"
	 height="100%" viewBox="0 0 255.666 129.926" preserveAspectRatio="xMidYMid slice" overflow="visible" xml:space="preserve">
<clipPath id="clp_unq_id_1" fill="none">
	<path shape-rendering="crispEdges" stroke="#000000" d="M0,0h255.666v129.926H0V0"/>
</clipPath>
<g clip-path="url(#clp_unq_id_1)" fill="none">
	<g transform="matrix(1 0 0 1 9.8418 61.6738)">
		<path stroke="#0080FF" stroke-width="0.5859" stroke-miterlimit="10" d="M103.634,2h23.601"/>
	</g>
	<path fill="#000000" d="M220.859,16.234l-0.205-0.018l-0.404-0.076v-0.879l0.293,0.023c0.367,0,0.653-0.074,0.858-0.223
		c0.205-0.148,0.374-0.42,0.507-0.814l0.24-0.645l-2.262-6.27h1.184l1.582,4.752l1.477-4.752h1.16l-2.549,7.318
		C222.345,15.707,221.719,16.234,220.859,16.234 M209.46,13.791c-0.625,0-1.138-0.177-1.538-0.53
		c-0.4-0.353-0.601-0.802-0.601-1.345c0-0.66,0.251-1.173,0.753-1.538c0.502-0.365,1.208-0.548,2.118-0.548h1.055V9.332
		c0-0.379-0.113-0.681-0.34-0.905c-0.227-0.225-0.561-0.337-1.002-0.337c-0.387,0-0.711,0.098-0.973,0.293
		c-0.262,0.195-0.393,0.432-0.393,0.709h-1.09c0-0.316,0.112-0.622,0.337-0.917c0.225-0.295,0.529-0.528,0.914-0.7
		c0.385-0.172,0.808-0.258,1.269-0.258c0.73,0,1.303,0.183,1.717,0.548c0.414,0.365,0.629,0.868,0.645,1.509v2.918
		c0,0.582,0.074,1.045,0.223,1.389v0.094h-1.137c-0.062-0.125-0.113-0.348-0.152-0.668C210.76,13.529,210.159,13.791,209.46,13.791
		 M210.397,10.598c-1.328,0-1.992,0.389-1.992,1.166c0,0.34,0.113,0.606,0.34,0.797c0.227,0.191,0.518,0.287,0.873,0.287
		c0.34,0,0.662-0.088,0.967-0.264c0.305-0.176,0.525-0.404,0.662-0.686v-1.301H210.397 M189.668,13.791
		c-0.859,0-1.556-0.299-2.089-0.896c-0.533-0.598-0.8-1.389-0.8-2.373v-0.076c0-0.621,0.122-1.18,0.366-1.676
		c0.244-0.496,0.584-0.879,1.02-1.148c0.436-0.27,0.933-0.404,1.491-0.404c0.863,0,1.562,0.299,2.095,0.896
		c0.533,0.598,0.8,1.393,0.8,2.385v0.076c0,0.617-0.118,1.171-0.355,1.661c-0.236,0.49-0.574,0.872-1.014,1.146
		C190.743,13.654,190.238,13.791,189.668,13.791 M189.656,8.107c-0.535,0-0.967,0.213-1.295,0.639
		c-0.328,0.426-0.492,1.035-0.492,1.828c0,0.703,0.163,1.268,0.489,1.693c0.326,0.426,0.763,0.639,1.31,0.639
		c0.551,0,0.988-0.216,1.313-0.647c0.324-0.432,0.486-1.036,0.486-1.813c0-0.695-0.165-1.259-0.495-1.69
		C190.641,8.323,190.203,8.107,189.656,8.107 M183.231,13.791c-0.508,0-0.957-0.09-1.348-0.27c-0.391-0.18-0.696-0.431-0.917-0.753
		c-0.221-0.322-0.331-0.671-0.331-1.046h1.084c0.02,0.363,0.165,0.651,0.436,0.864c0.271,0.213,0.63,0.319,1.075,0.319
		c0.41,0,0.739-0.083,0.987-0.249c0.248-0.166,0.372-0.388,0.372-0.665c0-0.293-0.11-0.52-0.331-0.683
		c-0.221-0.162-0.606-0.302-1.154-0.419c-0.549-0.117-0.984-0.258-1.307-0.422c-0.322-0.164-0.561-0.359-0.715-0.586
		c-0.154-0.227-0.231-0.496-0.231-0.809c0-0.519,0.22-0.959,0.659-1.318c0.439-0.359,1.001-0.539,1.685-0.539
		c0.719,0,1.302,0.186,1.749,0.557c0.447,0.371,0.671,0.846,0.671,1.424h-1.09c0-0.297-0.126-0.553-0.378-0.768
		c-0.252-0.215-0.569-0.322-0.952-0.322c-0.395,0-0.703,0.086-0.926,0.258c-0.223,0.172-0.334,0.397-0.334,0.674
		c0,0.262,0.104,0.459,0.311,0.592c0.207,0.133,0.581,0.26,1.122,0.381c0.541,0.121,0.979,0.266,1.315,0.434
		c0.336,0.168,0.585,0.37,0.747,0.606c0.162,0.236,0.243,0.524,0.243,0.864c0,0.566-0.227,1.021-0.68,1.362
		C184.542,13.62,183.954,13.791,183.231,13.791 M174.082,13.791c-0.859,0-1.559-0.282-2.098-0.847
		c-0.539-0.564-0.809-1.319-0.809-2.265V10.48c0-0.629,0.12-1.19,0.36-1.685c0.24-0.494,0.576-0.881,1.008-1.16
		c0.432-0.279,0.899-0.419,1.403-0.419c0.824,0,1.465,0.272,1.922,0.815c0.457,0.543,0.686,1.32,0.686,2.332v0.451h-4.295
		c0.016,0.625,0.198,1.13,0.548,1.515c0.35,0.385,0.794,0.577,1.333,0.577c0.383,0,0.707-0.078,0.973-0.234
		c0.266-0.156,0.498-0.363,0.697-0.621l0.662,0.516C175.941,13.383,175.144,13.791,174.082,13.791 M173.947,8.107
		c-0.438,0-0.805,0.159-1.102,0.478c-0.297,0.318-0.48,0.765-0.551,1.339h3.176V9.842c-0.031-0.551-0.18-0.978-0.445-1.28
		C174.76,8.259,174.4,8.107,173.947,8.107 M162.813,13.791c-0.625,0-1.138-0.177-1.538-0.53c-0.4-0.353-0.601-0.802-0.601-1.345
		c0-0.66,0.251-1.173,0.753-1.538c0.502-0.365,1.208-0.548,2.118-0.548h1.055V9.332c0-0.379-0.113-0.681-0.34-0.905
		c-0.227-0.225-0.561-0.337-1.002-0.337c-0.387,0-0.711,0.098-0.973,0.293c-0.262,0.195-0.393,0.432-0.393,0.709h-1.09
		c0-0.316,0.112-0.622,0.337-0.917c0.225-0.295,0.529-0.528,0.914-0.7c0.385-0.172,0.808-0.258,1.269-0.258
		c0.73,0,1.303,0.183,1.717,0.548c0.414,0.365,0.629,0.868,0.645,1.509v2.918c0,0.582,0.074,1.045,0.223,1.389v0.094h-1.137
		c-0.063-0.125-0.113-0.348-0.152-0.668C164.114,13.529,163.512,13.791,162.813,13.791 M163.75,10.598
		c-1.328,0-1.992,0.389-1.992,1.166c0,0.34,0.113,0.606,0.34,0.797c0.226,0.191,0.518,0.287,0.873,0.287
		c0.34,0,0.662-0.088,0.967-0.264c0.305-0.176,0.525-0.404,0.662-0.686v-1.301H163.75 M154.039,13.791
		c-0.859,0-1.559-0.282-2.098-0.847c-0.539-0.564-0.809-1.319-0.809-2.265V10.48c0-0.629,0.12-1.19,0.36-1.685
		c0.24-0.494,0.576-0.881,1.008-1.16c0.432-0.279,0.899-0.419,1.403-0.419c0.824,0,1.465,0.272,1.922,0.815
		c0.457,0.543,0.686,1.32,0.686,2.332v0.451h-4.295c0.016,0.625,0.198,1.13,0.548,1.515c0.35,0.385,0.794,0.577,1.333,0.577
		c0.383,0,0.707-0.078,0.973-0.234c0.266-0.156,0.498-0.363,0.697-0.621l0.662,0.516C155.898,13.383,155.101,13.791,154.039,13.791
		 M153.904,8.107c-0.438,0-0.805,0.159-1.102,0.478c-0.297,0.318-0.48,0.765-0.551,1.339h3.176V9.842
		c-0.031-0.551-0.18-0.978-0.445-1.28C154.716,8.259,154.357,8.107,153.904,8.107 M143.521,13.791c-0.859,0-1.559-0.282-2.098-0.847
		c-0.539-0.564-0.809-1.319-0.809-2.265V10.48c0-0.629,0.12-1.19,0.36-1.685c0.24-0.494,0.576-0.881,1.008-1.16
		c0.432-0.279,0.899-0.419,1.403-0.419c0.824,0,1.465,0.272,1.922,0.815c0.457,0.543,0.686,1.32,0.686,2.332v0.451h-4.295
		c0.016,0.625,0.198,1.13,0.548,1.515c0.35,0.385,0.794,0.577,1.333,0.577c0.383,0,0.707-0.078,0.973-0.234
		c0.266-0.156,0.498-0.363,0.697-0.621l0.662,0.516C145.38,13.383,144.584,13.791,143.521,13.791 M143.386,8.107
		c-0.438,0-0.805,0.159-1.102,0.478c-0.297,0.318-0.48,0.765-0.551,1.339h3.176V9.842c-0.031-0.551-0.18-0.978-0.445-1.28
		C144.199,8.259,143.839,8.107,143.386,8.107 M132.183,13.791c-0.484,0-0.85-0.147-1.096-0.439
		c-0.246-0.293-0.369-0.709-0.369-1.248V8.172h-1.154V7.334h1.154V5.799h1.084v1.535h1.184v0.838h-1.184v3.937
		c0,0.254,0.053,0.445,0.158,0.572c0.105,0.127,0.285,0.191,0.539,0.191c0.125,0,0.297-0.023,0.516-0.07v0.874
		C132.729,13.752,132.452,13.791,132.183,13.791 M125.172,13.791c-0.484,0-0.85-0.147-1.096-0.439
		c-0.246-0.293-0.369-0.709-0.369-1.248V8.172h-1.154V7.334h1.154V5.799h1.084v1.535h1.184v0.838h-1.184v3.937
		c0,0.254,0.053,0.445,0.158,0.572c0.105,0.127,0.285,0.191,0.539,0.191c0.125,0,0.297-0.023,0.516-0.07v0.874
		C125.719,13.752,125.441,13.791,125.172,13.791 M118.712,13.791c-0.625,0-1.138-0.177-1.538-0.53
		c-0.4-0.353-0.601-0.802-0.601-1.345c0-0.66,0.251-1.173,0.753-1.538c0.502-0.365,1.208-0.548,2.118-0.548h1.055V9.332
		c0-0.379-0.113-0.681-0.34-0.905c-0.227-0.225-0.561-0.337-1.002-0.337c-0.387,0-0.711,0.098-0.973,0.293
		c-0.262,0.195-0.393,0.432-0.393,0.709h-1.09c0-0.316,0.112-0.622,0.337-0.917c0.225-0.295,0.529-0.528,0.914-0.7
		c0.385-0.172,0.808-0.258,1.269-0.258c0.73,0,1.303,0.183,1.717,0.548c0.414,0.365,0.629,0.868,0.645,1.509v2.918
		c0,0.582,0.074,1.045,0.223,1.389v0.094h-1.137c-0.063-0.125-0.113-0.348-0.152-0.668
		C120.012,13.529,119.411,13.791,118.712,13.791 M119.649,10.598c-1.328,0-1.992,0.389-1.992,1.166c0,0.34,0.113,0.606,0.34,0.797
		c0.227,0.191,0.518,0.287,0.873,0.287c0.34,0,0.662-0.088,0.967-0.264c0.305-0.176,0.525-0.404,0.662-0.686v-1.301H119.649
		 M108.114,13.791c-0.484,0-0.85-0.147-1.096-0.439c-0.246-0.293-0.369-0.709-0.369-1.248V8.172h-1.154V7.334h1.154V5.799h1.084
		v1.535h1.184v0.838h-1.184v3.937c0,0.254,0.053,0.445,0.158,0.572c0.105,0.127,0.285,0.191,0.539,0.191
		c0.125,0,0.297-0.023,0.516-0.07v0.874C108.661,13.752,108.384,13.791,108.114,13.791 M99.445,13.791
		c-0.859,0-1.559-0.282-2.098-0.847c-0.539-0.564-0.809-1.319-0.809-2.265V10.48c0-0.629,0.12-1.19,0.36-1.685
		c0.24-0.494,0.576-0.881,1.008-1.16c0.432-0.279,0.899-0.419,1.403-0.419c0.824,0,1.465,0.272,1.922,0.815
		c0.457,0.543,0.686,1.32,0.686,2.332v0.451h-4.295c0.016,0.625,0.198,1.13,0.548,1.515c0.35,0.385,0.794,0.577,1.333,0.577
		c0.383,0,0.707-0.078,0.973-0.234c0.266-0.156,0.498-0.363,0.697-0.621l0.662,0.516C101.305,13.383,100.508,13.791,99.445,13.791
		 M99.31,8.107c-0.438,0-0.805,0.159-1.102,0.478c-0.297,0.318-0.48,0.765-0.551,1.339h3.176V9.842
		c-0.031-0.551-0.18-0.978-0.445-1.28C100.123,8.259,99.764,8.107,99.31,8.107 M92.982,13.791c-0.859,0-1.559-0.282-2.098-0.847
		c-0.539-0.564-0.809-1.319-0.809-2.265V10.48c0-0.629,0.12-1.19,0.36-1.685c0.24-0.494,0.576-0.881,1.008-1.16
		c0.432-0.279,0.899-0.419,1.403-0.419c0.824,0,1.465,0.272,1.922,0.815c0.457,0.543,0.686,1.32,0.686,2.332v0.451H91.16
		c0.016,0.625,0.198,1.13,0.548,1.515c0.35,0.385,0.794,0.577,1.333,0.577c0.383,0,0.707-0.078,0.973-0.234
		c0.266-0.156,0.498-0.363,0.697-0.621l0.662,0.516C94.842,13.383,94.045,13.791,92.982,13.791 M92.847,8.107
		c-0.438,0-0.805,0.159-1.102,0.478c-0.297,0.318-0.48,0.765-0.551,1.339h3.176V9.842c-0.031-0.551-0.18-0.978-0.445-1.28
		C93.66,8.259,93.301,8.107,92.847,8.107 M86.51,13.791c-0.508,0-0.957-0.09-1.348-0.27c-0.391-0.18-0.696-0.431-0.917-0.753
		c-0.221-0.322-0.331-0.671-0.331-1.046h1.084c0.02,0.363,0.165,0.651,0.437,0.864c0.271,0.213,0.63,0.319,1.075,0.319
		c0.41,0,0.739-0.083,0.987-0.249c0.248-0.166,0.372-0.388,0.372-0.665c0-0.293-0.11-0.52-0.331-0.683
		c-0.221-0.162-0.606-0.302-1.154-0.419c-0.549-0.117-0.984-0.258-1.307-0.422c-0.322-0.164-0.561-0.359-0.715-0.586
		c-0.154-0.227-0.231-0.496-0.231-0.809c0-0.519,0.22-0.959,0.659-1.318c0.439-0.359,1.001-0.539,1.685-0.539
		c0.719,0,1.302,0.186,1.749,0.557c0.447,0.371,0.671,0.846,0.671,1.424h-1.09c0-0.297-0.126-0.553-0.378-0.768
		c-0.252-0.215-0.569-0.322-0.952-0.322c-0.395,0-0.703,0.086-0.926,0.258c-0.223,0.172-0.334,0.397-0.334,0.674
		c0,0.262,0.103,0.459,0.311,0.592c0.207,0.133,0.581,0.26,1.122,0.381c0.541,0.121,0.979,0.266,1.315,0.434
		c0.336,0.168,0.585,0.37,0.747,0.606c0.162,0.236,0.243,0.524,0.243,0.864c0,0.566-0.227,1.021-0.68,1.362
		C87.821,13.62,87.233,13.791,86.51,13.791 M70.171,13.791c-0.859,0-1.556-0.299-2.089-0.896c-0.533-0.598-0.8-1.389-0.8-2.373
		v-0.076c0-0.621,0.122-1.18,0.366-1.676c0.244-0.496,0.584-0.879,1.02-1.148c0.435-0.27,0.933-0.404,1.491-0.404
		c0.863,0,1.562,0.299,2.095,0.896c0.533,0.598,0.8,1.393,0.8,2.385v0.076c0,0.617-0.118,1.171-0.355,1.661
		c-0.236,0.49-0.574,0.872-1.014,1.146C71.247,13.654,70.742,13.791,70.171,13.791 M70.16,8.107c-0.535,0-0.967,0.213-1.295,0.639
		c-0.328,0.426-0.492,1.035-0.492,1.828c0,0.703,0.163,1.268,0.489,1.693c0.326,0.426,0.763,0.639,1.31,0.639
		c0.551,0,0.988-0.216,1.312-0.647c0.324-0.432,0.486-1.036,0.486-1.813c0-0.695-0.165-1.259-0.495-1.69
		C71.145,8.323,70.707,8.107,70.16,8.107 M63.268,13.791c-0.859,0-1.556-0.299-2.089-0.896c-0.533-0.598-0.8-1.389-0.8-2.373v-0.076
		c0-0.621,0.122-1.18,0.366-1.676c0.244-0.496,0.584-0.879,1.02-1.148c0.436-0.27,0.933-0.404,1.491-0.404
		c0.863,0,1.562,0.299,2.095,0.896c0.533,0.598,0.8,1.393,0.8,2.385v0.076c0,0.617-0.118,1.171-0.355,1.661
		c-0.236,0.49-0.574,0.872-1.014,1.146C64.343,13.654,63.838,13.791,63.268,13.791 M63.256,8.107c-0.535,0-0.967,0.213-1.295,0.639
		c-0.328,0.426-0.492,1.035-0.492,1.828c0,0.703,0.163,1.268,0.489,1.693c0.326,0.426,0.763,0.639,1.31,0.639
		c0.551,0,0.988-0.216,1.313-0.647c0.324-0.432,0.486-1.036,0.486-1.813c0-0.695-0.165-1.259-0.495-1.69
		C64.241,8.323,63.803,8.107,63.256,8.107 M56.831,13.791c-0.508,0-0.957-0.09-1.348-0.27c-0.391-0.18-0.696-0.431-0.917-0.753
		c-0.221-0.322-0.331-0.671-0.331-1.046h1.084c0.019,0.363,0.165,0.651,0.437,0.864c0.271,0.213,0.63,0.319,1.075,0.319
		c0.41,0,0.739-0.083,0.987-0.249c0.248-0.166,0.372-0.388,0.372-0.665c0-0.293-0.11-0.52-0.331-0.683
		c-0.221-0.162-0.606-0.302-1.154-0.419c-0.549-0.117-0.984-0.258-1.307-0.422c-0.322-0.164-0.561-0.359-0.715-0.586
		c-0.154-0.227-0.231-0.496-0.231-0.809c0-0.519,0.22-0.959,0.659-1.318c0.439-0.359,1.001-0.539,1.685-0.539
		c0.719,0,1.302,0.186,1.749,0.557c0.447,0.371,0.671,0.846,0.671,1.424h-1.09c0-0.297-0.126-0.553-0.378-0.768
		c-0.252-0.215-0.569-0.322-0.952-0.322c-0.395,0-0.703,0.086-0.926,0.258c-0.223,0.172-0.334,0.397-0.334,0.674
		c0,0.262,0.103,0.459,0.311,0.592c0.207,0.133,0.581,0.26,1.122,0.381c0.541,0.121,0.979,0.266,1.315,0.434
		c0.336,0.168,0.585,0.37,0.747,0.606c0.162,0.236,0.243,0.524,0.243,0.864c0,0.566-0.227,1.021-0.68,1.362
		C58.142,13.62,57.554,13.791,56.831,13.791 M26.059,13.791c-0.676,0-1.19-0.196-1.544-0.589c-0.354-0.393-0.532-0.974-0.536-1.743
		V7.334h1.084v4.096c0,0.961,0.391,1.441,1.172,1.441c0.828,0,1.379-0.308,1.652-0.926V7.334h1.084v6.34H27.94l-0.023-0.627
		C27.495,13.543,26.876,13.791,26.059,13.791 M19.715,13.791c-0.859,0-1.556-0.299-2.089-0.896c-0.533-0.598-0.8-1.389-0.8-2.373
		v-0.076c0-0.621,0.122-1.18,0.366-1.676c0.244-0.496,0.584-0.879,1.02-1.148c0.436-0.27,0.933-0.404,1.491-0.404
		c0.863,0,1.562,0.299,2.095,0.896c0.533,0.598,0.8,1.393,0.8,2.385v0.076c0,0.617-0.118,1.171-0.355,1.661
		c-0.236,0.49-0.574,0.872-1.014,1.146C20.79,13.654,20.285,13.791,19.715,13.791 M19.703,8.107c-0.535,0-0.967,0.213-1.295,0.639
		c-0.328,0.426-0.492,1.035-0.492,1.828c0,0.703,0.163,1.268,0.489,1.693c0.326,0.426,0.763,0.639,1.31,0.639
		c0.551,0,0.988-0.216,1.313-0.647c0.324-0.432,0.486-1.036,0.486-1.813c0-0.695-0.165-1.259-0.495-1.69
		C20.688,8.323,20.25,8.107,19.703,8.107 M219.048,13.674h-1.084V9.479c-0.004-0.457-0.108-0.795-0.313-1.014
		c-0.205-0.219-0.524-0.328-0.958-0.328c-0.352,0-0.66,0.094-0.926,0.281c-0.266,0.187-0.473,0.434-0.621,0.738v4.518h-1.084v-6.34
		h1.025l0.035,0.797c0.484-0.609,1.117-0.914,1.898-0.914c1.34,0,2.016,0.756,2.027,2.268V13.674 M205.884,13.674H204.8V9.49
		c0-0.453-0.104-0.792-0.311-1.017c-0.207-0.225-0.555-0.337-1.043-0.337c-0.402,0-0.736,0.12-1.002,0.36
		c-0.266,0.24-0.42,0.563-0.463,0.97v4.207h-1.09V9.52c0-0.922-0.451-1.383-1.354-1.383c-0.711,0-1.197,0.303-1.459,0.908v4.629
		h-1.084v-6.34h1.025l0.029,0.703c0.465-0.547,1.092-0.82,1.881-0.82c0.887,0,1.49,0.34,1.811,1.02
		c0.211-0.305,0.485-0.551,0.823-0.738c0.338-0.188,0.737-0.281,1.198-0.281c1.391,0,2.098,0.736,2.121,2.209V13.674
		 M168.499,13.674h-1.084v-6.34h1.055l0.018,0.732c0.355-0.566,0.859-0.85,1.512-0.85c0.211,0,0.371,0.027,0.48,0.082v1.008
		c-0.164-0.027-0.342-0.041-0.533-0.041c-0.711,0-1.193,0.303-1.447,0.908V13.674 M148.455,13.674h-1.084v-6.34h1.055l0.018,0.732
		c0.355-0.566,0.859-0.85,1.512-0.85c0.211,0,0.371,0.027,0.48,0.082v1.008c-0.164-0.027-0.342-0.041-0.533-0.041
		c-0.711,0-1.193,0.303-1.447,0.908V13.674 M139.211,13.674h-1.084V9.479c-0.004-0.457-0.108-0.795-0.313-1.014
		c-0.205-0.219-0.524-0.328-0.958-0.328c-0.352,0-0.66,0.094-0.926,0.281c-0.266,0.187-0.473,0.434-0.621,0.738v4.518h-1.084v-9
		h1.084v3.428c0.48-0.59,1.105-0.885,1.875-0.885c1.34,0,2.016,0.756,2.027,2.268V13.674 M115.142,13.674h-1.084V9.479
		c-0.004-0.457-0.108-0.795-0.313-1.014c-0.205-0.219-0.524-0.328-0.958-0.328c-0.352,0-0.66,0.094-0.926,0.281
		c-0.266,0.187-0.473,0.434-0.621,0.738v4.518h-1.084v-9h1.084v3.428c0.48-0.59,1.105-0.885,1.875-0.885
		c1.34,0,2.016,0.756,2.027,2.268V13.674 M79.453,13.674h-1.084V9.479c-0.004-0.457-0.108-0.795-0.313-1.014
		c-0.205-0.219-0.524-0.328-0.958-0.328c-0.352,0-0.66,0.094-0.926,0.281c-0.266,0.187-0.473,0.434-0.621,0.738v4.518h-1.084v-6.34
		h1.025l0.035,0.797c0.484-0.609,1.117-0.914,1.898-0.914c1.34,0,2.016,0.756,2.027,2.268V13.674 M49.674,13.674H48.59v-9h1.084
		V13.674 M46.794,13.674H45.71v-9h1.084V13.674 M43.903,13.674h-1.084v-6.34h1.084V13.674 M39.779,13.674H38.9l-1.541-4.805
		l-1.5,4.805H34.98l-1.84-6.34h1.078l1.248,4.746l1.477-4.746h0.873l1.506,4.846l1.219-4.846h1.084L39.779,13.674 M13.996,13.674
		h-1.125v-3.182L9.93,5.143h1.289l2.215,4.283l2.227-4.283h1.277l-2.941,5.35V13.674 M43.369,6.268c-0.211,0-0.37-0.059-0.478-0.176
		c-0.107-0.117-0.161-0.264-0.161-0.439c0-0.176,0.054-0.324,0.161-0.445c0.107-0.121,0.267-0.182,0.478-0.182
		c0.211,0,0.371,0.061,0.48,0.182c0.109,0.121,0.164,0.27,0.164,0.445c0,0.176-0.055,0.322-0.164,0.439
		C43.74,6.209,43.58,6.268,43.369,6.268"/>
	<path fill="#000000" d="M93.881,32.234l-0.205-0.018l-0.404-0.076v-0.879l0.293,0.023c0.367,0,0.653-0.074,0.858-0.223
		c0.205-0.148,0.374-0.42,0.507-0.814l0.24-0.645l-2.262-6.27h1.184l1.582,4.752l1.477-4.752h1.16l-2.549,7.318
		C95.368,31.707,94.741,32.234,93.881,32.234 M140.791,32.17c-0.457,0-0.904-0.098-1.342-0.293
		c-0.438-0.195-0.772-0.463-1.002-0.803l0.563-0.65c0.465,0.574,1.033,0.861,1.705,0.861c0.527,0,0.938-0.148,1.233-0.445
		c0.295-0.297,0.442-0.715,0.442-1.254v-0.545c-0.434,0.5-1.025,0.75-1.775,0.75c-0.742,0-1.343-0.299-1.802-0.896
		c-0.459-0.598-0.688-1.412-0.688-2.443c0-0.988,0.228-1.774,0.686-2.358s1.062-0.876,1.816-0.876c0.773,0,1.377,0.273,1.811,0.82
		l0.053-0.703h0.99v6.188c0,0.82-0.243,1.467-0.73,1.939C142.265,31.934,141.611,32.17,140.791,32.17 M140.896,24.137
		c-0.527,0-0.939,0.205-1.236,0.615c-0.297,0.41-0.445,1.018-0.445,1.822c0,0.715,0.146,1.276,0.439,1.685
		c0.293,0.408,0.703,0.612,1.23,0.612c0.684,0,1.186-0.311,1.506-0.932v-2.895C142.059,24.439,141.561,24.137,140.896,24.137
		 M219.445,29.791c-0.484,0-0.85-0.147-1.096-0.439s-0.369-0.709-0.369-1.248v-3.932h-1.154v-0.838h1.154v-1.535h1.084v1.535h1.184
		v0.838h-1.184v3.937c0,0.254,0.053,0.445,0.158,0.572c0.105,0.127,0.285,0.191,0.539,0.191c0.125,0,0.297-0.023,0.516-0.07v0.874
		C219.992,29.752,219.714,29.791,219.445,29.791 M197.921,29.791c-0.734,0-1.333-0.301-1.796-0.902
		c-0.463-0.602-0.694-1.387-0.694-2.356v-0.082c0-0.973,0.23-1.755,0.691-2.347c0.461-0.592,1.064-0.888,1.811-0.888
		c0.742,0,1.33,0.254,1.764,0.762v-3.305h1.084v9h-0.996l-0.053-0.68C199.298,29.525,198.695,29.791,197.921,29.791 M198.203,24.137
		c-0.531,0-0.945,0.205-1.242,0.615c-0.297,0.41-0.445,1.018-0.445,1.822c0,0.719,0.148,1.281,0.445,1.688
		c0.297,0.406,0.707,0.609,1.23,0.609c0.687,0,1.189-0.309,1.506-0.926v-2.912C199.372,24.436,198.874,24.137,198.203,24.137
		 M191.842,29.791c-0.859,0-1.559-0.282-2.098-0.847c-0.539-0.564-0.809-1.319-0.809-2.265V26.48c0-0.629,0.12-1.19,0.36-1.685
		c0.24-0.494,0.576-0.881,1.008-1.16c0.432-0.279,0.899-0.419,1.403-0.419c0.824,0,1.465,0.272,1.922,0.814
		c0.457,0.543,0.686,1.32,0.686,2.332v0.451h-4.295c0.016,0.625,0.198,1.13,0.548,1.515c0.35,0.385,0.794,0.577,1.333,0.577
		c0.383,0,0.707-0.078,0.973-0.234c0.266-0.156,0.498-0.363,0.697-0.621l0.662,0.516C193.702,29.383,192.905,29.791,191.842,29.791
		 M191.707,24.107c-0.438,0-0.805,0.159-1.102,0.478c-0.297,0.318-0.48,0.765-0.551,1.339h3.176v-0.082
		c-0.031-0.551-0.18-0.978-0.445-1.28C192.52,24.259,192.161,24.107,191.707,24.107 M176.361,29.791
		c-0.859,0-1.556-0.299-2.089-0.896c-0.533-0.598-0.8-1.389-0.8-2.373v-0.076c0-0.621,0.122-1.18,0.366-1.676
		c0.244-0.496,0.584-0.879,1.02-1.148c0.436-0.27,0.933-0.404,1.491-0.404c0.863,0,1.562,0.299,2.095,0.896
		c0.533,0.598,0.8,1.393,0.8,2.385v0.076c0,0.617-0.118,1.171-0.355,1.661c-0.236,0.49-0.574,0.872-1.014,1.146
		S176.931,29.791,176.361,29.791 M176.349,24.107c-0.535,0-0.967,0.213-1.295,0.639c-0.328,0.426-0.492,1.035-0.492,1.828
		c0,0.703,0.163,1.268,0.489,1.693c0.326,0.426,0.763,0.639,1.31,0.639c0.551,0,0.988-0.216,1.313-0.647
		c0.324-0.432,0.486-1.036,0.486-1.813c0-0.695-0.165-1.259-0.495-1.69C177.334,24.323,176.896,24.107,176.349,24.107
		 M153.533,29.791c-0.484,0-0.85-0.147-1.096-0.439s-0.369-0.709-0.369-1.248v-3.932h-1.154v-0.838h1.154v-1.535h1.084v1.535h1.184
		v0.838h-1.184v3.937c0,0.254,0.053,0.445,0.158,0.572c0.105,0.127,0.285,0.191,0.539,0.191c0.125,0,0.297-0.023,0.516-0.07v0.874
		C154.08,29.752,153.803,29.791,153.533,29.791 M147.819,29.791c-0.859,0-1.559-0.282-2.098-0.847
		c-0.539-0.564-0.809-1.319-0.809-2.265V26.48c0-0.629,0.12-1.19,0.36-1.685c0.24-0.494,0.576-0.881,1.008-1.16
		c0.432-0.279,0.899-0.419,1.403-0.419c0.824,0,1.465,0.272,1.922,0.814c0.457,0.543,0.686,1.32,0.686,2.332v0.451h-4.295
		c0.016,0.625,0.198,1.13,0.548,1.515c0.35,0.385,0.794,0.577,1.333,0.577c0.383,0,0.707-0.078,0.973-0.234
		c0.266-0.156,0.498-0.363,0.697-0.621l0.662,0.516C149.679,29.383,148.882,29.791,147.819,29.791 M147.685,24.107
		c-0.438,0-0.805,0.159-1.102,0.478c-0.297,0.318-0.48,0.765-0.551,1.339h3.176v-0.082c-0.031-0.551-0.18-0.978-0.445-1.28
		C148.497,24.259,148.138,24.107,147.685,24.107 M124.069,29.791c-0.625,0-1.138-0.177-1.538-0.53
		c-0.4-0.353-0.601-0.802-0.601-1.345c0-0.66,0.251-1.173,0.753-1.538c0.502-0.365,1.208-0.548,2.118-0.548h1.055v-0.498
		c0-0.379-0.113-0.681-0.34-0.905c-0.227-0.225-0.561-0.337-1.002-0.337c-0.387,0-0.711,0.098-0.973,0.293
		c-0.262,0.195-0.393,0.432-0.393,0.709h-1.09c0-0.316,0.112-0.622,0.337-0.917c0.225-0.295,0.529-0.528,0.914-0.7
		c0.385-0.172,0.808-0.258,1.269-0.258c0.73,0,1.303,0.183,1.717,0.548c0.414,0.365,0.629,0.868,0.645,1.509v2.918
		c0,0.582,0.074,1.045,0.223,1.389v0.094h-1.137c-0.063-0.125-0.113-0.348-0.152-0.668C125.37,29.529,124.769,29.791,124.069,29.791
		 M125.007,26.598c-1.328,0-1.992,0.389-1.992,1.166c0,0.34,0.113,0.606,0.34,0.797c0.227,0.191,0.518,0.287,0.873,0.287
		c0.34,0,0.662-0.088,0.967-0.264c0.305-0.176,0.525-0.404,0.662-0.686v-1.301H125.007 M118.297,29.791
		c-0.863,0-1.55-0.288-2.06-0.864c-0.51-0.576-0.765-1.364-0.765-2.364v-0.182c0-0.617,0.113-1.166,0.34-1.646
		c0.227-0.48,0.552-0.853,0.976-1.119c0.424-0.266,0.925-0.398,1.503-0.398c0.711,0,1.302,0.213,1.772,0.639
		c0.471,0.426,0.722,0.979,0.753,1.658h-1.025c-0.031-0.41-0.187-0.747-0.466-1.011c-0.279-0.264-0.624-0.395-1.034-0.395
		c-0.551,0-0.978,0.198-1.28,0.595c-0.303,0.396-0.454,0.97-0.454,1.72v0.205c0,0.731,0.15,1.293,0.451,1.688
		c0.301,0.395,0.73,0.592,1.289,0.592c0.387,0,0.725-0.117,1.014-0.352c0.289-0.234,0.449-0.527,0.48-0.879h1.025
		c-0.02,0.363-0.145,0.709-0.375,1.037c-0.231,0.328-0.538,0.59-0.923,0.785C119.134,29.693,118.727,29.791,118.297,29.791
		 M108.105,29.791c-0.676,0-1.19-0.196-1.544-0.589c-0.354-0.393-0.532-0.974-0.536-1.743v-4.125h1.084v4.096
		c0,0.961,0.391,1.441,1.172,1.441c0.828,0,1.379-0.309,1.652-0.926v-4.611h1.084v6.34h-1.031l-0.023-0.627
		C109.541,29.543,108.921,29.791,108.105,29.791 M101.761,29.791c-0.859,0-1.556-0.299-2.089-0.896
		c-0.533-0.598-0.8-1.389-0.8-2.373v-0.076c0-0.621,0.122-1.18,0.366-1.676c0.244-0.496,0.584-0.879,1.02-1.148
		c0.436-0.27,0.933-0.404,1.491-0.404c0.863,0,1.562,0.299,2.095,0.896c0.533,0.598,0.8,1.393,0.8,2.385v0.076
		c0,0.617-0.118,1.171-0.355,1.661c-0.236,0.49-0.574,0.872-1.014,1.146C102.836,29.654,102.331,29.791,101.761,29.791
		 M101.749,24.107c-0.535,0-0.967,0.213-1.295,0.639c-0.328,0.426-0.492,1.035-0.492,1.828c0,0.703,0.163,1.268,0.489,1.693
		c0.326,0.426,0.763,0.639,1.31,0.639c0.551,0,0.988-0.216,1.313-0.647c0.324-0.432,0.486-1.036,0.486-1.813
		c0-0.695-0.165-1.259-0.495-1.69C102.734,24.323,102.296,24.107,101.749,24.107 M88.441,29.791c-0.484,0-0.85-0.147-1.096-0.439
		s-0.369-0.709-0.369-1.248v-3.932h-1.154v-0.838h1.154v-1.535h1.084v1.535h1.184v0.838H88.06v3.937
		c0,0.254,0.053,0.445,0.158,0.572c0.105,0.127,0.285,0.191,0.539,0.191c0.125,0,0.297-0.023,0.516-0.07v0.874
		C88.988,29.752,88.711,29.791,88.441,29.791 M81.981,29.791c-0.625,0-1.138-0.177-1.538-0.53c-0.4-0.353-0.601-0.802-0.601-1.345
		c0-0.66,0.251-1.173,0.753-1.538c0.502-0.365,1.208-0.548,2.118-0.548h1.055v-0.498c0-0.379-0.113-0.681-0.34-0.905
		c-0.227-0.225-0.561-0.337-1.002-0.337c-0.387,0-0.711,0.098-0.973,0.293c-0.262,0.195-0.393,0.432-0.393,0.709h-1.09
		c0-0.316,0.112-0.622,0.337-0.917c0.225-0.295,0.529-0.528,0.914-0.7c0.385-0.172,0.808-0.258,1.269-0.258
		c0.73,0,1.303,0.183,1.717,0.548c0.414,0.365,0.629,0.868,0.645,1.509v2.918c0,0.582,0.074,1.045,0.223,1.389v0.094h-1.137
		c-0.063-0.125-0.113-0.348-0.152-0.668C83.282,29.529,82.68,29.791,81.981,29.791 M82.918,26.598c-1.328,0-1.992,0.389-1.992,1.166
		c0,0.34,0.113,0.606,0.34,0.797c0.227,0.191,0.518,0.287,0.873,0.287c0.34,0,0.662-0.088,0.967-0.264
		c0.305-0.176,0.525-0.404,0.662-0.686v-1.301H82.918 M71.383,29.791c-0.484,0-0.85-0.147-1.096-0.439
		c-0.246-0.293-0.369-0.709-0.369-1.248v-3.932h-1.154v-0.838h1.154v-1.535h1.084v1.535h1.184v0.838h-1.184v3.937
		c0,0.254,0.053,0.445,0.158,0.572c0.105,0.127,0.285,0.191,0.539,0.191c0.125,0,0.297-0.023,0.516-0.07v0.874
		C71.93,29.752,71.653,29.791,71.383,29.791 M62.586,29.791c-0.508,0-0.957-0.09-1.348-0.27c-0.391-0.18-0.696-0.431-0.917-0.753
		c-0.221-0.322-0.331-0.671-0.331-1.046h1.084c0.02,0.363,0.165,0.651,0.437,0.864c0.271,0.213,0.63,0.319,1.075,0.319
		c0.41,0,0.739-0.083,0.987-0.249c0.248-0.166,0.372-0.388,0.372-0.665c0-0.293-0.11-0.52-0.331-0.683
		c-0.221-0.162-0.606-0.302-1.154-0.419c-0.549-0.117-0.984-0.258-1.307-0.422c-0.322-0.164-0.561-0.359-0.715-0.586
		c-0.154-0.227-0.231-0.496-0.231-0.809c0-0.519,0.22-0.959,0.659-1.318c0.439-0.359,1.001-0.539,1.685-0.539
		c0.719,0,1.302,0.186,1.749,0.557c0.447,0.371,0.671,0.846,0.671,1.424h-1.09c0-0.297-0.126-0.553-0.378-0.768
		c-0.252-0.215-0.569-0.322-0.952-0.322c-0.395,0-0.703,0.086-0.926,0.258c-0.223,0.172-0.334,0.396-0.334,0.674
		c0,0.262,0.103,0.459,0.311,0.592c0.207,0.133,0.581,0.26,1.122,0.381c0.541,0.121,0.979,0.266,1.315,0.434
		c0.336,0.168,0.585,0.37,0.747,0.606c0.162,0.236,0.243,0.524,0.243,0.864c0,0.566-0.227,1.021-0.68,1.362
		C63.896,29.62,63.308,29.791,62.586,29.791 M58.194,29.791c-0.484,0-0.85-0.147-1.096-0.439c-0.246-0.293-0.369-0.709-0.369-1.248
		v-3.932h-1.154v-0.838h1.154v-1.535h1.084v1.535h1.184v0.838h-1.184v3.937c0,0.254,0.053,0.445,0.158,0.572
		c0.105,0.127,0.285,0.191,0.539,0.191c0.125,0,0.297-0.023,0.516-0.07v0.874C58.74,29.752,58.463,29.791,58.194,29.791
		 M45.789,29.791c-0.859,0-1.559-0.282-2.098-0.847c-0.539-0.564-0.809-1.319-0.809-2.265V26.48c0-0.629,0.12-1.19,0.36-1.685
		c0.24-0.494,0.576-0.881,1.008-1.16c0.432-0.279,0.899-0.419,1.403-0.419c0.824,0,1.465,0.272,1.922,0.814
		c0.457,0.543,0.686,1.32,0.686,2.332v0.451h-4.295c0.016,0.625,0.198,1.13,0.548,1.515c0.35,0.385,0.794,0.577,1.333,0.577
		c0.383,0,0.707-0.078,0.973-0.234c0.266-0.156,0.498-0.363,0.697-0.621l0.662,0.516C47.649,29.383,46.852,29.791,45.789,29.791
		 M45.654,24.107c-0.438,0-0.805,0.159-1.102,0.478c-0.297,0.318-0.48,0.765-0.551,1.339h3.176v-0.082
		c-0.031-0.551-0.18-0.978-0.445-1.28C46.467,24.259,46.108,24.107,45.654,24.107 M33.856,29.791c-0.859,0-1.559-0.282-2.098-0.847
		c-0.539-0.564-0.809-1.319-0.809-2.265V26.48c0-0.629,0.12-1.19,0.36-1.685c0.24-0.494,0.576-0.881,1.008-1.16
		c0.432-0.279,0.899-0.419,1.403-0.419c0.824,0,1.465,0.272,1.922,0.814c0.457,0.543,0.686,1.32,0.686,2.332v0.451h-4.295
		c0.016,0.625,0.198,1.13,0.548,1.515c0.35,0.385,0.794,0.577,1.333,0.577c0.383,0,0.707-0.078,0.973-0.234
		c0.266-0.156,0.498-0.363,0.697-0.621l0.662,0.516C35.715,29.383,34.918,29.791,33.856,29.791 M33.721,24.107
		c-0.438,0-0.805,0.159-1.102,0.478c-0.297,0.318-0.48,0.765-0.551,1.339h3.176v-0.082c-0.031-0.551-0.18-0.978-0.445-1.28
		C34.533,24.259,34.174,24.107,33.721,24.107 M16.892,29.791c-0.676,0-1.19-0.196-1.544-0.589c-0.354-0.393-0.532-0.974-0.536-1.743
		v-4.125h1.084v4.096c0,0.961,0.391,1.441,1.172,1.441c0.828,0,1.379-0.309,1.652-0.926v-4.611h1.084v6.34h-1.031l-0.023-0.627
		C18.328,29.543,17.708,29.791,16.892,29.791 M226.473,29.674h-1.084v-4.195c-0.004-0.457-0.108-0.795-0.313-1.014
		c-0.205-0.219-0.524-0.328-0.958-0.328c-0.352,0-0.66,0.094-0.926,0.281c-0.266,0.187-0.473,0.434-0.621,0.738v4.518h-1.084v-9
		h1.084v3.428c0.48-0.59,1.105-0.885,1.875-0.885c1.34,0,2.016,0.756,2.027,2.268V29.674 M215.747,29.674h-1.084v-6.34h1.084V29.674
		 M211.623,29.674h-0.879l-1.541-4.805l-1.5,4.805h-0.879l-1.84-6.34h1.078l1.248,4.746l1.477-4.746h0.873l1.506,4.846l1.219-4.846
		h1.084L211.623,29.674 M186.069,29.674h-0.826l-2.297-6.34h1.107l1.611,4.869l1.57-4.869h1.107L186.069,29.674 M181.799,29.674
		h-1.084v-9h1.084V29.674 M170.611,29.674h-0.826l-2.297-6.34h1.107l1.611,4.869l1.57-4.869h1.107L170.611,29.674 M166.615,29.674
		h-1.084v-4.195c-0.004-0.457-0.108-0.795-0.313-1.014c-0.205-0.219-0.524-0.328-0.958-0.328c-0.352,0-0.66,0.094-0.926,0.281
		c-0.266,0.187-0.473,0.434-0.621,0.738v4.518h-1.084v-6.34h1.025l0.035,0.797c0.484-0.609,1.117-0.914,1.898-0.914
		c1.34,0,2.016,0.756,2.027,2.268V29.674 M159.87,29.674h-1.084v-6.34h1.084V29.674 M133.657,29.674h-1.084v-4.195
		c-0.004-0.457-0.108-0.795-0.313-1.014c-0.205-0.219-0.524-0.328-0.958-0.328c-0.352,0-0.66,0.094-0.926,0.281
		c-0.266,0.187-0.473,0.434-0.621,0.738v4.518h-1.084v-6.34h1.025l0.035,0.797c0.484-0.609,1.117-0.914,1.898-0.914
		c1.34,0,2.016,0.756,2.027,2.268V29.674 M78.412,29.674h-1.084v-4.195c-0.004-0.457-0.108-0.795-0.313-1.014
		c-0.205-0.219-0.524-0.328-0.958-0.328c-0.352,0-0.66,0.094-0.926,0.281c-0.266,0.187-0.473,0.434-0.621,0.738v4.518h-1.084v-9
		h1.084v3.428c0.48-0.59,1.105-0.885,1.875-0.885c1.34,0,2.016,0.756,2.027,2.268V29.674 M54.626,29.674h-1.084v-4.195
		c-0.004-0.457-0.108-0.795-0.313-1.014c-0.205-0.219-0.524-0.328-0.958-0.328c-0.352,0-0.66,0.094-0.926,0.281
		c-0.266,0.187-0.473,0.434-0.621,0.738v4.518h-1.084v-6.34h1.025l0.035,0.797c0.484-0.609,1.117-0.914,1.898-0.914
		c1.34,0,2.016,0.756,2.027,2.268V29.674 M40.016,29.674H39.19l-2.297-6.34H38l1.611,4.869l1.57-4.869h1.107L40.016,29.674
		 M26.499,29.674h-1.084v-4.195c-0.004-0.457-0.108-0.795-0.313-1.014c-0.205-0.219-0.524-0.328-0.958-0.328
		c-0.352,0-0.66,0.094-0.926,0.281c-0.266,0.187-0.473,0.434-0.621,0.738v4.518h-1.084v-6.34h1.025l0.035,0.797
		c0.484-0.609,1.117-0.914,1.898-0.914c1.34,0,2.016,0.756,2.027,2.268V29.674 M12.279,29.674h-1.084v-5.502h-1.002v-0.838h1.002
		v-0.65c0-0.68,0.182-1.205,0.545-1.576c0.363-0.371,0.877-0.557,1.541-0.557c0.25,0,0.498,0.033,0.744,0.099l-0.059,0.874
		c-0.184-0.035-0.379-0.053-0.586-0.053c-0.352,0-0.623,0.103-0.814,0.309c-0.191,0.206-0.287,0.501-0.287,0.885v0.67h1.354v0.838
		h-1.354V29.674 M215.214,22.268c-0.211,0-0.37-0.059-0.478-0.176c-0.107-0.117-0.161-0.264-0.161-0.439
		c0-0.176,0.054-0.324,0.161-0.445c0.107-0.121,0.267-0.182,0.478-0.182c0.211,0,0.371,0.061,0.48,0.182
		c0.109,0.121,0.164,0.27,0.164,0.445c0,0.176-0.055,0.322-0.164,0.439C215.585,22.209,215.425,22.268,215.214,22.268
		 M159.337,22.268c-0.211,0-0.37-0.059-0.478-0.176c-0.108-0.117-0.161-0.264-0.161-0.439c0-0.176,0.054-0.324,0.161-0.445
		c0.107-0.121,0.267-0.182,0.478-0.182s0.371,0.061,0.48,0.182c0.109,0.121,0.164,0.27,0.164,0.445c0,0.176-0.055,0.322-0.164,0.439
		C159.708,22.209,159.548,22.268,159.337,22.268"/>
	<path fill="#000000" d="M229.671,45.791c-0.859,0-1.559-0.282-2.098-0.847c-0.539-0.564-0.809-1.319-0.809-2.265V42.48
		c0-0.629,0.12-1.19,0.36-1.685c0.24-0.494,0.576-0.881,1.008-1.16c0.432-0.279,0.899-0.419,1.403-0.419
		c0.824,0,1.465,0.272,1.922,0.814c0.457,0.543,0.686,1.32,0.686,2.332v0.451h-4.295c0.016,0.625,0.198,1.13,0.548,1.515
		c0.35,0.385,0.794,0.577,1.333,0.577c0.383,0,0.707-0.078,0.973-0.234c0.266-0.156,0.498-0.363,0.697-0.621l0.662,0.516
		C231.531,45.383,230.734,45.791,229.671,45.791 M229.537,40.107c-0.438,0-0.805,0.159-1.102,0.478
		c-0.297,0.318-0.48,0.765-0.551,1.339h3.176v-0.082c-0.031-0.551-0.18-0.978-0.445-1.28
		C230.349,40.259,229.99,40.107,229.537,40.107 M218.333,45.791c-0.484,0-0.85-0.147-1.096-0.439
		c-0.246-0.293-0.369-0.709-0.369-1.248v-3.932h-1.154v-0.838h1.154v-1.535h1.084v1.535h1.184v0.838h-1.184v3.937
		c0,0.254,0.053,0.445,0.158,0.572c0.105,0.127,0.285,0.191,0.539,0.191c0.125,0,0.297-0.023,0.516-0.07v0.874
		C218.88,45.752,218.602,45.791,218.333,45.791 M203.051,45.791c-0.625,0-1.138-0.177-1.538-0.53
		c-0.4-0.353-0.601-0.802-0.601-1.345c0-0.66,0.251-1.173,0.753-1.538c0.502-0.365,1.208-0.548,2.118-0.548h1.055v-0.498
		c0-0.379-0.113-0.681-0.34-0.905c-0.227-0.225-0.561-0.337-1.002-0.337c-0.387,0-0.711,0.098-0.973,0.293
		c-0.262,0.195-0.393,0.432-0.393,0.709h-1.09c0-0.316,0.112-0.622,0.337-0.917c0.225-0.295,0.529-0.528,0.914-0.7
		c0.385-0.172,0.808-0.258,1.269-0.258c0.73,0,1.303,0.183,1.717,0.548c0.414,0.365,0.629,0.868,0.645,1.509v2.918
		c0,0.582,0.074,1.045,0.223,1.389v0.094h-1.137c-0.063-0.125-0.113-0.348-0.152-0.668C204.352,45.529,203.75,45.791,203.051,45.791
		 M203.989,42.598c-1.328,0-1.992,0.389-1.992,1.166c0,0.34,0.113,0.606,0.34,0.797c0.227,0.191,0.518,0.287,0.873,0.287
		c0.34,0,0.662-0.088,0.967-0.264c0.305-0.176,0.525-0.404,0.662-0.686v-1.301H203.989 M193.761,45.791
		c-0.859,0-1.556-0.299-2.089-0.896c-0.533-0.598-0.8-1.389-0.8-2.373v-0.076c0-0.621,0.122-1.18,0.366-1.676
		c0.244-0.496,0.584-0.879,1.02-1.148c0.435-0.27,0.933-0.404,1.491-0.404c0.863,0,1.561,0.299,2.095,0.896s0.8,1.393,0.8,2.385
		v0.076c0,0.617-0.118,1.171-0.354,1.661c-0.236,0.49-0.574,0.872-1.014,1.146C194.837,45.654,194.332,45.791,193.761,45.791
		 M193.75,40.107c-0.535,0-0.967,0.213-1.295,0.639c-0.328,0.426-0.492,1.035-0.492,1.828c0,0.703,0.163,1.268,0.489,1.693
		c0.326,0.426,0.763,0.639,1.31,0.639c0.551,0,0.988-0.216,1.312-0.647c0.324-0.432,0.486-1.036,0.486-1.813
		c0-0.695-0.165-1.259-0.495-1.69C194.735,40.323,194.296,40.107,193.75,40.107 M189.256,45.791c-0.484,0-0.85-0.147-1.096-0.439
		c-0.246-0.293-0.369-0.709-0.369-1.248v-3.932h-1.154v-0.838h1.154v-1.535h1.084v1.535h1.184v0.838h-1.184v3.937
		c0,0.254,0.053,0.445,0.158,0.572c0.105,0.127,0.285,0.191,0.539,0.191c0.125,0,0.297-0.023,0.516-0.07v0.874
		C189.803,45.752,189.525,45.791,189.256,45.791 M180.458,45.791c-0.508,0-0.957-0.09-1.348-0.27
		c-0.391-0.18-0.696-0.431-0.917-0.753c-0.221-0.322-0.331-0.671-0.331-1.046h1.084c0.02,0.363,0.165,0.651,0.437,0.864
		c0.271,0.213,0.63,0.319,1.075,0.319c0.41,0,0.739-0.083,0.987-0.249c0.248-0.166,0.372-0.388,0.372-0.665
		c0-0.293-0.11-0.52-0.331-0.683c-0.221-0.162-0.606-0.302-1.154-0.419c-0.549-0.117-0.984-0.258-1.307-0.422
		c-0.322-0.164-0.561-0.359-0.715-0.586c-0.154-0.226-0.231-0.496-0.231-0.809c0-0.519,0.22-0.959,0.659-1.318
		s1.001-0.539,1.685-0.539c0.719,0,1.302,0.186,1.749,0.557c0.447,0.371,0.671,0.846,0.671,1.424h-1.09
		c0-0.297-0.126-0.553-0.378-0.768c-0.252-0.215-0.569-0.322-0.952-0.322c-0.395,0-0.703,0.086-0.926,0.258
		c-0.223,0.172-0.334,0.397-0.334,0.674c0,0.262,0.104,0.459,0.311,0.592c0.207,0.133,0.581,0.26,1.122,0.381
		c0.541,0.121,0.979,0.266,1.315,0.434c0.336,0.168,0.585,0.37,0.747,0.606c0.162,0.236,0.243,0.524,0.243,0.864
		c0,0.566-0.227,1.021-0.68,1.362C181.769,45.62,181.181,45.791,180.458,45.791 M152.008,45.791c-0.734,0-1.333-0.301-1.796-0.902
		c-0.463-0.602-0.694-1.387-0.694-2.356v-0.082c0-0.973,0.23-1.755,0.691-2.347c0.461-0.592,1.064-0.888,1.811-0.888
		c0.742,0,1.33,0.254,1.764,0.762v-3.305h1.084v9h-0.996l-0.053-0.68C153.385,45.525,152.781,45.791,152.008,45.791 M152.289,40.137
		c-0.531,0-0.945,0.205-1.242,0.615c-0.297,0.41-0.445,1.018-0.445,1.822c0,0.719,0.148,1.281,0.445,1.688
		c0.297,0.406,0.707,0.609,1.23,0.609c0.687,0,1.189-0.309,1.506-0.926v-2.912C153.459,40.436,152.961,40.137,152.289,40.137
		 M122.073,45.791c-0.625,0-1.138-0.177-1.538-0.53c-0.4-0.353-0.601-0.802-0.601-1.345c0-0.66,0.251-1.173,0.753-1.538
		c0.502-0.365,1.208-0.548,2.118-0.548h1.055v-0.498c0-0.379-0.113-0.681-0.34-0.905c-0.227-0.225-0.561-0.337-1.002-0.337
		c-0.387,0-0.711,0.098-0.973,0.293c-0.262,0.195-0.393,0.432-0.393,0.709h-1.09c0-0.316,0.112-0.622,0.337-0.917
		c0.225-0.295,0.529-0.528,0.914-0.7c0.385-0.172,0.808-0.258,1.269-0.258c0.73,0,1.303,0.183,1.717,0.548
		c0.414,0.365,0.629,0.868,0.645,1.509v2.918c0,0.582,0.074,1.045,0.223,1.389v0.094h-1.137c-0.063-0.125-0.113-0.348-0.152-0.668
		C123.373,45.529,122.772,45.791,122.073,45.791 M123.01,42.598c-1.328,0-1.992,0.389-1.992,1.166c0,0.34,0.113,0.606,0.34,0.797
		c0.227,0.191,0.518,0.287,0.873,0.287c0.34,0,0.662-0.088,0.967-0.264c0.305-0.176,0.525-0.404,0.662-0.686v-1.301H123.01
		 M116.301,45.791c-0.863,0-1.55-0.288-2.06-0.864c-0.51-0.576-0.765-1.364-0.765-2.364v-0.182c0-0.617,0.113-1.166,0.34-1.646
		c0.227-0.48,0.552-0.853,0.976-1.119c0.424-0.266,0.925-0.398,1.503-0.398c0.711,0,1.302,0.213,1.773,0.639
		c0.471,0.426,0.722,0.978,0.753,1.658h-1.025c-0.031-0.41-0.187-0.747-0.466-1.011c-0.279-0.264-0.624-0.396-1.034-0.396
		c-0.551,0-0.978,0.198-1.28,0.595c-0.303,0.397-0.454,0.97-0.454,1.72v0.205c0,0.731,0.15,1.293,0.451,1.688
		c0.301,0.395,0.73,0.592,1.289,0.592c0.387,0,0.725-0.117,1.014-0.352c0.289-0.234,0.449-0.527,0.48-0.879h1.025
		c-0.02,0.363-0.145,0.709-0.375,1.037c-0.231,0.328-0.538,0.59-0.923,0.785C117.137,45.693,116.73,45.791,116.301,45.791
		 M106.108,45.791c-0.676,0-1.19-0.196-1.544-0.589c-0.354-0.393-0.532-0.974-0.536-1.743v-4.125h1.084v4.096
		c0,0.961,0.391,1.441,1.172,1.441c0.828,0,1.379-0.309,1.652-0.926v-4.611h1.084v6.34h-1.031l-0.023-0.627
		C107.544,45.543,106.925,45.791,106.108,45.791 M99.764,45.791c-0.859,0-1.556-0.299-2.089-0.896s-0.8-1.389-0.8-2.373v-0.076
		c0-0.621,0.122-1.18,0.366-1.676c0.244-0.496,0.584-0.879,1.02-1.148c0.435-0.27,0.933-0.404,1.491-0.404
		c0.863,0,1.561,0.299,2.095,0.896c0.533,0.598,0.8,1.393,0.8,2.385v0.076c0,0.617-0.118,1.171-0.354,1.661
		c-0.236,0.49-0.574,0.872-1.014,1.146S100.334,45.791,99.764,45.791 M99.752,40.107c-0.535,0-0.967,0.213-1.295,0.639
		c-0.328,0.426-0.492,1.035-0.492,1.828c0,0.703,0.163,1.268,0.489,1.693c0.326,0.426,0.763,0.639,1.31,0.639
		c0.551,0,0.988-0.216,1.312-0.647c0.324-0.432,0.486-1.036,0.486-1.813c0-0.695-0.165-1.259-0.495-1.69
		C100.737,40.323,100.299,40.107,99.752,40.107 M69.399,45.791c-0.586,0-1.133-0.112-1.641-0.337
		c-0.508-0.225-0.899-0.532-1.175-0.923c-0.275-0.391-0.413-0.834-0.413-1.33h1.131c0,0.516,0.19,0.923,0.571,1.222
		c0.381,0.299,0.89,0.448,1.526,0.448c0.594,0,1.049-0.121,1.365-0.363c0.316-0.242,0.475-0.572,0.475-0.99
		c0-0.418-0.146-0.741-0.439-0.97c-0.293-0.228-0.824-0.454-1.594-0.677c-0.965-0.277-1.667-0.618-2.106-1.022
		c-0.439-0.404-0.659-0.903-0.659-1.497c0-0.672,0.269-1.228,0.806-1.667c0.537-0.439,1.235-0.659,2.095-0.659
		c0.586,0,1.108,0.113,1.567,0.34c0.459,0.227,0.815,0.539,1.066,0.938c0.252,0.398,0.378,0.834,0.378,1.307h-1.131
		c0-0.517-0.164-0.924-0.492-1.22c-0.328-0.296-0.791-0.444-1.389-0.444c-0.555,0-0.987,0.122-1.298,0.367
		c-0.311,0.245-0.466,0.584-0.466,1.018c0,0.348,0.147,0.643,0.442,0.884c0.295,0.241,0.797,0.461,1.506,0.66
		c0.709,0.2,1.264,0.419,1.664,0.66c0.4,0.24,0.697,0.521,0.891,0.841c0.193,0.32,0.29,0.697,0.29,1.131
		c0,0.691-0.27,1.245-0.809,1.661C71.022,45.583,70.302,45.791,69.399,45.791 M53.027,45.791c-0.934,0-1.678-0.252-2.232-0.756
		c-0.555-0.504-0.836-1.197-0.844-2.08v-5.813h1.113v5.777c0,0.617,0.17,1.097,0.51,1.438c0.34,0.342,0.824,0.513,1.453,0.513
		c0.637,0,1.124-0.17,1.462-0.51c0.338-0.34,0.507-0.818,0.507-1.436v-5.783h1.131v5.801c-0.004,0.805-0.257,1.463-0.759,1.975
		c-0.502,0.512-1.183,0.799-2.042,0.861L53.027,45.791 M43.005,45.791c-0.508,0-0.957-0.09-1.348-0.27
		c-0.391-0.18-0.696-0.431-0.917-0.753c-0.221-0.322-0.331-0.671-0.331-1.046h1.084c0.019,0.363,0.165,0.651,0.437,0.864
		c0.271,0.213,0.63,0.319,1.075,0.319c0.41,0,0.739-0.083,0.987-0.249c0.248-0.166,0.372-0.388,0.372-0.665
		c0-0.293-0.11-0.52-0.331-0.683c-0.221-0.162-0.606-0.302-1.154-0.419c-0.549-0.117-0.984-0.258-1.307-0.422
		c-0.322-0.164-0.561-0.359-0.715-0.586c-0.154-0.226-0.231-0.496-0.231-0.809c0-0.519,0.22-0.959,0.659-1.318
		c0.439-0.359,1.001-0.539,1.685-0.539c0.719,0,1.302,0.186,1.749,0.557c0.447,0.371,0.671,0.846,0.671,1.424H44.3
		c0-0.297-0.126-0.553-0.378-0.768c-0.252-0.215-0.569-0.322-0.952-0.322c-0.395,0-0.703,0.086-0.926,0.258
		c-0.223,0.172-0.334,0.397-0.334,0.674c0,0.262,0.103,0.459,0.311,0.592c0.207,0.133,0.581,0.26,1.122,0.381
		c0.541,0.121,0.979,0.266,1.315,0.434c0.336,0.168,0.585,0.37,0.747,0.606c0.162,0.236,0.243,0.524,0.243,0.864
		c0,0.566-0.227,1.021-0.68,1.362C44.315,45.62,43.728,45.791,43.005,45.791 M36.796,45.791c-0.508,0-0.957-0.09-1.348-0.27
		c-0.391-0.18-0.696-0.431-0.917-0.753c-0.221-0.322-0.331-0.671-0.331-1.046h1.084c0.019,0.363,0.165,0.651,0.437,0.864
		c0.271,0.213,0.63,0.319,1.075,0.319c0.41,0,0.739-0.083,0.987-0.249c0.248-0.166,0.372-0.388,0.372-0.665
		c0-0.293-0.11-0.52-0.331-0.683c-0.221-0.162-0.606-0.302-1.154-0.419c-0.549-0.117-0.984-0.258-1.307-0.422
		c-0.322-0.164-0.561-0.359-0.715-0.586c-0.154-0.226-0.231-0.496-0.231-0.809c0-0.519,0.22-0.959,0.659-1.318
		s1.001-0.539,1.685-0.539c0.719,0,1.302,0.186,1.749,0.557c0.447,0.371,0.671,0.846,0.671,1.424h-1.09
		c0-0.297-0.126-0.553-0.378-0.768c-0.252-0.215-0.569-0.322-0.952-0.322c-0.395,0-0.703,0.086-0.926,0.258
		c-0.223,0.172-0.334,0.397-0.334,0.674c0,0.262,0.103,0.459,0.311,0.592c0.207,0.133,0.581,0.26,1.122,0.381
		c0.541,0.121,0.979,0.266,1.315,0.434c0.336,0.168,0.585,0.37,0.747,0.606c0.162,0.236,0.243,0.524,0.243,0.864
		c0,0.566-0.227,1.021-0.68,1.362C38.106,45.62,37.518,45.791,36.796,45.791 M30.228,45.791c-0.859,0-1.556-0.299-2.089-0.896
		c-0.533-0.598-0.8-1.389-0.8-2.373v-0.076c0-0.621,0.122-1.18,0.366-1.676c0.244-0.496,0.584-0.879,1.02-1.148
		c0.435-0.27,0.933-0.404,1.491-0.404c0.863,0,1.561,0.299,2.095,0.896c0.533,0.598,0.8,1.393,0.8,2.385v0.076
		c0,0.617-0.118,1.171-0.355,1.661c-0.236,0.49-0.574,0.872-1.014,1.146C31.303,45.654,30.798,45.791,30.228,45.791 M30.216,40.107
		c-0.535,0-0.967,0.213-1.295,0.639c-0.328,0.426-0.492,1.035-0.492,1.828c0,0.703,0.163,1.268,0.489,1.693
		c0.326,0.426,0.763,0.639,1.31,0.639c0.551,0,0.988-0.216,1.313-0.647c0.324-0.432,0.486-1.036,0.486-1.813
		c0-0.695-0.165-1.259-0.495-1.69C31.201,40.323,30.763,40.107,30.216,40.107 M19.735,45.791c-0.863,0-1.55-0.288-2.06-0.864
		c-0.51-0.576-0.765-1.364-0.765-2.364v-0.182c0-0.617,0.113-1.166,0.34-1.646c0.227-0.48,0.552-0.853,0.976-1.119
		c0.424-0.266,0.925-0.398,1.503-0.398c0.711,0,1.302,0.213,1.772,0.639c0.471,0.426,0.722,0.978,0.753,1.658h-1.025
		c-0.031-0.41-0.187-0.747-0.466-1.011c-0.279-0.264-0.624-0.396-1.034-0.396c-0.551,0-0.978,0.198-1.28,0.595
		c-0.303,0.397-0.454,0.97-0.454,1.72v0.205c0,0.731,0.15,1.293,0.451,1.688c0.301,0.395,0.73,0.592,1.289,0.592
		c0.387,0,0.725-0.117,1.014-0.352c0.289-0.234,0.449-0.527,0.48-0.879h1.025c-0.02,0.363-0.145,0.709-0.375,1.037
		c-0.231,0.328-0.538,0.59-0.923,0.785C20.572,45.693,20.165,45.791,19.735,45.791 M12.619,45.791c-0.625,0-1.138-0.177-1.538-0.53
		c-0.4-0.353-0.601-0.802-0.601-1.345c0-0.66,0.251-1.173,0.753-1.538c0.502-0.365,1.208-0.548,2.118-0.548h1.055v-0.498
		c0-0.379-0.113-0.681-0.34-0.905c-0.227-0.225-0.561-0.337-1.002-0.337c-0.387,0-0.711,0.098-0.973,0.293
		c-0.262,0.195-0.393,0.432-0.393,0.709h-1.09c0-0.316,0.112-0.622,0.337-0.917c0.225-0.295,0.529-0.528,0.914-0.7
		c0.385-0.172,0.808-0.258,1.269-0.258c0.73,0,1.303,0.183,1.717,0.548c0.414,0.365,0.629,0.868,0.645,1.509v2.918
		c0,0.582,0.074,1.045,0.223,1.389v0.094h-1.137c-0.063-0.125-0.113-0.348-0.152-0.668C13.92,45.529,13.318,45.791,12.619,45.791
		 M13.557,42.598c-1.328,0-1.992,0.389-1.992,1.166c0,0.34,0.113,0.606,0.34,0.797c0.227,0.191,0.518,0.287,0.873,0.287
		c0.34,0,0.662-0.088,0.967-0.264c0.305-0.176,0.525-0.404,0.662-0.686v-1.301H13.557 M85.289,45.738
		c-0.211,0-0.37-0.058-0.478-0.174c-0.107-0.116-0.161-0.263-0.161-0.441s0.054-0.326,0.161-0.447c0.107-0.12,0.267-0.18,0.478-0.18
		c0.211,0,0.371,0.06,0.48,0.18c0.109,0.12,0.164,0.269,0.164,0.447s-0.055,0.324-0.164,0.441
		C85.66,45.68,85.499,45.738,85.289,45.738 M225.361,45.674h-1.084v-4.195c-0.004-0.457-0.108-0.795-0.313-1.014
		c-0.205-0.219-0.524-0.328-0.958-0.328c-0.352,0-0.66,0.094-0.926,0.281c-0.266,0.188-0.473,0.434-0.621,0.738v4.518h-1.084v-9
		h1.084v3.428c0.48-0.59,1.105-0.885,1.875-0.885c1.34,0,2.016,0.756,2.027,2.268V45.674 M211.656,45.674h-1.084v-9h1.084V45.674
		 M208.776,45.674h-1.084v-9h1.084V45.674 M177.394,45.674h-1.271l-2.209-2.936l-0.68,0.709v2.227h-1.084v-9h1.084v5.443l0.58-0.697
		l1.975-2.086h1.318l-2.467,2.648L177.394,45.674 M170.448,45.674h-1.084v-4.195c-0.004-0.457-0.108-0.795-0.313-1.014
		c-0.205-0.219-0.524-0.328-0.958-0.328c-0.352,0-0.66,0.094-0.926,0.281c-0.266,0.188-0.473,0.434-0.621,0.738v4.518h-1.084v-6.34
		h1.025l0.035,0.797c0.484-0.609,1.117-0.914,1.898-0.914c1.34,0,2.016,0.756,2.027,2.268V45.674 M163.703,45.674h-1.084v-6.34
		h1.084V45.674 M160.817,45.674h-1.084v-9h1.084V45.674 M148.102,45.674h-1.084v-4.195c-0.004-0.457-0.108-0.795-0.313-1.014
		c-0.205-0.219-0.524-0.328-0.958-0.328c-0.352,0-0.66,0.094-0.926,0.281c-0.266,0.188-0.473,0.434-0.621,0.738v4.518h-1.084v-6.34
		h1.025l0.035,0.797c0.484-0.609,1.117-0.914,1.898-0.914c1.34,0,2.016,0.756,2.027,2.268V45.674 M141.267,45.674h-1.09v-6.34h1.09
		V45.674 M137.839,45.674h-1.09v-5.502h-1.002v-0.838h1.002v-0.539c0-0.707,0.202-1.258,0.606-1.652
		c0.404-0.395,0.976-0.592,1.714-0.592c0.437,0,0.99,0.119,1.658,0.357l-0.182,0.914c-0.488-0.195-0.953-0.293-1.395-0.293
		c-0.465,0-0.8,0.105-1.005,0.313c-0.205,0.209-0.308,0.523-0.308,0.94v0.551h1.295v0.838h-1.295V45.674 M131.661,45.674h-1.084
		v-4.195c-0.004-0.457-0.108-0.795-0.313-1.014c-0.205-0.219-0.524-0.328-0.958-0.328c-0.352,0-0.66,0.094-0.926,0.281
		c-0.266,0.188-0.473,0.434-0.621,0.738v4.518h-1.084v-6.34h1.025l0.035,0.797c0.484-0.609,1.117-0.914,1.898-0.914
		c1.34,0,2.016,0.756,2.027,2.268V45.674 M94.045,45.674H92.92v-3.182l-2.941-5.35h1.289l2.215,4.283l2.227-4.283h1.277l-2.941,5.35
		V45.674 M81.252,45.674h-1.025l-1.758-6.217l-0.135-0.65l-0.135,0.65l-1.822,6.217h-1.025l-2.063-8.531h1.125l1.348,5.842
		l0.164,1.125l0.24-1.014l1.688-5.953h0.949l1.646,5.953l0.234,1.031l0.182-1.148l1.324-5.836h1.131L81.252,45.674 M64.631,45.674
		H63.5L59.205,39.1v6.574h-1.131v-8.531h1.131l4.307,6.604v-6.604h1.119V45.674 M24.662,45.674h-1.084v-6.34h1.055l0.018,0.732
		c0.355-0.566,0.859-0.85,1.512-0.85c0.211,0,0.371,0.027,0.48,0.082v1.008c-0.164-0.027-0.342-0.041-0.533-0.041
		c-0.711,0-1.193,0.303-1.447,0.908V45.674 M85.746,43.256h-0.978l-0.076-6.113h1.137L85.746,43.256 M163.17,38.268
		c-0.211,0-0.37-0.059-0.478-0.176c-0.107-0.117-0.161-0.264-0.161-0.439c0-0.176,0.054-0.324,0.161-0.445
		c0.107-0.121,0.267-0.182,0.478-0.182s0.371,0.061,0.48,0.182c0.109,0.121,0.164,0.27,0.164,0.445c0,0.176-0.055,0.322-0.164,0.439
		C163.541,38.209,163.381,38.268,163.17,38.268"/>
	<path fill="#000000" d="M94.248,64.17c-0.457,0-0.904-0.098-1.342-0.293c-0.438-0.195-0.772-0.463-1.002-0.803l0.563-0.65
		c0.465,0.574,1.033,0.861,1.705,0.861c0.527,0,0.938-0.149,1.233-0.445c0.295-0.297,0.442-0.715,0.442-1.254v-0.545
		c-0.434,0.5-1.025,0.75-1.775,0.75c-0.742,0-1.343-0.299-1.802-0.896c-0.459-0.598-0.688-1.412-0.688-2.443
		c0-0.988,0.228-1.774,0.686-2.358c0.457-0.584,1.062-0.876,1.816-0.876c0.773,0,1.377,0.273,1.811,0.82l0.053-0.703h0.99v6.188
		c0,0.82-0.243,1.467-0.73,1.939C95.722,63.934,95.069,64.17,94.248,64.17 M94.354,56.137c-0.527,0-0.94,0.205-1.236,0.615
		c-0.297,0.41-0.445,1.018-0.445,1.822c0,0.715,0.147,1.276,0.439,1.685c0.293,0.408,0.703,0.612,1.23,0.612
		c0.684,0,1.186-0.311,1.506-0.932v-2.895C95.516,56.44,95.018,56.137,94.354,56.137 M79.706,64.111h-1.084v-8.777h0.99l0.053,0.703
		c0.441-0.547,1.055-0.82,1.84-0.82c0.762,0,1.364,0.287,1.808,0.861c0.443,0.574,0.665,1.373,0.665,2.396v0.1
		c0,0.965-0.221,1.742-0.662,2.332c-0.441,0.59-1.039,0.885-1.793,0.885c-0.77,0-1.375-0.244-1.816-0.732V64.111 M81.183,56.137
		c-0.656,0-1.148,0.291-1.477,0.873v3.029c0.324,0.578,0.82,0.867,1.488,0.867c0.519,0,0.933-0.206,1.239-0.618
		c0.307-0.412,0.46-1.024,0.46-1.837c0-0.715-0.152-1.279-0.457-1.693C82.132,56.344,81.714,56.137,81.183,56.137 M107.35,61.791
		c-0.508,0-0.957-0.09-1.348-0.27c-0.391-0.18-0.696-0.431-0.917-0.753c-0.221-0.322-0.331-0.671-0.331-1.046h1.084
		c0.019,0.363,0.165,0.651,0.437,0.864c0.271,0.213,0.63,0.319,1.075,0.319c0.41,0,0.739-0.083,0.987-0.249
		c0.248-0.166,0.372-0.388,0.372-0.665c0-0.293-0.11-0.52-0.331-0.683c-0.221-0.162-0.606-0.302-1.154-0.419
		c-0.549-0.117-0.984-0.258-1.307-0.422c-0.322-0.164-0.561-0.359-0.715-0.586c-0.154-0.227-0.231-0.496-0.231-0.809
		c0-0.52,0.22-0.959,0.659-1.318c0.439-0.359,1.001-0.539,1.685-0.539c0.719,0,1.302,0.186,1.749,0.557
		c0.447,0.371,0.671,0.846,0.671,1.424h-1.09c0-0.297-0.126-0.553-0.378-0.768c-0.252-0.215-0.569-0.322-0.952-0.322
		c-0.395,0-0.703,0.086-0.926,0.258c-0.223,0.172-0.334,0.397-0.334,0.674c0,0.262,0.103,0.459,0.311,0.592
		c0.207,0.133,0.581,0.26,1.122,0.381c0.541,0.121,0.979,0.266,1.315,0.434c0.336,0.168,0.585,0.37,0.747,0.606
		c0.162,0.236,0.243,0.524,0.243,0.864c0,0.566-0.227,1.021-0.68,1.362C108.66,61.62,108.072,61.791,107.35,61.791 M101.277,61.791
		c-0.859,0-1.559-0.282-2.098-0.847c-0.539-0.564-0.809-1.319-0.809-2.265V58.48c0-0.629,0.12-1.19,0.36-1.685
		c0.24-0.494,0.576-0.881,1.008-1.16c0.432-0.279,0.899-0.419,1.403-0.419c0.824,0,1.465,0.272,1.922,0.814
		c0.457,0.543,0.686,1.32,0.686,2.332v0.451h-4.295c0.016,0.625,0.198,1.13,0.548,1.515c0.35,0.385,0.794,0.577,1.333,0.577
		c0.383,0,0.707-0.078,0.973-0.234c0.266-0.156,0.498-0.363,0.697-0.621l0.662,0.516C103.136,61.383,102.339,61.791,101.277,61.791
		 M101.142,56.107c-0.438,0-0.805,0.159-1.102,0.478c-0.297,0.318-0.48,0.765-0.551,1.339h3.176v-0.082
		c-0.031-0.551-0.18-0.978-0.445-1.28C101.954,56.259,101.595,56.107,101.142,56.107 M87.279,61.791
		c-0.625,0-1.138-0.177-1.538-0.53c-0.4-0.353-0.601-0.802-0.601-1.345c0-0.66,0.251-1.173,0.753-1.538
		c0.502-0.365,1.208-0.548,2.118-0.548h1.055v-0.498c0-0.379-0.113-0.681-0.34-0.905c-0.227-0.225-0.561-0.337-1.002-0.337
		c-0.387,0-0.711,0.098-0.973,0.293c-0.262,0.195-0.393,0.432-0.393,0.709h-1.09c0-0.316,0.112-0.622,0.337-0.917
		c0.225-0.295,0.529-0.528,0.914-0.7c0.385-0.172,0.808-0.258,1.269-0.258c0.73,0,1.303,0.183,1.717,0.548
		c0.414,0.365,0.629,0.868,0.645,1.509v2.918c0,0.582,0.074,1.045,0.223,1.389v0.094h-1.137c-0.063-0.125-0.113-0.348-0.152-0.668
		C88.58,61.529,87.979,61.791,87.279,61.791 M88.217,58.598c-1.328,0-1.992,0.389-1.992,1.166c0,0.34,0.113,0.606,0.34,0.797
		c0.227,0.191,0.518,0.287,0.873,0.287c0.34,0,0.662-0.088,0.967-0.264c0.305-0.176,0.525-0.404,0.662-0.686v-1.301H88.217
		 M71.676,61.791c-0.508,0-0.957-0.09-1.348-0.27c-0.391-0.18-0.696-0.431-0.917-0.753c-0.221-0.322-0.331-0.671-0.331-1.046h1.084
		c0.019,0.363,0.165,0.651,0.437,0.864c0.271,0.213,0.63,0.319,1.075,0.319c0.41,0,0.739-0.083,0.987-0.249
		c0.248-0.166,0.372-0.388,0.372-0.665c0-0.293-0.11-0.52-0.331-0.683c-0.221-0.162-0.606-0.302-1.154-0.419
		c-0.549-0.117-0.984-0.258-1.307-0.422c-0.322-0.164-0.561-0.359-0.715-0.586c-0.154-0.227-0.231-0.496-0.231-0.809
		c0-0.52,0.22-0.959,0.659-1.318c0.439-0.359,1.001-0.539,1.685-0.539c0.719,0,1.302,0.186,1.749,0.557
		c0.447,0.371,0.671,0.846,0.671,1.424h-1.09c0-0.297-0.126-0.553-0.378-0.768c-0.252-0.215-0.569-0.322-0.952-0.322
		c-0.395,0-0.703,0.086-0.926,0.258c-0.223,0.172-0.334,0.397-0.334,0.674c0,0.262,0.103,0.459,0.311,0.592
		c0.207,0.133,0.581,0.26,1.122,0.381c0.541,0.121,0.979,0.266,1.315,0.434c0.336,0.168,0.585,0.37,0.747,0.606
		c0.162,0.236,0.243,0.524,0.243,0.864c0,0.566-0.227,1.021-0.68,1.362C72.987,61.62,72.399,61.791,71.676,61.791 M67.284,61.791
		c-0.484,0-0.85-0.147-1.096-0.439c-0.246-0.293-0.369-0.709-0.369-1.248v-3.932h-1.154v-0.838h1.154v-1.535h1.084v1.535h1.184
		v0.838h-1.184v3.937c0,0.254,0.053,0.445,0.158,0.572c0.105,0.127,0.285,0.191,0.539,0.191c0.125,0,0.297-0.023,0.516-0.07v0.874
		C67.831,61.752,67.554,61.791,67.284,61.791 M54.88,61.791c-0.859,0-1.559-0.282-2.098-0.847c-0.539-0.564-0.809-1.319-0.809-2.265
		V58.48c0-0.629,0.12-1.19,0.36-1.685c0.24-0.494,0.576-0.881,1.008-1.16c0.432-0.279,0.899-0.419,1.403-0.419
		c0.824,0,1.465,0.272,1.922,0.814c0.457,0.543,0.686,1.32,0.686,2.332v0.451h-4.295c0.016,0.625,0.198,1.13,0.548,1.515
		c0.35,0.385,0.794,0.577,1.333,0.577c0.383,0,0.707-0.078,0.973-0.234c0.266-0.156,0.498-0.363,0.697-0.621l0.662,0.516
		C56.739,61.383,55.942,61.791,54.88,61.791 M54.745,56.107c-0.438,0-0.805,0.159-1.102,0.478c-0.297,0.318-0.48,0.765-0.551,1.339
		h3.176v-0.082c-0.031-0.551-0.18-0.978-0.445-1.28C55.557,56.259,55.198,56.107,54.745,56.107 M42.946,61.791
		c-0.859,0-1.559-0.282-2.098-0.847c-0.539-0.564-0.809-1.319-0.809-2.265V58.48c0-0.629,0.12-1.19,0.36-1.685
		c0.24-0.494,0.576-0.881,1.008-1.16c0.432-0.279,0.899-0.419,1.403-0.419c0.824,0,1.465,0.272,1.922,0.814
		c0.457,0.543,0.686,1.32,0.686,2.332v0.451h-4.295c0.016,0.625,0.198,1.13,0.548,1.515c0.35,0.385,0.794,0.577,1.333,0.577
		c0.383,0,0.707-0.078,0.973-0.234c0.266-0.156,0.498-0.363,0.697-0.621l0.662,0.516C44.806,61.383,44.009,61.791,42.946,61.791
		 M42.811,56.107c-0.438,0-0.805,0.159-1.102,0.478c-0.297,0.318-0.48,0.765-0.551,1.339h3.176v-0.082
		c-0.031-0.551-0.18-0.978-0.445-1.28C43.624,56.259,43.265,56.107,42.811,56.107 M23.121,61.791c-0.625,0-1.138-0.177-1.538-0.53
		c-0.4-0.353-0.601-0.802-0.601-1.345c0-0.66,0.251-1.173,0.753-1.538c0.502-0.365,1.208-0.548,2.118-0.548h1.055v-0.498
		c0-0.379-0.113-0.681-0.34-0.905c-0.227-0.225-0.561-0.337-1.002-0.337c-0.387,0-0.711,0.098-0.973,0.293
		c-0.262,0.195-0.393,0.432-0.393,0.709h-1.09c0-0.316,0.112-0.622,0.337-0.917c0.225-0.295,0.529-0.528,0.914-0.7
		c0.385-0.172,0.808-0.258,1.269-0.258c0.73,0,1.303,0.183,1.717,0.548c0.414,0.365,0.629,0.868,0.645,1.509v2.918
		c0,0.582,0.074,1.045,0.223,1.389v0.094h-1.137c-0.063-0.125-0.113-0.348-0.152-0.668C24.422,61.529,23.82,61.791,23.121,61.791
		 M24.059,58.598c-1.328,0-1.992,0.389-1.992,1.166c0,0.34,0.113,0.606,0.34,0.797c0.227,0.191,0.518,0.287,0.873,0.287
		c0.34,0,0.662-0.088,0.967-0.264c0.305-0.176,0.525-0.404,0.662-0.686v-1.301H24.059 M63.716,61.674h-1.084v-4.195
		c-0.004-0.457-0.108-0.795-0.313-1.014c-0.205-0.219-0.524-0.328-0.958-0.328c-0.352,0-0.66,0.094-0.926,0.281
		c-0.266,0.188-0.473,0.434-0.621,0.738v4.518H58.73v-6.34h1.025l0.035,0.797c0.484-0.609,1.117-0.914,1.898-0.914
		c1.34,0,2.016,0.756,2.027,2.268V61.674 M49.106,61.674H48.28l-2.297-6.34h1.107l1.611,4.869l1.57-4.869h1.107L49.106,61.674
		 M35.59,61.674h-1.084v-4.195c-0.004-0.457-0.108-0.795-0.313-1.014c-0.205-0.219-0.524-0.328-0.958-0.328
		c-0.352,0-0.66,0.094-0.926,0.281c-0.266,0.188-0.473,0.434-0.621,0.738v4.518h-1.084v-6.34h1.025l0.035,0.797
		c0.484-0.609,1.117-0.914,1.898-0.914c1.34,0,2.016,0.756,2.027,2.268V61.674 M28.845,61.674h-1.084v-6.34h1.084V61.674
		 M19.545,61.674h-1.084V57.49c0-0.453-0.104-0.792-0.311-1.017c-0.207-0.225-0.555-0.337-1.043-0.337
		c-0.402,0-0.736,0.12-1.002,0.36c-0.266,0.24-0.42,0.564-0.463,0.97v4.207h-1.09V57.52c0-0.922-0.451-1.383-1.354-1.383
		c-0.711,0-1.197,0.303-1.459,0.908v4.629h-1.084v-6.34h1.025l0.029,0.703c0.465-0.547,1.092-0.82,1.881-0.82
		c0.887,0,1.49,0.34,1.811,1.02c0.211-0.305,0.485-0.551,0.823-0.738c0.338-0.187,0.737-0.281,1.198-0.281
		c1.391,0,2.098,0.736,2.121,2.209V61.674 M28.312,54.268c-0.211,0-0.37-0.059-0.478-0.176c-0.107-0.117-0.161-0.264-0.161-0.439
		c0-0.176,0.054-0.324,0.161-0.445c0.107-0.121,0.267-0.182,0.478-0.182c0.211,0,0.371,0.061,0.48,0.182
		c0.109,0.121,0.164,0.27,0.164,0.445c0,0.176-0.055,0.322-0.164,0.439C28.683,54.209,28.523,54.268,28.312,54.268"/>
	<path fill="#0080FF" d="M115.38,52.674h-1.084v9h1.084v-4.518c0.148-0.305,0.355-0.551,0.621-0.738
		c0.266-0.188,0.574-0.281,0.926-0.281c0.434,0,0.753,0.109,0.958,0.328c0.205,0.219,0.31,0.557,0.313,1.014v4.195h1.084v-4.189
		c-0.012-1.512-0.688-2.268-2.027-2.268c-0.77,0-1.395,0.295-1.875,0.885V52.674z M125.983,60.566l-0.662-0.516
		c-0.199,0.258-0.432,0.465-0.697,0.621c-0.266,0.156-0.59,0.234-0.973,0.234c-0.539,0-0.983-0.192-1.333-0.577
		c-0.35-0.385-0.532-0.89-0.548-1.515h4.295v-0.451c0-1.012-0.229-1.789-0.686-2.332c-0.457-0.543-1.098-0.814-1.922-0.814
		c-0.504,0-0.972,0.14-1.403,0.419c-0.432,0.279-0.768,0.666-1.008,1.16c-0.24,0.494-0.36,1.056-0.36,1.685v0.199
		c0,0.945,0.27,1.7,0.809,2.265c0.539,0.565,1.238,0.847,2.098,0.847C124.655,61.791,125.452,61.383,125.983,60.566z
		 M124.536,56.562c0.266,0.303,0.414,0.729,0.445,1.28v0.082h-3.176c0.07-0.574,0.254-1.02,0.551-1.339
		c0.297-0.318,0.664-0.478,1.102-0.478C123.911,56.107,124.27,56.259,124.536,56.562z M130.507,55.299
		c-0.109-0.055-0.27-0.082-0.48-0.082c-0.652,0-1.156,0.283-1.512,0.85l-0.018-0.732h-1.055v6.34h1.084v-4.5
		c0.254-0.605,0.736-0.908,1.447-0.908c0.191,0,0.369,0.014,0.533,0.041V55.299z M136.501,60.566l-0.662-0.516
		c-0.199,0.258-0.432,0.465-0.697,0.621c-0.266,0.156-0.59,0.234-0.973,0.234c-0.539,0-0.983-0.192-1.333-0.577
		c-0.35-0.385-0.532-0.89-0.548-1.515h4.295v-0.451c0-1.012-0.229-1.789-0.686-2.332c-0.457-0.543-1.098-0.814-1.922-0.814
		c-0.504,0-0.972,0.14-1.403,0.419c-0.432,0.279-0.768,0.666-1.008,1.16c-0.24,0.494-0.36,1.056-0.36,1.685v0.199
		c0,0.945,0.27,1.7,0.809,2.265c0.539,0.565,1.238,0.847,2.098,0.847C135.172,61.791,135.969,61.383,136.501,60.566z
		 M135.053,56.562c0.266,0.303,0.414,0.729,0.445,1.28v0.082h-3.176c0.07-0.574,0.254-1.02,0.551-1.339
		c0.297-0.318,0.664-0.478,1.102-0.478C134.428,56.107,134.788,56.259,135.053,56.562z"/>
	<path fill="#000000" d="M233.795,61.791c-0.859,0-1.559-0.282-2.098-0.847c-0.539-0.564-0.809-1.319-0.809-2.265V58.48
		c0-0.629,0.12-1.19,0.36-1.685c0.24-0.494,0.576-0.881,1.008-1.16c0.432-0.279,0.899-0.419,1.403-0.419
		c0.824,0,1.465,0.272,1.922,0.814c0.457,0.543,0.686,1.32,0.686,2.332v0.451h-4.295c0.016,0.625,0.198,1.13,0.548,1.515
		c0.35,0.385,0.794,0.577,1.333,0.577c0.383,0,0.707-0.078,0.973-0.234c0.266-0.156,0.498-0.363,0.697-0.621l0.662,0.516
		C235.654,61.383,234.857,61.791,233.795,61.791 M233.66,56.107c-0.438,0-0.805,0.159-1.102,0.478
		c-0.297,0.318-0.48,0.765-0.551,1.339h3.176v-0.082c-0.031-0.551-0.18-0.978-0.445-1.28
		C234.472,56.259,234.113,56.107,233.66,56.107 M221.439,61.791c-0.859,0-1.556-0.299-2.089-0.896c-0.533-0.598-0.8-1.389-0.8-2.373
		v-0.076c0-0.621,0.122-1.18,0.366-1.676c0.244-0.496,0.584-0.879,1.02-1.148c0.435-0.27,0.933-0.404,1.491-0.404
		c0.863,0,1.561,0.299,2.095,0.896c0.533,0.598,0.8,1.393,0.8,2.385v0.076c0,0.617-0.118,1.171-0.354,1.661
		c-0.236,0.49-0.574,0.872-1.014,1.145C222.514,61.654,222.009,61.791,221.439,61.791 M221.427,56.107
		c-0.535,0-0.967,0.213-1.295,0.639c-0.328,0.426-0.492,1.035-0.492,1.828c0,0.703,0.163,1.268,0.489,1.693
		c0.326,0.426,0.763,0.639,1.31,0.639c0.551,0,0.988-0.216,1.313-0.647c0.324-0.432,0.486-1.036,0.486-1.813
		c0-0.695-0.165-1.259-0.495-1.69C222.413,56.323,221.974,56.107,221.427,56.107 M214.998,61.791c-0.863,0-1.55-0.288-2.06-0.864
		c-0.51-0.576-0.765-1.364-0.765-2.364v-0.182c0-0.617,0.113-1.166,0.34-1.646c0.226-0.48,0.552-0.853,0.976-1.119
		c0.424-0.266,0.925-0.398,1.503-0.398c0.711,0,1.302,0.213,1.773,0.639c0.471,0.426,0.722,0.978,0.753,1.658h-1.025
		c-0.031-0.41-0.187-0.747-0.466-1.011c-0.279-0.264-0.624-0.396-1.034-0.396c-0.551,0-0.978,0.198-1.28,0.595
		c-0.303,0.397-0.454,0.97-0.454,1.72v0.205c0,0.73,0.15,1.293,0.451,1.688c0.301,0.395,0.73,0.592,1.289,0.592
		c0.387,0,0.725-0.117,1.014-0.352c0.289-0.234,0.449-0.527,0.48-0.879h1.025c-0.02,0.363-0.145,0.709-0.375,1.037
		c-0.23,0.328-0.538,0.59-0.923,0.785C215.835,61.693,215.428,61.791,214.998,61.791 M208.594,61.791
		c-0.508,0-0.957-0.09-1.348-0.27c-0.391-0.18-0.696-0.431-0.917-0.753c-0.221-0.322-0.331-0.671-0.331-1.046h1.084
		c0.02,0.363,0.165,0.651,0.437,0.864c0.271,0.213,0.63,0.319,1.075,0.319c0.41,0,0.739-0.083,0.987-0.249
		c0.248-0.166,0.372-0.388,0.372-0.665c0-0.293-0.11-0.52-0.331-0.683c-0.221-0.162-0.606-0.302-1.154-0.419
		c-0.549-0.117-0.984-0.258-1.307-0.422c-0.322-0.164-0.561-0.359-0.715-0.586c-0.154-0.227-0.232-0.496-0.232-0.809
		c0-0.52,0.22-0.959,0.659-1.318c0.439-0.359,1.001-0.539,1.685-0.539c0.719,0,1.302,0.186,1.749,0.557
		c0.447,0.371,0.671,0.846,0.671,1.424h-1.09c0-0.297-0.126-0.553-0.378-0.768c-0.252-0.215-0.569-0.322-0.952-0.322
		c-0.395,0-0.703,0.086-0.926,0.258c-0.223,0.172-0.334,0.397-0.334,0.674c0,0.262,0.103,0.459,0.311,0.592
		c0.207,0.133,0.581,0.26,1.122,0.381c0.541,0.121,0.979,0.266,1.315,0.434c0.336,0.168,0.585,0.37,0.747,0.606
		c0.162,0.236,0.243,0.524,0.243,0.864c0,0.566-0.227,1.021-0.68,1.362C209.904,61.62,209.317,61.791,208.594,61.791
		 M198.836,61.791c-0.734,0-1.333-0.301-1.796-0.902c-0.463-0.602-0.694-1.387-0.694-2.355v-0.082c0-0.973,0.23-1.755,0.691-2.347
		c0.461-0.592,1.064-0.888,1.811-0.888c0.742,0,1.33,0.254,1.764,0.762v-3.305h1.084v9H200.7l-0.053-0.68
		C200.213,61.525,199.61,61.791,198.836,61.791 M199.118,56.137c-0.531,0-0.945,0.205-1.242,0.615
		c-0.297,0.41-0.445,1.018-0.445,1.822c0,0.719,0.148,1.281,0.445,1.688c0.297,0.406,0.707,0.609,1.23,0.609
		c0.687,0,1.189-0.309,1.506-0.926v-2.912C200.288,56.436,199.789,56.137,199.118,56.137 M189.664,61.791
		c-0.508,0-0.957-0.09-1.348-0.27c-0.391-0.18-0.696-0.431-0.917-0.753s-0.331-0.671-0.331-1.046h1.084
		c0.02,0.363,0.165,0.651,0.437,0.864c0.271,0.213,0.63,0.319,1.075,0.319c0.41,0,0.739-0.083,0.987-0.249
		c0.248-0.166,0.372-0.388,0.372-0.665c0-0.293-0.11-0.52-0.331-0.683c-0.221-0.162-0.606-0.302-1.154-0.419
		c-0.549-0.117-0.984-0.258-1.307-0.422c-0.322-0.164-0.561-0.359-0.715-0.586c-0.154-0.227-0.231-0.496-0.231-0.809
		c0-0.52,0.22-0.959,0.659-1.318c0.439-0.359,1.001-0.539,1.685-0.539c0.719,0,1.302,0.186,1.749,0.557
		c0.447,0.371,0.671,0.846,0.671,1.424h-1.09c0-0.297-0.126-0.553-0.378-0.768c-0.252-0.215-0.569-0.322-0.952-0.322
		c-0.395,0-0.703,0.086-0.926,0.258c-0.223,0.172-0.334,0.397-0.334,0.674c0,0.262,0.103,0.459,0.311,0.592
		c0.207,0.133,0.581,0.26,1.122,0.381c0.541,0.121,0.979,0.266,1.315,0.434c0.336,0.168,0.585,0.37,0.747,0.606
		c0.162,0.236,0.243,0.524,0.243,0.864c0,0.566-0.227,1.021-0.68,1.362C190.974,61.62,190.386,61.791,189.664,61.791
		 M182.827,61.791c-0.625,0-1.138-0.177-1.538-0.53c-0.4-0.353-0.601-0.802-0.601-1.345c0-0.66,0.251-1.173,0.753-1.538
		c0.502-0.365,1.208-0.548,2.118-0.548h1.055v-0.498c0-0.379-0.113-0.681-0.34-0.905c-0.227-0.225-0.561-0.337-1.002-0.337
		c-0.387,0-0.711,0.098-0.973,0.293c-0.262,0.195-0.393,0.432-0.393,0.709h-1.09c0-0.316,0.112-0.622,0.337-0.917
		c0.225-0.295,0.529-0.528,0.914-0.7c0.385-0.172,0.808-0.258,1.269-0.258c0.73,0,1.303,0.183,1.717,0.548
		c0.414,0.365,0.629,0.868,0.645,1.509v2.918c0,0.582,0.074,1.045,0.223,1.389v0.094h-1.137c-0.063-0.125-0.113-0.348-0.152-0.668
		C184.128,61.529,183.527,61.791,182.827,61.791 M183.765,58.598c-1.328,0-1.992,0.389-1.992,1.166c0,0.34,0.113,0.606,0.34,0.797
		c0.226,0.191,0.518,0.287,0.873,0.287c0.34,0,0.662-0.088,0.967-0.264c0.305-0.176,0.525-0.404,0.662-0.686v-1.301H183.765
		 M168.175,61.791c-0.859,0-1.559-0.282-2.098-0.847c-0.539-0.564-0.809-1.319-0.809-2.265V58.48c0-0.629,0.12-1.19,0.36-1.685
		c0.24-0.494,0.576-0.881,1.008-1.16c0.432-0.279,0.899-0.419,1.403-0.419c0.824,0,1.465,0.272,1.922,0.814
		c0.457,0.543,0.686,1.32,0.686,2.332v0.451h-4.295c0.016,0.625,0.198,1.13,0.548,1.515c0.35,0.385,0.794,0.577,1.333,0.577
		c0.383,0,0.707-0.078,0.973-0.234c0.266-0.156,0.498-0.363,0.697-0.621l0.662,0.516C170.034,61.383,169.237,61.791,168.175,61.791
		 M168.04,56.107c-0.438,0-0.805,0.159-1.102,0.478c-0.297,0.318-0.48,0.765-0.551,1.339h3.176v-0.082
		c-0.031-0.551-0.18-0.978-0.445-1.28C168.852,56.259,168.493,56.107,168.04,56.107 M149.721,61.791c-0.508,0-0.957-0.09-1.348-0.27
		c-0.391-0.18-0.696-0.431-0.917-0.753c-0.221-0.322-0.331-0.671-0.331-1.046h1.084c0.02,0.363,0.165,0.651,0.437,0.864
		c0.271,0.213,0.63,0.319,1.075,0.319c0.41,0,0.739-0.083,0.987-0.249c0.248-0.166,0.372-0.388,0.372-0.665
		c0-0.293-0.11-0.52-0.331-0.683c-0.221-0.162-0.605-0.302-1.154-0.419c-0.549-0.117-0.984-0.258-1.307-0.422
		c-0.322-0.164-0.561-0.359-0.715-0.586c-0.154-0.227-0.231-0.496-0.231-0.809c0-0.52,0.22-0.959,0.659-1.318
		c0.44-0.359,1.001-0.539,1.685-0.539c0.719,0,1.302,0.186,1.749,0.557c0.447,0.371,0.671,0.846,0.671,1.424h-1.09
		c0-0.297-0.126-0.553-0.378-0.768c-0.252-0.215-0.569-0.322-0.952-0.322c-0.395,0-0.703,0.086-0.926,0.258
		c-0.223,0.172-0.334,0.397-0.334,0.674c0,0.262,0.103,0.459,0.311,0.592c0.207,0.133,0.581,0.26,1.122,0.381
		c0.541,0.121,0.979,0.266,1.315,0.434c0.336,0.168,0.585,0.37,0.747,0.606c0.162,0.236,0.243,0.524,0.243,0.864
		c0,0.566-0.227,1.021-0.68,1.362C151.031,61.62,150.443,61.791,149.721,61.791 M142.884,61.791c-0.625,0-1.138-0.177-1.538-0.53
		c-0.4-0.353-0.601-0.802-0.601-1.345c0-0.66,0.251-1.173,0.753-1.538c0.502-0.365,1.208-0.548,2.118-0.548h1.055v-0.498
		c0-0.379-0.113-0.681-0.34-0.905c-0.227-0.225-0.561-0.337-1.002-0.337c-0.387,0-0.711,0.098-0.973,0.293
		c-0.262,0.195-0.393,0.432-0.393,0.709h-1.09c0-0.316,0.112-0.622,0.337-0.917c0.225-0.295,0.529-0.528,0.914-0.7
		c0.385-0.172,0.808-0.258,1.269-0.258c0.73,0,1.303,0.183,1.717,0.548c0.414,0.365,0.629,0.868,0.645,1.509v2.918
		c0,0.582,0.074,1.045,0.223,1.389v0.094h-1.137c-0.063-0.125-0.113-0.348-0.152-0.668
		C144.185,61.529,143.583,61.791,142.884,61.791 M143.822,58.598c-1.328,0-1.992,0.389-1.992,1.166c0,0.34,0.113,0.606,0.34,0.797
		c0.227,0.191,0.518,0.287,0.873,0.287c0.34,0,0.662-0.088,0.967-0.264c0.305-0.176,0.525-0.404,0.662-0.686v-1.301H143.822
		 M238.729,61.674h-1.084v-6.34h1.055l0.018,0.732c0.355-0.566,0.859-0.85,1.512-0.85c0.211,0,0.371,0.027,0.48,0.082v1.008
		c-0.164-0.027-0.342-0.041-0.533-0.041c-0.711,0-1.193,0.303-1.447,0.908V61.674 M228.021,61.674h-0.826l-2.297-6.34h1.107
		l1.611,4.869l1.57-4.869h1.107L228.021,61.674 M204.564,61.674h-1.084v-6.34h1.084V61.674 M176.045,61.674h-1.084v-9h1.084V61.674
		 M173.165,61.674h-1.084v-9h1.084V61.674 M162.737,61.674h-0.879l-1.541-4.805l-1.5,4.805h-0.879l-1.84-6.34h1.078l1.248,4.746
		l1.477-4.746h0.873l1.506,4.846l1.219-4.846h1.084L162.737,61.674 M204.03,54.268c-0.211,0-0.37-0.059-0.478-0.176
		c-0.107-0.117-0.161-0.264-0.161-0.439c0-0.176,0.054-0.324,0.161-0.445c0.107-0.121,0.267-0.182,0.478-0.182
		c0.211,0,0.371,0.061,0.48,0.182c0.109,0.121,0.164,0.27,0.164,0.445c0,0.176-0.055,0.322-0.164,0.439
		C204.401,54.209,204.241,54.268,204.03,54.268"/>
	<path fill="#000000" d="M56.5,80.111h-1.084v-8.777h0.99l0.053,0.703c0.441-0.547,1.055-0.82,1.84-0.82
		c0.762,0,1.364,0.287,1.808,0.861c0.443,0.574,0.665,1.373,0.665,2.397v0.1c0,0.965-0.221,1.742-0.662,2.332
		c-0.441,0.59-1.039,0.885-1.793,0.885c-0.77,0-1.375-0.244-1.816-0.732V80.111 M57.977,72.137c-0.656,0-1.148,0.291-1.477,0.873
		v3.029c0.324,0.578,0.82,0.867,1.488,0.867c0.52,0,0.933-0.206,1.239-0.618c0.307-0.412,0.46-1.024,0.46-1.837
		c0-0.715-0.152-1.279-0.457-1.693C58.926,72.344,58.508,72.137,57.977,72.137 M49.69,80.111h-1.084v-8.777h0.99l0.053,0.703
		c0.441-0.547,1.055-0.82,1.84-0.82c0.762,0,1.364,0.287,1.808,0.861c0.443,0.574,0.665,1.373,0.665,2.397v0.1
		c0,0.965-0.221,1.742-0.662,2.332c-0.441,0.59-1.039,0.885-1.793,0.885c-0.77,0-1.375-0.244-1.816-0.732V80.111 M51.167,72.137
		c-0.656,0-1.148,0.291-1.477,0.873v3.029c0.324,0.578,0.82,0.867,1.488,0.867c0.52,0,0.933-0.206,1.239-0.618
		c0.307-0.412,0.46-1.024,0.46-1.837c0-0.715-0.152-1.279-0.457-1.693C52.116,72.344,51.698,72.137,51.167,72.137 M109.327,77.791
		c-0.508,0-0.957-0.09-1.348-0.27c-0.391-0.18-0.696-0.431-0.917-0.753c-0.221-0.322-0.331-0.671-0.331-1.046h1.084
		c0.02,0.363,0.165,0.651,0.437,0.864c0.271,0.213,0.63,0.319,1.075,0.319c0.41,0,0.739-0.083,0.987-0.249
		c0.248-0.166,0.372-0.388,0.372-0.665c0-0.293-0.11-0.52-0.331-0.683c-0.221-0.162-0.606-0.302-1.154-0.419
		c-0.549-0.117-0.984-0.258-1.307-0.422s-0.561-0.359-0.715-0.586c-0.154-0.227-0.231-0.496-0.231-0.809
		c0-0.52,0.22-0.959,0.659-1.318c0.439-0.359,1.001-0.539,1.685-0.539c0.719,0,1.302,0.186,1.749,0.557
		c0.447,0.371,0.671,0.846,0.671,1.424h-1.09c0-0.297-0.126-0.553-0.378-0.768c-0.252-0.215-0.569-0.322-0.952-0.322
		c-0.395,0-0.703,0.086-0.926,0.258c-0.223,0.172-0.334,0.397-0.334,0.674c0,0.262,0.103,0.459,0.311,0.592
		c0.207,0.133,0.581,0.26,1.122,0.381c0.541,0.121,0.979,0.266,1.315,0.434c0.336,0.168,0.585,0.37,0.747,0.606
		c0.162,0.236,0.243,0.524,0.243,0.864c0,0.566-0.227,1.021-0.68,1.362C110.637,77.62,110.05,77.791,109.327,77.791 M103.254,77.791
		c-0.859,0-1.559-0.282-2.098-0.847c-0.539-0.564-0.809-1.319-0.809-2.265V74.48c0-0.629,0.12-1.19,0.36-1.685
		c0.24-0.494,0.576-0.881,1.008-1.16c0.432-0.279,0.899-0.419,1.403-0.419c0.824,0,1.465,0.272,1.922,0.814
		c0.457,0.543,0.686,1.32,0.686,2.332v0.451h-4.295c0.016,0.625,0.198,1.13,0.548,1.515c0.35,0.385,0.794,0.577,1.333,0.577
		c0.383,0,0.707-0.078,0.973-0.234c0.266-0.156,0.498-0.363,0.697-0.621l0.662,0.516C105.113,77.383,104.316,77.791,103.254,77.791
		 M103.119,72.107c-0.438,0-0.805,0.159-1.102,0.478c-0.297,0.318-0.48,0.765-0.551,1.339h3.176v-0.082
		c-0.031-0.551-0.18-0.977-0.445-1.28C103.932,72.259,103.572,72.107,103.119,72.107 M95.723,77.791
		c-0.484,0-0.85-0.147-1.096-0.439c-0.246-0.293-0.369-0.709-0.369-1.248v-3.932h-1.154v-0.838h1.154v-1.535h1.084v1.535h1.184
		v0.838h-1.184v3.937c0,0.254,0.053,0.445,0.158,0.572c0.105,0.127,0.285,0.191,0.539,0.191c0.125,0,0.297-0.023,0.516-0.07v0.874
		C96.27,77.752,95.993,77.791,95.723,77.791 M79.612,77.791c-0.676,0-1.19-0.196-1.544-0.589c-0.354-0.393-0.532-0.974-0.536-1.743
		v-4.125h1.084v4.096c0,0.961,0.391,1.441,1.172,1.441c0.828,0,1.379-0.309,1.652-0.926v-4.611h1.084v6.34h-1.031l-0.023-0.627
		C81.047,77.543,80.428,77.791,79.612,77.791 M75.513,77.791c-0.484,0-0.85-0.147-1.096-0.439c-0.246-0.293-0.369-0.709-0.369-1.248
		v-3.932h-1.154v-0.838h1.154v-1.535h1.084v1.535h1.184v0.838h-1.184v3.937c0,0.254,0.053,0.445,0.158,0.572
		c0.105,0.127,0.285,0.191,0.539,0.191c0.125,0,0.297-0.023,0.516-0.07v0.874C76.06,77.752,75.783,77.791,75.513,77.791
		 M64.826,77.791c-0.859,0-1.556-0.299-2.089-0.896s-0.8-1.389-0.8-2.373v-0.076c0-0.621,0.122-1.18,0.366-1.676
		c0.244-0.496,0.584-0.879,1.02-1.148c0.436-0.27,0.933-0.404,1.491-0.404c0.863,0,1.561,0.299,2.095,0.896
		c0.533,0.598,0.8,1.393,0.8,2.385v0.076c0,0.617-0.118,1.171-0.355,1.661c-0.236,0.49-0.574,0.872-1.014,1.145
		C65.901,77.654,65.396,77.791,64.826,77.791 M64.814,72.107c-0.535,0-0.967,0.213-1.295,0.639
		c-0.328,0.426-0.492,1.035-0.492,1.828c0,0.703,0.163,1.268,0.489,1.693c0.326,0.426,0.763,0.639,1.31,0.639
		c0.551,0,0.988-0.216,1.313-0.647c0.324-0.432,0.486-1.036,0.486-1.813c0-0.695-0.165-1.259-0.495-1.69
		C65.8,72.323,65.361,72.107,64.814,72.107 M44.311,77.791c-0.859,0-1.556-0.299-2.089-0.896c-0.533-0.598-0.8-1.389-0.8-2.373
		v-0.076c0-0.621,0.122-1.18,0.366-1.676c0.244-0.496,0.584-0.879,1.02-1.148c0.436-0.27,0.933-0.404,1.491-0.404
		c0.863,0,1.561,0.299,2.095,0.896c0.533,0.598,0.8,1.393,0.8,2.385v0.076c0,0.617-0.118,1.171-0.355,1.661
		c-0.236,0.49-0.574,0.872-1.014,1.145C45.386,77.654,44.881,77.791,44.311,77.791 M44.299,72.107c-0.535,0-0.967,0.213-1.295,0.639
		c-0.328,0.426-0.492,1.035-0.492,1.828c0,0.703,0.163,1.268,0.489,1.693c0.326,0.426,0.763,0.639,1.31,0.639
		c0.551,0,0.988-0.216,1.313-0.647c0.324-0.432,0.486-1.036,0.486-1.813c0-0.695-0.165-1.259-0.495-1.69
		C45.285,72.323,44.846,72.107,44.299,72.107 M30.708,77.791c-0.859,0-1.559-0.282-2.098-0.847
		c-0.539-0.564-0.809-1.319-0.809-2.265V74.48c0-0.629,0.12-1.19,0.36-1.685c0.24-0.494,0.576-0.881,1.008-1.16
		c0.432-0.279,0.899-0.419,1.403-0.419c0.824,0,1.465,0.272,1.922,0.814c0.457,0.543,0.686,1.32,0.686,2.332v0.451h-4.295
		c0.016,0.625,0.198,1.13,0.548,1.515c0.35,0.385,0.794,0.577,1.333,0.577c0.383,0,0.707-0.078,0.973-0.234
		c0.266-0.156,0.498-0.363,0.697-0.621l0.662,0.516C32.567,77.383,31.771,77.791,30.708,77.791 M30.573,72.107
		c-0.438,0-0.805,0.159-1.102,0.478c-0.297,0.318-0.48,0.765-0.551,1.339h3.176v-0.082c-0.031-0.551-0.18-0.977-0.445-1.28
		C31.386,72.259,31.026,72.107,30.573,72.107 M19.369,77.791c-0.484,0-0.85-0.147-1.096-0.439c-0.246-0.293-0.369-0.709-0.369-1.248
		v-3.932H16.75v-0.838h1.154v-1.535h1.084v1.535h1.184v0.838h-1.184v3.937c0,0.254,0.053,0.445,0.158,0.572
		c0.105,0.127,0.285,0.191,0.539,0.191c0.125,0,0.297-0.023,0.516-0.07v0.874C19.916,77.752,19.639,77.791,19.369,77.791
		 M13.264,77.791c-0.859,0-1.556-0.299-2.089-0.896c-0.533-0.598-0.8-1.389-0.8-2.373v-0.076c0-0.621,0.122-1.18,0.366-1.676
		c0.244-0.496,0.584-0.879,1.02-1.148c0.436-0.27,0.933-0.404,1.491-0.404c0.863,0,1.562,0.299,2.095,0.896
		c0.533,0.598,0.8,1.393,0.8,2.385v0.076c0,0.617-0.118,1.171-0.355,1.661c-0.236,0.49-0.574,0.872-1.014,1.145
		C14.339,77.654,13.834,77.791,13.264,77.791 M13.252,72.107c-0.535,0-0.967,0.213-1.295,0.639
		c-0.328,0.426-0.492,1.035-0.492,1.828c0,0.703,0.163,1.268,0.489,1.693c0.326,0.426,0.763,0.639,1.31,0.639
		c0.551,0,0.988-0.216,1.313-0.647c0.324-0.432,0.486-1.036,0.486-1.813c0-0.695-0.165-1.259-0.495-1.69
		C14.237,72.323,13.799,72.107,13.252,72.107 M113.881,77.738c-0.223,0-0.39-0.061-0.501-0.182
		c-0.111-0.121-0.167-0.271-0.167-0.451c0-0.188,0.056-0.344,0.167-0.469c0.111-0.125,0.278-0.188,0.501-0.188
		c0.223,0,0.392,0.063,0.507,0.188c0.115,0.125,0.173,0.281,0.173,0.469c0,0.18-0.058,0.33-0.173,0.451
		C114.273,77.678,114.104,77.738,113.881,77.738 M98.895,77.674h-1.084v-6.34h1.084V77.674 M92.026,77.674h-1.084v-6.34h1.084
		V77.674 M89.219,77.674h-1.084v-4.195c-0.004-0.457-0.108-0.795-0.313-1.014c-0.205-0.219-0.524-0.328-0.958-0.328
		c-0.352,0-0.66,0.094-0.926,0.281c-0.266,0.188-0.473,0.434-0.621,0.738v4.518h-1.084v-6.34h1.025l0.035,0.797
		c0.484-0.609,1.117-0.914,1.898-0.914c1.34,0,2.016,0.756,2.027,2.268V77.674 M70.205,77.674h-1.084v-6.34h1.055l0.018,0.732
		c0.355-0.566,0.859-0.85,1.512-0.85c0.211,0,0.371,0.027,0.48,0.082v1.008c-0.164-0.027-0.342-0.041-0.533-0.041
		c-0.711,0-1.193,0.303-1.447,0.908V77.674 M35.642,77.674h-1.084v-6.34h1.055l0.018,0.732c0.355-0.566,0.859-0.85,1.512-0.85
		c0.211,0,0.371,0.027,0.48,0.082v1.008c-0.164-0.027-0.342-0.041-0.533-0.041c-0.711,0-1.193,0.303-1.447,0.908V77.674
		 M26.398,77.674h-1.084v-4.195c-0.004-0.457-0.108-0.795-0.313-1.014c-0.205-0.219-0.524-0.328-0.958-0.328
		c-0.352,0-0.66,0.094-0.926,0.281c-0.266,0.188-0.473,0.434-0.621,0.738v4.518h-1.084v-9h1.084v3.428
		c0.48-0.59,1.105-0.885,1.875-0.885c1.34,0,2.016,0.756,2.027,2.268V77.674 M98.362,70.268c-0.211,0-0.37-0.059-0.478-0.176
		c-0.107-0.117-0.161-0.264-0.161-0.439c0-0.176,0.054-0.324,0.161-0.445c0.107-0.121,0.267-0.182,0.478-0.182
		c0.211,0,0.371,0.061,0.48,0.182c0.109,0.121,0.164,0.27,0.164,0.445c0,0.176-0.055,0.322-0.164,0.439
		C98.733,70.209,98.572,70.268,98.362,70.268 M91.492,70.268c-0.211,0-0.37-0.059-0.478-0.176c-0.107-0.117-0.161-0.264-0.161-0.439
		c0-0.176,0.054-0.324,0.161-0.445c0.107-0.121,0.267-0.182,0.478-0.182c0.211,0,0.371,0.061,0.48,0.182
		c0.109,0.121,0.164,0.27,0.164,0.445c0,0.176-0.055,0.322-0.164,0.439C91.863,70.209,91.703,70.268,91.492,70.268"/>
	<path fill="#000000" d="M209.142,112.234l-0.205-0.018l-0.404-0.076v-0.879l0.293,0.023c0.367,0,0.653-0.074,0.858-0.223
		c0.205-0.148,0.374-0.42,0.507-0.814l0.24-0.645l-2.262-6.27h1.184l1.582,4.752l1.477-4.752h1.16l-2.549,7.318
		C210.628,111.707,210.001,112.234,209.142,112.234 M71.696,112.234l-0.205-0.018l-0.404-0.076v-0.879l0.293,0.023
		c0.367,0,0.653-0.074,0.858-0.223c0.205-0.148,0.374-0.42,0.507-0.814l0.24-0.645l-2.262-6.27h1.184l1.582,4.752l1.477-4.752h1.16
		l-2.549,7.318C73.182,111.707,72.555,112.234,71.696,112.234 M223.366,109.791c-0.676,0-1.19-0.196-1.544-0.589
		c-0.354-0.393-0.532-0.974-0.536-1.743v-4.125h1.084v4.096c0,0.961,0.391,1.441,1.172,1.441c0.828,0,1.379-0.309,1.652-0.926
		v-4.611h1.084v6.34h-1.031l-0.023-0.627C224.801,109.543,224.182,109.791,223.366,109.791 M217.021,109.791
		c-0.859,0-1.556-0.299-2.089-0.896c-0.533-0.598-0.8-1.389-0.8-2.373v-0.076c0-0.621,0.122-1.18,0.366-1.676
		c0.244-0.496,0.584-0.879,1.02-1.148c0.435-0.27,0.933-0.404,1.491-0.404c0.863,0,1.561,0.299,2.095,0.896
		c0.533,0.598,0.8,1.393,0.8,2.385v0.076c0,0.617-0.118,1.171-0.354,1.661c-0.236,0.49-0.574,0.872-1.014,1.146
		C218.097,109.654,217.592,109.791,217.021,109.791 M217.01,104.107c-0.535,0-0.967,0.213-1.295,0.639
		c-0.328,0.426-0.492,1.035-0.492,1.828c0,0.703,0.163,1.268,0.489,1.693c0.326,0.426,0.763,0.639,1.31,0.639
		c0.551,0,0.988-0.216,1.313-0.647c0.324-0.432,0.486-1.036,0.486-1.813c0-0.695-0.165-1.259-0.495-1.69
		C217.995,104.323,217.556,104.107,217.01,104.107 M202.044,109.791c-0.859,0-1.559-0.282-2.098-0.847
		c-0.539-0.564-0.809-1.319-0.809-2.265v-0.199c0-0.629,0.12-1.19,0.36-1.685c0.24-0.494,0.576-0.881,1.008-1.16
		c0.432-0.279,0.899-0.419,1.403-0.419c0.824,0,1.465,0.271,1.922,0.814c0.457,0.543,0.686,1.32,0.686,2.332v0.451h-4.295
		c0.016,0.625,0.198,1.13,0.548,1.515c0.35,0.385,0.794,0.577,1.333,0.577c0.383,0,0.707-0.078,0.973-0.234
		c0.266-0.156,0.498-0.363,0.697-0.621l0.662,0.516C203.903,109.383,203.106,109.791,202.044,109.791 M201.909,104.107
		c-0.438,0-0.805,0.159-1.102,0.478c-0.297,0.318-0.48,0.765-0.551,1.339h3.176v-0.082c-0.031-0.551-0.18-0.978-0.445-1.28
		C202.721,104.259,202.362,104.107,201.909,104.107 M191.081,109.791c-0.859,0-1.556-0.299-2.089-0.896
		c-0.533-0.598-0.8-1.389-0.8-2.373v-0.076c0-0.621,0.122-1.18,0.366-1.676c0.244-0.496,0.584-0.879,1.02-1.148
		c0.436-0.27,0.933-0.404,1.491-0.404c0.863,0,1.562,0.299,2.095,0.896c0.533,0.598,0.8,1.393,0.8,2.385v0.076
		c0,0.617-0.118,1.171-0.355,1.661c-0.236,0.49-0.574,0.872-1.014,1.146C192.156,109.654,191.651,109.791,191.081,109.791
		 M191.069,104.107c-0.535,0-0.967,0.213-1.295,0.639c-0.328,0.426-0.492,1.035-0.492,1.828c0,0.703,0.163,1.268,0.489,1.693
		c0.326,0.426,0.763,0.639,1.31,0.639c0.551,0,0.988-0.216,1.313-0.647c0.324-0.432,0.486-1.036,0.486-1.813
		c0-0.695-0.165-1.259-0.495-1.69C192.055,104.323,191.616,104.107,191.069,104.107 M180.75,109.791
		c-0.859,0-1.559-0.282-2.098-0.847c-0.539-0.564-0.809-1.319-0.809-2.265v-0.199c0-0.629,0.12-1.19,0.36-1.685
		c0.24-0.494,0.576-0.881,1.008-1.16c0.432-0.279,0.899-0.419,1.403-0.419c0.824,0,1.465,0.271,1.922,0.814
		c0.457,0.543,0.686,1.32,0.686,2.332v0.451h-4.295c0.016,0.625,0.198,1.13,0.548,1.515c0.35,0.385,0.794,0.577,1.333,0.577
		c0.383,0,0.707-0.078,0.973-0.234c0.266-0.156,0.498-0.363,0.697-0.621l0.662,0.516C182.61,109.383,181.813,109.791,180.75,109.791
		 M180.615,104.107c-0.438,0-0.805,0.159-1.102,0.478c-0.297,0.318-0.48,0.765-0.551,1.339h3.176v-0.082
		c-0.031-0.551-0.18-0.978-0.445-1.28C181.428,104.259,181.069,104.107,180.615,104.107 M174.218,109.791
		c-0.801,0-1.42-0.283-1.857-0.85l-0.053,0.732h-0.996v-9h1.084v3.357c0.437-0.543,1.041-0.814,1.811-0.814
		c0.77,0,1.374,0.291,1.813,0.873c0.439,0.582,0.659,1.379,0.659,2.391v0.094c0,0.969-0.223,1.747-0.668,2.335
		C175.565,109.497,174.968,109.791,174.218,109.791 M173.936,104.137c-0.715,0-1.229,0.332-1.541,0.996v2.742
		c0.332,0.664,0.85,0.996,1.553,0.996c0.519,0,0.924-0.201,1.213-0.603c0.289-0.402,0.434-1.008,0.434-1.816
		c0-0.738-0.143-1.309-0.428-1.711C174.882,104.338,174.471,104.137,173.936,104.137 M163.68,109.791
		c-0.734,0-1.333-0.301-1.796-0.902c-0.463-0.602-0.694-1.387-0.694-2.355v-0.082c0-0.973,0.23-1.755,0.691-2.347
		c0.461-0.592,1.064-0.888,1.811-0.888c0.742,0,1.33,0.254,1.764,0.762v-3.305h1.084v9h-0.996l-0.053-0.68
		C165.057,109.525,164.453,109.791,163.68,109.791 M163.961,104.137c-0.531,0-0.945,0.205-1.242,0.615
		c-0.297,0.41-0.445,1.018-0.445,1.822c0,0.719,0.148,1.281,0.445,1.687c0.297,0.406,0.707,0.609,1.23,0.609
		c0.687,0,1.189-0.309,1.506-0.926v-2.912C165.131,104.436,164.633,104.137,163.961,104.137 M157.6,109.791
		c-0.859,0-1.559-0.282-2.098-0.847c-0.539-0.564-0.809-1.319-0.809-2.265v-0.199c0-0.629,0.12-1.19,0.36-1.685
		c0.24-0.494,0.576-0.881,1.008-1.16c0.432-0.279,0.899-0.419,1.403-0.419c0.824,0,1.465,0.271,1.922,0.814
		c0.457,0.543,0.686,1.32,0.686,2.332v0.451h-4.295c0.016,0.625,0.198,1.13,0.548,1.515c0.35,0.385,0.794,0.577,1.333,0.577
		c0.383,0,0.707-0.078,0.973-0.234c0.266-0.156,0.498-0.363,0.697-0.621l0.662,0.516C159.46,109.383,158.663,109.791,157.6,109.791
		 M157.466,104.107c-0.438,0-0.805,0.159-1.102,0.478c-0.297,0.318-0.48,0.765-0.551,1.339h3.176v-0.082
		c-0.031-0.551-0.18-0.978-0.445-1.28C158.278,104.259,157.919,104.107,157.466,104.107 M153.054,109.791
		c-0.484,0-0.85-0.146-1.096-0.439c-0.246-0.293-0.369-0.709-0.369-1.248v-3.932h-1.154v-0.838h1.154v-1.535h1.084v1.535h1.184
		v0.838h-1.184v3.937c0,0.254,0.053,0.445,0.158,0.572c0.105,0.127,0.285,0.191,0.539,0.191c0.125,0,0.297-0.023,0.516-0.07v0.874
		C153.601,109.752,153.323,109.791,153.054,109.791 M146.593,109.791c-0.625,0-1.138-0.177-1.538-0.53
		c-0.4-0.353-0.601-0.802-0.601-1.345c0-0.66,0.251-1.173,0.753-1.538c0.502-0.365,1.208-0.548,2.118-0.548h1.055v-0.498
		c0-0.379-0.113-0.681-0.34-0.905c-0.227-0.225-0.561-0.337-1.002-0.337c-0.387,0-0.711,0.098-0.973,0.293
		c-0.262,0.195-0.393,0.432-0.393,0.709h-1.09c0-0.316,0.112-0.622,0.337-0.917c0.225-0.295,0.529-0.528,0.914-0.7
		c0.385-0.172,0.808-0.258,1.269-0.258c0.73,0,1.303,0.183,1.717,0.548c0.414,0.365,0.629,0.868,0.645,1.509v2.918
		c0,0.582,0.074,1.045,0.223,1.389v0.094h-1.137c-0.063-0.125-0.113-0.348-0.152-0.668
		C147.894,109.529,147.293,109.791,146.593,109.791 M147.531,106.598c-1.328,0-1.992,0.389-1.992,1.166
		c0,0.34,0.113,0.606,0.34,0.797c0.226,0.191,0.518,0.287,0.873,0.287c0.34,0,0.662-0.088,0.967-0.264
		c0.305-0.176,0.525-0.404,0.662-0.686v-1.301H147.531 M134.004,109.791c-0.484,0-0.85-0.146-1.096-0.439
		c-0.246-0.293-0.369-0.709-0.369-1.248v-3.932h-1.154v-0.838h1.154v-1.535h1.084v1.535h1.184v0.838h-1.184v3.937
		c0,0.254,0.053,0.445,0.158,0.572c0.105,0.127,0.285,0.191,0.539,0.191c0.125,0,0.297-0.023,0.516-0.07v0.874
		C134.551,109.752,134.274,109.791,134.004,109.791 M128.2,109.791c-0.863,0-1.55-0.288-2.06-0.864
		c-0.51-0.576-0.765-1.364-0.765-2.364v-0.182c0-0.617,0.113-1.166,0.34-1.646c0.227-0.48,0.552-0.853,0.976-1.119
		c0.424-0.266,0.925-0.398,1.503-0.398c0.711,0,1.302,0.213,1.773,0.639c0.471,0.426,0.722,0.979,0.753,1.658h-1.025
		c-0.031-0.41-0.187-0.747-0.466-1.011c-0.279-0.264-0.624-0.395-1.034-0.395c-0.551,0-0.978,0.198-1.28,0.595
		c-0.303,0.397-0.454,0.97-0.454,1.72v0.205c0,0.73,0.15,1.293,0.451,1.687c0.301,0.395,0.73,0.592,1.289,0.592
		c0.387,0,0.725-0.117,1.014-0.352c0.289-0.234,0.449-0.527,0.48-0.879h1.025c-0.02,0.363-0.145,0.709-0.375,1.037
		c-0.23,0.328-0.538,0.59-0.923,0.785C129.036,109.693,128.629,109.791,128.2,109.791 M121.084,109.791
		c-0.625,0-1.138-0.177-1.538-0.53c-0.4-0.353-0.601-0.802-0.601-1.345c0-0.66,0.251-1.173,0.753-1.538
		c0.502-0.365,1.208-0.548,2.118-0.548h1.055v-0.498c0-0.379-0.113-0.681-0.34-0.905c-0.227-0.225-0.561-0.337-1.002-0.337
		c-0.387,0-0.711,0.098-0.973,0.293c-0.262,0.195-0.393,0.432-0.393,0.709h-1.09c0-0.316,0.112-0.622,0.337-0.917
		c0.225-0.295,0.529-0.528,0.914-0.7c0.385-0.172,0.808-0.258,1.269-0.258c0.73,0,1.303,0.183,1.717,0.548
		c0.414,0.365,0.629,0.868,0.645,1.509v2.918c0,0.582,0.074,1.045,0.223,1.389v0.094h-1.137c-0.063-0.125-0.113-0.348-0.152-0.668
		C122.385,109.529,121.783,109.791,121.084,109.791 M122.021,106.598c-1.328,0-1.992,0.389-1.992,1.166
		c0,0.34,0.113,0.606,0.34,0.797c0.227,0.191,0.518,0.287,0.873,0.287c0.34,0,0.662-0.088,0.967-0.264
		c0.305-0.176,0.525-0.404,0.662-0.686v-1.301H122.021 M85.92,109.791c-0.676,0-1.19-0.196-1.544-0.589
		c-0.354-0.393-0.532-0.974-0.536-1.743v-4.125h1.084v4.096c0,0.961,0.391,1.441,1.172,1.441c0.828,0,1.379-0.309,1.652-0.926
		v-4.611h1.084v6.34h-1.031l-0.023-0.627C87.355,109.543,86.736,109.791,85.92,109.791 M79.575,109.791
		c-0.859,0-1.556-0.299-2.089-0.896c-0.533-0.598-0.8-1.389-0.8-2.373v-0.076c0-0.621,0.122-1.18,0.366-1.676
		c0.244-0.496,0.584-0.879,1.02-1.148c0.436-0.27,0.933-0.404,1.491-0.404c0.863,0,1.562,0.299,2.095,0.896
		c0.533,0.598,0.8,1.393,0.8,2.385v0.076c0,0.617-0.118,1.171-0.355,1.661c-0.236,0.49-0.574,0.872-1.014,1.146
		C80.651,109.654,80.146,109.791,79.575,109.791 M79.564,104.107c-0.535,0-0.967,0.213-1.295,0.639
		c-0.328,0.426-0.492,1.035-0.492,1.828c0,0.703,0.163,1.268,0.489,1.693c0.326,0.426,0.763,0.639,1.31,0.639
		c0.551,0,0.988-0.216,1.313-0.647c0.324-0.432,0.486-1.036,0.486-1.813c0-0.695-0.165-1.259-0.495-1.69
		C80.549,104.323,80.111,104.107,79.564,104.107 M63.783,109.791c-0.734,0-1.333-0.301-1.796-0.902
		c-0.463-0.602-0.694-1.387-0.694-2.355v-0.082c0-0.973,0.23-1.755,0.691-2.347c0.461-0.592,1.064-0.888,1.811-0.888
		c0.742,0,1.33,0.254,1.764,0.762v-3.305h1.084v9h-0.996l-0.053-0.68C65.16,109.525,64.557,109.791,63.783,109.791 M64.064,104.137
		c-0.531,0-0.945,0.205-1.242,0.615c-0.297,0.41-0.445,1.018-0.445,1.822c0,0.719,0.148,1.281,0.445,1.687
		c0.297,0.406,0.707,0.609,1.23,0.609c0.687,0,1.189-0.309,1.506-0.926v-2.912C65.234,104.436,64.736,104.137,64.064,104.137
		 M57.704,109.791c-0.859,0-1.559-0.282-2.098-0.847c-0.539-0.564-0.809-1.319-0.809-2.265v-0.199c0-0.629,0.12-1.19,0.36-1.685
		c0.24-0.494,0.576-0.881,1.008-1.16c0.432-0.279,0.899-0.419,1.403-0.419c0.824,0,1.465,0.271,1.922,0.814
		c0.457,0.543,0.686,1.32,0.686,2.332v0.451h-4.295c0.016,0.625,0.198,1.13,0.548,1.515c0.35,0.385,0.794,0.577,1.333,0.577
		c0.383,0,0.707-0.078,0.973-0.234c0.266-0.156,0.498-0.363,0.697-0.621l0.662,0.516C59.563,109.383,58.767,109.791,57.704,109.791
		 M57.569,104.107c-0.438,0-0.805,0.159-1.102,0.478c-0.297,0.318-0.48,0.765-0.551,1.339h3.176v-0.082
		c-0.031-0.551-0.18-0.978-0.445-1.28C58.382,104.259,58.022,104.107,57.569,104.107 M51.241,109.791
		c-0.859,0-1.559-0.282-2.098-0.847c-0.539-0.564-0.809-1.319-0.809-2.265v-0.199c0-0.629,0.12-1.19,0.36-1.685
		c0.24-0.494,0.576-0.881,1.008-1.16c0.432-0.279,0.899-0.419,1.403-0.419c0.824,0,1.465,0.271,1.922,0.814
		c0.457,0.543,0.686,1.32,0.686,2.332v0.451h-4.295c0.016,0.625,0.198,1.13,0.548,1.515c0.35,0.385,0.794,0.577,1.333,0.577
		c0.383,0,0.707-0.078,0.973-0.234c0.266-0.156,0.498-0.363,0.697-0.621l0.662,0.516C53.1,109.383,52.304,109.791,51.241,109.791
		 M51.106,104.107c-0.438,0-0.805,0.159-1.102,0.478c-0.297,0.318-0.48,0.765-0.551,1.339h3.176v-0.082
		c-0.031-0.551-0.18-0.978-0.445-1.28C51.919,104.259,51.559,104.107,51.106,104.107 M26.059,109.791
		c-0.676,0-1.19-0.196-1.544-0.589c-0.354-0.393-0.532-0.974-0.536-1.743v-4.125h1.084v4.096c0,0.961,0.391,1.441,1.172,1.441
		c0.828,0,1.379-0.309,1.652-0.926v-4.611h1.084v6.34H27.94l-0.023-0.627C27.495,109.543,26.876,109.791,26.059,109.791
		 M19.715,109.791c-0.859,0-1.556-0.299-2.089-0.896c-0.533-0.598-0.8-1.389-0.8-2.373v-0.076c0-0.621,0.122-1.18,0.366-1.676
		c0.244-0.496,0.584-0.879,1.02-1.148c0.436-0.27,0.933-0.404,1.491-0.404c0.863,0,1.562,0.299,2.095,0.896
		c0.533,0.598,0.8,1.393,0.8,2.385v0.076c0,0.617-0.118,1.171-0.355,1.661c-0.236,0.49-0.574,0.872-1.014,1.146
		C20.79,109.654,20.285,109.791,19.715,109.791 M19.703,104.107c-0.535,0-0.967,0.213-1.295,0.639
		c-0.328,0.426-0.492,1.035-0.492,1.828c0,0.703,0.163,1.268,0.489,1.693c0.326,0.426,0.763,0.639,1.31,0.639
		c0.551,0,0.988-0.216,1.313-0.647c0.324-0.432,0.486-1.036,0.486-1.813c0-0.695-0.165-1.259-0.495-1.69
		C20.688,104.323,20.25,104.107,19.703,104.107 M196.46,109.674h-1.084v-6.34h1.055l0.018,0.732c0.355-0.566,0.859-0.85,1.512-0.85
		c0.211,0,0.371,0.027,0.48,0.082v1.008c-0.164-0.027-0.342-0.041-0.533-0.041c-0.711,0-1.193,0.303-1.447,0.908V109.674
		 M186.08,109.674h-1.084v-5.502h-1.002v-0.838h1.002v-0.65c0-0.68,0.182-1.205,0.545-1.576c0.363-0.371,0.877-0.557,1.541-0.557
		c0.25,0,0.498,0.033,0.744,0.099l-0.059,0.874c-0.184-0.035-0.379-0.053-0.586-0.053c-0.352,0-0.623,0.103-0.814,0.309
		c-0.191,0.206-0.287,0.501-0.287,0.885v0.67h1.354v0.838h-1.354V109.674 M141.446,109.674h-0.826l-2.297-6.34h1.107l1.611,4.869
		l1.57-4.869h1.107L141.446,109.674 M137.176,109.674h-1.084v-6.34h1.084V109.674 M110.698,109.674h-2.361v-8.531h2.408
		c0.742,0,1.398,0.164,1.969,0.492c0.57,0.328,1.011,0.795,1.321,1.4c0.311,0.606,0.468,1.301,0.472,2.086v0.545
		c0,0.805-0.155,1.51-0.466,2.115c-0.311,0.606-0.754,1.07-1.33,1.395C112.135,109.5,111.464,109.666,110.698,109.674
		 M109.462,102.063v6.691h1.184c0.867,0,1.542-0.27,2.024-0.809c0.482-0.54,0.724-1.308,0.724-2.305v-0.499
		c0-0.97-0.228-1.723-0.683-2.261c-0.455-0.538-1.101-0.81-1.937-0.818H109.462 M106.235,109.674h-1.125v-8.531h1.125V109.674
		 M103.587,109.674h-6.211v-0.844l4.676-6.768h-4.6v-0.92h5.947v0.821l-4.693,6.79h4.881V109.674 M91.625,109.674h-1.084v-6.34
		h1.055l0.018,0.732c0.355-0.566,0.859-0.85,1.512-0.85c0.211,0,0.371,0.027,0.48,0.082v1.008c-0.164-0.027-0.342-0.041-0.533-0.041
		c-0.711,0-1.193,0.303-1.447,0.908V109.674 M46.925,109.674h-1.084v-4.195c-0.004-0.457-0.108-0.795-0.313-1.014
		c-0.205-0.219-0.524-0.328-0.958-0.328c-0.352,0-0.66,0.094-0.926,0.281c-0.266,0.188-0.473,0.434-0.621,0.738v4.518h-1.084v-6.34
		h1.025l0.035,0.797c0.484-0.609,1.117-0.914,1.898-0.914c1.34,0,2.016,0.756,2.027,2.268V109.674 M37.114,109.674H36.03v-9h1.084
		V109.674 M34.234,109.674H33.15v-9h1.084V109.674 M13.996,109.674h-1.125v-3.182l-2.941-5.35h1.289l2.215,4.283l2.227-4.283h1.277
		l-2.941,5.35V109.674 M30.761,103.545l-0.615-0.422c0.363-0.508,0.551-1.043,0.563-1.605v-0.844h1.072v0.762
		c-0.004,0.391-0.101,0.78-0.29,1.169C31.301,102.993,31.058,103.307,30.761,103.545 M136.643,102.268
		c-0.211,0-0.37-0.059-0.478-0.176c-0.107-0.117-0.161-0.264-0.161-0.439c0-0.176,0.054-0.324,0.161-0.445
		c0.107-0.121,0.267-0.182,0.478-0.182c0.211,0,0.371,0.061,0.48,0.182c0.109,0.121,0.164,0.27,0.164,0.445
		c0,0.176-0.055,0.322-0.164,0.439C137.014,102.209,136.854,102.268,136.643,102.268"/>
	<path fill="#000000" d="M112.727,128.17c-0.457,0-0.904-0.098-1.342-0.293c-0.438-0.195-0.771-0.463-1.002-0.803l0.563-0.65
		c0.465,0.574,1.033,0.861,1.705,0.861c0.527,0,0.938-0.148,1.233-0.445c0.295-0.297,0.442-0.715,0.442-1.254v-0.545
		c-0.434,0.5-1.025,0.75-1.775,0.75c-0.742,0-1.343-0.299-1.802-0.896c-0.459-0.598-0.688-1.412-0.688-2.443
		c0-0.988,0.229-1.774,0.686-2.358c0.457-0.584,1.063-0.876,1.816-0.876c0.773,0,1.377,0.273,1.811,0.82l0.053-0.703h0.99v6.188
		c0,0.82-0.243,1.467-0.73,1.939C114.2,127.934,113.547,128.17,112.727,128.17 M112.832,120.137c-0.527,0-0.94,0.205-1.236,0.615
		c-0.297,0.41-0.445,1.018-0.445,1.822c0,0.715,0.147,1.276,0.439,1.685c0.293,0.408,0.703,0.612,1.23,0.612
		c0.684,0,1.186-0.311,1.506-0.932v-2.895C113.994,120.439,113.496,120.137,112.832,120.137 M98.185,128.111h-1.084v-8.777h0.99
		l0.053,0.703c0.441-0.547,1.055-0.82,1.84-0.82c0.762,0,1.364,0.287,1.808,0.861c0.443,0.574,0.665,1.373,0.665,2.396v0.1
		c0,0.965-0.221,1.742-0.662,2.332c-0.441,0.59-1.039,0.885-1.793,0.885c-0.77,0-1.375-0.244-1.816-0.732V128.111 M99.661,120.137
		c-0.656,0-1.148,0.291-1.477,0.873v3.029c0.324,0.578,0.82,0.867,1.488,0.867c0.519,0,0.933-0.206,1.239-0.618
		c0.307-0.412,0.46-1.024,0.46-1.837c0-0.715-0.152-1.279-0.457-1.693C100.61,120.344,100.192,120.137,99.661,120.137
		 M119.755,125.791c-0.859,0-1.559-0.282-2.098-0.847c-0.539-0.564-0.809-1.319-0.809-2.265v-0.199c0-0.629,0.12-1.19,0.36-1.685
		c0.24-0.494,0.576-0.881,1.008-1.16c0.432-0.279,0.899-0.419,1.403-0.419c0.824,0,1.465,0.271,1.922,0.814
		c0.457,0.543,0.686,1.32,0.686,2.332v0.451h-4.295c0.016,0.625,0.198,1.13,0.548,1.515c0.35,0.385,0.794,0.577,1.333,0.577
		c0.383,0,0.707-0.078,0.973-0.234c0.266-0.156,0.498-0.363,0.697-0.621l0.662,0.516
		C121.614,125.383,120.817,125.791,119.755,125.791 M119.62,120.107c-0.438,0-0.805,0.159-1.102,0.478
		c-0.297,0.318-0.48,0.765-0.551,1.339h3.176v-0.082c-0.031-0.551-0.18-0.978-0.445-1.28
		C120.433,120.259,120.073,120.107,119.62,120.107 M105.758,125.791c-0.625,0-1.138-0.177-1.538-0.53
		c-0.4-0.353-0.601-0.802-0.601-1.345c0-0.66,0.251-1.173,0.753-1.538c0.502-0.365,1.208-0.548,2.118-0.548h1.055v-0.498
		c0-0.379-0.113-0.681-0.34-0.905c-0.227-0.225-0.561-0.337-1.002-0.337c-0.387,0-0.711,0.098-0.973,0.293
		c-0.262,0.195-0.393,0.432-0.393,0.709h-1.09c0-0.316,0.112-0.622,0.337-0.917c0.225-0.295,0.529-0.528,0.914-0.7
		c0.385-0.172,0.808-0.258,1.269-0.258c0.73,0,1.303,0.183,1.717,0.548c0.414,0.365,0.629,0.868,0.645,1.509v2.918
		c0,0.582,0.074,1.045,0.223,1.389v0.094h-1.137c-0.063-0.125-0.113-0.348-0.152-0.668
		C107.059,125.529,106.457,125.791,105.758,125.791 M106.695,122.598c-1.328,0-1.992,0.389-1.992,1.166
		c0,0.34,0.113,0.606,0.34,0.797c0.227,0.191,0.518,0.287,0.873,0.287c0.34,0,0.662-0.088,0.967-0.264
		c0.305-0.176,0.525-0.404,0.662-0.686v-1.301H106.695 M90.154,125.791c-0.508,0-0.957-0.09-1.348-0.27
		c-0.391-0.18-0.696-0.431-0.917-0.753c-0.221-0.322-0.331-0.671-0.331-1.046h1.084c0.02,0.363,0.165,0.651,0.437,0.864
		c0.271,0.213,0.63,0.319,1.075,0.319c0.41,0,0.739-0.083,0.987-0.249c0.248-0.166,0.372-0.388,0.372-0.665
		c0-0.293-0.11-0.52-0.331-0.683c-0.221-0.162-0.606-0.302-1.154-0.419c-0.549-0.117-0.984-0.258-1.307-0.422
		c-0.322-0.164-0.561-0.359-0.715-0.586c-0.154-0.227-0.231-0.496-0.231-0.809c0-0.519,0.22-0.959,0.659-1.318
		c0.439-0.359,1.001-0.539,1.685-0.539c0.719,0,1.302,0.186,1.749,0.557c0.447,0.371,0.671,0.846,0.671,1.424h-1.09
		c0-0.297-0.126-0.553-0.378-0.768c-0.252-0.215-0.569-0.322-0.952-0.322c-0.395,0-0.703,0.086-0.926,0.258
		c-0.223,0.172-0.334,0.396-0.334,0.674c0,0.262,0.104,0.459,0.311,0.592c0.207,0.133,0.581,0.26,1.122,0.381
		c0.541,0.121,0.979,0.266,1.315,0.434c0.336,0.168,0.585,0.37,0.747,0.606c0.162,0.236,0.243,0.524,0.243,0.864
		c0,0.566-0.227,1.021-0.68,1.362C91.465,125.62,90.877,125.791,90.154,125.791 M76.295,125.791c-0.484,0-0.85-0.146-1.096-0.439
		c-0.246-0.293-0.369-0.709-0.369-1.248v-3.932h-1.154v-0.838h1.154v-1.535h1.084v1.535h1.184v0.838h-1.184v3.937
		c0,0.254,0.053,0.445,0.158,0.572c0.105,0.127,0.285,0.191,0.539,0.191c0.125,0,0.297-0.023,0.516-0.07v0.874
		C76.842,125.752,76.565,125.791,76.295,125.791 M67.497,125.791c-0.508,0-0.957-0.09-1.348-0.27
		c-0.391-0.18-0.696-0.431-0.917-0.753c-0.221-0.322-0.331-0.671-0.331-1.046h1.084c0.019,0.363,0.165,0.651,0.437,0.864
		c0.271,0.213,0.63,0.319,1.075,0.319c0.41,0,0.739-0.083,0.987-0.249c0.248-0.166,0.372-0.388,0.372-0.665
		c0-0.293-0.11-0.52-0.331-0.683c-0.221-0.162-0.606-0.302-1.154-0.419c-0.549-0.117-0.984-0.258-1.307-0.422
		c-0.322-0.164-0.561-0.359-0.715-0.586c-0.154-0.227-0.231-0.496-0.231-0.809c0-0.519,0.22-0.959,0.659-1.318
		c0.439-0.359,1.001-0.539,1.685-0.539c0.719,0,1.302,0.186,1.749,0.557c0.447,0.371,0.671,0.846,0.671,1.424h-1.09
		c0-0.297-0.126-0.553-0.378-0.768c-0.252-0.215-0.569-0.322-0.952-0.322c-0.395,0-0.703,0.086-0.926,0.258
		c-0.223,0.172-0.334,0.396-0.334,0.674c0,0.262,0.103,0.459,0.311,0.592c0.207,0.133,0.581,0.26,1.122,0.381
		c0.541,0.121,0.979,0.266,1.315,0.434c0.336,0.168,0.585,0.37,0.747,0.606c0.162,0.236,0.243,0.524,0.243,0.864
		c0,0.566-0.227,1.021-0.68,1.362C68.808,125.62,68.22,125.791,67.497,125.791 M61.288,125.791c-0.508,0-0.957-0.09-1.348-0.27
		c-0.391-0.18-0.696-0.431-0.917-0.753c-0.221-0.322-0.331-0.671-0.331-1.046h1.084c0.019,0.363,0.165,0.651,0.437,0.864
		c0.271,0.213,0.63,0.319,1.075,0.319c0.41,0,0.739-0.083,0.987-0.249c0.248-0.166,0.372-0.388,0.372-0.665
		c0-0.293-0.11-0.52-0.331-0.683c-0.221-0.162-0.606-0.302-1.154-0.419c-0.549-0.117-0.984-0.258-1.307-0.422
		c-0.322-0.164-0.561-0.359-0.715-0.586c-0.154-0.227-0.231-0.496-0.231-0.809c0-0.519,0.22-0.959,0.659-1.318
		c0.439-0.359,1.001-0.539,1.685-0.539c0.719,0,1.302,0.186,1.749,0.557c0.447,0.371,0.671,0.846,0.671,1.424h-1.09
		c0-0.297-0.126-0.553-0.378-0.768c-0.252-0.215-0.569-0.322-0.952-0.322c-0.395,0-0.703,0.086-0.926,0.258
		c-0.223,0.172-0.334,0.396-0.334,0.674c0,0.262,0.103,0.459,0.311,0.592c0.207,0.133,0.581,0.26,1.122,0.381
		c0.541,0.121,0.979,0.266,1.315,0.434c0.336,0.168,0.585,0.37,0.747,0.606c0.162,0.236,0.243,0.524,0.243,0.864
		c0,0.566-0.227,1.021-0.68,1.362C62.599,125.62,62.011,125.791,61.288,125.791 M55.215,125.791c-0.859,0-1.559-0.282-2.098-0.847
		c-0.539-0.564-0.809-1.319-0.809-2.265v-0.199c0-0.629,0.12-1.19,0.36-1.685c0.24-0.494,0.576-0.881,1.008-1.16
		c0.432-0.279,0.899-0.419,1.403-0.419c0.824,0,1.465,0.271,1.922,0.814c0.457,0.543,0.686,1.32,0.686,2.332v0.451h-4.295
		c0.016,0.625,0.198,1.13,0.548,1.515c0.35,0.385,0.794,0.577,1.333,0.577c0.383,0,0.707-0.078,0.973-0.234
		c0.266-0.156,0.498-0.363,0.697-0.621l0.662,0.516C57.075,125.383,56.278,125.791,55.215,125.791 M55.08,120.107
		c-0.438,0-0.805,0.159-1.102,0.478c-0.297,0.318-0.48,0.765-0.551,1.339h3.176v-0.082c-0.031-0.551-0.18-0.978-0.445-1.28
		C55.893,120.259,55.534,120.107,55.08,120.107 M48.751,125.791c-0.863,0-1.55-0.288-2.06-0.864
		c-0.51-0.576-0.765-1.364-0.765-2.364v-0.182c0-0.617,0.113-1.166,0.34-1.646c0.227-0.48,0.552-0.853,0.976-1.119
		c0.424-0.266,0.925-0.398,1.503-0.398c0.711,0,1.302,0.213,1.772,0.639c0.471,0.426,0.722,0.979,0.753,1.658h-1.025
		c-0.031-0.41-0.187-0.747-0.466-1.011c-0.279-0.264-0.624-0.395-1.034-0.395c-0.551,0-0.978,0.198-1.28,0.595
		c-0.303,0.396-0.454,0.97-0.454,1.72v0.205c0,0.731,0.15,1.293,0.451,1.688c0.301,0.395,0.73,0.592,1.289,0.592
		c0.387,0,0.725-0.117,1.014-0.352c0.289-0.234,0.449-0.527,0.48-0.879h1.025c-0.02,0.363-0.145,0.709-0.375,1.037
		c-0.231,0.328-0.538,0.59-0.923,0.785C49.588,125.693,49.181,125.791,48.751,125.791 M42.363,125.791
		c-0.863,0-1.55-0.288-2.06-0.864c-0.51-0.576-0.765-1.364-0.765-2.364v-0.182c0-0.617,0.113-1.166,0.34-1.646
		c0.227-0.48,0.552-0.853,0.976-1.119c0.424-0.266,0.925-0.398,1.503-0.398c0.711,0,1.302,0.213,1.772,0.639
		c0.471,0.426,0.722,0.979,0.753,1.658h-1.025c-0.031-0.41-0.187-0.747-0.466-1.011c-0.279-0.264-0.624-0.395-1.034-0.395
		c-0.551,0-0.978,0.198-1.28,0.595c-0.303,0.396-0.454,0.97-0.454,1.72v0.205c0,0.731,0.15,1.293,0.451,1.688
		c0.301,0.395,0.73,0.592,1.289,0.592c0.387,0,0.725-0.117,1.014-0.352c0.289-0.234,0.449-0.527,0.48-0.879h1.025
		c-0.02,0.363-0.145,0.709-0.375,1.037c-0.231,0.328-0.538,0.59-0.923,0.785C43.2,125.693,42.793,125.791,42.363,125.791
		 M35.248,125.791c-0.625,0-1.138-0.177-1.538-0.53c-0.4-0.353-0.601-0.802-0.601-1.345c0-0.66,0.251-1.173,0.753-1.538
		c0.502-0.365,1.208-0.548,2.118-0.548h1.055v-0.498c0-0.379-0.113-0.681-0.34-0.905c-0.227-0.225-0.561-0.337-1.002-0.337
		c-0.387,0-0.711,0.098-0.973,0.293c-0.262,0.195-0.393,0.432-0.393,0.709h-1.09c0-0.316,0.112-0.622,0.337-0.917
		c0.225-0.295,0.529-0.528,0.914-0.7c0.385-0.172,0.808-0.258,1.269-0.258c0.73,0,1.303,0.183,1.717,0.548
		c0.414,0.365,0.629,0.868,0.645,1.509v2.918c0,0.582,0.074,1.045,0.223,1.389v0.094h-1.137c-0.063-0.125-0.113-0.348-0.152-0.668
		C36.548,125.529,35.947,125.791,35.248,125.791 M36.185,122.598c-1.328,0-1.992,0.389-1.992,1.166c0,0.34,0.113,0.606,0.34,0.797
		c0.227,0.191,0.518,0.287,0.873,0.287c0.34,0,0.662-0.088,0.967-0.264c0.305-0.176,0.525-0.404,0.662-0.686v-1.301H36.185
		 M18.977,125.791c-0.625,0-1.138-0.177-1.538-0.53c-0.4-0.353-0.601-0.802-0.601-1.345c0-0.66,0.251-1.173,0.753-1.538
		c0.502-0.365,1.208-0.548,2.118-0.548h1.055v-0.498c0-0.379-0.113-0.681-0.34-0.905c-0.227-0.225-0.561-0.337-1.002-0.337
		c-0.387,0-0.711,0.098-0.973,0.293c-0.262,0.195-0.393,0.432-0.393,0.709h-1.09c0-0.316,0.112-0.622,0.337-0.917
		c0.225-0.295,0.529-0.528,0.914-0.7c0.385-0.172,0.808-0.258,1.269-0.258c0.73,0,1.303,0.183,1.717,0.548
		c0.414,0.365,0.629,0.868,0.645,1.509v2.918c0,0.582,0.074,1.045,0.223,1.389v0.094h-1.137c-0.063-0.125-0.113-0.348-0.152-0.668
		C20.278,125.529,19.676,125.791,18.977,125.791 M19.915,122.598c-1.328,0-1.992,0.389-1.992,1.166c0,0.34,0.113,0.606,0.34,0.797
		c0.227,0.191,0.518,0.287,0.873,0.287c0.34,0,0.662-0.088,0.967-0.264c0.305-0.176,0.525-0.404,0.662-0.686v-1.301H19.915
		 M13.205,125.791c-0.863,0-1.55-0.288-2.06-0.864c-0.51-0.576-0.765-1.364-0.765-2.364v-0.182c0-0.617,0.113-1.166,0.34-1.646
		c0.227-0.48,0.552-0.853,0.976-1.119c0.424-0.266,0.925-0.398,1.503-0.398c0.711,0,1.302,0.213,1.772,0.639
		c0.471,0.426,0.722,0.979,0.753,1.658h-1.025c-0.031-0.41-0.187-0.747-0.466-1.011c-0.279-0.264-0.624-0.395-1.034-0.395
		c-0.551,0-0.978,0.198-1.28,0.595c-0.303,0.396-0.454,0.97-0.454,1.72v0.205c0,0.731,0.15,1.293,0.451,1.688
		c0.301,0.395,0.73,0.592,1.289,0.592c0.387,0,0.725-0.117,1.014-0.352c0.289-0.234,0.449-0.527,0.48-0.879h1.025
		c-0.02,0.363-0.145,0.709-0.375,1.037c-0.231,0.328-0.538,0.59-0.923,0.785C14.042,125.693,13.635,125.791,13.205,125.791
		 M124.151,125.738c-0.223,0-0.39-0.061-0.501-0.182c-0.111-0.121-0.167-0.271-0.167-0.451c0-0.187,0.056-0.344,0.167-0.469
		c0.111-0.125,0.278-0.187,0.501-0.187c0.223,0,0.392,0.063,0.507,0.187c0.115,0.125,0.173,0.281,0.173,0.469
		c0,0.18-0.058,0.33-0.173,0.451C124.543,125.678,124.374,125.738,124.151,125.738 M86.124,125.674H85.04v-6.34h1.084V125.674
		 M83.323,125.674h-1.084v-4.195c-0.004-0.457-0.108-0.795-0.313-1.014c-0.205-0.219-0.524-0.328-0.958-0.328
		c-0.352,0-0.66,0.094-0.926,0.281c-0.266,0.187-0.473,0.434-0.621,0.738v4.518h-1.084v-9h1.084v3.428
		c0.48-0.59,1.105-0.885,1.875-0.885c1.34,0,2.016,0.756,2.027,2.268V125.674 M28.565,125.674h-1.084v-4.195
		c-0.004-0.457-0.108-0.795-0.313-1.014c-0.205-0.219-0.524-0.328-0.958-0.328c-0.352,0-0.66,0.094-0.926,0.281
		c-0.266,0.187-0.473,0.434-0.621,0.738v4.518h-1.084v-6.34h1.025l0.035,0.797c0.484-0.609,1.117-0.914,1.898-0.914
		c1.34,0,2.016,0.756,2.027,2.268V125.674 M85.591,118.268c-0.211,0-0.37-0.059-0.478-0.176c-0.108-0.117-0.161-0.264-0.161-0.439
		c0-0.176,0.054-0.324,0.161-0.445c0.107-0.121,0.267-0.182,0.478-0.182c0.211,0,0.371,0.061,0.48,0.182
		c0.109,0.121,0.164,0.27,0.164,0.445c0,0.176-0.055,0.322-0.164,0.439C85.962,118.209,85.802,118.268,85.591,118.268"/>
</g>
</svg>
