<!-- Generator: Adobe InDesign 20.4 SVG Export Plug-in, SVG Library version: 9.3 build 117 -->
<!DOCTYPE svg PUBLIC "-//W3C//DTD SVG 1.1//EN" "http://www.w3.org/Graphics/SVG/1.1/DTD/svg11.dtd">
<svg version="1.1" xmlns="http://www.w3.org/2000/svg" xmlns:xlink="http://www.w3.org/1999/xlink" x="0%" y="0%" width="100%"
	 height="100%" viewBox="0 0 252.319 163.426" preserveAspectRatio="xMidYMid slice" overflow="visible" xml:space="preserve">
<clipPath id="clp_unq_id_1" fill="none">
	<path shape-rendering="crispEdges" stroke="#000000" d="M0,0h252.319v163.426H0V0"/>
</clipPath>
<g clip-path="url(#clp_unq_id_1)" fill="none">
	<g transform="matrix(1 0 0 1 9.8418 77.6738)">
		<path stroke="#0080FF" stroke-width="0.5859" stroke-miterlimit="10" d="M77.251,2h48.172"/>
	</g>
	<g transform="matrix(1 0 0 1 9.8418 125.6738)">
		<path stroke="#0080FF" stroke-width="0.5859" stroke-miterlimit="10" d="M10.916,2h28.435"/>
	</g>
	<g transform="matrix(1 0 0 1 9.8418 141.6738)">
		<path stroke="#0080FF" stroke-width="0.5859" stroke-miterlimit="10" d="M10.829,2h45.443"/>
	</g>
	<g transform="matrix(1 0 0 1 9.8418 157.6738)">
		<path stroke="#0080FF" stroke-width="0.5859" stroke-miterlimit="10" d="M10.916,2h75.331"/>
	</g>
	<path fill="#000000" d="M128.887,16.234l-0.205-0.018l-0.404-0.076v-0.879l0.293,0.023c0.367,0,0.653-0.074,0.858-0.223
		c0.205-0.149,0.374-0.42,0.507-0.814l0.24-0.645l-2.262-6.27h1.184l1.582,4.752l1.477-4.752h1.16l-2.549,7.318
		C130.373,15.707,129.746,16.234,128.887,16.234 M143.731,13.791c-0.859,0-1.556-0.299-2.089-0.897
		c-0.533-0.598-0.8-1.389-0.8-2.373v-0.076c0-0.621,0.122-1.18,0.366-1.676c0.244-0.496,0.584-0.879,1.02-1.148
		c0.436-0.27,0.933-0.404,1.491-0.404c0.863,0,1.562,0.299,2.095,0.896c0.533,0.598,0.8,1.393,0.8,2.385v0.076
		c0,0.617-0.118,1.171-0.354,1.661c-0.236,0.49-0.574,0.872-1.014,1.146C144.806,13.654,144.301,13.791,143.731,13.791
		 M143.719,8.107c-0.535,0-0.967,0.213-1.295,0.639c-0.328,0.426-0.492,1.035-0.492,1.828c0,0.703,0.163,1.268,0.489,1.693
		c0.326,0.426,0.763,0.639,1.31,0.639c0.551,0,0.988-0.216,1.312-0.647c0.324-0.432,0.486-1.036,0.486-1.813
		c0-0.695-0.165-1.259-0.495-1.69C144.705,8.323,144.266,8.107,143.719,8.107 M139.226,13.791c-0.484,0-0.85-0.146-1.096-0.439
		c-0.246-0.293-0.369-0.709-0.369-1.248V8.172h-1.154V7.334h1.154V5.799h1.084v1.535h1.184v0.838h-1.184v3.937
		c0,0.254,0.053,0.445,0.158,0.572c0.105,0.127,0.285,0.191,0.539,0.191c0.125,0,0.297-0.023,0.516-0.07v0.874
		C139.772,13.752,139.495,13.791,139.226,13.791 M124.177,13.791c-0.625,0-1.138-0.177-1.538-0.53
		c-0.4-0.353-0.601-0.802-0.601-1.345c0-0.66,0.251-1.173,0.753-1.538c0.502-0.365,1.208-0.548,2.118-0.548h1.055V9.332
		c0-0.379-0.113-0.681-0.34-0.905c-0.227-0.225-0.561-0.337-1.002-0.337c-0.387,0-0.711,0.098-0.973,0.293
		c-0.262,0.195-0.393,0.432-0.393,0.709h-1.09c0-0.316,0.112-0.622,0.337-0.917c0.225-0.295,0.529-0.528,0.914-0.7
		c0.385-0.172,0.808-0.258,1.269-0.258c0.73,0,1.303,0.183,1.717,0.548c0.414,0.365,0.629,0.868,0.645,1.509v2.918
		c0,0.582,0.074,1.045,0.223,1.389v0.094h-1.137c-0.063-0.125-0.113-0.348-0.152-0.668
		C125.478,13.529,124.876,13.791,124.177,13.791 M125.114,10.598c-1.328,0-1.992,0.389-1.992,1.166c0,0.34,0.113,0.606,0.34,0.797
		c0.227,0.191,0.518,0.287,0.873,0.287c0.34,0,0.662-0.088,0.967-0.264c0.305-0.176,0.525-0.404,0.662-0.686v-1.301H125.114
		 M102.748,13.791c-0.676,0-1.19-0.196-1.544-0.589c-0.354-0.393-0.532-0.974-0.536-1.743V7.334h1.084v4.096
		c0,0.961,0.391,1.441,1.172,1.441c0.828,0,1.379-0.308,1.652-0.926V7.334h1.084v6.34h-1.031l-0.023-0.627
		C104.183,13.543,103.564,13.791,102.748,13.791 M88.277,13.791c-0.859,0-1.559-0.282-2.098-0.847
		c-0.539-0.564-0.809-1.319-0.809-2.265V10.48c0-0.629,0.12-1.19,0.36-1.685c0.24-0.494,0.576-0.881,1.008-1.16
		c0.432-0.279,0.899-0.419,1.403-0.419c0.824,0,1.465,0.272,1.922,0.814c0.457,0.543,0.686,1.32,0.686,2.332v0.451h-4.295
		c0.016,0.625,0.198,1.13,0.548,1.515c0.35,0.385,0.794,0.577,1.333,0.577c0.383,0,0.707-0.078,0.973-0.234
		c0.266-0.156,0.498-0.363,0.697-0.621l0.662,0.516C90.136,13.383,89.34,13.791,88.277,13.791 M88.142,8.107
		c-0.437,0-0.805,0.159-1.102,0.478c-0.297,0.318-0.48,0.765-0.551,1.339h3.176V9.842c-0.031-0.551-0.18-0.977-0.445-1.28
		C88.955,8.259,88.595,8.107,88.142,8.107 M81.055,13.791c-0.734,0-1.333-0.301-1.796-0.902c-0.463-0.602-0.694-1.387-0.694-2.355
		v-0.082c0-0.973,0.23-1.755,0.691-2.347c0.461-0.592,1.064-0.888,1.811-0.888c0.742,0,1.33,0.254,1.764,0.762V4.674h1.084v9h-0.996
		l-0.053-0.68C82.432,13.525,81.828,13.791,81.055,13.791 M81.336,8.137c-0.531,0-0.945,0.205-1.242,0.615
		c-0.297,0.41-0.445,1.018-0.445,1.822c0,0.719,0.148,1.281,0.445,1.688c0.297,0.406,0.707,0.609,1.23,0.609
		c0.687,0,1.189-0.308,1.506-0.926V9.033C82.506,8.436,82.008,8.137,81.336,8.137 M67.868,13.791c-0.859,0-1.556-0.299-2.089-0.897
		c-0.533-0.598-0.8-1.389-0.8-2.373v-0.076c0-0.621,0.122-1.18,0.366-1.676c0.244-0.496,0.584-0.879,1.02-1.148
		c0.436-0.27,0.933-0.404,1.491-0.404c0.863,0,1.562,0.299,2.095,0.896c0.533,0.598,0.8,1.393,0.8,2.385v0.076
		c0,0.617-0.118,1.171-0.354,1.661c-0.236,0.49-0.574,0.872-1.014,1.146C68.943,13.654,68.438,13.791,67.868,13.791 M67.856,8.107
		c-0.535,0-0.967,0.213-1.295,0.639c-0.328,0.426-0.492,1.035-0.492,1.828c0,0.703,0.163,1.268,0.489,1.693
		c0.326,0.426,0.763,0.639,1.31,0.639c0.551,0,0.988-0.216,1.313-0.647c0.324-0.432,0.486-1.036,0.486-1.813
		c0-0.695-0.165-1.259-0.495-1.69C68.841,8.323,68.403,8.107,67.856,8.107 M45.382,13.791c-0.859,0-1.559-0.282-2.098-0.847
		c-0.539-0.564-0.809-1.319-0.809-2.265V10.48c0-0.629,0.12-1.19,0.36-1.685c0.24-0.494,0.576-0.881,1.008-1.16
		c0.432-0.279,0.899-0.419,1.403-0.419c0.824,0,1.465,0.272,1.922,0.814c0.457,0.543,0.686,1.32,0.686,2.332v0.451h-4.295
		c0.016,0.625,0.198,1.13,0.548,1.515c0.35,0.385,0.794,0.577,1.333,0.577c0.383,0,0.707-0.078,0.973-0.234
		c0.266-0.156,0.498-0.363,0.697-0.621l0.662,0.516C47.241,13.383,46.444,13.791,45.382,13.791 M45.247,8.107
		c-0.438,0-0.805,0.159-1.102,0.478c-0.297,0.318-0.48,0.765-0.551,1.339h3.176V9.842c-0.031-0.551-0.18-0.977-0.445-1.28
		C46.059,8.259,45.7,8.107,45.247,8.107 M34.043,13.791c-0.484,0-0.85-0.146-1.096-0.439c-0.246-0.293-0.369-0.709-0.369-1.248
		V8.172h-1.154V7.334h1.154V5.799h1.084v1.535h1.184v0.838h-1.184v3.937c0,0.254,0.053,0.445,0.158,0.572
		c0.105,0.127,0.285,0.191,0.539,0.191c0.125,0,0.297-0.023,0.516-0.07v0.874C34.59,13.752,34.313,13.791,34.043,13.791
		 M27.937,13.791c-0.859,0-1.556-0.299-2.089-0.897c-0.533-0.598-0.8-1.389-0.8-2.373v-0.076c0-0.621,0.122-1.18,0.366-1.676
		c0.244-0.496,0.584-0.879,1.02-1.148c0.436-0.27,0.933-0.404,1.491-0.404c0.863,0,1.562,0.299,2.095,0.896
		c0.533,0.598,0.8,1.393,0.8,2.385v0.076c0,0.617-0.118,1.171-0.355,1.661c-0.236,0.49-0.574,0.872-1.014,1.146
		C29.012,13.654,28.508,13.791,27.937,13.791 M27.926,8.107c-0.535,0-0.967,0.213-1.295,0.639c-0.328,0.426-0.492,1.035-0.492,1.828
		c0,0.703,0.163,1.268,0.489,1.693c0.326,0.426,0.763,0.639,1.31,0.639c0.551,0,0.988-0.216,1.313-0.647
		c0.324-0.432,0.486-1.036,0.486-1.813c0-0.695-0.165-1.259-0.495-1.69C28.911,8.323,28.472,8.107,27.926,8.107 M119.394,13.674
		h-0.879l-1.541-4.805l-1.5,4.805h-0.879l-1.84-6.34h1.078l1.248,4.746l1.477-4.746h0.873l1.506,4.846l1.219-4.846h1.084
		L119.394,13.674 M108.498,13.674h-1.084v-9h1.084V13.674 M98.135,13.674h-1.084V8.172h-1.002V7.334h1.002v-0.65
		c0-0.68,0.182-1.205,0.545-1.576c0.363-0.371,0.877-0.557,1.541-0.557c0.25,0,0.498,0.033,0.744,0.099l-0.059,0.874
		c-0.184-0.035-0.379-0.053-0.586-0.053c-0.352,0-0.623,0.103-0.814,0.309c-0.191,0.206-0.287,0.501-0.287,0.885v0.67h1.354v0.838
		h-1.354V13.674 M93.211,13.674h-1.084v-6.34h1.055L93.2,8.066c0.355-0.566,0.859-0.85,1.512-0.85c0.211,0,0.371,0.027,0.48,0.082
		v1.008c-0.164-0.027-0.342-0.041-0.533-0.041c-0.711,0-1.193,0.303-1.447,0.908V13.674 M77.149,13.674h-1.084V9.479
		c-0.004-0.457-0.108-0.795-0.313-1.014c-0.205-0.219-0.524-0.328-0.958-0.328c-0.352,0-0.66,0.094-0.926,0.281
		c-0.266,0.187-0.473,0.434-0.621,0.738v4.518h-1.084v-6.34h1.025l0.035,0.797c0.484-0.609,1.117-0.914,1.898-0.914
		c1.34,0,2.016,0.756,2.027,2.268V13.674 M62.453,13.674h-0.879l-1.541-4.805l-1.5,4.805h-0.879l-1.84-6.34h1.078l1.248,4.746
		l1.477-4.746h0.873l1.506,4.846l1.219-4.846h1.084L62.453,13.674 M50.316,13.674h-1.084v-6.34h1.055l0.018,0.732
		c0.355-0.566,0.859-0.85,1.512-0.85c0.211,0,0.371,0.027,0.48,0.082v1.008c-0.164-0.027-0.342-0.041-0.533-0.041
		c-0.711,0-1.193,0.303-1.447,0.908V13.674 M41.071,13.674h-1.084V9.479c-0.004-0.457-0.108-0.795-0.313-1.014
		c-0.205-0.219-0.524-0.328-0.958-0.328c-0.352,0-0.66,0.094-0.926,0.281c-0.266,0.187-0.473,0.434-0.621,0.738v4.518h-1.084v-9
		h1.084v3.428c0.48-0.59,1.105-0.885,1.875-0.885c1.34,0,2.016,0.756,2.027,2.268V13.674 M23.664,13.674H22.58V9.479
		c-0.004-0.457-0.108-0.795-0.313-1.014c-0.205-0.219-0.524-0.328-0.958-0.328c-0.352,0-0.66,0.094-0.926,0.281
		c-0.266,0.187-0.473,0.434-0.621,0.738v4.518h-1.084v-6.34h1.025l0.035,0.797c0.484-0.609,1.117-0.914,1.898-0.914
		c1.34,0,2.016,0.756,2.027,2.268V13.674 M17.512,13.674h-1.154l-0.814-2.232h-3.574l-0.803,2.232h-1.16l3.258-8.531h0.984
		L17.512,13.674 M13.756,6.531l-1.447,3.99h2.9L13.756,6.531"/>
	<path fill="#000000" d="M167.996,16.234l-0.205-0.018l-0.404-0.076v-0.879l0.293,0.023c0.367,0,0.653-0.074,0.858-0.223
		c0.205-0.149,0.374-0.42,0.507-0.814l0.24-0.645l-2.262-6.27h1.184l1.582,4.752l1.477-4.752h1.16l-2.549,7.318
		C169.482,15.707,168.855,16.234,167.996,16.234 M228.558,13.791c-0.734,0-1.333-0.301-1.796-0.902
		c-0.463-0.602-0.694-1.387-0.694-2.355v-0.082c0-0.973,0.23-1.755,0.691-2.347c0.461-0.592,1.064-0.888,1.811-0.888
		c0.742,0,1.33,0.254,1.764,0.762V4.674h1.084v9h-0.996l-0.053-0.68C229.935,13.525,229.331,13.791,228.558,13.791 M228.839,8.137
		c-0.531,0-0.945,0.205-1.242,0.615c-0.297,0.41-0.445,1.018-0.445,1.822c0,0.719,0.148,1.281,0.445,1.688
		c0.297,0.406,0.707,0.609,1.23,0.609c0.687,0,1.189-0.308,1.506-0.926V9.033C230.009,8.436,229.511,8.137,228.839,8.137
		 M222.479,13.791c-0.859,0-1.559-0.282-2.098-0.847c-0.539-0.564-0.809-1.319-0.809-2.265V10.48c0-0.629,0.12-1.19,0.36-1.685
		c0.24-0.494,0.576-0.881,1.008-1.16c0.432-0.279,0.899-0.419,1.403-0.419c0.824,0,1.465,0.272,1.922,0.814
		c0.457,0.543,0.686,1.32,0.686,2.332v0.451h-4.295c0.016,0.625,0.198,1.13,0.548,1.515c0.35,0.385,0.794,0.577,1.333,0.577
		c0.383,0,0.707-0.078,0.973-0.234c0.266-0.156,0.498-0.363,0.697-0.621l0.662,0.516C224.338,13.383,223.541,13.791,222.479,13.791
		 M222.344,8.107c-0.438,0-0.805,0.159-1.102,0.478c-0.297,0.318-0.48,0.765-0.551,1.339h3.176V9.842
		c-0.031-0.551-0.18-0.977-0.445-1.28C223.156,8.259,222.797,8.107,222.344,8.107 M217.932,13.791c-0.484,0-0.85-0.146-1.096-0.439
		c-0.246-0.293-0.369-0.709-0.369-1.248V8.172h-1.154V7.334h1.154V5.799h1.084v1.535h1.184v0.838h-1.184v3.937
		c0,0.254,0.053,0.445,0.158,0.572c0.105,0.127,0.285,0.191,0.539,0.191c0.125,0,0.297-0.023,0.516-0.07v0.874
		C218.479,13.752,218.201,13.791,217.932,13.791 M212.127,13.791c-0.863,0-1.55-0.288-2.06-0.864
		c-0.51-0.576-0.765-1.364-0.765-2.364v-0.182c0-0.617,0.113-1.166,0.34-1.646c0.227-0.48,0.552-0.853,0.976-1.119
		c0.424-0.266,0.925-0.398,1.503-0.398c0.711,0,1.302,0.213,1.772,0.639c0.471,0.426,0.722,0.978,0.753,1.658h-1.025
		c-0.031-0.41-0.187-0.747-0.466-1.011c-0.279-0.264-0.624-0.396-1.034-0.396c-0.551,0-0.978,0.198-1.28,0.595
		c-0.303,0.396-0.454,0.97-0.454,1.72v0.205c0,0.731,0.15,1.293,0.451,1.688c0.301,0.395,0.73,0.592,1.289,0.592
		c0.387,0,0.725-0.117,1.014-0.352c0.289-0.234,0.449-0.527,0.48-0.879h1.025c-0.02,0.363-0.145,0.709-0.375,1.037
		c-0.23,0.328-0.538,0.59-0.923,0.785C212.964,13.693,212.557,13.791,212.127,13.791 M205.746,13.791
		c-0.859,0-1.559-0.282-2.098-0.847c-0.539-0.564-0.809-1.319-0.809-2.265V10.48c0-0.629,0.12-1.19,0.36-1.685
		c0.24-0.494,0.576-0.881,1.008-1.16c0.432-0.279,0.899-0.419,1.403-0.419c0.824,0,1.465,0.272,1.922,0.814
		c0.457,0.543,0.686,1.32,0.686,2.332v0.451h-4.295c0.016,0.625,0.198,1.13,0.548,1.515c0.35,0.385,0.794,0.577,1.333,0.577
		c0.383,0,0.707-0.078,0.973-0.234c0.266-0.156,0.498-0.363,0.697-0.621l0.662,0.516C207.605,13.383,206.809,13.791,205.746,13.791
		 M205.611,8.107c-0.438,0-0.805,0.159-1.102,0.478c-0.297,0.318-0.48,0.765-0.551,1.339h3.176V9.842
		c-0.031-0.551-0.18-0.977-0.445-1.28C206.424,8.259,206.064,8.107,205.611,8.107 M185.466,13.791c-0.859,0-1.556-0.299-2.089-0.897
		c-0.533-0.598-0.8-1.389-0.8-2.373v-0.076c0-0.621,0.122-1.18,0.366-1.676c0.244-0.496,0.584-0.879,1.019-1.148
		c0.436-0.27,0.933-0.404,1.491-0.404c0.863,0,1.562,0.299,2.095,0.896c0.533,0.598,0.8,1.393,0.8,2.385v0.076
		c0,0.617-0.118,1.171-0.354,1.661c-0.236,0.49-0.574,0.872-1.014,1.146C186.542,13.654,186.037,13.791,185.466,13.791
		 M185.455,8.107c-0.535,0-0.967,0.213-1.295,0.639c-0.328,0.426-0.492,1.035-0.492,1.828c0,0.703,0.163,1.268,0.489,1.693
		c0.326,0.426,0.763,0.639,1.31,0.639c0.551,0,0.988-0.216,1.312-0.647c0.324-0.432,0.486-1.036,0.486-1.813
		c0-0.695-0.165-1.259-0.495-1.69C186.44,8.323,186.002,8.107,185.455,8.107 M179.026,13.791c-0.863,0-1.55-0.288-2.06-0.864
		c-0.51-0.576-0.765-1.364-0.765-2.364v-0.182c0-0.617,0.113-1.166,0.34-1.646c0.227-0.48,0.552-0.853,0.976-1.119
		c0.424-0.266,0.925-0.398,1.503-0.398c0.711,0,1.302,0.213,1.772,0.639c0.471,0.426,0.722,0.978,0.753,1.658h-1.025
		c-0.031-0.41-0.187-0.747-0.466-1.011c-0.279-0.264-0.624-0.396-1.034-0.396c-0.551,0-0.978,0.198-1.28,0.595
		c-0.303,0.396-0.454,0.97-0.454,1.72v0.205c0,0.731,0.15,1.293,0.451,1.688c0.301,0.395,0.73,0.592,1.289,0.592
		c0.387,0,0.725-0.117,1.014-0.352c0.289-0.234,0.449-0.527,0.48-0.879h1.025c-0.02,0.363-0.145,0.709-0.375,1.037
		c-0.23,0.328-0.538,0.59-0.923,0.785C179.863,13.693,179.455,13.791,179.026,13.791 M163.286,13.791
		c-0.625,0-1.138-0.177-1.538-0.53c-0.4-0.353-0.601-0.802-0.601-1.345c0-0.66,0.251-1.173,0.753-1.538
		c0.502-0.365,1.208-0.548,2.118-0.548h1.055V9.332c0-0.379-0.113-0.681-0.34-0.905c-0.227-0.225-0.561-0.337-1.002-0.337
		c-0.387,0-0.711,0.098-0.973,0.293c-0.262,0.195-0.393,0.432-0.393,0.709h-1.09c0-0.316,0.112-0.622,0.337-0.917
		c0.225-0.295,0.529-0.528,0.914-0.7c0.385-0.172,0.808-0.258,1.269-0.258c0.73,0,1.303,0.183,1.717,0.548
		c0.414,0.365,0.629,0.868,0.644,1.509v2.918c0,0.582,0.074,1.045,0.223,1.389v0.094h-1.137c-0.062-0.125-0.113-0.348-0.152-0.668
		C164.586,13.529,163.985,13.791,163.286,13.791 M164.223,10.598c-1.328,0-1.992,0.389-1.992,1.166c0,0.34,0.113,0.606,0.34,0.797
		c0.227,0.191,0.518,0.287,0.873,0.287c0.34,0,0.662-0.088,0.967-0.264c0.305-0.176,0.525-0.404,0.662-0.686v-1.301H164.223
		 M159.257,13.791c-0.484,0-0.85-0.146-1.096-0.439c-0.246-0.293-0.369-0.709-0.369-1.248V8.172h-1.154V7.334h1.154V5.799h1.084
		v1.535h1.184v0.838h-1.184v3.937c0,0.254,0.053,0.445,0.158,0.572s0.285,0.191,0.539,0.191c0.125,0,0.297-0.023,0.516-0.07v0.874
		C159.803,13.752,159.526,13.791,159.257,13.791 M153.396,13.791c-0.508,0-0.957-0.09-1.348-0.27
		c-0.391-0.18-0.696-0.431-0.917-0.753c-0.221-0.322-0.331-0.671-0.331-1.046h1.084c0.02,0.363,0.165,0.651,0.437,0.864
		c0.271,0.213,0.63,0.319,1.075,0.319c0.41,0,0.739-0.083,0.987-0.249c0.248-0.166,0.372-0.388,0.372-0.665
		c0-0.293-0.11-0.52-0.331-0.683c-0.221-0.162-0.605-0.302-1.154-0.419c-0.549-0.117-0.984-0.258-1.307-0.422
		c-0.322-0.164-0.561-0.359-0.715-0.586c-0.154-0.226-0.231-0.496-0.231-0.809c0-0.519,0.22-0.959,0.659-1.318
		c0.439-0.359,1.001-0.539,1.685-0.539c0.719,0,1.302,0.186,1.749,0.557c0.447,0.371,0.671,0.846,0.671,1.424h-1.09
		c0-0.297-0.126-0.553-0.378-0.768c-0.252-0.215-0.569-0.322-0.952-0.322c-0.395,0-0.703,0.086-0.926,0.258
		c-0.223,0.172-0.334,0.396-0.334,0.674c0,0.262,0.103,0.459,0.311,0.592c0.207,0.133,0.581,0.26,1.122,0.381
		c0.541,0.121,0.979,0.266,1.315,0.434c0.336,0.168,0.585,0.37,0.747,0.606c0.162,0.236,0.243,0.524,0.243,0.864
		c0,0.566-0.227,1.021-0.68,1.362C154.706,13.62,154.119,13.791,153.396,13.791 M201.43,13.674h-1.084V9.479
		c-0.004-0.457-0.108-0.795-0.313-1.014c-0.205-0.219-0.524-0.328-0.958-0.328c-0.352,0-0.66,0.094-0.926,0.281
		c-0.266,0.187-0.473,0.434-0.621,0.738v4.518h-1.084v-6.34h1.025l0.035,0.797c0.484-0.609,1.117-0.914,1.898-0.914
		c1.34,0,2.016,0.756,2.027,2.268V13.674 M194.748,13.674h-1.084V9.479c-0.004-0.457-0.108-0.795-0.313-1.014
		c-0.205-0.219-0.524-0.328-0.958-0.328c-0.352,0-0.66,0.094-0.926,0.281c-0.266,0.187-0.473,0.434-0.621,0.738v4.518h-1.084v-6.34
		h1.025l0.035,0.797c0.484-0.609,1.117-0.914,1.898-0.914c1.34,0,2.016,0.756,2.027,2.268V13.674"/>
	<path fill="#000000" d="M59.496,32.234l-0.205-0.018l-0.404-0.076v-0.879l0.293,0.023c0.367,0,0.653-0.074,0.858-0.223
		c0.205-0.149,0.374-0.42,0.507-0.814l0.24-0.645l-2.262-6.27h1.184l1.582,4.752l1.477-4.752h1.16l-2.549,7.318
		C60.982,31.707,60.355,32.234,59.496,32.234 M147.189,32.17c-0.457,0-0.904-0.098-1.342-0.293
		c-0.437-0.195-0.771-0.463-1.002-0.803l0.562-0.65c0.465,0.574,1.033,0.861,1.705,0.861c0.527,0,0.938-0.149,1.233-0.445
		c0.295-0.297,0.442-0.715,0.442-1.254v-0.545c-0.434,0.5-1.025,0.75-1.775,0.75c-0.742,0-1.343-0.299-1.802-0.897
		c-0.459-0.598-0.689-1.412-0.689-2.443c0-0.988,0.229-1.774,0.686-2.358c0.457-0.584,1.063-0.876,1.816-0.876
		c0.773,0,1.377,0.274,1.811,0.82l0.053-0.703h0.99v6.188c0,0.82-0.243,1.467-0.729,1.939
		C148.663,31.934,148.009,32.17,147.189,32.17 M147.294,24.137c-0.527,0-0.94,0.205-1.236,0.615
		c-0.297,0.41-0.445,1.018-0.445,1.822c0,0.715,0.146,1.276,0.439,1.685c0.293,0.408,0.703,0.612,1.23,0.612
		c0.684,0,1.186-0.311,1.506-0.932v-2.895C148.456,24.439,147.958,24.137,147.294,24.137 M87.899,32.17
		c-0.457,0-0.904-0.098-1.342-0.293c-0.438-0.195-0.772-0.463-1.002-0.803l0.563-0.65c0.465,0.574,1.033,0.861,1.705,0.861
		c0.527,0,0.938-0.149,1.233-0.445c0.295-0.297,0.442-0.715,0.442-1.254v-0.545c-0.434,0.5-1.025,0.75-1.775,0.75
		c-0.742,0-1.343-0.299-1.802-0.897c-0.459-0.598-0.688-1.412-0.688-2.443c0-0.988,0.229-1.774,0.686-2.358
		c0.457-0.584,1.062-0.876,1.816-0.876c0.773,0,1.377,0.274,1.811,0.82l0.053-0.703h0.99v6.188c0,0.82-0.243,1.467-0.729,1.939
		C89.372,31.934,88.719,32.17,87.899,32.17 M88.004,24.137c-0.527,0-0.94,0.205-1.236,0.615c-0.297,0.41-0.445,1.018-0.445,1.822
		c0,0.715,0.146,1.276,0.439,1.685c0.293,0.408,0.703,0.612,1.231,0.612c0.684,0,1.185-0.311,1.506-0.932v-2.895
		C89.166,24.439,88.668,24.137,88.004,24.137 M116.365,32.111h-1.084v-8.777h0.99l0.053,0.703c0.441-0.547,1.055-0.82,1.84-0.82
		c0.762,0,1.364,0.287,1.808,0.861s0.665,1.373,0.665,2.396v0.1c0,0.965-0.221,1.742-0.662,2.332
		c-0.441,0.59-1.039,0.885-1.793,0.885c-0.77,0-1.375-0.244-1.816-0.732V32.111 M117.842,24.137c-0.656,0-1.148,0.291-1.477,0.873
		v3.029c0.324,0.578,0.82,0.867,1.488,0.867c0.519,0,0.933-0.206,1.239-0.618c0.307-0.412,0.46-1.024,0.46-1.837
		c0-0.715-0.152-1.279-0.457-1.693C118.791,24.344,118.373,24.137,117.842,24.137 M109.555,32.111h-1.084v-8.777h0.99l0.053,0.703
		c0.441-0.547,1.055-0.82,1.84-0.82c0.762,0,1.364,0.287,1.808,0.861c0.443,0.574,0.665,1.373,0.665,2.396v0.1
		c0,0.965-0.221,1.742-0.662,2.332c-0.441,0.59-1.039,0.885-1.793,0.885c-0.77,0-1.375-0.244-1.816-0.732V32.111 M111.031,24.137
		c-0.656,0-1.148,0.291-1.477,0.873v3.029c0.324,0.578,0.82,0.867,1.488,0.867c0.519,0,0.933-0.206,1.239-0.618
		c0.307-0.412,0.46-1.024,0.46-1.837c0-0.715-0.152-1.279-0.457-1.693C111.98,24.344,111.562,24.137,111.031,24.137 M124.714,29.791
		c-0.859,0-1.559-0.282-2.098-0.847c-0.539-0.564-0.809-1.319-0.809-2.265V26.48c0-0.629,0.12-1.19,0.36-1.685
		c0.24-0.494,0.576-0.881,1.008-1.16c0.432-0.279,0.899-0.419,1.403-0.419c0.824,0,1.465,0.272,1.922,0.814
		c0.457,0.543,0.686,1.32,0.686,2.332v0.451h-4.295c0.016,0.625,0.198,1.13,0.548,1.515c0.349,0.385,0.794,0.577,1.333,0.577
		c0.383,0,0.707-0.078,0.973-0.234c0.266-0.156,0.498-0.363,0.697-0.621l0.662,0.516C126.573,29.383,125.776,29.791,124.714,29.791
		 M124.579,24.107c-0.438,0-0.805,0.159-1.102,0.478c-0.297,0.318-0.48,0.765-0.551,1.339h3.176v-0.082
		c-0.031-0.551-0.18-0.978-0.445-1.28C125.392,24.259,125.032,24.107,124.579,24.107 M103.869,29.791
		c-0.625,0-1.138-0.177-1.538-0.53c-0.4-0.353-0.601-0.802-0.601-1.345c0-0.66,0.251-1.173,0.753-1.538
		c0.502-0.365,1.208-0.548,2.118-0.548h1.055v-0.498c0-0.379-0.113-0.681-0.34-0.905c-0.227-0.225-0.561-0.337-1.002-0.337
		c-0.387,0-0.711,0.098-0.973,0.293c-0.262,0.195-0.393,0.432-0.393,0.709h-1.09c0-0.316,0.112-0.622,0.337-0.917
		c0.225-0.295,0.529-0.528,0.914-0.7c0.385-0.172,0.808-0.258,1.269-0.258c0.73,0,1.303,0.183,1.717,0.548
		c0.414,0.365,0.629,0.868,0.645,1.509v2.918c0,0.582,0.074,1.045,0.223,1.389v0.094h-1.137c-0.063-0.125-0.113-0.348-0.152-0.668
		C105.17,29.529,104.568,29.791,103.869,29.791 M104.807,26.598c-1.328,0-1.992,0.389-1.992,1.166c0,0.34,0.113,0.606,0.34,0.797
		c0.227,0.191,0.518,0.287,0.873,0.287c0.34,0,0.662-0.088,0.967-0.264c0.305-0.176,0.525-0.404,0.662-0.686v-1.301H104.807
		 M67.237,29.791c-0.484,0-0.85-0.146-1.096-0.439c-0.246-0.293-0.369-0.709-0.369-1.248v-3.932h-1.154v-0.838h1.154v-1.535h1.084
		v1.535h1.184v0.838h-1.184v3.937c0,0.254,0.053,0.445,0.158,0.572c0.105,0.127,0.285,0.191,0.539,0.191
		c0.125,0,0.297-0.023,0.516-0.07v0.874C67.784,29.752,67.507,29.791,67.237,29.791 M50.86,29.791c-0.859,0-1.559-0.282-2.098-0.847
		c-0.539-0.564-0.809-1.319-0.809-2.265V26.48c0-0.629,0.12-1.19,0.36-1.685c0.24-0.494,0.576-0.881,1.008-1.16
		c0.432-0.279,0.899-0.419,1.403-0.419c0.824,0,1.465,0.272,1.922,0.814c0.457,0.543,0.686,1.32,0.686,2.332v0.451h-4.295
		c0.016,0.625,0.198,1.13,0.548,1.515c0.35,0.385,0.794,0.577,1.333,0.577c0.383,0,0.707-0.078,0.973-0.234
		c0.266-0.156,0.498-0.363,0.697-0.621l0.662,0.516C52.72,29.383,51.923,29.791,50.86,29.791 M50.725,24.107
		c-0.438,0-0.805,0.159-1.102,0.478c-0.297,0.318-0.48,0.765-0.551,1.339h3.176v-0.082c-0.031-0.551-0.18-0.978-0.445-1.28
		C51.538,24.259,51.178,24.107,50.725,24.107 M38.927,29.791c-0.859,0-1.559-0.282-2.098-0.847
		c-0.539-0.564-0.809-1.319-0.809-2.265V26.48c0-0.629,0.12-1.19,0.36-1.685c0.24-0.494,0.576-0.881,1.008-1.16
		c0.432-0.279,0.899-0.419,1.403-0.419c0.824,0,1.465,0.272,1.922,0.814c0.457,0.543,0.686,1.32,0.686,2.332v0.451h-4.295
		c0.016,0.625,0.198,1.13,0.548,1.515c0.35,0.385,0.794,0.577,1.333,0.577c0.383,0,0.707-0.078,0.973-0.234
		c0.266-0.156,0.498-0.363,0.697-0.621l0.662,0.516C40.786,29.383,39.989,29.791,38.927,29.791 M38.792,24.107
		c-0.438,0-0.805,0.159-1.102,0.478c-0.297,0.318-0.48,0.765-0.551,1.339h3.176v-0.082c-0.031-0.551-0.18-0.978-0.445-1.28
		C39.604,24.259,39.245,24.107,38.792,24.107 M24.554,29.791c-0.484,0-0.85-0.146-1.096-0.439c-0.246-0.293-0.369-0.709-0.369-1.248
		v-3.932h-1.154v-0.838h1.154v-1.535h1.084v1.535h1.184v0.838h-1.184v3.937c0,0.254,0.053,0.445,0.158,0.572
		c0.105,0.127,0.285,0.191,0.539,0.191c0.125,0,0.297-0.023,0.516-0.07v0.874C25.101,29.752,24.823,29.791,24.554,29.791
		 M143.102,29.674h-1.084v-4.195c-0.004-0.457-0.108-0.795-0.313-1.014c-0.205-0.219-0.524-0.328-0.958-0.328
		c-0.352,0-0.66,0.094-0.926,0.281c-0.266,0.188-0.473,0.434-0.621,0.738v4.518h-1.084v-6.34h1.025l0.035,0.797
		c0.484-0.609,1.117-0.914,1.898-0.914c1.34,0,2.016,0.756,2.027,2.268V29.674 M136.357,29.674h-1.084v-6.34h1.084V29.674
		 M133.55,29.674h-1.084v-4.195c-0.004-0.457-0.108-0.795-0.313-1.014c-0.205-0.219-0.524-0.328-0.958-0.328
		c-0.352,0-0.66,0.094-0.926,0.281c-0.266,0.188-0.473,0.434-0.621,0.738v4.518h-1.084v-6.34h1.025l0.035,0.797
		c0.484-0.609,1.117-0.914,1.898-0.914c1.34,0,2.016,0.756,2.027,2.268V29.674 M100.3,29.674h-1.084v-4.195
		c-0.004-0.457-0.108-0.795-0.313-1.014c-0.205-0.219-0.524-0.328-0.958-0.328c-0.352,0-0.66,0.094-0.926,0.281
		c-0.266,0.188-0.473,0.434-0.621,0.738v4.518h-1.084v-9h1.084v3.428c0.48-0.59,1.105-0.885,1.875-0.885
		c1.34,0,2.016,0.756,2.027,2.268V29.674 M83.811,29.674h-1.084v-4.195c-0.004-0.457-0.108-0.795-0.313-1.014
		c-0.205-0.219-0.524-0.328-0.958-0.328c-0.352,0-0.66,0.094-0.926,0.281c-0.266,0.188-0.473,0.434-0.621,0.738v4.518h-1.084v-6.34
		h1.025l0.035,0.797c0.484-0.609,1.117-0.914,1.898-0.914c1.34,0,2.016,0.756,2.027,2.268V29.674 M77.066,29.674h-1.084v-6.34h1.084
		V29.674 M74.266,29.674h-1.084v-4.195c-0.004-0.457-0.108-0.795-0.313-1.014c-0.205-0.219-0.524-0.328-0.958-0.328
		c-0.352,0-0.66,0.094-0.926,0.281c-0.266,0.188-0.473,0.434-0.621,0.738v4.518h-1.084v-9h1.084v3.428
		c0.48-0.59,1.105-0.885,1.875-0.885c1.34,0,2.016,0.756,2.027,2.268V29.674 M55.794,29.674H54.71v-6.34h1.055l0.018,0.732
		c0.355-0.566,0.859-0.85,1.512-0.85c0.211,0,0.371,0.027,0.48,0.082v1.008c-0.164-0.027-0.342-0.041-0.533-0.041
		c-0.711,0-1.193,0.303-1.447,0.908V29.674 M45.087,29.674h-0.826l-2.297-6.34h1.107l1.611,4.869l1.57-4.869h1.107L45.087,29.674
		 M31.582,29.674h-1.084v-4.195c-0.004-0.457-0.108-0.795-0.313-1.014c-0.205-0.219-0.524-0.328-0.958-0.328
		c-0.352,0-0.66,0.094-0.926,0.281c-0.266,0.188-0.473,0.434-0.621,0.738v4.518h-1.084v-9h1.084v3.428
		c0.48-0.59,1.105-0.885,1.875-0.885c1.34,0,2.016,0.756,2.027,2.268V29.674 M20.856,29.674h-1.084v-6.34h1.084V29.674
		 M16.732,29.674h-0.879l-1.541-4.805l-1.5,4.805h-0.879l-1.84-6.34h1.078l1.248,4.746l1.477-4.746h0.873l1.506,4.846l1.219-4.846
		h1.084L16.732,29.674 M135.824,22.268c-0.211,0-0.37-0.059-0.478-0.176c-0.108-0.117-0.161-0.264-0.161-0.439
		c0-0.176,0.054-0.324,0.161-0.445c0.107-0.121,0.267-0.182,0.478-0.182c0.211,0,0.371,0.061,0.48,0.182
		c0.109,0.121,0.164,0.27,0.164,0.445c0,0.176-0.055,0.322-0.164,0.439C136.195,22.209,136.035,22.268,135.824,22.268
		 M76.533,22.268c-0.211,0-0.37-0.059-0.478-0.176c-0.108-0.117-0.161-0.264-0.161-0.439c0-0.176,0.054-0.324,0.161-0.445
		c0.107-0.121,0.267-0.182,0.478-0.182c0.211,0,0.371,0.061,0.48,0.182c0.109,0.121,0.164,0.27,0.164,0.445
		c0,0.176-0.055,0.322-0.164,0.439C76.904,22.209,76.744,22.268,76.533,22.268 M20.323,22.268c-0.211,0-0.37-0.059-0.478-0.176
		c-0.107-0.117-0.161-0.264-0.161-0.439c0-0.176,0.054-0.324,0.161-0.445c0.107-0.121,0.267-0.182,0.478-0.182
		c0.211,0,0.371,0.061,0.48,0.182c0.109,0.121,0.164,0.27,0.164,0.445c0,0.176-0.055,0.322-0.164,0.439
		C20.694,22.209,20.534,22.268,20.323,22.268"/>
	<path fill="#000000" d="M221.169,29.791c-0.734,0-1.333-0.301-1.796-0.902c-0.463-0.601-0.694-1.387-0.694-2.355v-0.082
		c0-0.973,0.23-1.755,0.691-2.347c0.461-0.592,1.064-0.888,1.811-0.888c0.742,0,1.33,0.254,1.764,0.762v-3.305h1.084v9h-0.996
		l-0.053-0.68C222.546,29.525,221.942,29.791,221.169,29.791 M221.45,24.137c-0.531,0-0.945,0.205-1.242,0.615
		c-0.297,0.41-0.445,1.018-0.445,1.822c0,0.719,0.148,1.281,0.445,1.688c0.297,0.406,0.707,0.609,1.231,0.609
		c0.687,0,1.189-0.309,1.506-0.926v-2.912C222.62,24.436,222.122,24.137,221.45,24.137 M207.675,29.791
		c-0.625,0-1.138-0.177-1.538-0.53c-0.4-0.353-0.601-0.802-0.601-1.345c0-0.66,0.251-1.173,0.753-1.538
		c0.502-0.365,1.208-0.548,2.118-0.548h1.055v-0.498c0-0.379-0.113-0.681-0.34-0.905c-0.227-0.225-0.561-0.337-1.002-0.337
		c-0.387,0-0.711,0.098-0.973,0.293c-0.262,0.195-0.393,0.432-0.393,0.709h-1.09c0-0.316,0.112-0.622,0.337-0.917
		c0.225-0.295,0.529-0.528,0.914-0.7c0.385-0.172,0.808-0.258,1.269-0.258c0.73,0,1.303,0.183,1.717,0.548
		c0.414,0.365,0.629,0.868,0.645,1.509v2.918c0,0.582,0.074,1.045,0.223,1.389v0.094h-1.137c-0.063-0.125-0.113-0.348-0.152-0.668
		C208.976,29.529,208.374,29.791,207.675,29.791 M208.613,26.598c-1.328,0-1.992,0.389-1.992,1.166c0,0.34,0.113,0.606,0.34,0.797
		c0.227,0.191,0.518,0.287,0.873,0.287c0.34,0,0.662-0.088,0.967-0.264c0.305-0.176,0.525-0.404,0.662-0.686v-1.301H208.613
		 M187.628,29.791c-0.586,0-1.133-0.112-1.641-0.337c-0.508-0.225-0.899-0.532-1.175-0.923c-0.275-0.391-0.413-0.834-0.413-1.33
		h1.131c0,0.516,0.19,0.923,0.571,1.222c0.381,0.299,0.89,0.448,1.526,0.448c0.594,0,1.049-0.121,1.365-0.363
		c0.316-0.242,0.475-0.572,0.475-0.99c0-0.418-0.146-0.741-0.439-0.97c-0.293-0.229-0.824-0.454-1.594-0.677
		c-0.965-0.277-1.667-0.618-2.106-1.023c-0.439-0.404-0.659-0.903-0.659-1.497c0-0.672,0.269-1.228,0.806-1.667
		c0.537-0.439,1.235-0.659,2.095-0.659c0.586,0,1.108,0.113,1.567,0.34c0.459,0.227,0.814,0.539,1.066,0.937
		s0.378,0.834,0.378,1.307h-1.131c0-0.517-0.164-0.924-0.492-1.22c-0.328-0.296-0.791-0.444-1.389-0.444
		c-0.555,0-0.987,0.122-1.298,0.367c-0.311,0.245-0.466,0.584-0.466,1.018c0,0.348,0.147,0.643,0.442,0.883
		c0.295,0.241,0.797,0.461,1.506,0.66c0.709,0.2,1.264,0.419,1.664,0.66c0.4,0.24,0.697,0.521,0.891,0.841
		c0.193,0.32,0.29,0.697,0.29,1.131c0,0.691-0.27,1.245-0.809,1.661C189.251,29.583,188.531,29.791,187.628,29.791 M171.256,29.791
		c-0.934,0-1.678-0.252-2.232-0.756c-0.555-0.504-0.836-1.197-0.844-2.08v-5.813h1.113v5.777c0,0.617,0.17,1.097,0.51,1.438
		c0.34,0.342,0.824,0.513,1.453,0.513c0.637,0,1.124-0.17,1.462-0.51c0.338-0.34,0.507-0.818,0.507-1.436v-5.783h1.131v5.801
		c-0.004,0.805-0.257,1.463-0.759,1.975c-0.502,0.512-1.183,0.799-2.042,0.861L171.256,29.791 M163.021,29.791
		c-0.484,0-0.85-0.146-1.096-0.439c-0.246-0.293-0.369-0.709-0.369-1.248v-3.932h-1.154v-0.838h1.154v-1.535h1.084v1.535h1.184
		v0.838h-1.184v3.937c0,0.254,0.053,0.445,0.158,0.572c0.105,0.127,0.285,0.191,0.539,0.191c0.125,0,0.297-0.023,0.516-0.07v0.874
		C163.568,29.752,163.291,29.791,163.021,29.791 M156.561,29.791c-0.625,0-1.138-0.177-1.538-0.53
		c-0.4-0.353-0.601-0.802-0.601-1.345c0-0.66,0.251-1.173,0.753-1.538c0.502-0.365,1.208-0.548,2.118-0.548h1.055v-0.498
		c0-0.379-0.113-0.681-0.34-0.905c-0.227-0.225-0.561-0.337-1.002-0.337c-0.387,0-0.711,0.098-0.973,0.293
		c-0.262,0.195-0.393,0.432-0.393,0.709h-1.09c0-0.316,0.112-0.622,0.337-0.917c0.225-0.295,0.529-0.528,0.914-0.7
		c0.385-0.172,0.808-0.258,1.269-0.258c0.73,0,1.303,0.183,1.717,0.548c0.414,0.365,0.629,0.868,0.645,1.509v2.918
		c0,0.582,0.074,1.045,0.223,1.389v0.094h-1.137c-0.063-0.125-0.113-0.348-0.152-0.668C157.862,29.529,157.26,29.791,156.561,29.791
		 M157.498,26.598c-1.328,0-1.992,0.389-1.992,1.166c0,0.34,0.113,0.606,0.34,0.797c0.226,0.191,0.518,0.287,0.873,0.287
		c0.34,0,0.662-0.088,0.967-0.264c0.305-0.176,0.525-0.404,0.662-0.686v-1.301H157.498 M236.723,29.674h-1.084v-4.195
		c-0.004-0.457-0.108-0.795-0.313-1.014c-0.205-0.219-0.524-0.328-0.958-0.328c-0.352,0-0.66,0.094-0.926,0.281
		c-0.266,0.188-0.473,0.434-0.621,0.738v4.518h-1.084v-6.34h1.025l0.035,0.797c0.484-0.609,1.117-0.914,1.898-0.914
		c1.34,0,2.016,0.756,2.027,2.268V29.674 M229.978,29.674h-1.084v-6.34h1.084V29.674 M217.263,29.674h-1.084v-4.195
		c-0.004-0.457-0.108-0.795-0.313-1.014c-0.205-0.219-0.524-0.328-0.958-0.328c-0.352,0-0.66,0.094-0.926,0.281
		c-0.266,0.188-0.473,0.434-0.621,0.738v4.518h-1.084v-6.34h1.025l0.035,0.797c0.484-0.609,1.117-0.914,1.898-0.914
		c1.34,0,2.016,0.756,2.027,2.268V29.674 M199.481,29.674h-1.025l-1.758-6.217l-0.135-0.65l-0.135,0.65l-1.822,6.217h-1.025
		l-2.063-8.531h1.125l1.348,5.842l0.164,1.125l0.24-1.014l1.687-5.953h0.949l1.646,5.953l0.234,1.031l0.182-1.148l1.324-5.836h1.131
		L199.481,29.674 M182.86,29.674h-1.131l-4.295-6.574v6.574h-1.131v-8.531h1.131l4.307,6.604v-6.604h1.119V29.674 M229.445,22.268
		c-0.211,0-0.37-0.059-0.478-0.176c-0.107-0.117-0.161-0.264-0.161-0.439c0-0.176,0.054-0.324,0.161-0.445
		c0.107-0.121,0.267-0.182,0.478-0.182c0.211,0,0.371,0.061,0.48,0.182c0.109,0.121,0.164,0.27,0.164,0.445
		c0,0.176-0.055,0.322-0.164,0.439C229.816,22.209,229.656,22.268,229.445,22.268"/>
	<path fill="#000000" d="M117.107,45.791c-0.859,0-1.556-0.299-2.089-0.896c-0.533-0.598-0.8-1.389-0.8-2.373v-0.076
		c0-0.621,0.122-1.18,0.366-1.676c0.244-0.496,0.584-0.879,1.02-1.148c0.435-0.27,0.933-0.404,1.491-0.404
		c0.863,0,1.562,0.299,2.095,0.896c0.533,0.598,0.8,1.393,0.8,2.385v0.076c0,0.617-0.118,1.171-0.354,1.661
		c-0.236,0.49-0.574,0.872-1.014,1.146C118.182,45.654,117.677,45.791,117.107,45.791 M117.095,40.107
		c-0.535,0-0.967,0.213-1.295,0.639c-0.328,0.426-0.492,1.035-0.492,1.828c0,0.703,0.163,1.268,0.489,1.693
		c0.326,0.426,0.763,0.639,1.31,0.639c0.551,0,0.988-0.216,1.313-0.647c0.324-0.432,0.486-1.036,0.486-1.813
		c0-0.695-0.165-1.259-0.495-1.69C118.081,40.323,117.642,40.107,117.095,40.107 M107.559,45.791c-0.508,0-0.957-0.09-1.348-0.27
		c-0.391-0.18-0.696-0.431-0.917-0.753c-0.221-0.322-0.331-0.671-0.331-1.046h1.084c0.019,0.363,0.165,0.651,0.437,0.864
		c0.271,0.213,0.63,0.319,1.075,0.319c0.41,0,0.739-0.083,0.987-0.249c0.248-0.166,0.372-0.388,0.372-0.665
		c0-0.293-0.11-0.52-0.331-0.683c-0.221-0.162-0.606-0.302-1.154-0.419c-0.549-0.117-0.984-0.258-1.307-0.422
		c-0.322-0.164-0.561-0.359-0.715-0.586c-0.154-0.227-0.231-0.496-0.231-0.809c0-0.519,0.22-0.959,0.659-1.318
		c0.439-0.359,1.001-0.539,1.685-0.539c0.719,0,1.302,0.186,1.749,0.557c0.447,0.371,0.671,0.846,0.671,1.424h-1.09
		c0-0.297-0.126-0.553-0.378-0.768c-0.252-0.215-0.569-0.322-0.952-0.322c-0.395,0-0.703,0.086-0.926,0.258
		c-0.223,0.172-0.334,0.397-0.334,0.674c0,0.262,0.103,0.459,0.311,0.592c0.207,0.133,0.581,0.26,1.122,0.381
		c0.541,0.121,0.979,0.266,1.315,0.434c0.336,0.168,0.585,0.37,0.747,0.606c0.162,0.236,0.243,0.524,0.243,0.864
		c0,0.566-0.227,1.021-0.68,1.362C108.87,45.62,108.282,45.791,107.559,45.791 M100.669,45.791c-0.676,0-1.19-0.196-1.544-0.589
		c-0.354-0.393-0.532-0.974-0.536-1.743v-4.125h1.084v4.096c0,0.961,0.391,1.441,1.172,1.441c0.828,0,1.379-0.309,1.652-0.926
		v-4.611h1.084v6.34h-1.031l-0.023-0.627C102.104,45.543,101.485,45.791,100.669,45.791 M82.383,45.791
		c-0.859,0-1.556-0.299-2.089-0.896c-0.533-0.598-0.8-1.389-0.8-2.373v-0.076c0-0.621,0.122-1.18,0.366-1.676
		c0.244-0.496,0.584-0.879,1.019-1.148c0.436-0.27,0.933-0.404,1.491-0.404c0.863,0,1.562,0.299,2.095,0.896
		c0.533,0.598,0.8,1.393,0.8,2.385v0.076c0,0.617-0.118,1.171-0.354,1.661c-0.236,0.49-0.574,0.872-1.014,1.146
		C83.458,45.654,82.953,45.791,82.383,45.791 M82.371,40.107c-0.535,0-0.967,0.213-1.295,0.639
		c-0.328,0.426-0.492,1.035-0.492,1.828c0,0.703,0.163,1.268,0.489,1.693c0.326,0.426,0.763,0.639,1.31,0.639
		c0.551,0,0.988-0.216,1.313-0.647c0.324-0.432,0.486-1.036,0.486-1.813c0-0.695-0.165-1.259-0.495-1.69
		C83.356,40.323,82.918,40.107,82.371,40.107 M69.708,45.791c-0.859,0-1.556-0.299-2.089-0.896c-0.533-0.598-0.8-1.389-0.8-2.373
		v-0.076c0-0.621,0.122-1.18,0.366-1.676c0.244-0.496,0.584-0.879,1.02-1.148c0.436-0.27,0.933-0.404,1.491-0.404
		c0.863,0,1.562,0.299,2.095,0.896c0.533,0.598,0.8,1.393,0.8,2.385v0.076c0,0.617-0.118,1.171-0.354,1.661
		c-0.236,0.49-0.574,0.872-1.014,1.146C70.783,45.654,70.278,45.791,69.708,45.791 M69.696,40.107c-0.535,0-0.967,0.213-1.295,0.639
		c-0.328,0.426-0.492,1.035-0.492,1.828c0,0.703,0.163,1.268,0.489,1.693c0.326,0.426,0.763,0.639,1.31,0.639
		c0.551,0,0.988-0.216,1.313-0.647c0.324-0.432,0.486-1.036,0.486-1.813c0-0.695-0.165-1.259-0.495-1.69
		C70.681,40.323,70.243,40.107,69.696,40.107 M55.756,45.791c-0.859,0-1.556-0.299-2.089-0.896c-0.533-0.598-0.8-1.389-0.8-2.373
		v-0.076c0-0.621,0.122-1.18,0.366-1.676c0.244-0.496,0.584-0.879,1.02-1.148c0.436-0.27,0.933-0.404,1.491-0.404
		c0.863,0,1.562,0.299,2.095,0.896c0.533,0.598,0.8,1.393,0.8,2.385v0.076c0,0.617-0.118,1.171-0.354,1.661
		c-0.236,0.49-0.574,0.872-1.014,1.146C56.831,45.654,56.326,45.791,55.756,45.791 M55.744,40.107c-0.535,0-0.967,0.213-1.295,0.639
		c-0.328,0.426-0.492,1.035-0.492,1.828c0,0.703,0.163,1.268,0.489,1.693c0.326,0.426,0.763,0.639,1.31,0.639
		c0.551,0,0.988-0.216,1.312-0.647c0.324-0.432,0.486-1.036,0.486-1.813c0-0.695-0.165-1.259-0.495-1.69
		C56.73,40.323,56.291,40.107,55.744,40.107 M51.25,45.791c-0.484,0-0.85-0.146-1.096-0.439c-0.246-0.293-0.369-0.709-0.369-1.248
		v-3.932h-1.154v-0.838h1.154v-1.535h1.084v1.535h1.184v0.838H50.87v3.937c0,0.254,0.053,0.445,0.158,0.572
		c0.105,0.127,0.285,0.191,0.539,0.191c0.125,0,0.297-0.023,0.516-0.07v0.874C51.797,45.752,51.52,45.791,51.25,45.791
		 M42.453,45.791c-0.508,0-0.957-0.09-1.348-0.27c-0.391-0.18-0.696-0.431-0.917-0.753c-0.221-0.322-0.331-0.671-0.331-1.046h1.084
		c0.02,0.363,0.165,0.651,0.437,0.864c0.271,0.213,0.63,0.319,1.075,0.319c0.41,0,0.739-0.083,0.987-0.249
		c0.248-0.166,0.372-0.388,0.372-0.665c0-0.293-0.11-0.52-0.331-0.683c-0.221-0.162-0.606-0.302-1.154-0.419
		c-0.549-0.117-0.984-0.258-1.307-0.422s-0.561-0.359-0.715-0.586c-0.154-0.227-0.231-0.496-0.231-0.809
		c0-0.519,0.22-0.959,0.659-1.318c0.439-0.359,1.001-0.539,1.685-0.539c0.719,0,1.302,0.186,1.749,0.557
		c0.447,0.371,0.671,0.846,0.671,1.424h-1.09c0-0.297-0.126-0.553-0.378-0.768c-0.252-0.215-0.569-0.322-0.952-0.322
		c-0.395,0-0.703,0.086-0.926,0.258c-0.223,0.172-0.334,0.397-0.334,0.674c0,0.262,0.103,0.459,0.311,0.592
		c0.207,0.133,0.581,0.26,1.122,0.381c0.541,0.121,0.979,0.266,1.315,0.434c0.336,0.168,0.585,0.37,0.747,0.606
		c0.162,0.236,0.243,0.524,0.243,0.864c0,0.566-0.227,1.021-0.68,1.362C43.763,45.62,43.175,45.791,42.453,45.791 M92.574,45.674
		h-0.879l-1.541-4.805l-1.5,4.805h-0.879l-1.84-6.34h1.078l1.248,4.746l1.477-4.746h0.873l1.506,4.846l1.219-4.846h1.084
		L92.574,45.674 M78.025,45.674h-1.084v-9h1.084V45.674 M75.146,45.674h-1.084v-9h1.084V45.674 M64.706,45.674h-1.084v-5.502H62.62
		v-0.838h1.002v-0.65c0-0.68,0.182-1.205,0.545-1.576c0.363-0.371,0.877-0.557,1.541-0.557c0.25,0,0.498,0.033,0.744,0.099
		l-0.059,0.874c-0.184-0.035-0.379-0.053-0.586-0.053c-0.352,0-0.623,0.103-0.814,0.309c-0.191,0.206-0.287,0.501-0.287,0.885v0.67
		h1.354v0.838h-1.354V45.674 M38.422,45.674h-1.084v-6.34h1.084V45.674 M33.175,45.674h-1.154l-0.814-2.232h-3.574l-0.803,2.232
		h-1.16l3.258-8.531h0.984L33.175,45.674 M29.419,38.531l-1.447,3.99h2.9L29.419,38.531 M21.204,45.674h-2.361v-8.531h2.408
		c0.742,0,1.398,0.164,1.969,0.492c0.57,0.328,1.011,0.795,1.321,1.4c0.311,0.606,0.468,1.301,0.472,2.086v0.545
		c0,0.805-0.155,1.51-0.466,2.115c-0.311,0.606-0.754,1.07-1.33,1.395C22.64,45.5,21.969,45.666,21.204,45.674 M19.968,38.063v6.691
		h1.184c0.867,0,1.542-0.27,2.024-0.809c0.482-0.539,0.724-1.308,0.724-2.305v-0.499c0-0.97-0.228-1.723-0.683-2.261
		c-0.455-0.538-1.101-0.81-1.937-0.818H19.968 M17.512,45.674h-1.154l-0.814-2.232h-3.574l-0.803,2.232h-1.16l3.258-8.531h0.984
		L17.512,45.674 M13.756,38.531l-1.447,3.99h2.9L13.756,38.531 M37.889,38.268c-0.211,0-0.37-0.059-0.478-0.176
		c-0.108-0.117-0.161-0.264-0.161-0.439s0.054-0.324,0.161-0.445c0.107-0.121,0.267-0.182,0.478-0.182
		c0.211,0,0.371,0.061,0.48,0.182c0.109,0.121,0.164,0.27,0.164,0.445s-0.055,0.322-0.164,0.439
		C38.26,38.209,38.1,38.268,37.889,38.268"/>
	<path fill="#000000" d="M194.536,45.791c-0.625,0-1.138-0.177-1.538-0.53c-0.4-0.353-0.601-0.802-0.601-1.345
		c0-0.66,0.251-1.173,0.753-1.538c0.502-0.365,1.208-0.548,2.118-0.548h1.055v-0.498c0-0.379-0.113-0.681-0.34-0.905
		c-0.227-0.225-0.561-0.337-1.002-0.337c-0.387,0-0.711,0.098-0.973,0.293c-0.262,0.195-0.393,0.432-0.393,0.709h-1.09
		c0-0.316,0.112-0.622,0.337-0.917c0.225-0.295,0.529-0.528,0.914-0.7c0.385-0.172,0.808-0.258,1.269-0.258
		c0.73,0,1.303,0.183,1.717,0.548c0.414,0.365,0.629,0.868,0.645,1.509v2.918c0,0.582,0.074,1.045,0.223,1.389v0.094h-1.137
		c-0.063-0.125-0.113-0.348-0.152-0.668C195.837,45.529,195.236,45.791,194.536,45.791 M195.474,42.598
		c-1.328,0-1.992,0.389-1.992,1.166c0,0.34,0.113,0.606,0.34,0.797c0.227,0.191,0.518,0.287,0.873,0.287
		c0.34,0,0.662-0.088,0.967-0.264c0.305-0.176,0.525-0.404,0.662-0.686v-1.301H195.474 M185.172,45.791
		c-0.734,0-1.333-0.301-1.796-0.902c-0.463-0.602-0.694-1.387-0.694-2.355v-0.082c0-0.973,0.23-1.755,0.691-2.347
		c0.461-0.592,1.064-0.888,1.811-0.888c0.742,0,1.33,0.254,1.764,0.762v-3.305h1.084v9h-0.996l-0.053-0.68
		C186.549,45.525,185.945,45.791,185.172,45.791 M185.453,40.137c-0.531,0-0.945,0.205-1.242,0.615
		c-0.297,0.41-0.445,1.018-0.445,1.822c0,0.719,0.148,1.281,0.445,1.687c0.297,0.406,0.707,0.609,1.23,0.609
		c0.688,0,1.189-0.309,1.506-0.926v-2.912C186.623,40.436,186.125,40.137,185.453,40.137 M179.093,45.791
		c-0.859,0-1.559-0.282-2.098-0.847c-0.539-0.564-0.809-1.319-0.809-2.265V42.48c0-0.629,0.12-1.19,0.36-1.685
		c0.24-0.494,0.576-0.881,1.008-1.16c0.432-0.279,0.899-0.419,1.403-0.419c0.824,0,1.465,0.272,1.922,0.814
		c0.457,0.543,0.686,1.32,0.686,2.332v0.451h-4.295c0.016,0.625,0.198,1.13,0.548,1.515c0.349,0.385,0.794,0.577,1.333,0.577
		c0.383,0,0.707-0.078,0.973-0.234c0.266-0.156,0.498-0.363,0.697-0.621l0.662,0.516C180.952,45.383,180.155,45.791,179.093,45.791
		 M178.958,40.107c-0.438,0-0.805,0.159-1.102,0.478c-0.297,0.318-0.48,0.765-0.551,1.339h3.176v-0.082
		c-0.031-0.551-0.18-0.977-0.445-1.28C179.77,40.259,179.411,40.107,178.958,40.107 M155.342,45.791
		c-0.625,0-1.138-0.177-1.538-0.53c-0.4-0.353-0.601-0.802-0.601-1.345c0-0.66,0.251-1.173,0.753-1.538
		c0.502-0.365,1.208-0.548,2.118-0.548h1.055v-0.498c0-0.379-0.113-0.681-0.34-0.905c-0.227-0.225-0.561-0.337-1.002-0.337
		c-0.387,0-0.711,0.098-0.973,0.293c-0.262,0.195-0.393,0.432-0.393,0.709h-1.09c0-0.316,0.112-0.622,0.337-0.917
		c0.225-0.295,0.529-0.528,0.914-0.7c0.385-0.172,0.808-0.258,1.269-0.258c0.73,0,1.303,0.183,1.717,0.548
		c0.414,0.365,0.629,0.868,0.645,1.509v2.918c0,0.582,0.074,1.045,0.223,1.389v0.094h-1.137c-0.063-0.125-0.113-0.348-0.152-0.668
		C156.643,45.529,156.042,45.791,155.342,45.791 M156.28,42.598c-1.328,0-1.992,0.389-1.992,1.166c0,0.34,0.113,0.606,0.34,0.797
		c0.227,0.191,0.518,0.287,0.873,0.287c0.34,0,0.662-0.088,0.967-0.264c0.305-0.176,0.525-0.404,0.662-0.686v-1.301H156.28
		 M146.728,45.791c-0.863,0-1.55-0.288-2.06-0.864c-0.51-0.576-0.765-1.364-0.765-2.364v-0.182c0-0.617,0.113-1.166,0.34-1.646
		c0.226-0.48,0.552-0.853,0.976-1.119c0.424-0.266,0.925-0.398,1.503-0.398c0.711,0,1.302,0.213,1.772,0.639
		c0.471,0.426,0.722,0.978,0.753,1.658h-1.025c-0.031-0.41-0.187-0.747-0.466-1.011c-0.279-0.264-0.624-0.395-1.034-0.395
		c-0.551,0-0.978,0.198-1.28,0.595c-0.303,0.396-0.454,0.97-0.454,1.72v0.205c0,0.73,0.15,1.293,0.451,1.687
		c0.301,0.395,0.73,0.592,1.289,0.592c0.387,0,0.725-0.117,1.014-0.352c0.289-0.234,0.449-0.527,0.48-0.879h1.025
		c-0.02,0.363-0.145,0.709-0.375,1.037c-0.231,0.328-0.538,0.59-0.923,0.785C147.565,45.693,147.157,45.791,146.728,45.791
		 M139.883,45.791c-0.859,0-1.556-0.299-2.089-0.896c-0.533-0.598-0.8-1.389-0.8-2.373v-0.076c0-0.621,0.122-1.18,0.366-1.676
		c0.244-0.496,0.584-0.879,1.019-1.148c0.436-0.27,0.933-0.404,1.491-0.404c0.863,0,1.562,0.299,2.095,0.896
		c0.533,0.598,0.8,1.393,0.8,2.385v0.076c0,0.617-0.118,1.171-0.354,1.661c-0.236,0.49-0.574,0.872-1.014,1.146
		C140.958,45.654,140.453,45.791,139.883,45.791 M139.871,40.107c-0.535,0-0.967,0.213-1.295,0.639
		c-0.328,0.426-0.492,1.035-0.492,1.828c0,0.703,0.163,1.268,0.489,1.693c0.326,0.426,0.763,0.639,1.31,0.639
		c0.551,0,0.988-0.216,1.312-0.647c0.324-0.432,0.486-1.036,0.486-1.813c0-0.695-0.165-1.259-0.495-1.69
		C140.856,40.323,140.418,40.107,139.871,40.107 M133.446,45.791c-0.508,0-0.957-0.09-1.348-0.27
		c-0.391-0.18-0.696-0.431-0.917-0.753c-0.221-0.322-0.331-0.671-0.331-1.046h1.084c0.02,0.363,0.165,0.651,0.437,0.864
		c0.271,0.213,0.63,0.319,1.075,0.319c0.41,0,0.739-0.083,0.987-0.249c0.248-0.166,0.372-0.388,0.372-0.665
		c0-0.293-0.11-0.52-0.331-0.683c-0.221-0.162-0.606-0.302-1.154-0.419c-0.549-0.117-0.984-0.258-1.307-0.422
		s-0.561-0.359-0.715-0.586c-0.154-0.227-0.231-0.496-0.231-0.809c0-0.519,0.22-0.959,0.659-1.318
		c0.439-0.359,1.001-0.539,1.685-0.539c0.719,0,1.302,0.186,1.749,0.557c0.447,0.371,0.671,0.846,0.671,1.424h-1.09
		c0-0.297-0.126-0.553-0.378-0.768s-0.569-0.322-0.952-0.322c-0.395,0-0.703,0.086-0.926,0.258
		c-0.223,0.172-0.334,0.397-0.334,0.674c0,0.262,0.103,0.459,0.311,0.592c0.207,0.133,0.581,0.26,1.122,0.381
		c0.541,0.121,0.979,0.266,1.315,0.434c0.336,0.168,0.585,0.37,0.747,0.606c0.162,0.236,0.243,0.524,0.243,0.864
		c0,0.566-0.227,1.021-0.68,1.362C134.756,45.62,134.169,45.791,133.446,45.791 M199.841,45.738c-0.223,0-0.39-0.061-0.501-0.182
		c-0.111-0.121-0.167-0.271-0.167-0.451c0-0.187,0.056-0.344,0.167-0.469c0.111-0.125,0.278-0.187,0.501-0.187
		c0.223,0,0.392,0.063,0.507,0.187c0.115,0.125,0.173,0.281,0.173,0.469c0,0.18-0.058,0.33-0.173,0.451
		C200.233,45.678,200.064,45.738,199.841,45.738 M190.899,45.674h-1.084v-6.34h1.084V45.674 M174.775,45.674h-1.084V41.49
		c0-0.453-0.104-0.792-0.311-1.017c-0.207-0.225-0.555-0.337-1.043-0.337c-0.402,0-0.736,0.12-1.002,0.36
		c-0.266,0.24-0.42,0.563-0.463,0.97v4.207h-1.09V41.52c0-0.922-0.451-1.383-1.354-1.383c-0.711,0-1.197,0.303-1.459,0.908v4.629
		h-1.084v-6.34h1.025l0.029,0.703c0.465-0.547,1.092-0.82,1.881-0.82c0.887,0,1.49,0.34,1.811,1.019
		c0.211-0.305,0.485-0.551,0.823-0.738c0.338-0.187,0.737-0.281,1.198-0.281c1.391,0,2.098,0.736,2.121,2.209V45.674
		 M161.068,45.674h-1.084v-9h1.084V45.674 M151.705,45.674h-1.084v-6.34h1.084V45.674 M126.388,45.674h-1.084v-4.195
		c-0.004-0.457-0.108-0.795-0.313-1.014c-0.205-0.219-0.524-0.328-0.958-0.328c-0.352,0-0.66,0.094-0.926,0.281
		c-0.266,0.187-0.473,0.434-0.621,0.738v4.518h-1.084v-6.34h1.025l0.035,0.797c0.484-0.609,1.117-0.914,1.898-0.914
		c1.34,0,2.016,0.756,2.027,2.268V45.674 M190.366,38.268c-0.211,0-0.37-0.059-0.478-0.176c-0.107-0.117-0.161-0.264-0.161-0.439
		s0.054-0.324,0.161-0.445c0.107-0.121,0.267-0.182,0.478-0.182c0.211,0,0.371,0.061,0.48,0.182c0.109,0.121,0.164,0.27,0.164,0.445
		s-0.055,0.322-0.164,0.439C190.737,38.209,190.577,38.268,190.366,38.268 M151.172,38.268c-0.211,0-0.37-0.059-0.478-0.176
		c-0.107-0.117-0.161-0.264-0.161-0.439s0.054-0.324,0.161-0.445c0.107-0.121,0.267-0.182,0.478-0.182
		c0.211,0,0.371,0.061,0.48,0.182c0.109,0.121,0.164,0.27,0.164,0.445s-0.055,0.322-0.164,0.439
		C151.543,38.209,151.383,38.268,151.172,38.268"/>
	<path fill="#000000" d="M92.78,61.791c-0.859,0-1.559-0.282-2.098-0.847c-0.539-0.564-0.809-1.319-0.809-2.265V58.48
		c0-0.629,0.12-1.19,0.36-1.685c0.24-0.494,0.576-0.881,1.008-1.16c0.432-0.279,0.899-0.419,1.403-0.419
		c0.824,0,1.465,0.272,1.922,0.814c0.457,0.543,0.686,1.32,0.686,2.332v0.451h-4.295c0.016,0.625,0.198,1.13,0.548,1.515
		c0.35,0.385,0.794,0.577,1.333,0.577c0.383,0,0.707-0.078,0.973-0.234c0.266-0.156,0.498-0.363,0.697-0.621l0.662,0.516
		C94.64,61.383,93.843,61.791,92.78,61.791 M92.646,56.107c-0.437,0-0.805,0.159-1.102,0.478c-0.297,0.318-0.48,0.765-0.551,1.339
		h3.176v-0.082c-0.031-0.551-0.18-0.977-0.445-1.28C93.458,56.259,93.099,56.107,92.646,56.107 M81.442,61.791
		c-0.484,0-0.85-0.146-1.096-0.439c-0.246-0.293-0.369-0.709-0.369-1.248v-3.932h-1.154v-0.838h1.154v-1.535h1.084v1.535h1.184
		v0.838h-1.184v3.937c0,0.254,0.053,0.445,0.158,0.572c0.105,0.127,0.285,0.191,0.539,0.191c0.125,0,0.297-0.023,0.516-0.07v0.874
		C81.989,61.752,81.711,61.791,81.442,61.791 M71.959,61.791c-0.734,0-1.333-0.301-1.796-0.902
		c-0.463-0.601-0.694-1.387-0.694-2.355v-0.082c0-0.973,0.23-1.755,0.691-2.347c0.461-0.592,1.064-0.888,1.811-0.888
		c0.742,0,1.33,0.254,1.764,0.762v-3.305h1.084v9h-0.996l-0.053-0.68C73.336,61.525,72.732,61.791,71.959,61.791 M72.24,56.137
		c-0.531,0-0.945,0.205-1.242,0.615c-0.297,0.41-0.445,1.018-0.445,1.822c0,0.719,0.148,1.281,0.445,1.688
		c0.297,0.406,0.707,0.609,1.23,0.609c0.687,0,1.189-0.308,1.506-0.926v-2.912C73.41,56.436,72.912,56.137,72.24,56.137
		 M42.024,61.791c-0.625,0-1.138-0.177-1.538-0.53c-0.4-0.353-0.601-0.802-0.601-1.345c0-0.66,0.251-1.173,0.753-1.538
		c0.502-0.365,1.208-0.548,2.118-0.548h1.055v-0.498c0-0.379-0.113-0.681-0.34-0.905c-0.227-0.225-0.561-0.337-1.002-0.337
		c-0.387,0-0.711,0.098-0.973,0.293c-0.262,0.195-0.393,0.432-0.393,0.709h-1.09c0-0.316,0.112-0.622,0.337-0.917
		c0.225-0.295,0.529-0.528,0.914-0.7c0.385-0.172,0.808-0.258,1.269-0.258c0.73,0,1.303,0.183,1.717,0.548
		c0.414,0.365,0.629,0.868,0.645,1.509v2.918c0,0.582,0.074,1.045,0.223,1.389v0.094h-1.137c-0.063-0.125-0.113-0.348-0.152-0.668
		C43.324,61.529,42.723,61.791,42.024,61.791 M42.961,58.598c-1.328,0-1.992,0.389-1.992,1.166c0,0.34,0.113,0.606,0.34,0.797
		c0.227,0.191,0.518,0.287,0.873,0.287c0.34,0,0.662-0.088,0.967-0.264c0.305-0.176,0.525-0.404,0.662-0.686v-1.301H42.961
		 M36.251,61.791c-0.863,0-1.55-0.288-2.06-0.864c-0.51-0.576-0.765-1.364-0.765-2.364v-0.182c0-0.617,0.113-1.166,0.34-1.646
		c0.227-0.48,0.552-0.853,0.976-1.119c0.424-0.266,0.925-0.398,1.503-0.398c0.711,0,1.302,0.213,1.772,0.639
		c0.471,0.426,0.722,0.979,0.753,1.658h-1.025c-0.031-0.41-0.187-0.747-0.466-1.011c-0.279-0.264-0.624-0.396-1.034-0.396
		c-0.551,0-0.978,0.198-1.28,0.595c-0.303,0.396-0.454,0.97-0.454,1.72v0.205c0,0.731,0.15,1.293,0.451,1.688
		c0.301,0.395,0.73,0.592,1.289,0.592c0.387,0,0.725-0.117,1.014-0.352c0.289-0.234,0.449-0.527,0.48-0.879h1.025
		c-0.02,0.363-0.145,0.709-0.375,1.037c-0.23,0.328-0.538,0.59-0.923,0.785C37.088,61.693,36.681,61.791,36.251,61.791
		 M26.059,61.791c-0.676,0-1.19-0.196-1.544-0.589c-0.354-0.393-0.532-0.974-0.536-1.743v-4.125h1.084v4.096
		c0,0.961,0.391,1.441,1.172,1.441c0.828,0,1.379-0.308,1.652-0.926v-4.611h1.084v6.34H27.94l-0.023-0.627
		C27.495,61.543,26.876,61.791,26.059,61.791 M19.715,61.791c-0.859,0-1.556-0.299-2.089-0.897c-0.533-0.598-0.8-1.389-0.8-2.373
		v-0.076c0-0.621,0.122-1.18,0.366-1.676c0.244-0.496,0.584-0.879,1.019-1.148c0.436-0.27,0.933-0.404,1.491-0.404
		c0.863,0,1.562,0.299,2.095,0.897c0.533,0.598,0.8,1.393,0.8,2.385v0.076c0,0.617-0.118,1.171-0.354,1.661
		c-0.236,0.49-0.574,0.872-1.014,1.146C20.79,61.654,20.285,61.791,19.715,61.791 M19.703,56.107c-0.535,0-0.967,0.213-1.295,0.639
		c-0.328,0.426-0.492,1.035-0.492,1.828c0,0.703,0.163,1.268,0.489,1.693c0.326,0.426,0.763,0.639,1.31,0.639
		c0.551,0,0.988-0.216,1.313-0.648c0.324-0.432,0.486-1.036,0.486-1.813c0-0.695-0.165-1.259-0.495-1.69
		C20.688,56.323,20.25,56.107,19.703,56.107 M106.447,61.674h-1.154l-0.814-2.232h-3.574l-0.803,2.232h-1.16l3.258-8.531h0.984
		L106.447,61.674 M102.692,54.531l-1.447,3.99h2.9L102.692,54.531 M88.47,61.674h-1.084v-4.195
		c-0.004-0.457-0.108-0.795-0.313-1.014c-0.205-0.219-0.524-0.328-0.958-0.328c-0.352,0-0.66,0.094-0.926,0.281
		c-0.266,0.187-0.473,0.434-0.621,0.738v4.518h-1.084v-9h1.084v3.428c0.48-0.59,1.105-0.885,1.875-0.885
		c1.34,0,2.016,0.756,2.027,2.268V61.674 M68.053,61.674h-1.084v-4.195c-0.004-0.457-0.108-0.795-0.313-1.014
		c-0.205-0.219-0.524-0.328-0.958-0.328c-0.352,0-0.66,0.094-0.926,0.281c-0.266,0.187-0.473,0.434-0.621,0.738v4.518h-1.084v-6.34
		h1.025l0.035,0.797c0.484-0.609,1.117-0.914,1.898-0.914c1.34,0,2.016,0.756,2.027,2.268V61.674 M61.218,61.674h-1.09v-6.34h1.09
		V61.674 M57.79,61.674H56.7v-5.502h-1.002v-0.838H56.7v-0.539c0-0.707,0.202-1.258,0.606-1.652
		c0.404-0.394,0.976-0.592,1.714-0.592c0.437,0,0.99,0.119,1.658,0.357l-0.182,0.914c-0.488-0.195-0.953-0.293-1.395-0.293
		c-0.465,0-0.8,0.105-1.005,0.313c-0.205,0.209-0.308,0.522-0.308,0.94v0.551h1.295v0.838H57.79V61.674 M51.611,61.674h-1.084
		v-4.195c-0.004-0.457-0.108-0.795-0.313-1.014c-0.205-0.219-0.524-0.328-0.958-0.328c-0.352,0-0.66,0.094-0.926,0.281
		c-0.266,0.187-0.473,0.434-0.621,0.738v4.518h-1.084v-6.34h1.025l0.035,0.797c0.484-0.609,1.117-0.914,1.898-0.914
		c1.34,0,2.016,0.756,2.027,2.268V61.674 M13.996,61.674h-1.125v-3.182l-2.941-5.35h1.289l2.215,4.283l2.227-4.283h1.277
		l-2.941,5.35V61.674"/>
	<path fill="#000000" d="M190.701,61.791c-0.625,0-1.138-0.177-1.538-0.53c-0.4-0.353-0.601-0.802-0.601-1.345
		c0-0.66,0.251-1.173,0.753-1.538c0.502-0.365,1.208-0.548,2.118-0.548h1.055v-0.498c0-0.379-0.113-0.681-0.34-0.905
		c-0.227-0.225-0.561-0.337-1.002-0.337c-0.387,0-0.711,0.098-0.973,0.293c-0.262,0.195-0.393,0.432-0.393,0.709h-1.09
		c0-0.316,0.112-0.622,0.337-0.917c0.225-0.295,0.529-0.528,0.914-0.7c0.385-0.172,0.808-0.258,1.269-0.258
		c0.73,0,1.303,0.183,1.717,0.548c0.414,0.365,0.629,0.868,0.645,1.509v2.918c0,0.582,0.074,1.045,0.223,1.389v0.094h-1.137
		c-0.063-0.125-0.113-0.348-0.152-0.668C192.002,61.529,191.4,61.791,190.701,61.791 M191.638,58.598
		c-1.328,0-1.992,0.389-1.992,1.166c0,0.34,0.113,0.606,0.34,0.797c0.227,0.191,0.518,0.287,0.873,0.287
		c0.34,0,0.662-0.088,0.967-0.264c0.305-0.176,0.525-0.404,0.662-0.686v-1.301H191.638 M181.336,61.791
		c-0.734,0-1.333-0.301-1.796-0.902c-0.463-0.601-0.694-1.387-0.694-2.355v-0.082c0-0.973,0.23-1.755,0.691-2.347
		c0.461-0.592,1.064-0.888,1.811-0.888c0.742,0,1.33,0.254,1.764,0.762v-3.305h1.084v9H183.2l-0.053-0.68
		C182.713,61.525,182.11,61.791,181.336,61.791 M181.618,56.137c-0.531,0-0.945,0.205-1.242,0.615
		c-0.297,0.41-0.445,1.018-0.445,1.822c0,0.719,0.148,1.281,0.445,1.688c0.297,0.406,0.707,0.609,1.231,0.609
		c0.687,0,1.189-0.308,1.506-0.926v-2.912C182.788,56.436,182.289,56.137,181.618,56.137 M175.257,61.791
		c-0.859,0-1.559-0.282-2.098-0.847c-0.539-0.564-0.809-1.319-0.809-2.265V58.48c0-0.629,0.12-1.19,0.36-1.685
		c0.24-0.494,0.576-0.881,1.008-1.16c0.432-0.279,0.899-0.419,1.403-0.419c0.824,0,1.465,0.272,1.922,0.814
		c0.457,0.543,0.686,1.32,0.686,2.332v0.451h-4.295c0.016,0.625,0.198,1.13,0.548,1.515c0.35,0.385,0.794,0.577,1.333,0.577
		c0.383,0,0.707-0.078,0.973-0.234c0.266-0.156,0.498-0.363,0.697-0.621l0.662,0.516C177.117,61.383,176.32,61.791,175.257,61.791
		 M175.122,56.107c-0.437,0-0.805,0.159-1.102,0.478c-0.297,0.318-0.48,0.765-0.551,1.339h3.176v-0.082
		c-0.031-0.551-0.18-0.977-0.445-1.28C175.935,56.259,175.576,56.107,175.122,56.107 M151.524,61.791
		c-0.625,0-1.138-0.177-1.538-0.53c-0.4-0.353-0.601-0.802-0.601-1.345c0-0.66,0.251-1.173,0.753-1.538
		c0.502-0.365,1.208-0.548,2.118-0.548h1.055v-0.498c0-0.379-0.113-0.681-0.34-0.905c-0.227-0.225-0.561-0.337-1.002-0.337
		c-0.387,0-0.711,0.098-0.973,0.293c-0.262,0.195-0.393,0.432-0.393,0.709h-1.09c0-0.316,0.112-0.622,0.337-0.917
		c0.225-0.295,0.529-0.528,0.914-0.7c0.385-0.172,0.808-0.258,1.269-0.258c0.73,0,1.303,0.183,1.717,0.548
		c0.414,0.365,0.629,0.868,0.645,1.509v2.918c0,0.582,0.074,1.045,0.223,1.389v0.094h-1.137c-0.063-0.125-0.113-0.348-0.152-0.668
		C152.825,61.529,152.223,61.791,151.524,61.791 M152.461,58.598c-1.328,0-1.992,0.389-1.992,1.166c0,0.34,0.113,0.606,0.34,0.797
		c0.227,0.191,0.518,0.287,0.873,0.287c0.34,0,0.662-0.088,0.967-0.264c0.305-0.176,0.525-0.404,0.662-0.686v-1.301H152.461
		 M142.909,61.791c-0.863,0-1.55-0.288-2.06-0.864c-0.51-0.576-0.765-1.364-0.765-2.364v-0.182c0-0.617,0.113-1.166,0.34-1.646
		c0.227-0.48,0.552-0.853,0.976-1.119c0.424-0.266,0.925-0.398,1.503-0.398c0.711,0,1.302,0.213,1.772,0.639
		c0.471,0.426,0.722,0.979,0.753,1.658h-1.025c-0.031-0.41-0.187-0.747-0.466-1.011c-0.279-0.264-0.624-0.396-1.034-0.396
		c-0.551,0-0.978,0.198-1.28,0.595c-0.303,0.396-0.454,0.97-0.454,1.72v0.205c0,0.731,0.15,1.293,0.451,1.688
		c0.301,0.395,0.73,0.592,1.289,0.592c0.387,0,0.725-0.117,1.014-0.352c0.289-0.234,0.449-0.527,0.48-0.879h1.025
		c-0.02,0.363-0.145,0.709-0.375,1.037c-0.231,0.328-0.538,0.59-0.923,0.785C143.746,61.693,143.339,61.791,142.909,61.791
		 M136.064,61.791c-0.859,0-1.556-0.299-2.089-0.897c-0.533-0.598-0.8-1.389-0.8-2.373v-0.076c0-0.621,0.122-1.18,0.366-1.676
		c0.244-0.496,0.584-0.879,1.02-1.148c0.435-0.27,0.933-0.404,1.491-0.404c0.863,0,1.562,0.299,2.095,0.897
		c0.533,0.598,0.8,1.393,0.8,2.385v0.076c0,0.617-0.118,1.171-0.354,1.661c-0.236,0.49-0.574,0.872-1.014,1.146
		C137.139,61.654,136.634,61.791,136.064,61.791 M136.052,56.107c-0.535,0-0.967,0.213-1.295,0.639
		c-0.328,0.426-0.492,1.035-0.492,1.828c0,0.703,0.163,1.268,0.489,1.693c0.326,0.426,0.763,0.639,1.31,0.639
		c0.551,0,0.988-0.216,1.312-0.648c0.324-0.432,0.486-1.036,0.486-1.813c0-0.695-0.165-1.259-0.495-1.69
		C137.038,56.323,136.599,56.107,136.052,56.107 M129.057,61.791c-0.586,0-1.133-0.112-1.641-0.337
		c-0.508-0.225-0.899-0.532-1.175-0.923c-0.275-0.391-0.413-0.834-0.413-1.33h1.131c0,0.516,0.19,0.923,0.571,1.222
		c0.381,0.299,0.89,0.448,1.526,0.448c0.594,0,1.049-0.121,1.365-0.363c0.316-0.242,0.475-0.572,0.475-0.99
		c0-0.418-0.146-0.741-0.439-0.97c-0.293-0.229-0.824-0.454-1.594-0.677c-0.965-0.277-1.667-0.618-2.106-1.022
		c-0.439-0.404-0.659-0.903-0.659-1.497c0-0.672,0.269-1.228,0.806-1.667c0.537-0.439,1.235-0.659,2.095-0.659
		c0.586,0,1.108,0.113,1.567,0.34c0.459,0.227,0.814,0.539,1.066,0.938c0.252,0.398,0.378,0.834,0.378,1.307h-1.131
		c0-0.517-0.164-0.924-0.492-1.22c-0.328-0.296-0.791-0.444-1.389-0.444c-0.555,0-0.987,0.122-1.298,0.367
		c-0.311,0.245-0.466,0.584-0.466,1.018c0,0.348,0.147,0.643,0.442,0.883c0.295,0.241,0.797,0.461,1.506,0.66
		c0.709,0.2,1.264,0.42,1.664,0.66c0.4,0.24,0.697,0.521,0.891,0.841c0.193,0.32,0.29,0.697,0.29,1.131
		c0,0.691-0.27,1.245-0.809,1.661C130.68,61.583,129.96,61.791,129.057,61.791 M187.064,61.674h-1.084v-6.34h1.084V61.674
		 M170.734,61.674h-1.125v-3.322l0.105-3.586l-2.801,6.908h-0.861l-2.795-6.891l0.111,3.568v3.322h-1.125v-8.531h1.453l2.789,6.961
		l2.789-6.961h1.459V61.674 M157.249,61.674h-1.084v-9h1.084V61.674 M147.887,61.674h-1.084v-6.34h1.084V61.674 M122.111,61.674
		h-1.154l-0.814-2.232h-3.574l-0.803,2.232h-1.16l3.258-8.531h0.984L122.111,61.674 M118.355,54.531l-1.447,3.99h2.9L118.355,54.531
		 M110.14,61.674h-2.361v-8.531h2.408c0.742,0,1.398,0.164,1.969,0.492c0.57,0.328,1.011,0.795,1.321,1.4
		c0.311,0.606,0.468,1.301,0.472,2.086v0.545c0,0.805-0.155,1.51-0.466,2.115c-0.311,0.606-0.754,1.07-1.33,1.395
		C111.576,61.5,110.905,61.666,110.14,61.674 M108.903,54.062v6.691h1.184c0.867,0,1.542-0.27,2.024-0.809
		c0.482-0.54,0.724-1.308,0.724-2.305v-0.499c0-0.97-0.228-1.723-0.683-2.261c-0.455-0.538-1.101-0.81-1.937-0.818H108.903
		 M186.53,54.268c-0.211,0-0.37-0.059-0.478-0.176c-0.108-0.117-0.161-0.264-0.161-0.439s0.054-0.324,0.161-0.445
		c0.107-0.121,0.267-0.182,0.478-0.182c0.211,0,0.371,0.061,0.48,0.182c0.109,0.121,0.164,0.27,0.164,0.445
		s-0.055,0.322-0.164,0.439C186.901,54.209,186.741,54.268,186.53,54.268 M147.353,54.268c-0.211,0-0.37-0.059-0.478-0.176
		c-0.107-0.117-0.161-0.264-0.161-0.439s0.054-0.324,0.161-0.445c0.107-0.121,0.267-0.182,0.478-0.182
		c0.211,0,0.371,0.061,0.48,0.182c0.109,0.121,0.164,0.27,0.164,0.445s-0.055,0.322-0.164,0.439
		C147.724,54.209,147.564,54.268,147.353,54.268"/>
	<path fill="#000000" d="M38.908,77.791c-0.676,0-1.19-0.196-1.544-0.589c-0.354-0.393-0.532-0.974-0.536-1.743v-4.125h1.084v4.096
		c0,0.961,0.391,1.441,1.172,1.441c0.828,0,1.379-0.309,1.652-0.926v-4.611h1.084v6.34h-1.031l-0.023-0.627
		C40.343,77.543,39.724,77.791,38.908,77.791 M32.564,77.791c-0.859,0-1.556-0.299-2.089-0.896c-0.533-0.598-0.8-1.389-0.8-2.373
		v-0.076c0-0.621,0.122-1.18,0.366-1.676c0.244-0.496,0.584-0.879,1.02-1.148c0.436-0.27,0.933-0.404,1.491-0.404
		c0.863,0,1.562,0.299,2.095,0.896c0.533,0.598,0.8,1.393,0.8,2.385v0.076c0,0.617-0.118,1.171-0.354,1.661
		c-0.236,0.49-0.574,0.872-1.014,1.146C33.639,77.654,33.134,77.791,32.564,77.791 M32.552,72.107c-0.535,0-0.967,0.213-1.295,0.639
		c-0.328,0.426-0.492,1.035-0.492,1.828c0,0.703,0.163,1.268,0.489,1.693c0.326,0.426,0.763,0.639,1.31,0.639
		c0.551,0,0.988-0.216,1.312-0.647c0.324-0.432,0.486-1.036,0.486-1.813c0-0.695-0.165-1.259-0.495-1.69
		C33.537,72.323,33.099,72.107,32.552,72.107 M26.123,77.791c-0.863,0-1.55-0.288-2.06-0.864c-0.51-0.576-0.765-1.364-0.765-2.364
		v-0.182c0-0.617,0.113-1.166,0.34-1.647c0.227-0.48,0.552-0.853,0.976-1.119c0.424-0.266,0.925-0.398,1.503-0.398
		c0.711,0,1.302,0.213,1.772,0.639c0.471,0.426,0.722,0.978,0.753,1.658h-1.025c-0.031-0.41-0.187-0.747-0.466-1.011
		c-0.279-0.264-0.624-0.395-1.034-0.395c-0.551,0-0.978,0.198-1.28,0.595c-0.303,0.397-0.454,0.97-0.454,1.72v0.205
		c0,0.731,0.15,1.293,0.451,1.687c0.301,0.395,0.73,0.592,1.289,0.592c0.387,0,0.725-0.117,1.014-0.352
		c0.289-0.234,0.449-0.527,0.48-0.879h1.025c-0.02,0.363-0.145,0.709-0.375,1.037c-0.231,0.328-0.538,0.59-0.923,0.785
		C26.96,77.693,26.553,77.791,26.123,77.791 M19.735,77.791c-0.863,0-1.55-0.288-2.06-0.864c-0.51-0.576-0.765-1.364-0.765-2.364
		v-0.182c0-0.617,0.113-1.166,0.34-1.647c0.227-0.48,0.552-0.853,0.976-1.119c0.424-0.266,0.925-0.398,1.503-0.398
		c0.711,0,1.302,0.213,1.772,0.639c0.471,0.426,0.722,0.978,0.753,1.658h-1.025c-0.031-0.41-0.187-0.747-0.466-1.011
		c-0.279-0.264-0.624-0.395-1.034-0.395c-0.551,0-0.978,0.198-1.28,0.595c-0.303,0.397-0.454,0.97-0.454,1.72v0.205
		c0,0.731,0.15,1.293,0.451,1.687c0.301,0.395,0.73,0.592,1.289,0.592c0.387,0,0.725-0.117,1.014-0.352
		c0.289-0.234,0.449-0.527,0.48-0.879h1.025c-0.02,0.363-0.145,0.709-0.375,1.037c-0.23,0.328-0.538,0.59-0.923,0.785
		C20.572,77.693,20.164,77.791,19.735,77.791 M12.619,77.791c-0.625,0-1.138-0.177-1.538-0.53c-0.4-0.353-0.601-0.802-0.601-1.345
		c0-0.66,0.251-1.173,0.753-1.538c0.502-0.365,1.208-0.548,2.118-0.548h1.055v-0.498c0-0.379-0.113-0.681-0.34-0.905
		c-0.227-0.225-0.561-0.337-1.002-0.337c-0.387,0-0.711,0.098-0.973,0.293c-0.262,0.195-0.393,0.432-0.393,0.709h-1.09
		c0-0.316,0.112-0.622,0.337-0.917c0.225-0.295,0.529-0.528,0.914-0.7c0.385-0.172,0.808-0.258,1.269-0.258
		c0.73,0,1.303,0.183,1.717,0.548c0.414,0.365,0.629,0.868,0.645,1.509v2.918c0,0.582,0.074,1.045,0.223,1.389v0.094h-1.137
		c-0.063-0.125-0.113-0.348-0.152-0.668C13.92,77.529,13.318,77.791,12.619,77.791 M13.557,74.598c-1.328,0-1.992,0.389-1.992,1.166
		c0,0.34,0.113,0.605,0.34,0.797c0.226,0.191,0.518,0.287,0.873,0.287c0.34,0,0.662-0.088,0.967-0.264
		c0.305-0.176,0.525-0.404,0.662-0.686v-1.301H13.557 M48.515,77.674h-1.084v-4.195c-0.004-0.457-0.108-0.795-0.313-1.014
		c-0.205-0.219-0.524-0.328-0.958-0.328c-0.352,0-0.66,0.094-0.926,0.281c-0.266,0.188-0.473,0.434-0.621,0.738v4.518h-1.084v-6.34
		h1.025l0.035,0.797c0.484-0.609,1.117-0.914,1.898-0.914c1.34,0,2.016,0.756,2.027,2.268V77.674"/>
	<path fill="#000000" d="M81.422,80.328c-0.977,0-1.816-0.22-2.52-0.659c-0.703-0.439-1.23-1.072-1.579-1.898
		c-0.35-0.826-0.501-1.792-0.454-2.897c0.047-1.074,0.287-2.04,0.721-2.897c0.434-0.857,1.021-1.52,1.764-1.986
		c0.742-0.467,1.58-0.7,2.514-0.7c0.973,0,1.807,0.219,2.502,0.656c0.695,0.438,1.213,1.068,1.553,1.893
		c0.34,0.824,0.486,1.789,0.439,2.894c-0.047,0.945-0.281,1.691-0.703,2.238c-0.422,0.547-0.986,0.82-1.693,0.82
		c-0.731,0-1.199-0.328-1.406-0.984c-0.211,0.332-0.452,0.579-0.724,0.741c-0.272,0.162-0.552,0.243-0.841,0.243
		c-0.555,0-0.975-0.226-1.26-0.68c-0.285-0.453-0.391-1.08-0.316-1.881c0.059-0.645,0.206-1.22,0.442-1.726
		c0.236-0.506,0.541-0.903,0.914-1.192c0.373-0.289,0.765-0.434,1.175-0.434c0.316,0,0.6,0.042,0.85,0.126
		c0.25,0.084,0.531,0.249,0.844,0.495l-0.305,3.246c-0.074,0.902,0.176,1.354,0.75,1.354c0.441,0,0.799-0.219,1.072-0.656
		c0.273-0.437,0.422-1.008,0.445-1.711c0.074-1.519-0.208-2.678-0.847-3.475c-0.639-0.797-1.61-1.195-2.915-1.195
		c-0.785,0-1.482,0.194-2.092,0.583c-0.609,0.389-1.09,0.95-1.441,1.685c-0.352,0.734-0.549,1.582-0.592,2.543
		c-0.047,0.969,0.07,1.81,0.352,2.522s0.71,1.258,1.286,1.635c0.576,0.377,1.272,0.565,2.089,0.565c0.352,0,0.704-0.043,1.058-0.129
		c0.353-0.086,0.647-0.197,0.882-0.334l0.217,0.674c-0.242,0.152-0.563,0.277-0.964,0.375
		C82.237,80.279,81.832,80.328,81.422,80.328 M82.043,72.629c-0.457,0-0.835,0.232-1.134,0.697c-0.299,0.465-0.485,1.1-0.56,1.904
		c-0.055,0.555-0.003,0.981,0.155,1.277c0.158,0.297,0.409,0.445,0.753,0.445c0.234,0,0.46-0.1,0.677-0.299
		c0.217-0.199,0.395-0.484,0.536-0.856l0.006-0.053l0.27-2.947C82.527,72.686,82.293,72.629,82.043,72.629 M71.839,77.791
		c-0.484,0-0.85-0.146-1.096-0.439c-0.246-0.293-0.369-0.709-0.369-1.248v-3.932H69.22v-0.838h1.154v-1.535h1.084v1.535h1.184v0.838
		h-1.184v3.937c0,0.254,0.053,0.445,0.158,0.572c0.105,0.127,0.285,0.191,0.539,0.191c0.125,0,0.297-0.023,0.516-0.07v0.874
		C72.385,77.752,72.108,77.791,71.839,77.791 M65.378,77.791c-0.625,0-1.138-0.177-1.538-0.53c-0.4-0.353-0.601-0.802-0.601-1.345
		c0-0.66,0.251-1.173,0.753-1.538c0.502-0.365,1.208-0.548,2.118-0.548h1.055v-0.498c0-0.379-0.113-0.681-0.34-0.905
		c-0.227-0.225-0.561-0.337-1.002-0.337c-0.387,0-0.711,0.098-0.973,0.293c-0.262,0.195-0.393,0.432-0.393,0.709h-1.09
		c0-0.316,0.112-0.622,0.337-0.917c0.225-0.295,0.529-0.528,0.914-0.7c0.385-0.172,0.808-0.258,1.269-0.258
		c0.73,0,1.303,0.183,1.717,0.548c0.414,0.365,0.629,0.868,0.645,1.509v2.918c0,0.582,0.074,1.045,0.223,1.389v0.094h-1.137
		c-0.063-0.125-0.113-0.348-0.152-0.668C66.679,77.529,66.078,77.791,65.378,77.791 M66.316,74.598
		c-1.328,0-1.992,0.389-1.992,1.166c0,0.34,0.113,0.605,0.34,0.797c0.227,0.191,0.518,0.287,0.873,0.287
		c0.34,0,0.662-0.088,0.967-0.264c0.305-0.176,0.525-0.404,0.662-0.686v-1.301H66.316 M56.475,77.791
		c-0.508,0-0.957-0.09-1.348-0.27c-0.391-0.18-0.696-0.431-0.917-0.753c-0.221-0.322-0.331-0.671-0.331-1.046h1.084
		c0.02,0.363,0.165,0.651,0.437,0.864c0.271,0.213,0.63,0.319,1.075,0.319c0.41,0,0.739-0.083,0.987-0.249
		c0.248-0.166,0.372-0.388,0.372-0.665c0-0.293-0.11-0.52-0.331-0.683c-0.221-0.162-0.606-0.302-1.154-0.419
		c-0.549-0.117-0.984-0.258-1.307-0.422s-0.561-0.359-0.715-0.586c-0.154-0.227-0.231-0.496-0.231-0.809
		c0-0.519,0.22-0.959,0.659-1.318c0.439-0.359,1.001-0.539,1.685-0.539c0.719,0,1.302,0.186,1.749,0.557
		c0.447,0.371,0.671,0.846,0.671,1.424h-1.09c0-0.297-0.126-0.553-0.378-0.768c-0.252-0.215-0.569-0.322-0.952-0.322
		c-0.395,0-0.703,0.086-0.926,0.258c-0.223,0.172-0.334,0.397-0.334,0.674c0,0.262,0.103,0.459,0.311,0.592
		c0.207,0.133,0.581,0.26,1.122,0.381c0.541,0.121,0.979,0.266,1.315,0.434c0.336,0.168,0.585,0.37,0.747,0.606
		c0.162,0.236,0.243,0.524,0.243,0.864c0,0.566-0.227,1.021-0.68,1.362C57.786,77.62,57.198,77.791,56.475,77.791 M52.083,77.791
		c-0.484,0-0.85-0.146-1.096-0.439c-0.246-0.293-0.369-0.709-0.369-1.248v-3.932h-1.154v-0.838h1.154v-1.535h1.084v1.535h1.184
		v0.838h-1.184v3.937c0,0.254,0.053,0.445,0.158,0.572c0.105,0.127,0.285,0.191,0.539,0.191c0.125,0,0.297-0.023,0.516-0.07v0.874
		C52.63,77.752,52.353,77.791,52.083,77.791"/>
	<path fill="#0080FF" d="M91.851,77.674h1.031v-6.34h-1.084v4.611c-0.273,0.617-0.824,0.926-1.652,0.926
		c-0.781,0-1.172-0.48-1.172-1.441v-4.096H87.89v4.125c0.004,0.77,0.183,1.351,0.536,1.743c0.353,0.393,0.868,0.589,1.544,0.589
		c0.816,0,1.436-0.248,1.857-0.744L91.851,77.674z M94.591,71.334v6.34h1.084v-4.518c0.148-0.305,0.355-0.551,0.621-0.738
		c0.266-0.188,0.574-0.281,0.926-0.281c0.434,0,0.753,0.109,0.958,0.328c0.205,0.219,0.31,0.557,0.313,1.014v4.195h1.084v-4.189
		c-0.012-1.512-0.688-2.268-2.027-2.268c-0.781,0-1.414,0.305-1.898,0.914l-0.035-0.797H94.591z M104.514,76.657
		c-0.248,0.166-0.577,0.249-0.987,0.249c-0.445,0-0.804-0.106-1.075-0.319c-0.272-0.213-0.417-0.501-0.437-0.864h-1.084
		c0,0.375,0.11,0.724,0.331,1.046c0.221,0.322,0.526,0.573,0.917,0.753c0.391,0.18,0.84,0.27,1.348,0.27
		c0.723,0,1.31-0.171,1.764-0.513c0.453-0.342,0.68-0.796,0.68-1.362c0-0.34-0.081-0.628-0.243-0.864
		c-0.162-0.236-0.411-0.438-0.747-0.606c-0.336-0.168-0.774-0.312-1.315-0.434c-0.541-0.121-0.915-0.248-1.122-0.381
		c-0.207-0.133-0.311-0.33-0.311-0.592c0-0.277,0.111-0.502,0.334-0.674c0.223-0.172,0.531-0.258,0.926-0.258
		c0.383,0,0.7,0.107,0.952,0.322c0.252,0.215,0.378,0.471,0.378,0.768h1.09c0-0.578-0.224-1.053-0.671-1.424
		c-0.447-0.371-1.03-0.557-1.749-0.557c-0.684,0-1.245,0.18-1.685,0.539c-0.439,0.359-0.659,0.799-0.659,1.318
		c0,0.313,0.077,0.582,0.231,0.809c0.154,0.227,0.393,0.422,0.715,0.586s0.758,0.305,1.307,0.422
		c0.549,0.117,0.934,0.257,1.154,0.419c0.221,0.162,0.331,0.39,0.331,0.683C104.886,76.27,104.762,76.491,104.514,76.657z
		 M111.439,71.334h-0.873l-1.477,4.746l-1.248-4.746h-1.078l1.84,6.34h0.879l1.5-4.805l1.541,4.805h0.879l1.846-6.34h-1.084
		l-1.219,4.846L111.439,71.334z M121.279,77.674V77.58c-0.148-0.344-0.223-0.807-0.223-1.389v-2.918
		c-0.016-0.641-0.231-1.143-0.645-1.509c-0.414-0.365-0.986-0.548-1.717-0.548c-0.461,0-0.884,0.086-1.269,0.258
		c-0.385,0.172-0.689,0.405-0.914,0.7c-0.225,0.295-0.337,0.601-0.337,0.917h1.09c0-0.277,0.131-0.514,0.393-0.709
		c0.262-0.195,0.586-0.293,0.973-0.293c0.441,0,0.775,0.112,1.002,0.337c0.227,0.225,0.34,0.526,0.34,0.905v0.498h-1.055
		c-0.91,0-1.616,0.183-2.118,0.548c-0.502,0.365-0.753,0.878-0.753,1.538c0,0.543,0.2,0.991,0.601,1.345
		c0.4,0.354,0.913,0.53,1.538,0.53c0.699,0,1.301-0.262,1.805-0.785c0.039,0.32,0.09,0.543,0.152,0.668H121.279z M117.47,76.561
		c-0.227-0.191-0.34-0.457-0.34-0.797c0-0.777,0.664-1.166,1.992-1.166h0.85v1.301c-0.137,0.281-0.357,0.51-0.662,0.686
		s-0.627,0.264-0.967,0.264C117.987,76.848,117.696,76.752,117.47,76.561z M122.482,74.533c0,0.969,0.231,1.754,0.694,2.355
		c0.463,0.602,1.061,0.902,1.796,0.902c0.773,0,1.377-0.266,1.811-0.797l0.053,0.68h0.996v-9h-1.084v3.305
		c-0.434-0.508-1.022-0.762-1.764-0.762c-0.746,0-1.35,0.296-1.811,0.888c-0.461,0.592-0.691,1.374-0.691,2.347V74.533z
		 M124.011,72.752c0.297-0.41,0.711-0.615,1.242-0.615c0.672,0,1.17,0.299,1.494,0.896v2.912c-0.316,0.617-0.818,0.926-1.506,0.926
		c-0.523,0-0.934-0.203-1.23-0.609c-0.297-0.406-0.445-0.969-0.445-1.688C123.566,73.77,123.714,73.162,124.011,72.752z
		 M134.566,77.674V77.58c-0.148-0.344-0.223-0.807-0.223-1.389v-2.918c-0.016-0.641-0.231-1.143-0.645-1.509
		c-0.414-0.365-0.986-0.548-1.717-0.548c-0.461,0-0.884,0.086-1.269,0.258c-0.385,0.172-0.689,0.405-0.914,0.7
		c-0.225,0.295-0.337,0.601-0.337,0.917h1.09c0-0.277,0.131-0.514,0.393-0.709c0.262-0.195,0.586-0.293,0.973-0.293
		c0.441,0,0.775,0.112,1.002,0.337c0.227,0.225,0.34,0.526,0.34,0.905v0.498h-1.055c-0.91,0-1.616,0.183-2.118,0.548
		c-0.502,0.365-0.753,0.878-0.753,1.538c0,0.543,0.2,0.991,0.601,1.345c0.4,0.354,0.913,0.53,1.538,0.53
		c0.699,0,1.301-0.262,1.805-0.785c0.039,0.32,0.09,0.543,0.152,0.668H134.566z M130.758,76.561c-0.227-0.191-0.34-0.457-0.34-0.797
		c0-0.777,0.664-1.166,1.992-1.166h0.85v1.301c-0.137,0.281-0.357,0.51-0.662,0.686s-0.627,0.264-0.967,0.264
		C131.275,76.848,130.984,76.752,130.758,76.561z"/>
	<path fill="#000000" d="M136.777,77.738c-0.223,0-0.39-0.061-0.501-0.182c-0.111-0.121-0.167-0.271-0.167-0.451
		c0-0.187,0.056-0.344,0.167-0.469c0.111-0.125,0.278-0.187,0.501-0.187s0.392,0.063,0.507,0.187
		c0.115,0.125,0.173,0.281,0.173,0.469c0,0.18-0.058,0.33-0.173,0.451C137.169,77.678,137,77.738,136.777,77.738"/>
	<path fill="#000000" d="M50.877,112.234l-0.205-0.018l-0.404-0.076v-0.879l0.293,0.023c0.367,0,0.653-0.074,0.858-0.223
		c0.205-0.149,0.374-0.42,0.507-0.814l0.24-0.645l-2.262-6.27h1.184l1.582,4.752l1.477-4.752h1.16l-2.549,7.318
		C52.364,111.707,51.737,112.234,50.877,112.234 M77.521,109.791c-0.859,0-1.556-0.299-2.089-0.897
		c-0.533-0.598-0.8-1.389-0.8-2.373v-0.076c0-0.621,0.122-1.18,0.366-1.676c0.244-0.496,0.584-0.879,1.02-1.148
		c0.436-0.27,0.933-0.404,1.491-0.404c0.863,0,1.562,0.299,2.095,0.897c0.533,0.598,0.8,1.393,0.8,2.385v0.076
		c0,0.617-0.118,1.171-0.354,1.661c-0.236,0.49-0.574,0.872-1.014,1.146C78.596,109.654,78.091,109.791,77.521,109.791
		 M77.509,104.107c-0.535,0-0.967,0.213-1.295,0.639c-0.328,0.426-0.492,1.035-0.492,1.828c0,0.703,0.163,1.268,0.489,1.693
		c0.326,0.426,0.763,0.639,1.31,0.639c0.551,0,0.988-0.216,1.313-0.648c0.324-0.432,0.486-1.036,0.486-1.813
		c0-0.695-0.165-1.259-0.495-1.69C78.495,104.323,78.056,104.107,77.509,104.107 M71.084,109.791c-0.508,0-0.957-0.09-1.348-0.27
		c-0.391-0.18-0.696-0.431-0.917-0.753c-0.221-0.322-0.331-0.671-0.331-1.046h1.084c0.02,0.363,0.165,0.651,0.437,0.864
		c0.271,0.213,0.63,0.319,1.075,0.319c0.41,0,0.739-0.083,0.987-0.249c0.248-0.166,0.372-0.388,0.372-0.665
		c0-0.293-0.11-0.52-0.331-0.683c-0.221-0.162-0.605-0.302-1.154-0.419c-0.549-0.117-0.984-0.258-1.307-0.422
		c-0.322-0.164-0.561-0.359-0.715-0.586c-0.154-0.227-0.231-0.496-0.231-0.809c0-0.519,0.22-0.959,0.659-1.318
		c0.44-0.359,1.001-0.539,1.685-0.539c0.719,0,1.302,0.186,1.749,0.557c0.447,0.371,0.671,0.846,0.671,1.424h-1.09
		c0-0.297-0.126-0.553-0.378-0.768c-0.252-0.215-0.569-0.322-0.952-0.322c-0.395,0-0.703,0.086-0.926,0.258
		c-0.223,0.172-0.334,0.396-0.334,0.674c0,0.262,0.103,0.459,0.311,0.592c0.207,0.133,0.581,0.26,1.122,0.381
		c0.541,0.121,0.979,0.266,1.315,0.434c0.336,0.168,0.585,0.37,0.747,0.606c0.162,0.236,0.243,0.524,0.243,0.864
		c0,0.566-0.227,1.021-0.68,1.362C72.395,109.62,71.807,109.791,71.084,109.791 M61.322,109.791c-0.625,0-1.138-0.177-1.538-0.53
		c-0.4-0.354-0.601-0.802-0.601-1.345c0-0.66,0.251-1.173,0.753-1.538c0.502-0.365,1.208-0.548,2.118-0.548h1.055v-0.498
		c0-0.379-0.113-0.681-0.34-0.905c-0.227-0.225-0.561-0.337-1.002-0.337c-0.387,0-0.711,0.098-0.973,0.293
		c-0.262,0.195-0.393,0.432-0.393,0.709h-1.09c0-0.316,0.112-0.622,0.337-0.917c0.225-0.295,0.529-0.528,0.914-0.7
		c0.385-0.172,0.808-0.258,1.269-0.258c0.73,0,1.303,0.183,1.717,0.548c0.414,0.365,0.629,0.868,0.645,1.509v2.918
		c0,0.582,0.074,1.045,0.223,1.389v0.094h-1.137c-0.063-0.125-0.113-0.348-0.152-0.668
		C62.622,109.529,62.021,109.791,61.322,109.791 M62.259,106.598c-1.328,0-1.992,0.389-1.992,1.166c0,0.34,0.113,0.606,0.34,0.797
		c0.227,0.191,0.518,0.287,0.873,0.287c0.34,0,0.662-0.088,0.967-0.264c0.305-0.176,0.525-0.404,0.662-0.686v-1.301H62.259
		 M46.167,109.791c-0.625,0-1.138-0.177-1.538-0.53c-0.4-0.354-0.601-0.802-0.601-1.345c0-0.66,0.251-1.173,0.753-1.538
		c0.502-0.365,1.208-0.548,2.118-0.548h1.055v-0.498c0-0.379-0.113-0.681-0.34-0.905c-0.227-0.225-0.561-0.337-1.002-0.337
		c-0.387,0-0.711,0.098-0.973,0.293c-0.262,0.195-0.393,0.432-0.393,0.709h-1.09c0-0.316,0.112-0.622,0.337-0.917
		c0.225-0.295,0.529-0.528,0.914-0.7c0.385-0.172,0.808-0.258,1.269-0.258c0.73,0,1.303,0.183,1.717,0.548
		c0.414,0.365,0.629,0.868,0.645,1.509v2.918c0,0.582,0.074,1.045,0.223,1.389v0.094h-1.137c-0.063-0.125-0.113-0.348-0.152-0.668
		C47.468,109.529,46.867,109.791,46.167,109.791 M47.105,106.598c-1.328,0-1.992,0.389-1.992,1.166c0,0.34,0.113,0.606,0.34,0.797
		c0.227,0.191,0.518,0.287,0.873,0.287c0.34,0,0.662-0.088,0.967-0.264c0.305-0.176,0.525-0.404,0.662-0.686v-1.301H47.105
		 M26.059,109.791c-0.676,0-1.19-0.196-1.544-0.589c-0.354-0.393-0.532-0.974-0.536-1.743v-4.125h1.084v4.096
		c0,0.961,0.391,1.441,1.172,1.441c0.828,0,1.379-0.309,1.652-0.926v-4.611h1.084v6.34H27.94l-0.023-0.627
		C27.495,109.543,26.876,109.791,26.059,109.791 M19.715,109.791c-0.859,0-1.556-0.299-2.089-0.897
		c-0.533-0.598-0.8-1.389-0.8-2.373v-0.076c0-0.621,0.122-1.18,0.366-1.676c0.244-0.496,0.584-0.879,1.019-1.148
		c0.436-0.27,0.933-0.404,1.491-0.404c0.863,0,1.562,0.299,2.095,0.897s0.8,1.393,0.8,2.385v0.076c0,0.617-0.118,1.171-0.354,1.661
		c-0.236,0.49-0.574,0.872-1.014,1.146C20.79,109.654,20.285,109.791,19.715,109.791 M19.703,104.107
		c-0.535,0-0.967,0.213-1.295,0.639c-0.328,0.426-0.492,1.035-0.492,1.828c0,0.703,0.163,1.268,0.489,1.693
		c0.326,0.426,0.763,0.639,1.31,0.639c0.551,0,0.988-0.216,1.313-0.648c0.324-0.432,0.486-1.036,0.486-1.813
		c0-0.695-0.165-1.259-0.495-1.69C20.688,104.323,20.25,104.107,19.703,104.107 M67.047,109.674h-1.084v-9h1.084V109.674
		 M42.591,109.674h-1.084v-4.184c0-0.453-0.104-0.792-0.311-1.017c-0.207-0.225-0.555-0.337-1.043-0.337
		c-0.402,0-0.736,0.12-1.002,0.36c-0.266,0.24-0.42,0.563-0.463,0.97v4.207h-1.09v-4.154c0-0.922-0.451-1.383-1.354-1.383
		c-0.711,0-1.197,0.303-1.459,0.908v4.629h-1.084v-6.34h1.025l0.029,0.703c0.465-0.547,1.092-0.82,1.881-0.82
		c0.887,0,1.49,0.34,1.811,1.02c0.211-0.305,0.485-0.551,0.823-0.738c0.338-0.188,0.737-0.281,1.198-0.281
		c1.391,0,2.098,0.736,2.121,2.209V109.674 M13.996,109.674h-1.125v-3.182l-2.941-5.35h1.289l2.215,4.283l2.227-4.283h1.277
		l-2.941,5.35V109.674"/>
	<path fill="#000000" d="M145.664,109.791c-0.859,0-1.556-0.299-2.089-0.897c-0.533-0.598-0.8-1.389-0.8-2.373v-0.076
		c0-0.621,0.122-1.18,0.366-1.676c0.244-0.496,0.584-0.879,1.02-1.148c0.436-0.27,0.933-0.404,1.491-0.404
		c0.863,0,1.562,0.299,2.095,0.897c0.533,0.598,0.8,1.393,0.8,2.385v0.076c0,0.617-0.118,1.171-0.354,1.661
		c-0.236,0.49-0.574,0.872-1.014,1.146C146.739,109.654,146.234,109.791,145.664,109.791 M145.652,104.107
		c-0.535,0-0.967,0.213-1.295,0.639c-0.328,0.426-0.492,1.035-0.492,1.828c0,0.703,0.163,1.268,0.489,1.693
		c0.326,0.426,0.763,0.639,1.31,0.639c0.551,0,0.988-0.216,1.312-0.648c0.324-0.432,0.486-1.036,0.486-1.813
		c0-0.695-0.165-1.259-0.495-1.69C146.637,104.323,146.199,104.107,145.652,104.107 M132.988,109.791
		c-0.859,0-1.556-0.299-2.089-0.897c-0.533-0.598-0.8-1.389-0.8-2.373v-0.076c0-0.621,0.122-1.18,0.366-1.676
		c0.244-0.496,0.584-0.879,1.019-1.148c0.436-0.27,0.933-0.404,1.491-0.404c0.863,0,1.562,0.299,2.095,0.897
		c0.533,0.598,0.8,1.393,0.8,2.385v0.076c0,0.617-0.118,1.171-0.354,1.661c-0.236,0.49-0.574,0.872-1.014,1.146
		C134.064,109.654,133.559,109.791,132.988,109.791 M132.977,104.107c-0.535,0-0.967,0.213-1.295,0.639
		c-0.328,0.426-0.492,1.035-0.492,1.828c0,0.703,0.163,1.268,0.489,1.693c0.326,0.426,0.763,0.639,1.31,0.639
		c0.551,0,0.988-0.216,1.313-0.648c0.324-0.432,0.486-1.036,0.486-1.813c0-0.695-0.165-1.259-0.495-1.69
		C133.962,104.323,133.524,104.107,132.977,104.107 M119.037,109.791c-0.859,0-1.556-0.299-2.089-0.897
		c-0.533-0.598-0.8-1.389-0.8-2.373v-0.076c0-0.621,0.122-1.18,0.366-1.676c0.244-0.496,0.584-0.879,1.02-1.148
		c0.436-0.27,0.933-0.404,1.491-0.404c0.863,0,1.562,0.299,2.095,0.897c0.533,0.598,0.8,1.393,0.8,2.385v0.076
		c0,0.617-0.118,1.171-0.355,1.661c-0.236,0.49-0.574,0.872-1.014,1.146C120.112,109.654,119.607,109.791,119.037,109.791
		 M119.025,104.107c-0.535,0-0.967,0.213-1.295,0.639c-0.328,0.426-0.492,1.035-0.492,1.828c0,0.703,0.163,1.268,0.489,1.693
		c0.326,0.426,0.763,0.639,1.31,0.639c0.551,0,0.988-0.216,1.313-0.648c0.324-0.432,0.486-1.036,0.486-1.813
		c0-0.695-0.165-1.259-0.495-1.69C120.01,104.323,119.572,104.107,119.025,104.107 M114.531,109.791c-0.484,0-0.85-0.146-1.096-0.44
		c-0.246-0.293-0.369-0.709-0.369-1.248v-3.932h-1.154v-0.838h1.154v-1.535h1.084v1.535h1.184v0.838h-1.184v3.937
		c0,0.254,0.053,0.445,0.158,0.572c0.105,0.127,0.285,0.191,0.539,0.191c0.125,0,0.297-0.023,0.516-0.07v0.874
		C115.078,109.752,114.801,109.791,114.531,109.791 M99.079,109.791c-0.508,0-0.957-0.09-1.348-0.27
		c-0.391-0.18-0.696-0.431-0.917-0.753c-0.221-0.322-0.331-0.671-0.331-1.046h1.084c0.02,0.363,0.165,0.651,0.437,0.864
		c0.271,0.213,0.63,0.319,1.075,0.319c0.41,0,0.739-0.083,0.987-0.249c0.248-0.166,0.372-0.388,0.372-0.665
		c0-0.293-0.11-0.52-0.331-0.683c-0.221-0.162-0.606-0.302-1.154-0.419c-0.549-0.117-0.984-0.258-1.307-0.422
		c-0.322-0.164-0.561-0.359-0.715-0.586c-0.154-0.227-0.231-0.496-0.231-0.809c0-0.519,0.22-0.959,0.659-1.318
		c0.439-0.359,1.001-0.539,1.685-0.539c0.719,0,1.302,0.186,1.749,0.557c0.447,0.371,0.671,0.846,0.671,1.424h-1.09
		c0-0.297-0.126-0.553-0.378-0.768c-0.252-0.215-0.569-0.322-0.952-0.322c-0.395,0-0.703,0.086-0.926,0.258
		c-0.223,0.172-0.334,0.396-0.334,0.674c0,0.262,0.103,0.459,0.311,0.592c0.207,0.133,0.581,0.26,1.122,0.381
		c0.541,0.121,0.979,0.266,1.315,0.434c0.336,0.168,0.585,0.37,0.747,0.606c0.162,0.236,0.243,0.524,0.243,0.864
		c0,0.566-0.227,1.021-0.68,1.362C100.389,109.62,99.801,109.791,99.079,109.791 M159.537,109.738c-0.223,0-0.39-0.061-0.501-0.182
		c-0.111-0.121-0.167-0.271-0.167-0.451c0-0.187,0.056-0.344,0.167-0.469c0.111-0.125,0.278-0.187,0.501-0.187
		s0.392,0.063,0.507,0.187c0.115,0.125,0.173,0.281,0.173,0.469c0,0.18-0.058,0.33-0.173,0.451
		C159.929,109.678,159.76,109.738,159.537,109.738 M155.855,109.674h-0.879l-1.541-4.805l-1.5,4.805h-0.879l-1.84-6.34h1.078
		l1.248,4.746l1.477-4.746h0.873l1.506,4.846l1.219-4.846h1.084L155.855,109.674 M141.306,109.674h-1.084v-9h1.084V109.674
		 M138.426,109.674h-1.084v-9h1.084V109.674 M127.987,109.674h-1.084v-5.502h-1.002v-0.838h1.002v-0.65
		c0-0.68,0.182-1.205,0.545-1.576c0.363-0.371,0.877-0.557,1.541-0.557c0.25,0,0.498,0.033,0.744,0.099l-0.059,0.874
		c-0.184-0.035-0.379-0.053-0.586-0.053c-0.352,0-0.623,0.103-0.814,0.309c-0.191,0.206-0.287,0.501-0.287,0.885v0.67h1.354v0.838
		h-1.354V109.674 M107.966,109.674h-1.084v-4.195c-0.004-0.457-0.108-0.795-0.313-1.014c-0.205-0.219-0.524-0.328-0.958-0.328
		c-0.352,0-0.66,0.094-0.926,0.281c-0.266,0.188-0.473,0.434-0.621,0.738v4.518h-1.084v-9h1.084v3.428
		c0.48-0.59,1.105-0.885,1.875-0.885c1.34,0,2.016,0.756,2.027,2.268V109.674 M95.048,109.674h-1.084v-6.34h1.084V109.674
		 M90.924,109.674h-0.879l-1.541-4.805l-1.5,4.805h-0.879l-1.84-6.34h1.078l1.248,4.746l1.477-4.746h0.873l1.506,4.846l1.219-4.846
		h1.084L90.924,109.674 M159.543,104.564c-0.223,0-0.39-0.061-0.501-0.182c-0.111-0.121-0.167-0.271-0.167-0.451
		c0-0.187,0.056-0.344,0.167-0.469c0.111-0.125,0.278-0.187,0.501-0.187s0.392,0.063,0.507,0.187
		c0.115,0.125,0.173,0.281,0.173,0.469c0,0.18-0.058,0.33-0.173,0.451C159.934,104.504,159.766,104.564,159.543,104.564
		 M94.515,102.268c-0.211,0-0.37-0.059-0.478-0.176c-0.107-0.117-0.161-0.264-0.161-0.44c0-0.176,0.054-0.324,0.161-0.445
		c0.107-0.121,0.267-0.182,0.478-0.182c0.211,0,0.371,0.061,0.48,0.182c0.109,0.121,0.164,0.27,0.164,0.445
		c0,0.176-0.055,0.322-0.164,0.44C94.886,102.209,94.726,102.268,94.515,102.268"/>
	<path fill="#000000" d="M15.086,128.328c-0.977,0-1.816-0.22-2.52-0.659c-0.703-0.44-1.23-1.072-1.579-1.898
		c-0.35-0.826-0.501-1.792-0.454-2.897c0.047-1.074,0.287-2.04,0.721-2.898c0.434-0.857,1.021-1.519,1.764-1.986
		c0.742-0.467,1.58-0.7,2.514-0.7c0.973,0,1.807,0.219,2.502,0.656c0.695,0.438,1.213,1.068,1.553,1.893
		c0.34,0.824,0.486,1.789,0.439,2.894c-0.047,0.945-0.281,1.691-0.703,2.238c-0.422,0.547-0.986,0.82-1.693,0.82
		c-0.731,0-1.199-0.328-1.406-0.984c-0.211,0.332-0.452,0.579-0.724,0.741c-0.272,0.162-0.552,0.243-0.841,0.243
		c-0.555,0-0.975-0.227-1.26-0.68c-0.285-0.453-0.391-1.08-0.316-1.881c0.059-0.645,0.206-1.22,0.442-1.726
		c0.236-0.506,0.541-0.903,0.914-1.192c0.373-0.289,0.765-0.434,1.175-0.434c0.316,0,0.6,0.042,0.85,0.126
		c0.25,0.084,0.531,0.249,0.844,0.495l-0.305,3.246c-0.074,0.902,0.176,1.354,0.75,1.354c0.441,0,0.799-0.219,1.072-0.656
		c0.273-0.437,0.422-1.008,0.445-1.711c0.074-1.52-0.208-2.678-0.847-3.475c-0.639-0.797-1.61-1.195-2.915-1.195
		c-0.785,0-1.482,0.194-2.092,0.583c-0.609,0.389-1.09,0.95-1.441,1.685c-0.352,0.734-0.549,1.582-0.592,2.543
		c-0.047,0.969,0.07,1.81,0.352,2.522c0.281,0.713,0.71,1.258,1.286,1.635c0.576,0.377,1.272,0.565,2.089,0.565
		c0.352,0,0.704-0.043,1.058-0.129c0.353-0.086,0.647-0.197,0.882-0.334l0.217,0.674c-0.242,0.152-0.564,0.277-0.964,0.375
		C15.901,128.279,15.496,128.328,15.086,128.328 M15.707,120.629c-0.457,0-0.835,0.233-1.134,0.697
		c-0.299,0.465-0.485,1.1-0.56,1.904c-0.055,0.555-0.003,0.981,0.155,1.277c0.158,0.297,0.409,0.445,0.753,0.445
		c0.234,0,0.46-0.1,0.677-0.299c0.217-0.199,0.395-0.484,0.536-0.855l0.006-0.053l0.27-2.947
		C16.191,120.686,15.957,120.629,15.707,120.629"/>
	<path fill="#0080FF" d="M25.515,125.674h1.031v-6.34h-1.084v4.611c-0.273,0.617-0.824,0.926-1.652,0.926
		c-0.781,0-1.172-0.48-1.172-1.441v-4.096h-1.084v4.125c0.004,0.77,0.183,1.351,0.536,1.743c0.353,0.393,0.868,0.589,1.544,0.589
		c0.816,0,1.436-0.248,1.857-0.744L25.515,125.674z M28.256,119.334v6.34h1.084v-4.518c0.148-0.305,0.355-0.551,0.621-0.738
		c0.266-0.188,0.574-0.281,0.926-0.281c0.434,0,0.753,0.109,0.958,0.328c0.205,0.219,0.31,0.557,0.313,1.014v4.195h1.084v-4.189
		c-0.012-1.512-0.688-2.268-2.027-2.268c-0.781,0-1.414,0.305-1.898,0.914l-0.035-0.797H28.256z M38.178,124.657
		c-0.248,0.166-0.577,0.249-0.987,0.249c-0.445,0-0.804-0.106-1.075-0.319c-0.272-0.213-0.417-0.501-0.437-0.864h-1.084
		c0,0.375,0.11,0.724,0.331,1.046c0.221,0.322,0.526,0.573,0.917,0.753c0.391,0.18,0.84,0.27,1.348,0.27
		c0.723,0,1.31-0.171,1.764-0.513c0.453-0.342,0.68-0.796,0.68-1.362c0-0.34-0.081-0.628-0.243-0.864
		c-0.162-0.236-0.411-0.438-0.747-0.606c-0.336-0.168-0.774-0.312-1.315-0.434c-0.541-0.121-0.915-0.248-1.122-0.381
		c-0.207-0.133-0.311-0.33-0.311-0.592c0-0.277,0.111-0.502,0.334-0.674c0.223-0.172,0.531-0.258,0.926-0.258
		c0.383,0,0.7,0.107,0.952,0.322c0.252,0.215,0.378,0.471,0.378,0.768h1.09c0-0.578-0.224-1.053-0.671-1.424
		c-0.447-0.371-1.03-0.557-1.749-0.557c-0.684,0-1.245,0.18-1.685,0.539c-0.439,0.359-0.659,0.799-0.659,1.318
		c0,0.313,0.077,0.582,0.231,0.809c0.154,0.227,0.393,0.422,0.715,0.586s0.758,0.305,1.307,0.422
		c0.549,0.117,0.934,0.257,1.154,0.419c0.221,0.162,0.331,0.39,0.331,0.683C38.55,124.27,38.426,124.491,38.178,124.657z
		 M45.103,119.334H44.23l-1.477,4.746l-1.248-4.746h-1.078l1.84,6.34h0.879l1.5-4.805l1.541,4.805h0.879l1.846-6.34h-1.084
		l-1.219,4.846L45.103,119.334z"/>
	<path fill="#000000" d="M15.086,144.328c-0.977,0-1.816-0.22-2.52-0.659c-0.703-0.439-1.23-1.072-1.579-1.898
		c-0.35-0.826-0.501-1.792-0.454-2.897c0.047-1.074,0.287-2.04,0.721-2.897c0.434-0.857,1.021-1.52,1.764-1.986
		c0.742-0.467,1.58-0.7,2.514-0.7c0.973,0,1.807,0.219,2.502,0.656c0.695,0.438,1.213,1.068,1.553,1.893
		c0.34,0.824,0.486,1.789,0.439,2.895c-0.047,0.945-0.281,1.691-0.703,2.238c-0.422,0.547-0.986,0.82-1.693,0.82
		c-0.731,0-1.199-0.328-1.406-0.984c-0.211,0.332-0.452,0.579-0.724,0.741c-0.272,0.162-0.552,0.243-0.841,0.243
		c-0.555,0-0.975-0.227-1.26-0.68c-0.285-0.453-0.391-1.08-0.316-1.881c0.059-0.645,0.206-1.22,0.442-1.726
		c0.236-0.506,0.541-0.903,0.914-1.192c0.373-0.289,0.765-0.434,1.175-0.434c0.316,0,0.6,0.042,0.85,0.126
		c0.25,0.084,0.531,0.249,0.844,0.495l-0.305,3.246c-0.074,0.902,0.176,1.354,0.75,1.354c0.441,0,0.799-0.219,1.072-0.656
		c0.273-0.437,0.422-1.008,0.445-1.711c0.074-1.52-0.208-2.678-0.847-3.475c-0.639-0.797-1.61-1.195-2.915-1.195
		c-0.785,0-1.482,0.194-2.092,0.583c-0.609,0.389-1.09,0.95-1.441,1.685c-0.352,0.734-0.549,1.582-0.592,2.543
		c-0.047,0.969,0.07,1.81,0.352,2.522c0.281,0.713,0.71,1.258,1.286,1.635c0.576,0.377,1.272,0.565,2.089,0.565
		c0.352,0,0.704-0.043,1.058-0.129c0.353-0.086,0.647-0.197,0.882-0.334l0.217,0.674c-0.242,0.152-0.564,0.277-0.964,0.375
		C15.901,144.279,15.496,144.328,15.086,144.328 M15.707,136.629c-0.457,0-0.835,0.232-1.134,0.697
		c-0.299,0.465-0.485,1.1-0.56,1.904c-0.055,0.555-0.003,0.981,0.155,1.277c0.158,0.297,0.409,0.445,0.753,0.445
		c0.234,0,0.46-0.1,0.677-0.299c0.217-0.199,0.395-0.484,0.536-0.855l0.006-0.053l0.27-2.947
		C16.191,136.686,15.957,136.629,15.707,136.629"/>
	<path fill="#0080FF" d="M26.542,141.674v-0.094c-0.148-0.344-0.223-0.807-0.223-1.389v-2.918c-0.016-0.641-0.231-1.143-0.645-1.509
		c-0.414-0.365-0.986-0.548-1.717-0.548c-0.461,0-0.884,0.086-1.269,0.258c-0.385,0.172-0.689,0.405-0.914,0.7
		c-0.225,0.295-0.337,0.601-0.337,0.917h1.09c0-0.277,0.131-0.514,0.393-0.709c0.262-0.195,0.586-0.293,0.973-0.293
		c0.441,0,0.775,0.112,1.002,0.337c0.227,0.225,0.34,0.526,0.34,0.905v0.498h-1.055c-0.91,0-1.616,0.183-2.118,0.548
		c-0.502,0.365-0.753,0.878-0.753,1.538c0,0.543,0.2,0.991,0.601,1.345c0.4,0.354,0.913,0.53,1.538,0.53
		c0.699,0,1.301-0.262,1.805-0.785c0.039,0.32,0.09,0.543,0.152,0.668H26.542z M22.734,140.561c-0.227-0.191-0.34-0.457-0.34-0.797
		c0-0.777,0.664-1.166,1.992-1.166h0.85v1.301c-0.137,0.281-0.357,0.51-0.662,0.686s-0.627,0.264-0.967,0.264
		C23.251,140.848,22.96,140.752,22.734,140.561z M31.115,135.299c-0.109-0.055-0.27-0.082-0.48-0.082
		c-0.652,0-1.156,0.283-1.512,0.85l-0.018-0.732H28.05v6.34h1.084v-4.5c0.254-0.605,0.736-0.908,1.447-0.908
		c0.191,0,0.369,0.014,0.533,0.041V135.299z M33.377,140.314c-0.301-0.395-0.451-0.957-0.451-1.688v-0.205
		c0-0.75,0.151-1.323,0.454-1.72c0.303-0.396,0.729-0.595,1.28-0.595c0.41,0,0.755,0.132,1.034,0.396
		c0.279,0.264,0.435,0.601,0.466,1.011h1.025c-0.031-0.68-0.282-1.232-0.753-1.658c-0.471-0.426-1.062-0.639-1.772-0.639
		c-0.578,0-1.079,0.133-1.503,0.398c-0.424,0.266-0.749,0.639-0.976,1.119c-0.227,0.48-0.34,1.029-0.34,1.646v0.182
		c0,1,0.255,1.788,0.765,2.364c0.51,0.576,1.196,0.864,2.06,0.864c0.43,0,0.837-0.098,1.222-0.293
		c0.385-0.195,0.692-0.457,0.923-0.785c0.23-0.328,0.355-0.674,0.375-1.037H36.16c-0.031,0.352-0.191,0.645-0.48,0.879
		c-0.289,0.234-0.627,0.352-1.014,0.352C34.107,140.906,33.677,140.709,33.377,140.314z M42.436,141.674h1.031v-6.34h-1.084v4.611
		c-0.273,0.617-0.824,0.926-1.652,0.926c-0.781,0-1.172-0.48-1.172-1.441v-4.096h-1.084v4.125c0.004,0.77,0.183,1.351,0.536,1.743
		c0.353,0.393,0.868,0.589,1.544,0.589c0.816,0,1.436-0.248,1.857-0.744L42.436,141.674z M45.176,135.334v6.34h1.084v-4.518
		c0.148-0.305,0.355-0.551,0.621-0.738c0.266-0.188,0.574-0.281,0.926-0.281c0.434,0,0.753,0.109,0.958,0.328
		c0.205,0.219,0.31,0.557,0.313,1.014v4.195h1.084v-4.189c-0.012-1.512-0.688-2.268-2.027-2.268c-0.781,0-1.414,0.305-1.898,0.914
		l-0.035-0.797H45.176z M55.099,140.657c-0.248,0.166-0.577,0.249-0.987,0.249c-0.445,0-0.804-0.106-1.075-0.319
		c-0.272-0.213-0.417-0.501-0.437-0.864h-1.084c0,0.375,0.11,0.724,0.331,1.046c0.221,0.322,0.526,0.573,0.917,0.753
		c0.391,0.18,0.84,0.27,1.348,0.27c0.723,0,1.31-0.171,1.764-0.513c0.453-0.342,0.68-0.796,0.68-1.362
		c0-0.34-0.081-0.628-0.243-0.864c-0.162-0.236-0.411-0.438-0.747-0.606c-0.336-0.168-0.774-0.312-1.315-0.434
		c-0.541-0.121-0.915-0.248-1.122-0.381c-0.207-0.133-0.311-0.33-0.311-0.592c0-0.277,0.111-0.502,0.334-0.674
		c0.223-0.172,0.531-0.258,0.926-0.258c0.383,0,0.7,0.107,0.952,0.322c0.252,0.215,0.378,0.471,0.378,0.768h1.09
		c0-0.578-0.224-1.053-0.671-1.424c-0.447-0.371-1.03-0.557-1.749-0.557c-0.684,0-1.245,0.18-1.685,0.539
		c-0.439,0.359-0.659,0.799-0.659,1.318c0,0.313,0.077,0.582,0.231,0.809c0.154,0.227,0.393,0.422,0.715,0.586
		s0.758,0.305,1.307,0.422c0.549,0.117,0.934,0.257,1.154,0.419c0.221,0.162,0.331,0.39,0.331,0.683
		C55.471,140.27,55.347,140.491,55.099,140.657z M62.024,135.334h-0.873l-1.477,4.746l-1.248-4.746h-1.078l1.84,6.34h0.879
		l1.5-4.805l1.541,4.805h0.879l1.846-6.34h-1.084l-1.219,4.846L62.024,135.334z"/>
	<path fill="#000000" d="M15.086,160.328c-0.977,0-1.816-0.22-2.52-0.659c-0.703-0.439-1.23-1.072-1.579-1.898
		c-0.35-0.826-0.501-1.792-0.454-2.897c0.047-1.074,0.287-2.04,0.721-2.897c0.434-0.857,1.021-1.52,1.764-1.986
		c0.742-0.467,1.58-0.7,2.514-0.7c0.973,0,1.807,0.219,2.502,0.656c0.695,0.438,1.213,1.068,1.553,1.893
		c0.34,0.824,0.486,1.789,0.439,2.894c-0.047,0.945-0.281,1.691-0.703,2.238c-0.422,0.547-0.986,0.82-1.693,0.82
		c-0.731,0-1.199-0.328-1.406-0.984c-0.211,0.332-0.452,0.579-0.724,0.741c-0.272,0.162-0.552,0.243-0.841,0.243
		c-0.555,0-0.975-0.226-1.26-0.68c-0.285-0.453-0.391-1.08-0.316-1.881c0.059-0.645,0.206-1.22,0.442-1.726
		c0.236-0.506,0.541-0.903,0.914-1.192c0.373-0.289,0.765-0.434,1.175-0.434c0.316,0,0.6,0.042,0.85,0.126
		c0.25,0.084,0.531,0.249,0.844,0.495l-0.305,3.246c-0.074,0.902,0.176,1.354,0.75,1.354c0.441,0,0.799-0.219,1.072-0.656
		c0.273-0.437,0.422-1.008,0.445-1.711c0.074-1.52-0.208-2.678-0.847-3.475c-0.639-0.797-1.61-1.195-2.915-1.195
		c-0.785,0-1.482,0.194-2.092,0.583c-0.609,0.389-1.09,0.95-1.441,1.685c-0.352,0.734-0.549,1.582-0.592,2.543
		c-0.047,0.969,0.07,1.81,0.352,2.522c0.281,0.713,0.71,1.258,1.286,1.635c0.576,0.377,1.272,0.565,2.089,0.565
		c0.352,0,0.704-0.043,1.058-0.129c0.353-0.086,0.647-0.197,0.882-0.334l0.217,0.674c-0.242,0.152-0.564,0.277-0.964,0.375
		C15.901,160.279,15.496,160.328,15.086,160.328 M15.707,152.629c-0.457,0-0.835,0.232-1.134,0.697
		c-0.299,0.465-0.485,1.1-0.56,1.904c-0.055,0.555-0.003,0.981,0.155,1.277c0.158,0.297,0.409,0.445,0.753,0.445
		c0.234,0,0.46-0.1,0.677-0.299c0.217-0.199,0.395-0.484,0.536-0.856l0.006-0.053l0.27-2.947
		C16.191,152.686,15.957,152.629,15.707,152.629"/>
	<path fill="#0080FF" d="M25.515,157.674h1.031v-6.34h-1.084v4.611c-0.273,0.617-0.824,0.926-1.652,0.926
		c-0.781,0-1.172-0.48-1.172-1.441v-4.096h-1.084v4.125c0.004,0.77,0.183,1.351,0.536,1.743c0.353,0.393,0.868,0.589,1.544,0.589
		c0.816,0,1.436-0.248,1.857-0.744L25.515,157.674z M28.256,151.334v6.34h1.084v-4.518c0.148-0.305,0.355-0.551,0.621-0.738
		c0.266-0.188,0.574-0.281,0.926-0.281c0.434,0,0.753,0.109,0.958,0.328c0.205,0.219,0.31,0.557,0.313,1.014v4.195h1.084v-4.189
		c-0.012-1.512-0.688-2.268-2.027-2.268c-0.781,0-1.414,0.305-1.898,0.914l-0.035-0.797H28.256z M38.178,156.657
		c-0.248,0.166-0.577,0.249-0.987,0.249c-0.445,0-0.804-0.106-1.075-0.319c-0.272-0.213-0.417-0.501-0.437-0.864h-1.084
		c0,0.375,0.11,0.724,0.331,1.046c0.221,0.322,0.526,0.573,0.917,0.753c0.391,0.18,0.84,0.27,1.348,0.27
		c0.723,0,1.31-0.171,1.764-0.513c0.453-0.342,0.68-0.796,0.68-1.362c0-0.34-0.081-0.628-0.243-0.864
		c-0.162-0.236-0.411-0.438-0.747-0.606c-0.336-0.168-0.774-0.312-1.315-0.434c-0.541-0.121-0.915-0.248-1.122-0.381
		c-0.207-0.133-0.311-0.33-0.311-0.592c0-0.277,0.111-0.502,0.334-0.674c0.223-0.172,0.531-0.258,0.926-0.258
		c0.383,0,0.7,0.107,0.952,0.322c0.252,0.215,0.378,0.471,0.378,0.768h1.09c0-0.578-0.224-1.053-0.671-1.424
		c-0.447-0.371-1.03-0.557-1.749-0.557c-0.684,0-1.245,0.18-1.685,0.539c-0.439,0.359-0.659,0.799-0.659,1.318
		c0,0.313,0.077,0.582,0.231,0.809c0.154,0.227,0.393,0.422,0.715,0.586s0.758,0.305,1.307,0.422
		c0.549,0.117,0.934,0.257,1.154,0.419c0.221,0.162,0.331,0.39,0.331,0.683C38.55,156.27,38.426,156.491,38.178,156.657z
		 M45.103,151.334H44.23l-1.477,4.746l-1.248-4.746h-1.078l1.84,6.34h0.879l1.5-4.805l1.541,4.805h0.879l1.846-6.34h-1.084
		l-1.219,4.846L45.103,151.334z M53.217,156.657c-0.248,0.166-0.577,0.249-0.987,0.249c-0.445,0-0.804-0.106-1.075-0.319
		c-0.272-0.213-0.417-0.501-0.437-0.864h-1.084c0,0.375,0.11,0.724,0.331,1.046c0.221,0.322,0.526,0.573,0.917,0.753
		c0.391,0.18,0.84,0.27,1.348,0.27c0.723,0,1.31-0.171,1.764-0.513c0.453-0.342,0.68-0.796,0.68-1.362
		c0-0.34-0.081-0.628-0.243-0.864c-0.162-0.236-0.411-0.438-0.747-0.606c-0.336-0.168-0.774-0.312-1.315-0.434
		c-0.541-0.121-0.915-0.248-1.122-0.381c-0.207-0.133-0.311-0.33-0.311-0.592c0-0.277,0.111-0.502,0.334-0.674
		c0.223-0.172,0.531-0.258,0.926-0.258c0.383,0,0.7,0.107,0.952,0.322c0.252,0.215,0.378,0.471,0.378,0.768h1.09
		c0-0.578-0.224-1.053-0.671-1.424c-0.447-0.371-1.03-0.557-1.749-0.557c-0.684,0-1.245,0.18-1.685,0.539
		c-0.439,0.359-0.659,0.799-0.659,1.318c0,0.313,0.077,0.582,0.231,0.809c0.154,0.227,0.393,0.422,0.715,0.586
		s0.758,0.305,1.307,0.422c0.549,0.117,0.934,0.257,1.154,0.419c0.221,0.162,0.331,0.39,0.331,0.683
		C53.59,156.27,53.465,156.491,53.217,156.657z M56.626,149.799v1.535h-1.154v0.838h1.154v3.932c0,0.539,0.123,0.955,0.369,1.248
		s0.611,0.439,1.096,0.439c0.27,0,0.547-0.039,0.832-0.116v-0.874c-0.219,0.047-0.391,0.07-0.516,0.07
		c-0.254,0-0.434-0.064-0.539-0.191s-0.158-0.318-0.158-0.572v-3.937h1.184v-0.838H57.71v-1.535H56.626z M64.07,157.674h1.031v-6.34
		h-1.084v4.611c-0.273,0.617-0.824,0.926-1.652,0.926c-0.781,0-1.172-0.48-1.172-1.441v-4.096h-1.084v4.125
		c0.004,0.77,0.183,1.351,0.536,1.743c0.353,0.393,0.868,0.589,1.544,0.589c0.816,0,1.436-0.248,1.857-0.744L64.07,157.674z
		 M66.544,154.533c0,0.969,0.231,1.754,0.694,2.355c0.463,0.602,1.061,0.902,1.796,0.902c0.773,0,1.377-0.266,1.811-0.797
		l0.053,0.68h0.996v-9H70.81v3.305c-0.434-0.508-1.022-0.762-1.764-0.762c-0.746,0-1.35,0.296-1.811,0.888
		c-0.461,0.592-0.691,1.374-0.691,2.347V154.533z M68.074,152.752c0.297-0.41,0.711-0.615,1.242-0.615
		c0.672,0,1.17,0.299,1.494,0.896v2.912c-0.316,0.617-0.818,0.926-1.506,0.926c-0.523,0-0.934-0.203-1.23-0.609
		c-0.297-0.406-0.445-0.969-0.445-1.688C67.628,153.77,67.777,153.162,68.074,152.752z M78.647,156.566l-0.662-0.516
		c-0.199,0.258-0.432,0.465-0.697,0.621c-0.266,0.156-0.59,0.234-0.973,0.234c-0.539,0-0.983-0.192-1.333-0.577
		c-0.35-0.385-0.532-0.89-0.548-1.515h4.295v-0.451c0-1.012-0.229-1.789-0.686-2.332c-0.457-0.543-1.098-0.814-1.922-0.814
		c-0.504,0-0.972,0.14-1.403,0.419c-0.432,0.279-0.768,0.666-1.008,1.16c-0.24,0.494-0.36,1.056-0.36,1.685v0.199
		c0,0.945,0.27,1.7,0.809,2.265c0.539,0.565,1.238,0.847,2.098,0.847C77.319,157.791,78.116,157.383,78.647,156.566z M77.2,152.562
		c0.266,0.303,0.414,0.729,0.445,1.28v0.082H74.47c0.07-0.574,0.254-1.02,0.551-1.339c0.297-0.318,0.664-0.478,1.102-0.478
		C76.575,152.107,76.934,152.259,77.2,152.562z M80.107,151.334v6.34h1.084v-4.518c0.148-0.305,0.355-0.551,0.621-0.738
		c0.266-0.188,0.574-0.281,0.926-0.281c0.434,0,0.753,0.109,0.958,0.328c0.205,0.219,0.31,0.557,0.313,1.014v4.195h1.084v-4.189
		c-0.012-1.512-0.688-2.268-2.027-2.268c-0.781,0-1.414,0.305-1.898,0.914l-0.035-0.797H80.107z M87.196,149.799v1.535h-1.154v0.838
		h1.154v3.932c0,0.539,0.123,0.955,0.369,1.248s0.611,0.439,1.096,0.439c0.27,0,0.547-0.039,0.832-0.116v-0.874
		c-0.219,0.047-0.391,0.07-0.516,0.07c-0.254,0-0.434-0.064-0.539-0.191s-0.158-0.318-0.158-0.572v-3.937h1.184v-0.838H88.28v-1.535
		H87.196z M94.041,156.657c-0.248,0.166-0.577,0.249-0.987,0.249c-0.445,0-0.804-0.106-1.075-0.319
		c-0.272-0.213-0.417-0.501-0.437-0.864h-1.084c0,0.375,0.11,0.724,0.331,1.046c0.221,0.322,0.526,0.573,0.917,0.753
		c0.391,0.18,0.84,0.27,1.348,0.27c0.723,0,1.31-0.171,1.764-0.513c0.453-0.342,0.68-0.796,0.68-1.362
		c0-0.34-0.081-0.628-0.243-0.864c-0.162-0.236-0.411-0.438-0.747-0.606c-0.336-0.168-0.774-0.312-1.315-0.434
		c-0.541-0.121-0.915-0.248-1.122-0.381c-0.207-0.133-0.311-0.33-0.311-0.592c0-0.277,0.111-0.502,0.334-0.674
		c0.223-0.172,0.531-0.258,0.926-0.258c0.383,0,0.7,0.107,0.952,0.322c0.252,0.215,0.378,0.471,0.378,0.768h1.09
		c0-0.578-0.224-1.053-0.671-1.424c-0.447-0.371-1.03-0.557-1.749-0.557c-0.684,0-1.245,0.18-1.685,0.539
		c-0.439,0.359-0.659,0.799-0.659,1.318c0,0.313,0.077,0.582,0.231,0.809c0.154,0.227,0.393,0.422,0.715,0.586
		s0.758,0.305,1.307,0.422c0.549,0.117,0.934,0.257,1.154,0.419c0.221,0.162,0.331,0.39,0.331,0.683
		C94.413,156.27,94.289,156.491,94.041,156.657z"/>
</g>
</svg>
