<!-- Generator: Adobe InDesign 20.3 SVG Export Plug-in, SVG Library version: 9.3 build 254 -->
<!DOCTYPE svg PUBLIC "-//W3C//DTD SVG 1.1//EN" "http://www.w3.org/Graphics/SVG/1.1/DTD/svg11.dtd">
<svg version="1.1" xmlns="http://www.w3.org/2000/svg" xmlns:xlink="http://www.w3.org/1999/xlink" x="0%" y="0%" width="100%"
	 height="100%" viewBox="0 0 510.092 99.935" preserveAspectRatio="xMidYMid slice" overflow="visible" xml:space="preserve">
<clipPath id="clp_unq_id_1" fill="none">
	<path shape-rendering="crispEdges" stroke="#000000" d="M0,0h510.092v99.935H0V0"/>
</clipPath>
<g clip-path="url(#clp_unq_id_1)" fill="none">
	<g transform="matrix(1 0 0 1 11.3154 17.2861)">
		<path stroke="#0080FF" stroke-width="0.6836" stroke-miterlimit="10" d="M0,2h163.586"/>
	</g>
	<g transform="matrix(1 0 0 1 11.3154 93.2861)">
		<path stroke="#0080FF" stroke-width="0.5859" stroke-miterlimit="10" d="M0,2h100.48"/>
	</g>
	<path fill="#0080FF" d="M19.348,7.333H11.65v1.073h3.192v8.88h1.306v-8.88h3.199V7.333z M22.026,6.786h-1.265v10.5h1.265v-5.271
		c0.173-0.355,0.415-0.643,0.725-0.861c0.31-0.219,0.67-0.328,1.08-0.328c0.506,0,0.878,0.128,1.118,0.383
		c0.239,0.255,0.361,0.649,0.366,1.183v4.895h1.265v-4.888c-0.014-1.764-0.802-2.646-2.365-2.646c-0.898,0-1.627,0.344-2.188,1.032
		V6.786z M34.386,15.994l-0.772-0.602c-0.232,0.301-0.504,0.542-0.813,0.725c-0.31,0.182-0.688,0.273-1.135,0.273
		c-0.629,0-1.147-0.224-1.555-0.673c-0.408-0.449-0.621-1.038-0.639-1.767h5.011v-0.526c0-1.18-0.267-2.087-0.8-2.721
		c-0.533-0.633-1.281-0.95-2.242-0.95c-0.588,0-1.134,0.163-1.637,0.489c-0.504,0.326-0.896,0.777-1.176,1.354
		c-0.28,0.577-0.42,1.232-0.42,1.965v0.232c0,1.103,0.314,1.984,0.943,2.642c0.629,0.659,1.445,0.988,2.447,0.988
		C32.836,17.423,33.766,16.947,34.386,15.994z M32.697,11.322c0.31,0.353,0.483,0.851,0.52,1.494v0.096h-3.705
		c0.082-0.67,0.296-1.191,0.643-1.562c0.346-0.371,0.775-0.557,1.285-0.557C31.968,10.792,32.387,10.969,32.697,11.322z
		 M47.398,7.333h-1.306v7.704l-5.024-7.704h-1.319v9.953h1.319v-7.67l5.011,7.67h1.319V7.333z M54.189,17.286h1.203V9.89h-1.265
		v5.38c-0.319,0.72-0.962,1.08-1.928,1.08c-0.912,0-1.367-0.561-1.367-1.682V9.89h-1.265v4.812c0.004,0.898,0.213,1.576,0.625,2.034
		c0.412,0.458,1.013,0.687,1.801,0.687c0.952,0,1.675-0.289,2.167-0.868L54.189,17.286z M58.848,15.7
		c-0.351-0.46-0.526-1.117-0.526-1.969v-0.239c0-0.875,0.177-1.544,0.53-2.006c0.353-0.462,0.851-0.694,1.494-0.694
		c0.479,0,0.881,0.154,1.207,0.461c0.326,0.308,0.507,0.701,0.543,1.179h1.196c-0.037-0.793-0.329-1.438-0.878-1.935
		c-0.549-0.497-1.238-0.745-2.068-0.745c-0.675,0-1.259,0.155-1.753,0.465c-0.495,0.31-0.874,0.745-1.138,1.306
		c-0.264,0.561-0.396,1.201-0.396,1.921v0.212c0,1.167,0.297,2.086,0.892,2.758c0.595,0.672,1.396,1.008,2.403,1.008
		c0.501,0,0.976-0.114,1.425-0.342c0.449-0.228,0.808-0.533,1.077-0.916c0.269-0.383,0.415-0.786,0.438-1.21h-1.196
		c-0.037,0.41-0.223,0.752-0.561,1.025c-0.337,0.273-0.731,0.41-1.183,0.41C59.701,16.391,59.199,16.161,58.848,15.7z M66.158,6.786
		h-1.265v10.5h1.265V6.786z M74.066,15.994l-0.772-0.602c-0.232,0.301-0.504,0.542-0.813,0.725c-0.31,0.182-0.688,0.273-1.135,0.273
		c-0.629,0-1.147-0.224-1.555-0.673c-0.408-0.449-0.621-1.038-0.639-1.767h5.011v-0.526c0-1.18-0.267-2.087-0.8-2.721
		c-0.533-0.633-1.281-0.95-2.242-0.95c-0.588,0-1.134,0.163-1.637,0.489c-0.504,0.326-0.896,0.777-1.176,1.354
		c-0.28,0.577-0.42,1.232-0.42,1.965v0.232c0,1.103,0.314,1.984,0.943,2.642c0.629,0.659,1.445,0.988,2.447,0.988
		C72.517,17.423,73.446,16.947,74.066,15.994z M72.378,11.322c0.31,0.353,0.483,0.851,0.52,1.494v0.096h-3.705
		c0.082-0.67,0.296-1.191,0.643-1.562c0.346-0.371,0.775-0.557,1.285-0.557C71.648,10.792,72.068,10.969,72.378,11.322z
		 M80.343,17.286h1.203V9.89h-1.265v5.38c-0.319,0.72-0.962,1.08-1.928,1.08c-0.912,0-1.367-0.561-1.367-1.682V9.89h-1.265v4.812
		c0.004,0.898,0.213,1.576,0.625,2.034c0.412,0.458,1.013,0.687,1.801,0.687c0.952,0,1.675-0.289,2.167-0.868L80.343,17.286z
		 M87.328,16.1c-0.289,0.194-0.673,0.291-1.152,0.291c-0.52,0-0.938-0.124-1.254-0.373c-0.317-0.248-0.487-0.584-0.509-1.008h-1.265
		c0,0.438,0.129,0.844,0.386,1.22c0.257,0.376,0.614,0.669,1.07,0.878c0.456,0.21,0.98,0.314,1.572,0.314
		c0.843,0,1.529-0.199,2.058-0.598c0.529-0.399,0.793-0.929,0.793-1.589c0-0.396-0.095-0.733-0.284-1.008
		c-0.189-0.276-0.48-0.512-0.872-0.708c-0.392-0.196-0.904-0.365-1.535-0.506c-0.631-0.141-1.068-0.289-1.309-0.444
		c-0.242-0.155-0.362-0.385-0.362-0.69c0-0.324,0.13-0.586,0.39-0.786c0.26-0.2,0.62-0.301,1.08-0.301
		c0.447,0,0.817,0.125,1.111,0.376c0.294,0.251,0.441,0.549,0.441,0.896h1.271c0-0.674-0.261-1.228-0.783-1.661
		c-0.522-0.433-1.202-0.649-2.041-0.649c-0.798,0-1.453,0.21-1.965,0.629c-0.513,0.419-0.769,0.932-0.769,1.538
		c0,0.365,0.09,0.679,0.27,0.943c0.18,0.264,0.458,0.492,0.834,0.684s0.884,0.355,1.524,0.492c0.64,0.137,1.089,0.3,1.347,0.489
		c0.257,0.189,0.386,0.455,0.386,0.796C87.763,15.648,87.618,15.906,87.328,16.1z M90.697,17.149
		c0.13,0.141,0.325,0.212,0.584,0.212s0.457-0.071,0.591-0.212c0.134-0.141,0.202-0.317,0.202-0.526
		c0-0.219-0.067-0.401-0.202-0.547c-0.134-0.146-0.332-0.219-0.591-0.219s-0.455,0.073-0.584,0.219
		c-0.13,0.146-0.195,0.328-0.195,0.547C90.502,16.833,90.567,17.008,90.697,17.149z M90.704,11.113
		c0.13,0.141,0.325,0.212,0.584,0.212s0.457-0.071,0.591-0.212c0.134-0.141,0.202-0.317,0.202-0.526
		c0-0.219-0.067-0.401-0.202-0.547c-0.134-0.146-0.332-0.219-0.591-0.219s-0.455,0.073-0.584,0.219
		c-0.13,0.146-0.195,0.328-0.195,0.547C90.509,10.797,90.574,10.972,90.704,11.113z M102.53,13.639
		c0.342,0.267,0.513,0.644,0.513,1.131c0,0.488-0.185,0.873-0.554,1.155c-0.369,0.283-0.9,0.424-1.593,0.424
		c-0.743,0-1.336-0.174-1.781-0.523s-0.667-0.824-0.667-1.425h-1.319c0,0.579,0.161,1.096,0.482,1.552
		c0.321,0.456,0.778,0.815,1.371,1.077c0.592,0.262,1.23,0.393,1.914,0.393c1.053,0,1.894-0.243,2.522-0.728
		s0.943-1.131,0.943-1.938c0-0.506-0.113-0.946-0.338-1.319c-0.226-0.374-0.572-0.701-1.039-0.981
		c-0.467-0.28-1.114-0.537-1.941-0.77s-1.413-0.49-1.757-0.77c-0.344-0.281-0.516-0.624-0.516-1.031
		c0-0.507,0.181-0.903,0.543-1.188s0.867-0.428,1.514-0.428c0.697,0,1.237,0.173,1.62,0.518c0.383,0.345,0.574,0.82,0.574,1.423
		h1.319c0-0.551-0.147-1.06-0.441-1.524s-0.709-0.829-1.244-1.094c-0.536-0.264-1.145-0.396-1.829-0.396
		c-1.003,0-1.817,0.256-2.444,0.769c-0.627,0.513-0.94,1.161-0.94,1.945c0,0.693,0.256,1.275,0.769,1.747s1.332,0.869,2.458,1.193
		C101.568,13.109,102.188,13.373,102.53,13.639z M106.771,8.099V9.89h-1.347v0.978h1.347v4.587c0,0.629,0.144,1.114,0.431,1.456
		s0.713,0.513,1.278,0.513c0.314,0,0.638-0.045,0.971-0.136v-1.019c-0.255,0.055-0.456,0.082-0.602,0.082
		c-0.296,0-0.506-0.074-0.629-0.222s-0.185-0.371-0.185-0.667v-4.593h1.381V9.89h-1.381V8.099H106.771z M115.445,17.286h1.203V9.89
		h-1.265v5.38c-0.319,0.72-0.962,1.08-1.928,1.08c-0.912,0-1.367-0.561-1.367-1.682V9.89h-1.265v4.812
		c0.004,0.898,0.213,1.576,0.625,2.034c0.412,0.458,1.013,0.687,1.801,0.687c0.952,0,1.675-0.289,2.167-0.868L115.445,17.286z
		 M118.32,13.622c0,1.13,0.27,2.046,0.81,2.748c0.54,0.702,1.238,1.053,2.095,1.053c0.902,0,1.606-0.31,2.112-0.93l0.062,0.793
		h1.162v-10.5h-1.265v3.855c-0.506-0.592-1.192-0.889-2.058-0.889c-0.871,0-1.575,0.345-2.112,1.036
		c-0.538,0.69-0.807,1.603-0.807,2.738V13.622z M120.104,11.544c0.346-0.479,0.829-0.718,1.449-0.718
		c0.784,0,1.365,0.349,1.743,1.046v3.397c-0.369,0.72-0.955,1.08-1.757,1.08c-0.611,0-1.089-0.237-1.436-0.711
		c-0.346-0.474-0.52-1.13-0.52-1.969C119.585,12.731,119.758,12.022,120.104,11.544z M132.429,15.994l-0.772-0.602
		c-0.232,0.301-0.504,0.542-0.813,0.725c-0.31,0.182-0.688,0.273-1.135,0.273c-0.629,0-1.147-0.224-1.555-0.673
		c-0.408-0.449-0.621-1.038-0.639-1.767h5.011v-0.526c0-1.18-0.267-2.087-0.8-2.721c-0.533-0.633-1.281-0.95-2.242-0.95
		c-0.588,0-1.134,0.163-1.637,0.489c-0.504,0.326-0.896,0.777-1.176,1.354c-0.28,0.577-0.42,1.232-0.42,1.965v0.232
		c0,1.103,0.314,1.984,0.943,2.642c0.629,0.659,1.445,0.988,2.447,0.988C130.88,17.423,131.809,16.947,132.429,15.994z
		 M130.741,11.322c0.31,0.353,0.483,0.851,0.52,1.494v0.096h-3.705c0.082-0.67,0.296-1.191,0.643-1.562
		c0.346-0.371,0.775-0.557,1.285-0.557C130.011,10.792,130.431,10.969,130.741,11.322z M134.121,9.89v7.396h1.265v-5.271
		c0.173-0.355,0.415-0.643,0.725-0.861c0.31-0.219,0.67-0.328,1.08-0.328c0.506,0,0.878,0.128,1.118,0.383
		c0.239,0.255,0.361,0.649,0.366,1.183v4.895h1.265v-4.888c-0.014-1.764-0.802-2.646-2.365-2.646c-0.912,0-1.65,0.355-2.215,1.066
		l-0.041-0.93H134.121z M142.38,8.099V9.89h-1.347v0.978h1.347v4.587c0,0.629,0.144,1.114,0.431,1.456s0.713,0.513,1.278,0.513
		c0.314,0,0.638-0.045,0.971-0.136v-1.019c-0.255,0.055-0.456,0.082-0.602,0.082c-0.296,0-0.506-0.074-0.629-0.222
		s-0.185-0.371-0.185-0.667v-4.593h1.381V9.89h-1.381V8.099H142.38z M157.956,7.333h-1.319v4.279h-5.018V7.333h-1.312v9.953h1.312
		v-4.601h5.018v4.601h1.319V7.333z M164.747,17.286h1.203V9.89h-1.265v5.38c-0.319,0.72-0.962,1.08-1.928,1.08
		c-0.912,0-1.367-0.561-1.367-1.682V9.89h-1.265v4.812c0.004,0.898,0.213,1.576,0.625,2.034c0.412,0.458,1.013,0.687,1.801,0.687
		c0.952,0,1.675-0.289,2.167-0.868L164.747,17.286z M174.196,13.561c0-1.18-0.256-2.11-0.769-2.789
		c-0.513-0.679-1.218-1.019-2.116-1.019c-0.898,0-1.602,0.317-2.112,0.95V6.786h-1.265v10.5h1.162l0.062-0.854
		c0.51,0.661,1.233,0.991,2.167,0.991c0.875,0,1.572-0.343,2.092-1.029c0.52-0.686,0.779-1.594,0.779-2.724V13.561z M172.425,15.646
		c-0.337,0.469-0.809,0.704-1.415,0.704c-0.82,0-1.424-0.387-1.812-1.162v-3.199c0.365-0.775,0.964-1.162,1.798-1.162
		c0.624,0,1.103,0.235,1.436,0.704c0.333,0.469,0.499,1.135,0.499,1.996C172.931,14.47,172.762,15.176,172.425,15.646z"/>
	<path fill="#000000" d="M467.281,20.273l-0.239-0.021l-0.472-0.089v-1.025l0.342,0.027c0.428,0,0.762-0.087,1.002-0.26
		c0.239-0.173,0.436-0.49,0.591-0.95l0.28-0.752l-2.639-7.314h1.381l1.846,5.544l1.723-5.544h1.354l-2.974,8.538
		C469.015,19.658,468.283,20.273,467.281,20.273 M193.891,20.273l-0.239-0.021l-0.472-0.089v-1.025l0.342,0.027
		c0.428,0,0.762-0.087,1.002-0.26s0.436-0.49,0.591-0.95l0.28-0.752l-2.639-7.314h1.381l1.846,5.544l1.723-5.544h1.353l-2.974,8.538
		C195.625,19.658,194.894,20.273,193.891,20.273 M458.302,20.198c-0.533,0-1.055-0.114-1.565-0.342
		c-0.51-0.228-0.9-0.54-1.169-0.937l0.656-0.759c0.542,0.67,1.205,1.005,1.989,1.005c0.615,0,1.095-0.173,1.439-0.52
		c0.344-0.346,0.516-0.834,0.516-1.463v-0.636c-0.506,0.583-1.196,0.875-2.071,0.875c-0.866,0-1.567-0.349-2.102-1.046
		c-0.536-0.697-0.803-1.647-0.803-2.851c0-1.153,0.267-2.07,0.8-2.751c0.533-0.681,1.24-1.022,2.119-1.022
		c0.902,0,1.606,0.319,2.112,0.957l0.061-0.82h1.155v7.219c0,0.957-0.284,1.711-0.851,2.263
		C460.021,19.922,459.259,20.198,458.302,20.198 M458.425,10.826c-0.615,0-1.096,0.239-1.442,0.718
		c-0.346,0.478-0.519,1.187-0.519,2.126c0,0.834,0.171,1.489,0.513,1.965c0.342,0.476,0.82,0.714,1.435,0.714
		c0.797,0,1.383-0.362,1.757-1.087v-3.377C459.781,11.179,459.2,10.826,458.425,10.826 M427.126,20.198
		c-0.533,0-1.055-0.114-1.565-0.342s-0.9-0.54-1.169-0.937l0.656-0.759c0.542,0.67,1.205,1.005,1.989,1.005
		c0.615,0,1.095-0.173,1.439-0.52c0.344-0.346,0.516-0.834,0.516-1.463v-0.636c-0.506,0.583-1.196,0.875-2.071,0.875
		c-0.866,0-1.567-0.349-2.102-1.046c-0.536-0.697-0.803-1.647-0.803-2.851c0-1.153,0.267-2.07,0.8-2.751
		c0.533-0.681,1.24-1.022,2.119-1.022c0.902,0,1.607,0.319,2.112,0.957l0.062-0.82h1.155v7.219c0,0.957-0.284,1.711-0.851,2.263
		C428.845,19.922,428.083,20.198,427.126,20.198 M427.249,10.826c-0.615,0-1.096,0.239-1.442,0.718
		c-0.346,0.478-0.519,1.187-0.519,2.126c0,0.834,0.171,1.489,0.513,1.965c0.342,0.476,0.82,0.714,1.436,0.714
		c0.797,0,1.383-0.362,1.757-1.087v-3.377C428.604,11.179,428.023,10.826,427.249,10.826 M358.96,20.13h-1.265V9.89h1.155
		l0.062,0.82c0.515-0.638,1.23-0.957,2.146-0.957c0.889,0,1.592,0.335,2.109,1.005c0.517,0.67,0.776,1.602,0.776,2.796v0.116
		c0,1.126-0.258,2.033-0.772,2.721c-0.515,0.688-1.212,1.032-2.092,1.032c-0.898,0-1.604-0.285-2.119-0.855V20.13 M360.683,10.826
		c-0.766,0-1.34,0.34-1.723,1.019v3.534c0.378,0.675,0.957,1.012,1.736,1.012c0.606,0,1.088-0.24,1.446-0.721
		c0.358-0.481,0.537-1.195,0.537-2.143c0-0.834-0.178-1.493-0.533-1.976C361.791,11.068,361.303,10.826,360.683,10.826
		 M307.767,20.13h-1.265V9.89h1.155l0.062,0.82c0.515-0.638,1.23-0.957,2.146-0.957c0.889,0,1.592,0.335,2.109,1.005
		c0.517,0.67,0.776,1.602,0.776,2.796v0.116c0,1.126-0.258,2.033-0.772,2.721c-0.515,0.688-1.212,1.032-2.092,1.032
		c-0.898,0-1.604-0.285-2.119-0.855V20.13 M309.49,10.826c-0.766,0-1.34,0.34-1.723,1.019v3.534
		c0.378,0.675,0.957,1.012,1.736,1.012c0.606,0,1.088-0.24,1.446-0.721c0.358-0.481,0.537-1.195,0.537-2.143
		c0-0.834-0.178-1.493-0.533-1.976C310.597,11.068,310.11,10.826,309.49,10.826 M273.261,20.13h-1.265V9.89h1.155l0.062,0.82
		c0.515-0.638,1.23-0.957,2.146-0.957c0.889,0,1.592,0.335,2.109,1.005c0.517,0.67,0.776,1.602,0.776,2.796v0.116
		c0,1.126-0.258,2.033-0.772,2.721c-0.515,0.688-1.212,1.032-2.092,1.032c-0.898,0-1.604-0.285-2.119-0.855V20.13 M274.984,10.826
		c-0.766,0-1.34,0.34-1.723,1.019v3.534c0.378,0.675,0.957,1.012,1.736,1.012c0.606,0,1.088-0.24,1.446-0.721
		c0.358-0.481,0.537-1.195,0.537-2.143c0-0.834-0.178-1.493-0.533-1.976C276.091,11.068,275.604,10.826,274.984,10.826
		 M483.853,17.423c-0.789,0-1.389-0.229-1.801-0.687c-0.412-0.458-0.621-1.136-0.625-2.034V9.89h1.265v4.778
		c0,1.121,0.456,1.682,1.367,1.682c0.966,0,1.609-0.36,1.928-1.08V9.89h1.265v7.396h-1.203l-0.027-0.731
		C485.527,17.134,484.805,17.423,483.853,17.423 M476.462,17.423c-1.003,0-1.815-0.349-2.437-1.046
		c-0.622-0.697-0.933-1.62-0.933-2.769v-0.089c0-0.725,0.143-1.376,0.427-1.955c0.285-0.579,0.681-1.025,1.189-1.34
		c0.508-0.315,1.088-0.472,1.74-0.472c1.007,0,1.822,0.349,2.444,1.046c0.622,0.697,0.933,1.625,0.933,2.782v0.089
		c0,0.72-0.138,1.366-0.413,1.938c-0.276,0.572-0.67,1.017-1.183,1.336C477.716,17.263,477.127,17.423,476.462,17.423
		 M476.448,10.792c-0.624,0-1.128,0.248-1.511,0.745c-0.383,0.497-0.574,1.208-0.574,2.133c0,0.82,0.19,1.479,0.571,1.976
		c0.38,0.497,0.89,0.745,1.528,0.745c0.643,0,1.153-0.252,1.531-0.755c0.378-0.504,0.567-1.209,0.567-2.116
		c0-0.811-0.193-1.469-0.578-1.972C477.598,11.044,477.086,10.792,476.448,10.792 M441.998,17.423c-0.565,0-0.991-0.171-1.278-0.513
		c-0.287-0.342-0.431-0.827-0.431-1.456v-4.587h-1.347V9.89h1.347V8.099h1.265V9.89h1.381v0.978h-1.381v4.593
		c0,0.297,0.062,0.519,0.185,0.667c0.123,0.148,0.333,0.222,0.629,0.222c0.146,0,0.346-0.027,0.602-0.082v1.019
		C442.636,17.378,442.312,17.423,441.998,17.423 M434.472,17.423c-0.729,0-1.327-0.206-1.794-0.619
		c-0.467-0.412-0.701-0.935-0.701-1.569c0-0.77,0.293-1.368,0.878-1.794c0.585-0.426,1.409-0.639,2.471-0.639h1.23v-0.581
		c0-0.442-0.132-0.794-0.397-1.056c-0.264-0.262-0.654-0.393-1.169-0.393c-0.451,0-0.83,0.114-1.135,0.342
		c-0.305,0.228-0.458,0.504-0.458,0.827h-1.271c0-0.369,0.131-0.726,0.393-1.07c0.262-0.344,0.618-0.616,1.067-0.817
		c0.449-0.2,0.942-0.301,1.48-0.301c0.852,0,1.52,0.213,2.003,0.639c0.483,0.426,0.734,1.013,0.752,1.76v3.404
		c0,0.679,0.087,1.219,0.26,1.62v0.109h-1.326c-0.073-0.146-0.132-0.406-0.178-0.779C435.989,17.118,435.288,17.423,434.472,17.423
		 M435.566,13.697c-1.549,0-2.324,0.454-2.324,1.36c0,0.396,0.132,0.707,0.397,0.93c0.264,0.223,0.604,0.335,1.018,0.335
		c0.396,0,0.773-0.103,1.128-0.308c0.356-0.205,0.613-0.472,0.773-0.8v-1.518H435.566 M409.008,17.423
		c-0.729,0-1.327-0.206-1.794-0.619c-0.467-0.412-0.701-0.935-0.701-1.569c0-0.77,0.293-1.368,0.878-1.794
		c0.586-0.426,1.409-0.639,2.471-0.639h1.23v-0.581c0-0.442-0.132-0.794-0.396-1.056c-0.264-0.262-0.654-0.393-1.169-0.393
		c-0.451,0-0.829,0.114-1.135,0.342c-0.305,0.228-0.458,0.504-0.458,0.827h-1.272c0-0.369,0.131-0.726,0.393-1.07
		c0.262-0.344,0.617-0.616,1.066-0.817c0.449-0.2,0.942-0.301,1.48-0.301c0.852,0,1.52,0.213,2.003,0.639
		c0.483,0.426,0.734,1.013,0.752,1.76v3.404c0,0.679,0.087,1.219,0.26,1.62v0.109h-1.326c-0.073-0.146-0.132-0.406-0.178-0.779
		C410.526,17.118,409.824,17.423,409.008,17.423 M410.102,13.697c-1.549,0-2.324,0.454-2.324,1.36c0,0.396,0.132,0.707,0.396,0.93
		c0.264,0.223,0.604,0.335,1.019,0.335c0.396,0,0.772-0.103,1.128-0.308c0.355-0.205,0.613-0.472,0.773-0.8v-1.518H410.102
		 M385.343,17.423c-0.565,0-0.991-0.171-1.278-0.513c-0.287-0.342-0.431-0.827-0.431-1.456v-4.587h-1.347V9.89h1.347V8.099h1.265
		V9.89h1.381v0.978h-1.381v4.593c0,0.297,0.062,0.519,0.185,0.667c0.123,0.148,0.333,0.222,0.629,0.222
		c0.146,0,0.346-0.027,0.601-0.082v1.019C385.981,17.378,385.658,17.423,385.343,17.423 M349.851,17.423
		c-1.003,0-1.818-0.329-2.447-0.988c-0.629-0.658-0.943-1.539-0.943-2.642v-0.232c0-0.734,0.14-1.389,0.421-1.965
		c0.28-0.576,0.672-1.028,1.176-1.353c0.504-0.326,1.049-0.489,1.637-0.489c0.962,0,1.709,0.317,2.242,0.95
		c0.533,0.634,0.8,1.54,0.8,2.721v0.526h-5.011c0.018,0.729,0.231,1.318,0.639,1.767c0.408,0.449,0.926,0.673,1.555,0.673
		c0.447,0,0.825-0.091,1.135-0.273c0.31-0.182,0.581-0.424,0.814-0.725l0.772,0.602C352.02,16.947,351.091,17.423,349.851,17.423
		 M349.694,10.792c-0.51,0-0.939,0.186-1.285,0.557s-0.561,0.892-0.643,1.562h3.705v-0.096c-0.037-0.643-0.21-1.14-0.52-1.494
		C350.642,10.969,350.223,10.792,349.694,10.792 M325.674,17.423c-1.003,0-1.815-0.349-2.437-1.046
		c-0.622-0.697-0.933-1.62-0.933-2.769v-0.089c0-0.725,0.142-1.376,0.427-1.955c0.285-0.579,0.681-1.025,1.189-1.34
		c0.508-0.315,1.088-0.472,1.74-0.472c1.007,0,1.822,0.349,2.444,1.046c0.622,0.697,0.933,1.625,0.933,2.782v0.089
		c0,0.72-0.138,1.366-0.414,1.938c-0.276,0.572-0.67,1.017-1.183,1.336C326.928,17.263,326.339,17.423,325.674,17.423
		 M325.66,10.792c-0.624,0-1.128,0.248-1.511,0.745c-0.383,0.497-0.574,1.208-0.574,2.133c0,0.82,0.19,1.479,0.571,1.976
		c0.381,0.497,0.89,0.745,1.528,0.745c0.643,0,1.153-0.252,1.531-0.755c0.378-0.504,0.567-1.209,0.567-2.116
		c0-0.811-0.193-1.469-0.578-1.972C326.81,11.044,326.298,10.792,325.66,10.792 M301.503,17.423c-1.003,0-1.815-0.349-2.437-1.046
		c-0.622-0.697-0.933-1.62-0.933-2.769v-0.089c0-0.725,0.142-1.376,0.427-1.955c0.285-0.579,0.681-1.025,1.189-1.34
		c0.508-0.315,1.088-0.472,1.74-0.472c1.007,0,1.822,0.349,2.444,1.046c0.622,0.697,0.933,1.625,0.933,2.782v0.089
		c0,0.72-0.138,1.366-0.414,1.938c-0.276,0.572-0.67,1.017-1.183,1.336C302.757,17.263,302.168,17.423,301.503,17.423
		 M301.489,10.792c-0.624,0-1.128,0.248-1.511,0.745s-0.574,1.208-0.574,2.133c0,0.82,0.19,1.479,0.571,1.976
		c0.38,0.497,0.89,0.745,1.528,0.745c0.643,0,1.153-0.252,1.531-0.755c0.378-0.504,0.567-1.209,0.567-2.116
		c0-0.811-0.193-1.469-0.578-1.972C302.639,11.044,302.127,10.792,301.489,10.792 M286.178,17.423c-0.593,0-1.117-0.105-1.572-0.315
		s-0.812-0.502-1.07-0.878c-0.257-0.376-0.386-0.783-0.386-1.22h1.265c0.023,0.424,0.193,0.76,0.509,1.008s0.735,0.372,1.254,0.372
		c0.478,0,0.862-0.097,1.152-0.291c0.289-0.194,0.434-0.452,0.434-0.776c0-0.342-0.129-0.607-0.386-0.796
		c-0.258-0.189-0.706-0.352-1.347-0.489c-0.64-0.137-1.148-0.301-1.524-0.492c-0.376-0.191-0.654-0.419-0.834-0.684
		c-0.18-0.264-0.27-0.579-0.27-0.943c0-0.606,0.256-1.119,0.769-1.538c0.513-0.419,1.168-0.629,1.965-0.629
		c0.839,0,1.519,0.216,2.041,0.649c0.522,0.433,0.783,0.987,0.783,1.661h-1.271c0-0.346-0.147-0.645-0.441-0.896
		c-0.294-0.251-0.664-0.376-1.111-0.376c-0.46,0-0.82,0.1-1.08,0.301c-0.26,0.201-0.39,0.463-0.39,0.786
		c0,0.305,0.121,0.536,0.362,0.69c0.241,0.155,0.678,0.303,1.309,0.444c0.631,0.141,1.143,0.31,1.535,0.506
		c0.392,0.196,0.682,0.432,0.872,0.708c0.189,0.276,0.284,0.612,0.284,1.008c0,0.661-0.264,1.191-0.793,1.589
		C287.707,17.224,287.021,17.423,286.178,17.423 M266.997,17.423c-1.003,0-1.815-0.349-2.437-1.046
		c-0.622-0.697-0.933-1.62-0.933-2.769v-0.089c0-0.725,0.142-1.376,0.427-1.955c0.285-0.579,0.681-1.025,1.189-1.34
		c0.508-0.315,1.088-0.472,1.74-0.472c1.007,0,1.822,0.349,2.444,1.046c0.622,0.697,0.933,1.625,0.933,2.782v0.089
		c0,0.72-0.138,1.366-0.414,1.938c-0.276,0.572-0.67,1.017-1.183,1.336C268.251,17.263,267.662,17.423,266.997,17.423
		 M266.983,10.792c-0.624,0-1.128,0.248-1.511,0.745c-0.383,0.497-0.574,1.208-0.574,2.133c0,0.82,0.19,1.479,0.571,1.976
		c0.381,0.497,0.89,0.745,1.528,0.745c0.643,0,1.153-0.252,1.531-0.755c0.378-0.504,0.567-1.209,0.567-2.116
		c0-0.811-0.193-1.469-0.578-1.972C268.133,11.044,267.621,10.792,266.983,10.792 M261.752,17.423c-0.565,0-0.991-0.171-1.278-0.513
		c-0.287-0.342-0.431-0.827-0.431-1.456v-4.587h-1.347V9.89h1.347V8.099h1.265V9.89h1.381v0.978h-1.381v4.593
		c0,0.297,0.062,0.519,0.185,0.667c0.123,0.148,0.333,0.222,0.629,0.222c0.146,0,0.346-0.027,0.601-0.082v1.019
		C262.39,17.378,262.066,17.423,261.752,17.423 M254.924,17.423c-0.593,0-1.117-0.105-1.572-0.315
		c-0.456-0.21-0.812-0.502-1.07-0.878c-0.258-0.376-0.386-0.783-0.386-1.22h1.265c0.023,0.424,0.192,0.76,0.509,1.008
		c0.317,0.248,0.735,0.372,1.254,0.372c0.479,0,0.862-0.097,1.152-0.291c0.289-0.194,0.434-0.452,0.434-0.776
		c0-0.342-0.129-0.607-0.386-0.796c-0.257-0.189-0.706-0.352-1.347-0.489c-0.64-0.137-1.148-0.301-1.524-0.492
		c-0.376-0.191-0.654-0.419-0.834-0.684c-0.18-0.264-0.27-0.579-0.27-0.943c0-0.606,0.256-1.119,0.769-1.538
		c0.513-0.419,1.168-0.629,1.965-0.629c0.838,0,1.519,0.216,2.041,0.649c0.522,0.433,0.783,0.987,0.783,1.661h-1.271
		c0-0.346-0.147-0.645-0.441-0.896c-0.294-0.251-0.664-0.376-1.111-0.376c-0.46,0-0.82,0.1-1.08,0.301
		c-0.26,0.201-0.39,0.463-0.39,0.786c0,0.305,0.121,0.536,0.362,0.69c0.241,0.155,0.678,0.303,1.309,0.444
		c0.631,0.141,1.143,0.31,1.535,0.506c0.392,0.196,0.682,0.432,0.872,0.708c0.189,0.276,0.284,0.612,0.284,1.008
		c0,0.661-0.264,1.191-0.793,1.589C256.453,17.224,255.767,17.423,254.924,17.423 M243.064,17.423c-1.003,0-1.818-0.329-2.447-0.988
		c-0.629-0.658-0.943-1.539-0.943-2.642v-0.232c0-0.734,0.14-1.389,0.421-1.965c0.28-0.576,0.672-1.028,1.176-1.353
		c0.504-0.326,1.049-0.489,1.637-0.489c0.962,0,1.709,0.317,2.242,0.95c0.533,0.634,0.8,1.54,0.8,2.721v0.526h-5.011
		c0.018,0.729,0.231,1.318,0.639,1.767c0.408,0.449,0.926,0.673,1.555,0.673c0.447,0,0.825-0.091,1.135-0.273
		c0.31-0.182,0.581-0.424,0.814-0.725l0.772,0.602C245.233,16.947,244.304,17.423,243.064,17.423 M242.907,10.792
		c-0.51,0-0.939,0.186-1.285,0.557s-0.56,0.892-0.643,1.562h3.705v-0.096c-0.037-0.643-0.21-1.14-0.52-1.494
		C243.855,10.969,243.435,10.792,242.907,10.792 M227.223,17.423c-1.003,0-1.815-0.349-2.437-1.046
		c-0.622-0.697-0.933-1.62-0.933-2.769v-0.089c0-0.725,0.142-1.376,0.427-1.955c0.285-0.579,0.681-1.025,1.189-1.34
		c0.508-0.315,1.088-0.472,1.74-0.472c1.007,0,1.822,0.349,2.444,1.046c0.622,0.697,0.933,1.625,0.933,2.782v0.089
		c0,0.72-0.138,1.366-0.413,1.938c-0.276,0.572-0.67,1.017-1.183,1.336C228.477,17.263,227.888,17.423,227.223,17.423
		 M227.209,10.792c-0.624,0-1.128,0.248-1.511,0.745c-0.383,0.497-0.574,1.208-0.574,2.133c0,0.82,0.19,1.479,0.571,1.976
		c0.38,0.497,0.89,0.745,1.528,0.745c0.643,0,1.153-0.252,1.531-0.755c0.378-0.504,0.567-1.209,0.567-2.116
		c0-0.811-0.193-1.469-0.578-1.972C228.359,11.044,227.847,10.792,227.209,10.792 M210.463,17.423c-0.789,0-1.389-0.229-1.801-0.687
		c-0.412-0.458-0.621-1.136-0.625-2.034V9.89h1.265v4.778c0,1.121,0.456,1.682,1.367,1.682c0.966,0,1.609-0.36,1.928-1.08V9.89
		h1.265v7.396h-1.203l-0.027-0.731C212.138,17.134,211.416,17.423,210.463,17.423 M203.072,17.423c-1.003,0-1.815-0.349-2.437-1.046
		c-0.622-0.697-0.933-1.62-0.933-2.769v-0.089c0-0.725,0.142-1.376,0.427-1.955c0.285-0.579,0.681-1.025,1.189-1.34
		c0.508-0.315,1.088-0.472,1.74-0.472c1.007,0,1.822,0.349,2.444,1.046c0.622,0.697,0.933,1.625,0.933,2.782v0.089
		c0,0.72-0.138,1.366-0.414,1.938c-0.276,0.572-0.67,1.017-1.183,1.336C204.327,17.263,203.738,17.423,203.072,17.423
		 M203.059,10.792c-0.624,0-1.128,0.248-1.511,0.745c-0.383,0.497-0.574,1.208-0.574,2.133c0,0.82,0.19,1.479,0.571,1.976
		c0.38,0.497,0.89,0.745,1.528,0.745c0.643,0,1.153-0.252,1.531-0.755c0.378-0.504,0.567-1.209,0.567-2.116
		c0-0.811-0.193-1.469-0.578-1.972C204.208,11.044,203.697,10.792,203.059,10.792 M185.459,17.423c-0.593,0-1.117-0.105-1.572-0.315
		c-0.456-0.21-0.812-0.502-1.07-0.878c-0.257-0.376-0.386-0.783-0.386-1.22h1.265c0.023,0.424,0.192,0.76,0.509,1.008
		c0.317,0.248,0.735,0.372,1.254,0.372c0.478,0,0.862-0.097,1.152-0.291c0.289-0.194,0.434-0.452,0.434-0.776
		c0-0.342-0.129-0.607-0.386-0.796c-0.258-0.189-0.707-0.352-1.347-0.489c-0.64-0.137-1.148-0.301-1.524-0.492
		c-0.376-0.191-0.654-0.419-0.834-0.684c-0.18-0.264-0.27-0.579-0.27-0.943c0-0.606,0.256-1.119,0.769-1.538
		c0.513-0.419,1.168-0.629,1.965-0.629c0.839,0,1.519,0.216,2.041,0.649c0.522,0.433,0.783,0.987,0.783,1.661h-1.271
		c0-0.346-0.147-0.645-0.441-0.896c-0.294-0.251-0.664-0.376-1.111-0.376c-0.46,0-0.82,0.1-1.08,0.301
		c-0.26,0.201-0.39,0.463-0.39,0.786c0,0.305,0.121,0.536,0.362,0.69c0.241,0.155,0.678,0.303,1.309,0.444
		c0.631,0.141,1.143,0.31,1.535,0.506c0.392,0.196,0.682,0.432,0.872,0.708c0.189,0.276,0.284,0.612,0.284,1.008
		c0,0.661-0.264,1.191-0.793,1.589C186.988,17.224,186.302,17.423,185.459,17.423 M490.499,17.286h-1.265V9.89h1.23l0.02,0.854
		c0.415-0.661,1.003-0.991,1.764-0.991c0.246,0,0.433,0.032,0.561,0.096v1.176c-0.191-0.032-0.399-0.048-0.622-0.048
		c-0.83,0-1.392,0.353-1.688,1.06V17.286 M453.544,17.286h-1.265v-4.894c-0.005-0.533-0.126-0.927-0.366-1.183
		c-0.239-0.255-0.612-0.383-1.118-0.383c-0.41,0-0.77,0.109-1.08,0.328c-0.31,0.219-0.551,0.506-0.725,0.861v5.271h-1.265V9.89
		h1.196l0.041,0.93c0.565-0.711,1.303-1.066,2.215-1.066c1.563,0,2.352,0.882,2.365,2.645V17.286 M445.687,17.286h-1.265V9.89h1.265
		V17.286 M422.293,17.286h-1.265V9.89h1.265V17.286 M417.033,17.286h-0.964l-2.68-7.396h1.292l1.88,5.681l1.832-5.681h1.292
		L417.033,17.286 M404.849,17.286h-1.265v-4.894c-0.005-0.533-0.126-0.927-0.366-1.183c-0.239-0.255-0.612-0.383-1.118-0.383
		c-0.41,0-0.77,0.109-1.08,0.328c-0.31,0.219-0.551,0.506-0.725,0.861v5.271h-1.265V9.89h1.196l0.041,0.93
		c0.565-0.711,1.303-1.066,2.215-1.066c1.563,0,2.352,0.882,2.365,2.645V17.286 M393.532,17.286h-1.265v-4.894
		c-0.005-0.533-0.127-0.927-0.366-1.183c-0.239-0.255-0.612-0.383-1.118-0.383c-0.41,0-0.77,0.109-1.08,0.328
		c-0.31,0.219-0.552,0.506-0.725,0.861v5.271h-1.265v-10.5h1.265v3.999c0.56-0.688,1.29-1.032,2.187-1.032
		c1.563,0,2.352,0.882,2.365,2.645V17.286 M381.039,17.286h-1.265V9.89h1.265V17.286 M376.238,17.286h-1.025l-1.798-5.605
		l-1.75,5.605h-1.025l-2.146-7.396h1.258l1.456,5.537l1.723-5.537h1.019l1.757,5.653l1.422-5.653h1.265L376.238,17.286
		 M355.663,17.286h-1.265v-10.5h1.265V17.286 M344.834,17.286h-1.265v-4.894c-0.005-0.533-0.126-0.927-0.366-1.183
		c-0.239-0.255-0.612-0.383-1.118-0.383c-0.41,0-0.77,0.109-1.08,0.328c-0.31,0.219-0.551,0.506-0.725,0.861v5.271h-1.265v-10.5
		h1.265v3.999c0.56-0.688,1.29-1.032,2.187-1.032c1.563,0,2.352,0.882,2.365,2.645V17.286 M331.938,17.286h-1.265V9.89h1.23
		l0.021,0.854c0.415-0.661,1.003-0.991,1.764-0.991c0.246,0,0.433,0.032,0.561,0.096v1.176c-0.191-0.032-0.399-0.048-0.622-0.048
		c-0.829,0-1.392,0.353-1.688,1.06V17.286 M319.85,17.286h-1.265v-6.419h-1.169V9.89h1.169V9.131c0-0.793,0.212-1.406,0.636-1.839
		c0.424-0.433,1.023-0.649,1.798-0.649c0.292,0,0.581,0.038,0.868,0.115l-0.068,1.019c-0.214-0.041-0.442-0.062-0.684-0.062
		c-0.41,0-0.727,0.12-0.95,0.36c-0.223,0.24-0.335,0.584-0.335,1.032V9.89h1.579v0.978h-1.579V17.286 M296.535,17.286h-1.265v-4.894
		c-0.005-0.533-0.127-0.927-0.366-1.183c-0.239-0.255-0.612-0.383-1.118-0.383c-0.41,0-0.77,0.109-1.08,0.328
		c-0.31,0.219-0.551,0.506-0.725,0.861v5.271h-1.265v-10.5h1.265v3.999c0.56-0.688,1.29-1.032,2.187-1.032
		c1.563,0,2.352,0.882,2.365,2.645V17.286 M238.04,17.286h-1.265v-4.894c-0.005-0.533-0.126-0.927-0.366-1.183
		c-0.239-0.255-0.612-0.383-1.118-0.383c-0.41,0-0.77,0.109-1.08,0.328c-0.31,0.219-0.552,0.506-0.725,0.861v5.271h-1.265V9.89
		h1.196l0.041,0.93c0.565-0.711,1.303-1.066,2.215-1.066c1.563,0,2.352,0.882,2.365,2.645V17.286 M217.109,17.286h-1.265V9.89h1.23
		l0.02,0.854c0.415-0.661,1.003-0.991,1.764-0.991c0.246,0,0.433,0.032,0.561,0.096v1.176c-0.191-0.032-0.399-0.048-0.622-0.048
		c-0.83,0-1.392,0.353-1.689,1.06V17.286 M180.768,17.286h-1.265V9.89h1.265V17.286 M250.633,13.574h-3.336v-1.032h3.336V13.574
		 M445.065,8.646c-0.246,0-0.432-0.068-0.557-0.205c-0.125-0.137-0.188-0.308-0.188-0.513s0.063-0.378,0.188-0.52
		c0.125-0.141,0.311-0.212,0.557-0.212s0.433,0.071,0.561,0.212c0.127,0.141,0.191,0.315,0.191,0.52s-0.064,0.376-0.191,0.513
		C445.498,8.577,445.311,8.646,445.065,8.646 M421.671,8.646c-0.246,0-0.432-0.068-0.557-0.205
		c-0.125-0.137-0.188-0.308-0.188-0.513s0.063-0.378,0.188-0.52c0.125-0.141,0.311-0.212,0.557-0.212
		c0.246,0,0.433,0.071,0.561,0.212c0.127,0.141,0.191,0.315,0.191,0.52s-0.064,0.376-0.191,0.513
		C422.103,8.577,421.917,8.646,421.671,8.646 M380.417,8.646c-0.246,0-0.432-0.068-0.557-0.205
		c-0.125-0.137-0.188-0.308-0.188-0.513s0.063-0.378,0.188-0.52c0.125-0.141,0.311-0.212,0.557-0.212
		c0.246,0,0.433,0.071,0.561,0.212c0.128,0.141,0.191,0.315,0.191,0.52s-0.064,0.376-0.191,0.513
		C380.85,8.577,380.663,8.646,380.417,8.646 M180.146,8.646c-0.246,0-0.432-0.068-0.557-0.205c-0.125-0.137-0.188-0.308-0.188-0.513
		s0.063-0.378,0.188-0.52c0.125-0.141,0.311-0.212,0.557-0.212c0.246,0,0.433,0.071,0.561,0.212c0.127,0.141,0.191,0.315,0.191,0.52
		s-0.064,0.376-0.191,0.513C180.579,8.577,180.392,8.646,180.146,8.646"/>
	<path fill="#000000" d="M390.59,40.273l-0.239-0.02l-0.472-0.089v-1.025l0.342,0.027c0.428,0,0.762-0.087,1.002-0.26
		c0.239-0.173,0.436-0.49,0.591-0.95l0.28-0.752l-2.639-7.314h1.381l1.846,5.544l1.723-5.544h1.354l-2.974,8.538
		C392.324,39.658,391.592,40.273,390.59,40.273 M325.679,40.273l-0.239-0.02l-0.472-0.089v-1.025l0.342,0.027
		c0.428,0,0.762-0.087,1.001-0.26c0.239-0.173,0.436-0.49,0.591-0.95l0.28-0.752l-2.639-7.314h1.381l1.846,5.544l1.723-5.544h1.353
		l-2.974,8.538C327.413,39.658,326.682,40.273,325.679,40.273 M146.275,40.273l-0.239-0.02l-0.472-0.089v-1.025l0.342,0.027
		c0.428,0,0.762-0.087,1.002-0.26c0.239-0.173,0.436-0.49,0.591-0.95l0.28-0.752l-2.639-7.314h1.381l1.846,5.544l1.723-5.544h1.354
		l-2.974,8.538C148.009,39.658,147.277,40.273,146.275,40.273 M489.386,37.423c-0.565,0-0.991-0.171-1.278-0.513
		c-0.287-0.342-0.431-0.827-0.431-1.456v-4.587h-1.347V29.89h1.347v-1.791h1.265v1.791h1.381v0.978h-1.381v4.593
		c0,0.297,0.062,0.519,0.185,0.667c0.123,0.148,0.333,0.222,0.629,0.222c0.146,0,0.346-0.027,0.602-0.082v1.019
		C490.024,37.378,489.7,37.423,489.386,37.423 M482.623,37.423c-1.007,0-1.808-0.336-2.403-1.008
		c-0.595-0.672-0.892-1.592-0.892-2.758v-0.212c0-0.72,0.132-1.36,0.396-1.921c0.264-0.561,0.644-0.996,1.138-1.306
		c0.494-0.31,1.079-0.465,1.754-0.465c0.829,0,1.519,0.248,2.068,0.745s0.842,1.142,0.878,1.934h-1.196
		c-0.036-0.478-0.218-0.872-0.543-1.179c-0.326-0.308-0.728-0.461-1.206-0.461c-0.643,0-1.141,0.231-1.494,0.694
		c-0.353,0.463-0.53,1.131-0.53,2.006v0.239c0,0.852,0.175,1.508,0.526,1.969c0.351,0.46,0.852,0.69,1.504,0.69
		c0.451,0,0.845-0.137,1.183-0.41c0.337-0.273,0.524-0.615,0.561-1.025h1.196c-0.023,0.424-0.169,0.827-0.437,1.21
		c-0.269,0.383-0.628,0.688-1.077,0.916C483.6,37.309,483.125,37.423,482.623,37.423 M475.19,37.423
		c-1.003,0-1.818-0.329-2.447-0.988c-0.629-0.659-0.943-1.539-0.943-2.642v-0.232c0-0.734,0.14-1.389,0.42-1.965
		c0.28-0.577,0.672-1.028,1.176-1.354c0.503-0.326,1.049-0.489,1.637-0.489c0.961,0,1.709,0.317,2.242,0.95
		c0.533,0.634,0.8,1.54,0.8,2.721v0.526h-5.011c0.018,0.729,0.231,1.318,0.639,1.767c0.408,0.449,0.926,0.673,1.555,0.673
		c0.447,0,0.825-0.091,1.135-0.273c0.31-0.182,0.581-0.424,0.813-0.725l0.772,0.602C477.359,36.947,476.43,37.423,475.19,37.423
		 M475.033,30.792c-0.511,0-0.939,0.186-1.285,0.557c-0.346,0.372-0.561,0.892-0.643,1.562h3.705v-0.096
		c-0.037-0.643-0.21-1.14-0.519-1.494C475.981,30.969,475.561,30.792,475.033,30.792 M451.565,37.423
		c-1.003,0-1.815-0.349-2.437-1.046c-0.622-0.697-0.933-1.62-0.933-2.769V33.52c0-0.725,0.142-1.376,0.427-1.955
		c0.285-0.579,0.681-1.025,1.19-1.34c0.508-0.314,1.088-0.472,1.74-0.472c1.007,0,1.822,0.349,2.444,1.046
		c0.622,0.697,0.933,1.625,0.933,2.782v0.089c0,0.72-0.138,1.366-0.414,1.938c-0.276,0.572-0.67,1.017-1.183,1.336
		C452.82,37.263,452.231,37.423,451.565,37.423 M451.552,30.792c-0.624,0-1.128,0.248-1.511,0.745
		c-0.383,0.497-0.574,1.208-0.574,2.133c0,0.82,0.19,1.479,0.571,1.976c0.381,0.497,0.89,0.745,1.528,0.745
		c0.643,0,1.153-0.252,1.531-0.755c0.378-0.504,0.567-1.209,0.567-2.116c0-0.811-0.193-1.469-0.578-1.972
		C452.701,31.044,452.19,30.792,451.552,30.792 M444.061,37.423c-1.007,0-1.808-0.336-2.403-1.008
		c-0.595-0.672-0.892-1.592-0.892-2.758v-0.212c0-0.72,0.132-1.36,0.396-1.921c0.264-0.561,0.644-0.996,1.138-1.306
		c0.494-0.31,1.079-0.465,1.753-0.465c0.829,0,1.519,0.248,2.068,0.745c0.549,0.497,0.842,1.142,0.878,1.934h-1.196
		c-0.037-0.478-0.218-0.872-0.543-1.179c-0.326-0.308-0.728-0.461-1.206-0.461c-0.643,0-1.141,0.231-1.494,0.694
		c-0.353,0.463-0.53,1.131-0.53,2.006v0.239c0,0.852,0.175,1.508,0.526,1.969c0.351,0.46,0.852,0.69,1.504,0.69
		c0.451,0,0.845-0.137,1.183-0.41c0.337-0.273,0.524-0.615,0.56-1.025h1.196c-0.023,0.424-0.169,0.827-0.438,1.21
		c-0.269,0.383-0.628,0.688-1.077,0.916C445.038,37.309,444.562,37.423,444.061,37.423 M403.527,37.423
		c-1.003,0-1.815-0.349-2.437-1.046c-0.622-0.697-0.933-1.62-0.933-2.769V33.52c0-0.725,0.142-1.376,0.427-1.955
		c0.285-0.579,0.681-1.025,1.189-1.34c0.508-0.314,1.088-0.472,1.74-0.472c1.007,0,1.822,0.349,2.444,1.046
		c0.622,0.697,0.933,1.625,0.933,2.782v0.089c0,0.72-0.138,1.366-0.414,1.938c-0.276,0.572-0.67,1.017-1.183,1.336
		C404.781,37.263,404.192,37.423,403.527,37.423 M403.513,30.792c-0.624,0-1.128,0.248-1.511,0.745
		c-0.383,0.497-0.574,1.208-0.574,2.133c0,0.82,0.19,1.479,0.571,1.976s0.89,0.745,1.528,0.745c0.643,0,1.153-0.252,1.531-0.755
		c0.378-0.504,0.567-1.209,0.567-2.116c0-0.811-0.193-1.469-0.578-1.972C404.663,31.044,404.151,30.792,403.513,30.792
		 M384.447,37.423c-0.565,0-0.991-0.171-1.278-0.513c-0.287-0.342-0.431-0.827-0.431-1.456v-4.587h-1.347V29.89h1.347v-1.791h1.265
		v1.791h1.381v0.978h-1.381v4.593c0,0.297,0.062,0.519,0.185,0.667c0.123,0.148,0.333,0.222,0.629,0.222
		c0.146,0,0.346-0.027,0.601-0.082v1.019C385.085,37.378,384.761,37.423,384.447,37.423 M377.685,37.423
		c-1.007,0-1.808-0.336-2.403-1.008c-0.595-0.672-0.892-1.592-0.892-2.758v-0.212c0-0.72,0.132-1.36,0.397-1.921
		c0.264-0.561,0.644-0.996,1.138-1.306c0.494-0.31,1.079-0.465,1.753-0.465c0.829,0,1.519,0.248,2.068,0.745
		c0.549,0.497,0.842,1.142,0.878,1.934h-1.196c-0.036-0.478-0.218-0.872-0.543-1.179c-0.326-0.308-0.728-0.461-1.206-0.461
		c-0.643,0-1.14,0.231-1.494,0.694c-0.353,0.463-0.53,1.131-0.53,2.006v0.239c0,0.852,0.175,1.508,0.526,1.969
		c0.351,0.46,0.852,0.69,1.504,0.69c0.451,0,0.845-0.137,1.183-0.41c0.337-0.273,0.524-0.615,0.56-1.025h1.196
		c-0.023,0.424-0.169,0.827-0.438,1.21c-0.269,0.383-0.628,0.688-1.077,0.916C378.661,37.309,378.186,37.423,377.685,37.423
		 M370.251,37.423c-1.003,0-1.818-0.329-2.447-0.988c-0.629-0.659-0.943-1.539-0.943-2.642v-0.232c0-0.734,0.14-1.389,0.42-1.965
		c0.28-0.577,0.672-1.028,1.176-1.354c0.504-0.326,1.049-0.489,1.637-0.489c0.961,0,1.709,0.317,2.242,0.95
		c0.533,0.634,0.8,1.54,0.8,2.721v0.526h-5.011c0.018,0.729,0.231,1.318,0.639,1.767c0.408,0.449,0.926,0.673,1.555,0.673
		c0.447,0,0.825-0.091,1.135-0.273c0.31-0.182,0.581-0.424,0.813-0.725l0.772,0.602C372.42,36.947,371.491,37.423,370.251,37.423
		 M370.094,30.792c-0.511,0-0.939,0.186-1.285,0.557c-0.346,0.372-0.56,0.892-0.643,1.562h3.705v-0.096
		c-0.037-0.643-0.21-1.14-0.519-1.494C371.042,30.969,370.623,30.792,370.094,30.792 M353.773,37.423
		c-0.857,0-1.555-0.351-2.095-1.053c-0.54-0.702-0.81-1.618-0.81-2.748v-0.096c0-1.135,0.269-2.047,0.807-2.738
		c0.538-0.69,1.242-1.036,2.112-1.036c0.866,0,1.552,0.296,2.058,0.889v-3.856h1.265v10.5h-1.162l-0.062-0.793
		C355.379,37.113,354.675,37.423,353.773,37.423 M354.101,30.826c-0.62,0-1.103,0.239-1.449,0.718
		c-0.346,0.478-0.52,1.187-0.52,2.126c0,0.839,0.173,1.495,0.52,1.969c0.346,0.474,0.825,0.711,1.436,0.711
		c0.802,0,1.388-0.36,1.757-1.08v-3.397C355.466,31.175,354.885,30.826,354.101,30.826 M342.251,37.423
		c-0.789,0-1.389-0.229-1.801-0.687c-0.413-0.458-0.621-1.136-0.626-2.034V29.89h1.265v4.778c0,1.121,0.456,1.682,1.367,1.682
		c0.966,0,1.609-0.36,1.928-1.08v-5.38h1.265v7.397h-1.203l-0.027-0.731C343.926,37.133,343.204,37.423,342.251,37.423
		 M334.861,37.423c-1.003,0-1.815-0.349-2.437-1.046c-0.622-0.697-0.933-1.62-0.933-2.769V33.52c0-0.725,0.142-1.376,0.427-1.955
		c0.285-0.579,0.681-1.025,1.19-1.34c0.508-0.314,1.088-0.472,1.74-0.472c1.007,0,1.822,0.349,2.444,1.046
		c0.622,0.697,0.933,1.625,0.933,2.782v0.089c0,0.72-0.138,1.366-0.414,1.938c-0.276,0.572-0.67,1.017-1.183,1.336
		C336.115,37.263,335.526,37.423,334.861,37.423 M334.847,30.792c-0.624,0-1.128,0.248-1.511,0.745
		c-0.383,0.497-0.574,1.208-0.574,2.133c0,0.82,0.19,1.479,0.571,1.976c0.381,0.497,0.89,0.745,1.528,0.745
		c0.643,0,1.153-0.252,1.531-0.755c0.378-0.504,0.567-1.209,0.567-2.116c0-0.811-0.193-1.469-0.578-1.972
		C335.996,31.044,335.485,30.792,334.847,30.792 M319.332,37.423c-0.565,0-0.991-0.171-1.278-0.513
		c-0.287-0.342-0.431-0.827-0.431-1.456v-4.587h-1.347V29.89h1.347v-1.791h1.265v1.791h1.381v0.978h-1.381v4.593
		c0,0.297,0.062,0.519,0.185,0.667c0.123,0.148,0.333,0.222,0.629,0.222c0.146,0,0.346-0.027,0.602-0.082v1.019
		C319.97,37.378,319.647,37.423,319.332,37.423 M312.505,37.423c-0.592,0-1.117-0.105-1.572-0.314
		c-0.456-0.21-0.813-0.502-1.07-0.878c-0.258-0.376-0.386-0.783-0.386-1.22h1.265c0.023,0.424,0.192,0.76,0.509,1.008
		c0.317,0.248,0.735,0.373,1.254,0.373c0.478,0,0.862-0.097,1.152-0.291c0.289-0.194,0.434-0.452,0.434-0.776
		c0-0.342-0.129-0.607-0.386-0.796c-0.257-0.189-0.706-0.352-1.347-0.489c-0.64-0.137-1.148-0.301-1.524-0.492
		c-0.376-0.191-0.654-0.419-0.834-0.684c-0.18-0.264-0.27-0.579-0.27-0.943c0-0.606,0.256-1.119,0.769-1.538
		c0.513-0.419,1.168-0.629,1.965-0.629c0.838,0,1.519,0.216,2.04,0.649c0.522,0.433,0.783,0.987,0.783,1.661h-1.271
		c0-0.346-0.147-0.645-0.441-0.896c-0.294-0.251-0.664-0.376-1.111-0.376c-0.46,0-0.82,0.1-1.08,0.301
		c-0.26,0.201-0.39,0.463-0.39,0.786c0,0.305,0.121,0.536,0.362,0.69c0.241,0.155,0.678,0.303,1.309,0.444
		c0.631,0.141,1.143,0.31,1.535,0.506c0.392,0.196,0.682,0.432,0.872,0.708c0.189,0.276,0.284,0.612,0.284,1.008
		c0,0.661-0.264,1.191-0.793,1.589C314.034,37.224,313.348,37.423,312.505,37.423 M301.97,37.423c-0.592,0-1.117-0.105-1.572-0.314
		c-0.456-0.21-0.812-0.502-1.07-0.878c-0.258-0.376-0.386-0.783-0.386-1.22h1.265c0.023,0.424,0.193,0.76,0.509,1.008
		c0.317,0.248,0.735,0.373,1.254,0.373c0.479,0,0.862-0.097,1.152-0.291c0.289-0.194,0.434-0.452,0.434-0.776
		c0-0.342-0.129-0.607-0.386-0.796c-0.257-0.189-0.706-0.352-1.347-0.489c-0.64-0.137-1.148-0.301-1.524-0.492
		c-0.376-0.191-0.654-0.419-0.834-0.684c-0.18-0.264-0.27-0.579-0.27-0.943c0-0.606,0.256-1.119,0.769-1.538
		c0.513-0.419,1.168-0.629,1.965-0.629c0.839,0,1.519,0.216,2.041,0.649c0.522,0.433,0.783,0.987,0.783,1.661h-1.271
		c0-0.346-0.147-0.645-0.441-0.896c-0.294-0.251-0.664-0.376-1.111-0.376c-0.46,0-0.82,0.1-1.08,0.301
		c-0.26,0.201-0.39,0.463-0.39,0.786c0,0.305,0.121,0.536,0.362,0.69c0.241,0.155,0.678,0.303,1.309,0.444s1.143,0.31,1.535,0.506
		c0.392,0.196,0.682,0.432,0.872,0.708c0.189,0.276,0.284,0.612,0.284,1.008c0,0.661-0.264,1.191-0.793,1.589
		C303.499,37.224,302.813,37.423,301.97,37.423 M294.737,37.423c-0.592,0-1.117-0.105-1.572-0.314
		c-0.456-0.21-0.812-0.502-1.07-0.878c-0.258-0.376-0.386-0.783-0.386-1.22h1.265c0.023,0.424,0.192,0.76,0.509,1.008
		c0.317,0.248,0.735,0.373,1.254,0.373c0.479,0,0.862-0.097,1.152-0.291c0.289-0.194,0.434-0.452,0.434-0.776
		c0-0.342-0.129-0.607-0.386-0.796c-0.257-0.189-0.706-0.352-1.347-0.489c-0.64-0.137-1.148-0.301-1.524-0.492
		c-0.376-0.191-0.654-0.419-0.834-0.684c-0.18-0.264-0.27-0.579-0.27-0.943c0-0.606,0.256-1.119,0.769-1.538
		c0.513-0.419,1.168-0.629,1.965-0.629c0.838,0,1.519,0.216,2.041,0.649c0.522,0.433,0.783,0.987,0.783,1.661h-1.271
		c0-0.346-0.147-0.645-0.441-0.896c-0.294-0.251-0.664-0.376-1.111-0.376c-0.46,0-0.82,0.1-1.08,0.301
		c-0.26,0.201-0.39,0.463-0.39,0.786c0,0.305,0.121,0.536,0.362,0.69c0.241,0.155,0.678,0.303,1.309,0.444
		c0.631,0.141,1.143,0.31,1.535,0.506c0.392,0.196,0.682,0.432,0.872,0.708c0.189,0.276,0.284,0.612,0.284,1.008
		c0,0.661-0.264,1.191-0.793,1.589C296.266,37.224,295.58,37.423,294.737,37.423 M286.772,37.423c-0.729,0-1.327-0.206-1.794-0.619
		c-0.467-0.412-0.701-0.935-0.701-1.569c0-0.77,0.293-1.368,0.878-1.795c0.586-0.426,1.409-0.639,2.471-0.639h1.23v-0.581
		c0-0.442-0.132-0.794-0.396-1.056c-0.264-0.262-0.654-0.393-1.169-0.393c-0.451,0-0.829,0.114-1.135,0.342
		s-0.458,0.504-0.458,0.827h-1.271c0-0.369,0.131-0.726,0.393-1.07c0.262-0.344,0.617-0.616,1.066-0.817
		c0.449-0.2,0.942-0.301,1.48-0.301c0.852,0,1.52,0.213,2.003,0.639c0.483,0.426,0.734,1.013,0.752,1.76v3.404
		c0,0.679,0.087,1.219,0.26,1.62v0.109h-1.326c-0.073-0.146-0.132-0.406-0.178-0.779C288.29,37.118,287.588,37.423,286.772,37.423
		 M287.866,33.697c-1.55,0-2.324,0.454-2.324,1.36c0,0.396,0.132,0.706,0.396,0.93c0.264,0.223,0.604,0.335,1.019,0.335
		c0.396,0,0.772-0.103,1.128-0.308c0.355-0.205,0.613-0.472,0.772-0.8v-1.518H287.866 M275.934,37.423
		c-1.003,0-1.815-0.349-2.437-1.046c-0.622-0.697-0.933-1.62-0.933-2.769V33.52c0-0.725,0.142-1.376,0.427-1.955
		c0.285-0.579,0.681-1.025,1.189-1.34c0.508-0.314,1.088-0.472,1.74-0.472c1.007,0,1.822,0.349,2.444,1.046
		c0.622,0.697,0.933,1.625,0.933,2.782v0.089c0,0.72-0.138,1.366-0.413,1.938c-0.276,0.572-0.67,1.017-1.183,1.336
		C277.188,37.263,276.599,37.423,275.934,37.423 M275.92,30.792c-0.624,0-1.128,0.248-1.511,0.745
		c-0.383,0.497-0.574,1.208-0.574,2.133c0,0.82,0.19,1.479,0.571,1.976c0.38,0.497,0.89,0.745,1.528,0.745
		c0.643,0,1.153-0.252,1.531-0.755c0.378-0.504,0.567-1.209,0.567-2.116c0-0.811-0.193-1.469-0.578-1.972
		C277.07,31.044,276.558,30.792,275.92,30.792 M270.689,37.423c-0.565,0-0.991-0.171-1.278-0.513
		c-0.287-0.342-0.431-0.827-0.431-1.456v-4.587h-1.347V29.89h1.347v-1.791h1.265v1.791h1.381v0.978h-1.381v4.593
		c0,0.297,0.061,0.519,0.185,0.667c0.123,0.148,0.333,0.222,0.629,0.222c0.146,0,0.346-0.027,0.602-0.082v1.019
		C271.327,37.378,271.003,37.423,270.689,37.423 M260.575,37.423c-1.003,0-1.818-0.329-2.447-0.988
		c-0.629-0.659-0.943-1.539-0.943-2.642v-0.232c0-0.734,0.14-1.389,0.42-1.965c0.28-0.577,0.672-1.028,1.176-1.354
		c0.504-0.326,1.049-0.489,1.637-0.489c0.962,0,1.709,0.317,2.242,0.95s0.8,1.54,0.8,2.721v0.526h-5.011
		c0.018,0.729,0.231,1.318,0.639,1.767c0.408,0.449,0.926,0.673,1.555,0.673c0.447,0,0.825-0.091,1.135-0.273
		c0.31-0.182,0.581-0.424,0.814-0.725l0.772,0.602C262.744,36.947,261.815,37.423,260.575,37.423 M260.418,30.792
		c-0.51,0-0.939,0.186-1.285,0.557c-0.346,0.372-0.561,0.892-0.643,1.562h3.705v-0.096c-0.037-0.643-0.21-1.14-0.52-1.494
		C261.366,30.969,260.947,30.792,260.418,30.792 M249.574,37.423c-0.934,0-1.657-0.33-2.167-0.991l-0.062,0.855h-1.162v-10.5h1.265
		v3.917c0.51-0.634,1.214-0.95,2.112-0.95c0.898,0,1.603,0.34,2.116,1.019c0.513,0.679,0.769,1.609,0.769,2.789v0.109
		c0,1.13-0.26,2.038-0.779,2.724C251.147,37.08,250.45,37.423,249.574,37.423 M249.246,30.826c-0.834,0-1.433,0.387-1.798,1.162
		v3.199c0.387,0.775,0.991,1.162,1.812,1.162c0.606,0,1.078-0.235,1.415-0.704c0.337-0.469,0.506-1.176,0.506-2.119
		c0-0.861-0.167-1.527-0.499-1.996C250.349,31.061,249.871,30.826,249.246,30.826 M240.828,37.423c-0.729,0-1.327-0.206-1.794-0.619
		c-0.467-0.412-0.701-0.935-0.701-1.569c0-0.77,0.293-1.368,0.878-1.795c0.585-0.426,1.409-0.639,2.471-0.639h1.23v-0.581
		c0-0.442-0.132-0.794-0.396-1.056c-0.264-0.262-0.654-0.393-1.169-0.393c-0.451,0-0.83,0.114-1.135,0.342
		c-0.305,0.228-0.458,0.504-0.458,0.827h-1.271c0-0.369,0.131-0.726,0.393-1.07c0.262-0.344,0.617-0.616,1.066-0.817
		c0.449-0.2,0.942-0.301,1.48-0.301c0.852,0,1.52,0.213,2.003,0.639c0.483,0.426,0.734,1.013,0.752,1.76v3.404
		c0,0.679,0.087,1.219,0.26,1.62v0.109h-1.326c-0.073-0.146-0.132-0.406-0.178-0.779C242.346,37.118,241.644,37.423,240.828,37.423
		 M241.922,33.697c-1.55,0-2.324,0.454-2.324,1.36c0,0.396,0.132,0.706,0.396,0.93c0.264,0.223,0.604,0.335,1.019,0.335
		c0.396,0,0.772-0.103,1.128-0.308c0.355-0.205,0.613-0.472,0.772-0.8v-1.518H241.922 M230.591,37.423
		c-1.003,0-1.818-0.329-2.447-0.988c-0.629-0.659-0.943-1.539-0.943-2.642v-0.232c0-0.734,0.14-1.389,0.42-1.965
		c0.28-0.577,0.672-1.028,1.176-1.354c0.504-0.326,1.049-0.489,1.637-0.489c0.962,0,1.709,0.317,2.242,0.95
		c0.533,0.634,0.8,1.54,0.8,2.721v0.526h-5.011c0.018,0.729,0.231,1.318,0.639,1.767c0.408,0.449,0.926,0.673,1.555,0.673
		c0.447,0,0.825-0.091,1.135-0.273c0.31-0.182,0.581-0.424,0.813-0.725l0.772,0.602C232.761,36.947,231.831,37.423,230.591,37.423
		 M230.434,30.792c-0.511,0-0.939,0.186-1.285,0.557c-0.346,0.372-0.561,0.892-0.643,1.562h3.705v-0.096
		c-0.037-0.643-0.21-1.14-0.519-1.494C231.382,30.969,230.963,30.792,230.434,30.792 M222.98,37.423
		c-0.934,0-1.657-0.33-2.167-0.991l-0.062,0.855h-1.162v-10.5h1.265v3.917c0.51-0.634,1.215-0.95,2.112-0.95
		c0.898,0,1.603,0.34,2.116,1.019c0.513,0.679,0.769,1.609,0.769,2.789v0.109c0,1.13-0.26,2.038-0.779,2.724
		C224.552,37.08,223.855,37.423,222.98,37.423 M222.652,30.826c-0.834,0-1.433,0.387-1.798,1.162v3.199
		c0.387,0.775,0.991,1.162,1.811,1.162c0.606,0,1.078-0.235,1.415-0.704c0.337-0.469,0.506-1.176,0.506-2.119
		c0-0.861-0.166-1.527-0.499-1.996C223.755,31.061,223.276,30.826,222.652,30.826 M206.765,37.423c-1.003,0-1.818-0.329-2.447-0.988
		c-0.629-0.659-0.943-1.539-0.943-2.642v-0.232c0-0.734,0.14-1.389,0.421-1.965c0.28-0.577,0.672-1.028,1.176-1.354
		c0.504-0.326,1.049-0.489,1.637-0.489c0.962,0,1.709,0.317,2.242,0.95c0.533,0.634,0.8,1.54,0.8,2.721v0.526h-5.011
		c0.018,0.729,0.231,1.318,0.639,1.767c0.408,0.449,0.926,0.673,1.555,0.673c0.447,0,0.825-0.091,1.135-0.273
		c0.31-0.182,0.581-0.424,0.814-0.725l0.772,0.602C208.935,36.947,208.005,37.423,206.765,37.423 M206.608,30.792
		c-0.51,0-0.939,0.186-1.285,0.557c-0.346,0.372-0.56,0.892-0.643,1.562h3.705v-0.096c-0.037-0.643-0.21-1.14-0.52-1.494
		C207.556,30.969,207.137,30.792,206.608,30.792 M193.559,37.423c-0.565,0-0.991-0.171-1.278-0.513
		c-0.287-0.342-0.431-0.827-0.431-1.456v-4.587h-1.347V29.89h1.347v-1.791h1.265v1.791h1.381v0.978h-1.381v4.593
		c0,0.297,0.062,0.519,0.185,0.667c0.123,0.148,0.333,0.222,0.629,0.222c0.146,0,0.346-0.027,0.602-0.082v1.019
		C194.197,37.378,193.874,37.423,193.559,37.423 M183.471,37.423c-1.003,0-1.818-0.329-2.447-0.988
		c-0.629-0.659-0.943-1.539-0.943-2.642v-0.232c0-0.734,0.14-1.389,0.421-1.965c0.28-0.577,0.672-1.028,1.176-1.354
		c0.504-0.326,1.049-0.489,1.637-0.489c0.962,0,1.709,0.317,2.242,0.95c0.533,0.634,0.8,1.54,0.8,2.721v0.526h-5.011
		c0.018,0.729,0.231,1.318,0.639,1.767c0.408,0.449,0.926,0.673,1.555,0.673c0.447,0,0.825-0.091,1.135-0.273
		c0.31-0.182,0.581-0.424,0.814-0.725l0.772,0.602C185.64,36.947,184.71,37.423,183.471,37.423 M183.314,30.792
		c-0.51,0-0.939,0.186-1.285,0.557c-0.346,0.372-0.561,0.892-0.643,1.562h3.705v-0.096c-0.037-0.643-0.21-1.14-0.52-1.494
		C184.261,30.969,183.842,30.792,183.314,30.792 M141.641,37.423c-1.003,0-1.818-0.329-2.447-0.988
		c-0.629-0.659-0.943-1.539-0.943-2.642v-0.232c0-0.734,0.14-1.389,0.42-1.965c0.28-0.577,0.672-1.028,1.176-1.354
		c0.504-0.326,1.049-0.489,1.637-0.489c0.962,0,1.709,0.317,2.242,0.95c0.533,0.634,0.8,1.54,0.8,2.721v0.526h-5.011
		c0.018,0.729,0.231,1.318,0.639,1.767c0.408,0.449,0.926,0.673,1.555,0.673c0.447,0,0.825-0.091,1.135-0.273
		c0.31-0.182,0.581-0.424,0.813-0.725l0.773,0.602C143.81,36.947,142.881,37.423,141.641,37.423 M141.484,30.792
		c-0.51,0-0.939,0.186-1.285,0.557c-0.346,0.372-0.561,0.892-0.643,1.562h3.705v-0.096c-0.037-0.643-0.21-1.14-0.52-1.494
		C142.432,30.969,142.012,30.792,141.484,30.792 M110.715,37.423c-1.003,0-1.818-0.329-2.447-0.988
		c-0.629-0.659-0.943-1.539-0.943-2.642v-0.232c0-0.734,0.14-1.389,0.421-1.965c0.28-0.577,0.672-1.028,1.176-1.354
		c0.504-0.326,1.049-0.489,1.637-0.489c0.962,0,1.709,0.317,2.242,0.95c0.533,0.634,0.8,1.54,0.8,2.721v0.526h-5.011
		c0.018,0.729,0.231,1.318,0.639,1.767c0.408,0.449,0.926,0.673,1.555,0.673c0.447,0,0.825-0.091,1.135-0.273
		c0.31-0.182,0.581-0.424,0.814-0.725l0.772,0.602C112.884,36.947,111.955,37.423,110.715,37.423 M110.558,30.792
		c-0.51,0-0.939,0.186-1.285,0.557c-0.346,0.372-0.56,0.892-0.643,1.562h3.705v-0.096c-0.037-0.643-0.21-1.14-0.52-1.494
		C111.506,30.969,111.087,30.792,110.558,30.792 M76.196,37.423c-0.789,0-1.389-0.229-1.801-0.687
		c-0.413-0.458-0.621-1.136-0.625-2.034V29.89h1.265v4.778c0,1.121,0.456,1.682,1.367,1.682c0.966,0,1.609-0.36,1.928-1.08v-5.38
		h1.265v7.397h-1.203l-0.027-0.731C77.871,37.133,77.149,37.423,76.196,37.423 M64.442,37.423c-0.971,0-1.75-0.257-2.338-0.772
		c-0.588-0.515-0.882-1.194-0.882-2.037c0-0.478,0.133-0.918,0.4-1.319c0.267-0.401,0.776-0.868,1.528-1.401
		c-0.442-0.538-0.738-0.971-0.889-1.299c-0.15-0.328-0.226-0.654-0.226-0.978c0-0.756,0.223-1.349,0.67-1.777
		c0.447-0.428,1.053-0.643,1.818-0.643c0.684,0,1.249,0.199,1.695,0.598c0.447,0.399,0.67,0.901,0.67,1.507
		c0,0.401-0.102,0.771-0.304,1.111c-0.203,0.34-0.557,0.696-1.063,1.07l-0.731,0.54l2.215,2.646c0.31-0.592,0.465-1.251,0.465-1.976
		h1.142c0,1.162-0.28,2.126-0.841,2.892l1.422,1.702h-1.518L67.012,36.5c-0.337,0.301-0.733,0.53-1.186,0.687
		C65.373,37.344,64.911,37.423,64.442,37.423 M63.854,32.72l-0.226,0.164c-0.761,0.56-1.142,1.137-1.142,1.729
		c0,0.538,0.174,0.968,0.523,1.292c0.349,0.324,0.826,0.485,1.432,0.485c0.67,0,1.283-0.255,1.839-0.766L63.854,32.72
		 M64.517,28.235c-0.374,0-0.67,0.127-0.889,0.379c-0.219,0.253-0.328,0.573-0.328,0.961c0,0.437,0.269,0.984,0.807,1.641
		l0.807-0.567c0.31-0.219,0.522-0.427,0.636-0.625c0.114-0.198,0.171-0.439,0.171-0.721c0-0.305-0.114-0.559-0.342-0.762
		C65.151,28.337,64.864,28.235,64.517,28.235 M53.385,37.423c-0.593,0-1.117-0.105-1.572-0.314c-0.456-0.21-0.812-0.502-1.07-0.878
		c-0.257-0.376-0.386-0.783-0.386-1.22h1.265c0.023,0.424,0.193,0.76,0.509,1.008c0.317,0.248,0.735,0.373,1.254,0.373
		c0.478,0,0.862-0.097,1.152-0.291c0.289-0.194,0.434-0.452,0.434-0.776c0-0.342-0.129-0.607-0.386-0.796
		c-0.258-0.189-0.706-0.352-1.347-0.489c-0.64-0.137-1.149-0.301-1.524-0.492s-0.654-0.419-0.834-0.684
		c-0.18-0.264-0.27-0.579-0.27-0.943c0-0.606,0.256-1.119,0.769-1.538c0.513-0.419,1.168-0.629,1.965-0.629
		c0.838,0,1.519,0.216,2.04,0.649c0.522,0.433,0.783,0.987,0.783,1.661h-1.271c0-0.346-0.147-0.645-0.441-0.896
		c-0.294-0.251-0.664-0.376-1.111-0.376c-0.46,0-0.82,0.1-1.08,0.301c-0.26,0.201-0.39,0.463-0.39,0.786
		c0,0.305,0.121,0.536,0.362,0.69c0.242,0.155,0.678,0.303,1.309,0.444c0.631,0.141,1.143,0.31,1.535,0.506
		c0.392,0.196,0.682,0.432,0.872,0.708c0.189,0.276,0.284,0.612,0.284,1.008c0,0.661-0.264,1.191-0.793,1.589
		C54.914,37.224,54.228,37.423,53.385,37.423 M46.311,37.423c-1.003,0-1.818-0.329-2.447-0.988
		c-0.629-0.659-0.943-1.539-0.943-2.642v-0.232c0-0.734,0.14-1.389,0.42-1.965c0.28-0.577,0.672-1.028,1.176-1.354
		c0.504-0.326,1.049-0.489,1.637-0.489c0.962,0,1.709,0.317,2.242,0.95c0.533,0.634,0.8,1.54,0.8,2.721v0.526h-5.011
		c0.018,0.729,0.231,1.318,0.639,1.767c0.408,0.449,0.926,0.673,1.555,0.673c0.447,0,0.825-0.091,1.135-0.273
		c0.31-0.182,0.581-0.424,0.813-0.725l0.772,0.602C48.48,36.947,47.551,37.423,46.311,37.423 M46.154,30.792
		c-0.511,0-0.939,0.186-1.285,0.557c-0.346,0.372-0.561,0.892-0.643,1.562h3.705v-0.096c-0.037-0.643-0.21-1.14-0.519-1.494
		C47.102,30.969,46.682,30.792,46.154,30.792 M34.566,37.423c-0.857,0-1.555-0.351-2.095-1.053c-0.54-0.702-0.81-1.618-0.81-2.748
		v-0.096c0-1.135,0.269-2.047,0.807-2.738c0.538-0.69,1.242-1.036,2.112-1.036c0.866,0,1.552,0.296,2.058,0.889v-3.856h1.265v10.5
		H36.74l-0.062-0.793C36.173,37.113,35.468,37.423,34.566,37.423 M34.894,30.826c-0.62,0-1.103,0.239-1.449,0.718
		c-0.346,0.478-0.519,1.187-0.519,2.126c0,0.839,0.173,1.495,0.519,1.969c0.346,0.474,0.825,0.711,1.436,0.711
		c0.802,0,1.388-0.36,1.757-1.08v-3.397C36.259,31.175,35.678,30.826,34.894,30.826 M26.591,37.423
		c-0.788,0-1.389-0.229-1.801-0.687c-0.412-0.458-0.621-1.136-0.625-2.034V29.89h1.265v4.778c0,1.121,0.456,1.682,1.367,1.682
		c0.966,0,1.609-0.36,1.928-1.08v-5.38h1.265v7.397h-1.203l-0.027-0.731C28.266,37.133,27.544,37.423,26.591,37.423 M21.821,37.423
		c-0.565,0-0.991-0.171-1.278-0.513c-0.287-0.342-0.431-0.827-0.431-1.456v-4.587h-1.347V29.89h1.347v-1.791h1.265v1.791h1.381
		v0.978h-1.381v4.593c0,0.297,0.062,0.519,0.185,0.667c0.123,0.148,0.333,0.222,0.629,0.222c0.146,0,0.346-0.027,0.602-0.082v1.019
		C22.459,37.378,22.135,37.423,21.821,37.423 M14.993,37.423c-0.593,0-1.117-0.105-1.572-0.314c-0.456-0.21-0.812-0.502-1.07-0.878
		c-0.258-0.376-0.386-0.783-0.386-1.22h1.265c0.023,0.424,0.192,0.76,0.509,1.008c0.317,0.248,0.735,0.373,1.254,0.373
		c0.478,0,0.862-0.097,1.152-0.291c0.289-0.194,0.434-0.452,0.434-0.776c0-0.342-0.129-0.607-0.386-0.796
		c-0.258-0.189-0.707-0.352-1.347-0.489c-0.64-0.137-1.149-0.301-1.524-0.492c-0.376-0.191-0.654-0.419-0.834-0.684
		c-0.18-0.264-0.27-0.579-0.27-0.943c0-0.606,0.256-1.119,0.769-1.538c0.513-0.419,1.168-0.629,1.965-0.629
		c0.838,0,1.519,0.216,2.041,0.649c0.522,0.433,0.783,0.987,0.783,1.661h-1.271c0-0.346-0.147-0.645-0.441-0.896
		c-0.294-0.251-0.664-0.376-1.111-0.376c-0.46,0-0.82,0.1-1.08,0.301c-0.26,0.201-0.39,0.463-0.39,0.786
		c0,0.305,0.121,0.536,0.362,0.69c0.241,0.155,0.678,0.303,1.309,0.444c0.631,0.141,1.143,0.31,1.535,0.506
		c0.392,0.196,0.682,0.432,0.872,0.708c0.189,0.276,0.284,0.612,0.284,1.008c0,0.661-0.264,1.191-0.793,1.589
		C16.522,37.224,15.836,37.423,14.993,37.423 M115.833,37.361c-0.26,0-0.455-0.071-0.584-0.212c-0.13-0.141-0.195-0.317-0.195-0.526
		c0-0.219,0.065-0.401,0.195-0.547c0.13-0.146,0.325-0.219,0.584-0.219c0.26,0,0.457,0.073,0.591,0.219
		c0.134,0.146,0.202,0.328,0.202,0.547c0,0.21-0.067,0.385-0.202,0.526C116.29,37.291,116.093,37.361,115.833,37.361
		 M470.166,37.286h-1.265v-4.895c-0.005-0.533-0.127-0.927-0.366-1.183c-0.239-0.255-0.612-0.383-1.118-0.383
		c-0.41,0-0.77,0.109-1.08,0.328c-0.31,0.219-0.552,0.506-0.725,0.861v5.271h-1.265V29.89h1.196l0.041,0.93
		c0.565-0.711,1.303-1.066,2.215-1.066c1.563,0,2.352,0.882,2.365,2.645V37.286 M462.382,37.286h-1.265v-4.895
		c-0.005-0.533-0.126-0.927-0.366-1.183c-0.239-0.255-0.612-0.383-1.118-0.383c-0.41,0-0.77,0.109-1.08,0.328
		c-0.31,0.219-0.551,0.506-0.725,0.861v5.271h-1.265V29.89h1.196l0.041,0.93c0.565-0.711,1.303-1.066,2.215-1.066
		c1.563,0,2.352,0.882,2.365,2.645V37.286 M435.465,37.286H434.2v-10.5h1.265V37.286 M432.116,37.286h-1.265v-10.5h1.265V37.286
		 M428.753,37.286h-1.265V29.89h1.265V37.286 M423.951,37.286h-1.025l-1.798-5.605l-1.75,5.605h-1.025l-2.147-7.397h1.258
		l1.456,5.537l1.723-5.537h1.018l1.757,5.653l1.422-5.653h1.265L423.951,37.286 M409.791,37.286h-1.265V29.89h1.23l0.021,0.855
		c0.414-0.661,1.002-0.991,1.764-0.991c0.246,0,0.433,0.032,0.561,0.096v1.176c-0.191-0.032-0.399-0.048-0.622-0.048
		c-0.83,0-1.392,0.353-1.688,1.059V37.286 M388.16,37.286h-1.265v-10.5h1.265V37.286 M363.748,37.286h-1.265V29.89h1.23l0.021,0.855
		c0.415-0.661,1.002-0.991,1.764-0.991c0.246,0,0.433,0.032,0.561,0.096v1.176c-0.191-0.032-0.399-0.048-0.622-0.048
		c-0.829,0-1.392,0.353-1.688,1.059V37.286 M360.443,37.286h-1.265V29.89h1.265V37.286 M307.814,37.286h-1.265V29.89h1.265V37.286
		 M255.456,37.286h-1.265v-10.5h1.265V37.286 M212.511,37.286h-1.265V29.89h1.23l0.02,0.855c0.415-0.661,1.003-0.991,1.764-0.991
		c0.246,0,0.433,0.032,0.561,0.096v1.176c-0.191-0.032-0.399-0.048-0.622-0.048c-0.83,0-1.392,0.353-1.689,1.059V37.286
		 M201.748,37.286h-1.265v-4.895c-0.005-0.533-0.127-0.927-0.366-1.183c-0.239-0.255-0.612-0.383-1.118-0.383
		c-0.41,0-0.77,0.109-1.08,0.328c-0.31,0.219-0.552,0.506-0.725,0.861v5.271h-1.265v-10.5h1.265v3.999
		c0.561-0.688,1.29-1.032,2.188-1.032c1.563,0,2.352,0.882,2.365,2.645V37.286 M189.255,37.286h-1.265V29.89h1.265V37.286
		 M174.772,37.286h-1.265v-10.5h1.265V37.286 M171.424,37.286h-1.265v-10.5h1.265V37.286 M168.06,37.286h-1.265V29.89h1.265V37.286
		 M163.259,37.286h-1.025l-1.798-5.605l-1.75,5.605h-1.025l-2.147-7.397h1.258l1.456,5.537l1.723-5.537h1.019l1.757,5.653
		l1.422-5.653h1.265L163.259,37.286 M136.624,37.286h-1.265v-4.895c-0.005-0.533-0.126-0.927-0.366-1.183
		c-0.239-0.255-0.612-0.383-1.118-0.383c-0.41,0-0.77,0.109-1.08,0.328c-0.31,0.219-0.552,0.506-0.725,0.861v5.271h-1.265v-10.5
		h1.265v3.999c0.561-0.688,1.29-1.032,2.188-1.032c1.563,0,2.352,0.882,2.365,2.645V37.286 M126.193,37.286h-1.306v-8.88h-3.192
		v-1.073h7.697v1.073h-3.199V37.286 M104.871,37.286h-1.265v-6.419h-1.169V29.89h1.169v-0.759c0-0.793,0.212-1.406,0.636-1.839
		c0.424-0.433,1.023-0.649,1.798-0.649c0.292,0,0.581,0.039,0.868,0.115l-0.068,1.019c-0.214-0.041-0.442-0.062-0.684-0.062
		c-0.41,0-0.727,0.12-0.95,0.36c-0.223,0.24-0.335,0.584-0.335,1.032v0.782h1.579v0.978h-1.579V37.286 M101.017,37.286h-1.265V29.89
		h1.265V37.286 M97.66,37.286h-1.265v-10.5h1.265V37.286 M90.657,37.286h-1.265V29.89h1.265V37.286 M87.395,37.286H86.13v-4.895
		c-0.005-0.533-0.126-0.927-0.366-1.183c-0.239-0.255-0.612-0.383-1.118-0.383c-0.41,0-0.77,0.109-1.08,0.328
		s-0.551,0.506-0.725,0.861v5.271h-1.265V29.89h1.196l0.041,0.93c0.565-0.711,1.303-1.066,2.215-1.066
		c1.563,0,2.352,0.882,2.365,2.645V37.286 M41.237,37.286h-1.265V29.89h1.265V37.286 M428.131,28.645
		c-0.246,0-0.432-0.068-0.557-0.205c-0.125-0.137-0.188-0.308-0.188-0.513c0-0.205,0.063-0.378,0.188-0.519
		c0.125-0.141,0.311-0.212,0.557-0.212c0.246,0,0.433,0.071,0.56,0.212c0.128,0.141,0.191,0.314,0.191,0.519
		c0,0.205-0.064,0.376-0.191,0.513C428.564,28.577,428.377,28.645,428.131,28.645 M359.821,28.645c-0.246,0-0.432-0.068-0.557-0.205
		c-0.126-0.137-0.188-0.308-0.188-0.513c0-0.205,0.062-0.378,0.188-0.519c0.125-0.141,0.311-0.212,0.557-0.212
		c0.246,0,0.433,0.071,0.56,0.212c0.128,0.141,0.191,0.314,0.191,0.519c0,0.205-0.064,0.376-0.191,0.513
		C360.254,28.577,360.068,28.645,359.821,28.645 M307.192,28.645c-0.246,0-0.432-0.068-0.557-0.205
		c-0.125-0.137-0.188-0.308-0.188-0.513c0-0.205,0.063-0.378,0.188-0.519c0.125-0.141,0.311-0.212,0.557-0.212
		s0.433,0.071,0.561,0.212c0.128,0.141,0.191,0.314,0.191,0.519c0,0.205-0.064,0.376-0.191,0.513
		C307.624,28.577,307.438,28.645,307.192,28.645 M188.633,28.645c-0.246,0-0.432-0.068-0.557-0.205
		c-0.125-0.137-0.188-0.308-0.188-0.513c0-0.205,0.063-0.378,0.188-0.519c0.125-0.141,0.311-0.212,0.557-0.212
		c0.246,0,0.433,0.071,0.561,0.212c0.128,0.141,0.191,0.314,0.191,0.519c0,0.205-0.064,0.376-0.191,0.513
		C189.066,28.577,188.879,28.645,188.633,28.645 M167.438,28.645c-0.246,0-0.432-0.068-0.557-0.205
		c-0.125-0.137-0.188-0.308-0.188-0.513c0-0.205,0.063-0.378,0.188-0.519c0.125-0.141,0.311-0.212,0.557-0.212
		c0.246,0,0.433,0.071,0.561,0.212c0.127,0.141,0.191,0.314,0.191,0.519c0,0.205-0.064,0.376-0.191,0.513
		C167.871,28.577,167.684,28.645,167.438,28.645 M100.395,28.645c-0.246,0-0.432-0.068-0.557-0.205
		c-0.125-0.137-0.188-0.308-0.188-0.513c0-0.205,0.063-0.378,0.188-0.519c0.125-0.141,0.311-0.212,0.557-0.212
		s0.433,0.071,0.56,0.212c0.128,0.141,0.191,0.314,0.191,0.519c0,0.205-0.064,0.376-0.191,0.513
		C100.828,28.577,100.641,28.645,100.395,28.645 M90.035,28.645c-0.246,0-0.432-0.068-0.557-0.205
		c-0.125-0.137-0.188-0.308-0.188-0.513c0-0.205,0.063-0.378,0.188-0.519c0.125-0.141,0.311-0.212,0.557-0.212
		c0.246,0,0.433,0.071,0.56,0.212c0.128,0.141,0.191,0.314,0.191,0.519c0,0.205-0.064,0.376-0.191,0.513
		C90.468,28.577,90.281,28.645,90.035,28.645 M40.614,28.645c-0.246,0-0.432-0.068-0.557-0.205
		c-0.125-0.137-0.188-0.308-0.188-0.513c0-0.205,0.063-0.378,0.188-0.519c0.125-0.141,0.311-0.212,0.557-0.212
		s0.433,0.071,0.561,0.212c0.128,0.141,0.191,0.314,0.191,0.519c0,0.205-0.064,0.376-0.191,0.513
		C41.047,28.577,40.861,28.645,40.614,28.645"/>
	<path fill="#000000" d="M289.481,60.273l-0.239-0.02l-0.472-0.089v-1.025l0.342,0.027c0.428,0,0.762-0.087,1.002-0.26
		c0.239-0.173,0.436-0.49,0.591-0.95l0.28-0.752l-2.639-7.314h1.381l1.846,5.544l1.723-5.544h1.354l-2.974,8.538
		C291.215,59.658,290.484,60.273,289.481,60.273 M12.601,60.273l-0.239-0.02l-0.472-0.089v-1.025l0.342,0.027
		c0.428,0,0.762-0.087,1.002-0.26c0.239-0.173,0.436-0.49,0.591-0.95l0.28-0.752l-2.639-7.314h1.381l1.846,5.544l1.723-5.544h1.354
		l-2.974,8.538C14.335,59.658,13.603,60.273,12.601,60.273 M102.281,60.198c-0.533,0-1.055-0.114-1.565-0.342
		c-0.51-0.228-0.9-0.54-1.169-0.937l0.656-0.759c0.542,0.67,1.205,1.005,1.989,1.005c0.615,0,1.095-0.173,1.439-0.52
		c0.344-0.346,0.516-0.834,0.516-1.463v-0.636c-0.506,0.583-1.196,0.875-2.071,0.875c-0.866,0-1.567-0.349-2.102-1.046
		c-0.536-0.697-0.803-1.647-0.803-2.851c0-1.153,0.267-2.07,0.8-2.751c0.533-0.681,1.24-1.022,2.119-1.022
		c0.902,0,1.607,0.319,2.112,0.957l0.062-0.82h1.155v7.219c0,0.957-0.284,1.711-0.851,2.263
		C104,59.923,103.238,60.198,102.281,60.198 M102.404,50.826c-0.615,0-1.096,0.239-1.442,0.718
		c-0.346,0.478-0.519,1.187-0.519,2.126c0,0.834,0.171,1.489,0.513,1.965c0.342,0.476,0.82,0.714,1.436,0.714
		c0.797,0,1.383-0.362,1.757-1.087v-3.377C103.759,51.179,103.178,50.826,102.404,50.826 M191.349,60.13h-1.265V49.89h1.155
		l0.062,0.82c0.515-0.638,1.23-0.957,2.146-0.957c0.889,0,1.592,0.335,2.109,1.005c0.517,0.67,0.776,1.602,0.776,2.796v0.116
		c0,1.126-0.258,2.033-0.772,2.721c-0.515,0.688-1.212,1.032-2.092,1.032c-0.898,0-1.604-0.285-2.119-0.855V60.13 M193.072,50.826
		c-0.766,0-1.34,0.34-1.723,1.019v3.534c0.378,0.674,0.957,1.012,1.736,1.012c0.606,0,1.088-0.24,1.446-0.721
		c0.358-0.481,0.537-1.195,0.537-2.143c0-0.834-0.178-1.492-0.533-1.976C194.18,51.068,193.692,50.826,193.072,50.826
		 M183.415,60.13h-1.265V49.89h1.155l0.062,0.82c0.515-0.638,1.23-0.957,2.146-0.957c0.889,0,1.592,0.335,2.109,1.005
		c0.517,0.67,0.776,1.602,0.776,2.796v0.116c0,1.126-0.258,2.033-0.772,2.721c-0.515,0.688-1.212,1.032-2.092,1.032
		c-0.898,0-1.604-0.285-2.119-0.855V60.13 M185.138,50.826c-0.766,0-1.34,0.34-1.723,1.019v3.534
		c0.378,0.674,0.957,1.012,1.736,1.012c0.606,0,1.088-0.24,1.446-0.721c0.358-0.481,0.537-1.195,0.537-2.143
		c0-0.834-0.178-1.492-0.533-1.976C186.245,51.068,185.758,50.826,185.138,50.826 M306.053,57.423c-0.789,0-1.389-0.229-1.801-0.687
		c-0.412-0.458-0.621-1.136-0.625-2.034V49.89h1.265v4.778c0,1.121,0.456,1.682,1.367,1.682c0.966,0,1.609-0.36,1.928-1.08v-5.38
		h1.265v7.396h-1.203l-0.027-0.731C307.728,57.133,307.005,57.423,306.053,57.423 M298.662,57.423c-1.003,0-1.815-0.349-2.437-1.046
		c-0.622-0.697-0.933-1.62-0.933-2.768V53.52c0-0.725,0.143-1.376,0.427-1.955c0.285-0.579,0.681-1.025,1.189-1.34
		c0.508-0.315,1.088-0.472,1.74-0.472c1.007,0,1.822,0.349,2.444,1.046c0.622,0.697,0.933,1.625,0.933,2.782v0.089
		c0,0.72-0.138,1.366-0.413,1.938c-0.276,0.572-0.67,1.017-1.183,1.336C299.917,57.263,299.328,57.423,298.662,57.423
		 M298.649,50.792c-0.624,0-1.128,0.248-1.511,0.745c-0.383,0.497-0.574,1.208-0.574,2.133c0,0.82,0.19,1.479,0.571,1.976
		c0.38,0.497,0.89,0.745,1.528,0.745c0.643,0,1.153-0.252,1.531-0.755c0.378-0.504,0.567-1.209,0.567-2.116
		c0-0.811-0.193-1.469-0.578-1.972C299.798,51.044,299.287,50.792,298.649,50.792 M275.81,57.423c-1.003,0-1.815-0.349-2.437-1.046
		c-0.622-0.697-0.933-1.62-0.933-2.768V53.52c0-0.725,0.142-1.376,0.427-1.955c0.285-0.579,0.681-1.025,1.189-1.34
		c0.508-0.315,1.088-0.472,1.74-0.472c1.007,0,1.822,0.349,2.444,1.046c0.622,0.697,0.933,1.625,0.933,2.782v0.089
		c0,0.72-0.138,1.366-0.414,1.938c-0.276,0.572-0.67,1.017-1.183,1.336C277.065,57.263,276.475,57.423,275.81,57.423
		 M275.796,50.792c-0.624,0-1.128,0.248-1.511,0.745c-0.383,0.497-0.574,1.208-0.574,2.133c0,0.82,0.19,1.479,0.571,1.976
		c0.38,0.497,0.89,0.745,1.528,0.745c0.643,0,1.153-0.252,1.531-0.755c0.378-0.504,0.567-1.209,0.567-2.116
		c0-0.811-0.193-1.469-0.578-1.972C276.946,51.044,276.435,50.792,275.796,50.792 M260.146,57.423c-1.003,0-1.818-0.329-2.447-0.988
		c-0.629-0.658-0.943-1.539-0.943-2.642v-0.232c0-0.734,0.14-1.389,0.42-1.965c0.28-0.576,0.672-1.028,1.176-1.353
		c0.503-0.326,1.049-0.489,1.637-0.489c0.961,0,1.709,0.317,2.242,0.95c0.533,0.633,0.8,1.54,0.8,2.721v0.526h-5.011
		c0.018,0.729,0.231,1.318,0.639,1.767c0.408,0.449,0.926,0.673,1.555,0.673c0.447,0,0.825-0.091,1.135-0.273
		c0.31-0.182,0.581-0.424,0.813-0.725l0.772,0.602C262.315,56.947,261.385,57.423,260.146,57.423 M259.989,50.792
		c-0.511,0-0.939,0.186-1.285,0.557c-0.346,0.371-0.56,0.892-0.643,1.562h3.705v-0.096c-0.036-0.643-0.21-1.14-0.519-1.494
		C260.937,50.969,260.517,50.792,259.989,50.792 M252.614,57.423c-1.007,0-1.808-0.336-2.403-1.008
		c-0.595-0.672-0.892-1.592-0.892-2.758v-0.212c0-0.72,0.132-1.36,0.396-1.921c0.264-0.561,0.644-0.996,1.138-1.306
		c0.494-0.31,1.079-0.465,1.753-0.465c0.829,0,1.519,0.248,2.068,0.745c0.549,0.497,0.842,1.142,0.878,1.935h-1.196
		c-0.037-0.478-0.218-0.872-0.543-1.179c-0.326-0.308-0.728-0.461-1.206-0.461c-0.643,0-1.141,0.231-1.494,0.694
		c-0.353,0.463-0.53,1.131-0.53,2.006v0.239c0,0.852,0.175,1.508,0.526,1.969c0.351,0.46,0.852,0.69,1.504,0.69
		c0.451,0,0.845-0.137,1.183-0.41c0.337-0.274,0.524-0.615,0.561-1.025h1.196c-0.023,0.424-0.169,0.827-0.437,1.21
		c-0.269,0.383-0.628,0.688-1.077,0.916C253.591,57.309,253.116,57.423,252.614,57.423 M229.779,57.423
		c-1.003,0-1.818-0.329-2.447-0.988c-0.629-0.658-0.943-1.539-0.943-2.642v-0.232c0-0.734,0.14-1.389,0.42-1.965
		c0.28-0.576,0.672-1.028,1.176-1.353c0.504-0.326,1.049-0.489,1.637-0.489c0.962,0,1.709,0.317,2.242,0.95
		c0.533,0.633,0.8,1.54,0.8,2.721v0.526h-5.011c0.018,0.729,0.231,1.318,0.639,1.767c0.408,0.449,0.926,0.673,1.555,0.673
		c0.447,0,0.825-0.091,1.135-0.273c0.31-0.182,0.581-0.424,0.814-0.725l0.772,0.602C231.948,56.947,231.019,57.423,229.779,57.423
		 M229.622,50.792c-0.51,0-0.939,0.186-1.285,0.557c-0.346,0.371-0.561,0.892-0.643,1.562h3.705v-0.096
		c-0.037-0.643-0.21-1.14-0.52-1.494C230.57,50.969,230.151,50.792,229.622,50.792 M222.24,57.423c-0.592,0-1.117-0.105-1.572-0.315
		c-0.456-0.21-0.812-0.502-1.07-0.878c-0.257-0.376-0.386-0.783-0.386-1.22h1.265c0.023,0.424,0.193,0.76,0.509,1.008
		c0.317,0.248,0.735,0.372,1.254,0.372c0.478,0,0.862-0.097,1.152-0.291c0.289-0.194,0.434-0.452,0.434-0.776
		c0-0.342-0.129-0.607-0.386-0.796c-0.258-0.189-0.706-0.352-1.347-0.489c-0.64-0.137-1.148-0.301-1.524-0.492
		c-0.376-0.191-0.654-0.419-0.834-0.684c-0.18-0.264-0.27-0.579-0.27-0.943c0-0.606,0.256-1.119,0.769-1.538
		c0.513-0.419,1.168-0.629,1.965-0.629c0.838,0,1.519,0.217,2.04,0.649c0.522,0.433,0.783,0.987,0.783,1.661h-1.271
		c0-0.346-0.147-0.645-0.441-0.896c-0.294-0.251-0.664-0.376-1.111-0.376c-0.46,0-0.82,0.1-1.08,0.301
		c-0.26,0.2-0.39,0.463-0.39,0.786c0,0.305,0.121,0.536,0.362,0.69c0.242,0.155,0.678,0.303,1.309,0.444
		c0.631,0.141,1.143,0.31,1.535,0.506c0.392,0.196,0.682,0.432,0.872,0.707c0.189,0.276,0.284,0.612,0.284,1.008
		c0,0.661-0.264,1.191-0.793,1.589C223.769,57.224,223.083,57.423,222.24,57.423 M213.5,57.423c-0.565,0-0.991-0.171-1.278-0.513
		c-0.287-0.342-0.431-0.827-0.431-1.456v-4.587h-1.347V49.89h1.347v-1.791h1.265v1.791h1.381v0.978h-1.381v4.593
		c0,0.297,0.061,0.519,0.185,0.667c0.123,0.148,0.333,0.222,0.629,0.222c0.146,0,0.346-0.027,0.602-0.082v1.019
		C214.138,57.378,213.815,57.423,213.5,57.423 M201.053,57.423c-1.003,0-1.815-0.349-2.437-1.046
		c-0.622-0.697-0.933-1.62-0.933-2.768V53.52c0-0.725,0.142-1.376,0.427-1.955c0.285-0.579,0.681-1.025,1.189-1.34
		c0.508-0.315,1.088-0.472,1.74-0.472c1.007,0,1.822,0.349,2.444,1.046c0.622,0.697,0.933,1.625,0.933,2.782v0.089
		c0,0.72-0.138,1.366-0.414,1.938c-0.276,0.572-0.67,1.017-1.183,1.336C202.307,57.263,201.718,57.423,201.053,57.423
		 M201.039,50.792c-0.624,0-1.128,0.248-1.511,0.745c-0.383,0.497-0.574,1.208-0.574,2.133c0,0.82,0.19,1.479,0.571,1.976
		c0.38,0.497,0.89,0.745,1.528,0.745c0.643,0,1.153-0.252,1.531-0.755c0.378-0.504,0.567-1.209,0.567-2.116
		c0-0.811-0.193-1.469-0.578-1.972C202.189,51.044,201.677,50.792,201.039,50.792 M176.769,57.423c-0.789,0-1.389-0.229-1.801-0.687
		s-0.621-1.136-0.625-2.034V49.89h1.265v4.778c0,1.121,0.456,1.682,1.367,1.682c0.966,0,1.609-0.36,1.928-1.08v-5.38h1.265v7.396
		h-1.203l-0.027-0.731C178.444,57.133,177.722,57.423,176.769,57.423 M169.861,57.423c-0.593,0-1.117-0.105-1.572-0.315
		c-0.456-0.21-0.812-0.502-1.07-0.878c-0.257-0.376-0.386-0.783-0.386-1.22h1.265c0.023,0.424,0.192,0.76,0.509,1.008
		c0.317,0.248,0.735,0.372,1.254,0.372c0.478,0,0.862-0.097,1.152-0.291c0.289-0.194,0.434-0.452,0.434-0.776
		c0-0.342-0.129-0.607-0.386-0.796c-0.258-0.189-0.707-0.352-1.347-0.489c-0.64-0.137-1.148-0.301-1.524-0.492
		c-0.376-0.191-0.654-0.419-0.834-0.684c-0.18-0.264-0.27-0.579-0.27-0.943c0-0.606,0.256-1.119,0.769-1.538
		c0.513-0.419,1.168-0.629,1.965-0.629c0.839,0,1.519,0.217,2.041,0.649c0.522,0.433,0.783,0.987,0.783,1.661h-1.271
		c0-0.346-0.147-0.645-0.441-0.896c-0.294-0.251-0.664-0.376-1.111-0.376c-0.46,0-0.82,0.1-1.08,0.301
		c-0.26,0.2-0.39,0.463-0.39,0.786c0,0.305,0.121,0.536,0.362,0.69c0.241,0.155,0.678,0.303,1.309,0.444
		c0.631,0.141,1.143,0.31,1.535,0.506c0.392,0.196,0.682,0.432,0.872,0.707c0.189,0.276,0.284,0.612,0.284,1.008
		c0,0.661-0.264,1.191-0.793,1.589C171.389,57.224,170.704,57.423,169.861,57.423 M146.046,57.423c-0.684,0-1.322-0.131-1.914-0.393
		c-0.592-0.262-1.049-0.621-1.371-1.077c-0.321-0.456-0.482-0.973-0.482-1.552h1.319c0,0.602,0.222,1.077,0.666,1.425
		c0.444,0.349,1.038,0.523,1.781,0.523c0.693,0,1.224-0.141,1.593-0.424c0.369-0.282,0.554-0.668,0.554-1.155
		c0-0.488-0.171-0.865-0.513-1.131c-0.342-0.267-0.962-0.53-1.859-0.79c-1.126-0.324-1.945-0.721-2.458-1.193
		c-0.513-0.472-0.769-1.054-0.769-1.747c0-0.784,0.313-1.432,0.94-1.945c0.627-0.513,1.441-0.769,2.444-0.769
		c0.684,0,1.293,0.132,1.829,0.396c0.535,0.264,0.95,0.629,1.244,1.094c0.294,0.465,0.441,0.973,0.441,1.524h-1.319
		c0-0.604-0.191-1.078-0.574-1.424c-0.383-0.345-0.923-0.518-1.62-0.518c-0.647,0-1.152,0.143-1.514,0.428
		c-0.362,0.285-0.543,0.681-0.543,1.188c0,0.406,0.172,0.75,0.516,1.031c0.344,0.281,0.93,0.537,1.757,0.77
		c0.827,0.233,1.474,0.489,1.941,0.77c0.467,0.28,0.813,0.607,1.039,0.981c0.226,0.374,0.338,0.814,0.338,1.319
		c0,0.807-0.314,1.453-0.943,1.938S147.099,57.423,146.046,57.423 M126.967,57.423c-1.089,0-1.957-0.294-2.604-0.882
		c-0.647-0.588-0.975-1.397-0.984-2.427v-6.781h1.299v6.74c0,0.72,0.198,1.28,0.595,1.678c0.396,0.399,0.961,0.598,1.695,0.598
		c0.743,0,1.311-0.198,1.706-0.595c0.394-0.396,0.591-0.955,0.591-1.675v-6.747h1.319v6.768c-0.005,0.939-0.3,1.707-0.885,2.304
		c-0.586,0.597-1.38,0.932-2.382,1.005L126.967,57.423 M117.359,57.423c-0.565,0-0.991-0.171-1.278-0.513
		c-0.287-0.342-0.431-0.827-0.431-1.456v-4.587h-1.347V49.89h1.347v-1.791h1.265v1.791h1.381v0.978h-1.381v4.593
		c0,0.297,0.062,0.519,0.185,0.667c0.123,0.148,0.333,0.222,0.629,0.222c0.146,0,0.346-0.027,0.602-0.082v1.019
		C117.997,57.378,117.673,57.423,117.359,57.423 M83.338,57.423c-1.003,0-1.818-0.329-2.447-0.988
		c-0.629-0.658-0.943-1.539-0.943-2.642v-0.232c0-0.734,0.14-1.389,0.42-1.965c0.28-0.576,0.672-1.028,1.176-1.353
		c0.504-0.326,1.049-0.489,1.637-0.489c0.961,0,1.709,0.317,2.242,0.95c0.533,0.633,0.8,1.54,0.8,2.721v0.526h-5.011
		c0.018,0.729,0.231,1.318,0.639,1.767c0.408,0.449,0.926,0.673,1.555,0.673c0.447,0,0.825-0.091,1.135-0.273
		c0.31-0.182,0.581-0.424,0.813-0.725l0.772,0.602C85.507,56.947,84.577,57.423,83.338,57.423 M83.181,50.792
		c-0.511,0-0.939,0.186-1.285,0.557c-0.346,0.371-0.561,0.892-0.643,1.562h3.705v-0.096c-0.037-0.643-0.21-1.14-0.519-1.494
		C84.128,50.969,83.709,50.792,83.181,50.792 M70.132,57.423c-0.565,0-0.991-0.171-1.278-0.513
		c-0.287-0.342-0.431-0.827-0.431-1.456v-4.587h-1.347V49.89h1.347v-1.791h1.265v1.791h1.381v0.978h-1.381v4.593
		c0,0.297,0.061,0.519,0.185,0.667c0.123,0.148,0.333,0.222,0.629,0.222c0.146,0,0.346-0.027,0.602-0.082v1.019
		C70.77,57.378,70.446,57.423,70.132,57.423 M54.284,57.423c-0.565,0-0.991-0.171-1.278-0.513c-0.287-0.342-0.431-0.827-0.431-1.456
		v-4.587h-1.347V49.89h1.347v-1.791h1.265v1.791h1.381v0.978H53.84v4.593c0,0.297,0.061,0.519,0.185,0.667
		c0.123,0.148,0.333,0.222,0.629,0.222c0.146,0,0.346-0.027,0.602-0.082v1.019C54.922,57.378,54.598,57.423,54.284,57.423
		 M29.172,57.423c-0.789,0-1.389-0.229-1.801-0.687s-0.621-1.136-0.625-2.034V49.89h1.265v4.778c0,1.121,0.456,1.682,1.367,1.682
		c0.966,0,1.609-0.36,1.928-1.08v-5.38h1.265v7.396h-1.203l-0.027-0.731C30.847,57.133,30.125,57.423,29.172,57.423 M21.782,57.423
		c-1.003,0-1.815-0.349-2.437-1.046c-0.622-0.697-0.933-1.62-0.933-2.768V53.52c0-0.725,0.142-1.376,0.427-1.955
		c0.285-0.579,0.681-1.025,1.189-1.34c0.508-0.315,1.088-0.472,1.74-0.472c1.007,0,1.822,0.349,2.444,1.046
		c0.622,0.697,0.933,1.625,0.933,2.782v0.089c0,0.72-0.138,1.366-0.413,1.938c-0.276,0.572-0.67,1.017-1.183,1.336
		C23.036,57.263,22.447,57.423,21.782,57.423 M21.768,50.792c-0.624,0-1.128,0.248-1.511,0.745
		c-0.383,0.497-0.574,1.208-0.574,2.133c0,0.82,0.19,1.479,0.571,1.976c0.38,0.497,0.89,0.745,1.528,0.745
		c0.643,0,1.153-0.252,1.531-0.755c0.378-0.504,0.567-1.209,0.567-2.116c0-0.811-0.193-1.469-0.578-1.972
		C22.918,51.044,22.406,50.792,21.768,50.792 M312.218,57.361c-0.26,0-0.455-0.071-0.584-0.212c-0.13-0.141-0.195-0.317-0.195-0.526
		c0-0.219,0.065-0.401,0.195-0.547c0.13-0.146,0.325-0.219,0.584-0.219s0.457,0.073,0.591,0.219
		c0.134,0.146,0.202,0.328,0.202,0.547c0,0.21-0.067,0.385-0.202,0.526C312.675,57.291,312.478,57.361,312.218,57.361
		 M282.074,57.286h-1.265V49.89h1.23l0.02,0.854c0.415-0.661,1.003-0.991,1.764-0.991c0.246,0,0.433,0.032,0.561,0.096v1.176
		c-0.191-0.032-0.399-0.048-0.622-0.048c-0.83,0-1.392,0.353-1.688,1.059V57.286 M269.986,57.286h-1.265v-6.419h-1.169V49.89h1.169
		v-0.759c0-0.793,0.212-1.406,0.636-1.839c0.424-0.433,1.023-0.649,1.798-0.649c0.292,0,0.581,0.039,0.868,0.115l-0.068,1.019
		c-0.214-0.041-0.442-0.062-0.684-0.062c-0.41,0-0.727,0.12-0.95,0.36c-0.223,0.24-0.335,0.584-0.335,1.032v0.782h1.579v0.978
		h-1.579V57.286 M247.635,57.286h-1.265V49.89h1.265V57.286 M242.375,57.286h-0.964l-2.68-7.396h1.292l1.88,5.681l1.832-5.681h1.292
		L242.375,57.286 M235.524,57.286h-1.265V49.89h1.23l0.02,0.854c0.415-0.661,1.003-0.991,1.764-0.991
		c0.246,0,0.433,0.032,0.56,0.096v1.176c-0.191-0.032-0.399-0.048-0.622-0.048c-0.83,0-1.392,0.353-1.689,1.059V57.286
		 M207.317,57.286h-1.265V49.89h1.23l0.02,0.854c0.415-0.661,1.003-0.991,1.764-0.991c0.246,0,0.433,0.032,0.561,0.096v1.176
		c-0.191-0.032-0.399-0.048-0.622-0.048c-0.83,0-1.392,0.353-1.688,1.059V57.286 M159.863,57.286h-1.196l-2.051-7.253l-0.157-0.759
		l-0.157,0.759l-2.126,7.253h-1.196l-2.406-9.953h1.312l1.572,6.815l0.191,1.312l0.28-1.183l1.969-6.945h1.107l1.921,6.945
		l0.273,1.203l0.212-1.34l1.545-6.809h1.319L159.863,57.286 M140.494,57.286h-1.319l-5.011-7.67v7.67h-1.319v-9.953h1.319
		l5.024,7.704v-7.704h1.306V57.286 M113.214,57.286h-1.265v-4.894c-0.005-0.533-0.126-0.927-0.366-1.183
		c-0.239-0.255-0.612-0.383-1.118-0.383c-0.41,0-0.77,0.109-1.08,0.328c-0.31,0.219-0.552,0.506-0.725,0.861v5.27h-1.265v-10.5
		h1.265v3.999c0.561-0.688,1.29-1.032,2.188-1.032c1.563,0,2.352,0.882,2.365,2.645V57.286 M97.448,57.286h-1.265V49.89h1.265
		V57.286 M92.556,57.286h-1.265V49.89h1.23l0.021,0.854c0.415-0.661,1.003-0.991,1.764-0.991c0.246,0,0.433,0.032,0.561,0.096v1.176
		c-0.191-0.032-0.399-0.048-0.622-0.048c-0.83,0-1.392,0.353-1.689,1.059V57.286 M78.32,57.286h-1.265v-4.894
		c-0.005-0.533-0.126-0.927-0.366-1.183s-0.612-0.383-1.118-0.383c-0.41,0-0.77,0.109-1.08,0.328
		c-0.31,0.219-0.551,0.506-0.725,0.861v5.27h-1.265v-10.5h1.265v3.999c0.561-0.688,1.29-1.032,2.187-1.032
		c1.563,0,2.352,0.882,2.365,2.645V57.286 M62.472,57.286h-1.265v-4.894c-0.005-0.533-0.126-0.927-0.366-1.183
		c-0.239-0.255-0.612-0.383-1.118-0.383c-0.41,0-0.77,0.109-1.08,0.328c-0.31,0.219-0.551,0.506-0.725,0.861v5.27h-1.265v-10.5
		h1.265v3.999c0.561-0.688,1.29-1.032,2.187-1.032c1.563,0,2.352,0.882,2.365,2.645V57.286 M49.98,57.286h-1.265V49.89h1.265V57.286
		 M45.179,57.286h-1.025l-1.798-5.605l-1.75,5.605H39.58l-2.146-7.396h1.258l1.456,5.537l1.723-5.537h1.019l1.757,5.653l1.422-5.653
		h1.265L45.179,57.286 M247.013,48.646c-0.246,0-0.432-0.068-0.557-0.205c-0.125-0.137-0.188-0.308-0.188-0.513
		c0-0.205,0.063-0.378,0.188-0.52c0.125-0.141,0.311-0.212,0.557-0.212c0.246,0,0.433,0.071,0.56,0.212
		c0.128,0.141,0.191,0.315,0.191,0.52c0,0.205-0.064,0.376-0.191,0.513C247.446,48.577,247.259,48.646,247.013,48.646
		 M96.825,48.646c-0.246,0-0.432-0.068-0.557-0.205c-0.125-0.137-0.188-0.308-0.188-0.513c0-0.205,0.063-0.378,0.188-0.52
		c0.125-0.141,0.311-0.212,0.557-0.212s0.433,0.071,0.561,0.212c0.128,0.141,0.191,0.315,0.191,0.52
		c0,0.205-0.064,0.376-0.191,0.513C97.258,48.577,97.072,48.646,96.825,48.646 M49.358,48.646c-0.246,0-0.432-0.068-0.557-0.205
		c-0.125-0.137-0.188-0.308-0.188-0.513c0-0.205,0.063-0.378,0.188-0.52c0.125-0.141,0.311-0.212,0.557-0.212
		c0.246,0,0.433,0.071,0.56,0.212c0.128,0.141,0.191,0.315,0.191,0.52c0,0.205-0.064,0.376-0.191,0.513
		C49.791,48.577,49.604,48.646,49.358,48.646"/>
	<path fill="#0080FF" d="M17.45,90.579c-0.109,0.703-0.331,1.196-0.665,1.479c-0.334,0.283-0.814,0.425-1.438,0.425
		c-0.695,0-1.236-0.274-1.623-0.821s-0.58-1.284-0.58-2.211v-0.827c0-0.981,0.204-1.738,0.612-2.269
		c0.408-0.532,0.972-0.798,1.69-0.798c0.586,0,1.042,0.153,1.368,0.458c0.326,0.306,0.538,0.799,0.636,1.481h1.131
		c-0.09-0.894-0.408-1.595-0.955-2.101c-0.547-0.506-1.273-0.759-2.18-0.759c-0.684,0-1.285,0.161-1.805,0.483
		c-0.52,0.322-0.921,0.784-1.204,1.386c-0.283,0.602-0.425,1.299-0.425,2.092v0.82c0,1.211,0.304,2.178,0.911,2.9
		c0.607,0.723,1.415,1.084,2.423,1.084c0.93,0,1.675-0.245,2.235-0.735c0.56-0.49,0.894-1.187,0.999-2.089H17.45z M21.171,84.286
		h-1.084v9h1.084V84.286z M24.057,86.946h-1.084v6.34h1.084V86.946z M23.046,85.704c0.107,0.117,0.267,0.176,0.478,0.176
		s0.371-0.059,0.48-0.176c0.109-0.117,0.164-0.264,0.164-0.439s-0.055-0.324-0.164-0.445c-0.109-0.121-0.27-0.182-0.48-0.182
		s-0.37,0.061-0.478,0.182c-0.107,0.121-0.161,0.27-0.161,0.445S22.938,85.587,23.046,85.704z M27.045,91.927
		c-0.301-0.395-0.451-0.957-0.451-1.688v-0.205c0-0.75,0.151-1.323,0.454-1.72c0.303-0.396,0.729-0.595,1.28-0.595
		c0.41,0,0.755,0.132,1.034,0.396c0.279,0.264,0.435,0.601,0.466,1.011h1.025c-0.031-0.68-0.282-1.232-0.753-1.658
		c-0.471-0.426-1.062-0.639-1.772-0.639c-0.578,0-1.079,0.133-1.503,0.398c-0.424,0.266-0.749,0.639-0.976,1.119
		c-0.227,0.48-0.34,1.029-0.34,1.646v0.182c0,1,0.255,1.788,0.765,2.364c0.51,0.576,1.196,0.864,2.06,0.864
		c0.43,0,0.837-0.098,1.222-0.293c0.385-0.195,0.692-0.457,0.923-0.785c0.23-0.328,0.355-0.674,0.375-1.037h-1.025
		c-0.031,0.352-0.191,0.645-0.48,0.879c-0.289,0.234-0.627,0.352-1.014,0.352C27.775,92.519,27.346,92.321,27.045,91.927z
		 M36.155,93.286h1.271l-2.754-3.691l2.467-2.648h-1.318l-1.975,2.086l-0.58,0.697v-5.443h-1.084v9h1.084V91.06l0.68-0.709
		L36.155,93.286z M41.736,85.411v1.535h-1.154v0.838h1.154v3.932c0,0.539,0.123,0.955,0.369,1.248s0.611,0.439,1.096,0.439
		c0.27,0,0.547-0.039,0.832-0.116v-0.874c-0.219,0.047-0.391,0.07-0.516,0.07c-0.254,0-0.434-0.064-0.539-0.191
		s-0.158-0.318-0.158-0.572v-3.937h1.184v-0.838H42.82v-1.535H41.736z M44.818,90.134c0,0.984,0.267,1.775,0.8,2.373
		s1.229,0.896,2.089,0.896c0.57,0,1.075-0.137,1.515-0.41c0.439-0.273,0.777-0.655,1.014-1.146c0.236-0.49,0.354-1.044,0.354-1.661
		V90.11c0-0.992-0.267-1.787-0.8-2.385s-1.231-0.896-2.095-0.896c-0.559,0-1.056,0.135-1.491,0.404
		c-0.436,0.27-0.775,0.652-1.02,1.148c-0.244,0.496-0.366,1.055-0.366,1.676V90.134z M46.4,88.358
		c0.328-0.426,0.76-0.639,1.295-0.639c0.547,0,0.985,0.216,1.315,0.647c0.33,0.432,0.495,0.995,0.495,1.69
		c0,0.777-0.162,1.382-0.486,1.813c-0.324,0.432-0.762,0.647-1.312,0.647c-0.547,0-0.983-0.213-1.31-0.639
		c-0.326-0.426-0.489-0.99-0.489-1.693C45.908,89.394,46.072,88.784,46.4,88.358z M56.217,84.286h-1.084v9h1.084V84.286z
		 M63.005,92.179l-0.662-0.516c-0.199,0.258-0.432,0.465-0.697,0.621c-0.266,0.156-0.59,0.234-0.973,0.234
		c-0.539,0-0.983-0.192-1.333-0.577c-0.35-0.385-0.532-0.89-0.548-1.515h4.295v-0.451c0-1.012-0.229-1.789-0.686-2.332
		c-0.457-0.543-1.098-0.814-1.922-0.814c-0.504,0-0.972,0.14-1.403,0.419c-0.432,0.279-0.768,0.666-1.008,1.16
		c-0.24,0.494-0.36,1.056-0.36,1.685v0.199c0,0.945,0.27,1.7,0.809,2.265c0.539,0.565,1.238,0.847,2.098,0.847
		C61.677,93.403,62.474,92.995,63.005,92.179z M61.558,88.174c0.266,0.303,0.414,0.729,0.445,1.28v0.082h-3.176
		c0.07-0.574,0.254-1.02,0.551-1.339c0.297-0.318,0.664-0.478,1.102-0.478C60.933,87.72,61.292,87.871,61.558,88.174z
		 M69.393,93.286v-0.094c-0.148-0.344-0.223-0.807-0.223-1.389v-2.918c-0.016-0.641-0.231-1.143-0.645-1.509
		c-0.414-0.365-0.986-0.548-1.717-0.548c-0.461,0-0.884,0.086-1.269,0.258c-0.385,0.172-0.689,0.405-0.914,0.7
		c-0.225,0.295-0.337,0.601-0.337,0.917h1.09c0-0.277,0.131-0.514,0.393-0.709c0.262-0.195,0.586-0.293,0.973-0.293
		c0.441,0,0.775,0.112,1.002,0.337c0.227,0.225,0.34,0.526,0.34,0.905v0.498h-1.055c-0.91,0-1.616,0.183-2.118,0.548
		c-0.502,0.365-0.753,0.878-0.753,1.538c0,0.543,0.2,0.991,0.601,1.345c0.4,0.354,0.913,0.53,1.538,0.53
		c0.699,0,1.301-0.262,1.805-0.785c0.039,0.32,0.09,0.543,0.152,0.668H69.393z M65.585,92.173c-0.227-0.191-0.34-0.457-0.34-0.797
		c0-0.777,0.664-1.166,1.992-1.166h0.85v1.301c-0.137,0.281-0.357,0.51-0.662,0.686s-0.627,0.264-0.967,0.264
		C66.102,92.46,65.811,92.364,65.585,92.173z M73.965,86.911c-0.109-0.055-0.27-0.082-0.48-0.082c-0.652,0-1.156,0.283-1.512,0.85
		l-0.018-0.732h-1.055v6.34h1.084v-4.5c0.254-0.605,0.736-0.908,1.447-0.908c0.191,0,0.369,0.014,0.533,0.041V86.911z
		 M75.057,86.946v6.34h1.084v-4.518c0.148-0.305,0.355-0.551,0.621-0.738c0.266-0.188,0.574-0.281,0.926-0.281
		c0.434,0,0.753,0.109,0.958,0.328c0.205,0.219,0.31,0.557,0.313,1.014v4.195h1.084v-4.189c-0.012-1.512-0.688-2.268-2.027-2.268
		c-0.781,0-1.414,0.305-1.898,0.914l-0.035-0.797H75.057z M84.763,86.946v6.34h1.084v-4.629c0.262-0.605,0.748-0.908,1.459-0.908
		c0.902,0,1.354,0.461,1.354,1.383v4.154h1.09v-4.207c0.043-0.406,0.197-0.729,0.463-0.97c0.266-0.24,0.6-0.36,1.002-0.36
		c0.488,0,0.836,0.112,1.043,0.337c0.207,0.225,0.311,0.564,0.311,1.017v4.184h1.084v-4.248c-0.023-1.473-0.73-2.209-2.121-2.209
		c-0.461,0-0.86,0.094-1.198,0.281c-0.338,0.188-0.612,0.434-0.823,0.738c-0.32-0.68-0.924-1.02-1.811-1.02
		c-0.789,0-1.416,0.273-1.881,0.82l-0.029-0.703H84.763z M95.038,90.134c0,0.984,0.267,1.775,0.8,2.373s1.229,0.896,2.089,0.896
		c0.57,0,1.075-0.137,1.515-0.41c0.439-0.273,0.777-0.655,1.014-1.146c0.236-0.49,0.354-1.044,0.354-1.661V90.11
		c0-0.992-0.267-1.787-0.8-2.385s-1.231-0.896-2.095-0.896c-0.559,0-1.056,0.135-1.491,0.404c-0.436,0.27-0.775,0.652-1.02,1.148
		c-0.244,0.496-0.366,1.055-0.366,1.676V90.134z M96.62,88.358c0.328-0.426,0.76-0.639,1.295-0.639c0.547,0,0.985,0.216,1.315,0.647
		c0.33,0.432,0.495,0.995,0.495,1.69c0,0.777-0.162,1.382-0.486,1.813c-0.324,0.432-0.762,0.647-1.312,0.647
		c-0.547,0-0.983-0.213-1.31-0.639c-0.326-0.426-0.489-0.99-0.489-1.693C96.128,89.394,96.292,88.784,96.62,88.358z M105.286,86.911
		c-0.109-0.055-0.27-0.082-0.48-0.082c-0.652,0-1.156,0.283-1.512,0.85l-0.018-0.732h-1.055v6.34h1.084v-4.5
		c0.254-0.605,0.736-0.908,1.447-0.908c0.191,0,0.369,0.014,0.533,0.041V86.911z M111.28,92.179l-0.662-0.516
		c-0.199,0.258-0.432,0.465-0.697,0.621c-0.266,0.156-0.59,0.234-0.973,0.234c-0.539,0-0.983-0.192-1.333-0.577
		c-0.35-0.385-0.532-0.89-0.548-1.515h4.295v-0.451c0-1.012-0.229-1.789-0.686-2.332c-0.457-0.543-1.098-0.814-1.922-0.814
		c-0.504,0-0.972,0.14-1.403,0.419c-0.432,0.279-0.768,0.666-1.008,1.16c-0.24,0.494-0.36,1.056-0.36,1.685v0.199
		c0,0.945,0.27,1.7,0.809,2.265c0.539,0.565,1.238,0.847,2.098,0.847C109.952,93.403,110.749,92.995,111.28,92.179z M109.833,88.174
		c0.266,0.303,0.414,0.729,0.445,1.28v0.082h-3.176c0.07-0.574,0.254-1.02,0.551-1.339c0.297-0.318,0.664-0.478,1.102-0.478
		C109.208,87.72,109.567,87.871,109.833,88.174z"/>
</g>
</svg>
