<!-- Generator: Adobe InDesign 20.3 SVG Export Plug-in, SVG Library version: 9.3 build 254 -->
<!DOCTYPE svg PUBLIC "-//W3C//DTD SVG 1.1//EN" "http://www.w3.org/Graphics/SVG/1.1/DTD/svg11.dtd">
<svg version="1.1" xmlns="http://www.w3.org/2000/svg" xmlns:xlink="http://www.w3.org/1999/xlink" x="0%" y="0%" width="100%"
	 height="100%" viewBox="0 0 312.167 171.154" preserveAspectRatio="xMidYMid slice" overflow="visible" xml:space="preserve">
<clipPath id="clp_unq_id_1" fill="none">
	<path shape-rendering="crispEdges" stroke="#000000" d="M0,0h312.167v171.154H0V0"/>
</clipPath>
<g clip-path="url(#clp_unq_id_1)" fill="none">
	<path fill="#000000" d="M116.304,18.698c-0.533,0-1.055-0.114-1.565-0.342c-0.51-0.228-0.9-0.54-1.169-0.937l0.656-0.759
		c0.542,0.67,1.205,1.005,1.989,1.005c0.615,0,1.095-0.173,1.439-0.52c0.344-0.346,0.516-0.834,0.516-1.463v-0.636
		c-0.506,0.583-1.196,0.875-2.071,0.875c-0.866,0-1.567-0.349-2.102-1.046c-0.536-0.697-0.803-1.648-0.803-2.851
		c0-1.153,0.267-2.07,0.8-2.752c0.533-0.681,1.24-1.022,2.119-1.022c0.902,0,1.606,0.319,2.112,0.957l0.062-0.82h1.155v7.219
		c0,0.957-0.284,1.711-0.851,2.263C118.023,18.422,117.261,18.698,116.304,18.698 M116.427,9.326c-0.615,0-1.096,0.239-1.442,0.718
		c-0.346,0.478-0.52,1.187-0.52,2.126c0,0.834,0.171,1.489,0.513,1.965c0.342,0.476,0.82,0.714,1.436,0.714
		c0.797,0,1.383-0.362,1.757-1.087v-3.377C117.783,9.679,117.202,9.326,116.427,9.326 M172.933,18.63h-1.265V8.39h1.155l0.062,0.82
		c0.515-0.638,1.23-0.957,2.146-0.957c0.889,0,1.592,0.335,2.109,1.005c0.517,0.67,0.776,1.602,0.776,2.796v0.116
		c0,1.126-0.257,2.033-0.772,2.721c-0.515,0.688-1.212,1.032-2.092,1.032c-0.898,0-1.604-0.285-2.119-0.854V18.63 M174.655,9.326
		c-0.766,0-1.34,0.34-1.723,1.019v3.534c0.378,0.675,0.957,1.012,1.736,1.012c0.606,0,1.088-0.24,1.446-0.721
		c0.358-0.481,0.537-1.195,0.537-2.143c0-0.834-0.178-1.492-0.533-1.976C175.763,9.568,175.275,9.326,174.655,9.326 M164.998,18.63
		h-1.265V8.39h1.155l0.062,0.82c0.515-0.638,1.231-0.957,2.146-0.957c0.889,0,1.592,0.335,2.109,1.005
		c0.517,0.67,0.776,1.602,0.776,2.796v0.116c0,1.126-0.258,2.033-0.772,2.721c-0.515,0.688-1.212,1.032-2.092,1.032
		c-0.898,0-1.604-0.285-2.119-0.854V18.63 M166.721,9.326c-0.766,0-1.34,0.34-1.723,1.019v3.534
		c0.378,0.675,0.957,1.012,1.736,1.012c0.606,0,1.088-0.24,1.446-0.721c0.358-0.481,0.537-1.195,0.537-2.143
		c0-0.834-0.178-1.492-0.533-1.976C167.828,9.568,167.341,9.326,166.721,9.326 M274.909,15.923c-0.857,0-1.555-0.351-2.095-1.053
		c-0.54-0.702-0.81-1.618-0.81-2.748v-0.096c0-1.135,0.269-2.047,0.807-2.738c0.538-0.69,1.242-1.036,2.112-1.036
		c0.866,0,1.552,0.296,2.058,0.889V5.286h1.265v10.5h-1.162l-0.062-0.793C276.515,15.613,275.811,15.923,274.909,15.923
		 M275.237,9.326c-0.62,0-1.103,0.239-1.449,0.718c-0.346,0.478-0.52,1.187-0.52,2.126c0,0.839,0.173,1.495,0.52,1.969
		c0.346,0.474,0.825,0.711,1.435,0.711c0.802,0,1.388-0.36,1.757-1.08v-3.397C276.602,9.675,276.021,9.326,275.237,9.326
		 M259.19,15.923c-0.729,0-1.327-0.206-1.794-0.619c-0.467-0.412-0.701-0.935-0.701-1.569c0-0.77,0.293-1.368,0.878-1.794
		c0.585-0.426,1.409-0.639,2.471-0.639h1.23v-0.581c0-0.442-0.132-0.794-0.396-1.056c-0.264-0.262-0.654-0.393-1.169-0.393
		c-0.451,0-0.83,0.114-1.135,0.342c-0.305,0.228-0.458,0.504-0.458,0.827h-1.271c0-0.369,0.131-0.726,0.393-1.07
		c0.262-0.344,0.618-0.616,1.066-0.817c0.449-0.201,0.942-0.301,1.48-0.301c0.852,0,1.52,0.213,2.003,0.639
		c0.483,0.426,0.734,1.013,0.752,1.76v3.404c0,0.679,0.087,1.219,0.26,1.62v0.109h-1.326c-0.073-0.146-0.132-0.406-0.178-0.779
		C260.708,15.618,260.006,15.923,259.19,15.923 M260.284,12.197c-1.549,0-2.324,0.453-2.324,1.36c0,0.397,0.132,0.706,0.397,0.93
		c0.264,0.223,0.604,0.335,1.018,0.335c0.397,0,0.772-0.103,1.128-0.308c0.355-0.205,0.613-0.472,0.772-0.8v-1.518H260.284
		 M248.803,15.923c-0.593,0-1.117-0.105-1.572-0.314c-0.456-0.21-0.812-0.502-1.07-0.878c-0.258-0.376-0.386-0.783-0.386-1.22h1.265
		c0.023,0.424,0.192,0.76,0.509,1.008c0.317,0.248,0.735,0.373,1.254,0.373c0.479,0,0.862-0.097,1.152-0.291
		c0.289-0.194,0.434-0.452,0.434-0.776c0-0.342-0.129-0.607-0.386-0.796c-0.257-0.189-0.706-0.352-1.347-0.489
		c-0.64-0.137-1.148-0.301-1.524-0.492c-0.376-0.191-0.654-0.419-0.834-0.684c-0.18-0.264-0.27-0.579-0.27-0.943
		c0-0.606,0.256-1.119,0.769-1.538c0.513-0.419,1.168-0.629,1.965-0.629c0.838,0,1.519,0.216,2.041,0.649
		c0.522,0.433,0.783,0.987,0.783,1.661h-1.271c0-0.346-0.147-0.645-0.441-0.895c-0.294-0.251-0.664-0.376-1.111-0.376
		c-0.46,0-0.82,0.1-1.08,0.301c-0.26,0.201-0.39,0.463-0.39,0.786c0,0.305,0.121,0.536,0.362,0.69
		c0.241,0.155,0.678,0.303,1.309,0.444c0.631,0.141,1.143,0.31,1.535,0.506c0.392,0.196,0.682,0.432,0.872,0.708
		c0.189,0.276,0.284,0.612,0.284,1.008c0,0.661-0.264,1.191-0.793,1.589C250.332,15.724,249.646,15.923,248.803,15.923
		 M241.729,15.923c-1.003,0-1.818-0.329-2.447-0.988c-0.629-0.658-0.943-1.539-0.943-2.642v-0.232c0-0.734,0.14-1.389,0.42-1.965
		c0.28-0.576,0.672-1.028,1.176-1.354c0.504-0.326,1.049-0.489,1.637-0.489c0.961,0,1.709,0.317,2.242,0.95
		c0.533,0.633,0.8,1.54,0.8,2.721v0.526h-5.011c0.018,0.729,0.231,1.318,0.639,1.767c0.408,0.449,0.926,0.673,1.555,0.673
		c0.447,0,0.825-0.091,1.135-0.273c0.31-0.182,0.581-0.424,0.813-0.725l0.772,0.602C243.898,15.447,242.969,15.923,241.729,15.923
		 M241.572,9.292c-0.51,0-0.939,0.186-1.285,0.557c-0.346,0.372-0.561,0.892-0.643,1.562h3.705v-0.096
		c-0.037-0.643-0.21-1.14-0.52-1.494C242.52,9.469,242.101,9.292,241.572,9.292 M234.198,15.923c-1.007,0-1.808-0.336-2.403-1.008
		c-0.595-0.672-0.892-1.592-0.892-2.758v-0.212c0-0.72,0.132-1.36,0.396-1.921s0.644-0.996,1.138-1.306
		c0.494-0.31,1.079-0.465,1.753-0.465c0.829,0,1.519,0.248,2.068,0.745c0.549,0.497,0.842,1.142,0.878,1.935h-1.196
		c-0.037-0.478-0.218-0.872-0.544-1.179c-0.326-0.308-0.728-0.461-1.207-0.461c-0.643,0-1.141,0.231-1.494,0.694
		c-0.353,0.463-0.53,1.131-0.53,2.006v0.239c0,0.852,0.175,1.508,0.526,1.969c0.351,0.46,0.852,0.69,1.504,0.69
		c0.451,0,0.845-0.137,1.183-0.41c0.337-0.273,0.524-0.615,0.561-1.025h1.196c-0.023,0.424-0.169,0.827-0.438,1.21
		c-0.269,0.383-0.628,0.688-1.077,0.916C235.174,15.809,234.699,15.923,234.198,15.923 M211.362,15.923
		c-1.003,0-1.818-0.329-2.447-0.988c-0.629-0.658-0.943-1.539-0.943-2.642v-0.232c0-0.734,0.14-1.389,0.42-1.965
		c0.28-0.576,0.672-1.028,1.176-1.354c0.504-0.326,1.049-0.489,1.637-0.489c0.962,0,1.709,0.317,2.242,0.95
		c0.533,0.633,0.8,1.54,0.8,2.721v0.526h-5.011c0.018,0.729,0.231,1.318,0.639,1.767c0.408,0.449,0.926,0.673,1.555,0.673
		c0.447,0,0.825-0.091,1.135-0.273c0.31-0.182,0.581-0.424,0.813-0.725l0.772,0.602C213.532,15.447,212.602,15.923,211.362,15.923
		 M211.205,9.292c-0.51,0-0.939,0.186-1.285,0.557c-0.346,0.372-0.561,0.892-0.643,1.562h3.705v-0.096
		c-0.037-0.643-0.21-1.14-0.52-1.494C212.153,9.469,211.734,9.292,211.205,9.292 M203.823,15.923c-0.592,0-1.117-0.105-1.572-0.314
		c-0.456-0.21-0.812-0.502-1.07-0.878c-0.258-0.376-0.386-0.783-0.386-1.22h1.265c0.023,0.424,0.192,0.76,0.509,1.008
		c0.317,0.248,0.735,0.373,1.254,0.373c0.479,0,0.862-0.097,1.152-0.291c0.289-0.194,0.434-0.452,0.434-0.776
		c0-0.342-0.129-0.607-0.386-0.796c-0.257-0.189-0.706-0.352-1.347-0.489c-0.64-0.137-1.148-0.301-1.524-0.492
		c-0.376-0.191-0.654-0.419-0.834-0.684c-0.18-0.264-0.27-0.579-0.27-0.943c0-0.606,0.256-1.119,0.769-1.538
		c0.513-0.419,1.168-0.629,1.965-0.629c0.839,0,1.519,0.216,2.041,0.649c0.522,0.433,0.783,0.987,0.783,1.661h-1.271
		c0-0.346-0.147-0.645-0.441-0.895c-0.294-0.251-0.664-0.376-1.111-0.376c-0.46,0-0.82,0.1-1.08,0.301
		c-0.26,0.201-0.39,0.463-0.39,0.786c0,0.305,0.121,0.536,0.362,0.69c0.242,0.155,0.678,0.303,1.309,0.444
		c0.631,0.141,1.143,0.31,1.535,0.506c0.392,0.196,0.682,0.432,0.872,0.708c0.189,0.276,0.284,0.612,0.284,1.008
		c0,0.661-0.264,1.191-0.793,1.589C205.352,15.724,204.666,15.923,203.823,15.923 M195.083,15.923c-0.565,0-0.991-0.171-1.278-0.513
		c-0.287-0.342-0.431-0.827-0.431-1.456V9.367h-1.347V8.39h1.347V6.599h1.265V8.39h1.381v0.978h-1.381v4.593
		c0,0.297,0.061,0.519,0.185,0.667c0.123,0.148,0.333,0.222,0.629,0.222c0.146,0,0.346-0.027,0.602-0.082v1.019
		C195.721,15.878,195.398,15.923,195.083,15.923 M182.636,15.923c-1.003,0-1.815-0.349-2.437-1.046
		c-0.622-0.697-0.933-1.62-0.933-2.769V12.02c0-0.725,0.142-1.376,0.427-1.955c0.285-0.579,0.681-1.025,1.189-1.34
		c0.508-0.314,1.088-0.472,1.74-0.472c1.007,0,1.822,0.349,2.444,1.046c0.622,0.697,0.933,1.625,0.933,2.782v0.089
		c0,0.72-0.138,1.366-0.414,1.938c-0.276,0.572-0.67,1.017-1.183,1.336C183.89,15.763,183.301,15.923,182.636,15.923 M182.622,9.292
		c-0.624,0-1.128,0.248-1.511,0.745c-0.383,0.497-0.574,1.208-0.574,2.133c0,0.82,0.19,1.479,0.571,1.976
		c0.38,0.497,0.89,0.745,1.528,0.745c0.643,0,1.153-0.252,1.531-0.755c0.378-0.504,0.567-1.209,0.567-2.116
		c0-0.811-0.193-1.469-0.578-1.972C183.772,9.544,183.26,9.292,182.622,9.292 M158.352,15.923c-0.788,0-1.389-0.229-1.801-0.687
		c-0.412-0.458-0.621-1.136-0.625-2.034V8.39h1.265v4.778c0,1.121,0.456,1.682,1.367,1.682c0.966,0,1.609-0.36,1.928-1.08V8.39
		h1.265v7.397h-1.203l-0.027-0.731C160.027,15.634,159.305,15.923,158.352,15.923 M151.444,15.923c-0.592,0-1.117-0.105-1.572-0.314
		c-0.456-0.21-0.812-0.502-1.07-0.878c-0.258-0.376-0.386-0.783-0.386-1.22h1.265c0.023,0.424,0.192,0.76,0.509,1.008
		c0.317,0.248,0.735,0.373,1.254,0.373c0.479,0,0.862-0.097,1.152-0.291c0.289-0.194,0.434-0.452,0.434-0.776
		c0-0.342-0.129-0.607-0.386-0.796c-0.257-0.189-0.706-0.352-1.347-0.489c-0.64-0.137-1.148-0.301-1.524-0.492
		c-0.376-0.191-0.654-0.419-0.834-0.684c-0.18-0.264-0.27-0.579-0.27-0.943c0-0.606,0.256-1.119,0.769-1.538
		c0.513-0.419,1.168-0.629,1.965-0.629c0.838,0,1.519,0.216,2.041,0.649c0.522,0.433,0.783,0.987,0.783,1.661h-1.272
		c0-0.346-0.147-0.645-0.441-0.895c-0.294-0.251-0.664-0.376-1.111-0.376c-0.46,0-0.82,0.1-1.08,0.301
		c-0.26,0.201-0.39,0.463-0.39,0.786c0,0.305,0.121,0.536,0.362,0.69c0.241,0.155,0.678,0.303,1.309,0.444
		c0.631,0.141,1.143,0.31,1.535,0.506c0.392,0.196,0.682,0.432,0.872,0.708c0.189,0.276,0.284,0.612,0.284,1.008
		c0,0.661-0.264,1.191-0.793,1.589C152.973,15.724,152.287,15.923,151.444,15.923 M135.481,15.923c-1.003,0-1.815-0.349-2.437-1.046
		c-0.622-0.697-0.933-1.62-0.933-2.769V12.02c0-0.725,0.142-1.376,0.427-1.955c0.285-0.579,0.681-1.025,1.189-1.34
		c0.508-0.314,1.088-0.472,1.74-0.472c1.007,0,1.822,0.349,2.444,1.046c0.622,0.697,0.933,1.625,0.933,2.782v0.089
		c0,0.72-0.138,1.366-0.414,1.938c-0.276,0.572-0.67,1.017-1.183,1.336C136.736,15.763,136.147,15.923,135.481,15.923
		 M135.468,9.292c-0.624,0-1.128,0.248-1.511,0.745c-0.383,0.497-0.574,1.208-0.574,2.133c0,0.82,0.19,1.479,0.571,1.976
		c0.38,0.497,0.89,0.745,1.528,0.745c0.643,0,1.153-0.252,1.531-0.755c0.378-0.504,0.567-1.209,0.567-2.116
		c0-0.811-0.193-1.469-0.578-1.972C136.617,9.544,136.106,9.292,135.468,9.292 M124.493,15.923c-1.003,0-1.818-0.329-2.447-0.988
		c-0.629-0.658-0.943-1.539-0.943-2.642v-0.232c0-0.734,0.14-1.389,0.42-1.965c0.28-0.576,0.672-1.028,1.176-1.354
		c0.504-0.326,1.049-0.489,1.637-0.489c0.962,0,1.709,0.317,2.242,0.95c0.533,0.633,0.8,1.54,0.8,2.721v0.526h-5.011
		c0.018,0.729,0.231,1.318,0.639,1.767c0.408,0.449,0.926,0.673,1.555,0.673c0.447,0,0.825-0.091,1.135-0.273
		c0.31-0.182,0.581-0.424,0.813-0.725l0.772,0.602C126.662,15.447,125.732,15.923,124.493,15.923 M124.335,9.292
		c-0.51,0-0.939,0.186-1.285,0.557c-0.346,0.372-0.561,0.892-0.643,1.562h3.705v-0.096c-0.037-0.643-0.21-1.14-0.52-1.494
		C125.283,9.469,124.864,9.292,124.335,9.292 M100.374,15.923c-0.729,0-1.327-0.206-1.794-0.619
		c-0.467-0.412-0.701-0.935-0.701-1.569c0-0.77,0.293-1.368,0.878-1.794c0.586-0.426,1.409-0.639,2.471-0.639h1.231v-0.581
		c0-0.442-0.132-0.794-0.397-1.056c-0.264-0.262-0.654-0.393-1.169-0.393c-0.451,0-0.83,0.114-1.135,0.342
		C99.453,9.841,99.3,10.117,99.3,10.44h-1.271c0-0.369,0.131-0.726,0.393-1.07c0.262-0.344,0.617-0.616,1.066-0.817
		c0.449-0.201,0.942-0.301,1.48-0.301c0.852,0,1.52,0.213,2.003,0.639c0.483,0.426,0.734,1.013,0.752,1.76v3.404
		c0,0.679,0.087,1.219,0.26,1.62v0.109h-1.326c-0.073-0.146-0.132-0.406-0.178-0.779C101.891,15.618,101.189,15.923,100.374,15.923
		 M101.467,12.197c-1.55,0-2.324,0.453-2.324,1.36c0,0.397,0.132,0.706,0.397,0.93c0.264,0.223,0.604,0.335,1.019,0.335
		c0.396,0,0.772-0.103,1.128-0.308c0.355-0.205,0.613-0.472,0.772-0.8v-1.518H101.467 M84.356,15.923
		c-0.729,0-1.327-0.206-1.794-0.619c-0.467-0.412-0.701-0.935-0.701-1.569c0-0.77,0.293-1.368,0.878-1.794
		c0.586-0.426,1.409-0.639,2.471-0.639h1.231v-0.581c0-0.442-0.132-0.794-0.397-1.056c-0.264-0.262-0.654-0.393-1.169-0.393
		c-0.451,0-0.829,0.114-1.135,0.342c-0.305,0.228-0.458,0.504-0.458,0.827h-1.271c0-0.369,0.131-0.726,0.393-1.07
		c0.262-0.344,0.617-0.616,1.066-0.817c0.449-0.201,0.942-0.301,1.48-0.301c0.852,0,1.52,0.213,2.003,0.639
		c0.483,0.426,0.734,1.013,0.752,1.76v3.404c0,0.679,0.087,1.219,0.26,1.62v0.109H86.64c-0.073-0.146-0.132-0.406-0.178-0.779
		C85.874,15.618,85.172,15.923,84.356,15.923 M85.45,12.197c-1.55,0-2.324,0.453-2.324,1.36c0,0.397,0.132,0.706,0.396,0.93
		c0.264,0.223,0.604,0.335,1.019,0.335c0.396,0,0.772-0.103,1.128-0.308c0.355-0.205,0.613-0.472,0.772-0.8v-1.518H85.45
		 M73.969,15.923c-0.593,0-1.117-0.105-1.572-0.314c-0.456-0.21-0.812-0.502-1.07-0.878c-0.257-0.376-0.386-0.783-0.386-1.22h1.265
		c0.023,0.424,0.192,0.76,0.509,1.008c0.317,0.248,0.735,0.373,1.254,0.373c0.479,0,0.862-0.097,1.152-0.291
		c0.289-0.194,0.434-0.452,0.434-0.776c0-0.342-0.129-0.607-0.386-0.796c-0.257-0.189-0.706-0.352-1.347-0.489
		c-0.64-0.137-1.148-0.301-1.524-0.492c-0.376-0.191-0.654-0.419-0.834-0.684c-0.18-0.264-0.27-0.579-0.27-0.943
		c0-0.606,0.256-1.119,0.769-1.538c0.513-0.419,1.168-0.629,1.965-0.629c0.839,0,1.519,0.216,2.041,0.649
		c0.522,0.433,0.783,0.987,0.783,1.661H75.48c0-0.346-0.147-0.645-0.441-0.895c-0.294-0.251-0.664-0.376-1.111-0.376
		c-0.46,0-0.82,0.1-1.08,0.301c-0.26,0.201-0.39,0.463-0.39,0.786c0,0.305,0.121,0.536,0.362,0.69
		c0.242,0.155,0.678,0.303,1.309,0.444c0.631,0.141,1.143,0.31,1.535,0.506c0.392,0.196,0.682,0.432,0.872,0.708
		c0.189,0.276,0.284,0.612,0.284,1.008c0,0.661-0.264,1.191-0.793,1.589C75.498,15.724,74.812,15.923,73.969,15.923 M66.005,15.923
		c-0.729,0-1.327-0.206-1.794-0.619c-0.467-0.412-0.701-0.935-0.701-1.569c0-0.77,0.293-1.368,0.878-1.794
		c0.586-0.426,1.409-0.639,2.471-0.639h1.23v-0.581c0-0.442-0.132-0.794-0.396-1.056c-0.264-0.262-0.654-0.393-1.169-0.393
		c-0.451,0-0.83,0.114-1.135,0.342c-0.305,0.228-0.458,0.504-0.458,0.827H63.66c0-0.369,0.131-0.726,0.393-1.07
		c0.262-0.344,0.617-0.616,1.066-0.817c0.449-0.201,0.942-0.301,1.48-0.301c0.852,0,1.52,0.213,2.003,0.639
		c0.483,0.426,0.734,1.013,0.752,1.76v3.404c0,0.679,0.087,1.219,0.26,1.62v0.109h-1.326c-0.073-0.146-0.132-0.406-0.178-0.779
		C67.522,15.618,66.821,15.923,66.005,15.923 M67.099,12.197c-1.55,0-2.324,0.453-2.324,1.36c0,0.397,0.132,0.706,0.397,0.93
		c0.264,0.223,0.604,0.335,1.019,0.335c0.397,0,0.772-0.103,1.128-0.308c0.355-0.205,0.613-0.472,0.772-0.8v-1.518H67.099
		 M34.941,15.923c-0.684,0-1.322-0.131-1.914-0.393c-0.593-0.262-1.049-0.621-1.371-1.077c-0.321-0.456-0.482-0.973-0.482-1.552
		h1.319c0,0.602,0.222,1.077,0.666,1.425c0.444,0.349,1.038,0.523,1.781,0.523c0.693,0,1.224-0.141,1.593-0.424
		c0.369-0.283,0.554-0.668,0.554-1.155c0-0.488-0.171-0.865-0.513-1.131c-0.342-0.267-0.962-0.53-1.859-0.79
		c-1.126-0.324-1.945-0.721-2.458-1.193c-0.513-0.472-0.769-1.054-0.769-1.747c0-0.784,0.313-1.432,0.94-1.945
		c0.627-0.513,1.441-0.769,2.444-0.769c0.684,0,1.293,0.132,1.829,0.397c0.535,0.264,0.95,0.629,1.244,1.094
		c0.294,0.465,0.441,0.973,0.441,1.524h-1.319c0-0.604-0.191-1.078-0.574-1.424C36.11,6.942,35.57,6.77,34.873,6.77
		c-0.647,0-1.152,0.143-1.514,0.428c-0.362,0.285-0.543,0.681-0.543,1.188c0,0.406,0.172,0.75,0.516,1.031
		c0.344,0.281,0.93,0.538,1.757,0.77c0.827,0.233,1.474,0.489,1.941,0.77c0.467,0.28,0.814,0.607,1.039,0.981
		c0.226,0.374,0.338,0.813,0.338,1.319c0,0.807-0.314,1.453-0.943,1.938C36.834,15.68,35.994,15.923,34.941,15.923 M15.861,15.923
		c-1.089,0-1.957-0.294-2.605-0.882c-0.647-0.588-0.975-1.397-0.984-2.427V5.833h1.299v6.74c0,0.72,0.198,1.28,0.595,1.678
		c0.397,0.399,0.962,0.598,1.695,0.598c0.743,0,1.311-0.198,1.706-0.595c0.394-0.396,0.591-0.955,0.591-1.675V5.833h1.319v6.768
		c-0.005,0.939-0.3,1.707-0.885,2.304c-0.586,0.597-1.38,0.932-2.382,1.005L15.861,15.923 M270.363,15.786h-1.265v-4.895
		c-0.005-0.533-0.126-0.927-0.366-1.183c-0.239-0.255-0.612-0.383-1.118-0.383c-0.41,0-0.77,0.109-1.08,0.328
		c-0.31,0.219-0.551,0.506-0.725,0.861v5.271h-1.265V8.39h1.196l0.041,0.93c0.565-0.711,1.303-1.066,2.215-1.066
		c1.563,0,2.352,0.882,2.365,2.645V15.786 M229.219,15.786h-1.265V8.39h1.265V15.786 M223.959,15.786h-0.964l-2.68-7.397h1.292
		l1.88,5.681l1.832-5.681h1.292L223.959,15.786 M217.108,15.786h-1.265V8.39h1.23l0.021,0.855c0.415-0.661,1.002-0.991,1.764-0.991
		c0.246,0,0.433,0.032,0.561,0.096v1.176c-0.191-0.032-0.399-0.048-0.622-0.048c-0.83,0-1.392,0.353-1.688,1.06V15.786
		 M188.9,15.786h-1.265V8.39h1.231l0.02,0.855c0.415-0.661,1.003-0.991,1.764-0.991c0.246,0,0.433,0.032,0.561,0.096v1.176
		c-0.191-0.032-0.399-0.048-0.622-0.048c-0.829,0-1.392,0.353-1.688,1.06V15.786 M142.144,15.786h-1.265V9.367h-1.169V8.39h1.169
		V7.631c0-0.793,0.212-1.406,0.636-1.839c0.424-0.433,1.023-0.649,1.798-0.649c0.292,0,0.581,0.039,0.868,0.115l-0.068,1.019
		c-0.214-0.041-0.442-0.062-0.684-0.062c-0.41,0-0.727,0.12-0.95,0.36c-0.223,0.24-0.335,0.584-0.335,1.032V8.39h1.579v0.978h-1.579
		V15.786 M111.547,15.786h-1.265v-4.895c-0.005-0.533-0.126-0.927-0.366-1.183c-0.239-0.255-0.612-0.383-1.118-0.383
		c-0.41,0-0.77,0.109-1.08,0.328c-0.31,0.219-0.551,0.506-0.725,0.861v5.271h-1.265V8.39h1.196l0.041,0.93
		c0.565-0.711,1.303-1.066,2.215-1.066c1.563,0,2.352,0.882,2.365,2.645V15.786 M94.559,15.786h-1.265V8.39h1.231l0.02,0.855
		c0.415-0.661,1.003-0.991,1.764-0.991c0.246,0,0.433,0.032,0.561,0.096v1.176c-0.191-0.032-0.399-0.048-0.622-0.048
		c-0.829,0-1.392,0.353-1.688,1.06V15.786 M61.852,15.786h-1.265v-4.895c-0.005-0.533-0.126-0.927-0.366-1.183
		c-0.239-0.255-0.612-0.383-1.118-0.383c-0.41,0-0.77,0.109-1.08,0.328c-0.31,0.219-0.551,0.506-0.725,0.861v5.271h-1.265v-10.5
		h1.265v3.999c0.561-0.688,1.29-1.032,2.188-1.032c1.563,0,2.352,0.882,2.365,2.645V15.786 M48.758,15.786h-1.196l-2.051-7.253
		l-0.157-0.759l-0.157,0.759l-2.126,7.253h-1.196l-2.406-9.953h1.312l1.572,6.815l0.191,1.312l0.28-1.183l1.969-6.945H45.9
		l1.921,6.945l0.273,1.203l0.212-1.34l1.545-6.809h1.319L48.758,15.786 M29.389,15.786h-1.319l-5.011-7.67v7.67h-1.319V5.833h1.319
		l5.024,7.704V5.833h1.306V15.786 M228.597,7.146c-0.246,0-0.432-0.068-0.557-0.205c-0.125-0.137-0.188-0.308-0.188-0.513
		s0.063-0.378,0.188-0.52c0.125-0.141,0.311-0.212,0.557-0.212c0.246,0,0.433,0.071,0.561,0.212c0.128,0.141,0.191,0.314,0.191,0.52
		s-0.064,0.376-0.191,0.513C229.029,7.077,228.843,7.146,228.597,7.146"/>
	<path fill="#000000" d="M247.455,36.773l-0.239-0.02l-0.472-0.089v-1.025l0.342,0.027c0.428,0,0.762-0.087,1.001-0.26
		c0.239-0.173,0.436-0.49,0.591-0.95l0.28-0.752l-2.639-7.314h1.381l1.846,5.544l1.723-5.544h1.354l-2.974,8.538
		C249.189,36.158,248.458,36.773,247.455,36.773 M130.804,36.698c-0.533,0-1.055-0.114-1.565-0.342
		c-0.51-0.228-0.9-0.54-1.169-0.937l0.656-0.759c0.542,0.67,1.205,1.005,1.989,1.005c0.615,0,1.095-0.173,1.439-0.52
		c0.344-0.346,0.516-0.834,0.516-1.463v-0.636c-0.506,0.583-1.196,0.875-2.071,0.875c-0.866,0-1.567-0.349-2.102-1.046
		c-0.536-0.697-0.803-1.648-0.803-2.851c0-1.153,0.267-2.07,0.8-2.752c0.533-0.681,1.24-1.022,2.119-1.022
		c0.902,0,1.606,0.319,2.112,0.957l0.061-0.82h1.155v7.219c0,0.957-0.284,1.711-0.851,2.263
		C132.524,36.422,131.761,36.698,130.804,36.698 M130.927,27.326c-0.615,0-1.096,0.239-1.442,0.718
		c-0.346,0.478-0.52,1.187-0.52,2.126c0,0.834,0.171,1.489,0.513,1.965c0.342,0.476,0.82,0.714,1.436,0.714
		c0.798,0,1.383-0.362,1.757-1.087v-3.377C132.283,27.679,131.702,27.326,130.927,27.326 M29.506,36.63h-1.265V26.39h1.155
		l0.062,0.82c0.515-0.638,1.23-0.957,2.146-0.957c0.889,0,1.592,0.335,2.109,1.005c0.517,0.67,0.776,1.602,0.776,2.796v0.116
		c0,1.126-0.257,2.033-0.772,2.721c-0.515,0.688-1.212,1.032-2.092,1.032c-0.898,0-1.604-0.285-2.119-0.854V36.63 M31.229,27.326
		c-0.766,0-1.34,0.34-1.723,1.019v3.534c0.378,0.675,0.957,1.012,1.736,1.012c0.606,0,1.088-0.24,1.446-0.721
		c0.358-0.481,0.537-1.195,0.537-2.143c0-0.834-0.178-1.492-0.533-1.976C32.336,27.568,31.849,27.326,31.229,27.326 M21.572,36.63
		h-1.265V26.39h1.155l0.062,0.82c0.515-0.638,1.23-0.957,2.146-0.957c0.889,0,1.592,0.335,2.109,1.005
		c0.517,0.67,0.776,1.602,0.776,2.796v0.116c0,1.126-0.257,2.033-0.772,2.721c-0.515,0.688-1.212,1.032-2.092,1.032
		c-0.898,0-1.604-0.285-2.119-0.854V36.63 M23.295,27.326c-0.766,0-1.34,0.34-1.723,1.019v3.534
		c0.378,0.675,0.957,1.012,1.736,1.012c0.606,0,1.088-0.24,1.446-0.721c0.358-0.481,0.537-1.195,0.537-2.143
		c0-0.834-0.178-1.492-0.533-1.976C24.402,27.568,23.914,27.326,23.295,27.326 M95.646,35.769l-0.718-0.492
		c0.428-0.597,0.652-1.212,0.67-1.846v-1.142h1.237v0.991c0,0.46-0.113,0.921-0.338,1.381
		C96.271,35.121,95.988,35.491,95.646,35.769 M288.211,33.923c-1.003,0-1.818-0.329-2.447-0.988
		c-0.629-0.658-0.943-1.539-0.943-2.642v-0.232c0-0.734,0.14-1.389,0.42-1.965c0.28-0.576,0.672-1.028,1.176-1.354
		c0.504-0.326,1.049-0.489,1.637-0.489c0.961,0,1.709,0.317,2.242,0.95c0.533,0.633,0.8,1.54,0.8,2.721v0.526h-5.011
		c0.018,0.729,0.231,1.318,0.639,1.767c0.408,0.449,0.926,0.673,1.555,0.673c0.447,0,0.825-0.091,1.135-0.273
		c0.31-0.182,0.581-0.424,0.813-0.725L291,32.494C290.38,33.447,289.451,33.923,288.211,33.923 M288.054,27.292
		c-0.51,0-0.939,0.186-1.285,0.557c-0.346,0.372-0.561,0.892-0.643,1.562h3.705v-0.096c-0.036-0.643-0.21-1.14-0.52-1.494
		C289.002,27.469,288.582,27.292,288.054,27.292 M280.682,33.923c-1.003,0-1.818-0.329-2.447-0.988
		c-0.629-0.658-0.943-1.539-0.943-2.642v-0.232c0-0.734,0.14-1.389,0.42-1.965c0.28-0.576,0.672-1.028,1.176-1.354
		c0.504-0.326,1.049-0.489,1.637-0.489c0.962,0,1.709,0.317,2.242,0.95c0.533,0.633,0.8,1.54,0.8,2.721v0.526h-5.011
		c0.018,0.729,0.231,1.318,0.639,1.767c0.408,0.449,0.926,0.673,1.555,0.673c0.447,0,0.825-0.091,1.135-0.273
		c0.31-0.182,0.581-0.424,0.813-0.725l0.772,0.602C282.851,33.447,281.922,33.923,280.682,33.923 M280.525,27.292
		c-0.51,0-0.939,0.186-1.285,0.557c-0.346,0.372-0.561,0.892-0.643,1.562h3.705v-0.096c-0.036-0.643-0.21-1.14-0.52-1.494
		C281.473,27.469,281.053,27.292,280.525,27.292 M264.027,33.923c-0.788,0-1.389-0.229-1.801-0.687
		c-0.413-0.458-0.621-1.136-0.625-2.034V26.39h1.265v4.778c0,1.121,0.456,1.682,1.367,1.682c0.966,0,1.609-0.36,1.928-1.08v-5.38
		h1.265v7.397h-1.203l-0.027-0.731C265.702,33.634,264.979,33.923,264.027,33.923 M256.636,33.923c-1.003,0-1.815-0.349-2.437-1.046
		c-0.622-0.697-0.933-1.62-0.933-2.769V30.02c0-0.725,0.142-1.376,0.427-1.955c0.285-0.579,0.681-1.025,1.189-1.34
		c0.508-0.314,1.088-0.472,1.74-0.472c1.007,0,1.822,0.349,2.444,1.046c0.622,0.697,0.933,1.625,0.933,2.782v0.089
		c0,0.72-0.138,1.366-0.414,1.938c-0.276,0.572-0.67,1.017-1.183,1.336C257.891,33.763,257.302,33.923,256.636,33.923
		 M256.623,27.292c-0.624,0-1.128,0.248-1.511,0.745c-0.383,0.497-0.574,1.208-0.574,2.133c0,0.82,0.19,1.479,0.571,1.976
		c0.381,0.497,0.89,0.745,1.528,0.745c0.643,0,1.153-0.252,1.531-0.755c0.378-0.504,0.567-1.209,0.567-2.116
		c0-0.811-0.193-1.469-0.578-1.972C257.772,27.544,257.261,27.292,256.623,27.292 M239.173,33.923c-1.003,0-1.818-0.329-2.447-0.988
		c-0.629-0.658-0.943-1.539-0.943-2.642v-0.232c0-0.734,0.14-1.389,0.42-1.965c0.28-0.576,0.672-1.028,1.176-1.354
		c0.504-0.326,1.049-0.489,1.637-0.489c0.962,0,1.709,0.317,2.242,0.95c0.533,0.633,0.8,1.54,0.8,2.721v0.526h-5.011
		c0.018,0.729,0.231,1.318,0.639,1.767c0.408,0.449,0.926,0.673,1.555,0.673c0.447,0,0.825-0.091,1.135-0.273
		c0.31-0.182,0.581-0.424,0.813-0.725l0.772,0.602C241.343,33.447,240.413,33.923,239.173,33.923 M239.016,27.292
		c-0.51,0-0.939,0.186-1.285,0.557c-0.346,0.372-0.561,0.892-0.643,1.562h3.705v-0.096c-0.037-0.643-0.21-1.14-0.52-1.494
		C239.964,27.469,239.545,27.292,239.016,27.292 M226.025,33.923c-0.788,0-1.389-0.229-1.801-0.687
		c-0.413-0.458-0.621-1.136-0.625-2.034V26.39h1.265v4.778c0,1.121,0.456,1.682,1.367,1.682c0.966,0,1.609-0.36,1.928-1.08v-5.38
		h1.265v7.397h-1.203l-0.027-0.731C227.7,33.634,226.977,33.923,226.025,33.923 M219.116,33.923c-0.592,0-1.117-0.105-1.572-0.314
		c-0.456-0.21-0.812-0.502-1.07-0.878c-0.257-0.376-0.386-0.783-0.386-1.22h1.265c0.023,0.424,0.192,0.76,0.509,1.008
		c0.317,0.248,0.735,0.373,1.254,0.373c0.479,0,0.862-0.097,1.152-0.291c0.289-0.194,0.434-0.452,0.434-0.776
		c0-0.342-0.129-0.607-0.386-0.796c-0.258-0.189-0.706-0.352-1.347-0.489c-0.64-0.137-1.148-0.301-1.524-0.492
		c-0.376-0.191-0.654-0.419-0.834-0.684c-0.18-0.264-0.27-0.579-0.27-0.943c0-0.606,0.256-1.119,0.769-1.538
		c0.513-0.419,1.168-0.629,1.965-0.629c0.839,0,1.519,0.216,2.041,0.649c0.522,0.433,0.783,0.987,0.783,1.661h-1.271
		c0-0.346-0.147-0.645-0.441-0.895c-0.294-0.251-0.664-0.376-1.111-0.376c-0.46,0-0.82,0.1-1.08,0.301
		c-0.26,0.201-0.39,0.463-0.39,0.786c0,0.305,0.121,0.536,0.362,0.69c0.242,0.155,0.678,0.303,1.309,0.444
		c0.631,0.141,1.143,0.31,1.535,0.506c0.392,0.196,0.682,0.432,0.872,0.708c0.189,0.276,0.284,0.612,0.284,1.008
		c0,0.661-0.264,1.191-0.793,1.589C220.645,33.724,219.959,33.923,219.116,33.923 M208.442,33.923c-1.003,0-1.818-0.329-2.447-0.988
		c-0.629-0.658-0.943-1.539-0.943-2.642v-0.232c0-0.734,0.14-1.389,0.42-1.965c0.28-0.576,0.672-1.028,1.176-1.354
		c0.504-0.326,1.049-0.489,1.637-0.489c0.962,0,1.709,0.317,2.242,0.95c0.533,0.633,0.8,1.54,0.8,2.721v0.526h-5.011
		c0.018,0.729,0.231,1.318,0.639,1.767c0.408,0.449,0.926,0.673,1.555,0.673c0.447,0,0.825-0.091,1.135-0.273
		c0.31-0.182,0.581-0.424,0.813-0.725l0.772,0.602C210.611,33.447,209.681,33.923,208.442,33.923 M208.285,27.292
		c-0.51,0-0.939,0.186-1.285,0.557c-0.346,0.372-0.561,0.892-0.643,1.562h3.705v-0.096c-0.037-0.643-0.21-1.14-0.52-1.494
		C209.232,27.469,208.813,27.292,208.285,27.292 M193.232,33.923c-0.729,0-1.327-0.206-1.794-0.619
		c-0.467-0.412-0.701-0.935-0.701-1.569c0-0.77,0.293-1.368,0.878-1.794c0.586-0.426,1.409-0.639,2.471-0.639h1.231v-0.581
		c0-0.442-0.132-0.794-0.397-1.056c-0.264-0.262-0.654-0.393-1.169-0.393c-0.451,0-0.829,0.114-1.135,0.342
		c-0.305,0.228-0.458,0.504-0.458,0.827h-1.272c0-0.369,0.131-0.726,0.393-1.07c0.262-0.344,0.617-0.616,1.066-0.817
		c0.449-0.201,0.942-0.301,1.48-0.301c0.852,0,1.52,0.213,2.003,0.639c0.483,0.426,0.734,1.013,0.752,1.76v3.404
		c0,0.679,0.087,1.219,0.26,1.62v0.109h-1.326c-0.073-0.146-0.132-0.406-0.178-0.779C194.749,33.618,194.047,33.923,193.232,33.923
		 M194.326,30.197c-1.55,0-2.324,0.453-2.324,1.36c0,0.397,0.132,0.706,0.396,0.93c0.264,0.223,0.604,0.335,1.019,0.335
		c0.396,0,0.772-0.103,1.128-0.308c0.355-0.205,0.613-0.472,0.772-0.8v-1.518H194.326 M170.152,33.923
		c-1.003,0-1.815-0.349-2.437-1.046c-0.622-0.697-0.933-1.62-0.933-2.769V30.02c0-0.725,0.142-1.376,0.427-1.955
		c0.285-0.579,0.681-1.025,1.189-1.34c0.508-0.314,1.088-0.472,1.74-0.472c1.007,0,1.822,0.349,2.444,1.046
		c0.622,0.697,0.933,1.625,0.933,2.782v0.089c0,0.72-0.138,1.366-0.414,1.938c-0.276,0.572-0.67,1.017-1.183,1.336
		C171.407,33.763,170.818,33.923,170.152,33.923 M170.139,27.292c-0.624,0-1.128,0.248-1.511,0.745
		c-0.383,0.497-0.574,1.208-0.574,2.133c0,0.82,0.19,1.479,0.571,1.976c0.38,0.497,0.89,0.745,1.528,0.745
		c0.643,0,1.153-0.252,1.531-0.755c0.378-0.504,0.567-1.209,0.567-2.116c0-0.811-0.193-1.469-0.578-1.972
		C171.288,27.544,170.777,27.292,170.139,27.292 M164.907,33.923c-0.565,0-0.991-0.171-1.278-0.513
		c-0.287-0.342-0.431-0.827-0.431-1.456v-4.587h-1.347V26.39h1.347v-1.791h1.265v1.791h1.381v0.978h-1.381v4.593
		c0,0.297,0.061,0.519,0.185,0.667c0.123,0.148,0.333,0.222,0.629,0.222c0.146,0,0.346-0.027,0.602-0.082v1.019
		C165.545,33.878,165.222,33.923,164.907,33.923 M153.843,33.923c-0.857,0-1.555-0.351-2.095-1.053
		c-0.54-0.702-0.81-1.618-0.81-2.748v-0.096c0-1.135,0.269-2.047,0.807-2.738c0.538-0.69,1.242-1.036,2.112-1.036
		c0.866,0,1.552,0.296,2.058,0.889v-3.855h1.265v10.5h-1.162l-0.062-0.793C155.45,33.613,154.746,33.923,153.843,33.923
		 M154.171,27.326c-0.62,0-1.103,0.239-1.449,0.718c-0.346,0.478-0.52,1.187-0.52,2.126c0,0.839,0.173,1.495,0.52,1.969
		c0.346,0.474,0.825,0.711,1.435,0.711c0.802,0,1.388-0.36,1.757-1.08v-3.397C155.536,27.675,154.955,27.326,154.171,27.326
		 M146.762,33.923c-1.003,0-1.818-0.329-2.447-0.988c-0.629-0.658-0.943-1.539-0.943-2.642v-0.232c0-0.734,0.14-1.389,0.42-1.965
		c0.28-0.576,0.672-1.028,1.176-1.354c0.504-0.326,1.049-0.489,1.637-0.489c0.962,0,1.709,0.317,2.242,0.95
		c0.533,0.633,0.8,1.54,0.8,2.721v0.526h-5.011c0.018,0.729,0.231,1.318,0.639,1.767c0.408,0.449,0.926,0.673,1.555,0.673
		c0.447,0,0.825-0.091,1.135-0.273c0.31-0.182,0.581-0.424,0.814-0.725l0.772,0.602C148.931,33.447,148.002,33.923,146.762,33.923
		 M146.605,27.292c-0.51,0-0.939,0.186-1.285,0.557c-0.346,0.372-0.561,0.892-0.643,1.562h3.705v-0.096
		c-0.036-0.643-0.21-1.14-0.52-1.494C147.553,27.469,147.134,27.292,146.605,27.292 M120.127,33.923
		c-0.593,0-1.117-0.105-1.572-0.314c-0.456-0.21-0.812-0.502-1.07-0.878c-0.258-0.376-0.386-0.783-0.386-1.22h1.265
		c0.023,0.424,0.192,0.76,0.509,1.008c0.317,0.248,0.735,0.373,1.254,0.373c0.478,0,0.862-0.097,1.152-0.291
		c0.289-0.194,0.434-0.452,0.434-0.776c0-0.342-0.129-0.607-0.386-0.796c-0.257-0.189-0.706-0.352-1.347-0.489
		c-0.64-0.137-1.148-0.301-1.524-0.492c-0.376-0.191-0.654-0.419-0.834-0.684c-0.18-0.264-0.27-0.579-0.27-0.943
		c0-0.606,0.256-1.119,0.769-1.538c0.513-0.419,1.168-0.629,1.965-0.629c0.838,0,1.519,0.216,2.041,0.649
		c0.522,0.433,0.783,0.987,0.783,1.661h-1.271c0-0.346-0.147-0.645-0.441-0.895c-0.294-0.251-0.664-0.376-1.111-0.376
		c-0.46,0-0.82,0.1-1.08,0.301c-0.26,0.201-0.39,0.463-0.39,0.786c0,0.305,0.121,0.536,0.362,0.69
		c0.241,0.155,0.678,0.303,1.309,0.444c0.631,0.141,1.143,0.31,1.535,0.506c0.392,0.196,0.682,0.432,0.872,0.708
		c0.189,0.276,0.284,0.612,0.284,1.008c0,0.661-0.264,1.191-0.793,1.589C121.656,33.724,120.97,33.923,120.127,33.923
		 M113.053,33.923c-1.003,0-1.818-0.329-2.447-0.988c-0.629-0.658-0.943-1.539-0.943-2.642v-0.232c0-0.734,0.14-1.389,0.42-1.965
		c0.28-0.576,0.672-1.028,1.176-1.354c0.504-0.326,1.049-0.489,1.637-0.489c0.962,0,1.709,0.317,2.242,0.95
		c0.533,0.633,0.8,1.54,0.8,2.721v0.526h-5.011c0.018,0.729,0.231,1.318,0.639,1.767c0.408,0.449,0.926,0.673,1.555,0.673
		c0.447,0,0.825-0.091,1.135-0.273c0.31-0.182,0.581-0.424,0.813-0.725l0.772,0.602C115.223,33.447,114.293,33.923,113.053,33.923
		 M112.896,27.292c-0.51,0-0.939,0.186-1.285,0.557c-0.346,0.372-0.561,0.892-0.643,1.562h3.705v-0.096
		c-0.037-0.643-0.21-1.14-0.52-1.494C113.844,27.469,113.425,27.292,112.896,27.292 M104.639,33.923
		c-0.857,0-1.555-0.351-2.095-1.053c-0.54-0.702-0.81-1.618-0.81-2.748v-0.096c0-1.135,0.269-2.047,0.807-2.738
		c0.538-0.69,1.242-1.036,2.112-1.036c0.866,0,1.552,0.296,2.058,0.889v-3.855h1.265v10.5h-1.162l-0.062-0.793
		C106.245,33.613,105.541,33.923,104.639,33.923 M104.967,27.326c-0.62,0-1.103,0.239-1.449,0.718
		c-0.346,0.478-0.52,1.187-0.52,2.126c0,0.839,0.173,1.495,0.52,1.969c0.346,0.474,0.825,0.711,1.436,0.711
		c0.802,0,1.388-0.36,1.757-1.08v-3.397C106.332,27.675,105.75,27.326,104.967,27.326 M91.029,33.923
		c-0.593,0-1.117-0.105-1.572-0.314c-0.456-0.21-0.812-0.502-1.07-0.878c-0.258-0.376-0.386-0.783-0.386-1.22h1.265
		c0.023,0.424,0.192,0.76,0.509,1.008c0.317,0.248,0.735,0.373,1.254,0.373c0.479,0,0.862-0.097,1.152-0.291
		c0.289-0.194,0.434-0.452,0.434-0.776c0-0.342-0.129-0.607-0.386-0.796c-0.257-0.189-0.706-0.352-1.347-0.489
		c-0.64-0.137-1.148-0.301-1.524-0.492c-0.376-0.191-0.654-0.419-0.834-0.684c-0.18-0.264-0.27-0.579-0.27-0.943
		c0-0.606,0.256-1.119,0.769-1.538c0.513-0.419,1.168-0.629,1.965-0.629c0.838,0,1.519,0.216,2.041,0.649
		c0.522,0.433,0.783,0.987,0.783,1.661H92.54c0-0.346-0.147-0.645-0.441-0.895c-0.294-0.251-0.664-0.376-1.111-0.376
		c-0.46,0-0.82,0.1-1.08,0.301c-0.26,0.201-0.39,0.463-0.39,0.786c0,0.305,0.121,0.536,0.362,0.69
		c0.241,0.155,0.678,0.303,1.309,0.444c0.631,0.141,1.143,0.31,1.535,0.506c0.392,0.196,0.682,0.432,0.872,0.708
		c0.189,0.276,0.284,0.612,0.284,1.008c0,0.661-0.264,1.191-0.793,1.589C92.558,33.724,91.872,33.923,91.029,33.923 M83.955,33.923
		c-1.003,0-1.818-0.329-2.447-0.988c-0.629-0.658-0.943-1.539-0.943-2.642v-0.232c0-0.734,0.14-1.389,0.42-1.965
		c0.28-0.576,0.672-1.028,1.176-1.354c0.504-0.326,1.049-0.489,1.637-0.489c0.962,0,1.709,0.317,2.242,0.95
		c0.533,0.633,0.8,1.54,0.8,2.721v0.526h-5.011c0.018,0.729,0.231,1.318,0.639,1.767c0.408,0.449,0.926,0.673,1.555,0.673
		c0.447,0,0.825-0.091,1.135-0.273c0.31-0.182,0.581-0.424,0.813-0.725l0.772,0.602C86.125,33.447,85.195,33.923,83.955,33.923
		 M83.798,27.292c-0.51,0-0.939,0.186-1.285,0.557c-0.346,0.372-0.561,0.892-0.643,1.562h3.705v-0.096
		c-0.037-0.643-0.21-1.14-0.52-1.494C84.746,27.469,84.327,27.292,83.798,27.292 M75.192,33.923c-0.565,0-0.991-0.171-1.278-0.513
		c-0.287-0.342-0.431-0.827-0.431-1.456v-4.587h-1.347V26.39h1.347v-1.791h1.265v1.791h1.381v0.978h-1.381v4.593
		c0,0.297,0.062,0.519,0.185,0.667c0.123,0.148,0.333,0.222,0.629,0.222c0.146,0,0.346-0.027,0.602-0.082v1.019
		C75.83,33.878,75.506,33.923,75.192,33.923 M56.427,33.923c-0.788,0-1.389-0.229-1.801-0.687c-0.413-0.458-0.621-1.136-0.625-2.034
		V26.39h1.265v4.778c0,1.121,0.456,1.682,1.367,1.682c0.966,0,1.609-0.36,1.928-1.08v-5.38h1.265v7.397h-1.203l-0.027-0.731
		C58.102,33.634,57.38,33.923,56.427,33.923 M51.657,33.923c-0.565,0-0.991-0.171-1.278-0.513c-0.287-0.342-0.431-0.827-0.431-1.456
		v-4.587h-1.347V26.39h1.347v-1.791h1.265v1.791h1.381v0.978h-1.381v4.593c0,0.297,0.062,0.519,0.185,0.667
		c0.123,0.148,0.333,0.222,0.629,0.222c0.146,0,0.346-0.027,0.602-0.082v1.019C52.295,33.878,51.971,33.923,51.657,33.923
		 M39.21,33.923c-1.003,0-1.815-0.349-2.437-1.046c-0.622-0.697-0.933-1.62-0.933-2.769V30.02c0-0.725,0.142-1.376,0.427-1.955
		c0.285-0.579,0.681-1.025,1.189-1.34c0.508-0.314,1.088-0.472,1.74-0.472c1.007,0,1.822,0.349,2.444,1.046
		c0.622,0.697,0.933,1.625,0.933,2.782v0.089c0,0.72-0.138,1.366-0.414,1.938c-0.276,0.572-0.67,1.017-1.183,1.336
		C40.464,33.763,39.875,33.923,39.21,33.923 M39.196,27.292c-0.624,0-1.128,0.248-1.511,0.745c-0.383,0.497-0.574,1.208-0.574,2.133
		c0,0.82,0.19,1.479,0.571,1.976c0.381,0.497,0.89,0.745,1.528,0.745c0.643,0,1.153-0.252,1.531-0.755
		c0.378-0.504,0.567-1.209,0.567-2.116c0-0.811-0.193-1.469-0.578-1.972C40.345,27.544,39.834,27.292,39.196,27.292 M15.308,33.923
		c-1.003,0-1.815-0.349-2.437-1.046c-0.622-0.697-0.933-1.62-0.933-2.769V30.02c0-0.725,0.142-1.376,0.427-1.955
		c0.285-0.579,0.681-1.025,1.189-1.34c0.508-0.314,1.088-0.472,1.74-0.472c1.007,0,1.822,0.349,2.444,1.046
		c0.622,0.697,0.933,1.625,0.933,2.782v0.089c0,0.72-0.138,1.366-0.414,1.938c-0.276,0.572-0.67,1.017-1.183,1.336
		C16.562,33.763,15.973,33.923,15.308,33.923 M15.294,27.292c-0.624,0-1.128,0.248-1.511,0.745
		c-0.383,0.497-0.574,1.208-0.574,2.133c0,0.82,0.19,1.479,0.571,1.976c0.38,0.497,0.89,0.745,1.528,0.745
		c0.643,0,1.153-0.252,1.531-0.755c0.378-0.504,0.567-1.209,0.567-2.116c0-0.811-0.193-1.469-0.578-1.972
		C16.443,27.544,15.932,27.292,15.294,27.292 M294.022,33.786h-1.265v-10.5h1.265V33.786 M274.838,33.786h-1.265v-6.419h-1.169
		V26.39h1.169v-0.759c0-0.793,0.212-1.406,0.636-1.839c0.424-0.433,1.023-0.649,1.798-0.649c0.292,0,0.581,0.039,0.868,0.115
		l-0.068,1.019c-0.214-0.041-0.442-0.062-0.684-0.062c-0.41,0-0.727,0.12-0.95,0.36c-0.223,0.24-0.335,0.584-0.335,1.032v0.782
		h1.579v0.978h-1.579V33.786 M232.671,33.786h-1.265V26.39h1.23l0.021,0.855c0.415-0.661,1.002-0.991,1.764-0.991
		c0.246,0,0.433,0.032,0.561,0.096v1.176c-0.191-0.032-0.399-0.048-0.622-0.048c-0.83,0-1.392,0.353-1.689,1.06V33.786
		 M204.713,33.786h-1.483l-2.577-3.425l-0.793,0.827v2.598h-1.265v-10.5h1.265v6.351l0.677-0.814l2.304-2.434h1.538l-2.878,3.09
		L204.713,33.786 M189.071,33.786h-1.265v-4.881c0-0.529-0.121-0.924-0.362-1.186c-0.242-0.262-0.647-0.393-1.217-0.393
		c-0.469,0-0.859,0.14-1.169,0.42c-0.31,0.28-0.49,0.657-0.54,1.131v4.908h-1.271v-4.847c0-1.075-0.526-1.613-1.579-1.613
		c-0.829,0-1.397,0.353-1.702,1.06v5.4h-1.265V26.39h1.196l0.034,0.82c0.542-0.638,1.274-0.957,2.194-0.957
		c1.035,0,1.739,0.396,2.112,1.189c0.246-0.355,0.566-0.643,0.96-0.861c0.394-0.219,0.86-0.328,1.398-0.328
		c1.622,0,2.447,0.859,2.475,2.577V33.786 M141.738,33.786h-1.265v-4.895c-0.005-0.533-0.126-0.927-0.366-1.183
		c-0.239-0.255-0.612-0.383-1.118-0.383c-0.41,0-0.77,0.109-1.08,0.328c-0.31,0.219-0.551,0.506-0.725,0.861v5.271h-1.265V26.39
		h1.196l0.041,0.93c0.565-0.711,1.303-1.066,2.215-1.066c1.563,0,2.352,0.882,2.365,2.646V33.786 M125.971,33.786h-1.265V26.39
		h1.265V33.786 M78.881,33.786h-1.265V26.39h1.265V33.786 M70.888,33.786h-1.265V26.39h1.265V33.786 M67.626,33.786h-1.265v-4.895
		c-0.005-0.533-0.127-0.927-0.366-1.183c-0.239-0.255-0.612-0.383-1.118-0.383c-0.41,0-0.77,0.109-1.08,0.328
		c-0.31,0.219-0.551,0.506-0.725,0.861v5.271h-1.265V26.39h1.196l0.041,0.93c0.565-0.711,1.303-1.066,2.215-1.066
		c1.563,0,2.352,0.882,2.365,2.646V33.786 M45.474,33.786h-1.265V26.39h1.231l0.02,0.855c0.415-0.661,1.003-0.991,1.764-0.991
		c0.246,0,0.433,0.032,0.56,0.096v1.176c-0.191-0.032-0.399-0.048-0.622-0.048c-0.829,0-1.392,0.353-1.688,1.06V33.786
		 M125.349,25.146c-0.246,0-0.432-0.068-0.557-0.205c-0.125-0.137-0.188-0.308-0.188-0.513c0-0.205,0.063-0.378,0.188-0.52
		c0.125-0.141,0.311-0.212,0.557-0.212s0.433,0.071,0.561,0.212c0.128,0.141,0.191,0.314,0.191,0.52
		c0,0.205-0.064,0.376-0.191,0.513C125.782,25.077,125.595,25.146,125.349,25.146 M78.259,25.146c-0.246,0-0.432-0.068-0.557-0.205
		c-0.125-0.137-0.188-0.308-0.188-0.513c0-0.205,0.063-0.378,0.188-0.52c0.125-0.141,0.311-0.212,0.557-0.212
		s0.433,0.071,0.561,0.212c0.128,0.141,0.191,0.314,0.191,0.52c0,0.205-0.064,0.376-0.191,0.513
		C78.692,25.077,78.505,25.146,78.259,25.146 M70.266,25.146c-0.246,0-0.432-0.068-0.557-0.205
		c-0.125-0.137-0.188-0.308-0.188-0.513c0-0.205,0.063-0.378,0.188-0.52c0.125-0.141,0.311-0.212,0.557-0.212
		s0.433,0.071,0.561,0.212c0.128,0.141,0.191,0.314,0.191,0.52c0,0.205-0.064,0.376-0.191,0.513
		C70.699,25.077,70.512,25.146,70.266,25.146"/>
	<path fill="#000000" d="M182.467,54.773l-0.239-0.02l-0.472-0.089v-1.025l0.342,0.027c0.428,0,0.762-0.087,1.001-0.26
		c0.239-0.173,0.436-0.49,0.591-0.95l0.28-0.752l-2.639-7.314h1.381l1.846,5.544l1.723-5.544h1.353l-2.974,8.538
		C184.201,54.158,183.47,54.773,182.467,54.773 M32.004,54.773l-0.239-0.02l-0.472-0.089v-1.025l0.342,0.027
		c0.428,0,0.762-0.087,1.001-0.26c0.239-0.173,0.436-0.49,0.591-0.95l0.28-0.752L30.87,44.39h1.381l1.846,5.544l1.723-5.544h1.354
		l-2.974,8.538C33.738,54.158,33.007,54.773,32.004,54.773 M145.177,54.698c-0.533,0-1.055-0.114-1.565-0.342
		c-0.51-0.228-0.9-0.54-1.169-0.937l0.656-0.759c0.542,0.67,1.205,1.005,1.989,1.005c0.615,0,1.095-0.173,1.439-0.52
		c0.344-0.346,0.516-0.834,0.516-1.463v-0.636c-0.506,0.583-1.196,0.875-2.071,0.875c-0.866,0-1.567-0.349-2.102-1.046
		c-0.536-0.697-0.803-1.648-0.803-2.851c0-1.153,0.267-2.07,0.8-2.752c0.533-0.681,1.24-1.022,2.119-1.022
		c0.902,0,1.606,0.319,2.112,0.957l0.061-0.82h1.155v7.219c0,0.957-0.284,1.711-0.851,2.263
		C146.897,54.422,146.134,54.698,145.177,54.698 M145.3,45.326c-0.615,0-1.096,0.239-1.442,0.718
		c-0.346,0.479-0.52,1.187-0.52,2.126c0,0.834,0.171,1.489,0.513,1.965c0.342,0.476,0.82,0.714,1.436,0.714
		c0.798,0,1.383-0.362,1.757-1.087v-3.377C146.656,45.679,146.075,45.326,145.3,45.326 M66.116,54.63h-1.265V44.39h1.155l0.062,0.82
		c0.515-0.638,1.231-0.957,2.146-0.957c0.889,0,1.592,0.335,2.109,1.005c0.517,0.67,0.776,1.602,0.776,2.796v0.116
		c0,1.126-0.257,2.033-0.772,2.721c-0.515,0.688-1.212,1.032-2.092,1.032c-0.898,0-1.604-0.285-2.119-0.854V54.63 M67.838,45.326
		c-0.766,0-1.34,0.34-1.723,1.019v3.534c0.378,0.675,0.957,1.012,1.736,1.012c0.606,0,1.088-0.24,1.446-0.721
		c0.358-0.481,0.537-1.195,0.537-2.143c0-0.834-0.178-1.492-0.533-1.976C68.946,45.568,68.458,45.326,67.838,45.326 M58.182,54.63
		h-1.265V44.39h1.155l0.062,0.82c0.515-0.638,1.23-0.957,2.146-0.957c0.889,0,1.592,0.335,2.109,1.005
		c0.517,0.67,0.776,1.602,0.776,2.796v0.116c0,1.126-0.257,2.033-0.772,2.721c-0.515,0.688-1.212,1.032-2.092,1.032
		c-0.898,0-1.604-0.285-2.119-0.854V54.63 M59.904,45.326c-0.766,0-1.34,0.34-1.723,1.019v3.534
		c0.378,0.675,0.957,1.012,1.736,1.012c0.606,0,1.088-0.24,1.446-0.721c0.358-0.481,0.537-1.195,0.537-2.143
		c0-0.834-0.178-1.492-0.533-1.976C61.012,45.568,60.524,45.326,59.904,45.326 M253.876,51.923c-0.592,0-1.117-0.105-1.572-0.314
		c-0.456-0.21-0.812-0.502-1.07-0.878c-0.258-0.376-0.386-0.783-0.386-1.22h1.265c0.023,0.424,0.192,0.76,0.509,1.008
		c0.317,0.248,0.735,0.373,1.254,0.373c0.479,0,0.862-0.097,1.152-0.291c0.289-0.194,0.434-0.452,0.434-0.776
		c0-0.342-0.129-0.607-0.386-0.796c-0.258-0.189-0.706-0.352-1.347-0.489c-0.64-0.137-1.148-0.301-1.524-0.492
		c-0.376-0.191-0.654-0.419-0.834-0.684c-0.18-0.264-0.27-0.579-0.27-0.943c0-0.606,0.256-1.119,0.769-1.538
		c0.513-0.419,1.168-0.629,1.965-0.629c0.838,0,1.519,0.216,2.041,0.649c0.522,0.433,0.783,0.987,0.783,1.661h-1.272
		c0-0.346-0.147-0.645-0.441-0.895c-0.294-0.251-0.664-0.376-1.111-0.376c-0.46,0-0.82,0.1-1.08,0.301
		c-0.26,0.201-0.39,0.463-0.39,0.786c0,0.305,0.121,0.536,0.362,0.69c0.241,0.155,0.678,0.303,1.309,0.444
		c0.631,0.141,1.143,0.31,1.535,0.506c0.392,0.196,0.682,0.432,0.872,0.708c0.189,0.276,0.284,0.612,0.284,1.008
		c0,0.661-0.264,1.191-0.793,1.589C255.405,51.724,254.719,51.923,253.876,51.923 M246.802,51.923c-1.003,0-1.818-0.329-2.447-0.988
		c-0.629-0.658-0.943-1.539-0.943-2.642v-0.232c0-0.734,0.14-1.389,0.42-1.965c0.28-0.576,0.672-1.028,1.176-1.354
		c0.504-0.326,1.049-0.489,1.637-0.489c0.962,0,1.709,0.317,2.242,0.95c0.533,0.633,0.8,1.54,0.8,2.721v0.526h-5.011
		c0.018,0.729,0.231,1.318,0.639,1.767c0.408,0.449,0.926,0.673,1.555,0.673c0.447,0,0.825-0.091,1.135-0.273
		c0.31-0.182,0.581-0.424,0.814-0.725l0.772,0.602C248.972,51.447,248.042,51.923,246.802,51.923 M246.645,45.292
		c-0.51,0-0.939,0.186-1.285,0.557c-0.346,0.372-0.561,0.892-0.643,1.562h3.705v-0.096c-0.036-0.643-0.21-1.14-0.52-1.494
		C247.593,45.469,247.174,45.292,246.645,45.292 M235.057,51.923c-0.857,0-1.555-0.351-2.095-1.053
		c-0.54-0.702-0.81-1.618-0.81-2.748v-0.096c0-1.135,0.269-2.047,0.807-2.738s1.242-1.036,2.112-1.036
		c0.866,0,1.552,0.296,2.058,0.889v-3.855h1.265v10.5h-1.162l-0.061-0.793C236.664,51.613,235.96,51.923,235.057,51.923
		 M235.385,45.326c-0.62,0-1.103,0.239-1.449,0.718c-0.346,0.479-0.52,1.187-0.52,2.126c0,0.839,0.173,1.495,0.52,1.969
		c0.346,0.474,0.825,0.711,1.436,0.711c0.802,0,1.388-0.36,1.757-1.08v-3.397C236.75,45.675,236.169,45.326,235.385,45.326
		 M227.082,51.923c-0.789,0-1.389-0.229-1.801-0.687c-0.412-0.458-0.621-1.136-0.625-2.034V44.39h1.265v4.778
		c0,1.121,0.456,1.682,1.367,1.682c0.966,0,1.609-0.36,1.928-1.08v-5.38h1.265v7.397h-1.203l-0.027-0.731
		C228.757,51.634,228.035,51.923,227.082,51.923 M222.312,51.923c-0.565,0-0.991-0.171-1.278-0.513
		c-0.287-0.342-0.431-0.827-0.431-1.456v-4.587h-1.347V44.39h1.347v-1.791h1.265v1.791h1.381v0.978h-1.381v4.593
		c0,0.297,0.062,0.519,0.185,0.667c0.123,0.148,0.333,0.222,0.629,0.222c0.146,0,0.346-0.027,0.602-0.082v1.019
		C222.95,51.878,222.626,51.923,222.312,51.923 M215.484,51.923c-0.592,0-1.117-0.105-1.572-0.314
		c-0.456-0.21-0.812-0.502-1.07-0.878c-0.257-0.376-0.386-0.783-0.386-1.22h1.265c0.023,0.424,0.192,0.76,0.509,1.008
		c0.317,0.248,0.735,0.373,1.254,0.373c0.479,0,0.862-0.097,1.152-0.291c0.289-0.194,0.434-0.452,0.434-0.776
		c0-0.342-0.129-0.607-0.386-0.796c-0.258-0.189-0.706-0.352-1.347-0.489c-0.64-0.137-1.148-0.301-1.524-0.492
		c-0.376-0.191-0.654-0.419-0.834-0.684c-0.18-0.264-0.27-0.579-0.27-0.943c0-0.606,0.256-1.119,0.769-1.538
		c0.513-0.419,1.168-0.629,1.965-0.629c0.839,0,1.519,0.216,2.041,0.649c0.522,0.433,0.783,0.987,0.783,1.661h-1.271
		c0-0.346-0.147-0.645-0.441-0.895c-0.294-0.251-0.664-0.376-1.111-0.376c-0.46,0-0.82,0.1-1.08,0.301
		c-0.26,0.201-0.39,0.463-0.39,0.786c0,0.305,0.121,0.536,0.362,0.69c0.241,0.155,0.678,0.303,1.309,0.444
		c0.631,0.141,1.143,0.31,1.535,0.506c0.392,0.196,0.682,0.432,0.872,0.708c0.189,0.276,0.284,0.612,0.284,1.008
		c0,0.661-0.264,1.191-0.793,1.589C217.013,51.724,216.327,51.923,215.484,51.923 M199.039,51.923c-0.788,0-1.389-0.229-1.801-0.687
		c-0.413-0.458-0.621-1.136-0.626-2.034V44.39h1.265v4.778c0,1.121,0.456,1.682,1.367,1.682c0.966,0,1.609-0.36,1.928-1.08v-5.38
		h1.265v7.397h-1.203l-0.027-0.731C200.714,51.634,199.992,51.923,199.039,51.923 M191.649,51.923c-1.003,0-1.815-0.349-2.437-1.046
		c-0.622-0.697-0.933-1.62-0.933-2.769V48.02c0-0.725,0.142-1.376,0.427-1.955c0.285-0.579,0.681-1.025,1.189-1.34
		c0.508-0.314,1.088-0.472,1.74-0.472c1.007,0,1.822,0.349,2.444,1.046c0.622,0.697,0.933,1.625,0.933,2.782v0.089
		c0,0.72-0.138,1.366-0.414,1.938c-0.276,0.572-0.67,1.017-1.183,1.336C192.903,51.763,192.314,51.923,191.649,51.923
		 M191.635,45.292c-0.624,0-1.128,0.248-1.511,0.745c-0.383,0.497-0.574,1.208-0.574,2.133c0,0.82,0.19,1.479,0.571,1.976
		c0.38,0.497,0.89,0.745,1.528,0.745c0.643,0,1.153-0.252,1.531-0.755c0.378-0.504,0.567-1.209,0.567-2.116
		c0-0.811-0.193-1.469-0.578-1.972C192.784,45.544,192.273,45.292,191.635,45.292 M176.12,51.923c-0.565,0-0.991-0.171-1.278-0.513
		c-0.287-0.342-0.431-0.827-0.431-1.456v-4.587h-1.347V44.39h1.347v-1.791h1.265v1.791h1.381v0.978h-1.381v4.593
		c0,0.297,0.062,0.519,0.185,0.667c0.123,0.148,0.333,0.222,0.629,0.222c0.146,0,0.346-0.027,0.602-0.082v1.019
		C176.758,51.878,176.435,51.923,176.12,51.923 M168.469,51.923c-0.788,0-1.389-0.229-1.801-0.687
		c-0.413-0.458-0.621-1.136-0.625-2.034V44.39h1.265v4.778c0,1.121,0.456,1.682,1.367,1.682c0.966,0,1.609-0.36,1.928-1.08v-5.38
		h1.265v7.397h-1.203l-0.027-0.731C170.144,51.634,169.422,51.923,168.469,51.923 M161.079,51.923c-1.003,0-1.815-0.349-2.437-1.046
		c-0.622-0.697-0.933-1.62-0.933-2.769V48.02c0-0.725,0.142-1.376,0.427-1.955c0.285-0.579,0.681-1.025,1.189-1.34
		c0.508-0.314,1.088-0.472,1.74-0.472c1.007,0,1.822,0.349,2.444,1.046c0.622,0.697,0.933,1.625,0.933,2.782v0.089
		c0,0.72-0.138,1.366-0.414,1.938c-0.276,0.572-0.67,1.017-1.183,1.336C162.333,51.763,161.744,51.923,161.079,51.923
		 M161.065,45.292c-0.624,0-1.128,0.248-1.511,0.745c-0.383,0.497-0.574,1.208-0.574,2.133c0,0.82,0.19,1.479,0.571,1.976
		c0.38,0.497,0.89,0.745,1.528,0.745c0.643,0,1.153-0.252,1.531-0.755c0.378-0.504,0.567-1.209,0.567-2.116
		c0-0.811-0.193-1.469-0.578-1.972C162.215,45.544,161.703,45.292,161.065,45.292 M136.991,51.923c-0.788,0-1.389-0.229-1.801-0.687
		c-0.412-0.458-0.621-1.136-0.625-2.034V44.39h1.265v4.778c0,1.121,0.456,1.682,1.367,1.682c0.966,0,1.609-0.36,1.928-1.08v-5.38
		h1.265v7.397h-1.203l-0.027-0.731C138.665,51.634,137.943,51.923,136.991,51.923 M129.6,51.923c-1.003,0-1.815-0.349-2.437-1.046
		c-0.622-0.697-0.933-1.62-0.933-2.769V48.02c0-0.725,0.142-1.376,0.427-1.955c0.285-0.579,0.681-1.025,1.189-1.34
		c0.508-0.314,1.088-0.472,1.74-0.472c1.007,0,1.822,0.349,2.444,1.046c0.622,0.697,0.933,1.625,0.933,2.782v0.089
		c0,0.72-0.138,1.366-0.414,1.938c-0.276,0.572-0.67,1.017-1.183,1.336C130.854,51.763,130.265,51.923,129.6,51.923 M129.586,45.292
		c-0.624,0-1.128,0.248-1.511,0.745c-0.383,0.497-0.574,1.208-0.574,2.133c0,0.82,0.19,1.479,0.571,1.976
		c0.38,0.497,0.89,0.745,1.528,0.745c0.643,0,1.153-0.252,1.531-0.755c0.378-0.504,0.567-1.209,0.567-2.116
		c0-0.811-0.193-1.469-0.578-1.972C130.736,45.544,130.224,45.292,129.586,45.292 M111.705,51.923c-0.565,0-0.991-0.171-1.278-0.513
		c-0.287-0.342-0.431-0.827-0.431-1.456v-4.587h-1.347V44.39h1.347v-1.791h1.265v1.791h1.381v0.978h-1.381v4.593
		c0,0.297,0.062,0.519,0.185,0.667c0.123,0.148,0.333,0.222,0.629,0.222c0.146,0,0.346-0.027,0.602-0.082v1.019
		C112.343,51.878,112.019,51.923,111.705,51.923 M100.641,51.923c-0.857,0-1.555-0.351-2.095-1.053
		c-0.54-0.702-0.81-1.618-0.81-2.748v-0.096c0-1.135,0.269-2.047,0.807-2.738c0.538-0.69,1.242-1.036,2.112-1.036
		c0.866,0,1.552,0.296,2.058,0.889v-3.855h1.265v10.5h-1.162l-0.062-0.793C102.247,51.613,101.543,51.923,100.641,51.923
		 M100.969,45.326c-0.62,0-1.103,0.239-1.449,0.718C99.174,46.522,99,47.231,99,48.17c0,0.839,0.173,1.495,0.52,1.969
		c0.346,0.474,0.825,0.711,1.436,0.711c0.802,0,1.388-0.36,1.757-1.08v-3.397C102.334,45.675,101.753,45.326,100.969,45.326
		 M93.56,51.923c-1.003,0-1.818-0.329-2.447-0.988c-0.629-0.658-0.943-1.539-0.943-2.642v-0.232c0-0.734,0.14-1.389,0.42-1.965
		c0.28-0.576,0.672-1.028,1.176-1.354c0.504-0.326,1.049-0.489,1.637-0.489c0.962,0,1.709,0.317,2.242,0.95
		c0.533,0.633,0.8,1.54,0.8,2.721v0.526h-5.011c0.018,0.729,0.231,1.318,0.639,1.767c0.408,0.449,0.926,0.673,1.555,0.673
		c0.447,0,0.825-0.091,1.135-0.273c0.31-0.182,0.581-0.424,0.814-0.725l0.772,0.602C95.729,51.447,94.799,51.923,93.56,51.923
		 M93.403,45.292c-0.51,0-0.939,0.186-1.285,0.557c-0.346,0.372-0.561,0.892-0.643,1.562h3.705v-0.096
		c-0.036-0.643-0.21-1.14-0.52-1.494C94.351,45.469,93.931,45.292,93.403,45.292 M88.267,51.923c-0.565,0-0.991-0.171-1.278-0.513
		c-0.287-0.342-0.431-0.827-0.431-1.456v-4.587h-1.347V44.39h1.347v-1.791h1.265v1.791h1.381v0.978h-1.381v4.593
		c0,0.297,0.062,0.519,0.185,0.667c0.123,0.148,0.333,0.222,0.629,0.222c0.146,0,0.346-0.027,0.602-0.082v1.019
		C88.905,51.878,88.581,51.923,88.267,51.923 M75.819,51.923c-1.003,0-1.815-0.349-2.437-1.046c-0.622-0.697-0.933-1.62-0.933-2.769
		V48.02c0-0.725,0.142-1.376,0.427-1.955c0.285-0.579,0.681-1.025,1.189-1.34c0.508-0.314,1.088-0.472,1.74-0.472
		c1.007,0,1.822,0.349,2.444,1.046c0.622,0.697,0.933,1.625,0.933,2.782v0.089c0,0.72-0.138,1.366-0.414,1.938
		c-0.276,0.572-0.67,1.017-1.183,1.336C77.074,51.763,76.485,51.923,75.819,51.923 M75.806,45.292c-0.624,0-1.128,0.248-1.511,0.745
		c-0.383,0.497-0.574,1.208-0.574,2.133c0,0.82,0.19,1.479,0.571,1.976c0.381,0.497,0.89,0.745,1.528,0.745
		c0.643,0,1.153-0.252,1.531-0.755c0.378-0.504,0.567-1.209,0.567-2.116c0-0.811-0.193-1.469-0.578-1.972
		C76.955,45.544,76.444,45.292,75.806,45.292 M51.536,51.923c-0.789,0-1.389-0.229-1.801-0.687
		c-0.412-0.458-0.621-1.136-0.625-2.034V44.39h1.265v4.778c0,1.121,0.456,1.682,1.367,1.682c0.966,0,1.609-0.36,1.928-1.08v-5.38
		h1.265v7.397H53.73l-0.027-0.731C53.21,51.634,52.488,51.923,51.536,51.923 M44.627,51.923c-0.593,0-1.117-0.105-1.572-0.314
		c-0.456-0.21-0.812-0.502-1.07-0.878c-0.257-0.376-0.386-0.783-0.386-1.22h1.265c0.023,0.424,0.192,0.76,0.509,1.008
		c0.317,0.248,0.735,0.373,1.254,0.373c0.478,0,0.862-0.097,1.152-0.291c0.289-0.194,0.434-0.452,0.434-0.776
		c0-0.342-0.129-0.607-0.386-0.796c-0.258-0.189-0.706-0.352-1.347-0.489c-0.64-0.137-1.148-0.301-1.524-0.492
		c-0.376-0.191-0.654-0.419-0.834-0.684c-0.18-0.264-0.27-0.579-0.27-0.943c0-0.606,0.256-1.119,0.769-1.538
		c0.513-0.419,1.168-0.629,1.965-0.629c0.838,0,1.519,0.216,2.041,0.649c0.522,0.433,0.783,0.987,0.783,1.661h-1.271
		c0-0.346-0.147-0.645-0.441-0.895c-0.294-0.251-0.664-0.376-1.111-0.376c-0.46,0-0.82,0.1-1.08,0.301
		c-0.26,0.201-0.39,0.463-0.39,0.786c0,0.305,0.121,0.536,0.362,0.69c0.241,0.155,0.678,0.303,1.309,0.444
		c0.631,0.141,1.143,0.31,1.535,0.506c0.392,0.196,0.682,0.432,0.872,0.708c0.189,0.276,0.284,0.612,0.284,1.008
		c0,0.661-0.264,1.191-0.793,1.589C46.156,51.724,45.47,51.923,44.627,51.923 M19.528,51.923c-0.788,0-1.389-0.229-1.801-0.687
		c-0.413-0.458-0.621-1.136-0.625-2.034V44.39h1.265v4.778c0,1.121,0.456,1.682,1.367,1.682c0.966,0,1.609-0.36,1.928-1.08v-5.38
		h1.265v7.397h-1.203l-0.027-0.731C21.203,51.634,20.48,51.923,19.528,51.923 M259.178,51.861c-0.26,0-0.455-0.071-0.584-0.212
		s-0.195-0.317-0.195-0.526c0-0.219,0.065-0.401,0.195-0.547c0.13-0.146,0.325-0.219,0.584-0.219c0.26,0,0.457,0.073,0.591,0.219
		c0.134,0.146,0.202,0.328,0.202,0.547c0,0.21-0.067,0.385-0.202,0.526C259.635,51.791,259.438,51.861,259.178,51.861
		 M241.728,51.786h-1.265V44.39h1.265V51.786 M205.685,51.786h-1.265V44.39h1.231l0.02,0.855c0.415-0.661,1.003-0.991,1.764-0.991
		c0.246,0,0.433,0.032,0.561,0.096v1.176c-0.191-0.032-0.399-0.048-0.622-0.048c-0.829,0-1.392,0.353-1.688,1.06V51.786
		 M156.111,51.786h-1.265v-4.895c-0.005-0.533-0.126-0.927-0.366-1.183c-0.239-0.255-0.612-0.383-1.118-0.383
		c-0.41,0-0.77,0.109-1.08,0.328c-0.31,0.219-0.551,0.506-0.725,0.861v5.271h-1.265v-10.5h1.265v3.999
		c0.561-0.688,1.29-1.032,2.188-1.032c1.563,0,2.352,0.882,2.365,2.646V51.786 M123.117,51.786h-1.265V44.39h1.231l0.02,0.855
		c0.415-0.661,1.003-0.991,1.764-0.991c0.246,0,0.433,0.032,0.561,0.096v1.176c-0.191-0.032-0.399-0.048-0.622-0.048
		c-0.829,0-1.392,0.353-1.688,1.06V51.786 M119.893,51.786h-1.265v-4.895c-0.005-0.533-0.126-0.927-0.366-1.183
		c-0.239-0.255-0.612-0.383-1.118-0.383c-0.41,0-0.77,0.109-1.08,0.328c-0.31,0.219-0.551,0.506-0.725,0.861v5.271h-1.265v-10.5
		h1.265v3.999c0.56-0.688,1.29-1.032,2.187-1.032c1.563,0,2.352,0.882,2.365,2.646V51.786 M82.083,51.786h-1.265V44.39h1.231
		l0.02,0.855c0.415-0.661,1.003-0.991,1.764-0.991c0.246,0,0.433,0.032,0.561,0.096v1.176c-0.191-0.032-0.399-0.048-0.622-0.048
		c-0.829,0-1.392,0.353-1.688,1.06V51.786 M29.574,51.786H28.31v-10.5h1.265V51.786 M26.226,51.786h-1.265v-10.5h1.265V51.786
		 M14.159,51.786h-1.265v-6.419h-1.169V44.39h1.169v-0.759c0-0.793,0.212-1.406,0.636-1.839c0.424-0.433,1.023-0.649,1.798-0.649
		c0.292,0,0.581,0.039,0.868,0.115l-0.068,1.019c-0.214-0.041-0.442-0.062-0.684-0.062c-0.41,0-0.727,0.12-0.95,0.36
		c-0.223,0.24-0.335,0.584-0.335,1.032v0.782h1.579v0.978h-1.579V51.786 M241.106,43.146c-0.246,0-0.432-0.068-0.557-0.205
		c-0.125-0.137-0.188-0.308-0.188-0.513s0.063-0.378,0.188-0.52c0.125-0.141,0.311-0.212,0.557-0.212
		c0.246,0,0.433,0.071,0.561,0.212c0.128,0.141,0.191,0.314,0.191,0.52s-0.064,0.376-0.191,0.513
		C241.539,43.077,241.352,43.146,241.106,43.146"/>
	<path fill="#000000" d="M190.685,90.773l-0.239-0.02l-0.472-0.089v-1.025l0.342,0.027c0.428,0,0.762-0.087,1.001-0.26
		c0.239-0.173,0.436-0.49,0.591-0.95l0.28-0.752l-2.639-7.314h1.381l1.846,5.544l1.723-5.544h1.354l-2.974,8.538
		C192.419,90.158,191.687,90.773,190.685,90.773 M99.913,89.769l-0.718-0.492c0.428-0.597,0.652-1.212,0.67-1.846v-1.142h1.237
		v0.991c0,0.46-0.113,0.921-0.338,1.381C100.538,89.121,100.254,89.491,99.913,89.769 M273.744,87.923
		c-1.003,0-1.815-0.349-2.437-1.046c-0.622-0.697-0.933-1.62-0.933-2.769v-0.089c0-0.725,0.142-1.376,0.427-1.955
		c0.285-0.579,0.681-1.025,1.189-1.34c0.508-0.314,1.088-0.472,1.74-0.472c1.007,0,1.822,0.349,2.444,1.046
		c0.622,0.697,0.933,1.625,0.933,2.782v0.089c0,0.72-0.138,1.366-0.414,1.938c-0.276,0.572-0.67,1.017-1.183,1.336
		C274.999,87.763,274.41,87.923,273.744,87.923 M273.731,81.292c-0.624,0-1.128,0.248-1.511,0.745
		c-0.383,0.497-0.574,1.208-0.574,2.133c0,0.82,0.19,1.479,0.571,1.976c0.38,0.497,0.89,0.745,1.528,0.745
		c0.643,0,1.153-0.252,1.531-0.755c0.378-0.504,0.567-1.209,0.567-2.116c0-0.811-0.193-1.469-0.578-1.972
		C274.88,81.544,274.369,81.292,273.731,81.292 M262.756,87.923c-1.003,0-1.818-0.329-2.447-0.988
		c-0.629-0.658-0.943-1.539-0.943-2.642v-0.232c0-0.734,0.14-1.389,0.42-1.965c0.28-0.576,0.672-1.028,1.176-1.354
		c0.504-0.326,1.049-0.489,1.637-0.489c0.962,0,1.709,0.317,2.242,0.95c0.533,0.633,0.8,1.54,0.8,2.721v0.526h-5.011
		c0.018,0.729,0.231,1.318,0.639,1.767c0.408,0.449,0.926,0.673,1.555,0.673c0.447,0,0.825-0.091,1.135-0.273
		c0.31-0.182,0.581-0.424,0.813-0.725l0.772,0.602C264.925,87.447,263.995,87.923,262.756,87.923 M262.598,81.292
		c-0.51,0-0.939,0.186-1.285,0.557c-0.346,0.372-0.561,0.892-0.643,1.562h3.705v-0.096c-0.037-0.643-0.21-1.14-0.52-1.494
		C263.546,81.469,263.127,81.292,262.598,81.292 M242.36,87.923c-1.003,0-1.815-0.349-2.437-1.046
		c-0.622-0.697-0.933-1.62-0.933-2.769v-0.089c0-0.725,0.142-1.376,0.427-1.955c0.285-0.579,0.681-1.025,1.189-1.34
		c0.508-0.314,1.088-0.472,1.74-0.472c1.007,0,1.822,0.349,2.444,1.046c0.622,0.697,0.933,1.625,0.933,2.782v0.089
		c0,0.72-0.138,1.366-0.414,1.938c-0.276,0.572-0.67,1.017-1.183,1.336C243.615,87.763,243.026,87.923,242.36,87.923
		 M242.347,81.292c-0.624,0-1.128,0.248-1.511,0.745c-0.383,0.497-0.574,1.208-0.574,2.133c0,0.82,0.19,1.479,0.571,1.976
		c0.38,0.497,0.89,0.745,1.528,0.745c0.643,0,1.153-0.252,1.531-0.755c0.378-0.504,0.567-1.209,0.567-2.116
		c0-0.811-0.193-1.469-0.578-1.972C243.496,81.544,242.985,81.292,242.347,81.292 M234.862,87.923c-0.593,0-1.117-0.105-1.572-0.314
		c-0.456-0.21-0.812-0.502-1.07-0.878c-0.258-0.376-0.386-0.783-0.386-1.22h1.265c0.023,0.424,0.192,0.76,0.509,1.008
		c0.317,0.249,0.735,0.373,1.254,0.373c0.479,0,0.862-0.097,1.152-0.291c0.289-0.194,0.434-0.452,0.434-0.776
		c0-0.342-0.129-0.607-0.386-0.796c-0.258-0.189-0.706-0.352-1.347-0.489c-0.64-0.137-1.148-0.301-1.524-0.492
		c-0.376-0.191-0.654-0.419-0.834-0.684c-0.18-0.264-0.27-0.579-0.27-0.943c0-0.606,0.256-1.119,0.769-1.538
		c0.513-0.419,1.168-0.629,1.965-0.629c0.838,0,1.519,0.216,2.041,0.649c0.522,0.433,0.783,0.987,0.783,1.661h-1.271
		c0-0.346-0.147-0.645-0.441-0.895c-0.294-0.251-0.664-0.376-1.111-0.376c-0.46,0-0.82,0.1-1.08,0.301
		c-0.26,0.201-0.39,0.463-0.39,0.786c0,0.305,0.121,0.536,0.362,0.69c0.242,0.155,0.678,0.303,1.309,0.444
		c0.631,0.141,1.143,0.31,1.535,0.506c0.392,0.196,0.682,0.432,0.872,0.708c0.189,0.276,0.284,0.612,0.284,1.008
		c0,0.661-0.264,1.191-0.793,1.589C236.391,87.724,235.705,87.923,234.862,87.923 M223.586,87.923c-1.003,0-1.815-0.349-2.437-1.046
		c-0.622-0.697-0.933-1.62-0.933-2.769v-0.089c0-0.725,0.142-1.376,0.427-1.955c0.285-0.579,0.681-1.025,1.189-1.34
		c0.508-0.314,1.088-0.472,1.74-0.472c1.007,0,1.822,0.349,2.444,1.046c0.622,0.697,0.933,1.625,0.933,2.782v0.089
		c0,0.72-0.138,1.366-0.414,1.938c-0.276,0.572-0.67,1.017-1.183,1.336C224.841,87.763,224.252,87.923,223.586,87.923
		 M223.573,81.292c-0.624,0-1.128,0.248-1.511,0.745c-0.383,0.497-0.574,1.208-0.574,2.133c0,0.82,0.19,1.479,0.571,1.976
		c0.38,0.497,0.89,0.745,1.528,0.745c0.643,0,1.153-0.252,1.531-0.755c0.378-0.504,0.567-1.209,0.567-2.116
		c0-0.811-0.193-1.469-0.578-1.972C224.722,81.544,224.211,81.292,223.573,81.292 M218.341,87.923c-0.565,0-0.991-0.171-1.278-0.513
		c-0.287-0.342-0.431-0.827-0.431-1.456v-4.587h-1.347V80.39h1.347v-1.791h1.265v1.791h1.381v0.978h-1.381v4.593
		c0,0.297,0.061,0.519,0.185,0.667c0.123,0.148,0.333,0.222,0.629,0.222c0.146,0,0.346-0.027,0.602-0.082v1.019
		C218.979,87.878,218.656,87.923,218.341,87.923 M207.257,87.923c-0.789,0-1.389-0.229-1.801-0.687
		c-0.412-0.458-0.621-1.136-0.626-2.034V80.39h1.265v4.778c0,1.121,0.456,1.682,1.367,1.682c0.966,0,1.609-0.36,1.928-1.08v-5.38
		h1.265v7.397h-1.203l-0.027-0.731C208.932,87.634,208.209,87.923,207.257,87.923 M199.866,87.923c-1.003,0-1.815-0.349-2.437-1.046
		c-0.622-0.697-0.933-1.62-0.933-2.769v-0.089c0-0.725,0.142-1.376,0.427-1.955c0.285-0.579,0.681-1.025,1.189-1.34
		c0.508-0.314,1.088-0.472,1.74-0.472c1.007,0,1.822,0.349,2.444,1.046c0.622,0.697,0.933,1.625,0.933,2.782v0.089
		c0,0.72-0.138,1.366-0.414,1.938c-0.276,0.572-0.67,1.017-1.183,1.336C201.12,87.763,200.531,87.923,199.866,87.923
		 M199.852,81.292c-0.624,0-1.128,0.248-1.511,0.745c-0.383,0.497-0.574,1.208-0.574,2.133c0,0.82,0.19,1.479,0.571,1.976
		c0.381,0.497,0.89,0.745,1.528,0.745c0.643,0,1.153-0.252,1.531-0.755c0.378-0.504,0.567-1.209,0.567-2.116
		c0-0.811-0.193-1.469-0.578-1.972C201.002,81.544,200.49,81.292,199.852,81.292 M182.403,87.923c-1.003,0-1.818-0.329-2.447-0.988
		c-0.629-0.658-0.943-1.539-0.943-2.642v-0.232c0-0.734,0.14-1.389,0.42-1.965c0.28-0.576,0.672-1.028,1.176-1.354
		c0.504-0.326,1.049-0.489,1.637-0.489c0.961,0,1.709,0.317,2.242,0.95c0.533,0.633,0.8,1.54,0.8,2.721v0.526h-5.011
		c0.018,0.729,0.231,1.318,0.639,1.767c0.408,0.449,0.926,0.673,1.555,0.673c0.447,0,0.825-0.091,1.135-0.273
		c0.31-0.182,0.581-0.424,0.813-0.725l0.772,0.602C184.572,87.447,183.643,87.923,182.403,87.923 M182.246,81.292
		c-0.51,0-0.939,0.186-1.285,0.557c-0.346,0.372-0.561,0.892-0.643,1.562h3.705v-0.096c-0.037-0.643-0.21-1.14-0.52-1.494
		C183.194,81.469,182.775,81.292,182.246,81.292 M174.872,87.923c-1.007,0-1.808-0.336-2.403-1.008
		c-0.595-0.672-0.892-1.592-0.892-2.758v-0.212c0-0.72,0.132-1.36,0.397-1.921c0.264-0.561,0.644-0.996,1.138-1.306
		c0.494-0.31,1.079-0.465,1.753-0.465c0.829,0,1.519,0.248,2.068,0.745c0.549,0.497,0.842,1.142,0.878,1.935h-1.196
		c-0.037-0.479-0.218-0.872-0.543-1.179c-0.326-0.308-0.728-0.461-1.207-0.461c-0.643,0-1.14,0.231-1.494,0.694
		c-0.353,0.463-0.53,1.131-0.53,2.006v0.239c0,0.852,0.175,1.508,0.526,1.969c0.351,0.46,0.852,0.69,1.504,0.69
		c0.451,0,0.845-0.137,1.183-0.41c0.337-0.273,0.524-0.615,0.561-1.025h1.196c-0.023,0.424-0.169,0.827-0.438,1.21
		c-0.269,0.383-0.628,0.688-1.077,0.916C175.848,87.809,175.373,87.923,174.872,87.923 M166.514,87.923
		c-0.789,0-1.389-0.229-1.801-0.687s-0.621-1.136-0.625-2.034V80.39h1.265v4.778c0,1.121,0.456,1.682,1.367,1.682
		c0.966,0,1.609-0.36,1.928-1.08v-5.38h1.265v7.397h-1.203l-0.027-0.731C168.189,87.634,167.466,87.923,166.514,87.923
		 M158.77,87.923c-0.857,0-1.555-0.351-2.095-1.053c-0.54-0.702-0.81-1.618-0.81-2.748v-0.096c0-1.135,0.269-2.047,0.807-2.738
		c0.538-0.69,1.242-1.036,2.112-1.036c0.866,0,1.552,0.296,2.058,0.889v-3.855h1.265v10.5h-1.162l-0.062-0.793
		C160.377,87.613,159.673,87.923,158.77,87.923 M159.098,81.326c-0.62,0-1.103,0.239-1.449,0.718
		c-0.346,0.479-0.52,1.187-0.52,2.126c0,0.839,0.173,1.495,0.52,1.969c0.346,0.474,0.825,0.711,1.436,0.711
		c0.802,0,1.388-0.36,1.757-1.08v-3.397C160.463,81.675,159.882,81.326,159.098,81.326 M151.179,87.923
		c-1.003,0-1.815-0.349-2.437-1.046c-0.622-0.697-0.933-1.62-0.933-2.769v-0.089c0-0.725,0.142-1.376,0.427-1.955
		c0.285-0.579,0.681-1.025,1.189-1.34c0.508-0.314,1.088-0.472,1.74-0.472c1.007,0,1.822,0.349,2.444,1.046
		c0.622,0.697,0.933,1.625,0.933,2.782v0.089c0,0.72-0.138,1.366-0.414,1.938c-0.276,0.572-0.67,1.017-1.183,1.336
		C152.433,87.763,151.844,87.923,151.179,87.923 M151.165,81.292c-0.624,0-1.128,0.248-1.511,0.745
		c-0.383,0.497-0.574,1.208-0.574,2.133c0,0.82,0.19,1.479,0.571,1.976c0.38,0.497,0.89,0.745,1.528,0.745
		c0.643,0,1.153-0.252,1.531-0.755c0.378-0.504,0.567-1.209,0.567-2.116c0-0.811-0.193-1.469-0.578-1.972
		C152.314,81.544,151.803,81.292,151.165,81.292 M141.06,87.923c-0.565,0-0.991-0.171-1.278-0.513
		c-0.287-0.342-0.431-0.827-0.431-1.456v-4.587h-1.347V80.39h1.347v-1.791h1.265v1.791h1.381v0.978h-1.381v4.593
		c0,0.297,0.062,0.519,0.185,0.667c0.123,0.148,0.333,0.222,0.629,0.222c0.146,0,0.346-0.027,0.602-0.082v1.019
		C141.698,87.878,141.375,87.923,141.06,87.923 M119.724,87.923c-1.003,0-1.818-0.329-2.447-0.988
		c-0.629-0.658-0.943-1.539-0.943-2.642v-0.232c0-0.734,0.14-1.389,0.42-1.965c0.28-0.576,0.672-1.028,1.176-1.354
		c0.504-0.326,1.049-0.489,1.637-0.489c0.962,0,1.709,0.317,2.242,0.95c0.533,0.633,0.8,1.54,0.8,2.721v0.526h-5.011
		c0.018,0.729,0.231,1.318,0.639,1.767c0.408,0.449,0.926,0.673,1.555,0.673c0.447,0,0.825-0.091,1.135-0.273
		c0.31-0.182,0.581-0.424,0.813-0.725l0.772,0.602C121.893,87.447,120.963,87.923,119.724,87.923 M119.567,81.292
		c-0.51,0-0.939,0.186-1.285,0.557c-0.346,0.372-0.561,0.892-0.643,1.562h3.705v-0.096c-0.037-0.643-0.21-1.14-0.52-1.494
		C120.514,81.469,120.095,81.292,119.567,81.292 M87.032,87.923c-1.003,0-1.815-0.349-2.437-1.046
		c-0.622-0.697-0.933-1.62-0.933-2.769v-0.089c0-0.725,0.142-1.376,0.427-1.955c0.285-0.579,0.681-1.025,1.189-1.34
		c0.508-0.314,1.088-0.472,1.74-0.472c1.007,0,1.822,0.349,2.444,1.046c0.622,0.697,0.933,1.625,0.933,2.782v0.089
		c0,0.72-0.138,1.366-0.414,1.938c-0.276,0.572-0.67,1.017-1.183,1.336C88.286,87.763,87.697,87.923,87.032,87.923 M87.018,81.292
		c-0.624,0-1.128,0.248-1.511,0.745c-0.383,0.497-0.574,1.208-0.574,2.133c0,0.82,0.19,1.479,0.571,1.976
		c0.381,0.497,0.89,0.745,1.528,0.745c0.643,0,1.153-0.252,1.531-0.755c0.378-0.504,0.567-1.209,0.567-2.116
		c0-0.811-0.193-1.469-0.578-1.972C88.168,81.544,87.656,81.292,87.018,81.292 M78.296,87.923c-0.565,0-0.991-0.171-1.278-0.513
		c-0.287-0.342-0.431-0.827-0.431-1.456v-4.587H75.24V80.39h1.347v-1.791h1.265v1.791h1.381v0.978h-1.381v4.593
		c0,0.297,0.062,0.519,0.185,0.667c0.123,0.148,0.333,0.222,0.629,0.222c0.146,0,0.346-0.027,0.602-0.082v1.019
		C78.934,87.878,78.61,87.923,78.296,87.923 M71.533,87.923c-1.007,0-1.808-0.336-2.403-1.008c-0.595-0.672-0.892-1.592-0.892-2.758
		v-0.212c0-0.72,0.132-1.36,0.396-1.921s0.644-0.996,1.138-1.306c0.494-0.31,1.079-0.465,1.753-0.465
		c0.829,0,1.519,0.248,2.068,0.745c0.549,0.497,0.842,1.142,0.878,1.935h-1.196c-0.037-0.479-0.218-0.872-0.544-1.179
		c-0.326-0.308-0.728-0.461-1.207-0.461c-0.643,0-1.14,0.231-1.494,0.694c-0.353,0.463-0.53,1.131-0.53,2.006v0.239
		c0,0.852,0.175,1.508,0.526,1.969c0.351,0.46,0.852,0.69,1.504,0.69c0.451,0,0.845-0.137,1.183-0.41
		c0.337-0.273,0.524-0.615,0.561-1.025h1.196c-0.023,0.424-0.169,0.827-0.438,1.21c-0.269,0.383-0.628,0.688-1.077,0.916
		C72.51,87.809,72.035,87.923,71.533,87.923 M64.1,87.923c-1.003,0-1.818-0.329-2.447-0.988c-0.629-0.658-0.943-1.539-0.943-2.642
		v-0.232c0-0.734,0.14-1.389,0.42-1.965c0.28-0.576,0.672-1.028,1.176-1.354c0.504-0.326,1.049-0.489,1.637-0.489
		c0.962,0,1.709,0.317,2.242,0.95c0.533,0.633,0.8,1.54,0.8,2.721v0.526h-5.011c0.018,0.729,0.231,1.318,0.639,1.767
		c0.408,0.449,0.926,0.673,1.555,0.673c0.447,0,0.825-0.091,1.135-0.273c0.31-0.182,0.581-0.424,0.813-0.725l0.772,0.602
		C66.269,87.447,65.339,87.923,64.1,87.923 M63.943,81.292c-0.51,0-0.939,0.186-1.285,0.557c-0.346,0.372-0.561,0.892-0.643,1.562
		h3.705v-0.096c-0.037-0.643-0.21-1.14-0.52-1.494C64.89,81.469,64.471,81.292,63.943,81.292 M56.56,87.923
		c-0.593,0-1.117-0.105-1.572-0.314c-0.456-0.21-0.812-0.502-1.07-0.878c-0.257-0.376-0.386-0.783-0.386-1.22h1.265
		c0.023,0.424,0.192,0.76,0.509,1.008c0.317,0.249,0.735,0.373,1.254,0.373c0.479,0,0.862-0.097,1.152-0.291
		c0.289-0.194,0.434-0.452,0.434-0.776c0-0.342-0.129-0.607-0.386-0.796c-0.257-0.189-0.706-0.352-1.347-0.489
		c-0.64-0.137-1.148-0.301-1.524-0.492c-0.376-0.191-0.654-0.419-0.834-0.684c-0.18-0.264-0.27-0.579-0.27-0.943
		c0-0.606,0.256-1.119,0.769-1.538c0.513-0.419,1.168-0.629,1.965-0.629c0.839,0,1.519,0.216,2.041,0.649
		c0.522,0.433,0.783,0.987,0.783,1.661h-1.271c0-0.346-0.147-0.645-0.441-0.895c-0.294-0.251-0.664-0.376-1.111-0.376
		c-0.46,0-0.82,0.1-1.08,0.301c-0.26,0.201-0.39,0.463-0.39,0.786c0,0.305,0.121,0.536,0.362,0.69
		c0.242,0.155,0.678,0.303,1.309,0.444c0.631,0.141,1.143,0.31,1.535,0.506c0.392,0.196,0.682,0.432,0.872,0.708
		c0.189,0.276,0.284,0.612,0.284,1.008c0,0.661-0.264,1.191-0.793,1.589C58.089,87.724,57.403,87.923,56.56,87.923 M45.736,87.923
		c-0.593,0-1.117-0.105-1.572-0.314c-0.456-0.21-0.812-0.502-1.07-0.878c-0.257-0.376-0.386-0.783-0.386-1.22h1.265
		c0.023,0.424,0.192,0.76,0.509,1.008c0.317,0.249,0.735,0.373,1.254,0.373c0.478,0,0.862-0.097,1.152-0.291
		c0.289-0.194,0.434-0.452,0.434-0.776c0-0.342-0.129-0.607-0.386-0.796c-0.258-0.189-0.706-0.352-1.347-0.489
		c-0.64-0.137-1.148-0.301-1.524-0.492c-0.376-0.191-0.654-0.419-0.834-0.684c-0.18-0.264-0.27-0.579-0.27-0.943
		c0-0.606,0.256-1.119,0.769-1.538c0.513-0.419,1.168-0.629,1.965-0.629c0.838,0,1.519,0.216,2.041,0.649
		c0.522,0.433,0.783,0.987,0.783,1.661h-1.271c0-0.346-0.147-0.645-0.441-0.895c-0.294-0.251-0.664-0.376-1.111-0.376
		c-0.46,0-0.82,0.1-1.08,0.301c-0.26,0.201-0.39,0.463-0.39,0.786c0,0.305,0.121,0.536,0.362,0.69
		c0.241,0.155,0.678,0.303,1.309,0.444c0.631,0.141,1.143,0.31,1.535,0.506c0.392,0.196,0.682,0.432,0.872,0.708
		c0.189,0.276,0.284,0.612,0.284,1.008c0,0.661-0.264,1.191-0.793,1.589C47.265,87.724,46.579,87.923,45.736,87.923 M29.601,87.923
		c-0.565,0-0.991-0.171-1.278-0.513c-0.287-0.342-0.431-0.827-0.431-1.456v-4.587h-1.347V80.39h1.347v-1.791h1.265v1.791h1.381
		v0.978h-1.381v4.593c0,0.297,0.062,0.519,0.185,0.667c0.123,0.148,0.333,0.222,0.629,0.222c0.146,0,0.346-0.027,0.602-0.082v1.019
		C30.239,87.878,29.916,87.923,29.601,87.923 M280.407,87.786h-1.265v-6.419h-1.169V80.39h1.169v-0.759
		c0-0.793,0.212-1.406,0.636-1.839c0.424-0.433,1.023-0.649,1.798-0.649c0.292,0,0.581,0.039,0.868,0.116l-0.068,1.019
		c-0.214-0.041-0.442-0.062-0.684-0.062c-0.41,0-0.727,0.12-0.95,0.36s-0.335,0.584-0.335,1.032v0.782h1.579v0.978h-1.579V87.786
		 M257.73,87.786h-1.265v-4.881c0-0.529-0.121-0.924-0.362-1.186c-0.242-0.262-0.647-0.393-1.217-0.393
		c-0.469,0-0.859,0.14-1.169,0.42c-0.31,0.28-0.49,0.657-0.54,1.131v4.908h-1.272v-4.847c0-1.075-0.526-1.613-1.579-1.613
		c-0.83,0-1.397,0.353-1.702,1.06v5.4h-1.265V80.39h1.196l0.034,0.82c0.542-0.638,1.274-0.957,2.194-0.957
		c1.035,0,1.739,0.397,2.112,1.189c0.246-0.355,0.566-0.643,0.96-0.861c0.394-0.219,0.86-0.328,1.398-0.328
		c1.622,0,2.447,0.859,2.475,2.577V87.786 M144.696,87.786h-1.265V80.39h1.231l0.02,0.855c0.415-0.661,1.003-0.991,1.764-0.991
		c0.246,0,0.433,0.032,0.561,0.096v1.176c-0.191-0.032-0.399-0.048-0.622-0.048c-0.829,0-1.392,0.353-1.688,1.06V87.786
		 M136.909,87.786h-1.265v-4.895c-0.005-0.533-0.126-0.927-0.366-1.183c-0.239-0.255-0.612-0.383-1.118-0.383
		c-0.41,0-0.77,0.109-1.08,0.328c-0.31,0.219-0.551,0.506-0.725,0.861v5.271h-1.265V80.39h1.196l0.041,0.93
		c0.565-0.711,1.303-1.066,2.215-1.066c1.563,0,2.352,0.882,2.365,2.646V87.786 M129.051,87.786h-1.265V80.39h1.265V87.786
		 M113.39,87.786h-1.025l-1.798-5.605l-1.75,5.605h-1.025l-2.146-7.397h1.258l1.456,5.537l1.723-5.537h1.019l1.757,5.653
		l1.422-5.653h1.265L113.39,87.786 M97.849,87.786h-1.265v-4.895c-0.005-0.533-0.126-0.927-0.366-1.183
		c-0.239-0.255-0.612-0.383-1.118-0.383c-0.41,0-0.77,0.109-1.08,0.328c-0.31,0.219-0.551,0.506-0.725,0.861v5.271h-1.265V80.39
		h1.196l0.041,0.93c0.565-0.711,1.303-1.066,2.215-1.066c1.563,0,2.352,0.882,2.365,2.646V87.786 M81.985,87.786H80.72V80.39h1.265
		V87.786 M41.045,87.786H39.78V80.39h1.265V87.786 M37.79,87.786h-1.265v-4.895c-0.005-0.533-0.127-0.927-0.366-1.183
		c-0.239-0.255-0.612-0.383-1.118-0.383c-0.41,0-0.77,0.109-1.08,0.328c-0.31,0.219-0.551,0.506-0.725,0.861v5.271h-1.265v-10.5
		h1.265v3.999c0.561-0.688,1.29-1.032,2.188-1.032c1.563,0,2.352,0.882,2.365,2.646V87.786 M21.928,87.786h-1.265v-4.895
		c-0.005-0.533-0.126-0.927-0.366-1.183c-0.239-0.255-0.612-0.383-1.118-0.383c-0.41,0-0.77,0.109-1.08,0.328
		c-0.31,0.219-0.551,0.506-0.725,0.861v5.271h-1.265V80.39h1.196l0.041,0.93c0.565-0.711,1.303-1.066,2.215-1.066
		c1.563,0,2.352,0.882,2.365,2.646V87.786 M13.879,87.786h-1.312v-9.953h1.312V87.786 M128.429,79.146
		c-0.246,0-0.432-0.068-0.557-0.205c-0.125-0.137-0.188-0.308-0.188-0.513c0-0.205,0.063-0.378,0.188-0.52
		c0.125-0.141,0.311-0.212,0.557-0.212c0.246,0,0.433,0.071,0.561,0.212c0.128,0.141,0.191,0.314,0.191,0.52
		c0,0.205-0.064,0.376-0.191,0.513C128.862,79.077,128.675,79.146,128.429,79.146 M81.363,79.146c-0.246,0-0.432-0.068-0.557-0.205
		c-0.125-0.137-0.188-0.308-0.188-0.513c0-0.205,0.063-0.378,0.188-0.52c0.125-0.141,0.311-0.212,0.557-0.212
		s0.433,0.071,0.561,0.212c0.128,0.141,0.191,0.314,0.191,0.52c0,0.205-0.064,0.376-0.191,0.513
		C81.795,79.077,81.609,79.146,81.363,79.146 M40.423,79.146c-0.246,0-0.432-0.068-0.557-0.205
		c-0.125-0.137-0.188-0.308-0.188-0.513c0-0.205,0.063-0.378,0.188-0.52c0.125-0.141,0.311-0.212,0.557-0.212
		s0.433,0.071,0.561,0.212c0.128,0.141,0.191,0.314,0.191,0.52c0,0.205-0.064,0.376-0.191,0.513
		C40.856,79.077,40.669,79.146,40.423,79.146"/>
	<path fill="#000000" d="M252.913,108.773l-0.239-0.02l-0.472-0.089v-1.025l0.342,0.027c0.428,0,0.762-0.087,1.001-0.26
		c0.239-0.173,0.436-0.49,0.591-0.95l0.28-0.752l-2.639-7.314h1.381l1.846,5.544l1.723-5.544h1.354l-2.974,8.538
		C254.647,108.158,253.915,108.773,252.913,108.773 M94.362,108.63h-1.265V98.39h1.155l0.062,0.82
		c0.515-0.638,1.231-0.957,2.146-0.957c0.889,0,1.592,0.335,2.109,1.005c0.517,0.67,0.776,1.602,0.776,2.796v0.116
		c0,1.126-0.258,2.033-0.772,2.721c-0.515,0.688-1.212,1.032-2.092,1.032c-0.898,0-1.604-0.285-2.119-0.854V108.63 M96.085,99.326
		c-0.766,0-1.34,0.34-1.723,1.018v3.534c0.378,0.674,0.957,1.012,1.736,1.012c0.606,0,1.088-0.24,1.446-0.721
		c0.358-0.481,0.537-1.195,0.537-2.143c0-0.834-0.178-1.492-0.533-1.976C97.192,99.568,96.705,99.326,96.085,99.326 M86.428,108.63
		h-1.265V98.39h1.155l0.062,0.82c0.515-0.638,1.23-0.957,2.146-0.957c0.889,0,1.592,0.335,2.109,1.005
		c0.517,0.67,0.776,1.602,0.776,2.796v0.116c0,1.126-0.257,2.033-0.772,2.721c-0.515,0.688-1.212,1.032-2.092,1.032
		c-0.898,0-1.604-0.285-2.119-0.854V108.63 M88.151,99.326c-0.766,0-1.34,0.34-1.723,1.018v3.534
		c0.378,0.674,0.957,1.012,1.736,1.012c0.606,0,1.088-0.24,1.446-0.721c0.358-0.481,0.537-1.195,0.537-2.143
		c0-0.834-0.178-1.492-0.533-1.976C89.258,99.568,88.77,99.326,88.151,99.326 M269.485,105.923c-0.788,0-1.389-0.229-1.801-0.687
		c-0.413-0.458-0.621-1.136-0.625-2.034V98.39h1.265v4.778c0,1.121,0.456,1.682,1.367,1.682c0.966,0,1.609-0.36,1.928-1.08v-5.38
		h1.265v7.396h-1.203l-0.027-0.731C271.16,105.634,270.437,105.923,269.485,105.923 M262.094,105.923
		c-1.003,0-1.815-0.349-2.437-1.046c-0.622-0.697-0.933-1.62-0.933-2.769v-0.089c0-0.725,0.142-1.376,0.427-1.955
		c0.285-0.579,0.681-1.025,1.189-1.34c0.508-0.314,1.088-0.472,1.74-0.472c1.007,0,1.822,0.349,2.444,1.046
		c0.622,0.697,0.933,1.625,0.933,2.782v0.089c0,0.72-0.138,1.366-0.414,1.938c-0.276,0.572-0.67,1.017-1.183,1.336
		C263.348,105.763,262.759,105.923,262.094,105.923 M262.08,99.292c-0.624,0-1.128,0.248-1.511,0.745
		c-0.383,0.497-0.574,1.208-0.574,2.133c0,0.82,0.19,1.479,0.571,1.976c0.38,0.497,0.89,0.745,1.528,0.745
		c0.643,0,1.153-0.252,1.531-0.755c0.378-0.504,0.567-1.209,0.567-2.116c0-0.811-0.193-1.469-0.578-1.972
		C263.23,99.544,262.718,99.292,262.08,99.292 M244.03,105.923c-1.003,0-1.815-0.349-2.437-1.046
		c-0.622-0.697-0.933-1.62-0.933-2.769v-0.089c0-0.725,0.142-1.376,0.427-1.955c0.285-0.579,0.681-1.025,1.189-1.34
		c0.508-0.314,1.088-0.472,1.74-0.472c1.007,0,1.822,0.349,2.444,1.046c0.622,0.697,0.933,1.625,0.933,2.782v0.089
		c0,0.72-0.138,1.366-0.414,1.938c-0.276,0.572-0.67,1.017-1.183,1.336C245.284,105.763,244.695,105.923,244.03,105.923
		 M244.016,99.292c-0.624,0-1.128,0.248-1.511,0.745c-0.383,0.497-0.574,1.208-0.574,2.133c0,0.82,0.19,1.479,0.571,1.976
		c0.38,0.497,0.89,0.745,1.528,0.745c0.643,0,1.153-0.252,1.531-0.755c0.378-0.504,0.567-1.209,0.567-2.116
		c0-0.811-0.193-1.469-0.578-1.972C245.165,99.544,244.654,99.292,244.016,99.292 M238.784,105.923
		c-0.565,0-0.991-0.171-1.278-0.513c-0.287-0.342-0.431-0.827-0.431-1.456v-4.587h-1.347V98.39h1.347v-1.791h1.265v1.791h1.381
		v0.977h-1.381v4.593c0,0.297,0.062,0.519,0.185,0.667c0.123,0.148,0.333,0.222,0.629,0.222c0.146,0,0.346-0.027,0.602-0.082v1.019
		C239.422,105.878,239.099,105.923,238.784,105.923 M228.671,105.923c-1.003,0-1.818-0.329-2.447-0.988
		c-0.629-0.658-0.943-1.539-0.943-2.642v-0.232c0-0.734,0.14-1.389,0.42-1.965c0.28-0.576,0.672-1.028,1.176-1.354
		c0.503-0.326,1.049-0.489,1.637-0.489c0.962,0,1.709,0.317,2.242,0.95c0.533,0.633,0.8,1.54,0.8,2.721v0.526h-5.011
		c0.018,0.729,0.231,1.318,0.639,1.767c0.408,0.449,0.926,0.673,1.555,0.673c0.447,0,0.825-0.091,1.135-0.273
		c0.31-0.182,0.581-0.424,0.814-0.725l0.772,0.602C230.84,105.447,229.91,105.923,228.671,105.923 M228.514,99.292
		c-0.51,0-0.939,0.186-1.285,0.557c-0.346,0.372-0.561,0.892-0.643,1.562h3.705v-0.096c-0.036-0.643-0.21-1.14-0.52-1.494
		C229.461,99.469,229.042,99.292,228.514,99.292 M217.67,105.923c-0.934,0-1.657-0.33-2.167-0.991l-0.062,0.854h-1.162v-10.5h1.265
		v3.917c0.51-0.633,1.214-0.95,2.112-0.95c0.898,0,1.603,0.34,2.116,1.019c0.513,0.679,0.769,1.609,0.769,2.789v0.109
		c0,1.13-0.26,2.038-0.779,2.724C219.242,105.58,218.545,105.923,217.67,105.923 M217.342,99.326c-0.834,0-1.433,0.387-1.798,1.162
		v3.199c0.387,0.775,0.991,1.162,1.812,1.162c0.606,0,1.078-0.235,1.415-0.704c0.337-0.469,0.506-1.176,0.506-2.119
		c0-0.861-0.166-1.527-0.499-1.996C218.445,99.561,217.966,99.326,217.342,99.326 M208.924,105.923
		c-0.729,0-1.327-0.206-1.794-0.619c-0.467-0.412-0.701-0.935-0.701-1.569c0-0.77,0.293-1.368,0.878-1.794
		c0.586-0.426,1.409-0.639,2.471-0.639h1.231v-0.581c0-0.442-0.132-0.794-0.397-1.056c-0.264-0.262-0.654-0.393-1.169-0.393
		c-0.451,0-0.829,0.114-1.135,0.342c-0.305,0.228-0.458,0.504-0.458,0.827h-1.272c0-0.369,0.131-0.726,0.393-1.07
		c0.262-0.344,0.618-0.616,1.066-0.817c0.449-0.201,0.942-0.301,1.48-0.301c0.852,0,1.52,0.213,2.003,0.639
		c0.483,0.426,0.734,1.013,0.752,1.76v3.404c0,0.679,0.087,1.219,0.26,1.62v0.109h-1.326c-0.073-0.146-0.132-0.406-0.178-0.779
		C210.441,105.618,209.739,105.923,208.924,105.923 M210.017,102.197c-1.55,0-2.324,0.453-2.324,1.36
		c0,0.397,0.132,0.706,0.396,0.93c0.264,0.223,0.604,0.335,1.019,0.335c0.396,0,0.772-0.103,1.128-0.308
		c0.355-0.205,0.613-0.472,0.772-0.8v-1.518H210.017 M194.637,105.923c-0.729,0-1.327-0.206-1.794-0.619
		c-0.467-0.412-0.701-0.935-0.701-1.569c0-0.77,0.293-1.368,0.878-1.794c0.585-0.426,1.409-0.639,2.471-0.639h1.23v-0.581
		c0-0.442-0.132-0.794-0.396-1.056c-0.264-0.262-0.654-0.393-1.169-0.393c-0.451,0-0.829,0.114-1.135,0.342
		c-0.305,0.228-0.458,0.504-0.458,0.827h-1.271c0-0.369,0.131-0.726,0.393-1.07c0.262-0.344,0.618-0.616,1.066-0.817
		c0.449-0.201,0.942-0.301,1.48-0.301c0.852,0,1.52,0.213,2.003,0.639c0.483,0.426,0.734,1.013,0.752,1.76v3.404
		c0,0.679,0.087,1.219,0.26,1.62v0.109h-1.326c-0.073-0.146-0.132-0.406-0.178-0.779
		C196.154,105.618,195.452,105.923,194.637,105.923 M195.73,102.197c-1.55,0-2.324,0.453-2.324,1.36c0,0.397,0.132,0.706,0.397,0.93
		c0.264,0.223,0.604,0.335,1.019,0.335c0.397,0,0.772-0.103,1.128-0.308c0.355-0.205,0.613-0.472,0.772-0.8v-1.518H195.73
		 M180.62,105.923c-0.729,0-1.327-0.206-1.794-0.619c-0.467-0.412-0.701-0.935-0.701-1.569c0-0.77,0.293-1.368,0.878-1.794
		c0.586-0.426,1.409-0.639,2.471-0.639h1.231v-0.581c0-0.442-0.132-0.794-0.397-1.056c-0.264-0.262-0.654-0.393-1.169-0.393
		c-0.451,0-0.829,0.114-1.135,0.342c-0.305,0.228-0.458,0.504-0.458,0.827h-1.271c0-0.369,0.131-0.726,0.393-1.07
		c0.262-0.344,0.617-0.616,1.066-0.817c0.449-0.201,0.942-0.301,1.48-0.301c0.852,0,1.52,0.213,2.003,0.639
		c0.483,0.426,0.734,1.013,0.752,1.76v3.404c0,0.679,0.087,1.219,0.26,1.62v0.109h-1.326c-0.073-0.146-0.132-0.406-0.178-0.779
		C182.137,105.618,181.435,105.923,180.62,105.923 M181.713,102.197c-1.55,0-2.324,0.453-2.324,1.36c0,0.397,0.132,0.706,0.396,0.93
		c0.264,0.223,0.604,0.335,1.019,0.335c0.396,0,0.772-0.103,1.128-0.308c0.355-0.205,0.613-0.472,0.772-0.8v-1.518H181.713
		 M170.233,105.923c-0.593,0-1.117-0.105-1.572-0.314c-0.456-0.21-0.812-0.502-1.07-0.878c-0.257-0.376-0.386-0.783-0.386-1.22
		h1.265c0.023,0.424,0.192,0.76,0.509,1.008c0.317,0.249,0.735,0.373,1.254,0.373c0.479,0,0.862-0.097,1.152-0.291
		c0.289-0.194,0.434-0.452,0.434-0.776c0-0.342-0.129-0.607-0.386-0.796c-0.258-0.189-0.706-0.352-1.347-0.489
		c-0.64-0.137-1.148-0.301-1.524-0.492c-0.376-0.191-0.654-0.419-0.834-0.684c-0.18-0.264-0.27-0.579-0.27-0.943
		c0-0.606,0.256-1.119,0.769-1.538c0.513-0.419,1.168-0.629,1.965-0.629c0.838,0,1.519,0.217,2.041,0.649
		c0.522,0.433,0.783,0.987,0.783,1.661h-1.271c0-0.346-0.147-0.645-0.441-0.896c-0.294-0.251-0.664-0.376-1.111-0.376
		c-0.46,0-0.82,0.1-1.08,0.301c-0.26,0.201-0.39,0.463-0.39,0.786c0,0.305,0.121,0.536,0.362,0.69
		c0.242,0.155,0.678,0.303,1.309,0.444c0.631,0.141,1.143,0.31,1.535,0.506c0.392,0.196,0.682,0.432,0.872,0.707
		c0.189,0.276,0.284,0.612,0.284,1.008c0,0.661-0.264,1.191-0.793,1.589C171.761,105.724,171.076,105.923,170.233,105.923
		 M163.159,105.923c-1.003,0-1.818-0.329-2.447-0.988c-0.629-0.658-0.943-1.539-0.943-2.642v-0.232c0-0.734,0.14-1.389,0.42-1.965
		c0.28-0.576,0.672-1.028,1.176-1.354c0.503-0.326,1.049-0.489,1.637-0.489c0.962,0,1.709,0.317,2.242,0.95
		c0.533,0.633,0.8,1.54,0.8,2.721v0.526h-5.011c0.018,0.729,0.231,1.318,0.639,1.767c0.408,0.449,0.926,0.673,1.555,0.673
		c0.447,0,0.825-0.091,1.135-0.273c0.31-0.182,0.581-0.424,0.814-0.725l0.772,0.602
		C165.328,105.447,164.398,105.923,163.159,105.923 M163.001,99.292c-0.51,0-0.939,0.186-1.285,0.557
		c-0.346,0.372-0.56,0.892-0.643,1.562h3.705v-0.096c-0.036-0.643-0.21-1.14-0.52-1.494
		C163.949,99.469,163.53,99.292,163.001,99.292 M155.627,105.923c-1.007,0-1.808-0.336-2.403-1.008
		c-0.595-0.672-0.892-1.592-0.892-2.758v-0.212c0-0.72,0.132-1.36,0.397-1.921c0.264-0.561,0.644-0.996,1.138-1.306
		c0.494-0.31,1.079-0.465,1.753-0.465c0.829,0,1.519,0.248,2.068,0.745c0.549,0.497,0.842,1.142,0.878,1.935h-1.196
		c-0.037-0.478-0.218-0.872-0.543-1.179c-0.326-0.308-0.728-0.461-1.207-0.461c-0.643,0-1.14,0.231-1.494,0.694
		c-0.353,0.463-0.53,1.131-0.53,2.006v0.239c0,0.852,0.175,1.508,0.526,1.969c0.351,0.46,0.852,0.69,1.504,0.69
		c0.451,0,0.845-0.137,1.183-0.41c0.337-0.273,0.524-0.615,0.561-1.025h1.196c-0.023,0.424-0.169,0.827-0.437,1.21
		c-0.269,0.383-0.628,0.688-1.077,0.916C156.603,105.809,156.128,105.923,155.627,105.923 M132.792,105.923
		c-1.003,0-1.818-0.329-2.447-0.988c-0.629-0.658-0.943-1.539-0.943-2.642v-0.232c0-0.734,0.14-1.389,0.42-1.965
		c0.28-0.576,0.672-1.028,1.176-1.354c0.504-0.326,1.049-0.489,1.637-0.489c0.962,0,1.709,0.317,2.242,0.95
		c0.533,0.633,0.8,1.54,0.8,2.721v0.526h-5.011c0.018,0.729,0.231,1.318,0.639,1.767c0.408,0.449,0.926,0.673,1.555,0.673
		c0.447,0,0.825-0.091,1.135-0.273c0.31-0.182,0.581-0.424,0.813-0.725l0.772,0.602
		C134.961,105.447,134.031,105.923,132.792,105.923 M132.635,99.292c-0.51,0-0.939,0.186-1.285,0.557
		c-0.346,0.372-0.561,0.892-0.643,1.562h3.705v-0.096c-0.037-0.643-0.21-1.14-0.52-1.494
		C133.582,99.469,133.163,99.292,132.635,99.292 M125.252,105.923c-0.592,0-1.117-0.105-1.572-0.314
		c-0.456-0.21-0.812-0.502-1.07-0.878c-0.257-0.376-0.386-0.783-0.386-1.22h1.265c0.023,0.424,0.192,0.76,0.509,1.008
		c0.317,0.249,0.735,0.373,1.254,0.373c0.479,0,0.862-0.097,1.152-0.291c0.289-0.194,0.434-0.452,0.434-0.776
		c0-0.342-0.129-0.607-0.386-0.796c-0.257-0.189-0.706-0.352-1.347-0.489c-0.64-0.137-1.148-0.301-1.524-0.492
		c-0.376-0.191-0.654-0.419-0.834-0.684c-0.18-0.264-0.27-0.579-0.27-0.943c0-0.606,0.256-1.119,0.769-1.538
		c0.513-0.419,1.168-0.629,1.965-0.629c0.839,0,1.519,0.217,2.041,0.649c0.522,0.433,0.783,0.987,0.783,1.661h-1.271
		c0-0.346-0.147-0.645-0.441-0.896c-0.294-0.251-0.664-0.376-1.111-0.376c-0.46,0-0.82,0.1-1.08,0.301
		c-0.26,0.201-0.39,0.463-0.39,0.786c0,0.305,0.121,0.536,0.362,0.69c0.241,0.155,0.678,0.303,1.309,0.444
		c0.631,0.141,1.143,0.31,1.535,0.506c0.392,0.196,0.682,0.432,0.872,0.707c0.189,0.276,0.284,0.612,0.284,1.008
		c0,0.661-0.264,1.191-0.793,1.589C126.781,105.724,126.095,105.923,125.252,105.923 M116.513,105.923
		c-0.565,0-0.991-0.171-1.278-0.513c-0.287-0.342-0.431-0.827-0.431-1.456v-4.587h-1.347V98.39h1.347v-1.791h1.265v1.791h1.381
		v0.977h-1.381v4.593c0,0.297,0.062,0.519,0.185,0.667c0.123,0.148,0.333,0.222,0.629,0.222c0.146,0,0.346-0.027,0.602-0.082v1.019
		C117.151,105.878,116.827,105.923,116.513,105.923 M104.066,105.923c-1.003,0-1.815-0.349-2.437-1.046
		c-0.622-0.697-0.933-1.62-0.933-2.769v-0.089c0-0.725,0.142-1.376,0.427-1.955c0.285-0.579,0.681-1.025,1.189-1.34
		c0.508-0.314,1.088-0.472,1.74-0.472c1.007,0,1.822,0.349,2.444,1.046c0.622,0.697,0.933,1.625,0.933,2.782v0.089
		c0,0.72-0.138,1.366-0.414,1.938c-0.276,0.572-0.67,1.017-1.183,1.336C105.32,105.763,104.731,105.923,104.066,105.923
		 M104.052,99.292c-0.624,0-1.128,0.248-1.511,0.745c-0.383,0.497-0.574,1.208-0.574,2.133c0,0.82,0.19,1.479,0.571,1.976
		c0.381,0.497,0.89,0.745,1.528,0.745c0.643,0,1.153-0.252,1.531-0.755c0.378-0.504,0.567-1.209,0.567-2.116
		c0-0.811-0.193-1.469-0.578-1.972C105.201,99.544,104.69,99.292,104.052,99.292 M79.782,105.923c-0.789,0-1.389-0.229-1.801-0.687
		c-0.412-0.458-0.621-1.136-0.625-2.034V98.39h1.265v4.778c0,1.121,0.456,1.682,1.367,1.682c0.966,0,1.609-0.36,1.928-1.08v-5.38
		h1.265v7.396h-1.203l-0.027-0.731C81.457,105.634,80.734,105.923,79.782,105.923 M72.873,105.923c-0.593,0-1.117-0.105-1.572-0.314
		c-0.456-0.21-0.812-0.502-1.07-0.878c-0.257-0.376-0.386-0.783-0.386-1.22h1.265c0.023,0.424,0.192,0.76,0.509,1.008
		c0.317,0.249,0.735,0.373,1.254,0.373c0.479,0,0.862-0.097,1.152-0.291c0.289-0.194,0.434-0.452,0.434-0.776
		c0-0.342-0.129-0.607-0.386-0.796c-0.258-0.189-0.706-0.352-1.347-0.489c-0.64-0.137-1.148-0.301-1.524-0.492
		c-0.376-0.191-0.654-0.419-0.834-0.684c-0.18-0.264-0.27-0.579-0.27-0.943c0-0.606,0.256-1.119,0.769-1.538
		c0.513-0.419,1.168-0.629,1.965-0.629c0.838,0,1.519,0.217,2.041,0.649c0.522,0.433,0.783,0.987,0.783,1.661h-1.271
		c0-0.346-0.147-0.645-0.441-0.896c-0.294-0.251-0.664-0.376-1.111-0.376c-0.46,0-0.82,0.1-1.08,0.301
		c-0.26,0.201-0.39,0.463-0.39,0.786c0,0.305,0.121,0.536,0.362,0.69c0.241,0.155,0.678,0.303,1.309,0.444
		c0.631,0.141,1.143,0.31,1.535,0.506c0.392,0.196,0.682,0.432,0.872,0.707c0.189,0.276,0.284,0.612,0.284,1.008
		c0,0.661-0.264,1.191-0.793,1.589C74.402,105.724,73.716,105.923,72.873,105.923 M50.116,105.923c-0.729,0-1.327-0.206-1.794-0.619
		c-0.467-0.412-0.701-0.935-0.701-1.569c0-0.77,0.293-1.368,0.878-1.794c0.586-0.426,1.409-0.639,2.471-0.639h1.231v-0.581
		c0-0.442-0.132-0.794-0.397-1.056c-0.264-0.262-0.654-0.393-1.169-0.393c-0.451,0-0.829,0.114-1.135,0.342
		c-0.305,0.228-0.458,0.504-0.458,0.827h-1.272c0-0.369,0.131-0.726,0.393-1.07c0.262-0.344,0.617-0.616,1.066-0.817
		c0.449-0.201,0.942-0.301,1.48-0.301c0.852,0,1.52,0.213,2.003,0.639c0.483,0.426,0.734,1.013,0.752,1.76v3.404
		c0,0.679,0.087,1.219,0.26,1.62v0.109H52.4c-0.073-0.146-0.132-0.406-0.178-0.779C51.634,105.618,50.932,105.923,50.116,105.923
		 M51.21,102.197c-1.55,0-2.324,0.453-2.324,1.36c0,0.397,0.132,0.706,0.396,0.93c0.264,0.223,0.604,0.335,1.019,0.335
		c0.396,0,0.772-0.103,1.128-0.308c0.355-0.205,0.613-0.472,0.772-0.8v-1.518H51.21 M27.639,105.923
		c-1.003,0-1.818-0.329-2.447-0.988c-0.629-0.658-0.943-1.539-0.943-2.642v-0.232c0-0.734,0.14-1.389,0.42-1.965
		c0.28-0.576,0.672-1.028,1.176-1.354c0.504-0.326,1.049-0.489,1.637-0.489c0.962,0,1.709,0.317,2.242,0.95
		c0.533,0.633,0.8,1.54,0.8,2.721v0.526h-5.011c0.018,0.729,0.231,1.318,0.639,1.767c0.408,0.449,0.926,0.673,1.555,0.673
		c0.447,0,0.825-0.091,1.135-0.273c0.31-0.182,0.581-0.424,0.813-0.725l0.772,0.602C29.808,105.447,28.878,105.923,27.639,105.923
		 M27.481,99.292c-0.51,0-0.939,0.186-1.285,0.557c-0.346,0.372-0.561,0.892-0.643,1.562h3.705v-0.096
		c-0.036-0.643-0.21-1.14-0.52-1.494C28.429,99.469,28.01,99.292,27.481,99.292 M14.433,105.923c-0.565,0-0.991-0.171-1.278-0.513
		c-0.287-0.342-0.431-0.827-0.431-1.456v-4.587h-1.347V98.39h1.347v-1.791h1.265v1.791h1.381v0.977h-1.381v4.593
		c0,0.297,0.062,0.519,0.185,0.667c0.123,0.148,0.333,0.222,0.629,0.222c0.146,0,0.346-0.027,0.602-0.082v1.019
		C15.071,105.878,14.747,105.923,14.433,105.923 M275.65,105.861c-0.26,0-0.455-0.071-0.584-0.212
		c-0.13-0.141-0.195-0.317-0.195-0.526c0-0.219,0.065-0.401,0.195-0.547c0.13-0.146,0.325-0.219,0.584-0.219
		s0.457,0.073,0.591,0.219c0.134,0.146,0.202,0.328,0.202,0.547c0,0.21-0.067,0.385-0.202,0.526
		C276.107,105.791,275.91,105.861,275.65,105.861 M223.551,105.786h-1.265v-10.5h1.265V105.786 M204.666,105.786h-1.265v-10.5h1.265
		V105.786 M201.302,105.786h-1.265V98.39h1.265V105.786 M188.644,105.786h-0.964L185,98.39h1.292l1.88,5.681l1.832-5.681h1.292
		L188.644,105.786 M150.648,105.786h-1.265V98.39h1.265V105.786 M145.388,105.786h-0.964l-2.68-7.396h1.292l1.88,5.681l1.832-5.681
		h1.292L145.388,105.786 M138.537,105.786h-1.265V98.39h1.231l0.02,0.854c0.415-0.661,1.003-0.991,1.764-0.991
		c0.246,0,0.433,0.032,0.561,0.096v1.176c-0.191-0.032-0.399-0.048-0.622-0.048c-0.829,0-1.392,0.353-1.688,1.06V105.786
		 M110.33,105.786h-1.265V98.39h1.231l0.02,0.854c0.415-0.661,1.003-0.991,1.764-0.991c0.246,0,0.433,0.032,0.561,0.096v1.176
		c-0.191-0.032-0.399-0.048-0.622-0.048c-0.83,0-1.392,0.353-1.689,1.06V105.786 M64.639,105.786h-1.265v-4.895
		c-0.005-0.533-0.127-0.927-0.366-1.183c-0.239-0.255-0.612-0.383-1.118-0.383c-0.41,0-0.77,0.109-1.08,0.328
		c-0.31,0.219-0.551,0.506-0.725,0.861v5.271h-1.265V98.39h1.196l0.041,0.93c0.565-0.711,1.303-1.066,2.215-1.066
		c1.563,0,2.352,0.882,2.365,2.646V105.786 M56.782,105.786h-1.265V98.39h1.265V105.786 M45.955,105.786h-1.265v-4.881
		c0-0.529-0.121-0.924-0.362-1.186c-0.242-0.262-0.647-0.393-1.217-0.393c-0.469,0-0.859,0.14-1.169,0.42
		c-0.31,0.28-0.49,0.657-0.54,1.131v4.908h-1.271v-4.847c0-1.076-0.526-1.613-1.579-1.613c-0.829,0-1.397,0.353-1.702,1.06v5.4
		h-1.265V98.39h1.196l0.034,0.82c0.542-0.638,1.274-0.957,2.194-0.957c1.035,0,1.739,0.397,2.112,1.189
		c0.246-0.355,0.566-0.643,0.96-0.861c0.394-0.219,0.86-0.328,1.398-0.328c1.622,0,2.447,0.859,2.475,2.577V105.786 M22.621,105.786
		h-1.265v-4.895c-0.005-0.533-0.126-0.927-0.366-1.183c-0.239-0.255-0.612-0.383-1.118-0.383c-0.41,0-0.77,0.109-1.08,0.328
		c-0.31,0.219-0.551,0.506-0.725,0.861v5.271h-1.265v-10.5h1.265v3.999c0.561-0.688,1.29-1.032,2.188-1.032
		c1.563,0,2.352,0.882,2.365,2.646V105.786 M200.68,97.146c-0.246,0-0.432-0.068-0.557-0.205c-0.125-0.137-0.188-0.308-0.188-0.513
		c0-0.205,0.063-0.378,0.188-0.52c0.125-0.141,0.311-0.212,0.557-0.212c0.246,0,0.433,0.071,0.561,0.212
		c0.128,0.141,0.191,0.314,0.191,0.52c0,0.205-0.064,0.376-0.191,0.513C201.113,97.077,200.926,97.146,200.68,97.146
		 M150.026,97.146c-0.246,0-0.432-0.068-0.557-0.205c-0.125-0.137-0.188-0.308-0.188-0.513c0-0.205,0.063-0.378,0.188-0.52
		c0.125-0.141,0.311-0.212,0.557-0.212c0.246,0,0.433,0.071,0.56,0.212c0.128,0.141,0.191,0.314,0.191,0.52
		c0,0.205-0.064,0.376-0.191,0.513C150.459,97.077,150.272,97.146,150.026,97.146 M56.16,97.146c-0.246,0-0.432-0.068-0.557-0.205
		c-0.125-0.137-0.188-0.308-0.188-0.513c0-0.205,0.063-0.378,0.188-0.52c0.125-0.141,0.311-0.212,0.557-0.212
		c0.246,0,0.433,0.071,0.561,0.212c0.128,0.141,0.191,0.314,0.191,0.52c0,0.205-0.064,0.376-0.191,0.513
		C56.593,97.077,56.406,97.146,56.16,97.146"/>
</g>
</svg>
