<!-- Generator: Adobe InDesign 20.4 SVG Export Plug-in, SVG Library version: 9.3 build 117 -->
<!DOCTYPE svg PUBLIC "-//W3C//DTD SVG 1.1//EN" "http://www.w3.org/Graphics/SVG/1.1/DTD/svg11.dtd">
<svg version="1.1" xmlns="http://www.w3.org/2000/svg" xmlns:xlink="http://www.w3.org/1999/xlink" x="0%" y="0%" width="100%"
	 height="100%" viewBox="0 0 316.485 119.178" preserveAspectRatio="xMidYMid slice" overflow="visible" xml:space="preserve">
<clipPath id="clp_unq_id_1" fill="none">
	<path shape-rendering="crispEdges" stroke="#000000" d="M0,0h316.485v119.178H0V0"/>
</clipPath>
<g clip-path="url(#clp_unq_id_1)" fill="none">
	<path fill="#000000" d="M116.807,18.698c-0.542,0-1.072-0.113-1.589-0.338c-0.517-0.226-0.91-0.521-1.179-0.885l0.786-0.998
		c0.51,0.606,1.139,0.909,1.887,0.909c0.551,0,0.987-0.149,1.306-0.448c0.319-0.299,0.478-0.737,0.478-1.316v-0.499
		c-0.478,0.533-1.117,0.8-1.914,0.8c-0.866,0-1.573-0.344-2.123-1.032c-0.549-0.688-0.824-1.641-0.824-2.857
		c0-1.148,0.27-2.065,0.81-2.751c0.54-0.686,1.257-1.029,2.15-1.029c0.843,0,1.506,0.294,1.989,0.882l0.075-0.745h1.497v7.171
		c0,0.971-0.302,1.736-0.906,2.297C118.647,18.418,117.833,18.698,116.807,18.698 M117.019,9.613c-0.547,0-0.972,0.217-1.275,0.649
		c-0.303,0.433-0.455,1.071-0.455,1.914c0,0.743,0.151,1.327,0.455,1.753c0.303,0.426,0.723,0.639,1.261,0.639
		c0.67,0,1.167-0.287,1.49-0.861v-3.254C118.181,9.894,117.689,9.613,117.019,9.613 M174.327,18.63h-1.661V8.39h1.531l0.068,0.752
		c0.488-0.592,1.151-0.889,1.989-0.889c0.902,0,1.61,0.336,2.123,1.008c0.513,0.672,0.769,1.605,0.769,2.799v0.103
		c0,1.144-0.26,2.057-0.779,2.738c-0.52,0.681-1.217,1.022-2.092,1.022c-0.811,0-1.461-0.267-1.948-0.8V18.63 M175.79,9.613
		c-0.679,0-1.167,0.28-1.463,0.841v3.281c0.301,0.574,0.793,0.861,1.477,0.861c0.529,0,0.942-0.213,1.241-0.639
		c0.298-0.426,0.448-1.072,0.448-1.938c0-0.738-0.147-1.324-0.441-1.757C176.757,9.83,176.337,9.613,175.79,9.613 M166.335,18.63
		h-1.661V8.39h1.531l0.068,0.752c0.488-0.592,1.151-0.889,1.989-0.889c0.902,0,1.61,0.336,2.123,1.008
		c0.513,0.672,0.769,1.605,0.769,2.799v0.103c0,1.144-0.26,2.057-0.779,2.738c-0.52,0.681-1.217,1.022-2.092,1.022
		c-0.811,0-1.461-0.267-1.948-0.8V18.63 M167.798,9.613c-0.679,0-1.167,0.28-1.463,0.841v3.281c0.301,0.574,0.793,0.861,1.477,0.861
		c0.529,0,0.942-0.213,1.241-0.639c0.298-0.426,0.448-1.072,0.448-1.938c0-0.738-0.147-1.324-0.441-1.757
		C168.765,9.83,168.344,9.613,167.798,9.613 M277.111,15.923c-0.866,0-1.567-0.349-2.102-1.046
		c-0.536-0.697-0.803-1.645-0.803-2.844c0-1.139,0.264-2.054,0.793-2.745c0.529-0.69,1.237-1.036,2.126-1.036
		c0.784,0,1.417,0.273,1.9,0.82V5.286h1.661v10.5h-1.504L279.1,15.02C278.603,15.622,277.94,15.923,277.111,15.923 M277.548,9.613
		c-0.538,0-0.953,0.213-1.244,0.639c-0.292,0.426-0.438,1.068-0.438,1.924c0,0.752,0.145,1.339,0.434,1.76
		c0.289,0.422,0.701,0.632,1.234,0.632c0.679,0,1.176-0.303,1.49-0.909v-3.158C278.72,9.91,278.227,9.613,277.548,9.613
		 M261.293,15.923c-0.743,0-1.349-0.212-1.818-0.636c-0.469-0.424-0.704-0.948-0.704-1.572c0-0.788,0.293-1.393,0.878-1.815
		c0.586-0.421,1.423-0.632,2.512-0.632h1.018v-0.485c0-0.383-0.107-0.689-0.321-0.919c-0.214-0.23-0.54-0.345-0.978-0.345
		c-0.378,0-0.688,0.095-0.93,0.284c-0.242,0.189-0.362,0.43-0.362,0.721h-1.661c0-0.406,0.134-0.785,0.403-1.138
		c0.269-0.353,0.635-0.63,1.097-0.831c0.463-0.2,0.979-0.301,1.548-0.301c0.866,0,1.556,0.218,2.071,0.653
		c0.515,0.435,0.779,1.047,0.793,1.835v3.336c0,0.665,0.093,1.196,0.28,1.593v0.116h-1.695c-0.073-0.141-0.137-0.371-0.191-0.69
		C262.706,15.647,262.059,15.923,261.293,15.923 M262.284,12.313c-0.615,0-1.078,0.107-1.388,0.321
		c-0.31,0.214-0.465,0.517-0.465,0.909c0,0.319,0.106,0.573,0.318,0.762c0.212,0.189,0.496,0.284,0.851,0.284
		c0.328,0,0.637-0.08,0.926-0.239c0.289-0.159,0.507-0.374,0.653-0.643v-1.395H262.284 M250.94,15.923
		c-0.606,0-1.146-0.109-1.62-0.328c-0.474-0.219-0.843-0.52-1.107-0.902c-0.264-0.383-0.396-0.795-0.396-1.237h1.613
		c0.023,0.392,0.171,0.694,0.444,0.906c0.273,0.212,0.636,0.318,1.087,0.318c0.438,0,0.77-0.083,0.998-0.249
		c0.228-0.166,0.342-0.384,0.342-0.653c0-0.296-0.122-0.522-0.366-0.677c-0.244-0.155-0.648-0.292-1.213-0.41
		c-0.565-0.118-1.037-0.269-1.415-0.451c-0.829-0.401-1.244-0.982-1.244-1.743c0-0.638,0.269-1.171,0.807-1.6
		c0.538-0.428,1.221-0.643,2.051-0.643c0.884,0,1.598,0.219,2.143,0.656c0.545,0.438,0.817,1.005,0.817,1.702h-1.661
		c0-0.319-0.119-0.584-0.355-0.796c-0.237-0.212-0.552-0.318-0.943-0.318c-0.365,0-0.662,0.084-0.892,0.253
		c-0.23,0.169-0.345,0.394-0.345,0.677c0,0.255,0.107,0.454,0.321,0.595c0.214,0.141,0.647,0.284,1.299,0.427
		c0.652,0.144,1.163,0.314,1.535,0.513c0.371,0.198,0.647,0.436,0.827,0.714c0.18,0.278,0.27,0.615,0.27,1.012
		c0,0.665-0.276,1.204-0.827,1.617C252.556,15.717,251.833,15.923,250.94,15.923 M243.863,15.923c-1.053,0-1.906-0.331-2.56-0.995
		c-0.654-0.663-0.981-1.546-0.981-2.649v-0.205c0-0.738,0.142-1.398,0.427-1.979c0.285-0.581,0.685-1.033,1.2-1.357
		c0.515-0.324,1.089-0.485,1.723-0.485c1.007,0,1.785,0.321,2.334,0.964c0.549,0.643,0.824,1.552,0.824,2.728v0.67h-4.833
		c0.05,0.611,0.254,1.094,0.612,1.449c0.358,0.355,0.808,0.533,1.35,0.533c0.761,0,1.381-0.308,1.859-0.923l0.896,0.854
		c-0.296,0.442-0.692,0.785-1.186,1.029C245.033,15.801,244.478,15.923,243.863,15.923 M243.664,9.586
		c-0.456,0-0.824,0.16-1.104,0.478c-0.28,0.319-0.459,0.763-0.537,1.333h3.165v-0.123c-0.037-0.556-0.185-0.976-0.444-1.261
		C244.485,9.728,244.125,9.586,243.664,9.586 M236.241,15.923c-1.035,0-1.855-0.335-2.461-1.005
		c-0.606-0.67-0.909-1.595-0.909-2.775v-0.171c0-1.126,0.301-2.027,0.902-2.704s1.422-1.015,2.461-1.015
		c0.88,0,1.596,0.256,2.15,0.769s0.844,1.186,0.872,2.02h-1.565c-0.018-0.424-0.163-0.772-0.434-1.046
		c-0.271-0.273-0.616-0.41-1.036-0.41c-0.538,0-0.953,0.195-1.244,0.584c-0.292,0.39-0.44,0.981-0.444,1.774v0.267
		c0,0.802,0.145,1.4,0.434,1.794c0.289,0.394,0.708,0.591,1.254,0.591c0.415,0,0.759-0.121,1.032-0.362
		c0.273-0.241,0.419-0.54,0.438-0.896h1.565c-0.018,0.46-0.162,0.89-0.431,1.289c-0.269,0.399-0.633,0.714-1.094,0.947
		C237.271,15.807,236.774,15.923,236.241,15.923 M212.872,15.923c-1.053,0-1.906-0.331-2.56-0.995
		c-0.654-0.663-0.981-1.546-0.981-2.649v-0.205c0-0.738,0.142-1.398,0.427-1.979c0.285-0.581,0.685-1.033,1.2-1.357
		c0.515-0.324,1.089-0.485,1.723-0.485c1.007,0,1.785,0.321,2.334,0.964c0.549,0.643,0.824,1.552,0.824,2.728v0.67h-4.833
		c0.05,0.611,0.254,1.094,0.612,1.449c0.358,0.355,0.808,0.533,1.35,0.533c0.761,0,1.381-0.308,1.859-0.923l0.896,0.854
		c-0.296,0.442-0.692,0.785-1.186,1.029C214.042,15.801,213.487,15.923,212.872,15.923 M212.674,9.586
		c-0.456,0-0.824,0.16-1.104,0.478c-0.28,0.319-0.459,0.763-0.537,1.333h3.165v-0.123c-0.037-0.556-0.185-0.976-0.444-1.261
		C213.494,9.728,213.134,9.586,212.674,9.586 M205.18,15.923c-0.606,0-1.146-0.109-1.62-0.328c-0.474-0.219-0.843-0.52-1.107-0.902
		c-0.264-0.383-0.397-0.795-0.397-1.237h1.613c0.023,0.392,0.171,0.694,0.444,0.906c0.273,0.212,0.636,0.318,1.087,0.318
		c0.438,0,0.77-0.083,0.998-0.249c0.228-0.166,0.342-0.384,0.342-0.653c0-0.296-0.122-0.522-0.366-0.677
		c-0.244-0.155-0.648-0.292-1.213-0.41c-0.565-0.118-1.037-0.269-1.415-0.451c-0.83-0.401-1.244-0.982-1.244-1.743
		c0-0.638,0.269-1.171,0.807-1.6c0.538-0.428,1.221-0.643,2.051-0.643c0.884,0,1.598,0.219,2.143,0.656
		c0.545,0.438,0.817,1.005,0.817,1.702h-1.661c0-0.319-0.119-0.584-0.355-0.796c-0.237-0.212-0.551-0.318-0.943-0.318
		c-0.365,0-0.662,0.084-0.892,0.253c-0.23,0.169-0.345,0.394-0.345,0.677c0,0.255,0.107,0.454,0.321,0.595
		c0.214,0.141,0.647,0.284,1.299,0.427c0.652,0.144,1.163,0.314,1.535,0.513c0.371,0.198,0.647,0.436,0.827,0.714
		c0.18,0.278,0.27,0.615,0.27,1.012c0,0.665-0.276,1.204-0.827,1.617C206.796,15.717,206.073,15.923,205.18,15.923 M196.448,15.923
		c-1.276,0-1.914-0.704-1.914-2.112V9.62h-1.217V8.39h1.217V6.592h1.661V8.39h1.306v1.23h-1.306v4.129
		c0,0.283,0.056,0.487,0.167,0.612c0.112,0.125,0.311,0.188,0.598,0.188c0.191,0,0.385-0.023,0.581-0.068v1.285
		C197.163,15.87,196.798,15.923,196.448,15.923 M183.779,15.923c-1.044,0-1.879-0.347-2.505-1.042
		c-0.627-0.695-0.94-1.621-0.94-2.779V12.02c0-0.725,0.143-1.377,0.431-1.959c0.287-0.581,0.69-1.028,1.21-1.34
		c0.52-0.312,1.116-0.468,1.791-0.468c0.998,0,1.808,0.321,2.43,0.964c0.622,0.643,0.958,1.495,1.008,2.557l0.007,0.39
		c0,0.729-0.14,1.381-0.42,1.955c-0.28,0.574-0.681,1.019-1.203,1.333C185.066,15.766,184.463,15.923,183.779,15.923 M183.766,9.586
		c-0.542,0-0.973,0.215-1.292,0.646c-0.319,0.431-0.479,1.074-0.479,1.931c0,0.761,0.157,1.357,0.472,1.788
		c0.314,0.431,0.752,0.646,1.312,0.646c0.561,0,0.997-0.219,1.309-0.656c0.312-0.438,0.468-1.078,0.468-1.921
		c0-0.747-0.161-1.34-0.482-1.777C184.753,9.805,184.317,9.586,183.766,9.586 M159.197,15.923c-0.802,0-1.409-0.235-1.822-0.704
		c-0.413-0.469-0.619-1.148-0.619-2.037V8.39h1.661v4.771c0,0.939,0.39,1.408,1.169,1.408c0.807,0,1.351-0.289,1.634-0.868V8.39
		h1.661v7.396h-1.565l-0.041-0.725C160.787,15.636,160.095,15.923,159.197,15.923 M152.294,15.923c-0.606,0-1.146-0.109-1.62-0.328
		c-0.474-0.219-0.843-0.52-1.107-0.902c-0.264-0.383-0.396-0.795-0.396-1.237h1.613c0.023,0.392,0.171,0.694,0.444,0.906
		c0.273,0.212,0.636,0.318,1.087,0.318c0.438,0,0.77-0.083,0.998-0.249c0.228-0.166,0.342-0.384,0.342-0.653
		c0-0.296-0.122-0.522-0.366-0.677c-0.244-0.155-0.648-0.292-1.213-0.41c-0.565-0.118-1.037-0.269-1.415-0.451
		c-0.83-0.401-1.244-0.982-1.244-1.743c0-0.638,0.269-1.171,0.807-1.6c0.538-0.428,1.221-0.643,2.051-0.643
		c0.884,0,1.599,0.219,2.143,0.656c0.544,0.438,0.817,1.005,0.817,1.702h-1.661c0-0.319-0.119-0.584-0.355-0.796
		c-0.237-0.212-0.551-0.318-0.943-0.318c-0.365,0-0.662,0.084-0.892,0.253c-0.23,0.169-0.345,0.394-0.345,0.677
		c0,0.255,0.107,0.454,0.321,0.595c0.214,0.141,0.647,0.284,1.299,0.427c0.652,0.144,1.163,0.314,1.535,0.513
		c0.371,0.198,0.647,0.436,0.827,0.714c0.18,0.278,0.27,0.615,0.27,1.012c0,0.665-0.276,1.204-0.827,1.617
		C153.91,15.717,153.187,15.923,152.294,15.923 M136.19,15.923c-1.044,0-1.879-0.347-2.505-1.042
		c-0.627-0.695-0.94-1.621-0.94-2.779V12.02c0-0.725,0.144-1.377,0.431-1.959c0.287-0.581,0.69-1.028,1.21-1.34
		c0.52-0.312,1.116-0.468,1.791-0.468c0.998,0,1.808,0.321,2.43,0.964c0.622,0.643,0.958,1.495,1.008,2.557l0.007,0.39
		c0,0.729-0.14,1.381-0.42,1.955c-0.28,0.574-0.681,1.019-1.203,1.333C137.477,15.766,136.874,15.923,136.19,15.923 M136.177,9.586
		c-0.542,0-0.973,0.215-1.292,0.646c-0.319,0.431-0.479,1.074-0.479,1.931c0,0.761,0.157,1.357,0.472,1.788
		c0.314,0.431,0.752,0.646,1.312,0.646s0.997-0.219,1.309-0.656c0.312-0.438,0.468-1.078,0.468-1.921
		c0-0.747-0.161-1.34-0.482-1.777C137.165,9.805,136.728,9.586,136.177,9.586 M125.175,15.923c-1.053,0-1.906-0.331-2.56-0.995
		c-0.654-0.663-0.981-1.546-0.981-2.649v-0.205c0-0.738,0.142-1.398,0.427-1.979c0.285-0.581,0.685-1.033,1.2-1.357
		c0.515-0.324,1.089-0.485,1.723-0.485c1.007,0,1.785,0.321,2.334,0.964c0.549,0.643,0.824,1.552,0.824,2.728v0.67h-4.833
		c0.05,0.611,0.254,1.094,0.612,1.449c0.358,0.355,0.808,0.533,1.35,0.533c0.761,0,1.381-0.308,1.859-0.923l0.896,0.854
		c-0.296,0.442-0.692,0.785-1.186,1.029C126.345,15.801,125.79,15.923,125.175,15.923 M124.976,9.586
		c-0.456,0-0.824,0.16-1.104,0.478c-0.28,0.319-0.459,0.763-0.537,1.333h3.165v-0.123c-0.037-0.556-0.185-0.976-0.444-1.261
		C125.797,9.728,125.437,9.586,124.976,9.586 M100.717,15.923c-0.743,0-1.349-0.212-1.818-0.636
		c-0.469-0.424-0.704-0.948-0.704-1.572c0-0.788,0.293-1.393,0.878-1.815c0.586-0.421,1.423-0.632,2.512-0.632h1.019v-0.485
		c0-0.383-0.107-0.689-0.321-0.919c-0.214-0.23-0.54-0.345-0.978-0.345c-0.378,0-0.688,0.095-0.93,0.284
		c-0.242,0.189-0.362,0.43-0.362,0.721h-1.661c0-0.406,0.134-0.785,0.403-1.138c0.269-0.353,0.635-0.63,1.097-0.831
		c0.463-0.2,0.979-0.301,1.548-0.301c0.866,0,1.556,0.218,2.071,0.653c0.515,0.435,0.779,1.047,0.793,1.835v3.336
		c0,0.665,0.093,1.196,0.28,1.593v0.116h-1.695c-0.073-0.141-0.137-0.371-0.191-0.69C102.129,15.647,101.482,15.923,100.717,15.923
		 M101.708,12.313c-0.615,0-1.078,0.107-1.388,0.321c-0.31,0.214-0.465,0.517-0.465,0.909c0,0.319,0.106,0.573,0.318,0.762
		c0.212,0.189,0.496,0.284,0.851,0.284c0.328,0,0.637-0.08,0.926-0.239c0.289-0.159,0.507-0.374,0.653-0.643v-1.395H101.708
		 M84.485,15.923c-0.743,0-1.349-0.212-1.818-0.636c-0.469-0.424-0.704-0.948-0.704-1.572c0-0.788,0.293-1.393,0.878-1.815
		c0.585-0.421,1.423-0.632,2.512-0.632h1.019v-0.485c0-0.383-0.107-0.689-0.321-0.919c-0.214-0.23-0.54-0.345-0.978-0.345
		c-0.378,0-0.688,0.095-0.93,0.284c-0.242,0.189-0.362,0.43-0.362,0.721H82.12c0-0.406,0.134-0.785,0.403-1.138
		c0.269-0.353,0.635-0.63,1.097-0.831c0.462-0.2,0.979-0.301,1.548-0.301c0.866,0,1.556,0.218,2.071,0.653
		c0.515,0.435,0.779,1.047,0.793,1.835v3.336c0,0.665,0.093,1.196,0.28,1.593v0.116h-1.695c-0.073-0.141-0.137-0.371-0.191-0.69
		C85.898,15.647,85.251,15.923,84.485,15.923 M85.476,12.313c-0.615,0-1.078,0.107-1.388,0.321c-0.31,0.214-0.465,0.517-0.465,0.909
		c0,0.319,0.106,0.573,0.318,0.762c0.212,0.189,0.496,0.284,0.851,0.284c0.328,0,0.637-0.08,0.926-0.239
		c0.289-0.159,0.507-0.374,0.653-0.643v-1.395H85.476 M74.132,15.923c-0.606,0-1.146-0.109-1.62-0.328
		c-0.474-0.219-0.843-0.52-1.107-0.902c-0.264-0.383-0.396-0.795-0.396-1.237h1.613c0.023,0.392,0.171,0.694,0.444,0.906
		c0.273,0.212,0.636,0.318,1.087,0.318c0.438,0,0.77-0.083,0.998-0.249c0.228-0.166,0.342-0.384,0.342-0.653
		c0-0.296-0.122-0.522-0.366-0.677c-0.244-0.155-0.648-0.292-1.213-0.41c-0.565-0.118-1.037-0.269-1.415-0.451
		c-0.83-0.401-1.244-0.982-1.244-1.743c0-0.638,0.269-1.171,0.807-1.6c0.538-0.428,1.221-0.643,2.051-0.643
		c0.884,0,1.598,0.219,2.143,0.656c0.545,0.438,0.817,1.005,0.817,1.702H75.41c0-0.319-0.119-0.584-0.355-0.796
		c-0.237-0.212-0.551-0.318-0.943-0.318c-0.365,0-0.662,0.084-0.892,0.253c-0.23,0.169-0.345,0.394-0.345,0.677
		c0,0.255,0.107,0.454,0.321,0.595c0.214,0.141,0.647,0.284,1.299,0.427c0.652,0.144,1.163,0.314,1.535,0.513
		c0.371,0.198,0.647,0.436,0.827,0.714c0.18,0.278,0.27,0.615,0.27,1.012c0,0.665-0.276,1.204-0.827,1.617
		C75.748,15.717,75.025,15.923,74.132,15.923 M66.076,15.923c-0.743,0-1.349-0.212-1.818-0.636
		c-0.469-0.424-0.704-0.948-0.704-1.572c0-0.788,0.293-1.393,0.878-1.815c0.586-0.421,1.423-0.632,2.512-0.632h1.019v-0.485
		c0-0.383-0.107-0.689-0.321-0.919c-0.214-0.23-0.54-0.345-0.978-0.345c-0.378,0-0.688,0.095-0.93,0.284
		c-0.242,0.189-0.362,0.43-0.362,0.721H63.71c0-0.406,0.134-0.785,0.403-1.138c0.269-0.353,0.635-0.63,1.097-0.831
		c0.463-0.2,0.979-0.301,1.548-0.301c0.866,0,1.556,0.218,2.071,0.653c0.515,0.435,0.779,1.047,0.793,1.835v3.336
		c0,0.665,0.093,1.196,0.28,1.593v0.116h-1.695c-0.073-0.141-0.137-0.371-0.191-0.69C67.488,15.647,66.841,15.923,66.076,15.923
		 M67.067,12.313c-0.615,0-1.078,0.107-1.388,0.321c-0.31,0.214-0.465,0.517-0.465,0.909c0,0.319,0.106,0.573,0.318,0.762
		c0.212,0.189,0.496,0.284,0.851,0.284c0.328,0,0.637-0.08,0.926-0.239c0.289-0.159,0.507-0.374,0.653-0.643v-1.395H67.067
		 M35.063,15.923c-0.72,0-1.382-0.133-1.986-0.4c-0.604-0.267-1.073-0.635-1.408-1.104c-0.335-0.469-0.502-1.016-0.502-1.641h1.729
		c0,0.565,0.187,1.003,0.561,1.313c0.374,0.31,0.909,0.465,1.606,0.465c0.602,0,1.054-0.122,1.357-0.366
		c0.303-0.244,0.455-0.566,0.455-0.967c0-0.438-0.154-0.775-0.461-1.012c-0.308-0.237-0.862-0.476-1.665-0.718
		c-0.802-0.241-1.44-0.51-1.914-0.807c-0.907-0.57-1.36-1.313-1.36-2.229c0-0.802,0.327-1.463,0.981-1.982
		c0.654-0.52,1.503-0.779,2.546-0.779c0.693,0,1.31,0.128,1.853,0.383c0.542,0.255,0.968,0.619,1.278,1.09
		c0.31,0.472,0.465,0.995,0.465,1.569h-1.723c0-0.52-0.163-0.926-0.489-1.22c-0.326-0.294-0.792-0.441-1.398-0.441
		c-0.565,0-1.004,0.121-1.316,0.362c-0.312,0.242-0.468,0.579-0.468,1.012c0,0.365,0.169,0.669,0.506,0.913
		c0.337,0.244,0.893,0.481,1.668,0.711c0.775,0.23,1.397,0.492,1.866,0.786c0.469,0.294,0.813,0.631,1.032,1.012
		c0.219,0.381,0.328,0.826,0.328,1.336c0,0.829-0.318,1.489-0.954,1.979C37.015,15.678,36.152,15.923,35.063,15.923 M15.827,15.923
		c-1.139,0-2.044-0.304-2.714-0.913c-0.67-0.608-1.005-1.453-1.005-2.533V5.833h1.723v6.658c0,0.665,0.169,1.174,0.506,1.524
		c0.337,0.351,0.834,0.526,1.49,0.526c1.331,0,1.996-0.702,1.996-2.106V5.833h1.723v6.651c0,1.057-0.338,1.895-1.015,2.512
		C17.854,15.614,16.953,15.923,15.827,15.923 M272.743,15.786h-1.661v-4.792c0-0.469-0.101-0.817-0.304-1.042
		c-0.203-0.226-0.534-0.338-0.995-0.338c-0.67,0-1.169,0.303-1.497,0.909v5.264h-1.661V8.39h1.565l0.048,0.854
		c0.547-0.661,1.265-0.991,2.153-0.991c1.54,0,2.324,0.882,2.352,2.646V15.786 M231.367,15.786h-1.661V8.39h1.661V15.786
		 M225.963,15.786h-1.442l-2.584-7.396h1.723l1.586,5.291l1.565-5.291h1.716L225.963,15.786 M218.935,15.786h-1.661V8.39h1.586
		l0.041,0.827c0.401-0.643,0.957-0.964,1.668-0.964c0.237,0,0.433,0.032,0.588,0.096l-0.007,1.559
		c-0.219-0.036-0.444-0.055-0.677-0.055c-0.761,0-1.274,0.292-1.538,0.875V15.786 M190.362,15.786h-1.661V8.39h1.586l0.041,0.827
		c0.401-0.643,0.957-0.964,1.668-0.964c0.237,0,0.433,0.032,0.588,0.096l-0.007,1.559c-0.219-0.036-0.444-0.055-0.677-0.055
		c-0.761,0-1.274,0.292-1.538,0.875V15.786 M143.165,15.786h-1.661V9.62h-1.128V8.39h1.128V7.713c0-0.82,0.228-1.454,0.684-1.9
		c0.456-0.447,1.094-0.67,1.914-0.67c0.292,0,0.602,0.041,0.93,0.123l-0.041,1.299c-0.182-0.036-0.394-0.055-0.636-0.055
		c-0.793,0-1.189,0.408-1.189,1.224V8.39h1.504v1.23h-1.504V15.786 M112.167,15.786h-1.661v-4.792c0-0.469-0.101-0.817-0.304-1.042
		c-0.203-0.226-0.534-0.338-0.995-0.338c-0.67,0-1.169,0.303-1.497,0.909v5.264h-1.661V8.39h1.565l0.048,0.854
		c0.547-0.661,1.265-0.991,2.153-0.991c1.54,0,2.324,0.882,2.352,2.646V15.786 M95.057,15.786h-1.661V8.39h1.586l0.041,0.827
		c0.401-0.643,0.957-0.964,1.668-0.964c0.237,0,0.433,0.032,0.588,0.096l-0.007,1.559c-0.219-0.036-0.444-0.055-0.677-0.055
		c-0.761,0-1.274,0.292-1.538,0.875V15.786 M62.08,15.786h-1.661v-4.771c0-0.51-0.111-0.872-0.332-1.084
		c-0.221-0.212-0.546-0.318-0.974-0.318c-0.665,0-1.162,0.296-1.49,0.889v5.284h-1.661v-10.5h1.661v3.91
		c0.542-0.629,1.228-0.943,2.058-0.943c1.577,0,2.377,0.9,2.399,2.7V15.786 M48.958,15.786h-1.654L45.411,8.52l-1.935,7.267h-1.661
		l-2.297-9.953h1.716l1.545,7.479l1.9-7.479h1.449l1.88,7.492l1.531-7.492h1.716L48.958,15.786 M29.513,15.786h-1.729l-4.437-7.062
		v7.062h-1.729V5.833h1.729l4.45,7.089V5.833h1.716V15.786 M230.54,7.344c-0.301,0-0.532-0.083-0.694-0.25
		c-0.162-0.166-0.243-0.375-0.243-0.625c0-0.255,0.081-0.467,0.243-0.636c0.162-0.169,0.393-0.253,0.694-0.253
		c0.301,0,0.533,0.084,0.697,0.253c0.164,0.169,0.246,0.381,0.246,0.636c0,0.251-0.082,0.459-0.246,0.625
		C231.073,7.261,230.841,7.344,230.54,7.344"/>
	<path fill="#000000" d="M250.869,36.773c-0.242,0-0.508-0.041-0.8-0.124v-1.291l0.314,0.021c0.419,0,0.735-0.076,0.947-0.229
		c0.212-0.153,0.379-0.409,0.502-0.769l0.239-0.635l-2.598-7.357h1.791l1.565,5.018l1.504-5.018h1.771l-2.939,8.518
		C252.715,36.151,251.949,36.773,250.869,36.773 M132.626,36.698c-0.542,0-1.072-0.113-1.589-0.338
		c-0.517-0.226-0.91-0.521-1.179-0.885l0.786-0.998c0.51,0.606,1.139,0.909,1.887,0.909c0.551,0,0.987-0.149,1.306-0.448
		c0.319-0.299,0.479-0.737,0.479-1.316v-0.499c-0.479,0.533-1.117,0.8-1.914,0.8c-0.866,0-1.573-0.344-2.123-1.032
		c-0.549-0.688-0.824-1.641-0.824-2.857c0-1.148,0.27-2.065,0.81-2.751c0.54-0.686,1.257-1.029,2.15-1.029
		c0.843,0,1.506,0.294,1.989,0.882l0.075-0.745h1.497v7.171c0,0.971-0.302,1.736-0.906,2.297
		C134.466,36.418,133.652,36.698,132.626,36.698 M132.838,27.613c-0.547,0-0.972,0.217-1.275,0.649
		c-0.303,0.433-0.455,1.071-0.455,1.914c0,0.743,0.151,1.327,0.455,1.753c0.303,0.426,0.723,0.639,1.261,0.639
		c0.67,0,1.167-0.287,1.49-0.861v-3.254C134,27.894,133.508,27.613,132.838,27.613 M29.814,36.63h-1.661V26.39h1.531l0.068,0.752
		c0.488-0.592,1.151-0.889,1.989-0.889c0.902,0,1.61,0.336,2.123,1.008c0.513,0.672,0.769,1.605,0.769,2.799v0.103
		c0,1.144-0.26,2.057-0.779,2.738c-0.52,0.681-1.217,1.022-2.092,1.022c-0.811,0-1.461-0.267-1.948-0.8V36.63 M31.277,27.613
		c-0.679,0-1.167,0.28-1.463,0.841v3.281c0.301,0.574,0.793,0.861,1.477,0.861c0.529,0,0.942-0.213,1.241-0.639
		c0.298-0.426,0.448-1.072,0.448-1.938c0-0.738-0.147-1.324-0.441-1.757C32.244,27.83,31.824,27.613,31.277,27.613 M21.822,36.63
		H20.16V26.39h1.531l0.068,0.752c0.488-0.592,1.151-0.889,1.989-0.889c0.902,0,1.61,0.336,2.123,1.008
		c0.513,0.672,0.769,1.605,0.769,2.799v0.103c0,1.144-0.26,2.057-0.779,2.738c-0.52,0.681-1.217,1.022-2.092,1.022
		c-0.811,0-1.461-0.267-1.948-0.8V36.63 M23.285,27.613c-0.679,0-1.167,0.28-1.463,0.841v3.281c0.301,0.574,0.793,0.861,1.477,0.861
		c0.529,0,0.942-0.213,1.241-0.639c0.298-0.426,0.448-1.072,0.448-1.938c0-0.738-0.147-1.324-0.441-1.757
		C24.252,27.83,23.831,27.613,23.285,27.613 M96.948,36.028l-0.895-0.533c0.264-0.415,0.445-0.776,0.543-1.084
		c0.098-0.308,0.149-0.621,0.154-0.94V32.18h1.497l-0.007,1.196c-0.005,0.483-0.127,0.967-0.366,1.453
		C97.635,35.314,97.326,35.714,96.948,36.028 M292.021,33.923c-1.053,0-1.906-0.332-2.56-0.995
		c-0.654-0.663-0.981-1.546-0.981-2.649v-0.205c0-0.738,0.142-1.398,0.427-1.979c0.285-0.581,0.685-1.033,1.2-1.357
		c0.515-0.323,1.089-0.485,1.723-0.485c1.007,0,1.785,0.321,2.334,0.964c0.549,0.643,0.824,1.552,0.824,2.728v0.67h-4.833
		c0.05,0.611,0.254,1.094,0.612,1.449c0.358,0.355,0.808,0.533,1.35,0.533c0.761,0,1.381-0.308,1.859-0.923l0.896,0.855
		c-0.296,0.442-0.692,0.785-1.186,1.029C293.191,33.801,292.637,33.923,292.021,33.923 M291.823,27.586
		c-0.456,0-0.824,0.16-1.104,0.479c-0.28,0.319-0.459,0.763-0.537,1.333h3.165v-0.123c-0.036-0.556-0.185-0.976-0.444-1.261
		C292.643,27.728,292.283,27.586,291.823,27.586 M284.401,33.923c-1.053,0-1.906-0.332-2.56-0.995
		c-0.654-0.663-0.981-1.546-0.981-2.649v-0.205c0-0.738,0.142-1.398,0.427-1.979s0.685-1.033,1.2-1.357
		c0.515-0.323,1.089-0.485,1.723-0.485c1.007,0,1.785,0.321,2.334,0.964c0.549,0.643,0.824,1.552,0.824,2.728v0.67h-4.833
		c0.05,0.611,0.254,1.094,0.612,1.449c0.358,0.355,0.808,0.533,1.35,0.533c0.761,0,1.381-0.308,1.859-0.923l0.896,0.855
		c-0.296,0.442-0.692,0.785-1.186,1.029C285.571,33.801,285.016,33.923,284.401,33.923 M284.203,27.586
		c-0.456,0-0.824,0.16-1.104,0.479c-0.28,0.319-0.459,0.763-0.537,1.333h3.165v-0.123c-0.037-0.556-0.185-0.976-0.444-1.261
		C285.023,27.728,284.663,27.586,284.203,27.586 M267.343,33.923c-0.802,0-1.409-0.235-1.822-0.704
		c-0.412-0.469-0.619-1.148-0.619-2.037V26.39h1.661v4.771c0,0.939,0.39,1.408,1.169,1.408c0.807,0,1.351-0.289,1.634-0.868V26.39
		h1.661v7.396h-1.565l-0.041-0.725C268.934,33.636,268.241,33.923,267.343,33.923 M260.046,33.923c-1.044,0-1.879-0.347-2.505-1.042
		c-0.627-0.695-0.94-1.621-0.94-2.779v-0.082c0-0.725,0.144-1.377,0.431-1.958c0.287-0.581,0.69-1.028,1.21-1.34
		c0.52-0.312,1.116-0.468,1.791-0.468c0.998,0,1.808,0.321,2.43,0.964c0.622,0.643,0.958,1.495,1.008,2.557l0.007,0.39
		c0,0.729-0.14,1.381-0.42,1.955c-0.28,0.574-0.681,1.019-1.203,1.333C261.333,33.766,260.73,33.923,260.046,33.923 M260.033,27.586
		c-0.542,0-0.973,0.215-1.292,0.646c-0.319,0.431-0.478,1.074-0.478,1.931c0,0.761,0.157,1.357,0.472,1.788
		c0.314,0.431,0.752,0.646,1.312,0.646s0.997-0.219,1.309-0.656c0.312-0.438,0.468-1.078,0.468-1.921
		c0-0.747-0.161-1.34-0.482-1.777C261.021,27.805,260.584,27.586,260.033,27.586 M242.362,33.923c-1.053,0-1.906-0.332-2.56-0.995
		c-0.654-0.663-0.981-1.546-0.981-2.649v-0.205c0-0.738,0.142-1.398,0.427-1.979c0.285-0.581,0.685-1.033,1.2-1.357
		c0.515-0.323,1.089-0.485,1.723-0.485c1.007,0,1.785,0.321,2.334,0.964c0.549,0.643,0.824,1.552,0.824,2.728v0.67h-4.833
		c0.05,0.611,0.254,1.094,0.612,1.449c0.358,0.355,0.808,0.533,1.35,0.533c0.761,0,1.381-0.308,1.859-0.923l0.896,0.855
		c-0.296,0.442-0.692,0.785-1.186,1.029C243.532,33.801,242.977,33.923,242.362,33.923 M242.164,27.586
		c-0.456,0-0.824,0.16-1.104,0.479c-0.28,0.319-0.459,0.763-0.537,1.333h3.165v-0.123c-0.037-0.556-0.185-0.976-0.444-1.261
		C242.984,27.728,242.624,27.586,242.164,27.586 M228.664,33.923c-0.802,0-1.409-0.235-1.822-0.704
		c-0.413-0.469-0.619-1.148-0.619-2.037V26.39h1.661v4.771c0,0.939,0.39,1.408,1.169,1.408c0.807,0,1.351-0.289,1.634-0.868V26.39
		h1.661v7.396h-1.565l-0.041-0.725C230.254,33.636,229.561,33.923,228.664,33.923 M221.761,33.923c-0.606,0-1.146-0.109-1.62-0.328
		c-0.474-0.219-0.843-0.52-1.107-0.902c-0.264-0.383-0.396-0.795-0.396-1.237h1.613c0.023,0.392,0.171,0.694,0.444,0.906
		c0.273,0.212,0.636,0.318,1.087,0.318c0.438,0,0.77-0.083,0.998-0.249c0.228-0.166,0.342-0.384,0.342-0.653
		c0-0.296-0.122-0.522-0.366-0.677c-0.244-0.155-0.648-0.292-1.213-0.41c-0.565-0.118-1.037-0.269-1.415-0.451
		c-0.829-0.401-1.244-0.982-1.244-1.743c0-0.638,0.269-1.171,0.807-1.6c0.538-0.428,1.221-0.643,2.051-0.643
		c0.884,0,1.598,0.219,2.143,0.656c0.545,0.438,0.817,1.005,0.817,1.702h-1.661c0-0.319-0.119-0.584-0.355-0.796
		c-0.237-0.212-0.551-0.318-0.943-0.318c-0.365,0-0.662,0.084-0.892,0.253c-0.23,0.169-0.345,0.394-0.345,0.677
		c0,0.255,0.107,0.454,0.321,0.595c0.214,0.141,0.647,0.284,1.299,0.427s1.163,0.314,1.535,0.513
		c0.371,0.198,0.647,0.436,0.827,0.714c0.18,0.278,0.27,0.615,0.27,1.012c0,0.665-0.276,1.204-0.827,1.617
		C223.376,33.717,222.654,33.923,221.761,33.923 M211.093,33.923c-1.053,0-1.906-0.332-2.56-0.995
		c-0.654-0.663-0.981-1.546-0.981-2.649v-0.205c0-0.738,0.142-1.398,0.427-1.979c0.285-0.581,0.685-1.033,1.2-1.357
		c0.515-0.323,1.089-0.485,1.723-0.485c1.007,0,1.785,0.321,2.334,0.964c0.549,0.643,0.824,1.552,0.824,2.728v0.67h-4.833
		c0.05,0.611,0.254,1.094,0.612,1.449c0.358,0.355,0.808,0.533,1.35,0.533c0.761,0,1.381-0.308,1.859-0.923l0.896,0.855
		c-0.296,0.442-0.692,0.785-1.186,1.029C212.263,33.801,211.708,33.923,211.093,33.923 M210.895,27.586
		c-0.456,0-0.824,0.16-1.104,0.479c-0.28,0.319-0.459,0.763-0.537,1.333h3.165v-0.123c-0.037-0.556-0.185-0.976-0.444-1.261
		C211.715,27.728,211.355,27.586,210.895,27.586 M195.449,33.923c-0.743,0-1.349-0.212-1.818-0.636
		c-0.469-0.424-0.704-0.948-0.704-1.572c0-0.788,0.293-1.393,0.878-1.815c0.585-0.421,1.423-0.632,2.512-0.632h1.019v-0.485
		c0-0.383-0.107-0.689-0.321-0.919c-0.214-0.23-0.54-0.345-0.978-0.345c-0.378,0-0.688,0.095-0.93,0.284
		c-0.242,0.189-0.362,0.43-0.362,0.721h-1.661c0-0.406,0.134-0.785,0.403-1.138c0.269-0.353,0.635-0.63,1.097-0.831
		c0.462-0.201,0.979-0.301,1.548-0.301c0.866,0,1.556,0.218,2.071,0.653c0.515,0.435,0.779,1.047,0.793,1.835v3.336
		c0,0.665,0.093,1.196,0.28,1.593v0.116h-1.695c-0.073-0.141-0.137-0.371-0.191-0.69C196.862,33.647,196.215,33.923,195.449,33.923
		 M196.44,30.313c-0.615,0-1.078,0.107-1.388,0.321c-0.31,0.214-0.465,0.517-0.465,0.909c0,0.319,0.106,0.573,0.318,0.762
		c0.212,0.189,0.496,0.284,0.851,0.284c0.328,0,0.637-0.08,0.926-0.239c0.289-0.159,0.507-0.374,0.653-0.643v-1.395H196.44
		 M172.501,33.923c-1.044,0-1.879-0.347-2.505-1.042c-0.627-0.695-0.94-1.621-0.94-2.779v-0.082c0-0.725,0.144-1.377,0.431-1.958
		c0.287-0.581,0.69-1.028,1.21-1.34s1.116-0.468,1.791-0.468c0.998,0,1.808,0.321,2.43,0.964c0.622,0.643,0.958,1.495,1.008,2.557
		l0.007,0.39c0,0.729-0.14,1.381-0.42,1.955c-0.28,0.574-0.681,1.019-1.203,1.333C173.788,33.766,173.185,33.923,172.501,33.923
		 M172.488,27.586c-0.542,0-0.973,0.215-1.292,0.646s-0.478,1.074-0.478,1.931c0,0.761,0.157,1.357,0.472,1.788
		c0.314,0.431,0.752,0.646,1.312,0.646c0.561,0,0.997-0.219,1.309-0.656c0.312-0.438,0.468-1.078,0.468-1.921
		c0-0.747-0.161-1.34-0.482-1.777C173.476,27.805,173.039,27.586,172.488,27.586 M167.143,33.923c-1.276,0-1.914-0.704-1.914-2.112
		v-4.19h-1.217v-1.23h1.217v-1.798h1.661v1.798h1.306v1.23h-1.306v4.129c0,0.283,0.056,0.486,0.167,0.612
		c0.112,0.125,0.311,0.188,0.598,0.188c0.191,0,0.385-0.023,0.581-0.068v1.285C167.858,33.87,167.494,33.923,167.143,33.923
		 M155.874,33.923c-0.866,0-1.567-0.349-2.102-1.046c-0.536-0.697-0.803-1.645-0.803-2.844c0-1.139,0.264-2.054,0.793-2.745
		c0.529-0.69,1.237-1.036,2.126-1.036c0.784,0,1.417,0.273,1.9,0.82v-3.787h1.661v10.5h-1.504l-0.082-0.766
		C157.367,33.622,156.703,33.923,155.874,33.923 M156.312,27.613c-0.538,0-0.952,0.213-1.244,0.639
		c-0.292,0.426-0.438,1.068-0.438,1.924c0,0.752,0.145,1.339,0.434,1.76c0.289,0.422,0.701,0.632,1.234,0.632
		c0.679,0,1.176-0.303,1.49-0.909v-3.158C157.483,27.91,156.991,27.613,156.312,27.613 M148.872,33.923
		c-1.053,0-1.906-0.332-2.56-0.995c-0.654-0.663-0.981-1.546-0.981-2.649v-0.205c0-0.738,0.142-1.398,0.427-1.979
		c0.285-0.581,0.685-1.033,1.2-1.357c0.515-0.323,1.089-0.485,1.723-0.485c1.007,0,1.785,0.321,2.334,0.964
		c0.549,0.643,0.824,1.552,0.824,2.728v0.67h-4.833c0.05,0.611,0.254,1.094,0.612,1.449c0.358,0.355,0.808,0.533,1.35,0.533
		c0.761,0,1.381-0.308,1.859-0.923l0.896,0.855c-0.296,0.442-0.692,0.785-1.186,1.029C150.042,33.801,149.487,33.923,148.872,33.923
		 M148.674,27.586c-0.456,0-0.824,0.16-1.104,0.479c-0.28,0.319-0.459,0.763-0.537,1.333h3.165v-0.123
		c-0.037-0.556-0.185-0.976-0.444-1.261C149.494,27.728,149.134,27.586,148.674,27.586 M121.695,33.923
		c-0.606,0-1.146-0.109-1.62-0.328c-0.474-0.219-0.843-0.52-1.107-0.902c-0.264-0.383-0.396-0.795-0.396-1.237h1.613
		c0.023,0.392,0.171,0.694,0.444,0.906c0.273,0.212,0.636,0.318,1.087,0.318c0.438,0,0.77-0.083,0.998-0.249
		c0.228-0.166,0.342-0.384,0.342-0.653c0-0.296-0.122-0.522-0.366-0.677c-0.244-0.155-0.648-0.292-1.213-0.41
		c-0.565-0.118-1.037-0.269-1.415-0.451c-0.829-0.401-1.244-0.982-1.244-1.743c0-0.638,0.269-1.171,0.807-1.6
		c0.538-0.428,1.221-0.643,2.051-0.643c0.884,0,1.598,0.219,2.143,0.656c0.545,0.438,0.817,1.005,0.817,1.702h-1.661
		c0-0.319-0.119-0.584-0.355-0.796c-0.237-0.212-0.551-0.318-0.943-0.318c-0.365,0-0.662,0.084-0.892,0.253
		c-0.23,0.169-0.345,0.394-0.345,0.677c0,0.255,0.107,0.454,0.321,0.595c0.214,0.141,0.647,0.284,1.299,0.427
		c0.652,0.144,1.163,0.314,1.535,0.513c0.371,0.198,0.647,0.436,0.827,0.714c0.18,0.278,0.27,0.615,0.27,1.012
		c0,0.665-0.276,1.204-0.827,1.617C123.31,33.717,122.588,33.923,121.695,33.923 M114.617,33.923c-1.053,0-1.906-0.332-2.56-0.995
		c-0.654-0.663-0.981-1.546-0.981-2.649v-0.205c0-0.738,0.142-1.398,0.427-1.979c0.285-0.581,0.685-1.033,1.2-1.357
		c0.515-0.323,1.089-0.485,1.723-0.485c1.007,0,1.785,0.321,2.334,0.964c0.549,0.643,0.824,1.552,0.824,2.728v0.67h-4.833
		c0.05,0.611,0.254,1.094,0.612,1.449c0.358,0.355,0.808,0.533,1.35,0.533c0.761,0,1.381-0.308,1.859-0.923l0.896,0.855
		c-0.296,0.442-0.692,0.785-1.186,1.029C115.787,33.801,115.233,33.923,114.617,33.923 M114.419,27.586
		c-0.456,0-0.824,0.16-1.104,0.479c-0.28,0.319-0.459,0.763-0.537,1.333h3.165v-0.123c-0.037-0.556-0.185-0.976-0.444-1.261
		C115.239,27.728,114.879,27.586,114.419,27.586 M106.008,33.923c-0.866,0-1.567-0.349-2.102-1.046
		c-0.536-0.697-0.803-1.645-0.803-2.844c0-1.139,0.264-2.054,0.793-2.745c0.529-0.69,1.237-1.036,2.126-1.036
		c0.784,0,1.417,0.273,1.9,0.82v-3.787h1.661v10.5h-1.504l-0.082-0.766C107.501,33.622,106.838,33.923,106.008,33.923
		 M106.446,27.613c-0.538,0-0.952,0.213-1.244,0.639c-0.292,0.426-0.438,1.068-0.438,1.924c0,0.752,0.145,1.339,0.434,1.76
		c0.289,0.422,0.701,0.632,1.234,0.632c0.679,0,1.176-0.303,1.49-0.909v-3.158C107.617,27.91,107.125,27.613,106.446,27.613
		 M92.15,33.923c-0.606,0-1.146-0.109-1.62-0.328c-0.474-0.219-0.843-0.52-1.107-0.902c-0.264-0.383-0.397-0.795-0.397-1.237h1.613
		c0.023,0.392,0.171,0.694,0.444,0.906c0.273,0.212,0.636,0.318,1.087,0.318c0.438,0,0.77-0.083,0.998-0.249
		c0.228-0.166,0.342-0.384,0.342-0.653c0-0.296-0.122-0.522-0.366-0.677c-0.244-0.155-0.648-0.292-1.213-0.41
		c-0.565-0.118-1.037-0.269-1.415-0.451c-0.83-0.401-1.244-0.982-1.244-1.743c0-0.638,0.269-1.171,0.807-1.6
		c0.538-0.428,1.221-0.643,2.051-0.643c0.884,0,1.598,0.219,2.143,0.656c0.545,0.438,0.817,1.005,0.817,1.702h-1.661
		c0-0.319-0.119-0.584-0.355-0.796c-0.237-0.212-0.552-0.318-0.943-0.318c-0.365,0-0.662,0.084-0.892,0.253
		c-0.23,0.169-0.345,0.394-0.345,0.677c0,0.255,0.107,0.454,0.321,0.595c0.214,0.141,0.647,0.284,1.299,0.427
		c0.652,0.144,1.163,0.314,1.535,0.513c0.371,0.198,0.647,0.436,0.827,0.714c0.18,0.278,0.27,0.615,0.27,1.012
		c0,0.665-0.276,1.204-0.827,1.617C93.766,33.717,93.043,33.923,92.15,33.923 M85.073,33.923c-1.053,0-1.906-0.332-2.56-0.995
		c-0.654-0.663-0.981-1.546-0.981-2.649v-0.205c0-0.738,0.142-1.398,0.427-1.979c0.285-0.581,0.685-1.033,1.2-1.357
		c0.515-0.323,1.089-0.485,1.723-0.485c1.007,0,1.785,0.321,2.334,0.964c0.549,0.643,0.824,1.552,0.824,2.728v0.67h-4.833
		c0.05,0.611,0.254,1.094,0.612,1.449c0.358,0.355,0.808,0.533,1.35,0.533c0.761,0,1.381-0.308,1.859-0.923l0.896,0.855
		c-0.296,0.442-0.692,0.785-1.186,1.029C86.243,33.801,85.688,33.923,85.073,33.923 M84.874,27.586c-0.456,0-0.824,0.16-1.104,0.479
		c-0.28,0.319-0.459,0.763-0.537,1.333h3.165v-0.123c-0.037-0.556-0.185-0.976-0.444-1.261
		C85.695,27.728,85.335,27.586,84.874,27.586 M75.97,33.923c-1.276,0-1.914-0.704-1.914-2.112v-4.19h-1.217v-1.23h1.217v-1.798
		h1.661v1.798h1.306v1.23h-1.306v4.129c0,0.283,0.056,0.486,0.167,0.612c0.112,0.125,0.311,0.188,0.598,0.188
		c0.191,0,0.385-0.023,0.581-0.068v1.285C76.685,33.87,76.321,33.923,75.97,33.923 M56.647,33.923c-0.802,0-1.409-0.235-1.822-0.704
		c-0.412-0.469-0.619-1.148-0.619-2.037V26.39h1.661v4.771c0,0.939,0.39,1.408,1.169,1.408c0.807,0,1.351-0.289,1.634-0.868V26.39
		h1.661v7.396h-1.565l-0.041-0.725C58.237,33.636,57.545,33.923,56.647,33.923 M51.934,33.923c-1.276,0-1.914-0.704-1.914-2.112
		v-4.19h-1.217v-1.23h1.217v-1.798h1.661v1.798h1.306v1.23h-1.306v4.129c0,0.283,0.056,0.486,0.167,0.612
		c0.112,0.125,0.311,0.188,0.598,0.188c0.191,0,0.385-0.023,0.581-0.068v1.285C52.65,33.87,52.285,33.923,51.934,33.923
		 M39.266,33.923c-1.044,0-1.879-0.347-2.505-1.042c-0.627-0.695-0.94-1.621-0.94-2.779v-0.082c0-0.725,0.144-1.377,0.431-1.958
		c0.287-0.581,0.69-1.028,1.21-1.34c0.52-0.312,1.116-0.468,1.791-0.468c0.998,0,1.808,0.321,2.43,0.964
		c0.622,0.643,0.958,1.495,1.008,2.557l0.007,0.39c0,0.729-0.14,1.381-0.42,1.955c-0.28,0.574-0.681,1.019-1.203,1.333
		C40.552,33.766,39.95,33.923,39.266,33.923 M39.253,27.586c-0.542,0-0.973,0.215-1.292,0.646c-0.319,0.431-0.479,1.074-0.479,1.931
		c0,0.761,0.157,1.357,0.472,1.788c0.314,0.431,0.752,0.646,1.313,0.646s0.997-0.219,1.309-0.656
		c0.312-0.438,0.468-1.078,0.468-1.921c0-0.747-0.161-1.34-0.482-1.777C40.24,27.805,39.804,27.586,39.253,27.586 M15.239,33.923
		c-1.044,0-1.879-0.347-2.505-1.042c-0.627-0.695-0.94-1.621-0.94-2.779v-0.082c0-0.725,0.144-1.377,0.431-1.958
		c0.287-0.581,0.69-1.028,1.21-1.34c0.52-0.312,1.116-0.468,1.791-0.468c0.998,0,1.808,0.321,2.43,0.964
		c0.622,0.643,0.958,1.495,1.008,2.557l0.007,0.39c0,0.729-0.14,1.381-0.42,1.955c-0.28,0.574-0.681,1.019-1.203,1.333
		C16.526,33.766,15.923,33.923,15.239,33.923 M15.226,27.586c-0.542,0-0.973,0.215-1.292,0.646s-0.478,1.074-0.478,1.931
		c0,0.761,0.157,1.357,0.472,1.788c0.314,0.431,0.752,0.646,1.313,0.646c0.561,0,0.997-0.219,1.309-0.656
		c0.312-0.438,0.468-1.078,0.468-1.921c0-0.747-0.161-1.34-0.482-1.777C16.213,27.805,15.777,27.586,15.226,27.586 M298.149,33.786
		h-1.661v-10.5h1.661V33.786 M278.591,33.786h-1.661V27.62h-1.128v-1.23h1.128v-0.677c0-0.82,0.228-1.454,0.684-1.9
		c0.456-0.447,1.094-0.67,1.914-0.67c0.292,0,0.602,0.041,0.93,0.123l-0.041,1.299c-0.182-0.036-0.394-0.055-0.636-0.055
		c-0.793,0-1.189,0.408-1.189,1.224v0.656h1.504v1.23h-1.504V33.786 M235.801,33.786h-1.661V26.39h1.586l0.041,0.827
		c0.401-0.643,0.957-0.964,1.668-0.964c0.237,0,0.433,0.032,0.588,0.096l-0.007,1.559c-0.219-0.036-0.444-0.055-0.677-0.055
		c-0.761,0-1.274,0.292-1.538,0.875V33.786 M207.31,33.786h-1.921l-2.194-3.172l-0.738,0.759v2.413h-1.661v-10.5h1.661v6.057
		l0.52-0.649l2.044-2.304h1.996l-2.748,3.083L207.31,33.786 M191.44,33.786h-1.661v-4.813c0-0.469-0.103-0.813-0.308-1.032
		c-0.205-0.219-0.545-0.328-1.018-0.328c-0.378,0-0.687,0.101-0.926,0.304c-0.239,0.203-0.407,0.468-0.502,0.796l0.007,5.072h-1.661
		v-4.867c-0.023-0.87-0.467-1.306-1.333-1.306c-0.665,0-1.137,0.271-1.415,0.814v5.359h-1.661V26.39h1.565l0.048,0.772
		c0.52-0.606,1.23-0.909,2.133-0.909c0.989,0,1.666,0.378,2.03,1.135c0.538-0.756,1.294-1.135,2.27-1.135
		c0.816,0,1.423,0.226,1.822,0.677c0.399,0.451,0.603,1.117,0.612,1.996V33.786 M143.878,33.786h-1.661v-4.792
		c0-0.469-0.101-0.817-0.304-1.042c-0.203-0.226-0.534-0.338-0.995-0.338c-0.67,0-1.169,0.303-1.497,0.909v5.264h-1.661V26.39h1.565
		l0.048,0.854c0.547-0.661,1.265-0.991,2.153-0.991c1.54,0,2.324,0.882,2.352,2.645V33.786 M127.919,33.786h-1.661V26.39h1.661
		V33.786 M80.014,33.786h-1.661V26.39h1.661V33.786 M71.718,33.786h-1.661V26.39h1.661V33.786 M68.228,33.786h-1.661v-4.792
		c0-0.469-0.101-0.817-0.304-1.042c-0.203-0.226-0.534-0.338-0.995-0.338c-0.67,0-1.169,0.303-1.497,0.909v5.264H62.11V26.39h1.565
		l0.048,0.854c0.547-0.661,1.265-0.991,2.153-0.991c1.54,0,2.324,0.882,2.352,2.645V33.786 M45.849,33.786h-1.661V26.39h1.586
		l0.041,0.827c0.401-0.643,0.957-0.964,1.668-0.964c0.237,0,0.433,0.032,0.588,0.096l-0.007,1.559
		c-0.219-0.036-0.444-0.055-0.677-0.055c-0.761,0-1.274,0.292-1.538,0.875V33.786 M127.091,25.344c-0.301,0-0.532-0.083-0.694-0.249
		c-0.162-0.166-0.243-0.375-0.243-0.626c0-0.255,0.081-0.467,0.243-0.636c0.162-0.169,0.393-0.253,0.694-0.253
		c0.301,0,0.533,0.084,0.697,0.253c0.164,0.169,0.246,0.381,0.246,0.636c0,0.251-0.082,0.459-0.246,0.626
		C127.625,25.261,127.392,25.344,127.091,25.344 M79.187,25.344c-0.301,0-0.532-0.083-0.694-0.249
		c-0.162-0.166-0.243-0.375-0.243-0.626c0-0.255,0.081-0.467,0.243-0.636c0.162-0.169,0.393-0.253,0.694-0.253
		c0.301,0,0.533,0.084,0.697,0.253c0.164,0.169,0.246,0.381,0.246,0.636c0,0.251-0.082,0.459-0.246,0.626
		C79.72,25.261,79.488,25.344,79.187,25.344 M70.891,25.344c-0.301,0-0.532-0.083-0.694-0.249c-0.162-0.166-0.243-0.375-0.243-0.626
		c0-0.255,0.081-0.467,0.243-0.636c0.162-0.169,0.393-0.253,0.694-0.253c0.301,0,0.533,0.084,0.697,0.253
		c0.164,0.169,0.246,0.381,0.246,0.636c0,0.251-0.082,0.459-0.246,0.626C71.424,25.261,71.192,25.344,70.891,25.344"/>
	<path fill="#000000" d="M185.182,54.773c-0.242,0-0.508-0.041-0.8-0.124v-1.291l0.314,0.021c0.419,0,0.735-0.076,0.947-0.229
		c0.212-0.153,0.379-0.409,0.502-0.769l0.239-0.635l-2.598-7.357h1.791l1.565,5.018l1.504-5.018h1.77l-2.939,8.518
		C187.028,54.151,186.262,54.773,185.182,54.773 M32.773,54.773c-0.242,0-0.508-0.041-0.8-0.124v-1.291l0.314,0.021
		c0.419,0,0.735-0.076,0.947-0.229c0.212-0.153,0.379-0.409,0.502-0.769l0.239-0.635l-2.598-7.357h1.791l1.565,5.018l1.504-5.018
		h1.771l-2.939,8.518C34.619,54.151,33.853,54.773,32.773,54.773 M147.308,54.698c-0.542,0-1.072-0.113-1.589-0.338
		c-0.517-0.226-0.91-0.521-1.179-0.885l0.786-0.998c0.51,0.606,1.139,0.909,1.887,0.909c0.551,0,0.987-0.149,1.306-0.448
		c0.319-0.299,0.479-0.737,0.479-1.316v-0.499c-0.479,0.533-1.117,0.8-1.914,0.8c-0.866,0-1.573-0.344-2.123-1.032
		c-0.549-0.688-0.824-1.641-0.824-2.857c0-1.148,0.27-2.066,0.81-2.752c0.54-0.686,1.257-1.029,2.15-1.029
		c0.843,0,1.506,0.294,1.989,0.882l0.075-0.745h1.497v7.171c0,0.971-0.302,1.736-0.906,2.297
		C149.148,54.418,148.334,54.698,147.308,54.698 M147.52,45.613c-0.547,0-0.972,0.217-1.275,0.649
		c-0.303,0.433-0.455,1.071-0.455,1.914c0,0.743,0.151,1.327,0.455,1.753c0.303,0.426,0.723,0.639,1.261,0.639
		c0.67,0,1.167-0.287,1.49-0.861v-3.254C148.682,45.894,148.19,45.613,147.52,45.613 M67.408,54.63h-1.661V44.39h1.531l0.068,0.752
		c0.488-0.592,1.151-0.889,1.989-0.889c0.902,0,1.61,0.336,2.123,1.008c0.513,0.672,0.769,1.605,0.769,2.799v0.103
		c0,1.144-0.26,2.057-0.779,2.738c-0.52,0.681-1.217,1.022-2.092,1.022c-0.811,0-1.461-0.267-1.948-0.8V54.63 M68.871,45.613
		c-0.679,0-1.167,0.28-1.463,0.841v3.281c0.301,0.574,0.793,0.861,1.477,0.861c0.529,0,0.942-0.213,1.241-0.639
		c0.298-0.426,0.448-1.072,0.448-1.938c0-0.738-0.147-1.324-0.441-1.757C69.838,45.83,69.418,45.613,68.871,45.613 M59.415,54.63
		h-1.661V44.39h1.531l0.068,0.752c0.488-0.592,1.151-0.889,1.989-0.889c0.902,0,1.61,0.336,2.123,1.008
		c0.513,0.672,0.769,1.605,0.769,2.799v0.103c0,1.144-0.26,2.057-0.779,2.738c-0.52,0.681-1.217,1.022-2.092,1.022
		c-0.811,0-1.461-0.267-1.948-0.8V54.63 M60.878,45.613c-0.679,0-1.167,0.28-1.463,0.841v3.281c0.301,0.574,0.793,0.861,1.477,0.861
		c0.529,0,0.942-0.213,1.241-0.639c0.298-0.426,0.448-1.072,0.448-1.938c0-0.738-0.147-1.324-0.441-1.757
		C61.846,45.83,61.425,45.613,60.878,45.613 M257.452,51.923c-0.606,0-1.146-0.109-1.62-0.328c-0.474-0.219-0.843-0.52-1.107-0.902
		c-0.264-0.383-0.397-0.795-0.397-1.237h1.613c0.023,0.392,0.171,0.694,0.444,0.906c0.273,0.212,0.636,0.318,1.087,0.318
		c0.438,0,0.77-0.083,0.998-0.249c0.228-0.166,0.342-0.384,0.342-0.653c0-0.296-0.122-0.522-0.366-0.677
		c-0.244-0.155-0.648-0.292-1.213-0.41c-0.565-0.118-1.037-0.269-1.415-0.451c-0.83-0.401-1.244-0.982-1.244-1.743
		c0-0.638,0.269-1.171,0.807-1.6c0.538-0.428,1.221-0.643,2.051-0.643c0.884,0,1.598,0.219,2.143,0.656
		c0.545,0.438,0.817,1.005,0.817,1.702h-1.661c0-0.319-0.119-0.584-0.355-0.796c-0.237-0.212-0.551-0.318-0.943-0.318
		c-0.365,0-0.662,0.084-0.892,0.253c-0.23,0.169-0.345,0.394-0.345,0.677c0,0.255,0.107,0.454,0.321,0.595
		c0.214,0.141,0.647,0.284,1.299,0.427c0.652,0.144,1.163,0.314,1.535,0.513c0.371,0.198,0.647,0.436,0.827,0.714
		c0.18,0.278,0.27,0.615,0.27,1.012c0,0.665-0.276,1.204-0.827,1.617C259.068,51.717,258.345,51.923,257.452,51.923 M250.375,51.923
		c-1.053,0-1.906-0.331-2.56-0.995c-0.654-0.663-0.981-1.546-0.981-2.649v-0.205c0-0.738,0.142-1.398,0.427-1.979
		c0.285-0.581,0.685-1.033,1.2-1.357c0.515-0.324,1.089-0.485,1.723-0.485c1.007,0,1.785,0.321,2.334,0.964
		c0.549,0.643,0.824,1.552,0.824,2.728v0.67h-4.833c0.05,0.611,0.254,1.094,0.612,1.449c0.358,0.355,0.808,0.533,1.35,0.533
		c0.761,0,1.381-0.308,1.859-0.923l0.895,0.854c-0.296,0.442-0.692,0.785-1.186,1.029C251.545,51.801,250.99,51.923,250.375,51.923
		 M250.177,45.586c-0.456,0-0.824,0.16-1.104,0.479c-0.28,0.319-0.459,0.763-0.537,1.333h3.165v-0.123
		c-0.037-0.556-0.185-0.976-0.444-1.261C250.997,45.728,250.637,45.586,250.177,45.586 M238.209,51.923
		c-0.866,0-1.567-0.349-2.102-1.046c-0.536-0.697-0.803-1.645-0.803-2.844c0-1.139,0.264-2.054,0.793-2.745
		c0.529-0.69,1.237-1.036,2.126-1.036c0.784,0,1.417,0.273,1.9,0.82v-3.787h1.661v10.5h-1.504l-0.082-0.766
		C239.701,51.622,239.038,51.923,238.209,51.923 M238.646,45.613c-0.538,0-0.952,0.213-1.244,0.639
		c-0.292,0.426-0.438,1.068-0.438,1.924c0,0.752,0.145,1.339,0.434,1.76c0.289,0.422,0.701,0.632,1.234,0.632
		c0.679,0,1.176-0.303,1.49-0.909v-3.158C239.818,45.91,239.325,45.613,238.646,45.613 M230.139,51.923
		c-0.802,0-1.409-0.235-1.822-0.704c-0.412-0.469-0.619-1.148-0.619-2.037V44.39h1.661v4.771c0,0.939,0.39,1.408,1.169,1.408
		c0.807,0,1.351-0.289,1.634-0.868V44.39h1.661v7.396h-1.565l-0.041-0.725C231.729,51.636,231.037,51.923,230.139,51.923
		 M225.426,51.923c-1.276,0-1.914-0.704-1.914-2.112v-4.19h-1.217v-1.23h1.217v-1.798h1.661v1.798h1.306v1.23h-1.306v4.129
		c0,0.283,0.056,0.487,0.167,0.612c0.112,0.125,0.311,0.188,0.598,0.188c0.191,0,0.385-0.023,0.581-0.068v1.285
		C226.142,51.87,225.777,51.923,225.426,51.923 M218.47,51.923c-0.606,0-1.146-0.109-1.62-0.328
		c-0.474-0.219-0.843-0.52-1.107-0.902c-0.264-0.383-0.396-0.795-0.396-1.237h1.613c0.023,0.392,0.171,0.694,0.444,0.906
		c0.273,0.212,0.636,0.318,1.087,0.318c0.438,0,0.77-0.083,0.998-0.249c0.228-0.166,0.342-0.384,0.342-0.653
		c0-0.296-0.122-0.522-0.366-0.677c-0.244-0.155-0.648-0.292-1.213-0.41c-0.565-0.118-1.037-0.269-1.415-0.451
		c-0.829-0.401-1.244-0.982-1.244-1.743c0-0.638,0.269-1.171,0.807-1.6c0.538-0.428,1.221-0.643,2.051-0.643
		c0.884,0,1.598,0.219,2.143,0.656c0.545,0.438,0.817,1.005,0.817,1.702h-1.661c0-0.319-0.119-0.584-0.355-0.796
		c-0.237-0.212-0.552-0.318-0.943-0.318c-0.365,0-0.662,0.084-0.892,0.253c-0.23,0.169-0.345,0.394-0.345,0.677
		c0,0.255,0.107,0.454,0.321,0.595c0.214,0.141,0.647,0.284,1.299,0.427c0.652,0.144,1.163,0.314,1.535,0.513
		c0.371,0.198,0.647,0.436,0.827,0.714c0.18,0.278,0.27,0.615,0.27,1.012c0,0.665-0.276,1.204-0.827,1.617
		C220.085,51.717,219.363,51.923,218.47,51.923 M201.656,51.923c-0.802,0-1.409-0.235-1.822-0.704
		c-0.412-0.469-0.619-1.148-0.619-2.037V44.39h1.661v4.771c0,0.939,0.39,1.408,1.169,1.408c0.807,0,1.351-0.289,1.634-0.868V44.39
		h1.661v7.396h-1.565l-0.041-0.725C203.246,51.636,202.554,51.923,201.656,51.923 M194.359,51.923c-1.044,0-1.879-0.347-2.505-1.042
		c-0.627-0.695-0.94-1.621-0.94-2.779V48.02c0-0.725,0.144-1.377,0.431-1.959c0.287-0.581,0.69-1.028,1.21-1.34
		c0.52-0.312,1.116-0.468,1.791-0.468c0.998,0,1.808,0.321,2.43,0.964c0.622,0.643,0.958,1.495,1.008,2.557l0.007,0.39
		c0,0.729-0.14,1.381-0.42,1.955c-0.28,0.574-0.681,1.019-1.203,1.333C195.646,51.766,195.043,51.923,194.359,51.923
		 M194.346,45.586c-0.542,0-0.973,0.215-1.292,0.646c-0.319,0.431-0.479,1.074-0.479,1.931c0,0.761,0.157,1.357,0.472,1.788
		c0.314,0.431,0.752,0.646,1.312,0.646s0.997-0.219,1.309-0.656c0.312-0.438,0.468-1.078,0.468-1.921
		c0-0.747-0.161-1.34-0.482-1.777C195.333,45.805,194.897,45.586,194.346,45.586 M178.61,51.923c-1.276,0-1.914-0.704-1.914-2.112
		v-4.19h-1.217v-1.23h1.217v-1.798h1.661v1.798h1.306v1.23h-1.306v4.129c0,0.283,0.056,0.487,0.167,0.612
		c0.112,0.125,0.311,0.188,0.598,0.188c0.191,0,0.385-0.023,0.581-0.068v1.285C179.325,51.87,178.96,51.923,178.61,51.923
		 M170.735,51.923c-0.802,0-1.409-0.235-1.822-0.704c-0.413-0.469-0.619-1.148-0.619-2.037V44.39h1.661v4.771
		c0,0.939,0.39,1.408,1.169,1.408c0.807,0,1.351-0.289,1.634-0.868V44.39h1.661v7.396h-1.565l-0.041-0.725
		C172.325,51.636,171.633,51.923,170.735,51.923 M163.438,51.923c-1.044,0-1.879-0.347-2.505-1.042
		c-0.627-0.695-0.94-1.621-0.94-2.779V48.02c0-0.725,0.144-1.377,0.431-1.959c0.287-0.581,0.69-1.028,1.21-1.34
		c0.52-0.312,1.117-0.468,1.791-0.468c0.998,0,1.808,0.321,2.43,0.964c0.622,0.643,0.958,1.495,1.008,2.557l0.007,0.39
		c0,0.729-0.14,1.381-0.42,1.955c-0.28,0.574-0.681,1.019-1.203,1.333C164.724,51.766,164.122,51.923,163.438,51.923
		 M163.424,45.586c-0.542,0-0.973,0.215-1.292,0.646c-0.319,0.431-0.479,1.074-0.479,1.931c0,0.761,0.157,1.357,0.472,1.788
		c0.314,0.431,0.752,0.646,1.312,0.646s0.997-0.219,1.309-0.656s0.468-1.078,0.468-1.921c0-0.747-0.161-1.34-0.482-1.777
		S163.976,45.586,163.424,45.586 M138.945,51.923c-0.802,0-1.409-0.235-1.822-0.704c-0.412-0.469-0.619-1.148-0.619-2.037V44.39
		h1.661v4.771c0,0.939,0.39,1.408,1.169,1.408c0.807,0,1.351-0.289,1.634-0.868V44.39h1.661v7.396h-1.565l-0.041-0.725
		C140.536,51.636,139.843,51.923,138.945,51.923 M131.649,51.923c-1.044,0-1.879-0.347-2.505-1.042
		c-0.627-0.695-0.94-1.621-0.94-2.779V48.02c0-0.725,0.144-1.377,0.431-1.959c0.287-0.581,0.69-1.028,1.21-1.34
		c0.52-0.312,1.116-0.468,1.791-0.468c0.998,0,1.808,0.321,2.43,0.964c0.622,0.643,0.958,1.495,1.008,2.557l0.007,0.39
		c0,0.729-0.14,1.381-0.42,1.955c-0.28,0.574-0.681,1.019-1.203,1.333C132.935,51.766,132.332,51.923,131.649,51.923
		 M131.635,45.586c-0.542,0-0.973,0.215-1.292,0.646c-0.319,0.431-0.479,1.074-0.479,1.931c0,0.761,0.157,1.357,0.472,1.788
		c0.314,0.431,0.752,0.646,1.312,0.646s0.997-0.219,1.309-0.656c0.312-0.438,0.468-1.078,0.468-1.921
		c0-0.747-0.161-1.34-0.482-1.777C132.623,45.805,132.186,45.586,131.635,45.586 M113.281,51.923c-1.276,0-1.914-0.704-1.914-2.112
		v-4.19h-1.217v-1.23h1.217v-1.798h1.661v1.798h1.306v1.23h-1.306v4.129c0,0.283,0.056,0.487,0.167,0.612
		c0.112,0.125,0.311,0.188,0.598,0.188c0.191,0,0.385-0.023,0.581-0.068v1.285C113.996,51.87,113.632,51.923,113.281,51.923
		 M102.012,51.923c-0.866,0-1.567-0.349-2.102-1.046c-0.536-0.697-0.803-1.645-0.803-2.844c0-1.139,0.264-2.054,0.793-2.745
		c0.529-0.69,1.237-1.036,2.126-1.036c0.784,0,1.417,0.273,1.9,0.82v-3.787h1.661v10.5h-1.504l-0.082-0.766
		C103.505,51.622,102.841,51.923,102.012,51.923 M102.45,45.613c-0.538,0-0.952,0.213-1.244,0.639
		c-0.292,0.426-0.438,1.068-0.438,1.924c0,0.752,0.145,1.339,0.434,1.76c0.289,0.422,0.701,0.632,1.234,0.632
		c0.679,0,1.176-0.303,1.49-0.909v-3.158C103.621,45.91,103.129,45.613,102.45,45.613 M95.01,51.923
		c-1.053,0-1.906-0.331-2.56-0.995c-0.654-0.663-0.981-1.546-0.981-2.649v-0.205c0-0.738,0.142-1.398,0.427-1.979
		s0.685-1.033,1.2-1.357c0.515-0.324,1.089-0.485,1.723-0.485c1.007,0,1.785,0.321,2.334,0.964c0.549,0.643,0.824,1.552,0.824,2.728
		v0.67h-4.833c0.05,0.611,0.254,1.094,0.612,1.449c0.358,0.355,0.808,0.533,1.35,0.533c0.761,0,1.381-0.308,1.859-0.923l0.896,0.854
		c-0.296,0.442-0.692,0.785-1.186,1.029C96.18,51.801,95.625,51.923,95.01,51.923 M94.812,45.586c-0.456,0-0.824,0.16-1.104,0.479
		c-0.28,0.319-0.459,0.763-0.537,1.333h3.165v-0.123c-0.037-0.556-0.185-0.976-0.444-1.261
		C95.632,45.728,95.272,45.586,94.812,45.586 M89.528,51.923c-1.276,0-1.914-0.704-1.914-2.112v-4.19h-1.217v-1.23h1.217v-1.798
		h1.661v1.798h1.306v1.23h-1.306v4.129c0,0.283,0.056,0.487,0.167,0.612c0.112,0.125,0.311,0.188,0.598,0.188
		c0.191,0,0.385-0.023,0.581-0.068v1.285C90.244,51.87,89.879,51.923,89.528,51.923 M76.86,51.923c-1.044,0-1.879-0.347-2.505-1.042
		c-0.627-0.695-0.94-1.621-0.94-2.779V48.02c0-0.725,0.144-1.377,0.431-1.959c0.287-0.581,0.69-1.028,1.21-1.34
		c0.52-0.312,1.116-0.468,1.791-0.468c0.998,0,1.808,0.321,2.43,0.964c0.622,0.643,0.958,1.495,1.008,2.557l0.007,0.39
		c0,0.729-0.14,1.381-0.42,1.955c-0.28,0.574-0.681,1.019-1.203,1.333C78.146,51.766,77.544,51.923,76.86,51.923 M76.846,45.586
		c-0.542,0-0.973,0.215-1.292,0.646c-0.319,0.431-0.479,1.074-0.479,1.931c0,0.761,0.157,1.357,0.472,1.788
		c0.314,0.431,0.752,0.646,1.313,0.646c0.561,0,0.997-0.219,1.309-0.656c0.312-0.438,0.468-1.078,0.468-1.921
		c0-0.747-0.161-1.34-0.482-1.777C77.834,45.805,77.398,45.586,76.846,45.586 M52.278,51.923c-0.802,0-1.409-0.235-1.822-0.704
		c-0.413-0.469-0.619-1.148-0.619-2.037V44.39h1.661v4.771c0,0.939,0.39,1.408,1.169,1.408c0.807,0,1.351-0.289,1.634-0.868V44.39
		h1.661v7.396h-1.565l-0.041-0.725C53.868,51.636,53.175,51.923,52.278,51.923 M45.375,51.923c-0.606,0-1.146-0.109-1.62-0.328
		c-0.474-0.219-0.843-0.52-1.107-0.902c-0.264-0.383-0.396-0.795-0.396-1.237h1.613c0.023,0.392,0.171,0.694,0.444,0.906
		c0.273,0.212,0.636,0.318,1.087,0.318c0.438,0,0.77-0.083,0.998-0.249c0.228-0.166,0.342-0.384,0.342-0.653
		c0-0.296-0.122-0.522-0.366-0.677c-0.244-0.155-0.648-0.292-1.213-0.41c-0.565-0.118-1.037-0.269-1.415-0.451
		c-0.83-0.401-1.244-0.982-1.244-1.743c0-0.638,0.269-1.171,0.807-1.6c0.538-0.428,1.221-0.643,2.051-0.643
		c0.884,0,1.598,0.219,2.143,0.656c0.544,0.438,0.817,1.005,0.817,1.702h-1.661c0-0.319-0.119-0.584-0.355-0.796
		c-0.237-0.212-0.551-0.318-0.943-0.318c-0.365,0-0.662,0.084-0.892,0.253c-0.23,0.169-0.345,0.394-0.345,0.677
		c0,0.255,0.107,0.454,0.321,0.595c0.214,0.141,0.647,0.284,1.299,0.427c0.652,0.144,1.163,0.314,1.535,0.513
		c0.371,0.198,0.647,0.436,0.827,0.714c0.18,0.278,0.27,0.615,0.27,1.012c0,0.665-0.276,1.204-0.827,1.617
		C46.99,51.717,46.268,51.923,45.375,51.923 M19.489,51.923c-0.802,0-1.409-0.235-1.822-0.704c-0.412-0.469-0.619-1.148-0.619-2.037
		V44.39h1.661v4.771c0,0.939,0.39,1.408,1.169,1.408c0.807,0,1.351-0.289,1.634-0.868V44.39h1.661v7.396h-1.565l-0.041-0.725
		C21.079,51.636,20.387,51.923,19.489,51.923 M262.915,51.861c-0.296,0-0.531-0.084-0.704-0.253c-0.173-0.169-0.26-0.385-0.26-0.649
		c0-0.264,0.084-0.484,0.253-0.66c0.169-0.175,0.406-0.263,0.711-0.263c0.31,0,0.549,0.088,0.718,0.263
		c0.169,0.175,0.253,0.395,0.253,0.66c0,0.26-0.084,0.475-0.253,0.646C263.464,51.776,263.225,51.861,262.915,51.861
		 M245.316,51.786h-1.661V44.39h1.661V51.786 M208.794,51.786h-1.661V44.39h1.586l0.041,0.827c0.401-0.643,0.957-0.964,1.668-0.964
		c0.237,0,0.433,0.032,0.588,0.096l-0.007,1.559c-0.219-0.036-0.444-0.055-0.677-0.055c-0.761,0-1.274,0.292-1.538,0.875V51.786
		 M158.56,51.786h-1.661v-4.771c0-0.51-0.111-0.872-0.332-1.084c-0.221-0.212-0.546-0.318-0.974-0.318
		c-0.665,0-1.162,0.296-1.49,0.889v5.284h-1.661v-10.5h1.661v3.91c0.542-0.629,1.228-0.943,2.058-0.943c1.577,0,2.377,0.9,2.399,2.7
		V51.786 M125.197,51.786h-1.661V44.39h1.586l0.041,0.827c0.401-0.643,0.957-0.964,1.668-0.964c0.237,0,0.433,0.032,0.588,0.096
		l-0.007,1.559c-0.219-0.036-0.444-0.055-0.677-0.055c-0.761,0-1.274,0.292-1.538,0.875V51.786 M121.758,51.786h-1.661v-4.771
		c0-0.51-0.111-0.872-0.331-1.084c-0.221-0.212-0.546-0.318-0.974-0.318c-0.665,0-1.162,0.296-1.49,0.889v5.284h-1.661v-10.5h1.661
		v3.91c0.542-0.629,1.228-0.943,2.058-0.943c1.577,0,2.377,0.9,2.399,2.7V51.786 M83.443,51.786h-1.661V44.39h1.586l0.041,0.827
		c0.401-0.643,0.957-0.964,1.668-0.964c0.237,0,0.433,0.032,0.588,0.096l-0.007,1.559c-0.219-0.036-0.444-0.055-0.677-0.055
		c-0.761,0-1.274,0.292-1.538,0.875V51.786 M30.244,51.786h-1.661v-10.5h1.661V51.786 M26.679,51.786h-1.661v-10.5h1.661V51.786
		 M14.351,51.786h-1.661V45.62h-1.128v-1.23h1.128v-0.677c0-0.82,0.228-1.454,0.684-1.9c0.456-0.447,1.094-0.67,1.914-0.67
		c0.292,0,0.602,0.041,0.93,0.123l-0.041,1.299c-0.182-0.036-0.394-0.055-0.636-0.055c-0.793,0-1.189,0.408-1.189,1.224v0.656h1.504
		v1.23h-1.504V51.786 M244.489,43.344c-0.301,0-0.532-0.083-0.694-0.25c-0.162-0.166-0.243-0.375-0.243-0.625
		c0-0.255,0.081-0.467,0.243-0.636c0.162-0.169,0.393-0.253,0.694-0.253s0.533,0.084,0.697,0.253
		c0.164,0.169,0.246,0.381,0.246,0.636c0,0.251-0.082,0.459-0.246,0.625C245.022,43.261,244.79,43.344,244.489,43.344"/>
	<path fill="#000000" d="M193.519,90.773c-0.242,0-0.508-0.041-0.8-0.124v-1.291l0.314,0.02c0.419,0,0.735-0.076,0.947-0.229
		c0.212-0.153,0.379-0.409,0.502-0.769l0.239-0.635l-2.598-7.357h1.791l1.565,5.018l1.504-5.018h1.771l-2.939,8.518
		C195.365,90.151,194.599,90.773,193.519,90.773 M101.363,90.028l-0.896-0.533c0.264-0.415,0.445-0.776,0.544-1.083
		c0.098-0.308,0.149-0.621,0.154-0.94V86.18h1.497l-0.007,1.196c-0.005,0.483-0.126,0.967-0.366,1.453
		C102.05,89.314,101.742,89.714,101.363,90.028 M276.937,87.923c-1.044,0-1.879-0.347-2.505-1.042
		c-0.627-0.695-0.94-1.621-0.94-2.779V84.02c0-0.725,0.144-1.377,0.431-1.959c0.287-0.581,0.69-1.028,1.21-1.34
		c0.52-0.312,1.116-0.468,1.791-0.468c0.998,0,1.808,0.321,2.43,0.964c0.622,0.643,0.958,1.495,1.008,2.557l0.007,0.39
		c0,0.729-0.14,1.381-0.42,1.955c-0.28,0.574-0.681,1.019-1.203,1.333C278.223,87.766,277.62,87.923,276.937,87.923 M276.923,81.586
		c-0.542,0-0.973,0.215-1.292,0.646c-0.319,0.431-0.478,1.074-0.478,1.931c0,0.761,0.157,1.357,0.472,1.788
		c0.314,0.431,0.752,0.646,1.312,0.646s0.997-0.219,1.309-0.656c0.312-0.438,0.468-1.078,0.468-1.921
		c0-0.747-0.161-1.34-0.482-1.777C277.911,81.805,277.475,81.586,276.923,81.586 M265.921,87.923c-1.053,0-1.906-0.332-2.56-0.995
		c-0.654-0.663-0.981-1.546-0.981-2.649v-0.205c0-0.738,0.142-1.398,0.427-1.979s0.685-1.033,1.2-1.357
		c0.515-0.323,1.089-0.485,1.723-0.485c1.007,0,1.785,0.321,2.334,0.964c0.549,0.643,0.824,1.552,0.824,2.728v0.67h-4.833
		c0.05,0.611,0.254,1.094,0.612,1.449c0.358,0.355,0.808,0.533,1.35,0.533c0.761,0,1.381-0.308,1.859-0.923l0.896,0.854
		c-0.296,0.442-0.692,0.785-1.186,1.029C267.091,87.801,266.536,87.923,265.921,87.923 M265.723,81.586
		c-0.456,0-0.824,0.16-1.104,0.479c-0.28,0.319-0.459,0.763-0.537,1.333h3.165v-0.123c-0.037-0.556-0.185-0.976-0.444-1.261
		C266.543,81.728,266.183,81.586,265.723,81.586 M245.519,87.923c-1.044,0-1.879-0.347-2.505-1.042
		c-0.627-0.695-0.94-1.621-0.94-2.779V84.02c0-0.725,0.144-1.377,0.431-1.959c0.287-0.581,0.69-1.028,1.21-1.34
		c0.52-0.312,1.116-0.468,1.791-0.468c0.998,0,1.808,0.321,2.43,0.964c0.622,0.643,0.958,1.495,1.008,2.557l0.007,0.39
		c0,0.729-0.14,1.381-0.42,1.955c-0.28,0.574-0.681,1.019-1.203,1.333C246.806,87.766,246.203,87.923,245.519,87.923
		 M245.506,81.586c-0.542,0-0.973,0.215-1.292,0.646c-0.319,0.431-0.478,1.074-0.478,1.931c0,0.761,0.157,1.357,0.472,1.788
		c0.314,0.431,0.752,0.646,1.312,0.646s0.997-0.219,1.309-0.656c0.312-0.438,0.468-1.078,0.468-1.921
		c0-0.747-0.161-1.34-0.482-1.777C246.494,81.805,246.057,81.586,245.506,81.586 M237.937,87.923c-0.606,0-1.146-0.109-1.62-0.328
		c-0.474-0.219-0.843-0.52-1.107-0.902c-0.264-0.383-0.397-0.795-0.397-1.237h1.613c0.023,0.392,0.171,0.694,0.444,0.906
		c0.273,0.212,0.636,0.318,1.087,0.318c0.438,0,0.77-0.083,0.998-0.249c0.228-0.166,0.342-0.384,0.342-0.653
		c0-0.296-0.122-0.522-0.366-0.677c-0.244-0.155-0.648-0.292-1.213-0.41c-0.565-0.119-1.037-0.269-1.415-0.451
		c-0.83-0.401-1.244-0.982-1.244-1.743c0-0.638,0.269-1.171,0.807-1.6c0.538-0.428,1.221-0.643,2.051-0.643
		c0.884,0,1.598,0.219,2.143,0.656c0.545,0.438,0.817,1.005,0.817,1.702h-1.661c0-0.319-0.119-0.584-0.355-0.796
		c-0.237-0.212-0.551-0.318-0.943-0.318c-0.365,0-0.662,0.084-0.892,0.253c-0.23,0.169-0.345,0.394-0.345,0.677
		c0,0.255,0.107,0.454,0.321,0.595c0.214,0.141,0.647,0.284,1.299,0.427c0.652,0.143,1.163,0.314,1.535,0.513
		c0.371,0.198,0.647,0.436,0.827,0.714c0.18,0.278,0.27,0.615,0.27,1.012c0,0.665-0.276,1.204-0.827,1.617
		C239.552,87.717,238.83,87.923,237.937,87.923 M226.688,87.923c-1.044,0-1.879-0.347-2.505-1.042
		c-0.627-0.695-0.94-1.621-0.94-2.779V84.02c0-0.725,0.144-1.377,0.431-1.959c0.287-0.581,0.69-1.028,1.21-1.34
		c0.52-0.312,1.116-0.468,1.791-0.468c0.998,0,1.808,0.321,2.43,0.964c0.622,0.643,0.958,1.495,1.008,2.557l0.007,0.39
		c0,0.729-0.14,1.381-0.42,1.955c-0.28,0.574-0.681,1.019-1.203,1.333C227.975,87.766,227.372,87.923,226.688,87.923
		 M226.675,81.586c-0.542,0-0.973,0.215-1.292,0.646c-0.319,0.431-0.479,1.074-0.479,1.931c0,0.761,0.157,1.357,0.472,1.788
		c0.314,0.431,0.752,0.646,1.312,0.646c0.561,0,0.997-0.219,1.309-0.656c0.312-0.438,0.468-1.078,0.468-1.921
		c0-0.747-0.161-1.34-0.482-1.777S227.226,81.586,226.675,81.586 M221.33,87.923c-1.276,0-1.914-0.704-1.914-2.112v-4.19h-1.217
		v-1.23h1.217v-1.798h1.661v1.798h1.306v1.23h-1.306v4.129c0,0.283,0.056,0.487,0.167,0.612c0.112,0.125,0.311,0.188,0.598,0.188
		c0.191,0,0.385-0.023,0.581-0.068v1.285C222.045,87.87,221.681,87.923,221.33,87.923 M209.993,87.923
		c-0.802,0-1.409-0.235-1.822-0.704c-0.412-0.469-0.619-1.148-0.619-2.037V80.39h1.661v4.771c0,0.939,0.39,1.408,1.169,1.408
		c0.807,0,1.351-0.289,1.634-0.868V80.39h1.661v7.396h-1.565l-0.041-0.725C211.583,87.636,210.89,87.923,209.993,87.923
		 M202.696,87.923c-1.044,0-1.879-0.347-2.505-1.042c-0.627-0.695-0.94-1.621-0.94-2.779V84.02c0-0.725,0.144-1.377,0.431-1.959
		c0.287-0.581,0.69-1.028,1.21-1.34c0.52-0.312,1.116-0.468,1.791-0.468c0.998,0,1.808,0.321,2.43,0.964
		c0.622,0.643,0.958,1.495,1.008,2.557l0.007,0.39c0,0.729-0.14,1.381-0.42,1.955c-0.28,0.574-0.681,1.019-1.203,1.333
		C203.982,87.766,203.38,87.923,202.696,87.923 M202.682,81.586c-0.542,0-0.973,0.215-1.292,0.646
		c-0.319,0.431-0.478,1.074-0.478,1.931c0,0.761,0.157,1.357,0.472,1.788c0.314,0.431,0.752,0.646,1.312,0.646
		c0.561,0,0.997-0.219,1.309-0.656c0.312-0.438,0.468-1.078,0.468-1.921c0-0.747-0.161-1.34-0.482-1.777
		S203.234,81.586,202.682,81.586 M185.012,87.923c-1.053,0-1.906-0.332-2.56-0.995c-0.654-0.663-0.981-1.546-0.981-2.649v-0.205
		c0-0.738,0.142-1.398,0.427-1.979c0.285-0.581,0.685-1.033,1.2-1.357c0.515-0.323,1.089-0.485,1.723-0.485
		c1.007,0,1.785,0.321,2.334,0.964c0.549,0.643,0.824,1.552,0.824,2.728v0.67h-4.833c0.05,0.611,0.254,1.094,0.612,1.449
		c0.358,0.355,0.808,0.533,1.35,0.533c0.761,0,1.381-0.308,1.859-0.923l0.896,0.854c-0.296,0.442-0.692,0.785-1.186,1.029
		C186.182,87.801,185.627,87.923,185.012,87.923 M184.813,81.586c-0.456,0-0.824,0.16-1.104,0.479
		c-0.28,0.319-0.459,0.763-0.537,1.333h3.165v-0.123c-0.037-0.556-0.185-0.976-0.444-1.261
		C185.634,81.728,185.274,81.586,184.813,81.586 M177.39,87.923c-1.035,0-1.855-0.335-2.461-1.005
		c-0.606-0.67-0.909-1.595-0.909-2.775v-0.171c0-1.126,0.301-2.027,0.902-2.704c0.602-0.677,1.422-1.015,2.461-1.015
		c0.88,0,1.596,0.256,2.15,0.769s0.844,1.186,0.872,2.02h-1.565c-0.018-0.424-0.163-0.772-0.434-1.046
		c-0.271-0.273-0.616-0.41-1.036-0.41c-0.538,0-0.953,0.195-1.244,0.584c-0.292,0.39-0.44,0.981-0.444,1.774v0.267
		c0,0.802,0.145,1.4,0.434,1.794c0.289,0.394,0.708,0.591,1.254,0.591c0.415,0,0.759-0.121,1.032-0.362
		c0.273-0.241,0.419-0.54,0.438-0.896h1.565c-0.018,0.46-0.162,0.89-0.431,1.289c-0.269,0.399-0.633,0.714-1.094,0.947
		C178.42,87.807,177.923,87.923,177.39,87.923 M168.855,87.923c-0.802,0-1.409-0.235-1.822-0.704
		c-0.412-0.469-0.619-1.148-0.619-2.037V80.39h1.661v4.771c0,0.939,0.39,1.408,1.169,1.408c0.807,0,1.351-0.289,1.634-0.868V80.39
		h1.661v7.396h-1.565l-0.041-0.725C170.446,87.636,169.753,87.923,168.855,87.923 M161.057,87.923c-0.866,0-1.567-0.349-2.102-1.046
		c-0.536-0.697-0.803-1.645-0.803-2.844c0-1.139,0.264-2.054,0.793-2.745c0.529-0.69,1.237-1.036,2.126-1.036
		c0.784,0,1.417,0.273,1.9,0.82v-3.787h1.661v10.5h-1.504l-0.082-0.766C162.55,87.622,161.887,87.923,161.057,87.923
		 M161.495,81.613c-0.538,0-0.953,0.213-1.244,0.639c-0.292,0.426-0.438,1.068-0.438,1.924c0,0.752,0.145,1.339,0.434,1.76
		c0.289,0.422,0.701,0.632,1.234,0.632c0.679,0,1.176-0.303,1.49-0.909v-3.158C162.666,81.91,162.174,81.613,161.495,81.613
		 M153.536,87.923c-1.044,0-1.879-0.347-2.505-1.042c-0.627-0.695-0.94-1.621-0.94-2.779V84.02c0-0.725,0.144-1.377,0.431-1.959
		c0.287-0.581,0.69-1.028,1.21-1.34c0.52-0.312,1.116-0.468,1.791-0.468c0.998,0,1.808,0.321,2.43,0.964
		c0.622,0.643,0.958,1.495,1.008,2.557l0.007,0.39c0,0.729-0.14,1.381-0.42,1.955c-0.28,0.574-0.681,1.019-1.203,1.333
		C154.822,87.766,154.219,87.923,153.536,87.923 M153.522,81.586c-0.542,0-0.973,0.215-1.292,0.646
		c-0.319,0.431-0.479,1.074-0.479,1.931c0,0.761,0.157,1.357,0.472,1.788c0.314,0.431,0.752,0.646,1.312,0.646
		c0.561,0,0.997-0.219,1.309-0.656c0.312-0.438,0.468-1.078,0.468-1.921c0-0.747-0.161-1.34-0.482-1.777
		C154.51,81.805,154.073,81.586,153.522,81.586 M143.051,87.923c-1.276,0-1.914-0.704-1.914-2.112v-4.19h-1.217v-1.23h1.217v-1.798
		h1.661v1.798h1.306v1.23h-1.306v4.129c0,0.283,0.056,0.487,0.167,0.612c0.112,0.125,0.311,0.188,0.598,0.188
		c0.191,0,0.385-0.023,0.581-0.068v1.285C143.766,87.87,143.402,87.923,143.051,87.923 M121.315,87.923
		c-1.053,0-1.906-0.332-2.56-0.995c-0.654-0.663-0.981-1.546-0.981-2.649v-0.205c0-0.738,0.142-1.398,0.427-1.979
		c0.285-0.581,0.685-1.033,1.2-1.357c0.515-0.323,1.089-0.485,1.723-0.485c1.007,0,1.785,0.321,2.334,0.964
		c0.549,0.643,0.824,1.552,0.824,2.728v0.67h-4.833c0.05,0.611,0.254,1.094,0.612,1.449c0.358,0.355,0.808,0.533,1.35,0.533
		c0.761,0,1.381-0.308,1.859-0.923l0.896,0.854c-0.296,0.442-0.692,0.785-1.186,1.029C122.485,87.801,121.931,87.923,121.315,87.923
		 M121.117,81.586c-0.456,0-0.824,0.16-1.104,0.479c-0.28,0.319-0.459,0.763-0.537,1.333h3.165v-0.123
		c-0.037-0.556-0.185-0.976-0.444-1.261C121.937,81.728,121.577,81.586,121.117,81.586 M88.236,87.923
		c-1.044,0-1.879-0.347-2.505-1.042c-0.627-0.695-0.94-1.621-0.94-2.779V84.02c0-0.725,0.144-1.377,0.431-1.959
		c0.287-0.581,0.69-1.028,1.21-1.34c0.52-0.312,1.117-0.468,1.791-0.468c0.998,0,1.808,0.321,2.43,0.964
		c0.622,0.643,0.958,1.495,1.008,2.557l0.007,0.39c0,0.729-0.14,1.381-0.42,1.955c-0.28,0.574-0.681,1.019-1.203,1.333
		C89.522,87.766,88.92,87.923,88.236,87.923 M88.223,81.586c-0.542,0-0.973,0.215-1.292,0.646c-0.319,0.431-0.479,1.074-0.479,1.931
		c0,0.761,0.157,1.357,0.472,1.788c0.314,0.431,0.752,0.646,1.312,0.646c0.561,0,0.997-0.219,1.309-0.656
		c0.312-0.438,0.468-1.078,0.468-1.921c0-0.747-0.161-1.34-0.482-1.777C89.21,81.805,88.774,81.586,88.223,81.586 M79.242,87.923
		c-1.276,0-1.914-0.704-1.914-2.112v-4.19h-1.217v-1.23h1.217v-1.798h1.661v1.798h1.306v1.23h-1.306v4.129
		c0,0.283,0.056,0.487,0.167,0.612c0.112,0.125,0.311,0.188,0.598,0.188c0.191,0,0.385-0.023,0.581-0.068v1.285
		C79.958,87.87,79.593,87.923,79.242,87.923 M72.411,87.923c-1.035,0-1.855-0.335-2.461-1.005c-0.606-0.67-0.909-1.595-0.909-2.775
		v-0.171c0-1.126,0.301-2.027,0.902-2.704c0.602-0.677,1.422-1.015,2.461-1.015c0.879,0,1.596,0.256,2.15,0.769
		s0.844,1.186,0.872,2.02H73.86c-0.018-0.424-0.163-0.772-0.434-1.046c-0.271-0.273-0.616-0.41-1.036-0.41
		c-0.538,0-0.953,0.195-1.244,0.584c-0.292,0.39-0.44,0.981-0.444,1.774v0.267c0,0.802,0.145,1.4,0.434,1.794
		c0.289,0.394,0.708,0.591,1.254,0.591c0.415,0,0.759-0.121,1.032-0.362c0.273-0.241,0.419-0.54,0.438-0.896h1.565
		c-0.018,0.46-0.162,0.89-0.431,1.289c-0.269,0.399-0.634,0.714-1.094,0.947C73.441,87.807,72.944,87.923,72.411,87.923
		 M64.974,87.923c-1.053,0-1.906-0.332-2.56-0.995c-0.654-0.663-0.981-1.546-0.981-2.649v-0.205c0-0.738,0.142-1.398,0.427-1.979
		c0.285-0.581,0.685-1.033,1.2-1.357c0.515-0.323,1.089-0.485,1.723-0.485c1.007,0,1.785,0.321,2.334,0.964
		c0.549,0.643,0.824,1.552,0.824,2.728v0.67h-4.833c0.05,0.611,0.254,1.094,0.612,1.449c0.358,0.355,0.808,0.533,1.35,0.533
		c0.761,0,1.381-0.308,1.859-0.923l0.896,0.854c-0.296,0.442-0.692,0.785-1.186,1.029C66.144,87.801,65.59,87.923,64.974,87.923
		 M64.776,81.586c-0.456,0-0.824,0.16-1.104,0.479c-0.28,0.319-0.459,0.763-0.537,1.333h3.165v-0.123
		c-0.037-0.556-0.185-0.976-0.444-1.261C65.596,81.728,65.236,81.586,64.776,81.586 M57.283,87.923c-0.606,0-1.146-0.109-1.62-0.328
		c-0.474-0.219-0.843-0.52-1.107-0.902c-0.264-0.383-0.397-0.795-0.397-1.237h1.613c0.023,0.392,0.171,0.694,0.444,0.906
		c0.273,0.212,0.636,0.318,1.087,0.318c0.438,0,0.77-0.083,0.998-0.249c0.228-0.166,0.342-0.384,0.342-0.653
		c0-0.296-0.122-0.522-0.366-0.677c-0.244-0.155-0.648-0.292-1.213-0.41c-0.565-0.119-1.037-0.269-1.415-0.451
		c-0.83-0.401-1.244-0.982-1.244-1.743c0-0.638,0.269-1.171,0.807-1.6c0.538-0.428,1.221-0.643,2.051-0.643
		c0.884,0,1.598,0.219,2.143,0.656c0.545,0.438,0.817,1.005,0.817,1.702h-1.661c0-0.319-0.119-0.584-0.355-0.796
		c-0.237-0.212-0.552-0.318-0.943-0.318c-0.365,0-0.662,0.084-0.892,0.253c-0.23,0.169-0.345,0.394-0.345,0.677
		c0,0.255,0.107,0.454,0.321,0.595c0.214,0.141,0.647,0.284,1.299,0.427c0.652,0.143,1.163,0.314,1.535,0.513
		c0.371,0.198,0.647,0.436,0.827,0.714c0.18,0.278,0.27,0.615,0.27,1.012c0,0.665-0.276,1.204-0.827,1.617
		C58.898,87.717,58.176,87.923,57.283,87.923 M46.431,87.923c-0.606,0-1.146-0.109-1.62-0.328c-0.474-0.219-0.843-0.52-1.107-0.902
		c-0.264-0.383-0.396-0.795-0.396-1.237h1.613c0.023,0.392,0.171,0.694,0.444,0.906c0.273,0.212,0.636,0.318,1.087,0.318
		c0.438,0,0.77-0.083,0.998-0.249c0.228-0.166,0.342-0.384,0.342-0.653c0-0.296-0.122-0.522-0.366-0.677
		c-0.244-0.155-0.648-0.292-1.213-0.41c-0.565-0.119-1.037-0.269-1.415-0.451c-0.83-0.401-1.244-0.982-1.244-1.743
		c0-0.638,0.269-1.171,0.807-1.6c0.538-0.428,1.221-0.643,2.051-0.643c0.884,0,1.598,0.219,2.143,0.656
		c0.545,0.438,0.817,1.005,0.817,1.702h-1.661c0-0.319-0.119-0.584-0.355-0.796c-0.237-0.212-0.551-0.318-0.943-0.318
		c-0.365,0-0.662,0.084-0.892,0.253c-0.23,0.169-0.345,0.394-0.345,0.677c0,0.255,0.107,0.454,0.321,0.595
		c0.214,0.141,0.647,0.284,1.299,0.427c0.652,0.143,1.163,0.314,1.535,0.513c0.371,0.198,0.647,0.436,0.827,0.714
		c0.18,0.278,0.27,0.615,0.27,1.012c0,0.665-0.276,1.204-0.827,1.617C48.046,87.717,47.324,87.923,46.431,87.923 M29.884,87.923
		c-1.276,0-1.914-0.704-1.914-2.112v-4.19h-1.217v-1.23h1.217v-1.798h1.661v1.798h1.306v1.23h-1.306v4.129
		c0,0.283,0.056,0.487,0.167,0.612c0.112,0.125,0.311,0.188,0.598,0.188c0.191,0,0.385-0.023,0.581-0.068v1.285
		C30.6,87.87,30.235,87.923,29.884,87.923 M283.911,87.786h-1.661V81.62h-1.128v-1.23h1.128v-0.677c0-0.82,0.228-1.454,0.684-1.9
		c0.456-0.447,1.094-0.67,1.914-0.67c0.292,0,0.602,0.041,0.93,0.123l-0.041,1.299c-0.182-0.036-0.394-0.055-0.636-0.055
		c-0.793,0-1.189,0.408-1.189,1.224v0.656h1.504v1.23h-1.504V87.786 M260.92,87.786h-1.661v-4.813c0-0.469-0.103-0.813-0.308-1.032
		c-0.205-0.219-0.545-0.328-1.019-0.328c-0.378,0-0.687,0.101-0.926,0.304c-0.239,0.203-0.407,0.468-0.502,0.796l0.007,5.072h-1.661
		v-4.867c-0.023-0.87-0.467-1.306-1.333-1.306c-0.665,0-1.137,0.271-1.415,0.814v5.359h-1.661V80.39h1.565l0.048,0.772
		c0.52-0.606,1.23-0.909,2.133-0.909c0.989,0,1.666,0.378,2.03,1.135c0.538-0.756,1.294-1.135,2.27-1.135
		c0.816,0,1.423,0.226,1.822,0.677c0.399,0.451,0.603,1.117,0.612,1.996V87.786 M147.084,87.786h-1.661V80.39h1.586l0.041,0.827
		c0.401-0.643,0.957-0.964,1.668-0.964c0.237,0,0.433,0.032,0.588,0.096l-0.007,1.559c-0.219-0.036-0.444-0.055-0.677-0.055
		c-0.761,0-1.274,0.292-1.538,0.875V87.786 M138.935,87.786h-1.661v-4.792c0-0.469-0.101-0.817-0.304-1.042
		c-0.203-0.226-0.534-0.338-0.995-0.338c-0.67,0-1.169,0.303-1.497,0.909v5.264h-1.661V80.39h1.565l0.048,0.854
		c0.547-0.661,1.265-0.991,2.153-0.991c1.54,0,2.324,0.882,2.352,2.646V87.786 M130.964,87.786h-1.661V80.39h1.661V87.786
		 M115.107,87.786h-1.367l-1.586-5.079l-1.559,5.079h-1.367l-2.023-7.396h1.62l1.196,5.052l1.518-5.052h1.251l1.538,5.106
		l1.176-5.106h1.62L115.107,87.786 M99.262,87.786h-1.661v-4.792c0-0.469-0.101-0.817-0.304-1.042
		c-0.203-0.226-0.534-0.338-0.995-0.338c-0.67,0-1.169,0.303-1.497,0.909v5.264h-1.661V80.39h1.565l0.048,0.854
		c0.547-0.661,1.265-0.991,2.153-0.991c1.54,0,2.324,0.882,2.352,2.646V87.786 M83.287,87.786h-1.661V80.39h1.661V87.786
		 M41.844,87.786h-1.661V80.39h1.661V87.786 M38.361,87.786H36.7v-4.771c0-0.51-0.111-0.872-0.332-1.084
		c-0.221-0.212-0.546-0.318-0.974-0.318c-0.665,0-1.162,0.296-1.49,0.889v5.284h-1.661v-10.5h1.661v3.91
		c0.542-0.629,1.228-0.943,2.058-0.943c1.577,0,2.377,0.9,2.399,2.7V87.786 M22.232,87.786H20.57v-4.792
		c0-0.469-0.101-0.817-0.304-1.042c-0.203-0.226-0.534-0.338-0.995-0.338c-0.67,0-1.169,0.303-1.497,0.909v5.264h-1.661V80.39h1.565
		l0.048,0.854c0.547-0.661,1.265-0.991,2.153-0.991c1.54,0,2.324,0.882,2.352,2.646V87.786 M14.091,87.786h-1.723v-9.953h1.723
		V87.786 M130.137,79.344c-0.301,0-0.532-0.083-0.694-0.25c-0.162-0.166-0.243-0.375-0.243-0.625c0-0.255,0.081-0.467,0.243-0.636
		c0.162-0.169,0.393-0.253,0.694-0.253c0.301,0,0.533,0.084,0.697,0.253c0.164,0.169,0.246,0.381,0.246,0.636
		c0,0.251-0.082,0.459-0.246,0.625C130.67,79.261,130.438,79.344,130.137,79.344 M82.46,79.344c-0.301,0-0.532-0.083-0.694-0.25
		c-0.162-0.166-0.243-0.375-0.243-0.625c0-0.255,0.081-0.467,0.243-0.636c0.162-0.169,0.393-0.253,0.694-0.253
		c0.301,0,0.533,0.084,0.697,0.253c0.164,0.169,0.246,0.381,0.246,0.636c0,0.251-0.082,0.459-0.246,0.625
		C82.993,79.261,82.76,79.344,82.46,79.344 M41.017,79.344c-0.301,0-0.532-0.083-0.694-0.25c-0.162-0.166-0.243-0.375-0.243-0.625
		c0-0.255,0.081-0.467,0.243-0.636c0.162-0.169,0.393-0.253,0.694-0.253c0.301,0,0.533,0.084,0.697,0.253
		c0.164,0.169,0.246,0.381,0.246,0.636c0,0.251-0.082,0.459-0.246,0.625C41.55,79.261,41.318,79.344,41.017,79.344"/>
	<path fill="#000000" d="M256.14,108.773c-0.242,0-0.508-0.041-0.8-0.124v-1.291l0.314,0.021c0.419,0,0.735-0.076,0.947-0.229
		c0.212-0.153,0.379-0.409,0.502-0.769l0.239-0.635l-2.598-7.357h1.791l1.565,5.018l1.504-5.018h1.771l-2.939,8.518
		C257.986,108.151,257.22,108.773,256.14,108.773 M95.443,108.63h-1.661V98.39h1.531l0.068,0.752
		c0.488-0.592,1.151-0.889,1.989-0.889c0.902,0,1.61,0.336,2.123,1.008c0.513,0.672,0.769,1.605,0.769,2.799v0.103
		c0,1.144-0.26,2.057-0.779,2.738c-0.52,0.681-1.217,1.022-2.092,1.022c-0.811,0-1.461-0.267-1.948-0.8V108.63 M96.906,99.613
		c-0.679,0-1.167,0.28-1.463,0.841v3.281c0.301,0.574,0.793,0.861,1.477,0.861c0.529,0,0.942-0.213,1.241-0.639
		c0.298-0.426,0.448-1.072,0.448-1.938c0-0.738-0.147-1.324-0.441-1.757C97.873,99.83,97.452,99.613,96.906,99.613 M87.45,108.63
		h-1.661V98.39h1.531l0.068,0.752c0.488-0.592,1.151-0.889,1.989-0.889c0.902,0,1.61,0.336,2.123,1.008
		c0.513,0.672,0.769,1.605,0.769,2.799v0.103c0,1.144-0.26,2.057-0.779,2.738c-0.52,0.681-1.217,1.022-2.092,1.022
		c-0.811,0-1.461-0.267-1.948-0.8V108.63 M88.913,99.613c-0.679,0-1.167,0.28-1.463,0.841v3.281
		c0.301,0.574,0.793,0.861,1.477,0.861c0.529,0,0.942-0.213,1.241-0.639c0.298-0.426,0.448-1.072,0.448-1.938
		c0-0.738-0.147-1.324-0.441-1.757C89.88,99.83,89.46,99.613,88.913,99.613 M272.614,105.923c-0.802,0-1.409-0.235-1.822-0.704
		c-0.412-0.469-0.619-1.148-0.619-2.037V98.39h1.661v4.771c0,0.939,0.39,1.408,1.169,1.408c0.807,0,1.351-0.289,1.634-0.868V98.39
		h1.661v7.396h-1.565l-0.041-0.725C274.204,105.636,273.512,105.923,272.614,105.923 M265.317,105.923
		c-1.044,0-1.879-0.347-2.505-1.042c-0.627-0.695-0.94-1.621-0.94-2.779v-0.082c0-0.725,0.144-1.377,0.431-1.959
		c0.287-0.581,0.69-1.028,1.21-1.34c0.52-0.312,1.117-0.468,1.791-0.468c0.998,0,1.808,0.321,2.43,0.964
		c0.622,0.643,0.958,1.495,1.008,2.557l0.007,0.39c0,0.729-0.14,1.381-0.42,1.955c-0.28,0.574-0.681,1.019-1.203,1.333
		C266.604,105.766,266.001,105.923,265.317,105.923 M265.304,99.586c-0.542,0-0.973,0.215-1.292,0.646
		c-0.319,0.431-0.479,1.074-0.479,1.931c0,0.761,0.157,1.357,0.472,1.788c0.314,0.431,0.752,0.646,1.312,0.646
		s0.997-0.219,1.309-0.656s0.468-1.078,0.468-1.921c0-0.747-0.161-1.34-0.482-1.777C266.291,99.805,265.855,99.586,265.304,99.586
		 M247.052,105.923c-1.044,0-1.879-0.347-2.505-1.042c-0.627-0.695-0.94-1.621-0.94-2.779v-0.082c0-0.725,0.144-1.377,0.431-1.959
		c0.287-0.581,0.69-1.028,1.21-1.34c0.52-0.312,1.116-0.468,1.791-0.468c0.998,0,1.808,0.321,2.43,0.964
		c0.622,0.643,0.958,1.495,1.008,2.557l0.007,0.39c0,0.729-0.14,1.381-0.42,1.955c-0.28,0.574-0.681,1.019-1.203,1.333
		C248.338,105.766,247.736,105.923,247.052,105.923 M247.038,99.586c-0.542,0-0.973,0.215-1.292,0.646
		c-0.319,0.431-0.479,1.074-0.479,1.931c0,0.761,0.157,1.357,0.472,1.788s0.752,0.646,1.312,0.646c0.561,0,0.997-0.219,1.309-0.656
		s0.468-1.078,0.468-1.921c0-0.747-0.161-1.34-0.482-1.777S247.59,99.586,247.038,99.586 M241.693,105.923
		c-1.276,0-1.914-0.704-1.914-2.112v-4.19h-1.217v-1.23h1.217v-1.798h1.661v1.798h1.306v1.23h-1.306v4.129
		c0,0.283,0.056,0.486,0.167,0.612c0.112,0.125,0.311,0.188,0.598,0.188c0.191,0,0.385-0.023,0.581-0.068v1.285
		C242.409,105.87,242.044,105.923,241.693,105.923 M231.477,105.923c-1.053,0-1.906-0.332-2.56-0.995
		c-0.654-0.663-0.981-1.546-0.981-2.649v-0.205c0-0.738,0.142-1.398,0.427-1.979c0.285-0.581,0.685-1.033,1.2-1.357
		c0.515-0.324,1.089-0.485,1.723-0.485c1.007,0,1.785,0.321,2.334,0.964c0.549,0.643,0.824,1.552,0.824,2.728v0.67h-4.833
		c0.05,0.611,0.254,1.094,0.612,1.449c0.358,0.355,0.808,0.533,1.35,0.533c0.761,0,1.381-0.308,1.859-0.923l0.896,0.854
		c-0.296,0.442-0.692,0.785-1.186,1.029C232.647,105.801,232.092,105.923,231.477,105.923 M231.279,99.586
		c-0.456,0-0.824,0.16-1.104,0.479c-0.28,0.319-0.459,0.763-0.537,1.333h3.165v-0.123c-0.037-0.556-0.185-0.976-0.444-1.261
		C232.099,99.728,231.739,99.586,231.279,99.586 M220.269,105.923c-0.866,0-1.54-0.312-2.023-0.936l-0.082,0.8h-1.504v-10.5h1.661
		v3.814c0.479-0.565,1.123-0.848,1.935-0.848c0.902,0,1.611,0.335,2.126,1.005c0.515,0.67,0.772,1.606,0.772,2.81v0.096
		c0,1.148-0.256,2.062-0.769,2.741C221.872,105.583,221.167,105.923,220.269,105.923 M219.839,99.613
		c-0.72,0-1.226,0.314-1.518,0.943v3.049c0.296,0.643,0.807,0.964,1.531,0.964c0.52,0,0.92-0.194,1.203-0.581
		c0.283-0.387,0.428-0.973,0.438-1.757v-0.212c0-0.802-0.141-1.404-0.424-1.805C220.787,99.814,220.376,99.613,219.839,99.613
		 M211.314,105.923c-0.743,0-1.349-0.212-1.818-0.636c-0.469-0.424-0.704-0.948-0.704-1.572c0-0.788,0.293-1.393,0.878-1.815
		c0.585-0.421,1.423-0.632,2.512-0.632h1.019v-0.485c0-0.383-0.107-0.689-0.321-0.919c-0.214-0.23-0.54-0.345-0.978-0.345
		c-0.378,0-0.688,0.095-0.93,0.284c-0.242,0.189-0.362,0.43-0.362,0.721h-1.661c0-0.406,0.134-0.785,0.403-1.138
		c0.269-0.353,0.635-0.63,1.097-0.831c0.462-0.2,0.979-0.301,1.548-0.301c0.866,0,1.556,0.218,2.071,0.653
		c0.515,0.435,0.779,1.047,0.793,1.835v3.336c0,0.665,0.093,1.196,0.28,1.593v0.116h-1.695c-0.073-0.141-0.137-0.371-0.191-0.69
		C212.727,105.647,212.08,105.923,211.314,105.923 M212.306,102.314c-0.615,0-1.078,0.107-1.388,0.321
		c-0.31,0.214-0.465,0.517-0.465,0.909c0,0.319,0.106,0.573,0.318,0.762c0.212,0.189,0.496,0.284,0.851,0.284
		c0.328,0,0.637-0.08,0.926-0.239c0.289-0.159,0.507-0.374,0.653-0.643v-1.395H212.306 M196.578,105.923
		c-0.743,0-1.349-0.212-1.818-0.636c-0.47-0.424-0.704-0.948-0.704-1.572c0-0.788,0.293-1.393,0.878-1.815
		c0.585-0.421,1.423-0.632,2.512-0.632h1.019v-0.485c0-0.383-0.107-0.689-0.321-0.919c-0.214-0.23-0.54-0.345-0.978-0.345
		c-0.378,0-0.688,0.095-0.93,0.284c-0.242,0.189-0.362,0.43-0.362,0.721h-1.661c0-0.406,0.134-0.785,0.403-1.138
		c0.269-0.353,0.635-0.63,1.097-0.831c0.462-0.2,0.979-0.301,1.548-0.301c0.866,0,1.556,0.218,2.071,0.653
		c0.515,0.435,0.779,1.047,0.793,1.835v3.336c0,0.665,0.093,1.196,0.28,1.593v0.116h-1.695c-0.073-0.141-0.137-0.371-0.191-0.69
		C197.991,105.647,197.344,105.923,196.578,105.923 M197.57,102.314c-0.615,0-1.078,0.107-1.388,0.321
		c-0.31,0.214-0.465,0.517-0.465,0.909c0,0.319,0.106,0.573,0.318,0.762c0.212,0.189,0.496,0.284,0.851,0.284
		c0.328,0,0.637-0.08,0.926-0.239c0.289-0.159,0.507-0.374,0.653-0.643v-1.395H197.57 M182.409,105.923
		c-0.743,0-1.349-0.212-1.818-0.636c-0.469-0.424-0.704-0.948-0.704-1.572c0-0.788,0.293-1.393,0.878-1.815
		c0.586-0.421,1.423-0.632,2.512-0.632h1.019v-0.485c0-0.383-0.107-0.689-0.321-0.919c-0.214-0.23-0.54-0.345-0.978-0.345
		c-0.378,0-0.688,0.095-0.93,0.284c-0.242,0.189-0.362,0.43-0.362,0.721h-1.661c0-0.406,0.134-0.785,0.403-1.138
		c0.269-0.353,0.635-0.63,1.097-0.831c0.463-0.2,0.979-0.301,1.548-0.301c0.866,0,1.556,0.218,2.071,0.653
		c0.515,0.435,0.779,1.047,0.793,1.835v3.336c0,0.665,0.093,1.196,0.28,1.593v0.116h-1.695c-0.073-0.141-0.137-0.371-0.191-0.69
		C183.821,105.647,183.174,105.923,182.409,105.923 M183.4,102.314c-0.615,0-1.078,0.107-1.388,0.321
		c-0.31,0.214-0.465,0.517-0.465,0.909c0,0.319,0.106,0.573,0.318,0.762c0.212,0.189,0.496,0.284,0.851,0.284
		c0.328,0,0.637-0.08,0.926-0.239c0.289-0.159,0.507-0.374,0.653-0.643v-1.395H183.4 M172.056,105.923
		c-0.606,0-1.146-0.109-1.62-0.328c-0.474-0.219-0.843-0.52-1.107-0.902c-0.264-0.383-0.396-0.795-0.396-1.237h1.613
		c0.023,0.392,0.171,0.694,0.444,0.906c0.273,0.212,0.636,0.318,1.087,0.318c0.438,0,0.77-0.083,0.998-0.249
		c0.228-0.166,0.342-0.384,0.342-0.653c0-0.296-0.122-0.522-0.366-0.677c-0.244-0.155-0.648-0.292-1.213-0.41
		c-0.565-0.118-1.037-0.269-1.415-0.451c-0.829-0.401-1.244-0.982-1.244-1.743c0-0.638,0.269-1.171,0.807-1.6
		c0.538-0.428,1.221-0.643,2.051-0.643c0.884,0,1.598,0.219,2.143,0.656c0.545,0.438,0.817,1.005,0.817,1.702h-1.661
		c0-0.319-0.119-0.584-0.355-0.796c-0.237-0.212-0.552-0.318-0.943-0.318c-0.365,0-0.662,0.084-0.892,0.253
		c-0.23,0.169-0.345,0.394-0.345,0.677c0,0.255,0.107,0.453,0.321,0.595c0.214,0.141,0.647,0.284,1.299,0.427
		c0.652,0.144,1.163,0.314,1.535,0.513c0.371,0.198,0.647,0.436,0.827,0.714c0.18,0.278,0.27,0.615,0.27,1.012
		c0,0.665-0.276,1.204-0.827,1.617C173.671,105.717,172.949,105.923,172.056,105.923 M164.978,105.923
		c-1.053,0-1.906-0.332-2.56-0.995c-0.654-0.663-0.981-1.546-0.981-2.649v-0.205c0-0.738,0.142-1.398,0.427-1.979
		c0.285-0.581,0.685-1.033,1.2-1.357c0.515-0.324,1.089-0.485,1.723-0.485c1.007,0,1.785,0.321,2.334,0.964
		c0.549,0.643,0.824,1.552,0.824,2.728v0.67h-4.833c0.05,0.611,0.254,1.094,0.612,1.449c0.358,0.355,0.808,0.533,1.35,0.533
		c0.761,0,1.381-0.308,1.859-0.923l0.896,0.854c-0.296,0.442-0.692,0.785-1.186,1.029
		C166.148,105.801,165.593,105.923,164.978,105.923 M164.78,99.586c-0.456,0-0.824,0.16-1.104,0.479
		c-0.28,0.319-0.459,0.763-0.537,1.333h3.165v-0.123c-0.037-0.556-0.185-0.976-0.444-1.261
		C165.6,99.728,165.24,99.586,164.78,99.586 M157.357,105.923c-1.035,0-1.855-0.335-2.461-1.005
		c-0.606-0.67-0.909-1.595-0.909-2.775v-0.171c0-1.126,0.301-2.027,0.902-2.704c0.602-0.677,1.422-1.015,2.461-1.015
		c0.88,0,1.596,0.256,2.15,0.769c0.554,0.513,0.844,1.186,0.872,2.02h-1.565c-0.018-0.424-0.163-0.772-0.434-1.046
		c-0.271-0.273-0.616-0.41-1.036-0.41c-0.538,0-0.952,0.195-1.244,0.584c-0.292,0.39-0.44,0.981-0.444,1.774v0.267
		c0,0.802,0.145,1.4,0.434,1.794c0.289,0.394,0.708,0.591,1.254,0.591c0.415,0,0.759-0.121,1.032-0.362s0.419-0.54,0.438-0.896
		h1.565c-0.018,0.46-0.162,0.89-0.431,1.289c-0.269,0.399-0.633,0.714-1.094,0.947C158.386,105.807,157.89,105.923,157.357,105.923
		 M133.987,105.923c-1.053,0-1.906-0.332-2.56-0.995c-0.654-0.663-0.981-1.546-0.981-2.649v-0.205c0-0.738,0.142-1.398,0.427-1.979
		c0.285-0.581,0.685-1.033,1.2-1.357c0.515-0.324,1.089-0.485,1.723-0.485c1.007,0,1.785,0.321,2.334,0.964
		c0.549,0.643,0.824,1.552,0.824,2.728v0.67h-4.833c0.05,0.611,0.254,1.094,0.612,1.449c0.358,0.355,0.808,0.533,1.35,0.533
		c0.761,0,1.381-0.308,1.859-0.923l0.896,0.854c-0.296,0.442-0.692,0.785-1.186,1.029
		C135.158,105.801,134.603,105.923,133.987,105.923 M133.789,99.586c-0.456,0-0.824,0.16-1.104,0.479
		c-0.28,0.319-0.459,0.763-0.537,1.333h3.165v-0.123c-0.037-0.556-0.185-0.976-0.444-1.261
		C134.61,99.728,134.25,99.586,133.789,99.586 M126.296,105.923c-0.606,0-1.146-0.109-1.62-0.328
		c-0.474-0.219-0.843-0.52-1.107-0.902c-0.264-0.383-0.396-0.795-0.396-1.237h1.613c0.023,0.392,0.171,0.694,0.444,0.906
		c0.273,0.212,0.636,0.318,1.087,0.318c0.438,0,0.77-0.083,0.998-0.249c0.228-0.166,0.342-0.384,0.342-0.653
		c0-0.296-0.122-0.522-0.366-0.677c-0.244-0.155-0.648-0.292-1.213-0.41c-0.565-0.118-1.037-0.269-1.415-0.451
		c-0.829-0.401-1.244-0.982-1.244-1.743c0-0.638,0.269-1.171,0.807-1.6c0.538-0.428,1.221-0.643,2.051-0.643
		c0.884,0,1.598,0.219,2.143,0.656c0.545,0.438,0.817,1.005,0.817,1.702h-1.661c0-0.319-0.119-0.584-0.355-0.796
		c-0.237-0.212-0.552-0.318-0.943-0.318c-0.365,0-0.662,0.084-0.892,0.253c-0.23,0.169-0.345,0.394-0.345,0.677
		c0,0.255,0.107,0.453,0.321,0.595c0.214,0.141,0.647,0.284,1.299,0.427c0.652,0.144,1.163,0.314,1.535,0.513
		c0.371,0.198,0.647,0.436,0.827,0.714c0.18,0.278,0.27,0.615,0.27,1.012c0,0.665-0.276,1.204-0.827,1.617
		C127.911,105.717,127.189,105.923,126.296,105.923 M117.563,105.923c-1.276,0-1.914-0.704-1.914-2.112v-4.19h-1.217v-1.23h1.217
		v-1.798h1.661v1.798h1.306v1.23h-1.306v4.129c0,0.283,0.056,0.486,0.167,0.612c0.112,0.125,0.311,0.188,0.598,0.188
		c0.191,0,0.385-0.023,0.581-0.068v1.285C118.278,105.87,117.914,105.923,117.563,105.923 M104.895,105.923
		c-1.044,0-1.879-0.347-2.505-1.042c-0.627-0.695-0.94-1.621-0.94-2.779v-0.082c0-0.725,0.144-1.377,0.431-1.959
		c0.287-0.581,0.69-1.028,1.21-1.34c0.52-0.312,1.116-0.468,1.791-0.468c0.998,0,1.808,0.321,2.43,0.964
		c0.622,0.643,0.958,1.495,1.008,2.557l0.007,0.39c0,0.729-0.14,1.381-0.42,1.955c-0.28,0.574-0.681,1.019-1.203,1.333
		C106.181,105.766,105.579,105.923,104.895,105.923 M104.881,99.586c-0.542,0-0.973,0.215-1.292,0.646
		c-0.319,0.431-0.479,1.074-0.479,1.931c0,0.761,0.157,1.357,0.472,1.788c0.314,0.431,0.752,0.646,1.312,0.646
		c0.561,0,0.997-0.219,1.309-0.656c0.312-0.438,0.468-1.078,0.468-1.921c0-0.747-0.161-1.34-0.482-1.777
		S105.433,99.586,104.881,99.586 M80.312,105.923c-0.802,0-1.409-0.235-1.822-0.704c-0.413-0.469-0.619-1.148-0.619-2.037V98.39
		h1.661v4.771c0,0.939,0.39,1.408,1.169,1.408c0.807,0,1.351-0.289,1.634-0.868V98.39h1.661v7.396h-1.565l-0.041-0.725
		C81.903,105.636,81.21,105.923,80.312,105.923 M73.409,105.923c-0.606,0-1.146-0.109-1.62-0.328
		c-0.474-0.219-0.843-0.52-1.107-0.902c-0.264-0.383-0.396-0.795-0.396-1.237h1.613c0.023,0.392,0.171,0.694,0.444,0.906
		c0.273,0.212,0.636,0.318,1.087,0.318c0.438,0,0.77-0.083,0.998-0.249c0.228-0.166,0.342-0.384,0.342-0.653
		c0-0.296-0.122-0.522-0.366-0.677c-0.244-0.155-0.648-0.292-1.213-0.41c-0.565-0.118-1.037-0.269-1.415-0.451
		c-0.83-0.401-1.244-0.982-1.244-1.743c0-0.638,0.269-1.171,0.807-1.6c0.538-0.428,1.221-0.643,2.051-0.643
		c0.884,0,1.598,0.219,2.143,0.656c0.544,0.438,0.817,1.005,0.817,1.702h-1.661c0-0.319-0.119-0.584-0.355-0.796
		c-0.237-0.212-0.551-0.318-0.943-0.318c-0.365,0-0.662,0.084-0.892,0.253c-0.23,0.169-0.345,0.394-0.345,0.677
		c0,0.255,0.107,0.453,0.321,0.595c0.214,0.141,0.647,0.284,1.299,0.427c0.652,0.144,1.163,0.314,1.535,0.513
		c0.371,0.198,0.647,0.436,0.827,0.714c0.18,0.278,0.27,0.615,0.27,1.012c0,0.665-0.276,1.204-0.827,1.617
		C75.025,105.717,74.303,105.923,73.409,105.923 M50.27,105.923c-0.743,0-1.349-0.212-1.818-0.636
		c-0.469-0.424-0.704-0.948-0.704-1.572c0-0.788,0.293-1.393,0.878-1.815c0.585-0.421,1.423-0.632,2.512-0.632h1.019v-0.485
		c0-0.383-0.107-0.689-0.321-0.919c-0.214-0.23-0.54-0.345-0.978-0.345c-0.378,0-0.688,0.095-0.93,0.284
		c-0.242,0.189-0.362,0.43-0.362,0.721h-1.661c0-0.406,0.134-0.785,0.403-1.138c0.269-0.353,0.635-0.63,1.097-0.831
		c0.462-0.2,0.979-0.301,1.548-0.301c0.866,0,1.556,0.218,2.071,0.653c0.515,0.435,0.779,1.047,0.793,1.835v3.336
		c0,0.665,0.093,1.196,0.28,1.593v0.116h-1.695c-0.073-0.141-0.137-0.371-0.191-0.69C51.683,105.647,51.036,105.923,50.27,105.923
		 M51.261,102.314c-0.615,0-1.078,0.107-1.388,0.321c-0.31,0.214-0.465,0.517-0.465,0.909c0,0.319,0.106,0.573,0.318,0.762
		c0.212,0.189,0.496,0.284,0.851,0.284c0.328,0,0.637-0.08,0.926-0.239c0.289-0.159,0.507-0.374,0.653-0.643v-1.395H51.261
		 M27.903,105.923c-1.053,0-1.906-0.332-2.56-0.995c-0.654-0.663-0.981-1.546-0.981-2.649v-0.205c0-0.738,0.142-1.398,0.427-1.979
		c0.285-0.581,0.685-1.033,1.2-1.357c0.515-0.324,1.089-0.485,1.723-0.485c1.007,0,1.785,0.321,2.334,0.964
		c0.549,0.643,0.824,1.552,0.824,2.728v0.67h-4.833c0.05,0.611,0.254,1.094,0.612,1.449c0.358,0.355,0.808,0.533,1.35,0.533
		c0.761,0,1.381-0.308,1.859-0.923l0.896,0.854c-0.296,0.442-0.692,0.785-1.186,1.029C29.073,105.801,28.519,105.923,27.903,105.923
		 M27.705,99.586c-0.456,0-0.824,0.16-1.104,0.479c-0.28,0.319-0.459,0.763-0.537,1.333h3.165v-0.123
		c-0.037-0.556-0.185-0.976-0.444-1.261C28.525,99.728,28.165,99.586,27.705,99.586 M14.439,105.923
		c-1.276,0-1.914-0.704-1.914-2.112v-4.19h-1.217v-1.23h1.217v-1.798h1.661v1.798h1.306v1.23h-1.306v4.129
		c0,0.283,0.056,0.486,0.167,0.612c0.112,0.125,0.311,0.188,0.598,0.188c0.191,0,0.385-0.023,0.581-0.068v1.285
		C15.155,105.87,14.79,105.923,14.439,105.923 M279.086,105.861c-0.296,0-0.531-0.084-0.704-0.253
		c-0.173-0.169-0.26-0.385-0.26-0.649c0-0.264,0.084-0.484,0.253-0.66c0.169-0.175,0.406-0.263,0.711-0.263
		c0.31,0,0.549,0.088,0.718,0.263c0.169,0.175,0.253,0.395,0.253,0.66c0,0.26-0.084,0.475-0.253,0.646
		C279.635,105.776,279.396,105.861,279.086,105.861 M226.387,105.786h-1.661v-10.5h1.661V105.786 M207.215,105.786h-1.661v-10.5
		h1.661V105.786 M203.643,105.786h-1.661V98.39h1.661V105.786 M190.831,105.786h-1.442l-2.584-7.396h1.723l1.586,5.291l1.565-5.291
		h1.716L190.831,105.786 M152.482,105.786h-1.661V98.39h1.661V105.786 M147.078,105.786h-1.442l-2.584-7.396h1.723l1.586,5.291
		l1.565-5.291h1.716L147.078,105.786 M140.05,105.786h-1.661V98.39h1.586l0.041,0.827c0.401-0.643,0.957-0.964,1.668-0.964
		c0.237,0,0.433,0.032,0.588,0.096l-0.007,1.559c-0.219-0.036-0.444-0.055-0.677-0.055c-0.761,0-1.274,0.292-1.538,0.875V105.786
		 M111.477,105.786h-1.661V98.39h1.586l0.041,0.827c0.401-0.643,0.957-0.964,1.668-0.964c0.237,0,0.433,0.032,0.588,0.096
		l-0.007,1.559c-0.219-0.036-0.444-0.055-0.677-0.055c-0.761,0-1.274,0.292-1.538,0.875V105.786 M65.306,105.786h-1.661v-4.792
		c0-0.469-0.101-0.817-0.304-1.042c-0.203-0.226-0.534-0.338-0.995-0.338c-0.67,0-1.169,0.303-1.497,0.909v5.264h-1.661V98.39h1.565
		l0.048,0.854c0.547-0.661,1.265-0.991,2.153-0.991c1.54,0,2.324,0.882,2.352,2.645V105.786 M57.335,105.786h-1.661V98.39h1.661
		V105.786 M46.261,105.786H44.6v-4.812c0-0.469-0.103-0.814-0.308-1.032s-0.545-0.328-1.019-0.328c-0.378,0-0.687,0.101-0.926,0.304
		c-0.239,0.203-0.407,0.468-0.502,0.796l0.007,5.072h-1.661v-4.867c-0.023-0.87-0.467-1.306-1.333-1.306
		c-0.665,0-1.137,0.271-1.415,0.813v5.359h-1.661V98.39h1.565l0.048,0.772c0.52-0.606,1.23-0.909,2.133-0.909
		c0.989,0,1.666,0.378,2.03,1.135c0.538-0.756,1.294-1.135,2.27-1.135c0.816,0,1.423,0.226,1.822,0.677
		c0.399,0.451,0.603,1.117,0.612,1.996V105.786 M22.916,105.786h-1.661v-4.771c0-0.51-0.111-0.872-0.332-1.083
		c-0.221-0.212-0.546-0.318-0.974-0.318c-0.665,0-1.162,0.296-1.49,0.889v5.284h-1.661v-10.5h1.661v3.91
		c0.542-0.629,1.228-0.943,2.058-0.943c1.577,0,2.377,0.9,2.399,2.7V105.786 M202.816,97.344c-0.301,0-0.532-0.083-0.694-0.249
		c-0.162-0.166-0.243-0.375-0.243-0.626c0-0.255,0.081-0.467,0.243-0.636c0.162-0.169,0.393-0.253,0.694-0.253
		c0.301,0,0.533,0.084,0.697,0.253c0.164,0.169,0.246,0.381,0.246,0.636c0,0.251-0.082,0.459-0.246,0.626
		C203.349,97.261,203.117,97.344,202.816,97.344 M151.655,97.344c-0.301,0-0.532-0.083-0.694-0.249
		c-0.162-0.166-0.243-0.375-0.243-0.626c0-0.255,0.081-0.467,0.243-0.636c0.162-0.169,0.393-0.253,0.694-0.253
		c0.301,0,0.533,0.084,0.697,0.253c0.164,0.169,0.246,0.381,0.246,0.636c0,0.251-0.082,0.459-0.246,0.626
		C152.188,97.261,151.956,97.344,151.655,97.344 M56.508,97.344c-0.301,0-0.532-0.083-0.694-0.249
		c-0.162-0.166-0.243-0.375-0.243-0.626c0-0.255,0.081-0.467,0.243-0.636c0.162-0.169,0.393-0.253,0.694-0.253
		c0.301,0,0.533,0.084,0.697,0.253c0.164,0.169,0.246,0.381,0.246,0.636c0,0.251-0.082,0.459-0.246,0.626
		C57.041,97.261,56.808,97.344,56.508,97.344"/>
</g>
</svg>
