<!-- Generator: Adobe InDesign 20.3 SVG Export Plug-in, SVG Library version: 9.3 build 254 -->
<!DOCTYPE svg PUBLIC "-//W3C//DTD SVG 1.1//EN" "http://www.w3.org/Graphics/SVG/1.1/DTD/svg11.dtd">
<svg version="1.1" xmlns="http://www.w3.org/2000/svg" xmlns:xlink="http://www.w3.org/1999/xlink" x="0%" y="0%" width="100%"
	 height="100%" viewBox="0 0 259.507 169.538" preserveAspectRatio="xMidYMid slice" overflow="visible" xml:space="preserve">
<clipPath id="clp_unq_id_1" fill="none">
	<path shape-rendering="crispEdges" stroke="#000000" d="M0,0h259.507v169.538H0V0"/>
</clipPath>
<g clip-path="url(#clp_unq_id_1)" fill="none">
	<path fill="#000000" d="M96.238,17.153H57.119V16.47h39.118V17.153 M55.458,17.153H11.315V16.47h44.143V17.153"/>
	<g transform="matrix(1 0 0 1 11.3155 131.7861)">
		<path stroke="#0080FF" stroke-width="0.5859" stroke-miterlimit="10" d="M0,2h228.323"/>
	</g>
	<g transform="matrix(1 0 0 1 11.3155 163.7861)">
		<path stroke="#0080FF" stroke-width="0.5859" stroke-miterlimit="10" d="M0,2h232.788"/>
	</g>
	<path fill="#000000" d="M57.119,18.63h-1.661v-1.477h1.661V18.63 M57.119,16.47h-1.661V8.39h1.531l0.068,0.752
		c0.488-0.592,1.151-0.889,1.989-0.889c0.902,0,1.61,0.336,2.123,1.008c0.513,0.672,0.769,1.605,0.769,2.799v0.103
		c0,1.144-0.26,2.057-0.779,2.738c-0.52,0.681-1.217,1.022-2.092,1.022c-0.811,0-1.461-0.267-1.948-0.8V16.47 M58.582,9.613
		c-0.679,0-1.167,0.28-1.463,0.841v3.281c0.301,0.574,0.793,0.861,1.477,0.861c0.529,0,0.942-0.213,1.241-0.639
		c0.298-0.426,0.448-1.072,0.448-1.938c0-0.738-0.147-1.324-0.441-1.757C59.549,9.83,59.129,9.613,58.582,9.613 M83.392,15.923
		c-1.276,0-1.914-0.704-1.914-2.112V9.62h-1.217V8.39h1.217V6.592h1.661V8.39h1.306V9.62h-1.306v4.129
		c0,0.283,0.056,0.487,0.167,0.612c0.112,0.125,0.311,0.188,0.598,0.188c0.191,0,0.385-0.023,0.581-0.068v1.285
		C84.107,15.87,83.742,15.923,83.392,15.923 M47.478,15.923c-1.053,0-1.906-0.332-2.56-0.995c-0.654-0.663-0.981-1.546-0.981-2.649
		v-0.205c0-0.738,0.142-1.398,0.427-1.979c0.285-0.581,0.685-1.033,1.2-1.357c0.515-0.324,1.089-0.485,1.723-0.485
		c1.007,0,1.785,0.321,2.334,0.964c0.549,0.643,0.824,1.552,0.824,2.728v0.67h-4.833c0.05,0.611,0.254,1.094,0.612,1.449
		c0.358,0.355,0.808,0.533,1.35,0.533c0.761,0,1.381-0.308,1.859-0.923l0.895,0.854c-0.296,0.442-0.692,0.785-1.186,1.029
		C48.648,15.801,48.094,15.923,47.478,15.923 M47.28,9.586c-0.456,0-0.824,0.16-1.104,0.479c-0.28,0.319-0.459,0.763-0.537,1.333
		h3.165v-0.123c-0.037-0.556-0.185-0.976-0.444-1.261C48.101,9.728,47.74,9.586,47.28,9.586 M22.924,15.923
		c-1.044,0-1.879-0.347-2.505-1.042c-0.627-0.695-0.94-1.621-0.94-2.779v-0.082c0-0.725,0.144-1.377,0.431-1.958
		c0.287-0.581,0.69-1.028,1.21-1.34c0.52-0.312,1.116-0.468,1.791-0.468c0.998,0,1.808,0.321,2.43,0.964
		c0.622,0.643,0.958,1.495,1.008,2.557l0.007,0.39c0,0.729-0.14,1.381-0.42,1.955c-0.28,0.574-0.681,1.019-1.203,1.333
		C24.21,15.766,23.608,15.923,22.924,15.923 M22.91,9.586c-0.542,0-0.973,0.215-1.292,0.646c-0.319,0.431-0.479,1.074-0.479,1.931
		c0,0.761,0.157,1.357,0.472,1.788c0.314,0.431,0.752,0.646,1.313,0.646c0.561,0,0.997-0.219,1.309-0.656
		c0.312-0.438,0.468-1.078,0.468-1.921c0-0.747-0.161-1.34-0.482-1.777C23.898,9.805,23.462,9.586,22.91,9.586 M94.378,15.861
		c-0.296,0-0.531-0.084-0.704-0.253c-0.173-0.169-0.26-0.385-0.26-0.649c0-0.264,0.084-0.484,0.253-0.66
		c0.169-0.175,0.406-0.263,0.711-0.263c0.31,0,0.549,0.088,0.718,0.263c0.169,0.175,0.253,0.395,0.253,0.66
		c0,0.26-0.084,0.475-0.253,0.646C94.928,15.776,94.688,15.861,94.378,15.861 M91.868,15.786h-1.661v-4.771
		c0-0.51-0.111-0.872-0.332-1.083c-0.221-0.212-0.546-0.318-0.974-0.318c-0.665,0-1.162,0.296-1.49,0.889v5.284H85.75v-10.5h1.661
		v3.91c0.542-0.629,1.228-0.943,2.058-0.943c1.577,0,2.377,0.9,2.399,2.7V15.786 M79.14,15.786h-1.661V8.39h1.661V15.786
		 M74.247,15.786h-1.367l-1.586-5.079l-1.559,5.079h-1.367L66.344,8.39h1.62l1.196,5.052l1.518-5.052h1.251l1.538,5.106l1.176-5.106
		h1.62L74.247,15.786 M53.606,15.786h-1.661v-10.5h1.661V15.786 M42.491,15.786H40.83v-4.771c0-0.51-0.111-0.872-0.332-1.083
		c-0.221-0.212-0.546-0.318-0.974-0.318c-0.665,0-1.162,0.296-1.49,0.889v5.284h-1.661v-10.5h1.661v3.91
		c0.542-0.629,1.228-0.943,2.058-0.943c1.577,0,2.377,0.9,2.399,2.7V15.786 M29.506,15.786h-1.661V8.39h1.586l0.041,0.827
		c0.401-0.643,0.957-0.964,1.668-0.964c0.237,0,0.433,0.032,0.588,0.096l-0.007,1.559c-0.219-0.036-0.444-0.055-0.677-0.055
		c-0.761,0-1.274,0.292-1.538,0.875V15.786 M14.057,15.786h-1.729V5.833h6.323v1.395h-4.594v2.96h4.006v1.381h-4.006V15.786
		 M94.378,10.058c-0.296,0-0.531-0.084-0.704-0.253c-0.173-0.169-0.26-0.385-0.26-0.649c0-0.264,0.084-0.484,0.253-0.66
		c0.169-0.175,0.406-0.263,0.711-0.263c0.31,0,0.549,0.088,0.718,0.263c0.169,0.175,0.253,0.395,0.253,0.66
		c0,0.26-0.084,0.475-0.253,0.646C94.928,9.972,94.688,10.058,94.378,10.058 M78.313,7.344c-0.301,0-0.532-0.083-0.694-0.25
		c-0.162-0.166-0.243-0.375-0.243-0.625c0-0.255,0.081-0.467,0.243-0.636c0.162-0.169,0.393-0.253,0.694-0.253
		s0.533,0.084,0.697,0.253c0.164,0.169,0.246,0.381,0.246,0.636c0,0.251-0.082,0.459-0.246,0.625
		C78.846,7.261,78.613,7.344,78.313,7.344"/>
	<path fill="#000000" d="M57.119,17.153h-1.661V16.47h1.661V17.153"/>
	<path fill="#000000" d="M69.312,38.698c-0.533,0-1.055-0.114-1.565-0.342c-0.51-0.228-0.9-0.54-1.169-0.937l0.656-0.759
		c0.542,0.67,1.205,1.005,1.989,1.005c0.615,0,1.095-0.173,1.439-0.52c0.344-0.346,0.516-0.834,0.516-1.463v-0.636
		c-0.506,0.583-1.196,0.875-2.071,0.875c-0.866,0-1.567-0.349-2.102-1.046c-0.536-0.697-0.803-1.648-0.803-2.851
		c0-1.153,0.267-2.07,0.8-2.751c0.533-0.681,1.24-1.022,2.119-1.022c0.902,0,1.606,0.319,2.112,0.957l0.062-0.82h1.155v7.219
		c0,0.957-0.284,1.711-0.851,2.263C71.031,38.422,70.269,38.698,69.312,38.698 M69.435,29.326c-0.615,0-1.096,0.239-1.442,0.718
		c-0.346,0.478-0.52,1.187-0.52,2.126c0,0.834,0.171,1.489,0.513,1.965c0.342,0.476,0.82,0.714,1.436,0.714
		c0.797,0,1.383-0.362,1.757-1.087v-3.377C70.791,29.679,70.21,29.326,69.435,29.326 M50.251,38.698
		c-0.533,0-1.055-0.114-1.565-0.342c-0.51-0.228-0.9-0.54-1.169-0.937l0.656-0.759c0.542,0.67,1.205,1.005,1.989,1.005
		c0.615,0,1.095-0.173,1.439-0.52c0.344-0.346,0.516-0.834,0.516-1.463v-0.636c-0.506,0.583-1.196,0.875-2.071,0.875
		c-0.866,0-1.567-0.349-2.102-1.046c-0.536-0.697-0.803-1.648-0.803-2.851c0-1.153,0.267-2.07,0.8-2.751
		c0.533-0.681,1.24-1.022,2.119-1.022c0.902,0,1.606,0.319,2.112,0.957l0.062-0.82h1.155v7.219c0,0.957-0.284,1.711-0.851,2.263
		C51.971,38.422,51.208,38.698,50.251,38.698 M50.374,29.326c-0.615,0-1.096,0.239-1.442,0.718c-0.346,0.478-0.52,1.187-0.52,2.126
		c0,0.834,0.171,1.489,0.513,1.965c0.342,0.476,0.82,0.714,1.436,0.714c0.797,0,1.383-0.362,1.757-1.087v-3.377
		C51.73,29.679,51.149,29.326,50.374,29.326 M79.227,38.63h-1.265V28.39h1.155l0.062,0.82c0.515-0.638,1.23-0.957,2.146-0.957
		c0.889,0,1.592,0.335,2.109,1.005c0.517,0.67,0.776,1.602,0.776,2.796v0.116c0,1.126-0.258,2.033-0.772,2.721
		c-0.515,0.688-1.212,1.032-2.092,1.032c-0.898,0-1.604-0.285-2.119-0.854V38.63 M80.95,29.326c-0.766,0-1.34,0.34-1.723,1.019
		v3.534c0.378,0.675,0.957,1.012,1.736,1.012c0.606,0,1.088-0.24,1.446-0.721c0.358-0.481,0.537-1.195,0.537-2.143
		c0-0.834-0.178-1.493-0.533-1.976C82.057,29.568,81.57,29.326,80.95,29.326 M178.481,36.641h-1.087l4.156-10.808h1.08
		L178.481,36.641 M172.853,35.923c-0.857,0-1.555-0.351-2.095-1.053c-0.54-0.702-0.81-1.618-0.81-2.748v-0.096
		c0-1.135,0.269-2.047,0.807-2.738c0.538-0.69,1.242-1.036,2.112-1.036c0.866,0,1.552,0.296,2.058,0.889v-3.855h1.265v10.5h-1.162
		l-0.062-0.793C174.459,35.613,173.755,35.923,172.853,35.923 M173.181,29.326c-0.62,0-1.103,0.239-1.449,0.718
		c-0.346,0.478-0.52,1.187-0.52,2.126c0,0.839,0.173,1.495,0.52,1.969c0.346,0.474,0.825,0.711,1.436,0.711
		c0.802,0,1.388-0.36,1.757-1.08v-3.397C174.546,29.675,173.965,29.326,173.181,29.326 M157.134,35.923
		c-0.729,0-1.327-0.206-1.794-0.619c-0.467-0.412-0.701-0.935-0.701-1.569c0-0.77,0.293-1.368,0.878-1.794
		c0.586-0.426,1.409-0.639,2.471-0.639h1.23v-0.581c0-0.442-0.132-0.794-0.396-1.056c-0.264-0.262-0.654-0.393-1.169-0.393
		c-0.451,0-0.829,0.114-1.135,0.342c-0.305,0.228-0.458,0.504-0.458,0.827h-1.271c0-0.369,0.131-0.726,0.393-1.07
		c0.262-0.344,0.617-0.616,1.066-0.817c0.449-0.2,0.942-0.301,1.48-0.301c0.852,0,1.52,0.213,2.003,0.639
		c0.483,0.426,0.734,1.013,0.752,1.76v3.404c0,0.679,0.087,1.219,0.26,1.62v0.109h-1.326c-0.073-0.146-0.132-0.406-0.178-0.779
		C158.652,35.618,157.95,35.923,157.134,35.923 M158.228,32.197c-1.549,0-2.324,0.454-2.324,1.36c0,0.396,0.132,0.706,0.397,0.93
		c0.264,0.223,0.604,0.335,1.019,0.335c0.396,0,0.772-0.103,1.128-0.308c0.355-0.205,0.613-0.472,0.773-0.8v-1.518H158.228
		 M146.747,35.923c-0.592,0-1.117-0.105-1.572-0.314c-0.456-0.21-0.812-0.502-1.07-0.878c-0.258-0.376-0.386-0.783-0.386-1.22h1.265
		c0.023,0.424,0.192,0.76,0.509,1.008c0.317,0.248,0.735,0.373,1.254,0.373c0.479,0,0.862-0.097,1.152-0.291
		c0.289-0.194,0.434-0.452,0.434-0.776c0-0.342-0.129-0.607-0.386-0.796c-0.258-0.189-0.706-0.352-1.347-0.489
		c-0.64-0.137-1.148-0.301-1.524-0.492c-0.376-0.191-0.654-0.419-0.834-0.684c-0.18-0.264-0.27-0.579-0.27-0.943
		c0-0.606,0.256-1.119,0.769-1.538c0.513-0.419,1.168-0.629,1.965-0.629c0.838,0,1.519,0.216,2.04,0.649
		c0.522,0.433,0.783,0.987,0.783,1.661h-1.271c0-0.346-0.147-0.645-0.441-0.896c-0.294-0.251-0.664-0.376-1.111-0.376
		c-0.46,0-0.82,0.1-1.08,0.301c-0.26,0.201-0.39,0.463-0.39,0.786c0,0.305,0.121,0.536,0.362,0.69
		c0.241,0.155,0.678,0.303,1.309,0.444c0.631,0.141,1.143,0.31,1.535,0.506c0.392,0.196,0.682,0.432,0.872,0.707
		c0.189,0.276,0.284,0.612,0.284,1.008c0,0.661-0.264,1.191-0.793,1.589C148.276,35.724,147.59,35.923,146.747,35.923
		 M141.633,35.923c-0.565,0-0.991-0.171-1.278-0.513c-0.287-0.342-0.431-0.827-0.431-1.456v-4.587h-1.347V28.39h1.347v-1.791h1.265
		v1.791h1.381v0.978h-1.381v4.593c0,0.297,0.062,0.519,0.185,0.667c0.123,0.148,0.333,0.222,0.629,0.222
		c0.146,0,0.346-0.027,0.602-0.082v1.019C142.271,35.878,141.948,35.923,141.633,35.923 M127.184,35.923
		c-1.003,0-1.818-0.329-2.447-0.988c-0.629-0.658-0.943-1.539-0.943-2.642v-0.232c0-0.734,0.14-1.389,0.42-1.965
		c0.28-0.576,0.672-1.028,1.176-1.354c0.503-0.326,1.049-0.489,1.637-0.489c0.962,0,1.709,0.317,2.242,0.95
		c0.533,0.633,0.8,1.54,0.8,2.721v0.526h-5.011c0.018,0.729,0.231,1.318,0.639,1.767c0.408,0.449,0.926,0.673,1.555,0.673
		c0.447,0,0.825-0.091,1.135-0.273c0.31-0.182,0.581-0.424,0.813-0.725l0.772,0.602C129.353,35.447,128.423,35.923,127.184,35.923
		 M127.026,29.292c-0.51,0-0.939,0.186-1.285,0.557c-0.346,0.371-0.561,0.892-0.643,1.562h3.705v-0.096
		c-0.037-0.643-0.21-1.14-0.52-1.494C127.974,29.469,127.555,29.292,127.026,29.292 M107.307,35.923
		c-1.003,0-1.818-0.329-2.447-0.988c-0.629-0.658-0.943-1.539-0.943-2.642v-0.232c0-0.734,0.14-1.389,0.42-1.965
		c0.28-0.576,0.672-1.028,1.176-1.354c0.503-0.326,1.049-0.489,1.637-0.489c0.962,0,1.709,0.317,2.242,0.95
		c0.533,0.633,0.8,1.54,0.8,2.721v0.526h-5.011c0.018,0.729,0.231,1.318,0.639,1.767c0.408,0.449,0.926,0.673,1.555,0.673
		c0.447,0,0.825-0.091,1.135-0.273c0.31-0.182,0.581-0.424,0.813-0.725l0.772,0.602C109.476,35.447,108.547,35.923,107.307,35.923
		 M107.15,29.292c-0.51,0-0.939,0.186-1.285,0.557c-0.346,0.371-0.561,0.892-0.643,1.562h3.705v-0.096
		c-0.037-0.643-0.21-1.14-0.52-1.494C108.098,29.469,107.679,29.292,107.15,29.292 M99.776,35.923c-1.007,0-1.808-0.336-2.403-1.008
		c-0.595-0.672-0.892-1.592-0.892-2.758v-0.212c0-0.72,0.132-1.36,0.396-1.921c0.264-0.561,0.644-0.996,1.138-1.306
		c0.494-0.31,1.079-0.465,1.753-0.465c0.829,0,1.519,0.248,2.068,0.745c0.549,0.497,0.842,1.142,0.878,1.935h-1.196
		c-0.037-0.479-0.218-0.872-0.543-1.179c-0.326-0.308-0.728-0.461-1.207-0.461c-0.643,0-1.141,0.231-1.494,0.694
		c-0.353,0.463-0.53,1.131-0.53,2.006v0.239c0,0.852,0.175,1.508,0.526,1.969c0.351,0.46,0.852,0.69,1.504,0.69
		c0.451,0,0.845-0.137,1.183-0.41c0.337-0.273,0.524-0.615,0.561-1.025h1.196c-0.023,0.424-0.169,0.827-0.438,1.21
		c-0.269,0.383-0.628,0.688-1.077,0.916C100.752,35.809,100.277,35.923,99.776,35.923 M91.485,35.923
		c-0.729,0-1.327-0.206-1.794-0.619c-0.467-0.412-0.701-0.935-0.701-1.569c0-0.77,0.293-1.368,0.878-1.794
		c0.586-0.426,1.409-0.639,2.471-0.639h1.231v-0.581c0-0.442-0.132-0.794-0.396-1.056c-0.264-0.262-0.654-0.393-1.169-0.393
		c-0.451,0-0.829,0.114-1.135,0.342c-0.305,0.228-0.458,0.504-0.458,0.827h-1.271c0-0.369,0.131-0.726,0.393-1.07
		c0.262-0.344,0.617-0.616,1.066-0.817c0.449-0.2,0.942-0.301,1.48-0.301c0.852,0,1.52,0.213,2.003,0.639
		c0.483,0.426,0.734,1.013,0.752,1.76v3.404c0,0.679,0.087,1.219,0.26,1.62v0.109h-1.326c-0.073-0.146-0.132-0.406-0.178-0.779
		C93.003,35.618,92.301,35.923,91.485,35.923 M92.579,32.197c-1.549,0-2.324,0.454-2.324,1.36c0,0.396,0.132,0.706,0.396,0.93
		c0.264,0.223,0.604,0.335,1.019,0.335c0.396,0,0.772-0.103,1.128-0.308c0.355-0.205,0.613-0.472,0.772-0.8v-1.518H92.579
		 M42.132,35.923c-0.729,0-1.327-0.206-1.794-0.619c-0.467-0.412-0.701-0.935-0.701-1.569c0-0.77,0.293-1.368,0.878-1.794
		c0.586-0.426,1.409-0.639,2.471-0.639h1.231v-0.581c0-0.442-0.132-0.794-0.396-1.056c-0.264-0.262-0.654-0.393-1.169-0.393
		c-0.451,0-0.829,0.114-1.135,0.342c-0.305,0.228-0.458,0.504-0.458,0.827h-1.271c0-0.369,0.131-0.726,0.393-1.07
		c0.262-0.344,0.617-0.616,1.066-0.817c0.449-0.2,0.942-0.301,1.48-0.301c0.852,0,1.52,0.213,2.003,0.639
		c0.483,0.426,0.734,1.013,0.752,1.76v3.404c0,0.679,0.087,1.219,0.26,1.62v0.109h-1.326c-0.073-0.146-0.132-0.406-0.178-0.779
		C43.65,35.618,42.948,35.923,42.132,35.923 M43.226,32.197c-1.55,0-2.324,0.454-2.324,1.36c0,0.396,0.132,0.706,0.396,0.93
		c0.264,0.223,0.604,0.335,1.019,0.335c0.396,0,0.772-0.103,1.128-0.308s0.613-0.472,0.772-0.8v-1.518H43.226 M26.799,35.923
		c-0.729,0-1.327-0.206-1.794-0.619c-0.467-0.412-0.701-0.935-0.701-1.569c0-0.77,0.293-1.368,0.878-1.794
		c0.586-0.426,1.409-0.639,2.471-0.639h1.23v-0.581c0-0.442-0.132-0.794-0.396-1.056c-0.264-0.262-0.654-0.393-1.169-0.393
		c-0.451,0-0.83,0.114-1.135,0.342c-0.305,0.228-0.458,0.504-0.458,0.827h-1.271c0-0.369,0.131-0.726,0.393-1.07
		c0.262-0.344,0.617-0.616,1.066-0.817c0.449-0.2,0.942-0.301,1.48-0.301c0.852,0,1.52,0.213,2.003,0.639
		c0.483,0.426,0.734,1.013,0.752,1.76v3.404c0,0.679,0.087,1.219,0.26,1.62v0.109h-1.326c-0.073-0.146-0.132-0.406-0.178-0.779
		C28.317,35.618,27.615,35.923,26.799,35.923 M27.893,32.197c-1.55,0-2.324,0.454-2.324,1.36c0,0.396,0.132,0.706,0.396,0.93
		c0.264,0.223,0.604,0.335,1.019,0.335c0.396,0,0.772-0.103,1.128-0.308c0.355-0.205,0.613-0.472,0.772-0.8v-1.518H27.893
		 M168.308,35.786h-1.265v-4.895c-0.005-0.533-0.126-0.927-0.366-1.183c-0.239-0.255-0.612-0.383-1.118-0.383
		c-0.41,0-0.77,0.109-1.08,0.328c-0.31,0.219-0.551,0.506-0.725,0.861v5.271h-1.265V28.39h1.196l0.041,0.93
		c0.565-0.711,1.303-1.066,2.215-1.066c1.563,0,2.352,0.882,2.365,2.646V35.786 M137.482,35.786h-1.265v-4.895
		c-0.005-0.533-0.126-0.927-0.366-1.183c-0.239-0.255-0.612-0.383-1.118-0.383c-0.41,0-0.77,0.109-1.08,0.328
		c-0.31,0.219-0.551,0.506-0.725,0.861v5.271h-1.265V28.39h1.196l0.041,0.93c0.565-0.711,1.303-1.066,2.215-1.066
		c1.563,0,2.352,0.882,2.365,2.646V35.786 M122.158,35.786h-1.265v-4.881c0-0.529-0.121-0.924-0.362-1.186
		c-0.242-0.262-0.647-0.393-1.217-0.393c-0.469,0-0.859,0.14-1.169,0.42c-0.31,0.28-0.49,0.657-0.54,1.131v4.908h-1.271v-4.847
		c0-1.075-0.526-1.613-1.579-1.613c-0.83,0-1.397,0.353-1.702,1.06v5.4h-1.265V28.39h1.196l0.034,0.82
		c0.542-0.638,1.274-0.957,2.194-0.957c1.034,0,1.739,0.396,2.112,1.189c0.246-0.355,0.566-0.643,0.96-0.861
		c0.394-0.219,0.86-0.328,1.398-0.328c1.622,0,2.447,0.859,2.475,2.577V35.786 M87.228,35.786h-1.265v-10.5h1.265V35.786
		 M64.555,35.786H63.29v-4.895c-0.005-0.533-0.126-0.927-0.366-1.183c-0.239-0.255-0.612-0.383-1.118-0.383
		c-0.41,0-0.77,0.109-1.08,0.328c-0.31,0.219-0.551,0.506-0.725,0.861v5.271h-1.265V28.39h1.196l0.041,0.93
		c0.565-0.711,1.303-1.066,2.215-1.066c1.563,0,2.352,0.882,2.365,2.646V35.786 M56.697,35.786h-1.265V28.39h1.265V35.786
		 M37.973,35.786h-1.265v-4.895c-0.005-0.533-0.126-0.927-0.366-1.183c-0.239-0.255-0.612-0.383-1.118-0.383
		c-0.41,0-0.77,0.109-1.08,0.328c-0.31,0.219-0.551,0.506-0.725,0.861v5.271h-1.265V28.39h1.196l0.041,0.93
		c0.565-0.711,1.303-1.066,2.215-1.066c1.563,0,2.352,0.882,2.365,2.646V35.786 M22.376,35.786h-1.312V31.91l0.123-4.184
		l-3.268,8.06h-1.005l-3.261-8.039l0.13,4.163v3.876h-1.312v-9.953h1.695l3.254,8.121l3.254-8.121h1.702V35.786 M56.075,27.145
		c-0.246,0-0.432-0.068-0.557-0.205c-0.125-0.137-0.188-0.308-0.188-0.513c0-0.205,0.063-0.378,0.188-0.52
		c0.125-0.141,0.311-0.212,0.557-0.212s0.433,0.071,0.561,0.212c0.128,0.141,0.191,0.314,0.191,0.52
		c0,0.205-0.064,0.376-0.191,0.513C56.508,27.077,56.321,27.145,56.075,27.145"/>
	<path fill="#000000" d="M86.964,58.698c-0.533,0-1.055-0.114-1.565-0.342c-0.51-0.228-0.9-0.54-1.169-0.936l0.656-0.759
		c0.542,0.67,1.205,1.005,1.989,1.005c0.615,0,1.095-0.173,1.439-0.52c0.344-0.346,0.516-0.834,0.516-1.463v-0.636
		c-0.506,0.583-1.196,0.875-2.071,0.875c-0.866,0-1.567-0.349-2.102-1.046s-0.803-1.647-0.803-2.851c0-1.153,0.267-2.07,0.8-2.751
		c0.533-0.681,1.24-1.022,2.119-1.022c0.902,0,1.606,0.319,2.112,0.957l0.062-0.82h1.155v7.219c0,0.957-0.284,1.711-0.851,2.263
		C88.683,58.422,87.921,58.698,86.964,58.698 M87.087,49.326c-0.615,0-1.096,0.239-1.442,0.718c-0.346,0.479-0.52,1.187-0.52,2.126
		c0,0.834,0.171,1.489,0.513,1.965c0.342,0.476,0.82,0.714,1.436,0.714c0.798,0,1.383-0.362,1.757-1.087v-3.377
		C88.443,49.679,87.862,49.326,87.087,49.326 M150.798,55.923c-0.565,0-0.991-0.171-1.278-0.513
		c-0.287-0.342-0.431-0.827-0.431-1.456v-4.587h-1.347V48.39h1.347v-1.791h1.265v1.791h1.381v0.978h-1.381v4.593
		c0,0.297,0.062,0.519,0.185,0.667c0.123,0.148,0.333,0.222,0.629,0.222c0.146,0,0.346-0.027,0.602-0.082v1.019
		C151.436,55.878,151.113,55.923,150.798,55.923 M139.824,55.923c-0.857,0-1.555-0.351-2.095-1.053
		c-0.54-0.702-0.81-1.618-0.81-2.748v-0.096c0-1.135,0.269-2.047,0.807-2.738c0.538-0.69,1.242-1.036,2.112-1.036
		c0.866,0,1.552,0.296,2.058,0.889v-3.855h1.265v10.5h-1.162l-0.062-0.793C141.43,55.613,140.726,55.923,139.824,55.923
		 M140.152,49.326c-0.62,0-1.103,0.239-1.449,0.718c-0.346,0.479-0.52,1.187-0.52,2.126c0,0.839,0.173,1.495,0.52,1.969
		c0.346,0.474,0.825,0.711,1.436,0.711c0.802,0,1.388-0.36,1.757-1.08v-3.397C141.517,49.675,140.936,49.326,140.152,49.326
		 M132.743,55.923c-1.003,0-1.818-0.329-2.447-0.988c-0.629-0.658-0.943-1.539-0.943-2.642v-0.232c0-0.734,0.14-1.389,0.42-1.965
		c0.28-0.576,0.672-1.028,1.176-1.354c0.504-0.326,1.049-0.489,1.637-0.489c0.962,0,1.709,0.317,2.242,0.95
		c0.533,0.634,0.8,1.54,0.8,2.721v0.526h-5.011c0.018,0.729,0.231,1.318,0.639,1.767c0.408,0.449,0.926,0.673,1.555,0.673
		c0.447,0,0.825-0.091,1.135-0.273c0.31-0.182,0.581-0.424,0.813-0.725l0.772,0.602C134.912,55.447,133.982,55.923,132.743,55.923
		 M132.586,49.292c-0.51,0-0.939,0.186-1.285,0.557c-0.346,0.371-0.561,0.892-0.643,1.562h3.705v-0.096
		c-0.037-0.643-0.21-1.14-0.52-1.494C133.534,49.469,133.114,49.292,132.586,49.292 M120.503,55.923
		c-1.007,0-1.808-0.336-2.403-1.008c-0.595-0.672-0.892-1.592-0.892-2.758v-0.212c0-0.72,0.132-1.36,0.396-1.921
		c0.264-0.561,0.644-0.996,1.138-1.306c0.494-0.31,1.079-0.465,1.753-0.465c0.829,0,1.519,0.248,2.068,0.745
		c0.549,0.497,0.842,1.142,0.878,1.935h-1.196c-0.037-0.479-0.218-0.872-0.543-1.179c-0.326-0.308-0.728-0.461-1.207-0.461
		c-0.643,0-1.141,0.231-1.494,0.694c-0.353,0.463-0.53,1.131-0.53,2.006v0.239c0,0.852,0.175,1.508,0.526,1.969
		c0.351,0.46,0.852,0.69,1.504,0.69c0.451,0,0.845-0.137,1.183-0.41c0.337-0.273,0.524-0.615,0.561-1.025h1.196
		c-0.023,0.424-0.169,0.827-0.438,1.21c-0.269,0.383-0.628,0.688-1.077,0.916C121.48,55.809,121.005,55.923,120.503,55.923
		 M103.326,55.923c-1.003,0-1.815-0.349-2.437-1.046c-0.622-0.697-0.933-1.62-0.933-2.769V52.02c0-0.725,0.142-1.376,0.427-1.955
		c0.285-0.579,0.681-1.025,1.189-1.34c0.508-0.314,1.088-0.472,1.74-0.472c1.007,0,1.822,0.349,2.444,1.046
		c0.622,0.697,0.933,1.625,0.933,2.782v0.089c0,0.72-0.138,1.366-0.414,1.938c-0.276,0.572-0.67,1.017-1.183,1.336
		C104.58,55.763,103.991,55.923,103.326,55.923 M103.312,49.292c-0.624,0-1.128,0.248-1.511,0.745
		c-0.383,0.497-0.574,1.208-0.574,2.133c0,0.82,0.19,1.479,0.571,1.976c0.38,0.497,0.89,0.745,1.528,0.745
		c0.643,0,1.153-0.252,1.531-0.755c0.378-0.504,0.567-1.209,0.567-2.116c0-0.811-0.193-1.469-0.578-1.972
		C104.461,49.544,103.95,49.292,103.312,49.292 M68.505,55.923c-0.592,0-1.117-0.105-1.572-0.314
		c-0.456-0.21-0.812-0.502-1.07-0.878c-0.258-0.376-0.386-0.783-0.386-1.22h1.265c0.023,0.424,0.192,0.76,0.509,1.008
		c0.317,0.248,0.735,0.373,1.254,0.373c0.479,0,0.862-0.097,1.152-0.291c0.289-0.194,0.434-0.452,0.434-0.776
		c0-0.342-0.129-0.607-0.386-0.796c-0.258-0.189-0.706-0.352-1.347-0.489c-0.64-0.137-1.148-0.301-1.524-0.492
		c-0.376-0.191-0.654-0.419-0.834-0.684c-0.18-0.264-0.27-0.579-0.27-0.943c0-0.606,0.256-1.119,0.769-1.538
		c0.513-0.419,1.168-0.629,1.965-0.629c0.838,0,1.519,0.217,2.04,0.649c0.522,0.433,0.783,0.987,0.783,1.661h-1.271
		c0-0.346-0.147-0.645-0.441-0.896c-0.294-0.251-0.664-0.376-1.111-0.376c-0.46,0-0.82,0.1-1.08,0.301
		c-0.26,0.201-0.39,0.463-0.39,0.786c0,0.305,0.121,0.536,0.362,0.69c0.242,0.155,0.678,0.303,1.309,0.444
		c0.631,0.141,1.143,0.31,1.535,0.506c0.392,0.196,0.682,0.432,0.872,0.708c0.189,0.276,0.284,0.612,0.284,1.008
		c0,0.661-0.264,1.191-0.793,1.589C70.034,55.724,69.348,55.923,68.505,55.923 M61.272,55.923c-0.592,0-1.117-0.105-1.572-0.314
		c-0.456-0.21-0.812-0.502-1.07-0.878c-0.258-0.376-0.386-0.783-0.386-1.22h1.265c0.023,0.424,0.192,0.76,0.509,1.008
		c0.317,0.248,0.735,0.373,1.254,0.373c0.479,0,0.862-0.097,1.152-0.291c0.289-0.194,0.434-0.452,0.434-0.776
		c0-0.342-0.129-0.607-0.386-0.796c-0.258-0.189-0.706-0.352-1.347-0.489c-0.64-0.137-1.148-0.301-1.524-0.492
		c-0.376-0.191-0.654-0.419-0.834-0.684c-0.18-0.264-0.27-0.579-0.27-0.943c0-0.606,0.256-1.119,0.769-1.538
		c0.513-0.419,1.168-0.629,1.965-0.629c0.839,0,1.519,0.217,2.041,0.649c0.522,0.433,0.783,0.987,0.783,1.661h-1.271
		c0-0.346-0.147-0.645-0.441-0.896c-0.294-0.251-0.664-0.376-1.111-0.376c-0.46,0-0.82,0.1-1.08,0.301
		c-0.26,0.201-0.39,0.463-0.39,0.786c0,0.305,0.121,0.536,0.362,0.69c0.241,0.155,0.678,0.303,1.309,0.444
		c0.631,0.141,1.143,0.31,1.535,0.506c0.392,0.196,0.682,0.432,0.872,0.708c0.189,0.276,0.284,0.612,0.284,1.008
		c0,0.661-0.264,1.191-0.793,1.589C62.801,55.724,62.115,55.923,61.272,55.923 M54.198,55.923c-1.003,0-1.818-0.329-2.447-0.988
		c-0.629-0.658-0.943-1.539-0.943-2.642v-0.232c0-0.734,0.14-1.389,0.42-1.965c0.28-0.576,0.672-1.028,1.176-1.354
		c0.504-0.326,1.049-0.489,1.637-0.489c0.961,0,1.709,0.317,2.242,0.95c0.533,0.634,0.8,1.54,0.8,2.721v0.526h-5.011
		c0.018,0.729,0.231,1.318,0.639,1.767c0.408,0.449,0.926,0.673,1.555,0.673c0.447,0,0.825-0.091,1.135-0.273
		c0.31-0.182,0.581-0.424,0.813-0.725l0.772,0.602C56.368,55.447,55.438,55.923,54.198,55.923 M54.041,49.292
		c-0.51,0-0.939,0.186-1.285,0.557c-0.346,0.371-0.561,0.892-0.643,1.562h3.705v-0.096c-0.037-0.643-0.21-1.14-0.52-1.494
		C54.989,49.469,54.57,49.292,54.041,49.292 M46.667,55.923c-1.007,0-1.808-0.336-2.403-1.008c-0.595-0.672-0.892-1.592-0.892-2.758
		v-0.212c0-0.72,0.132-1.36,0.397-1.921c0.264-0.561,0.644-0.996,1.138-1.306c0.494-0.31,1.079-0.465,1.753-0.465
		c0.829,0,1.519,0.248,2.068,0.745c0.549,0.497,0.842,1.142,0.878,1.935H48.41c-0.037-0.479-0.218-0.872-0.543-1.179
		c-0.326-0.308-0.728-0.461-1.207-0.461c-0.643,0-1.141,0.231-1.494,0.694c-0.353,0.463-0.53,1.131-0.53,2.006v0.239
		c0,0.852,0.175,1.508,0.526,1.969c0.351,0.46,0.852,0.69,1.504,0.69c0.451,0,0.845-0.137,1.183-0.41
		c0.337-0.273,0.524-0.615,0.561-1.025h1.196c-0.023,0.424-0.169,0.827-0.438,1.21c-0.269,0.383-0.628,0.688-1.077,0.916
		C47.643,55.809,47.168,55.923,46.667,55.923 M39.224,55.923c-1.007,0-1.808-0.336-2.403-1.008
		c-0.595-0.672-0.892-1.592-0.892-2.758v-0.212c0-0.72,0.132-1.36,0.396-1.921c0.264-0.561,0.644-0.996,1.138-1.306
		c0.494-0.31,1.079-0.465,1.753-0.465c0.829,0,1.519,0.248,2.068,0.745c0.549,0.497,0.842,1.142,0.878,1.935h-1.196
		c-0.037-0.479-0.218-0.872-0.543-1.179c-0.326-0.308-0.728-0.461-1.207-0.461c-0.643,0-1.141,0.231-1.494,0.694
		c-0.353,0.463-0.53,1.131-0.53,2.006v0.239c0,0.852,0.175,1.508,0.526,1.969c0.351,0.46,0.852,0.69,1.504,0.69
		c0.451,0,0.845-0.137,1.183-0.41c0.337-0.273,0.524-0.615,0.561-1.025h1.196c-0.023,0.424-0.169,0.827-0.438,1.21
		c-0.269,0.383-0.628,0.688-1.077,0.916C40.2,55.809,39.725,55.923,39.224,55.923 M30.934,55.923c-0.729,0-1.327-0.206-1.794-0.619
		c-0.467-0.412-0.701-0.935-0.701-1.569c0-0.77,0.293-1.368,0.878-1.794c0.586-0.426,1.409-0.639,2.471-0.639h1.23v-0.581
		c0-0.442-0.132-0.794-0.396-1.056c-0.264-0.262-0.654-0.393-1.169-0.393c-0.451,0-0.829,0.114-1.135,0.342
		c-0.305,0.228-0.458,0.504-0.458,0.827h-1.271c0-0.369,0.131-0.726,0.393-1.07c0.262-0.344,0.617-0.616,1.066-0.817
		c0.449-0.2,0.942-0.301,1.48-0.301c0.852,0,1.52,0.213,2.003,0.639c0.483,0.426,0.734,1.013,0.752,1.76v3.404
		c0,0.679,0.087,1.219,0.26,1.62v0.109h-1.326c-0.073-0.146-0.132-0.406-0.178-0.779C32.451,55.618,31.749,55.923,30.934,55.923
		 M32.027,52.197c-1.55,0-2.324,0.454-2.324,1.36c0,0.396,0.132,0.706,0.396,0.93c0.264,0.223,0.604,0.335,1.019,0.335
		c0.396,0,0.772-0.103,1.128-0.308c0.355-0.205,0.613-0.472,0.772-0.8v-1.518H32.027 M15.308,55.923
		c-1.003,0-1.815-0.349-2.437-1.046c-0.622-0.697-0.933-1.62-0.933-2.769V52.02c0-0.725,0.142-1.376,0.427-1.955
		c0.285-0.579,0.681-1.025,1.189-1.34c0.508-0.314,1.088-0.472,1.74-0.472c1.007,0,1.822,0.349,2.444,1.046
		c0.622,0.697,0.933,1.625,0.933,2.782v0.089c0,0.72-0.138,1.366-0.414,1.938c-0.276,0.572-0.67,1.017-1.183,1.336
		C16.562,55.763,15.973,55.923,15.308,55.923 M15.294,49.292c-0.624,0-1.128,0.248-1.511,0.745
		c-0.383,0.497-0.574,1.208-0.574,2.133c0,0.82,0.19,1.479,0.571,1.976c0.38,0.497,0.89,0.745,1.528,0.745
		c0.643,0,1.153-0.252,1.531-0.755c0.378-0.504,0.567-1.209,0.567-2.116c0-0.811-0.193-1.469-0.578-1.972
		C16.443,49.544,15.932,49.292,15.294,49.292 M146.494,55.786h-1.265V48.39h1.265V55.786 M126.24,55.786h-1.265V48.39h1.23
		l0.02,0.854c0.415-0.661,1.003-0.991,1.764-0.991c0.246,0,0.433,0.032,0.561,0.096v1.176c-0.191-0.032-0.399-0.048-0.622-0.048
		c-0.829,0-1.392,0.353-1.688,1.06V55.786 M109.59,55.786h-1.265V48.39h1.231l0.02,0.854c0.415-0.661,1.003-0.991,1.764-0.991
		c0.246,0,0.433,0.032,0.561,0.096v1.176c-0.191-0.032-0.399-0.048-0.622-0.048c-0.829,0-1.392,0.353-1.688,1.06V55.786
		 M97.502,55.786h-1.265v-6.419h-1.169V48.39h1.169v-0.759c0-0.793,0.212-1.406,0.636-1.839c0.424-0.433,1.023-0.649,1.798-0.649
		c0.292,0,0.581,0.039,0.868,0.115l-0.068,1.019c-0.214-0.041-0.442-0.062-0.684-0.062c-0.41,0-0.727,0.12-0.95,0.36
		c-0.223,0.24-0.335,0.584-0.335,1.032v0.782h1.579v0.978h-1.579V55.786 M82.207,55.786h-1.265v-4.895
		c-0.005-0.533-0.126-0.927-0.366-1.183c-0.239-0.255-0.612-0.383-1.118-0.383c-0.41,0-0.77,0.109-1.08,0.328
		c-0.31,0.219-0.551,0.506-0.725,0.861v5.271h-1.265V48.39h1.196l0.041,0.93c0.565-0.711,1.303-1.066,2.215-1.066
		c1.563,0,2.352,0.882,2.365,2.646V55.786 M74.349,55.786h-1.265V48.39h1.265V55.786 M21.572,55.786h-1.265V48.39h1.23l0.021,0.854
		c0.415-0.661,1.003-0.991,1.764-0.991c0.246,0,0.433,0.032,0.561,0.096v1.176c-0.191-0.032-0.399-0.048-0.622-0.048
		c-0.829,0-1.392,0.353-1.689,1.06V55.786 M115.762,52.074h-3.336v-1.032h3.336V52.074 M145.872,47.145
		c-0.246,0-0.432-0.068-0.557-0.205c-0.125-0.137-0.188-0.308-0.188-0.513c0-0.205,0.063-0.378,0.188-0.52
		c0.125-0.141,0.311-0.212,0.557-0.212c0.246,0,0.433,0.071,0.561,0.212c0.128,0.141,0.191,0.314,0.191,0.52
		c0,0.205-0.064,0.376-0.191,0.513C146.305,47.077,146.118,47.145,145.872,47.145 M73.727,47.145c-0.246,0-0.432-0.068-0.557-0.205
		c-0.125-0.137-0.188-0.308-0.188-0.513c0-0.205,0.063-0.378,0.188-0.52c0.125-0.141,0.311-0.212,0.557-0.212
		s0.433,0.071,0.561,0.212c0.128,0.141,0.191,0.314,0.191,0.52c0,0.205-0.064,0.376-0.191,0.513
		C74.16,47.077,73.973,47.145,73.727,47.145"/>
	<path fill="#000000" d="M137.934,78.698c-0.533,0-1.055-0.114-1.565-0.342c-0.51-0.228-0.9-0.54-1.169-0.937l0.656-0.759
		c0.542,0.67,1.205,1.005,1.989,1.005c0.615,0,1.095-0.173,1.439-0.52c0.344-0.346,0.516-0.834,0.516-1.463v-0.636
		c-0.506,0.583-1.196,0.875-2.071,0.875c-0.866,0-1.567-0.349-2.102-1.046c-0.536-0.697-0.803-1.647-0.803-2.851
		c0-1.153,0.267-2.07,0.8-2.751c0.533-0.681,1.24-1.022,2.119-1.022c0.902,0,1.606,0.319,2.112,0.957l0.062-0.82h1.155v7.219
		c0,0.957-0.284,1.711-0.851,2.263C139.653,78.422,138.891,78.698,137.934,78.698 M138.057,69.326c-0.615,0-1.096,0.239-1.442,0.718
		s-0.52,1.187-0.52,2.126c0,0.834,0.171,1.489,0.513,1.965c0.342,0.476,0.82,0.714,1.436,0.714c0.798,0,1.383-0.362,1.757-1.087
		v-3.377C139.413,69.679,138.832,69.326,138.057,69.326 M162.164,78.63h-1.265V68.39h1.155l0.062,0.82
		c0.515-0.638,1.231-0.957,2.147-0.957c0.889,0,1.592,0.335,2.109,1.005c0.517,0.67,0.776,1.602,0.776,2.796v0.116
		c0,1.126-0.258,2.033-0.772,2.721c-0.515,0.688-1.212,1.032-2.092,1.032c-0.898,0-1.604-0.285-2.119-0.854V78.63 M163.887,69.326
		c-0.766,0-1.34,0.34-1.723,1.019v3.534c0.378,0.675,0.957,1.012,1.736,1.012c0.606,0,1.088-0.24,1.446-0.721
		c0.358-0.481,0.537-1.195,0.537-2.143c0-0.834-0.178-1.492-0.533-1.976C164.994,69.568,164.507,69.326,163.887,69.326
		 M13.537,78.63h-1.265V68.39h1.155l0.062,0.82c0.515-0.638,1.231-0.957,2.147-0.957c0.889,0,1.592,0.335,2.109,1.005
		c0.517,0.67,0.776,1.602,0.776,2.796v0.116c0,1.126-0.258,2.033-0.772,2.721c-0.515,0.688-1.212,1.032-2.092,1.032
		c-0.898,0-1.604-0.285-2.119-0.854V78.63 M15.26,69.326c-0.766,0-1.34,0.34-1.723,1.019v3.534c0.378,0.675,0.957,1.012,1.736,1.012
		c0.606,0,1.088-0.24,1.446-0.721c0.358-0.481,0.537-1.195,0.537-2.143c0-0.834-0.178-1.492-0.533-1.976
		C16.367,69.568,15.88,69.326,15.26,69.326 M217.438,75.923c-0.592,0-1.117-0.105-1.572-0.314c-0.456-0.21-0.812-0.502-1.07-0.878
		c-0.258-0.376-0.386-0.783-0.386-1.22h1.265c0.023,0.424,0.192,0.76,0.509,1.008c0.317,0.248,0.735,0.373,1.254,0.373
		c0.479,0,0.862-0.097,1.152-0.291c0.289-0.194,0.434-0.452,0.434-0.776c0-0.342-0.129-0.607-0.386-0.796
		c-0.258-0.189-0.706-0.352-1.347-0.489c-0.64-0.137-1.148-0.301-1.524-0.492c-0.376-0.191-0.654-0.419-0.834-0.684
		c-0.18-0.264-0.27-0.579-0.27-0.943c0-0.606,0.256-1.119,0.769-1.538c0.513-0.419,1.168-0.629,1.965-0.629
		c0.838,0,1.519,0.217,2.041,0.649c0.522,0.433,0.783,0.987,0.783,1.661h-1.271c0-0.346-0.147-0.645-0.441-0.895
		s-0.664-0.376-1.111-0.376c-0.46,0-0.82,0.1-1.08,0.301c-0.26,0.201-0.39,0.463-0.39,0.786c0,0.305,0.121,0.536,0.362,0.69
		c0.242,0.155,0.678,0.303,1.309,0.444c0.631,0.141,1.143,0.31,1.535,0.506c0.392,0.196,0.682,0.432,0.872,0.708
		c0.189,0.276,0.284,0.612,0.284,1.008c0,0.661-0.264,1.191-0.793,1.589C218.967,75.724,218.281,75.923,217.438,75.923
		 M210.364,75.923c-1.003,0-1.818-0.329-2.447-0.988c-0.629-0.658-0.943-1.539-0.943-2.642v-0.232c0-0.734,0.14-1.389,0.42-1.965
		c0.28-0.576,0.672-1.028,1.176-1.353c0.503-0.326,1.049-0.489,1.637-0.489c0.962,0,1.709,0.317,2.242,0.95
		c0.533,0.634,0.8,1.54,0.8,2.721v0.526h-5.011c0.018,0.729,0.231,1.318,0.639,1.767c0.408,0.449,0.926,0.673,1.555,0.673
		c0.447,0,0.825-0.091,1.135-0.273c0.31-0.182,0.581-0.424,0.813-0.725l0.772,0.602C212.533,75.447,211.604,75.923,210.364,75.923
		 M210.207,69.292c-0.51,0-0.939,0.186-1.285,0.557c-0.346,0.371-0.561,0.892-0.643,1.562h3.705v-0.096
		c-0.037-0.643-0.21-1.14-0.52-1.494C211.155,69.469,210.736,69.292,210.207,69.292 M202.833,75.923
		c-1.007,0-1.808-0.336-2.403-1.008c-0.595-0.672-0.892-1.592-0.892-2.758v-0.212c0-0.72,0.132-1.36,0.396-1.921
		c0.264-0.561,0.644-0.996,1.138-1.306c0.494-0.31,1.079-0.465,1.753-0.465c0.829,0,1.519,0.248,2.068,0.745
		c0.549,0.497,0.842,1.142,0.878,1.935h-1.196c-0.037-0.478-0.218-0.872-0.543-1.179c-0.326-0.308-0.728-0.461-1.207-0.461
		c-0.643,0-1.141,0.231-1.494,0.694c-0.353,0.463-0.53,1.131-0.53,2.006v0.239c0,0.852,0.175,1.508,0.526,1.969
		c0.351,0.46,0.852,0.69,1.504,0.69c0.451,0,0.845-0.137,1.183-0.41c0.337-0.273,0.524-0.615,0.561-1.025h1.196
		c-0.023,0.424-0.169,0.827-0.438,1.21c-0.269,0.383-0.628,0.688-1.077,0.916C203.809,75.809,203.334,75.923,202.833,75.923
		 M187.606,75.923c-1.003,0-1.818-0.329-2.447-0.988c-0.629-0.658-0.943-1.539-0.943-2.642v-0.232c0-0.734,0.14-1.389,0.42-1.965
		c0.28-0.576,0.672-1.028,1.176-1.353c0.504-0.326,1.049-0.489,1.637-0.489c0.962,0,1.709,0.317,2.242,0.95
		c0.533,0.634,0.8,1.54,0.8,2.721v0.526h-5.011c0.018,0.729,0.231,1.318,0.639,1.767c0.408,0.449,0.926,0.673,1.555,0.673
		c0.447,0,0.825-0.091,1.135-0.273c0.31-0.182,0.581-0.424,0.813-0.725l0.772,0.602C189.775,75.447,188.846,75.923,187.606,75.923
		 M187.449,69.292c-0.51,0-0.939,0.186-1.285,0.557c-0.346,0.371-0.561,0.892-0.643,1.562h3.705v-0.096
		c-0.036-0.643-0.21-1.14-0.52-1.494C188.397,69.469,187.977,69.292,187.449,69.292 M171.895,75.923
		c-1.003,0-1.818-0.329-2.447-0.988c-0.629-0.658-0.943-1.539-0.943-2.642v-0.232c0-0.734,0.14-1.389,0.42-1.965
		c0.28-0.576,0.672-1.028,1.176-1.353c0.504-0.326,1.049-0.489,1.637-0.489c0.961,0,1.709,0.317,2.242,0.95
		c0.533,0.634,0.8,1.54,0.8,2.721v0.526h-5.011c0.018,0.729,0.231,1.318,0.639,1.767c0.408,0.449,0.926,0.673,1.555,0.673
		c0.447,0,0.825-0.091,1.135-0.273c0.31-0.182,0.581-0.424,0.813-0.725l0.773,0.602C174.064,75.447,173.134,75.923,171.895,75.923
		 M171.738,69.292c-0.51,0-0.939,0.186-1.285,0.557c-0.346,0.371-0.561,0.892-0.643,1.562h3.705v-0.096
		c-0.037-0.643-0.21-1.14-0.52-1.494C172.685,69.469,172.266,69.292,171.738,69.292 M149.654,75.923
		c-1.003,0-1.818-0.329-2.447-0.988c-0.629-0.658-0.943-1.539-0.943-2.642v-0.232c0-0.734,0.14-1.389,0.42-1.965
		c0.28-0.576,0.672-1.028,1.176-1.353c0.504-0.326,1.049-0.489,1.637-0.489c0.961,0,1.709,0.317,2.242,0.95
		c0.533,0.634,0.8,1.54,0.8,2.721v0.526h-5.011c0.018,0.729,0.231,1.318,0.639,1.767c0.408,0.449,0.926,0.673,1.555,0.673
		c0.447,0,0.825-0.091,1.135-0.273c0.31-0.182,0.581-0.424,0.813-0.725l0.772,0.602C151.823,75.447,150.894,75.923,149.654,75.923
		 M149.497,69.292c-0.51,0-0.939,0.186-1.285,0.557c-0.346,0.371-0.561,0.892-0.643,1.562h3.705v-0.096
		c-0.037-0.643-0.21-1.14-0.52-1.494C150.445,69.469,150.025,69.292,149.497,69.292 M106.046,75.923
		c-0.729,0-1.327-0.206-1.794-0.619c-0.467-0.412-0.701-0.935-0.701-1.569c0-0.77,0.293-1.368,0.878-1.794
		c0.586-0.426,1.409-0.639,2.471-0.639h1.23v-0.581c0-0.442-0.132-0.794-0.396-1.056c-0.264-0.262-0.654-0.393-1.169-0.393
		c-0.451,0-0.829,0.114-1.135,0.342c-0.305,0.228-0.458,0.504-0.458,0.827h-1.271c0-0.369,0.131-0.726,0.393-1.07
		c0.262-0.344,0.617-0.616,1.066-0.817c0.449-0.2,0.942-0.301,1.48-0.301c0.852,0,1.52,0.213,2.003,0.639
		c0.483,0.426,0.734,1.013,0.752,1.76v3.404c0,0.679,0.087,1.219,0.26,1.62v0.109h-1.326c-0.073-0.146-0.132-0.406-0.178-0.779
		C107.563,75.618,106.862,75.923,106.046,75.923 M107.14,72.197c-1.549,0-2.324,0.454-2.324,1.36c0,0.396,0.132,0.706,0.396,0.93
		c0.264,0.223,0.604,0.335,1.019,0.335c0.396,0,0.772-0.103,1.128-0.308c0.355-0.205,0.613-0.472,0.772-0.8v-1.518H107.14
		 M99.425,75.923c-1.003,0-1.818-0.329-2.447-0.988c-0.629-0.658-0.943-1.539-0.943-2.642v-0.232c0-0.734,0.14-1.389,0.42-1.965
		c0.28-0.576,0.672-1.028,1.176-1.353c0.504-0.326,1.049-0.489,1.637-0.489c0.961,0,1.709,0.317,2.242,0.95
		c0.533,0.634,0.8,1.54,0.8,2.721v0.526h-5.011c0.018,0.729,0.231,1.318,0.639,1.767c0.408,0.449,0.926,0.673,1.555,0.673
		c0.447,0,0.825-0.091,1.135-0.273c0.31-0.182,0.581-0.424,0.813-0.725l0.772,0.602C101.594,75.447,100.664,75.923,99.425,75.923
		 M99.268,69.292c-0.51,0-0.939,0.186-1.285,0.557c-0.346,0.371-0.561,0.892-0.643,1.562h3.705v-0.096
		c-0.037-0.643-0.21-1.14-0.52-1.494C100.215,69.469,99.796,69.292,99.268,69.292 M80.635,75.923c-0.729,0-1.327-0.206-1.794-0.619
		c-0.467-0.412-0.701-0.935-0.701-1.569c0-0.77,0.293-1.368,0.878-1.794c0.586-0.426,1.409-0.639,2.471-0.639h1.23v-0.581
		c0-0.442-0.132-0.794-0.396-1.056c-0.264-0.262-0.654-0.393-1.169-0.393c-0.451,0-0.83,0.114-1.135,0.342
		c-0.305,0.228-0.458,0.504-0.458,0.827h-1.271c0-0.369,0.131-0.726,0.393-1.07c0.262-0.344,0.617-0.616,1.066-0.817
		c0.449-0.2,0.942-0.301,1.48-0.301c0.852,0,1.52,0.213,2.003,0.639c0.483,0.426,0.734,1.013,0.752,1.76v3.404
		c0,0.679,0.087,1.219,0.26,1.62v0.109h-1.326c-0.073-0.146-0.132-0.406-0.178-0.779C82.153,75.618,81.451,75.923,80.635,75.923
		 M81.729,72.197c-1.55,0-2.324,0.454-2.324,1.36c0,0.396,0.132,0.706,0.396,0.93c0.264,0.223,0.604,0.335,1.019,0.335
		c0.396,0,0.772-0.103,1.128-0.308c0.355-0.205,0.613-0.472,0.772-0.8v-1.518H81.729 M65.659,75.923
		c-1.003,0-1.815-0.349-2.437-1.046c-0.622-0.697-0.933-1.62-0.933-2.769V72.02c0-0.725,0.142-1.376,0.427-1.955
		c0.285-0.579,0.681-1.025,1.189-1.34c0.508-0.314,1.088-0.472,1.74-0.472c1.007,0,1.822,0.349,2.444,1.046
		c0.622,0.697,0.933,1.625,0.933,2.782v0.089c0,0.72-0.138,1.366-0.414,1.938c-0.276,0.572-0.67,1.017-1.183,1.336
		C66.913,75.763,66.324,75.923,65.659,75.923 M65.645,69.292c-0.624,0-1.128,0.248-1.511,0.745
		c-0.383,0.497-0.574,1.208-0.574,2.133c0,0.82,0.19,1.479,0.571,1.976c0.38,0.497,0.89,0.745,1.528,0.745
		c0.643,0,1.153-0.252,1.531-0.755c0.378-0.503,0.567-1.209,0.567-2.116c0-0.811-0.193-1.469-0.578-1.972
		C66.795,69.544,66.283,69.292,65.645,69.292 M54.767,75.923c-0.592,0-1.117-0.105-1.572-0.314c-0.456-0.21-0.812-0.502-1.07-0.878
		c-0.258-0.376-0.386-0.783-0.386-1.22h1.265c0.023,0.424,0.192,0.76,0.509,1.008c0.317,0.248,0.735,0.373,1.254,0.373
		c0.479,0,0.862-0.097,1.152-0.291c0.289-0.194,0.434-0.452,0.434-0.776c0-0.342-0.129-0.607-0.386-0.796
		c-0.258-0.189-0.706-0.352-1.347-0.489c-0.64-0.137-1.148-0.301-1.524-0.492c-0.376-0.191-0.654-0.419-0.834-0.684
		c-0.18-0.264-0.27-0.579-0.27-0.943c0-0.606,0.256-1.119,0.769-1.538c0.513-0.419,1.168-0.629,1.965-0.629
		c0.838,0,1.519,0.217,2.041,0.649c0.522,0.433,0.783,0.987,0.783,1.661h-1.271c0-0.346-0.147-0.645-0.441-0.895
		c-0.294-0.251-0.664-0.376-1.111-0.376c-0.46,0-0.82,0.1-1.08,0.301c-0.26,0.201-0.39,0.463-0.39,0.786
		c0,0.305,0.121,0.536,0.362,0.69c0.242,0.155,0.678,0.303,1.309,0.444c0.631,0.141,1.143,0.31,1.535,0.506
		c0.392,0.196,0.682,0.432,0.872,0.708c0.189,0.276,0.284,0.612,0.284,1.008c0,0.661-0.264,1.191-0.793,1.589
		C56.296,75.724,55.61,75.923,54.767,75.923 M47.534,75.923c-0.592,0-1.117-0.105-1.572-0.314c-0.456-0.21-0.812-0.502-1.07-0.878
		c-0.258-0.376-0.386-0.783-0.386-1.22h1.265c0.023,0.424,0.192,0.76,0.509,1.008c0.317,0.248,0.735,0.373,1.254,0.373
		c0.479,0,0.862-0.097,1.152-0.291c0.289-0.194,0.434-0.452,0.434-0.776c0-0.342-0.129-0.607-0.386-0.796
		c-0.258-0.189-0.706-0.352-1.347-0.489c-0.64-0.137-1.148-0.301-1.524-0.492c-0.376-0.191-0.654-0.419-0.834-0.684
		c-0.18-0.264-0.27-0.579-0.27-0.943c0-0.606,0.256-1.119,0.769-1.538c0.513-0.419,1.168-0.629,1.965-0.629
		c0.838,0,1.519,0.217,2.041,0.649c0.522,0.433,0.783,0.987,0.783,1.661h-1.271c0-0.346-0.147-0.645-0.441-0.895
		c-0.294-0.251-0.664-0.376-1.111-0.376c-0.46,0-0.82,0.1-1.08,0.301c-0.26,0.201-0.39,0.463-0.39,0.786
		c0,0.305,0.121,0.536,0.362,0.69c0.241,0.155,0.678,0.303,1.309,0.444c0.631,0.141,1.143,0.31,1.535,0.506
		c0.392,0.196,0.682,0.432,0.872,0.708c0.189,0.276,0.284,0.612,0.284,1.008c0,0.661-0.264,1.191-0.793,1.589
		C49.063,75.724,48.378,75.923,47.534,75.923 M40.461,75.923c-1.003,0-1.818-0.329-2.447-0.988
		c-0.629-0.658-0.943-1.539-0.943-2.642v-0.232c0-0.734,0.14-1.389,0.42-1.965c0.28-0.576,0.672-1.028,1.176-1.353
		c0.503-0.326,1.049-0.489,1.637-0.489c0.962,0,1.709,0.317,2.242,0.95c0.533,0.634,0.8,1.54,0.8,2.721v0.526h-5.011
		c0.018,0.729,0.231,1.318,0.639,1.767c0.408,0.449,0.926,0.673,1.555,0.673c0.447,0,0.825-0.091,1.135-0.273
		c0.31-0.182,0.581-0.424,0.813-0.725l0.772,0.602C42.63,75.447,41.7,75.923,40.461,75.923 M40.303,69.292
		c-0.51,0-0.939,0.186-1.285,0.557c-0.346,0.371-0.561,0.892-0.643,1.562h3.705v-0.096c-0.037-0.643-0.21-1.14-0.52-1.494
		C41.251,69.469,40.832,69.292,40.303,69.292 M27.954,75.923c-1.003,0-1.815-0.349-2.437-1.046c-0.622-0.697-0.933-1.62-0.933-2.769
		V72.02c0-0.725,0.142-1.376,0.427-1.955c0.285-0.579,0.681-1.025,1.189-1.34c0.508-0.314,1.088-0.472,1.74-0.472
		c1.007,0,1.822,0.349,2.444,1.046c0.622,0.697,0.933,1.625,0.933,2.782v0.089c0,0.72-0.138,1.366-0.414,1.938
		c-0.276,0.572-0.67,1.017-1.183,1.336C29.208,75.763,28.619,75.923,27.954,75.923 M27.94,69.292c-0.624,0-1.128,0.248-1.511,0.745
		c-0.383,0.497-0.574,1.208-0.574,2.133c0,0.82,0.19,1.479,0.571,1.976c0.381,0.497,0.89,0.745,1.528,0.745
		c0.643,0,1.153-0.252,1.531-0.755c0.378-0.503,0.567-1.209,0.567-2.116c0-0.811-0.193-1.469-0.578-1.972
		C29.09,69.544,28.578,69.292,27.94,69.292 M197.904,75.786h-1.265v-4.895c-0.005-0.533-0.126-0.927-0.366-1.183
		c-0.239-0.255-0.612-0.383-1.118-0.383c-0.41,0-0.77,0.109-1.08,0.328c-0.31,0.219-0.551,0.506-0.725,0.861v5.27h-1.265V68.39
		h1.196l0.041,0.93c0.565-0.711,1.303-1.066,2.215-1.066c1.563,0,2.352,0.882,2.365,2.646V75.786 M182.532,75.786h-1.265V68.39
		h1.265V75.786 M177.64,75.786h-1.265V68.39h1.23l0.02,0.854c0.415-0.661,1.003-0.991,1.764-0.991c0.246,0,0.433,0.032,0.561,0.096
		v1.176c-0.191-0.032-0.399-0.048-0.622-0.048c-0.829,0-1.392,0.353-1.688,1.06V75.786 M159.584,75.786h-1.463l-1.709-2.769
		l-1.709,2.769h-1.47l2.495-3.739l-2.42-3.657h1.463l1.62,2.7l1.641-2.7h1.477l-2.42,3.657L159.584,75.786 M133.177,75.786h-1.265
		v-4.895c-0.005-0.533-0.126-0.927-0.366-1.183c-0.239-0.255-0.612-0.383-1.118-0.383c-0.41,0-0.77,0.109-1.08,0.328
		c-0.31,0.219-0.551,0.506-0.725,0.861v5.27h-1.265V68.39h1.196l0.041,0.93c0.565-0.711,1.303-1.066,2.215-1.066
		c1.563,0,2.352,0.882,2.365,2.646V75.786 M125.319,75.786h-1.265V68.39h1.265V75.786 M122.057,75.786h-1.265v-4.895
		c-0.005-0.533-0.126-0.927-0.366-1.183c-0.239-0.255-0.612-0.383-1.118-0.383c-0.41,0-0.77,0.109-1.08,0.328
		c-0.31,0.219-0.551,0.506-0.725,0.861v5.27h-1.265V68.39h1.196l0.041,0.93c0.565-0.711,1.303-1.066,2.215-1.066
		c1.563,0,2.352,0.882,2.365,2.646V75.786 M112.666,75.786h-1.265V68.39h1.23l0.02,0.854c0.415-0.661,1.003-0.991,1.764-0.991
		c0.246,0,0.433,0.032,0.561,0.096v1.176c-0.191-0.032-0.399-0.048-0.622-0.048c-0.829,0-1.392,0.353-1.688,1.06V75.786
		 M94.306,75.786h-1.265v-10.5h1.265V75.786 M87.302,75.786h-1.265v-10.5h1.265V75.786 M76.476,75.786h-1.265v-4.895
		c-0.005-0.533-0.126-0.927-0.366-1.183c-0.239-0.255-0.612-0.383-1.118-0.383c-0.41,0-0.77,0.109-1.08,0.328
		c-0.31,0.219-0.551,0.506-0.725,0.861v5.27h-1.265V68.39h1.196l0.041,0.93c0.565-0.711,1.303-1.066,2.215-1.066
		c1.563,0,2.352,0.882,2.365,2.646V75.786 M60.611,75.786h-1.265V68.39h1.265V75.786 M34.616,75.786h-1.265v-6.419h-1.169V68.39
		h1.169v-0.759c0-0.793,0.212-1.406,0.636-1.839c0.424-0.433,1.023-0.649,1.798-0.649c0.292,0,0.581,0.039,0.868,0.115l-0.068,1.019
		c-0.214-0.041-0.442-0.062-0.684-0.062c-0.41,0-0.727,0.12-0.95,0.36c-0.223,0.24-0.335,0.584-0.335,1.032v0.782h1.579v0.978
		h-1.579V75.786 M21.471,75.786h-1.265V68.39h1.231l0.02,0.854c0.415-0.661,1.003-0.991,1.764-0.991
		c0.246,0,0.433,0.032,0.561,0.096v1.176c-0.191-0.032-0.399-0.048-0.622-0.048c-0.829,0-1.392,0.353-1.688,1.06V75.786
		 M181.909,67.146c-0.246,0-0.432-0.068-0.557-0.205c-0.125-0.137-0.188-0.308-0.188-0.513s0.063-0.378,0.188-0.52
		c0.125-0.141,0.311-0.212,0.557-0.212c0.246,0,0.433,0.071,0.561,0.212c0.128,0.141,0.191,0.314,0.191,0.52
		s-0.064,0.376-0.191,0.513C182.342,67.077,182.156,67.146,181.909,67.146 M124.697,67.146c-0.246,0-0.432-0.068-0.557-0.205
		c-0.125-0.137-0.188-0.308-0.188-0.513s0.063-0.378,0.188-0.52c0.125-0.141,0.311-0.212,0.557-0.212s0.433,0.071,0.561,0.212
		c0.128,0.141,0.191,0.314,0.191,0.52s-0.064,0.376-0.191,0.513C125.13,67.077,124.943,67.146,124.697,67.146 M59.989,67.146
		c-0.246,0-0.432-0.068-0.557-0.205c-0.125-0.137-0.188-0.308-0.188-0.513s0.063-0.378,0.188-0.52
		c0.125-0.141,0.311-0.212,0.557-0.212c0.246,0,0.433,0.071,0.561,0.212c0.128,0.141,0.191,0.314,0.191,0.52
		s-0.064,0.376-0.191,0.513C60.422,67.077,60.235,67.146,59.989,67.146"/>
	<path fill="#000000" d="M55.745,98.773l-0.239-0.02l-0.472-0.089v-1.025l0.342,0.027c0.428,0,0.762-0.087,1.002-0.26
		s0.436-0.49,0.591-0.95l0.28-0.752L54.61,88.39h1.381l1.846,5.544l1.723-5.544h1.354l-2.974,8.538
		C57.479,98.158,56.747,98.773,55.745,98.773 M46.766,98.698c-0.533,0-1.055-0.114-1.565-0.342c-0.51-0.228-0.9-0.54-1.169-0.937
		l0.656-0.759c0.542,0.67,1.205,1.005,1.989,1.005c0.615,0,1.095-0.173,1.439-0.52c0.344-0.346,0.516-0.834,0.516-1.463v-0.636
		c-0.506,0.583-1.196,0.875-2.071,0.875c-0.866,0-1.567-0.349-2.102-1.046c-0.536-0.697-0.803-1.647-0.803-2.851
		c0-1.153,0.267-2.07,0.8-2.751c0.533-0.681,1.24-1.022,2.119-1.022c0.902,0,1.606,0.319,2.112,0.957l0.062-0.82h1.155v7.219
		c0,0.957-0.284,1.711-0.851,2.263C48.485,98.422,47.723,98.698,46.766,98.698 M46.889,89.326c-0.615,0-1.096,0.239-1.442,0.718
		c-0.346,0.479-0.52,1.187-0.52,2.126c0,0.834,0.171,1.489,0.513,1.965c0.342,0.476,0.82,0.714,1.436,0.714
		c0.797,0,1.383-0.362,1.757-1.087v-3.377C48.245,89.679,47.664,89.326,46.889,89.326 M127.154,95.923
		c-0.592,0-1.117-0.105-1.572-0.314c-0.456-0.21-0.812-0.502-1.07-0.878c-0.258-0.376-0.386-0.783-0.386-1.22h1.265
		c0.023,0.424,0.192,0.76,0.509,1.008c0.317,0.248,0.735,0.373,1.254,0.373c0.478,0,0.862-0.097,1.152-0.291
		c0.289-0.194,0.434-0.452,0.434-0.776c0-0.342-0.129-0.607-0.386-0.796c-0.258-0.189-0.706-0.352-1.347-0.489
		c-0.64-0.137-1.148-0.301-1.524-0.492c-0.376-0.191-0.654-0.419-0.834-0.684c-0.18-0.264-0.27-0.579-0.27-0.943
		c0-0.606,0.256-1.119,0.769-1.538c0.513-0.419,1.168-0.629,1.965-0.629c0.839,0,1.519,0.217,2.041,0.649
		c0.522,0.433,0.783,0.987,0.783,1.661h-1.271c0-0.346-0.147-0.645-0.441-0.895c-0.294-0.251-0.664-0.376-1.111-0.376
		c-0.46,0-0.82,0.1-1.08,0.301c-0.26,0.201-0.39,0.463-0.39,0.786c0,0.305,0.121,0.536,0.362,0.69
		c0.241,0.155,0.678,0.303,1.309,0.444c0.631,0.141,1.143,0.31,1.535,0.506c0.392,0.196,0.682,0.432,0.872,0.708
		c0.189,0.276,0.284,0.612,0.284,1.008c0,0.661-0.264,1.191-0.793,1.589C128.683,95.724,127.997,95.923,127.154,95.923
		 M120.08,95.923c-1.003,0-1.818-0.329-2.447-0.988c-0.629-0.658-0.943-1.539-0.943-2.642v-0.232c0-0.734,0.14-1.389,0.42-1.965
		c0.28-0.576,0.672-1.028,1.176-1.353c0.504-0.326,1.049-0.489,1.637-0.489c0.961,0,1.709,0.317,2.242,0.95
		c0.533,0.633,0.8,1.54,0.8,2.721v0.526h-5.011c0.018,0.729,0.231,1.318,0.639,1.767c0.408,0.449,0.926,0.673,1.555,0.673
		c0.447,0,0.825-0.091,1.135-0.273c0.31-0.182,0.581-0.424,0.813-0.725l0.772,0.602C122.249,95.447,121.32,95.923,120.08,95.923
		 M119.923,89.292c-0.51,0-0.939,0.186-1.285,0.557c-0.346,0.372-0.561,0.892-0.643,1.562h3.705v-0.096
		c-0.037-0.643-0.21-1.14-0.52-1.494C120.871,89.469,120.451,89.292,119.923,89.292 M108.335,95.923
		c-0.857,0-1.555-0.351-2.095-1.053c-0.54-0.702-0.81-1.618-0.81-2.748v-0.096c0-1.135,0.269-2.047,0.807-2.738
		c0.538-0.69,1.242-1.036,2.112-1.036c0.866,0,1.552,0.296,2.058,0.889v-3.855h1.265v10.5h-1.162l-0.062-0.793
		C109.941,95.613,109.237,95.923,108.335,95.923 M108.663,89.326c-0.62,0-1.103,0.239-1.449,0.718
		c-0.346,0.479-0.52,1.187-0.52,2.126c0,0.839,0.173,1.495,0.52,1.969c0.346,0.474,0.825,0.711,1.436,0.711
		c0.802,0,1.388-0.36,1.757-1.08v-3.397C110.028,89.675,109.447,89.326,108.663,89.326 M100.36,95.923
		c-0.788,0-1.389-0.229-1.801-0.687c-0.413-0.458-0.621-1.136-0.625-2.034V88.39h1.265v4.778c0,1.121,0.456,1.682,1.367,1.682
		c0.966,0,1.609-0.36,1.928-1.08v-5.38h1.265v7.396h-1.203l-0.027-0.731C102.035,95.634,101.313,95.923,100.36,95.923 M95.59,95.923
		c-0.565,0-0.991-0.171-1.278-0.513c-0.287-0.342-0.431-0.827-0.431-1.456v-4.587h-1.347V88.39h1.347v-1.791h1.265v1.791h1.381
		v0.978h-1.381v4.593c0,0.297,0.062,0.519,0.185,0.667c0.123,0.148,0.333,0.222,0.629,0.222c0.146,0,0.346-0.027,0.602-0.082v1.019
		C96.228,95.878,95.904,95.923,95.59,95.923 M88.762,95.923c-0.592,0-1.117-0.105-1.572-0.314c-0.456-0.21-0.812-0.502-1.07-0.878
		c-0.258-0.376-0.386-0.783-0.386-1.22h1.265c0.023,0.424,0.192,0.76,0.509,1.008c0.317,0.248,0.735,0.373,1.254,0.373
		c0.479,0,0.862-0.097,1.152-0.291c0.289-0.194,0.434-0.452,0.434-0.776c0-0.342-0.129-0.607-0.386-0.796
		c-0.258-0.189-0.706-0.352-1.347-0.489c-0.64-0.137-1.148-0.301-1.524-0.492c-0.376-0.191-0.654-0.419-0.834-0.684
		c-0.18-0.264-0.27-0.579-0.27-0.943c0-0.606,0.256-1.119,0.769-1.538c0.513-0.419,1.168-0.629,1.965-0.629
		c0.838,0,1.519,0.217,2.041,0.649c0.522,0.433,0.783,0.987,0.783,1.661h-1.271c0-0.346-0.147-0.645-0.441-0.895
		c-0.294-0.251-0.664-0.376-1.111-0.376c-0.46,0-0.82,0.1-1.08,0.301c-0.26,0.201-0.39,0.463-0.39,0.786
		c0,0.305,0.121,0.536,0.362,0.69c0.242,0.155,0.678,0.303,1.309,0.444c0.631,0.141,1.143,0.31,1.535,0.506
		c0.392,0.196,0.682,0.432,0.872,0.708c0.189,0.276,0.284,0.612,0.284,1.008c0,0.661-0.264,1.191-0.793,1.589
		C90.291,95.724,89.605,95.923,88.762,95.923 M72.317,95.923c-0.788,0-1.389-0.229-1.801-0.687
		c-0.412-0.458-0.621-1.136-0.625-2.034V88.39h1.265v4.778c0,1.121,0.456,1.682,1.367,1.682c0.966,0,1.609-0.36,1.928-1.08v-5.38
		h1.265v7.396h-1.203l-0.027-0.731C73.992,95.634,73.269,95.923,72.317,95.923 M64.926,95.923c-1.003,0-1.815-0.349-2.437-1.046
		c-0.622-0.697-0.933-1.62-0.933-2.769V92.02c0-0.725,0.142-1.376,0.427-1.955c0.285-0.579,0.681-1.025,1.189-1.34
		c0.508-0.314,1.088-0.472,1.74-0.472c1.007,0,1.822,0.349,2.444,1.046c0.622,0.697,0.933,1.625,0.933,2.782v0.089
		c0,0.72-0.138,1.366-0.414,1.938c-0.276,0.572-0.67,1.017-1.183,1.336C66.181,95.763,65.592,95.923,64.926,95.923 M64.913,89.292
		c-0.624,0-1.128,0.248-1.511,0.745c-0.383,0.497-0.574,1.208-0.574,2.133c0,0.82,0.19,1.479,0.571,1.976
		c0.38,0.497,0.89,0.745,1.528,0.745c0.643,0,1.153-0.252,1.531-0.755c0.378-0.503,0.567-1.209,0.567-2.116
		c0-0.811-0.193-1.469-0.578-1.972C66.062,89.544,65.551,89.292,64.913,89.292 M22.614,95.923c-0.788,0-1.389-0.229-1.801-0.687
		c-0.412-0.458-0.621-1.136-0.625-2.034V88.39h1.265v4.778c0,1.121,0.456,1.682,1.367,1.682c0.966,0,1.609-0.36,1.928-1.08v-5.38
		h1.265v7.396h-1.203l-0.027-0.731C24.288,95.634,23.566,95.923,22.614,95.923 M14.87,95.923c-0.857,0-1.555-0.351-2.095-1.053
		c-0.54-0.702-0.81-1.618-0.81-2.748v-0.096c0-1.135,0.269-2.047,0.807-2.738c0.538-0.69,1.242-1.036,2.112-1.036
		c0.866,0,1.552,0.296,2.058,0.889v-3.855h1.265v10.5h-1.162l-0.062-0.793C16.477,95.613,15.772,95.923,14.87,95.923 M15.198,89.326
		c-0.62,0-1.103,0.239-1.449,0.718c-0.346,0.479-0.52,1.187-0.52,2.126c0,0.839,0.173,1.495,0.52,1.969
		c0.346,0.474,0.825,0.711,1.436,0.711c0.802,0,1.388-0.36,1.757-1.08v-3.397C16.563,89.675,15.982,89.326,15.198,89.326
		 M132.456,95.861c-0.26,0-0.455-0.071-0.584-0.212c-0.13-0.141-0.195-0.317-0.195-0.526c0-0.219,0.065-0.401,0.195-0.547
		c0.13-0.146,0.325-0.219,0.584-0.219c0.26,0,0.457,0.073,0.591,0.219c0.134,0.146,0.202,0.328,0.202,0.547
		c0,0.21-0.067,0.385-0.202,0.526C132.913,95.791,132.716,95.861,132.456,95.861 M115.005,95.786h-1.265V88.39h1.265V95.786
		 M78.963,95.786h-1.265V88.39h1.23l0.021,0.854c0.415-0.661,1.003-0.991,1.764-0.991c0.246,0,0.433,0.032,0.561,0.096v1.176
		c-0.191-0.032-0.399-0.048-0.622-0.048c-0.829,0-1.392,0.353-1.688,1.06V95.786 M42.009,95.786h-1.265v-4.895
		c-0.005-0.533-0.126-0.927-0.366-1.183c-0.239-0.255-0.612-0.383-1.118-0.383c-0.41,0-0.77,0.109-1.08,0.328
		c-0.31,0.219-0.551,0.506-0.725,0.861v5.27h-1.265V88.39h1.196l0.041,0.93c0.565-0.711,1.303-1.066,2.215-1.066
		c1.563,0,2.352,0.882,2.365,2.646V95.786 M34.151,95.786h-1.265V88.39h1.265V95.786 M29.26,95.786h-1.265V88.39h1.231l0.02,0.854
		c0.415-0.661,1.003-0.991,1.764-0.991c0.246,0,0.433,0.032,0.561,0.096v1.176c-0.191-0.032-0.399-0.048-0.622-0.048
		c-0.829,0-1.392,0.353-1.688,1.06V95.786 M114.383,87.146c-0.246,0-0.432-0.068-0.557-0.205c-0.125-0.137-0.188-0.308-0.188-0.513
		c0-0.205,0.063-0.378,0.188-0.52c0.125-0.141,0.311-0.212,0.557-0.212c0.246,0,0.433,0.071,0.561,0.212
		c0.128,0.141,0.191,0.314,0.191,0.52c0,0.205-0.064,0.376-0.191,0.513C114.816,87.077,114.629,87.146,114.383,87.146
		 M33.529,87.146c-0.246,0-0.432-0.068-0.557-0.205c-0.125-0.137-0.188-0.308-0.188-0.513c0-0.205,0.063-0.378,0.188-0.52
		c0.125-0.141,0.311-0.212,0.557-0.212c0.246,0,0.433,0.071,0.561,0.212c0.128,0.141,0.191,0.314,0.191,0.52
		c0,0.205-0.064,0.376-0.191,0.513C33.962,87.077,33.775,87.146,33.529,87.146"/>
	<path fill="#0080FF" d="M17.45,129.079c-0.109,0.703-0.331,1.196-0.665,1.479c-0.334,0.283-0.814,0.425-1.438,0.425
		c-0.695,0-1.236-0.274-1.623-0.821s-0.58-1.284-0.58-2.211v-0.827c0-0.981,0.204-1.738,0.612-2.269
		c0.408-0.532,0.972-0.798,1.69-0.798c0.586,0,1.042,0.153,1.368,0.458c0.326,0.306,0.538,0.799,0.636,1.481h1.131
		c-0.09-0.894-0.408-1.595-0.955-2.101c-0.547-0.506-1.273-0.759-2.18-0.759c-0.684,0-1.285,0.161-1.805,0.483
		c-0.52,0.322-0.921,0.784-1.204,1.386c-0.283,0.602-0.425,1.299-0.425,2.092v0.82c0,1.211,0.304,2.178,0.911,2.9
		c0.607,0.723,1.415,1.084,2.423,1.084c0.93,0,1.675-0.245,2.235-0.735c0.56-0.49,0.894-1.187,0.999-2.089H17.45z M21.171,122.786
		h-1.084v9h1.084V122.786z M24.057,125.446h-1.084v6.34h1.084V125.446z M23.046,124.204c0.107,0.117,0.267,0.176,0.478,0.176
		s0.371-0.059,0.48-0.176c0.109-0.117,0.164-0.264,0.164-0.439s-0.055-0.324-0.164-0.445c-0.109-0.121-0.27-0.182-0.48-0.182
		s-0.37,0.061-0.478,0.182c-0.107,0.121-0.161,0.27-0.161,0.445S22.938,124.087,23.046,124.204z M27.045,130.427
		c-0.301-0.395-0.451-0.957-0.451-1.688v-0.205c0-0.75,0.151-1.323,0.454-1.72c0.303-0.396,0.729-0.595,1.28-0.595
		c0.41,0,0.755,0.132,1.034,0.396c0.279,0.264,0.435,0.601,0.466,1.011h1.025c-0.031-0.68-0.282-1.232-0.753-1.658
		c-0.471-0.426-1.062-0.639-1.772-0.639c-0.578,0-1.079,0.133-1.503,0.398c-0.424,0.266-0.749,0.639-0.976,1.119
		c-0.227,0.48-0.34,1.029-0.34,1.646v0.182c0,1,0.255,1.788,0.765,2.364c0.51,0.576,1.196,0.864,2.06,0.864
		c0.43,0,0.837-0.098,1.222-0.293c0.385-0.195,0.692-0.457,0.923-0.785c0.23-0.328,0.355-0.674,0.375-1.037h-1.025
		c-0.031,0.352-0.191,0.645-0.48,0.879c-0.289,0.234-0.627,0.352-1.014,0.352C27.775,131.019,27.346,130.821,27.045,130.427z
		 M36.155,131.786h1.271l-2.754-3.691l2.467-2.648h-1.318l-1.975,2.086l-0.58,0.697v-5.443h-1.084v9h1.084v-2.227l0.68-0.709
		L36.155,131.786z M41.736,123.911v1.535h-1.154v0.838h1.154v3.932c0,0.539,0.123,0.955,0.369,1.248s0.611,0.439,1.096,0.439
		c0.27,0,0.547-0.039,0.832-0.116v-0.874c-0.219,0.047-0.391,0.07-0.516,0.07c-0.254,0-0.434-0.064-0.539-0.191
		s-0.158-0.318-0.158-0.572v-3.937h1.184v-0.838H42.82v-1.535H41.736z M44.818,128.634c0,0.984,0.267,1.775,0.8,2.373
		s1.229,0.896,2.089,0.896c0.57,0,1.075-0.137,1.515-0.41c0.439-0.273,0.777-0.655,1.014-1.146c0.236-0.49,0.354-1.044,0.354-1.661
		v-0.076c0-0.992-0.267-1.787-0.8-2.385s-1.231-0.896-2.095-0.896c-0.559,0-1.056,0.135-1.491,0.404
		c-0.436,0.27-0.775,0.652-1.02,1.148c-0.244,0.496-0.366,1.055-0.366,1.676V128.634z M46.4,126.858
		c0.328-0.426,0.76-0.639,1.295-0.639c0.547,0,0.985,0.216,1.315,0.647c0.33,0.432,0.495,0.995,0.495,1.69
		c0,0.777-0.162,1.382-0.486,1.813c-0.324,0.432-0.762,0.647-1.312,0.647c-0.547,0-0.983-0.213-1.31-0.639
		c-0.326-0.426-0.489-0.99-0.489-1.693C45.908,127.894,46.072,127.284,46.4,126.858z M56.217,122.786h-1.084v9h1.084V122.786z
		 M63.005,130.679l-0.662-0.516c-0.199,0.258-0.432,0.465-0.697,0.621c-0.266,0.156-0.59,0.234-0.973,0.234
		c-0.539,0-0.983-0.192-1.333-0.577c-0.35-0.385-0.532-0.89-0.548-1.515h4.295v-0.451c0-1.012-0.229-1.789-0.686-2.332
		c-0.457-0.543-1.098-0.814-1.922-0.814c-0.504,0-0.972,0.14-1.403,0.419c-0.432,0.279-0.768,0.666-1.008,1.16
		c-0.24,0.494-0.36,1.056-0.36,1.685v0.199c0,0.945,0.27,1.7,0.809,2.265c0.539,0.565,1.238,0.847,2.098,0.847
		C61.677,131.903,62.474,131.495,63.005,130.679z M61.558,126.674c0.266,0.303,0.414,0.729,0.445,1.28v0.082h-3.176
		c0.07-0.574,0.254-1.02,0.551-1.339c0.297-0.318,0.664-0.478,1.102-0.478C60.933,126.22,61.292,126.371,61.558,126.674z
		 M69.393,131.786v-0.094c-0.148-0.344-0.223-0.807-0.223-1.389v-2.918c-0.016-0.641-0.231-1.143-0.645-1.509
		c-0.414-0.365-0.986-0.548-1.717-0.548c-0.461,0-0.884,0.086-1.269,0.258c-0.385,0.172-0.689,0.405-0.914,0.7
		c-0.225,0.295-0.337,0.601-0.337,0.917h1.09c0-0.277,0.131-0.514,0.393-0.709c0.262-0.195,0.586-0.293,0.973-0.293
		c0.441,0,0.775,0.112,1.002,0.337c0.227,0.225,0.34,0.526,0.34,0.905v0.498h-1.055c-0.91,0-1.616,0.183-2.118,0.548
		c-0.502,0.365-0.753,0.878-0.753,1.538c0,0.543,0.2,0.991,0.601,1.345c0.4,0.354,0.913,0.53,1.538,0.53
		c0.699,0,1.301-0.262,1.805-0.785c0.039,0.32,0.09,0.543,0.152,0.668H69.393z M65.585,130.673c-0.227-0.191-0.34-0.457-0.34-0.797
		c0-0.777,0.664-1.166,1.992-1.166h0.85v1.301c-0.137,0.281-0.357,0.51-0.662,0.686s-0.627,0.264-0.967,0.264
		C66.102,130.96,65.811,130.864,65.585,130.673z M73.965,125.411c-0.109-0.055-0.27-0.082-0.48-0.082
		c-0.652,0-1.156,0.283-1.512,0.85l-0.018-0.732h-1.055v6.34h1.084v-4.5c0.254-0.605,0.736-0.908,1.447-0.908
		c0.191,0,0.369,0.014,0.533,0.041V125.411z M75.058,125.446v6.34h1.084v-4.518c0.148-0.305,0.355-0.551,0.621-0.738
		c0.266-0.188,0.574-0.281,0.926-0.281c0.434,0,0.753,0.109,0.958,0.328c0.205,0.219,0.31,0.557,0.313,1.014v4.195h1.084v-4.189
		c-0.012-1.512-0.688-2.268-2.027-2.268c-0.781,0-1.414,0.305-1.898,0.914l-0.035-0.797H75.058z M89.82,131.786v-0.094
		c-0.148-0.344-0.223-0.807-0.223-1.389v-2.918c-0.016-0.641-0.231-1.143-0.645-1.509c-0.414-0.365-0.986-0.548-1.717-0.548
		c-0.461,0-0.884,0.086-1.269,0.258c-0.385,0.172-0.689,0.405-0.914,0.7c-0.225,0.295-0.337,0.601-0.337,0.917h1.09
		c0-0.277,0.131-0.514,0.393-0.709c0.262-0.195,0.586-0.293,0.973-0.293c0.441,0,0.775,0.112,1.002,0.337
		c0.227,0.225,0.34,0.526,0.34,0.905v0.498h-1.055c-0.91,0-1.616,0.183-2.118,0.548c-0.502,0.365-0.753,0.878-0.753,1.538
		c0,0.543,0.2,0.991,0.601,1.345c0.4,0.354,0.913,0.53,1.538,0.53c0.699,0,1.301-0.262,1.805-0.785
		c0.039,0.32,0.09,0.543,0.152,0.668H89.82z M86.011,130.673c-0.227-0.191-0.34-0.457-0.34-0.797c0-0.777,0.664-1.166,1.992-1.166
		h0.85v1.301c-0.137,0.281-0.357,0.51-0.662,0.686s-0.627,0.264-0.967,0.264C86.529,130.96,86.238,130.864,86.011,130.673z
		 M96.695,128.593c0-1.012-0.22-1.809-0.659-2.391c-0.439-0.582-1.044-0.873-1.813-0.873c-0.77,0-1.373,0.272-1.811,0.814v-3.357
		h-1.084v9h0.996l0.053-0.732c0.437,0.566,1.057,0.85,1.857,0.85c0.75,0,1.348-0.294,1.793-0.882
		c0.445-0.588,0.668-1.366,0.668-2.335V128.593z M95.177,130.38c-0.289,0.402-0.693,0.604-1.213,0.604
		c-0.703,0-1.221-0.332-1.553-0.996v-2.742c0.312-0.664,0.826-0.996,1.541-0.996c0.535,0,0.945,0.201,1.23,0.604
		c0.285,0.402,0.428,0.973,0.428,1.711C95.611,129.372,95.466,129.978,95.177,130.38z M97.855,128.634
		c0,0.984,0.267,1.775,0.8,2.373s1.229,0.896,2.089,0.896c0.57,0,1.075-0.137,1.515-0.41c0.439-0.273,0.777-0.655,1.014-1.146
		c0.236-0.49,0.354-1.044,0.354-1.661v-0.076c0-0.992-0.267-1.787-0.8-2.385s-1.231-0.896-2.095-0.896
		c-0.559,0-1.056,0.135-1.491,0.404c-0.436,0.27-0.775,0.652-1.02,1.148c-0.244,0.496-0.366,1.055-0.366,1.676V128.634z
		 M99.437,126.858c0.328-0.426,0.76-0.639,1.295-0.639c0.547,0,0.985,0.216,1.315,0.647c0.33,0.432,0.495,0.995,0.495,1.69
		c0,0.777-0.162,1.382-0.486,1.813c-0.324,0.432-0.762,0.647-1.312,0.647c-0.547,0-0.983-0.213-1.31-0.639
		c-0.326-0.426-0.489-0.99-0.489-1.693C98.945,127.894,99.109,127.284,99.437,126.858z M108.969,131.786H110v-6.34h-1.084v4.611
		c-0.273,0.617-0.824,0.926-1.652,0.926c-0.781,0-1.172-0.48-1.172-1.441v-4.096h-1.084v4.125c0.004,0.77,0.183,1.351,0.536,1.743
		c0.353,0.393,0.868,0.589,1.544,0.589c0.816,0,1.436-0.248,1.857-0.744L108.969,131.786z M112.189,123.911v1.535h-1.154v0.838
		h1.154v3.932c0,0.539,0.123,0.955,0.369,1.248s0.611,0.439,1.096,0.439c0.27,0,0.547-0.039,0.832-0.116v-0.874
		c-0.219,0.047-0.391,0.07-0.516,0.07c-0.254,0-0.434-0.064-0.539-0.191s-0.158-0.318-0.158-0.572v-3.937h1.184v-0.838h-1.184
		v-1.535H112.189z M124.508,131.786h1.154l-3.264-8.531h-0.984l-3.258,8.531h1.16l0.803-2.232h3.574L124.508,131.786z
		 M121.907,124.644l1.453,3.99h-2.9L121.907,124.644z M129.355,131.786c0.766-0.008,1.436-0.174,2.013-0.498
		c0.576-0.324,1.02-0.789,1.33-1.395c0.311-0.605,0.466-1.31,0.466-2.115v-0.545c-0.004-0.785-0.161-1.48-0.472-2.086
		c-0.311-0.605-0.751-1.072-1.321-1.4c-0.57-0.328-1.227-0.492-1.969-0.492h-2.408v8.531H129.355z M129.431,124.175
		c0.836,0.008,1.481,0.281,1.937,0.818c0.455,0.538,0.683,1.291,0.683,2.261v0.499c0,0.997-0.241,1.765-0.724,2.305
		c-0.482,0.54-1.157,0.809-2.024,0.809h-1.184v-6.691H129.431z M140.172,131.786h1.154l-3.264-8.531h-0.984l-3.258,8.531h1.16
		l0.803-2.232h3.574L140.172,131.786z M137.57,124.644l1.453,3.99h-2.9L137.57,124.644z M146.058,123.255h-1.125l2.062,8.531h1.025
		l1.822-6.217l0.135-0.65l0.135,0.65l1.758,6.217h1.025l2.068-8.531h-1.131l-1.324,5.836l-0.182,1.148l-0.234-1.031l-1.646-5.953
		h-0.949l-1.688,5.953l-0.24,1.014l-0.164-1.125L146.058,123.255z M157.505,123.255h-1.125v8.531h1.125V123.255z M160.739,123.255
		h-1.131v8.531h5.174v-0.92h-4.043V123.255z M168.698,128.634c0,0.984,0.267,1.775,0.8,2.373s1.229,0.896,2.089,0.896
		c0.57,0,1.075-0.137,1.515-0.41c0.439-0.273,0.777-0.655,1.014-1.146c0.236-0.49,0.354-1.044,0.354-1.661v-0.076
		c0-0.992-0.267-1.787-0.8-2.385s-1.231-0.896-2.095-0.896c-0.559,0-1.056,0.135-1.491,0.404c-0.436,0.27-0.775,0.652-1.02,1.148
		c-0.244,0.496-0.366,1.055-0.366,1.676V128.634z M170.28,126.858c0.328-0.426,0.76-0.639,1.295-0.639
		c0.547,0,0.985,0.216,1.315,0.647c0.33,0.432,0.495,0.995,0.495,1.69c0,0.777-0.162,1.382-0.486,1.813
		c-0.324,0.432-0.762,0.647-1.312,0.647c-0.547,0-0.983-0.213-1.31-0.639c-0.326-0.426-0.489-0.99-0.489-1.693
		C169.788,127.894,169.952,127.284,170.28,126.858z M181.237,128.587c0-1.023-0.222-1.822-0.665-2.396
		c-0.443-0.574-1.046-0.861-1.808-0.861c-0.785,0-1.398,0.273-1.84,0.82l-0.053-0.703h-0.99v8.777h1.084v-3.053
		c0.441,0.488,1.047,0.732,1.816,0.732c0.754,0,1.352-0.295,1.793-0.885c0.441-0.59,0.662-1.367,0.662-2.332V128.587z
		 M179.694,130.4c-0.307,0.412-0.72,0.618-1.239,0.618c-0.668,0-1.164-0.289-1.488-0.867v-3.029c0.328-0.582,0.82-0.873,1.477-0.873
		c0.531,0,0.949,0.207,1.254,0.621c0.305,0.414,0.457,0.979,0.457,1.693C180.154,129.376,180,129.988,179.694,130.4z
		 M188.048,128.587c0-1.023-0.222-1.822-0.665-2.396c-0.443-0.574-1.046-0.861-1.808-0.861c-0.785,0-1.398,0.273-1.84,0.82
		l-0.053-0.703h-0.99v8.777h1.084v-3.053c0.441,0.488,1.047,0.732,1.816,0.732c0.754,0,1.352-0.295,1.793-0.885
		c0.441-0.59,0.662-1.367,0.662-2.332V128.587z M186.504,130.4c-0.307,0.412-0.72,0.618-1.239,0.618
		c-0.668,0-1.164-0.289-1.488-0.867v-3.029c0.328-0.582,0.82-0.873,1.477-0.873c0.531,0,0.949,0.207,1.254,0.621
		c0.305,0.414,0.457,0.979,0.457,1.693C186.964,129.376,186.811,129.988,186.504,130.4z M189.213,128.634
		c0,0.984,0.267,1.775,0.8,2.373s1.229,0.896,2.089,0.896c0.57,0,1.075-0.137,1.515-0.41c0.439-0.273,0.777-0.655,1.014-1.146
		c0.236-0.49,0.354-1.044,0.354-1.661v-0.076c0-0.992-0.267-1.787-0.8-2.385s-1.231-0.896-2.095-0.896
		c-0.559,0-1.056,0.135-1.491,0.404c-0.436,0.27-0.775,0.652-1.02,1.148c-0.244,0.496-0.366,1.055-0.366,1.676V128.634z
		 M190.795,126.858c0.328-0.426,0.76-0.639,1.295-0.639c0.547,0,0.985,0.216,1.315,0.647c0.33,0.432,0.495,0.995,0.495,1.69
		c0,0.777-0.162,1.382-0.486,1.813c-0.324,0.432-0.762,0.647-1.312,0.647c-0.547,0-0.983-0.213-1.31-0.639
		c-0.326-0.426-0.489-0.99-0.489-1.693C190.303,127.894,190.467,127.284,190.795,126.858z M199.461,125.411
		c-0.109-0.055-0.27-0.082-0.48-0.082c-0.652,0-1.156,0.283-1.512,0.85l-0.018-0.732h-1.055v6.34h1.084v-4.5
		c0.254-0.605,0.736-0.908,1.447-0.908c0.191,0,0.369,0.014,0.533,0.041V125.411z M201.324,123.911v1.535h-1.154v0.838h1.154v3.932
		c0,0.539,0.123,0.955,0.369,1.248s0.611,0.439,1.096,0.439c0.27,0,0.547-0.039,0.832-0.116v-0.874
		c-0.219,0.047-0.391,0.07-0.516,0.07c-0.254,0-0.434-0.064-0.539-0.191s-0.158-0.318-0.158-0.572v-3.937h1.184v-0.838h-1.184
		v-1.535H201.324z M208.769,131.786h1.031v-6.34h-1.084v4.611c-0.273,0.617-0.824,0.926-1.652,0.926
		c-0.781,0-1.172-0.48-1.172-1.441v-4.096h-1.084v4.125c0.004,0.77,0.183,1.351,0.536,1.743c0.353,0.393,0.868,0.589,1.544,0.589
		c0.816,0,1.436-0.248,1.857-0.744L208.769,131.786z M211.509,125.446v6.34h1.084v-4.518c0.148-0.305,0.355-0.551,0.621-0.738
		c0.266-0.188,0.574-0.281,0.926-0.281c0.434,0,0.753,0.109,0.958,0.328c0.205,0.219,0.31,0.557,0.313,1.014v4.195h1.084v-4.189
		c-0.012-1.512-0.688-2.268-2.027-2.268c-0.781,0-1.414,0.305-1.898,0.914l-0.035-0.797H211.509z M219.302,125.446h-1.084v6.34
		h1.084V125.446z M218.291,124.204c0.107,0.117,0.267,0.176,0.478,0.176s0.371-0.059,0.48-0.176
		c0.109-0.117,0.164-0.264,0.164-0.439s-0.055-0.324-0.164-0.445c-0.109-0.121-0.27-0.182-0.48-0.182s-0.37,0.061-0.478,0.182
		c-0.107,0.121-0.161,0.27-0.161,0.445S218.183,124.087,218.291,124.204z M221.534,123.911v1.535h-1.154v0.838h1.154v3.932
		c0,0.539,0.123,0.955,0.369,1.248s0.611,0.439,1.096,0.439c0.27,0,0.547-0.039,0.832-0.116v-0.874
		c-0.219,0.047-0.391,0.07-0.516,0.07c-0.254,0-0.434-0.064-0.539-0.191s-0.158-0.318-0.158-0.572v-3.937h1.184v-0.838h-1.184
		v-1.535H221.534z M226.171,125.446h-1.084v6.34h1.084V125.446z M225.16,124.204c0.107,0.117,0.267,0.176,0.478,0.176
		s0.371-0.059,0.48-0.176c0.109-0.117,0.164-0.264,0.164-0.439s-0.055-0.324-0.164-0.445c-0.109-0.121-0.27-0.182-0.48-0.182
		s-0.37,0.061-0.478,0.182c-0.107,0.121-0.161,0.27-0.161,0.445S225.053,124.087,225.16,124.204z M232.921,130.679l-0.662-0.516
		c-0.199,0.258-0.432,0.465-0.697,0.621c-0.266,0.156-0.59,0.234-0.973,0.234c-0.539,0-0.983-0.192-1.333-0.577
		c-0.35-0.385-0.532-0.89-0.548-1.515h4.295v-0.451c0-1.012-0.229-1.789-0.686-2.332c-0.457-0.543-1.098-0.814-1.922-0.814
		c-0.504,0-0.972,0.14-1.403,0.419c-0.432,0.279-0.768,0.666-1.008,1.16c-0.24,0.494-0.36,1.056-0.36,1.685v0.199
		c0,0.945,0.27,1.7,0.809,2.265c0.539,0.565,1.238,0.847,2.098,0.847C231.592,131.903,232.389,131.495,232.921,130.679z
		 M231.473,126.674c0.266,0.303,0.414,0.729,0.445,1.28v0.082h-3.176c0.07-0.574,0.254-1.02,0.551-1.339
		c0.297-0.318,0.664-0.478,1.102-0.478C230.848,126.22,231.208,126.371,231.473,126.674z M237.59,130.77
		c-0.248,0.166-0.577,0.249-0.987,0.249c-0.445,0-0.804-0.106-1.075-0.319c-0.272-0.213-0.417-0.501-0.437-0.864h-1.084
		c0,0.375,0.11,0.724,0.331,1.046c0.221,0.322,0.526,0.573,0.917,0.753c0.391,0.18,0.84,0.27,1.348,0.27
		c0.723,0,1.31-0.171,1.764-0.513c0.453-0.342,0.68-0.796,0.68-1.362c0-0.34-0.081-0.628-0.243-0.864
		c-0.162-0.236-0.411-0.438-0.747-0.606c-0.336-0.168-0.774-0.312-1.315-0.434c-0.541-0.121-0.915-0.248-1.122-0.381
		c-0.207-0.133-0.311-0.33-0.311-0.592c0-0.277,0.111-0.502,0.334-0.674c0.223-0.172,0.531-0.258,0.926-0.258
		c0.383,0,0.7,0.107,0.952,0.322c0.252,0.215,0.378,0.471,0.378,0.768h1.09c0-0.578-0.224-1.053-0.671-1.424
		c-0.447-0.371-1.03-0.557-1.749-0.557c-0.684,0-1.245,0.18-1.685,0.539c-0.439,0.359-0.659,0.799-0.659,1.318
		c0,0.313,0.077,0.582,0.231,0.809c0.154,0.227,0.393,0.422,0.715,0.586s0.758,0.305,1.307,0.422
		c0.549,0.117,0.934,0.257,1.154,0.419c0.221,0.162,0.331,0.39,0.331,0.683C237.962,130.382,237.838,130.604,237.59,130.77z"/>
	<path fill="#0080FF" d="M17.45,161.079c-0.109,0.703-0.331,1.196-0.665,1.479c-0.334,0.283-0.814,0.425-1.438,0.425
		c-0.695,0-1.236-0.274-1.623-0.821s-0.58-1.284-0.58-2.211v-0.827c0-0.981,0.204-1.738,0.612-2.269
		c0.408-0.532,0.972-0.798,1.69-0.798c0.586,0,1.042,0.153,1.368,0.458c0.326,0.306,0.538,0.799,0.636,1.481h1.131
		c-0.09-0.894-0.408-1.595-0.955-2.101c-0.547-0.506-1.273-0.759-2.18-0.759c-0.684,0-1.285,0.161-1.805,0.483
		c-0.52,0.322-0.921,0.784-1.204,1.386c-0.283,0.602-0.425,1.299-0.425,2.092v0.82c0,1.211,0.304,2.178,0.911,2.9
		c0.607,0.723,1.415,1.084,2.423,1.084c0.93,0,1.675-0.245,2.235-0.735c0.56-0.49,0.894-1.187,0.999-2.089H17.45z M21.171,154.786
		h-1.084v9h1.084V154.786z M24.057,157.446h-1.084v6.34h1.084V157.446z M23.046,156.204c0.107,0.117,0.267,0.176,0.478,0.176
		s0.371-0.059,0.48-0.176c0.109-0.117,0.164-0.264,0.164-0.439s-0.055-0.324-0.164-0.445c-0.109-0.121-0.27-0.182-0.48-0.182
		s-0.37,0.061-0.478,0.182c-0.107,0.121-0.161,0.27-0.161,0.445S22.938,156.087,23.046,156.204z M27.045,162.427
		c-0.301-0.395-0.451-0.957-0.451-1.688v-0.205c0-0.75,0.151-1.323,0.454-1.72c0.303-0.396,0.729-0.595,1.28-0.595
		c0.41,0,0.755,0.132,1.034,0.396c0.279,0.264,0.435,0.601,0.466,1.011h1.025c-0.031-0.68-0.282-1.232-0.753-1.658
		c-0.471-0.426-1.062-0.639-1.772-0.639c-0.578,0-1.079,0.133-1.503,0.398c-0.424,0.266-0.749,0.639-0.976,1.119
		c-0.227,0.48-0.34,1.029-0.34,1.646v0.182c0,1,0.255,1.788,0.765,2.364c0.51,0.576,1.196,0.864,2.06,0.864
		c0.43,0,0.837-0.098,1.222-0.293c0.385-0.195,0.692-0.457,0.923-0.785c0.23-0.328,0.355-0.674,0.375-1.037h-1.025
		c-0.031,0.352-0.191,0.645-0.48,0.879c-0.289,0.234-0.627,0.352-1.014,0.352C27.775,163.019,27.346,162.821,27.045,162.427z
		 M36.155,163.786h1.271l-2.754-3.691l2.467-2.648h-1.318l-1.975,2.086l-0.58,0.697v-5.443h-1.084v9h1.084v-2.227l0.68-0.709
		L36.155,163.786z M41.736,155.911v1.535h-1.154v0.838h1.154v3.932c0,0.539,0.123,0.955,0.369,1.248s0.611,0.439,1.096,0.439
		c0.27,0,0.547-0.039,0.832-0.116v-0.874c-0.219,0.047-0.391,0.07-0.516,0.07c-0.254,0-0.434-0.064-0.539-0.191
		s-0.158-0.318-0.158-0.572v-3.937h1.184v-0.838H42.82v-1.535H41.736z M44.818,160.634c0,0.984,0.267,1.775,0.8,2.373
		s1.229,0.896,2.089,0.896c0.57,0,1.075-0.137,1.515-0.41c0.439-0.273,0.777-0.655,1.014-1.146c0.236-0.49,0.354-1.044,0.354-1.661
		v-0.076c0-0.992-0.267-1.787-0.8-2.385s-1.231-0.896-2.095-0.896c-0.559,0-1.056,0.135-1.491,0.404
		c-0.436,0.27-0.775,0.652-1.02,1.148c-0.244,0.496-0.366,1.055-0.366,1.676V160.634z M46.4,158.858
		c0.328-0.426,0.76-0.639,1.295-0.639c0.547,0,0.985,0.216,1.315,0.647c0.33,0.432,0.495,0.995,0.495,1.69
		c0,0.777-0.162,1.382-0.486,1.813c-0.324,0.432-0.762,0.647-1.312,0.647c-0.547,0-0.983-0.213-1.31-0.639
		c-0.326-0.426-0.489-0.99-0.489-1.693C45.908,159.894,46.072,159.284,46.4,158.858z M56.217,154.786h-1.084v9h1.084V154.786z
		 M63.005,162.679l-0.662-0.516c-0.199,0.258-0.432,0.465-0.697,0.621c-0.266,0.156-0.59,0.234-0.973,0.234
		c-0.539,0-0.983-0.192-1.333-0.577c-0.35-0.385-0.532-0.89-0.548-1.515h4.295v-0.451c0-1.012-0.229-1.789-0.686-2.332
		c-0.457-0.543-1.098-0.814-1.922-0.814c-0.504,0-0.972,0.14-1.403,0.419c-0.432,0.279-0.768,0.666-1.008,1.16
		c-0.24,0.494-0.36,1.056-0.36,1.685v0.199c0,0.945,0.27,1.7,0.809,2.265c0.539,0.565,1.238,0.847,2.098,0.847
		C61.677,163.903,62.474,163.495,63.005,162.679z M61.558,158.674c0.266,0.303,0.414,0.729,0.445,1.28v0.082h-3.176
		c0.07-0.574,0.254-1.02,0.551-1.339c0.297-0.318,0.664-0.478,1.102-0.478C60.933,158.22,61.292,158.371,61.558,158.674z
		 M69.393,163.786v-0.094c-0.148-0.344-0.223-0.807-0.223-1.389v-2.918c-0.016-0.641-0.231-1.143-0.645-1.509
		c-0.414-0.365-0.986-0.548-1.717-0.548c-0.461,0-0.884,0.086-1.269,0.258c-0.385,0.172-0.689,0.405-0.914,0.7
		c-0.225,0.295-0.337,0.601-0.337,0.917h1.09c0-0.277,0.131-0.514,0.393-0.709c0.262-0.195,0.586-0.293,0.973-0.293
		c0.441,0,0.775,0.112,1.002,0.337c0.227,0.225,0.34,0.526,0.34,0.905v0.498h-1.055c-0.91,0-1.616,0.183-2.118,0.548
		c-0.502,0.365-0.753,0.878-0.753,1.538c0,0.543,0.2,0.991,0.601,1.345c0.4,0.354,0.913,0.53,1.538,0.53
		c0.699,0,1.301-0.262,1.805-0.785c0.039,0.32,0.09,0.543,0.152,0.668H69.393z M65.585,162.673c-0.227-0.191-0.34-0.457-0.34-0.797
		c0-0.777,0.664-1.166,1.992-1.166h0.85v1.301c-0.137,0.281-0.357,0.51-0.662,0.686s-0.627,0.264-0.967,0.264
		C66.102,162.96,65.811,162.864,65.585,162.673z M73.965,157.411c-0.109-0.055-0.27-0.082-0.48-0.082
		c-0.652,0-1.156,0.283-1.512,0.85l-0.018-0.732h-1.055v6.34h1.084v-4.5c0.254-0.605,0.736-0.908,1.447-0.908
		c0.191,0,0.369,0.014,0.533,0.041V157.411z M75.058,157.446v6.34h1.084v-4.518c0.148-0.305,0.355-0.551,0.621-0.738
		c0.266-0.188,0.574-0.281,0.926-0.281c0.434,0,0.753,0.109,0.958,0.328c0.205,0.219,0.31,0.557,0.313,1.014v4.195h1.084v-4.189
		c-0.012-1.512-0.688-2.268-2.027-2.268c-0.781,0-1.414,0.305-1.898,0.914l-0.035-0.797H75.058z M89.82,163.786v-0.094
		c-0.148-0.344-0.223-0.807-0.223-1.389v-2.918c-0.016-0.641-0.231-1.143-0.645-1.509c-0.414-0.365-0.986-0.548-1.717-0.548
		c-0.461,0-0.884,0.086-1.269,0.258c-0.385,0.172-0.689,0.405-0.914,0.7c-0.225,0.295-0.337,0.601-0.337,0.917h1.09
		c0-0.277,0.131-0.514,0.393-0.709c0.262-0.195,0.586-0.293,0.973-0.293c0.441,0,0.775,0.112,1.002,0.337
		c0.227,0.225,0.34,0.526,0.34,0.905v0.498h-1.055c-0.91,0-1.616,0.183-2.118,0.548c-0.502,0.365-0.753,0.878-0.753,1.538
		c0,0.543,0.2,0.991,0.601,1.345c0.4,0.354,0.913,0.53,1.538,0.53c0.699,0,1.301-0.262,1.805-0.785
		c0.039,0.32,0.09,0.543,0.152,0.668H89.82z M86.011,162.673c-0.227-0.191-0.34-0.457-0.34-0.797c0-0.777,0.664-1.166,1.992-1.166
		h0.85v1.301c-0.137,0.281-0.357,0.51-0.662,0.686s-0.627,0.264-0.967,0.264C86.529,162.96,86.238,162.864,86.011,162.673z
		 M96.695,160.593c0-1.012-0.22-1.809-0.659-2.391c-0.439-0.582-1.044-0.873-1.813-0.873c-0.77,0-1.373,0.272-1.811,0.814v-3.357
		h-1.084v9h0.996l0.053-0.732c0.437,0.566,1.057,0.85,1.857,0.85c0.75,0,1.348-0.294,1.793-0.882
		c0.445-0.588,0.668-1.366,0.668-2.335V160.593z M95.177,162.38c-0.289,0.402-0.693,0.604-1.213,0.604
		c-0.703,0-1.221-0.332-1.553-0.996v-2.742c0.312-0.664,0.826-0.996,1.541-0.996c0.535,0,0.945,0.201,1.23,0.604
		c0.285,0.402,0.428,0.973,0.428,1.711C95.611,161.372,95.466,161.978,95.177,162.38z M97.855,160.634
		c0,0.984,0.267,1.775,0.8,2.373s1.229,0.896,2.089,0.896c0.57,0,1.075-0.137,1.515-0.41c0.439-0.273,0.777-0.655,1.014-1.146
		c0.236-0.49,0.354-1.044,0.354-1.661v-0.076c0-0.992-0.267-1.787-0.8-2.385s-1.231-0.896-2.095-0.896
		c-0.559,0-1.056,0.135-1.491,0.404c-0.436,0.27-0.775,0.652-1.02,1.148c-0.244,0.496-0.366,1.055-0.366,1.676V160.634z
		 M99.437,158.858c0.328-0.426,0.76-0.639,1.295-0.639c0.547,0,0.985,0.216,1.315,0.647c0.33,0.432,0.495,0.995,0.495,1.69
		c0,0.777-0.162,1.382-0.486,1.813c-0.324,0.432-0.762,0.647-1.312,0.647c-0.547,0-0.983-0.213-1.31-0.639
		c-0.326-0.426-0.489-0.99-0.489-1.693C98.945,159.894,99.109,159.284,99.437,158.858z M108.969,163.786H110v-6.34h-1.084v4.611
		c-0.273,0.617-0.824,0.926-1.652,0.926c-0.781,0-1.172-0.48-1.172-1.441v-4.096h-1.084v4.125c0.004,0.77,0.183,1.351,0.536,1.743
		c0.353,0.393,0.868,0.589,1.544,0.589c0.816,0,1.436-0.248,1.857-0.744L108.969,163.786z M112.189,155.911v1.535h-1.154v0.838
		h1.154v3.932c0,0.539,0.123,0.955,0.369,1.248s0.611,0.439,1.096,0.439c0.27,0,0.547-0.039,0.832-0.116v-0.874
		c-0.219,0.047-0.391,0.07-0.516,0.07c-0.254,0-0.434-0.064-0.539-0.191s-0.158-0.318-0.158-0.572v-3.937h1.184v-0.838h-1.184
		v-1.535H112.189z M118.526,160.634c0,0.984,0.267,1.775,0.8,2.373s1.229,0.896,2.089,0.896c0.57,0,1.075-0.137,1.515-0.41
		c0.439-0.273,0.777-0.655,1.014-1.146c0.236-0.49,0.354-1.044,0.354-1.661v-0.076c0-0.992-0.267-1.787-0.8-2.385
		s-1.231-0.896-2.095-0.896c-0.559,0-1.056,0.135-1.491,0.404c-0.436,0.27-0.775,0.652-1.02,1.148
		c-0.244,0.496-0.366,1.055-0.366,1.676V160.634z M120.108,158.858c0.328-0.426,0.76-0.639,1.295-0.639
		c0.547,0,0.985,0.216,1.315,0.647c0.33,0.432,0.495,0.995,0.495,1.69c0,0.777-0.162,1.382-0.486,1.813
		c-0.324,0.432-0.762,0.647-1.312,0.647c-0.547,0-0.983-0.213-1.31-0.639c-0.326-0.426-0.489-0.99-0.489-1.693
		C119.616,159.894,119.78,159.284,120.108,158.858z M126.056,155.911v1.535h-1.154v0.838h1.154v3.932
		c0,0.539,0.123,0.955,0.369,1.248s0.611,0.439,1.096,0.439c0.27,0,0.547-0.039,0.832-0.116v-0.874
		c-0.219,0.047-0.391,0.07-0.516,0.07c-0.254,0-0.434-0.064-0.539-0.191s-0.158-0.318-0.158-0.572v-3.937h1.184v-0.838h-1.184
		v-1.535H126.056z M130.646,154.786h-1.084v9h1.084v-4.518c0.148-0.305,0.355-0.551,0.621-0.738
		c0.266-0.188,0.574-0.281,0.926-0.281c0.434,0,0.753,0.109,0.958,0.328c0.205,0.219,0.31,0.557,0.313,1.014v4.195h1.084v-4.189
		c-0.012-1.512-0.688-2.268-2.027-2.268c-0.77,0-1.395,0.295-1.875,0.885V154.786z M141.25,162.679l-0.662-0.516
		c-0.199,0.258-0.432,0.465-0.697,0.621c-0.266,0.156-0.59,0.234-0.973,0.234c-0.539,0-0.983-0.192-1.333-0.577
		c-0.35-0.385-0.532-0.89-0.548-1.515h4.295v-0.451c0-1.012-0.229-1.789-0.686-2.332c-0.457-0.543-1.098-0.814-1.922-0.814
		c-0.504,0-0.972,0.14-1.403,0.419c-0.432,0.279-0.768,0.666-1.008,1.16c-0.24,0.494-0.36,1.056-0.36,1.685v0.199
		c0,0.945,0.27,1.7,0.809,2.265c0.539,0.565,1.238,0.847,2.098,0.847C139.921,163.903,140.718,163.495,141.25,162.679z
		 M139.802,158.674c0.266,0.303,0.414,0.729,0.445,1.28v0.082h-3.176c0.07-0.574,0.254-1.02,0.551-1.339
		c0.297-0.318,0.664-0.478,1.102-0.478C139.177,158.22,139.537,158.371,139.802,158.674z M145.774,157.411
		c-0.109-0.055-0.27-0.082-0.48-0.082c-0.652,0-1.156,0.283-1.512,0.85l-0.018-0.732h-1.055v6.34h1.084v-4.5
		c0.254-0.605,0.736-0.908,1.447-0.908c0.191,0,0.369,0.014,0.533,0.041V157.411z M150.523,155.255h-1.125l2.062,8.531h1.025
		l1.822-6.217l0.135-0.65l0.135,0.65l1.758,6.217h1.025l2.068-8.531h-1.131l-1.324,5.836l-0.182,1.148l-0.234-1.031l-1.646-5.953
		h-0.949l-1.688,5.953l-0.24,1.014l-0.164-1.125L150.523,155.255z M161.97,155.255h-1.125v8.531h1.125V155.255z M165.203,155.255
		h-1.131v8.531h5.174v-0.92h-4.043V155.255z M173.163,160.634c0,0.984,0.267,1.775,0.8,2.373s1.229,0.896,2.089,0.896
		c0.57,0,1.075-0.137,1.515-0.41c0.439-0.273,0.777-0.655,1.014-1.146c0.236-0.49,0.354-1.044,0.354-1.661v-0.076
		c0-0.992-0.267-1.787-0.8-2.385s-1.231-0.896-2.095-0.896c-0.559,0-1.056,0.135-1.491,0.404c-0.436,0.27-0.775,0.652-1.02,1.148
		c-0.244,0.496-0.366,1.055-0.366,1.676V160.634z M174.745,158.858c0.328-0.426,0.76-0.639,1.295-0.639
		c0.547,0,0.985,0.216,1.315,0.647c0.33,0.432,0.495,0.995,0.495,1.69c0,0.777-0.162,1.382-0.486,1.813
		c-0.324,0.432-0.762,0.647-1.312,0.647c-0.547,0-0.983-0.213-1.31-0.639c-0.326-0.426-0.489-0.99-0.489-1.693
		C174.253,159.894,174.417,159.284,174.745,158.858z M185.702,160.587c0-1.023-0.222-1.822-0.665-2.396
		c-0.443-0.574-1.046-0.861-1.808-0.861c-0.785,0-1.398,0.273-1.84,0.82l-0.053-0.703h-0.99v8.777h1.084v-3.053
		c0.441,0.488,1.047,0.732,1.816,0.732c0.754,0,1.352-0.295,1.793-0.885c0.441-0.59,0.662-1.367,0.662-2.332V160.587z
		 M184.158,162.4c-0.307,0.412-0.72,0.618-1.239,0.618c-0.668,0-1.164-0.289-1.488-0.867v-3.029c0.328-0.582,0.82-0.873,1.477-0.873
		c0.531,0,0.949,0.207,1.254,0.621c0.305,0.414,0.457,0.979,0.457,1.693C184.618,161.376,184.465,161.988,184.158,162.4z
		 M192.513,160.587c0-1.023-0.222-1.822-0.665-2.396c-0.443-0.574-1.046-0.861-1.808-0.861c-0.785,0-1.398,0.273-1.84,0.82
		l-0.053-0.703h-0.99v8.777h1.084v-3.053c0.441,0.488,1.047,0.732,1.816,0.732c0.754,0,1.352-0.295,1.793-0.885
		c0.441-0.59,0.662-1.367,0.662-2.332V160.587z M190.969,162.4c-0.307,0.412-0.72,0.618-1.239,0.618
		c-0.668,0-1.164-0.289-1.488-0.867v-3.029c0.328-0.582,0.82-0.873,1.477-0.873c0.531,0,0.949,0.207,1.254,0.621
		c0.305,0.414,0.457,0.979,0.457,1.693C191.429,161.376,191.275,161.988,190.969,162.4z M193.678,160.634
		c0,0.984,0.267,1.775,0.8,2.373s1.229,0.896,2.089,0.896c0.57,0,1.075-0.137,1.515-0.41c0.439-0.273,0.777-0.655,1.014-1.146
		c0.236-0.49,0.354-1.044,0.354-1.661v-0.076c0-0.992-0.267-1.787-0.8-2.385s-1.231-0.896-2.095-0.896
		c-0.559,0-1.056,0.135-1.491,0.404c-0.436,0.27-0.775,0.652-1.02,1.148c-0.244,0.496-0.366,1.055-0.366,1.676V160.634z
		 M195.26,158.858c0.328-0.426,0.76-0.639,1.295-0.639c0.547,0,0.985,0.216,1.315,0.647c0.33,0.432,0.495,0.995,0.495,1.69
		c0,0.777-0.162,1.382-0.486,1.813c-0.324,0.432-0.762,0.647-1.312,0.647c-0.547,0-0.983-0.213-1.31-0.639
		c-0.326-0.426-0.489-0.99-0.489-1.693C194.768,159.894,194.932,159.284,195.26,158.858z M203.926,157.411
		c-0.109-0.055-0.27-0.082-0.48-0.082c-0.652,0-1.156,0.283-1.512,0.85l-0.018-0.732h-1.055v6.34h1.084v-4.5
		c0.254-0.605,0.736-0.908,1.447-0.908c0.191,0,0.369,0.014,0.533,0.041V157.411z M205.789,155.911v1.535h-1.154v0.838h1.154v3.932
		c0,0.539,0.123,0.955,0.369,1.248s0.611,0.439,1.096,0.439c0.27,0,0.547-0.039,0.832-0.116v-0.874
		c-0.219,0.047-0.391,0.07-0.516,0.07c-0.254,0-0.434-0.064-0.539-0.191s-0.158-0.318-0.158-0.572v-3.937h1.184v-0.838h-1.184
		v-1.535H205.789z M213.233,163.786h1.031v-6.34h-1.084v4.611c-0.273,0.617-0.824,0.926-1.652,0.926
		c-0.781,0-1.172-0.48-1.172-1.441v-4.096h-1.084v4.125c0.004,0.77,0.183,1.351,0.536,1.743c0.353,0.393,0.868,0.589,1.544,0.589
		c0.816,0,1.436-0.248,1.857-0.744L213.233,163.786z M215.974,157.446v6.34h1.084v-4.518c0.148-0.305,0.355-0.551,0.621-0.738
		c0.266-0.188,0.574-0.281,0.926-0.281c0.434,0,0.753,0.109,0.958,0.328c0.205,0.219,0.31,0.557,0.313,1.014v4.195h1.084v-4.189
		c-0.012-1.512-0.688-2.268-2.027-2.268c-0.781,0-1.414,0.305-1.898,0.914l-0.035-0.797H215.974z M223.766,157.446h-1.084v6.34
		h1.084V157.446z M222.756,156.204c0.107,0.117,0.267,0.176,0.478,0.176s0.371-0.059,0.48-0.176
		c0.109-0.117,0.164-0.264,0.164-0.439s-0.055-0.324-0.164-0.445c-0.109-0.121-0.27-0.182-0.48-0.182s-0.37,0.061-0.478,0.182
		c-0.107,0.121-0.161,0.27-0.161,0.445S222.648,156.087,222.756,156.204z M225.999,155.911v1.535h-1.154v0.838h1.154v3.932
		c0,0.539,0.123,0.955,0.369,1.248s0.611,0.439,1.096,0.439c0.27,0,0.547-0.039,0.832-0.116v-0.874
		c-0.219,0.047-0.391,0.07-0.516,0.07c-0.254,0-0.434-0.064-0.539-0.191s-0.158-0.318-0.158-0.572v-3.937h1.184v-0.838h-1.184
		v-1.535H225.999z M230.636,157.446h-1.084v6.34h1.084V157.446z M229.625,156.204c0.107,0.117,0.267,0.176,0.478,0.176
		s0.371-0.059,0.48-0.176c0.109-0.117,0.164-0.264,0.164-0.439s-0.055-0.324-0.164-0.445c-0.109-0.121-0.27-0.182-0.48-0.182
		s-0.37,0.061-0.478,0.182c-0.107,0.121-0.161,0.27-0.161,0.445S229.517,156.087,229.625,156.204z M237.385,162.679l-0.662-0.516
		c-0.199,0.258-0.432,0.465-0.697,0.621c-0.266,0.156-0.59,0.234-0.973,0.234c-0.539,0-0.983-0.192-1.333-0.577
		c-0.35-0.385-0.532-0.89-0.548-1.515h4.295v-0.451c0-1.012-0.229-1.789-0.686-2.332c-0.457-0.543-1.098-0.814-1.922-0.814
		c-0.504,0-0.972,0.14-1.403,0.419c-0.432,0.279-0.768,0.666-1.008,1.16c-0.24,0.494-0.36,1.056-0.36,1.685v0.199
		c0,0.945,0.27,1.7,0.809,2.265c0.539,0.565,1.238,0.847,2.098,0.847C236.057,163.903,236.854,163.495,237.385,162.679z
		 M235.938,158.674c0.266,0.303,0.414,0.729,0.445,1.28v0.082h-3.176c0.07-0.574,0.254-1.02,0.551-1.339
		c0.297-0.318,0.664-0.478,1.102-0.478C235.313,158.22,235.673,158.371,235.938,158.674z M242.055,162.77
		c-0.248,0.166-0.577,0.249-0.987,0.249c-0.445,0-0.804-0.106-1.075-0.319c-0.272-0.213-0.417-0.501-0.437-0.864h-1.084
		c0,0.375,0.11,0.724,0.331,1.046c0.221,0.322,0.526,0.573,0.917,0.753c0.391,0.18,0.84,0.27,1.348,0.27
		c0.723,0,1.31-0.171,1.764-0.513c0.453-0.342,0.68-0.796,0.68-1.362c0-0.34-0.081-0.628-0.243-0.864
		c-0.162-0.236-0.411-0.438-0.747-0.606c-0.336-0.168-0.774-0.312-1.315-0.434c-0.541-0.121-0.915-0.248-1.122-0.381
		c-0.207-0.133-0.311-0.33-0.311-0.592c0-0.277,0.111-0.502,0.334-0.674c0.223-0.172,0.531-0.258,0.926-0.258
		c0.383,0,0.7,0.107,0.952,0.322c0.252,0.215,0.378,0.471,0.378,0.768h1.09c0-0.578-0.224-1.053-0.671-1.424
		c-0.447-0.371-1.03-0.557-1.749-0.557c-0.684,0-1.245,0.18-1.685,0.539c-0.439,0.359-0.659,0.799-0.659,1.318
		c0,0.313,0.077,0.582,0.231,0.809c0.154,0.227,0.393,0.422,0.715,0.586s0.758,0.305,1.307,0.422
		c0.549,0.117,0.934,0.257,1.154,0.419c0.221,0.162,0.331,0.39,0.331,0.683C242.427,162.382,242.303,162.604,242.055,162.77z"/>
</g>
</svg>
