<!-- Generator: Adobe InDesign 20.4 SVG Export Plug-in, SVG Library version: 9.3 build 117 -->
<!DOCTYPE svg PUBLIC "-//W3C//DTD SVG 1.1//EN" "http://www.w3.org/Graphics/SVG/1.1/DTD/svg11.dtd">
<svg version="1.1" xmlns="http://www.w3.org/2000/svg" xmlns:xlink="http://www.w3.org/1999/xlink" x="0%" y="0%" width="100%"
	 height="100%" viewBox="0 0 533.46 92.58" preserveAspectRatio="xMidYMid slice" overflow="visible" xml:space="preserve">
<clipPath id="clp_unq_id_1" fill="none">
	<path shape-rendering="crispEdges" stroke="#000000" d="M0,0h533.46v92.58H0V0"/>
</clipPath>
<g clip-path="url(#clp_unq_id_1)" fill="none">
	<path fill="#000000" d="M199.404,18.698c-0.542,0-1.072-0.113-1.589-0.338c-0.517-0.226-0.91-0.521-1.179-0.885l0.786-0.998
		c0.51,0.606,1.139,0.909,1.887,0.909c0.551,0,0.987-0.149,1.306-0.448c0.319-0.299,0.479-0.737,0.479-1.316v-0.499
		c-0.479,0.533-1.117,0.8-1.914,0.8c-0.866,0-1.573-0.344-2.123-1.032c-0.549-0.688-0.824-1.641-0.824-2.857
		c0-1.148,0.27-2.065,0.81-2.751c0.54-0.686,1.257-1.029,2.15-1.029c0.843,0,1.506,0.294,1.989,0.882l0.075-0.745h1.497v7.171
		c0,0.971-0.302,1.736-0.906,2.297C201.244,18.418,200.43,18.698,199.404,18.698 M199.616,9.613c-0.547,0-0.972,0.216-1.275,0.649
		c-0.303,0.433-0.455,1.071-0.455,1.914c0,0.743,0.152,1.327,0.455,1.753c0.303,0.426,0.724,0.639,1.261,0.639
		c0.67,0,1.167-0.287,1.49-0.861v-3.254C200.778,9.893,200.286,9.613,199.616,9.613 M367.832,18.63h-1.661v-3.473
		c-0.483,0.51-1.112,0.766-1.887,0.766c-0.884,0-1.593-0.345-2.126-1.036c-0.533-0.69-0.8-1.644-0.8-2.861
		c0-1.157,0.264-2.076,0.793-2.755c0.529-0.679,1.244-1.019,2.146-1.019c0.825,0,1.479,0.29,1.962,0.868l0.096-0.731h1.477V18.63
		 M364.721,9.586c-0.529,0-0.944,0.212-1.247,0.636c-0.303,0.424-0.455,1.073-0.455,1.948c0,0.757,0.149,1.35,0.448,1.781
		c0.298,0.431,0.712,0.646,1.241,0.646c0.656,0,1.144-0.28,1.463-0.841v-3.363C365.852,9.855,365.368,9.586,364.721,9.586
		 M277.926,18.63h-1.661V8.39h1.531l0.068,0.752c0.488-0.592,1.151-0.889,1.989-0.889c0.902,0,1.61,0.336,2.122,1.008
		c0.513,0.672,0.769,1.605,0.769,2.799v0.103c0,1.144-0.26,2.056-0.779,2.738c-0.52,0.681-1.217,1.022-2.092,1.022
		c-0.811,0-1.461-0.267-1.948-0.8V18.63 M279.389,9.613c-0.679,0-1.167,0.28-1.463,0.841v3.281c0.301,0.574,0.793,0.861,1.476,0.861
		c0.529,0,0.942-0.213,1.241-0.639c0.298-0.426,0.448-1.072,0.448-1.938c0-0.738-0.147-1.324-0.441-1.757
		C280.356,9.83,279.936,9.613,279.389,9.613 M269.934,18.63h-1.661V8.39h1.531l0.068,0.752c0.488-0.592,1.151-0.889,1.989-0.889
		c0.902,0,1.61,0.336,2.123,1.008c0.513,0.672,0.769,1.605,0.769,2.799v0.103c0,1.144-0.26,2.056-0.779,2.738
		c-0.52,0.681-1.217,1.022-2.092,1.022c-0.811,0-1.461-0.267-1.948-0.8V18.63 M271.397,9.613c-0.679,0-1.167,0.28-1.463,0.841v3.281
		c0.301,0.574,0.793,0.861,1.476,0.861c0.529,0,0.942-0.213,1.241-0.639s0.448-1.072,0.448-1.938c0-0.738-0.147-1.324-0.441-1.757
		C272.364,9.83,271.944,9.613,271.397,9.613 M320.498,18.028l-0.896-0.533c0.264-0.415,0.445-0.776,0.544-1.083
		c0.098-0.308,0.149-0.621,0.154-0.94V14.18h1.497l-0.007,1.196c-0.005,0.483-0.126,0.967-0.366,1.453
		C321.185,17.314,320.877,17.714,320.498,18.028 M246.641,18.028l-0.895-0.533c0.264-0.415,0.445-0.776,0.543-1.083
		c0.098-0.308,0.149-0.621,0.154-0.94V14.18h1.497l-0.007,1.196c-0.005,0.483-0.126,0.967-0.366,1.453
		C247.328,17.314,247.019,17.714,246.641,18.028 M507.085,15.923c-1.044,0-1.879-0.347-2.505-1.042
		c-0.627-0.695-0.94-1.621-0.94-2.779V12.02c0-0.725,0.144-1.377,0.431-1.958c0.287-0.581,0.69-1.028,1.21-1.34
		c0.52-0.312,1.116-0.468,1.791-0.468c0.998,0,1.808,0.321,2.43,0.964c0.622,0.643,0.958,1.495,1.008,2.557l0.007,0.39
		c0,0.729-0.14,1.381-0.42,1.955c-0.28,0.574-0.681,1.019-1.203,1.333C508.372,15.766,507.769,15.923,507.085,15.923 M507.072,9.586
		c-0.542,0-0.973,0.215-1.292,0.646s-0.478,1.075-0.478,1.931c0,0.761,0.157,1.357,0.472,1.788c0.314,0.431,0.752,0.646,1.312,0.646
		c0.561,0,0.997-0.219,1.309-0.656c0.312-0.437,0.468-1.078,0.468-1.921c0-0.747-0.161-1.34-0.482-1.777
		C508.059,9.805,507.623,9.586,507.072,9.586 M493.178,15.923c-1.276,0-1.914-0.704-1.914-2.112V9.62h-1.217V8.39h1.217V6.592h1.661
		V8.39h1.306v1.23h-1.306v4.129c0,0.283,0.056,0.487,0.167,0.612c0.112,0.125,0.311,0.188,0.598,0.188
		c0.191,0,0.385-0.023,0.581-0.068v1.285C493.894,15.87,493.529,15.923,493.178,15.923 M478.556,15.923
		c-1.053,0-1.906-0.331-2.56-0.995c-0.654-0.663-0.981-1.546-0.981-2.649v-0.205c0-0.738,0.142-1.398,0.427-1.979
		c0.285-0.581,0.685-1.033,1.2-1.357c0.515-0.324,1.089-0.485,1.723-0.485c1.007,0,1.785,0.321,2.334,0.964
		c0.549,0.643,0.824,1.552,0.824,2.728v0.67h-4.833c0.05,0.611,0.254,1.094,0.612,1.449c0.358,0.356,0.808,0.533,1.35,0.533
		c0.761,0,1.381-0.308,1.859-0.923l0.895,0.855c-0.296,0.442-0.691,0.785-1.186,1.029C479.726,15.801,479.171,15.923,478.556,15.923
		 M478.358,9.586c-0.456,0-0.824,0.16-1.104,0.478c-0.28,0.319-0.459,0.763-0.537,1.333h3.165v-0.123
		c-0.036-0.556-0.185-0.976-0.444-1.261C479.178,9.728,478.818,9.586,478.358,9.586 M450.265,15.923
		c-1.044,0-1.879-0.347-2.505-1.042c-0.627-0.695-0.94-1.621-0.94-2.779V12.02c0-0.725,0.144-1.377,0.431-1.958
		c0.287-0.581,0.69-1.028,1.21-1.34c0.52-0.312,1.116-0.468,1.791-0.468c0.998,0,1.808,0.321,2.43,0.964
		c0.622,0.643,0.958,1.495,1.008,2.557l0.007,0.39c0,0.729-0.14,1.381-0.42,1.955c-0.28,0.574-0.681,1.019-1.203,1.333
		C451.551,15.766,450.948,15.923,450.265,15.923 M450.251,9.586c-0.542,0-0.973,0.215-1.292,0.646
		c-0.319,0.431-0.478,1.075-0.478,1.931c0,0.761,0.157,1.357,0.472,1.788c0.314,0.431,0.752,0.646,1.312,0.646
		c0.561,0,0.997-0.219,1.309-0.656c0.312-0.437,0.468-1.078,0.468-1.921c0-0.747-0.161-1.34-0.482-1.777
		C451.239,9.805,450.803,9.586,450.251,9.586 M419.515,15.923c-1.053,0-1.906-0.331-2.56-0.995
		c-0.654-0.663-0.981-1.546-0.981-2.649v-0.205c0-0.738,0.142-1.398,0.427-1.979c0.285-0.581,0.685-1.033,1.2-1.357
		c0.515-0.324,1.089-0.485,1.723-0.485c1.007,0,1.785,0.321,2.334,0.964c0.549,0.643,0.824,1.552,0.824,2.728v0.67h-4.833
		c0.05,0.611,0.254,1.094,0.612,1.449c0.358,0.356,0.808,0.533,1.35,0.533c0.761,0,1.381-0.308,1.859-0.923l0.895,0.855
		c-0.296,0.442-0.691,0.785-1.186,1.029C420.685,15.801,420.13,15.923,419.515,15.923 M419.316,9.586
		c-0.456,0-0.824,0.16-1.104,0.478c-0.28,0.319-0.459,0.763-0.537,1.333h3.165v-0.123c-0.036-0.556-0.185-0.976-0.444-1.261
		C420.137,9.728,419.777,9.586,419.316,9.586 M408.375,15.923c-1.053,0-1.906-0.331-2.56-0.995
		c-0.654-0.663-0.981-1.546-0.981-2.649v-0.205c0-0.738,0.142-1.398,0.427-1.979c0.285-0.581,0.685-1.033,1.2-1.357
		c0.515-0.324,1.089-0.485,1.723-0.485c1.007,0,1.785,0.321,2.335,0.964c0.549,0.643,0.824,1.552,0.824,2.728v0.67h-4.833
		c0.05,0.611,0.254,1.094,0.612,1.449c0.358,0.356,0.808,0.533,1.35,0.533c0.761,0,1.381-0.308,1.859-0.923l0.896,0.855
		c-0.296,0.442-0.692,0.785-1.186,1.029C409.546,15.801,408.991,15.923,408.375,15.923 M408.177,9.586
		c-0.456,0-0.824,0.16-1.104,0.478c-0.28,0.319-0.459,0.763-0.537,1.333h3.165v-0.123c-0.037-0.556-0.185-0.976-0.444-1.261
		C408.998,9.728,408.637,9.586,408.177,9.586 M397.168,15.923c-0.866,0-1.54-0.312-2.023-0.937l-0.082,0.8h-1.504v-10.5h1.661v3.814
		c0.478-0.565,1.123-0.848,1.935-0.848c0.902,0,1.611,0.335,2.126,1.005c0.515,0.67,0.772,1.606,0.772,2.81v0.096
		c0,1.148-0.256,2.062-0.769,2.741C398.771,15.583,398.065,15.923,397.168,15.923 M396.737,9.613c-0.72,0-1.226,0.314-1.518,0.943
		v3.049c0.296,0.643,0.807,0.964,1.531,0.964c0.52,0,0.921-0.194,1.203-0.581c0.283-0.387,0.428-0.973,0.438-1.757V12.02
		c0-0.802-0.141-1.404-0.424-1.805C397.685,9.814,397.275,9.613,396.737,9.613 M388.213,15.923c-0.743,0-1.349-0.212-1.818-0.636
		c-0.469-0.424-0.704-0.948-0.704-1.572c0-0.788,0.293-1.393,0.878-1.815c0.585-0.421,1.423-0.632,2.512-0.632h1.019v-0.485
		c0-0.383-0.107-0.689-0.321-0.919c-0.214-0.23-0.54-0.345-0.978-0.345c-0.378,0-0.688,0.095-0.93,0.284
		c-0.242,0.189-0.362,0.43-0.362,0.721h-1.661c0-0.406,0.134-0.785,0.403-1.138c0.269-0.353,0.635-0.63,1.097-0.831
		c0.462-0.201,0.979-0.301,1.548-0.301c0.866,0,1.556,0.218,2.071,0.653c0.515,0.435,0.779,1.047,0.793,1.835v3.336
		c0,0.665,0.093,1.196,0.28,1.593v0.116h-1.695c-0.073-0.141-0.137-0.371-0.191-0.69C389.625,15.647,388.978,15.923,388.213,15.923
		 M389.204,12.313c-0.615,0-1.078,0.107-1.388,0.321s-0.465,0.517-0.465,0.909c0,0.319,0.106,0.573,0.318,0.762
		c0.212,0.189,0.496,0.284,0.851,0.284c0.328,0,0.637-0.08,0.926-0.239c0.289-0.159,0.507-0.374,0.653-0.643v-1.394H389.204
		 M383.525,15.923c-1.276,0-1.914-0.704-1.914-2.112V9.62h-1.217V8.39h1.217V6.592h1.661V8.39h1.306v1.23h-1.306v4.129
		c0,0.283,0.056,0.487,0.167,0.612c0.112,0.125,0.311,0.188,0.598,0.188c0.191,0,0.385-0.023,0.581-0.068v1.285
		C384.241,15.87,383.876,15.923,383.525,15.923 M372.078,15.923c-0.802,0-1.409-0.235-1.822-0.704
		c-0.413-0.469-0.619-1.148-0.619-2.037V8.39h1.661v4.771c0,0.939,0.39,1.408,1.169,1.408c0.807,0,1.351-0.289,1.634-0.868V8.39
		h1.661v7.396h-1.565l-0.041-0.725C373.669,15.636,372.976,15.923,372.078,15.923 M357.261,15.923c-1.053,0-1.906-0.331-2.56-0.995
		c-0.654-0.663-0.981-1.546-0.981-2.649v-0.205c0-0.738,0.142-1.398,0.427-1.979c0.285-0.581,0.685-1.033,1.2-1.357
		c0.515-0.324,1.089-0.485,1.723-0.485c1.007,0,1.785,0.321,2.334,0.964c0.549,0.643,0.824,1.552,0.824,2.728v0.67h-4.833
		c0.05,0.611,0.254,1.094,0.612,1.449c0.358,0.356,0.808,0.533,1.35,0.533c0.761,0,1.381-0.308,1.859-0.923l0.895,0.855
		c-0.296,0.442-0.691,0.785-1.186,1.029C358.431,15.801,357.876,15.923,357.261,15.923 M357.063,9.586
		c-0.456,0-0.824,0.16-1.104,0.478c-0.28,0.319-0.459,0.763-0.537,1.333h3.165v-0.123c-0.036-0.556-0.185-0.976-0.444-1.261
		C357.883,9.728,357.523,9.586,357.063,9.586 M345.069,15.923c-0.866,0-1.566-0.349-2.102-1.046
		c-0.536-0.697-0.803-1.645-0.803-2.844c0-1.139,0.264-2.054,0.793-2.745c0.529-0.69,1.237-1.036,2.126-1.036
		c0.784,0,1.417,0.274,1.9,0.82V5.286h1.661v10.5h-1.504l-0.082-0.766C346.562,15.622,345.899,15.923,345.069,15.923 M345.507,9.613
		c-0.538,0-0.952,0.213-1.244,0.639c-0.292,0.426-0.437,1.068-0.437,1.924c0,0.752,0.145,1.339,0.434,1.76
		c0.289,0.422,0.701,0.632,1.234,0.632c0.679,0,1.176-0.303,1.49-0.909v-3.158C346.678,9.91,346.186,9.613,345.507,9.613
		 M329.252,15.923c-0.743,0-1.349-0.212-1.818-0.636c-0.469-0.424-0.704-0.948-0.704-1.572c0-0.788,0.293-1.393,0.878-1.815
		c0.586-0.421,1.423-0.632,2.512-0.632h1.019v-0.485c0-0.383-0.107-0.689-0.321-0.919c-0.214-0.23-0.54-0.345-0.978-0.345
		c-0.378,0-0.688,0.095-0.93,0.284c-0.242,0.189-0.362,0.43-0.362,0.721h-1.661c0-0.406,0.134-0.785,0.403-1.138
		c0.269-0.353,0.635-0.63,1.097-0.831c0.462-0.201,0.979-0.301,1.548-0.301c0.866,0,1.556,0.218,2.071,0.653
		c0.515,0.435,0.779,1.047,0.793,1.835v3.336c0,0.665,0.093,1.196,0.28,1.593v0.116h-1.695c-0.073-0.141-0.137-0.371-0.191-0.69
		C330.664,15.647,330.017,15.923,329.252,15.923 M330.243,12.313c-0.615,0-1.078,0.107-1.388,0.321s-0.465,0.517-0.465,0.909
		c0,0.319,0.106,0.573,0.318,0.762c0.212,0.189,0.496,0.284,0.851,0.284c0.328,0,0.637-0.08,0.926-0.239
		c0.289-0.159,0.507-0.374,0.653-0.643v-1.394H330.243 M315.926,15.923c-1.053,0-1.906-0.331-2.56-0.995
		c-0.654-0.663-0.981-1.546-0.981-2.649v-0.205c0-0.738,0.142-1.398,0.427-1.979c0.285-0.581,0.685-1.033,1.2-1.357
		c0.515-0.324,1.089-0.485,1.723-0.485c1.007,0,1.785,0.321,2.335,0.964c0.549,0.643,0.824,1.552,0.824,2.728v0.67h-4.833
		c0.05,0.611,0.254,1.094,0.612,1.449c0.358,0.356,0.808,0.533,1.35,0.533c0.761,0,1.381-0.308,1.859-0.923l0.896,0.855
		c-0.296,0.442-0.692,0.785-1.186,1.029C317.096,15.801,316.541,15.923,315.926,15.923 M315.728,9.586
		c-0.456,0-0.824,0.16-1.104,0.478c-0.28,0.319-0.459,0.763-0.537,1.333h3.165v-0.123c-0.037-0.556-0.185-0.976-0.444-1.261
		C316.548,9.728,316.188,9.586,315.728,9.586 M300.047,15.923c-1.276,0-1.914-0.704-1.914-2.112V9.62h-1.217V8.39h1.217V6.592h1.661
		V8.39h1.306v1.23h-1.306v4.129c0,0.283,0.056,0.487,0.167,0.612c0.112,0.125,0.311,0.188,0.598,0.188
		c0.191,0,0.385-0.023,0.581-0.068v1.285C300.762,15.87,300.397,15.923,300.047,15.923 M287.378,15.923
		c-1.044,0-1.879-0.347-2.505-1.042c-0.627-0.695-0.94-1.621-0.94-2.779V12.02c0-0.725,0.143-1.377,0.431-1.958
		c0.287-0.581,0.69-1.028,1.21-1.34c0.519-0.312,1.116-0.468,1.791-0.468c0.998,0,1.808,0.321,2.43,0.964
		c0.622,0.643,0.958,1.495,1.008,2.557l0.007,0.39c0,0.729-0.14,1.381-0.421,1.955c-0.28,0.574-0.681,1.019-1.203,1.333
		C288.665,15.766,288.062,15.923,287.378,15.923 M287.365,9.586c-0.542,0-0.973,0.215-1.292,0.646
		c-0.319,0.431-0.479,1.075-0.479,1.931c0,0.761,0.157,1.357,0.472,1.788c0.315,0.431,0.752,0.646,1.312,0.646
		c0.561,0,0.997-0.219,1.309-0.656c0.312-0.437,0.468-1.078,0.468-1.921c0-0.747-0.161-1.34-0.482-1.777
		C288.353,9.805,287.916,9.586,287.365,9.586 M262.796,15.923c-0.802,0-1.409-0.235-1.822-0.704
		c-0.413-0.469-0.619-1.148-0.619-2.037V8.39h1.661v4.771c0,0.939,0.39,1.408,1.169,1.408c0.807,0,1.351-0.289,1.634-0.868V8.39
		h1.661v7.396h-1.565l-0.041-0.725C264.387,15.636,263.694,15.923,262.796,15.923 M255.893,15.923c-0.606,0-1.146-0.109-1.62-0.328
		c-0.474-0.219-0.843-0.519-1.107-0.902c-0.264-0.383-0.396-0.795-0.396-1.237h1.613c0.023,0.392,0.171,0.694,0.444,0.906
		c0.273,0.212,0.636,0.318,1.087,0.318c0.438,0,0.77-0.083,0.998-0.249c0.228-0.166,0.342-0.384,0.342-0.653
		c0-0.296-0.122-0.522-0.366-0.677c-0.244-0.155-0.648-0.292-1.213-0.41c-0.565-0.118-1.037-0.269-1.415-0.451
		c-0.829-0.401-1.244-0.982-1.244-1.743c0-0.638,0.269-1.171,0.807-1.6c0.538-0.428,1.221-0.643,2.051-0.643
		c0.884,0,1.598,0.219,2.143,0.656c0.544,0.437,0.817,1.005,0.817,1.702h-1.661c0-0.319-0.119-0.584-0.355-0.796
		c-0.237-0.212-0.552-0.318-0.943-0.318c-0.365,0-0.662,0.084-0.892,0.253c-0.23,0.169-0.345,0.394-0.345,0.677
		c0,0.255,0.107,0.454,0.321,0.595c0.214,0.141,0.647,0.284,1.299,0.427c0.652,0.144,1.163,0.314,1.535,0.513
		c0.371,0.198,0.647,0.436,0.827,0.714c0.18,0.278,0.27,0.615,0.27,1.012c0,0.665-0.276,1.204-0.827,1.617
		C257.509,15.717,256.786,15.923,255.893,15.923 M242.068,15.923c-1.053,0-1.906-0.331-2.56-0.995
		c-0.654-0.663-0.981-1.546-0.981-2.649v-0.205c0-0.738,0.142-1.398,0.427-1.979c0.285-0.581,0.685-1.033,1.2-1.357
		c0.515-0.324,1.089-0.485,1.723-0.485c1.007,0,1.785,0.321,2.334,0.964c0.549,0.643,0.824,1.552,0.824,2.728v0.67h-4.833
		c0.05,0.611,0.254,1.094,0.612,1.449c0.358,0.356,0.808,0.533,1.35,0.533c0.761,0,1.381-0.308,1.859-0.923l0.895,0.855
		c-0.296,0.442-0.692,0.785-1.186,1.029C243.238,15.801,242.684,15.923,242.068,15.923 M241.87,9.586
		c-0.456,0-0.824,0.16-1.104,0.478c-0.28,0.319-0.459,0.763-0.537,1.333h3.165v-0.123c-0.036-0.556-0.185-0.976-0.444-1.261
		C242.69,9.728,242.33,9.586,241.87,9.586 M228.804,15.923c-0.743,0-1.349-0.212-1.818-0.636c-0.469-0.424-0.704-0.948-0.704-1.572
		c0-0.788,0.293-1.393,0.878-1.815c0.586-0.421,1.423-0.632,2.512-0.632h1.019v-0.485c0-0.383-0.107-0.689-0.321-0.919
		c-0.214-0.23-0.54-0.345-0.978-0.345c-0.378,0-0.688,0.095-0.93,0.284c-0.242,0.189-0.362,0.43-0.362,0.721h-1.661
		c0-0.406,0.134-0.785,0.403-1.138c0.269-0.353,0.634-0.63,1.097-0.831c0.463-0.201,0.979-0.301,1.548-0.301
		c0.866,0,1.556,0.218,2.071,0.653s0.779,1.047,0.793,1.835v3.336c0,0.665,0.093,1.196,0.28,1.593v0.116h-1.695
		c-0.073-0.141-0.137-0.371-0.191-0.69C230.217,15.647,229.57,15.923,228.804,15.923 M229.795,12.313
		c-0.615,0-1.078,0.107-1.388,0.321c-0.31,0.214-0.465,0.517-0.465,0.909c0,0.319,0.106,0.573,0.318,0.762
		c0.212,0.189,0.496,0.284,0.851,0.284c0.328,0,0.637-0.08,0.926-0.239c0.289-0.159,0.507-0.374,0.653-0.643v-1.394H229.795
		 M222.072,15.923c-0.606,0-1.146-0.109-1.62-0.328s-0.843-0.519-1.107-0.902c-0.264-0.383-0.396-0.795-0.396-1.237h1.613
		c0.023,0.392,0.171,0.694,0.444,0.906c0.273,0.212,0.636,0.318,1.087,0.318c0.438,0,0.77-0.083,0.998-0.249
		c0.228-0.166,0.342-0.384,0.342-0.653c0-0.296-0.122-0.522-0.366-0.677c-0.244-0.155-0.648-0.292-1.213-0.41
		c-0.565-0.118-1.037-0.269-1.415-0.451c-0.829-0.401-1.244-0.982-1.244-1.743c0-0.638,0.269-1.171,0.807-1.6
		c0.538-0.428,1.221-0.643,2.051-0.643c0.884,0,1.599,0.219,2.143,0.656c0.544,0.437,0.817,1.005,0.817,1.702h-1.661
		c0-0.319-0.119-0.584-0.355-0.796s-0.551-0.318-0.943-0.318c-0.365,0-0.662,0.084-0.892,0.253c-0.23,0.169-0.345,0.394-0.345,0.677
		c0,0.255,0.107,0.454,0.321,0.595c0.214,0.141,0.647,0.284,1.299,0.427c0.652,0.144,1.163,0.314,1.535,0.513
		c0.371,0.198,0.647,0.436,0.827,0.714c0.18,0.278,0.27,0.615,0.27,1.012c0,0.665-0.276,1.204-0.827,1.617
		C223.688,15.717,222.965,15.923,222.072,15.923 M210.372,15.923c-0.743,0-1.349-0.212-1.818-0.636
		c-0.469-0.424-0.704-0.948-0.704-1.572c0-0.788,0.293-1.393,0.878-1.815c0.586-0.421,1.423-0.632,2.512-0.632h1.019v-0.485
		c0-0.383-0.107-0.689-0.321-0.919c-0.214-0.23-0.54-0.345-0.978-0.345c-0.378,0-0.688,0.095-0.93,0.284
		c-0.242,0.189-0.362,0.43-0.362,0.721h-1.661c0-0.406,0.134-0.785,0.403-1.138c0.269-0.353,0.635-0.63,1.097-0.831
		c0.462-0.201,0.979-0.301,1.548-0.301c0.866,0,1.556,0.218,2.071,0.653c0.515,0.435,0.779,1.047,0.793,1.835v3.336
		c0,0.665,0.093,1.196,0.28,1.593v0.116h-1.695c-0.073-0.141-0.137-0.371-0.191-0.69C211.785,15.647,211.138,15.923,210.372,15.923
		 M211.364,12.313c-0.615,0-1.078,0.107-1.388,0.321c-0.31,0.214-0.465,0.517-0.465,0.909c0,0.319,0.106,0.573,0.318,0.762
		c0.212,0.189,0.496,0.284,0.851,0.284c0.328,0,0.637-0.08,0.926-0.239c0.289-0.159,0.507-0.374,0.653-0.643v-1.394H211.364
		 M175.668,15.923c-1.053,0-1.906-0.331-2.56-0.995c-0.654-0.663-0.981-1.546-0.981-2.649v-0.205c0-0.738,0.142-1.398,0.427-1.979
		c0.285-0.581,0.685-1.033,1.2-1.357c0.515-0.324,1.089-0.485,1.723-0.485c1.007,0,1.785,0.321,2.335,0.964
		c0.549,0.643,0.824,1.552,0.824,2.728v0.67h-4.833c0.05,0.611,0.254,1.094,0.612,1.449c0.358,0.356,0.808,0.533,1.35,0.533
		c0.761,0,1.381-0.308,1.859-0.923l0.895,0.855c-0.296,0.442-0.691,0.785-1.186,1.029C176.838,15.801,176.283,15.923,175.668,15.923
		 M175.47,9.586c-0.456,0-0.824,0.16-1.104,0.478c-0.28,0.319-0.459,0.763-0.537,1.333h3.165v-0.123
		c-0.037-0.556-0.185-0.976-0.444-1.261C176.29,9.728,175.93,9.586,175.47,9.586 M170.186,15.923c-1.276,0-1.914-0.704-1.914-2.112
		V9.62h-1.217V8.39h1.217V6.592h1.661V8.39h1.306v1.23h-1.306v4.129c0,0.283,0.056,0.487,0.167,0.612
		c0.112,0.125,0.311,0.188,0.598,0.188c0.192,0,0.385-0.023,0.581-0.068v1.285C170.902,15.87,170.537,15.923,170.186,15.923
		 M163.23,15.923c-0.606,0-1.146-0.109-1.62-0.328c-0.474-0.219-0.843-0.519-1.107-0.902c-0.264-0.383-0.396-0.795-0.396-1.237
		h1.613c0.023,0.392,0.171,0.694,0.444,0.906c0.273,0.212,0.636,0.318,1.087,0.318c0.438,0,0.77-0.083,0.998-0.249
		c0.228-0.166,0.342-0.384,0.342-0.653c0-0.296-0.122-0.522-0.366-0.677c-0.244-0.155-0.648-0.292-1.213-0.41
		c-0.565-0.118-1.037-0.269-1.415-0.451c-0.829-0.401-1.244-0.982-1.244-1.743c0-0.638,0.269-1.171,0.807-1.6
		c0.538-0.428,1.221-0.643,2.051-0.643c0.884,0,1.598,0.219,2.143,0.656s0.817,1.005,0.817,1.702h-1.661
		c0-0.319-0.118-0.584-0.355-0.796c-0.237-0.212-0.552-0.318-0.943-0.318c-0.365,0-0.662,0.084-0.892,0.253
		c-0.23,0.169-0.345,0.394-0.345,0.677c0,0.255,0.107,0.454,0.321,0.595c0.214,0.141,0.647,0.284,1.299,0.427
		c0.652,0.144,1.163,0.314,1.535,0.513c0.371,0.198,0.647,0.436,0.827,0.714c0.18,0.278,0.27,0.615,0.27,1.012
		c0,0.665-0.276,1.204-0.827,1.617C164.846,15.717,164.123,15.923,163.23,15.923 M155.59,15.923c-1.044,0-1.879-0.347-2.505-1.042
		c-0.627-0.695-0.94-1.621-0.94-2.779V12.02c0-0.725,0.144-1.377,0.431-1.958c0.287-0.581,0.69-1.028,1.21-1.34
		c0.519-0.312,1.116-0.468,1.791-0.468c0.998,0,1.808,0.321,2.43,0.964c0.622,0.643,0.958,1.495,1.008,2.557l0.007,0.39
		c0,0.729-0.14,1.381-0.42,1.955c-0.28,0.574-0.681,1.019-1.203,1.333C156.876,15.766,156.273,15.923,155.59,15.923 M155.576,9.586
		c-0.542,0-0.973,0.215-1.292,0.646c-0.319,0.431-0.479,1.075-0.479,1.931c0,0.761,0.157,1.357,0.472,1.788
		c0.314,0.431,0.752,0.646,1.312,0.646c0.561,0,0.997-0.219,1.309-0.656c0.312-0.437,0.468-1.078,0.468-1.921
		c0-0.747-0.161-1.34-0.482-1.777C156.564,9.805,156.128,9.586,155.576,9.586 M139.167,15.923c-1.044,0-1.879-0.347-2.505-1.042
		c-0.627-0.695-0.94-1.621-0.94-2.779V12.02c0-0.725,0.144-1.377,0.431-1.958c0.287-0.581,0.69-1.028,1.21-1.34
		c0.52-0.312,1.116-0.468,1.791-0.468c0.998,0,1.808,0.321,2.43,0.964c0.622,0.643,0.958,1.495,1.008,2.557l0.007,0.39
		c0,0.729-0.14,1.381-0.42,1.955c-0.28,0.574-0.681,1.019-1.203,1.333C140.453,15.766,139.851,15.923,139.167,15.923 M139.153,9.586
		c-0.542,0-0.973,0.215-1.292,0.646s-0.479,1.075-0.479,1.931c0,0.761,0.157,1.357,0.472,1.788c0.314,0.431,0.752,0.646,1.312,0.646
		c0.561,0,0.997-0.219,1.309-0.656c0.312-0.437,0.468-1.078,0.468-1.921c0-0.747-0.161-1.34-0.482-1.777
		C140.141,9.805,139.705,9.586,139.153,9.586 M133.809,15.923c-1.276,0-1.914-0.704-1.914-2.112V9.62h-1.217V8.39h1.217V6.592h1.661
		V8.39h1.306v1.23h-1.306v4.129c0,0.283,0.056,0.487,0.167,0.612c0.112,0.125,0.311,0.188,0.598,0.188
		c0.191,0,0.385-0.023,0.581-0.068v1.285C134.524,15.87,134.159,15.923,133.809,15.923 M122.54,15.923
		c-0.866,0-1.567-0.349-2.102-1.046c-0.536-0.697-0.803-1.645-0.803-2.844c0-1.139,0.264-2.054,0.793-2.745
		c0.529-0.69,1.237-1.036,2.126-1.036c0.784,0,1.417,0.274,1.9,0.82V5.286h1.661v10.5h-1.504l-0.082-0.766
		C124.032,15.622,123.369,15.923,122.54,15.923 M122.977,9.613c-0.538,0-0.953,0.213-1.244,0.639s-0.438,1.068-0.438,1.924
		c0,0.752,0.145,1.339,0.434,1.76c0.289,0.422,0.701,0.632,1.234,0.632c0.679,0,1.176-0.303,1.49-0.909v-3.158
		C124.148,9.91,123.656,9.613,122.977,9.613 M115.538,15.923c-1.053,0-1.906-0.331-2.56-0.995c-0.654-0.663-0.981-1.546-0.981-2.649
		v-0.205c0-0.738,0.142-1.398,0.427-1.979c0.285-0.581,0.685-1.033,1.2-1.357c0.515-0.324,1.089-0.485,1.723-0.485
		c1.007,0,1.785,0.321,2.335,0.964c0.549,0.643,0.824,1.552,0.824,2.728v0.67h-4.833c0.05,0.611,0.254,1.094,0.612,1.449
		c0.358,0.356,0.808,0.533,1.35,0.533c0.761,0,1.381-0.308,1.859-0.923l0.896,0.855c-0.296,0.442-0.692,0.785-1.186,1.029
		C116.708,15.801,116.153,15.923,115.538,15.923 M115.339,9.586c-0.456,0-0.824,0.16-1.104,0.478
		c-0.28,0.319-0.459,0.763-0.537,1.333h3.165v-0.123c-0.036-0.556-0.185-0.976-0.444-1.261C116.16,9.728,115.8,9.586,115.339,9.586
		 M110.056,15.923c-1.276,0-1.914-0.704-1.914-2.112V9.62h-1.217V8.39h1.217V6.592h1.661V8.39h1.306v1.23h-1.306v4.129
		c0,0.283,0.056,0.487,0.167,0.612c0.112,0.125,0.311,0.188,0.598,0.188c0.191,0,0.385-0.023,0.581-0.068v1.285
		C110.771,15.87,110.407,15.923,110.056,15.923 M105.025,15.923c-1.276,0-1.914-0.704-1.914-2.112V9.62h-1.217V8.39h1.217V6.592
		h1.661V8.39h1.306v1.23h-1.306v4.129c0,0.283,0.056,0.487,0.167,0.612c0.112,0.125,0.311,0.188,0.598,0.188
		c0.192,0,0.385-0.023,0.581-0.068v1.285C105.741,15.87,105.376,15.923,105.025,15.923 M69.605,15.923
		c-1.044,0-1.879-0.347-2.505-1.042c-0.627-0.695-0.94-1.621-0.94-2.779V12.02c0-0.725,0.144-1.377,0.431-1.958
		c0.287-0.581,0.69-1.028,1.21-1.34c0.519-0.312,1.116-0.468,1.791-0.468c0.998,0,1.808,0.321,2.43,0.964
		c0.622,0.643,0.958,1.495,1.008,2.557l0.007,0.39c0,0.729-0.14,1.381-0.42,1.955c-0.28,0.574-0.681,1.019-1.203,1.333
		C70.891,15.766,70.289,15.923,69.605,15.923 M69.592,9.586c-0.542,0-0.973,0.215-1.292,0.646s-0.478,1.075-0.478,1.931
		c0,0.761,0.157,1.357,0.472,1.788c0.315,0.431,0.752,0.646,1.312,0.646c0.561,0,0.997-0.219,1.309-0.656
		c0.312-0.437,0.468-1.078,0.468-1.921c0-0.747-0.161-1.34-0.482-1.777C70.579,9.805,70.143,9.586,69.592,9.586 M62.093,15.923
		c-1.035,0-1.855-0.335-2.461-1.005c-0.606-0.67-0.909-1.595-0.909-2.775v-0.171c0-1.126,0.301-2.027,0.902-2.704
		c0.602-0.677,1.422-1.015,2.461-1.015c0.88,0,1.596,0.256,2.15,0.769c0.554,0.513,0.844,1.186,0.872,2.02h-1.565
		c-0.018-0.424-0.163-0.772-0.434-1.046c-0.271-0.273-0.616-0.41-1.036-0.41c-0.538,0-0.953,0.195-1.244,0.585
		c-0.292,0.39-0.44,0.981-0.444,1.774v0.267c0,0.802,0.145,1.4,0.434,1.794c0.289,0.394,0.707,0.591,1.254,0.591
		c0.415,0,0.759-0.121,1.032-0.362c0.273-0.242,0.419-0.54,0.437-0.896h1.565c-0.018,0.46-0.162,0.89-0.431,1.289
		c-0.269,0.399-0.634,0.714-1.094,0.947C63.123,15.807,62.626,15.923,62.093,15.923 M51.152,15.923c-1.053,0-1.906-0.331-2.56-0.995
		c-0.654-0.663-0.981-1.546-0.981-2.649v-0.205c0-0.738,0.142-1.398,0.427-1.979c0.285-0.581,0.685-1.033,1.2-1.357
		c0.515-0.324,1.089-0.485,1.723-0.485c1.007,0,1.785,0.321,2.334,0.964c0.549,0.643,0.824,1.552,0.824,2.728v0.67h-4.833
		c0.05,0.611,0.254,1.094,0.612,1.449c0.358,0.356,0.808,0.533,1.35,0.533c0.761,0,1.381-0.308,1.859-0.923l0.895,0.855
		c-0.296,0.442-0.692,0.785-1.186,1.029C52.322,15.801,51.767,15.923,51.152,15.923 M50.954,9.586c-0.456,0-0.824,0.16-1.104,0.478
		c-0.28,0.319-0.459,0.763-0.537,1.333h3.165v-0.123c-0.036-0.556-0.185-0.976-0.444-1.261C51.774,9.728,51.414,9.586,50.954,9.586
		 M37.584,15.923c-0.743,0-1.349-0.212-1.818-0.636c-0.469-0.424-0.704-0.948-0.704-1.572c0-0.788,0.293-1.393,0.878-1.815
		c0.586-0.421,1.423-0.632,2.512-0.632h1.019v-0.485c0-0.383-0.107-0.689-0.321-0.919c-0.214-0.23-0.54-0.345-0.978-0.345
		c-0.378,0-0.688,0.095-0.93,0.284c-0.242,0.189-0.362,0.43-0.362,0.721h-1.661c0-0.406,0.134-0.785,0.403-1.138
		c0.269-0.353,0.635-0.63,1.097-0.831c0.462-0.201,0.979-0.301,1.548-0.301c0.866,0,1.556,0.218,2.071,0.653
		c0.515,0.435,0.779,1.047,0.793,1.835v3.336c0,0.665,0.093,1.196,0.28,1.593v0.116h-1.695c-0.073-0.141-0.137-0.371-0.192-0.69
		C38.997,15.647,38.35,15.923,37.584,15.923 M38.576,12.313c-0.615,0-1.078,0.107-1.388,0.321c-0.31,0.214-0.465,0.517-0.465,0.909
		c0,0.319,0.106,0.573,0.318,0.762c0.212,0.189,0.496,0.284,0.851,0.284c0.328,0,0.637-0.08,0.926-0.239
		c0.289-0.159,0.507-0.374,0.653-0.643v-1.394H38.576 M27.416,15.923c-1.053,0-1.906-0.331-2.56-0.995
		c-0.654-0.663-0.981-1.546-0.981-2.649v-0.205c0-0.738,0.142-1.398,0.427-1.979c0.285-0.581,0.685-1.033,1.2-1.357
		c0.515-0.324,1.089-0.485,1.723-0.485c1.007,0,1.785,0.321,2.334,0.964c0.549,0.643,0.824,1.552,0.824,2.728v0.67H25.55
		c0.05,0.611,0.254,1.094,0.612,1.449c0.358,0.356,0.808,0.533,1.35,0.533c0.761,0,1.381-0.308,1.859-0.923l0.895,0.855
		c-0.296,0.442-0.692,0.785-1.186,1.029C28.586,15.801,28.031,15.923,27.416,15.923 M27.218,9.586c-0.456,0-0.824,0.16-1.104,0.478
		c-0.28,0.319-0.459,0.763-0.537,1.333h3.165v-0.123c-0.036-0.556-0.185-0.976-0.444-1.261C28.038,9.728,27.678,9.586,27.218,9.586
		 M513.668,15.786h-1.661V8.39h1.586l0.041,0.827c0.401-0.643,0.957-0.964,1.668-0.964c0.237,0,0.433,0.032,0.588,0.096
		l-0.007,1.559c-0.219-0.036-0.444-0.055-0.677-0.055c-0.761,0-1.274,0.292-1.538,0.875V15.786 M501.371,15.786h-1.661V9.62h-1.128
		V8.39h1.128V7.713c0-0.82,0.228-1.454,0.684-1.9c0.456-0.447,1.094-0.67,1.914-0.67c0.292,0,0.602,0.041,0.93,0.123l-0.041,1.299
		c-0.182-0.036-0.394-0.055-0.636-0.055c-0.793,0-1.189,0.408-1.189,1.224V8.39h1.504v1.23h-1.504V15.786 M489.062,15.786h-1.661
		v-4.792c0-0.469-0.102-0.817-0.304-1.042c-0.203-0.226-0.534-0.338-0.995-0.338c-0.67,0-1.169,0.303-1.497,0.909v5.264h-1.661V8.39
		h1.565l0.048,0.855c0.547-0.661,1.265-0.991,2.153-0.991c1.54,0,2.324,0.882,2.351,2.646V15.786 M473.555,15.786h-1.661v-4.812
		c0-0.469-0.103-0.813-0.308-1.032c-0.205-0.219-0.545-0.328-1.019-0.328c-0.378,0-0.687,0.101-0.926,0.304
		c-0.239,0.203-0.407,0.468-0.503,0.796l0.007,5.072h-1.661v-4.867c-0.023-0.87-0.467-1.306-1.333-1.306
		c-0.665,0-1.137,0.271-1.415,0.813v5.359h-1.661V8.39h1.565l0.048,0.772c0.52-0.606,1.23-0.909,2.133-0.909
		c0.989,0,1.666,0.378,2.03,1.135c0.538-0.757,1.294-1.135,2.27-1.135c0.816,0,1.423,0.226,1.822,0.677s0.603,1.117,0.612,1.996
		V15.786 M461.291,15.786h-1.661v-4.792c0-0.469-0.102-0.817-0.304-1.042c-0.203-0.226-0.534-0.338-0.995-0.338
		c-0.67,0-1.169,0.303-1.497,0.909v5.264h-1.661V8.39h1.565l0.048,0.855c0.547-0.661,1.265-0.991,2.153-0.991
		c1.54,0,2.324,0.882,2.352,2.646V15.786 M443.813,15.786h-1.661V8.39h1.586l0.041,0.827c0.401-0.643,0.957-0.964,1.668-0.964
		c0.237,0,0.433,0.032,0.588,0.096l-0.007,1.559c-0.219-0.036-0.444-0.055-0.677-0.055c-0.761,0-1.274,0.292-1.538,0.875V15.786
		 M440.286,15.786h-1.661V8.39h1.661V15.786 M434.882,15.786h-1.442l-2.584-7.396h1.723l1.586,5.291l1.566-5.291h1.716
		L434.882,15.786 M430.021,15.786h-1.661v-4.792c0-0.469-0.102-0.817-0.304-1.042c-0.203-0.226-0.534-0.338-0.995-0.338
		c-0.67,0-1.169,0.303-1.497,0.909v5.264h-1.661V8.39h1.565l0.048,0.855c0.547-0.661,1.265-0.991,2.153-0.991
		c1.54,0,2.324,0.882,2.351,2.646V15.786 M403.285,15.786h-1.661v-10.5h1.661V15.786 M379.273,15.786h-1.661V8.39h1.661V15.786
		 M340.702,15.786h-1.661v-4.792c0-0.469-0.102-0.817-0.304-1.042c-0.203-0.226-0.534-0.338-0.995-0.338
		c-0.67,0-1.169,0.303-1.497,0.909v5.264h-1.661V8.39h1.565l0.048,0.855c0.547-0.661,1.265-0.991,2.153-0.991
		c1.54,0,2.324,0.882,2.352,2.646V15.786 M309.285,15.786h-1.442l-2.584-7.396h1.723l1.586,5.291l1.565-5.291h1.716L309.285,15.786
		 M304.091,15.786h-1.661V8.39h1.661V15.786 M293.961,15.786H292.3V8.39h1.586l0.041,0.827c0.401-0.643,0.957-0.964,1.668-0.964
		c0.237,0,0.433,0.032,0.588,0.096l-0.007,1.559c-0.219-0.036-0.444-0.055-0.677-0.055c-0.761,0-1.274,0.292-1.538,0.875V15.786
		 M236.259,15.786h-1.661V9.62h-1.128V8.39h1.128V7.713c0-0.82,0.228-1.454,0.684-1.9c0.456-0.447,1.094-0.67,1.914-0.67
		c0.292,0,0.602,0.041,0.93,0.123l-0.041,1.299c-0.182-0.036-0.394-0.055-0.636-0.055c-0.793,0-1.189,0.408-1.189,1.224V8.39h1.504
		v1.23h-1.504V15.786 M194.764,15.786h-1.661v-4.792c0-0.469-0.101-0.817-0.304-1.042c-0.203-0.226-0.534-0.338-0.995-0.338
		c-0.67,0-1.169,0.303-1.497,0.909v5.264h-1.661V8.39h1.565l0.048,0.855c0.547-0.661,1.265-0.991,2.153-0.991
		c1.54,0,2.324,0.882,2.351,2.646V15.786 M186.793,15.786h-1.661V8.39h1.661V15.786 M181.731,15.786h-1.661V8.39h1.586l0.041,0.827
		c0.401-0.643,0.957-0.964,1.668-0.964c0.237,0,0.433,0.032,0.588,0.096l-0.007,1.559c-0.219-0.036-0.444-0.055-0.677-0.055
		c-0.761,0-1.274,0.292-1.538,0.875V15.786 M149.875,15.786h-1.661V9.62h-1.128V8.39h1.128V7.713c0-0.82,0.228-1.454,0.684-1.9
		c0.456-0.447,1.094-0.67,1.914-0.67c0.292,0,0.602,0.041,0.93,0.123l-0.041,1.299c-0.182-0.036-0.394-0.055-0.636-0.055
		c-0.793,0-1.189,0.408-1.189,1.224V8.39h1.504v1.23h-1.504V15.786 M100.774,15.786h-1.661V8.39h1.661V15.786 M97.277,15.786h-1.661
		v-4.812c0-0.469-0.102-0.813-0.308-1.032c-0.205-0.219-0.545-0.328-1.019-0.328c-0.378,0-0.687,0.101-0.926,0.304
		c-0.239,0.203-0.407,0.468-0.502,0.796l0.007,5.072h-1.661v-4.867c-0.023-0.87-0.467-1.306-1.333-1.306
		c-0.665,0-1.137,0.271-1.415,0.813v5.359h-1.661V8.39h1.565l0.048,0.772c0.52-0.606,1.23-0.909,2.133-0.909
		c0.989,0,1.666,0.378,2.03,1.135c0.538-0.757,1.294-1.135,2.269-1.135c0.816,0,1.423,0.226,1.822,0.677
		c0.399,0.451,0.603,1.117,0.612,1.996V15.786 M85.006,15.786h-1.661v-4.812c0-0.469-0.103-0.813-0.308-1.032
		c-0.205-0.219-0.545-0.328-1.019-0.328c-0.378,0-0.687,0.101-0.926,0.304c-0.239,0.203-0.407,0.468-0.502,0.796l0.007,5.072h-1.661
		v-4.867c-0.023-0.87-0.467-1.306-1.333-1.306c-0.665,0-1.137,0.271-1.415,0.813v5.359h-1.661V8.39h1.565l0.048,0.772
		c0.519-0.606,1.23-0.909,2.133-0.909c0.989,0,1.666,0.378,2.03,1.135c0.538-0.757,1.294-1.135,2.27-1.135
		c0.816,0,1.423,0.226,1.822,0.677c0.399,0.451,0.603,1.117,0.612,1.996V15.786 M44.591,15.786H42.93V8.39h1.586l0.041,0.827
		c0.401-0.643,0.957-0.964,1.668-0.964c0.237,0,0.433,0.032,0.588,0.096l-0.007,1.559c-0.219-0.036-0.444-0.055-0.677-0.055
		c-0.761,0-1.274,0.292-1.538,0.875V15.786 M21.022,15.786h-1.654L17.475,8.52l-1.935,7.267h-1.661l-2.297-9.953h1.716l1.545,7.478
		l1.9-7.478h1.449l1.88,7.492l1.531-7.492h1.716L21.022,15.786 M439.459,7.344c-0.301,0-0.532-0.083-0.694-0.249
		c-0.162-0.166-0.243-0.375-0.243-0.626c0-0.255,0.081-0.467,0.243-0.636c0.162-0.169,0.393-0.253,0.694-0.253
		c0.301,0,0.533,0.084,0.697,0.253c0.164,0.169,0.246,0.381,0.246,0.636c0,0.251-0.082,0.459-0.246,0.626
		C439.992,7.261,439.759,7.344,439.459,7.344 M378.446,7.344c-0.301,0-0.532-0.083-0.694-0.249
		c-0.162-0.166-0.243-0.375-0.243-0.626c0-0.255,0.081-0.467,0.243-0.636c0.162-0.169,0.393-0.253,0.694-0.253
		c0.301,0,0.533,0.084,0.697,0.253c0.164,0.169,0.246,0.381,0.246,0.636c0,0.251-0.082,0.459-0.246,0.626
		C378.98,7.261,378.747,7.344,378.446,7.344 M303.264,7.344c-0.301,0-0.532-0.083-0.694-0.249c-0.162-0.166-0.243-0.375-0.243-0.626
		c0-0.255,0.081-0.467,0.243-0.636c0.162-0.169,0.393-0.253,0.694-0.253c0.301,0,0.533,0.084,0.697,0.253
		c0.164,0.169,0.246,0.381,0.246,0.636c0,0.251-0.082,0.459-0.246,0.626C303.797,7.261,303.565,7.344,303.264,7.344 M185.966,7.344
		c-0.301,0-0.532-0.083-0.694-0.249c-0.162-0.166-0.243-0.375-0.243-0.626c0-0.255,0.081-0.467,0.243-0.636
		c0.162-0.169,0.393-0.253,0.694-0.253c0.301,0,0.533,0.084,0.697,0.253c0.164,0.169,0.246,0.381,0.246,0.636
		c0,0.251-0.082,0.459-0.246,0.626C186.499,7.261,186.267,7.344,185.966,7.344 M99.947,7.344c-0.301,0-0.532-0.083-0.694-0.249
		c-0.162-0.166-0.243-0.375-0.243-0.626c0-0.255,0.081-0.467,0.243-0.636c0.162-0.169,0.393-0.253,0.694-0.253
		c0.301,0,0.533,0.084,0.697,0.253c0.164,0.169,0.246,0.381,0.246,0.636c0,0.251-0.082,0.459-0.246,0.626
		C100.48,7.261,100.247,7.344,99.947,7.344"/>
	<path fill="#000000" d="M200.109,36.773c-0.242,0-0.508-0.041-0.8-0.124v-1.291l0.314,0.02c0.419,0,0.735-0.076,0.947-0.229
		c0.212-0.153,0.379-0.409,0.502-0.769l0.239-0.635l-2.598-7.357h1.791l1.565,5.018l1.504-5.018h1.771l-2.939,8.518
		C201.955,36.151,201.189,36.773,200.109,36.773 M196.802,33.923c-1.276,0-1.914-0.704-1.914-2.112v-4.19h-1.217v-1.23h1.217v-1.798
		h1.661v1.798h1.306v1.23h-1.306v4.129c0,0.283,0.056,0.487,0.167,0.612c0.112,0.125,0.311,0.188,0.598,0.188
		c0.191,0,0.385-0.023,0.581-0.068v1.285C197.517,33.87,197.153,33.923,196.802,33.923 M177.479,33.923
		c-0.802,0-1.409-0.235-1.822-0.704c-0.413-0.469-0.619-1.148-0.619-2.037V26.39h1.661v4.771c0,0.939,0.39,1.408,1.169,1.408
		c0.807,0,1.351-0.289,1.634-0.868V26.39h1.661v7.396h-1.565l-0.041-0.725C179.069,33.636,178.377,33.923,177.479,33.923
		 M145.629,33.923c-1.044,0-1.879-0.347-2.505-1.042c-0.627-0.695-0.94-1.621-0.94-2.779V30.02c0-0.725,0.144-1.378,0.431-1.958
		c0.287-0.581,0.69-1.028,1.21-1.34c0.519-0.312,1.116-0.468,1.791-0.468c0.998,0,1.808,0.321,2.43,0.964
		c0.622,0.642,0.958,1.495,1.008,2.557l0.007,0.39c0,0.729-0.14,1.381-0.42,1.955c-0.28,0.574-0.681,1.018-1.203,1.333
		C146.915,33.766,146.312,33.923,145.629,33.923 M145.615,27.586c-0.542,0-0.973,0.215-1.292,0.646
		c-0.319,0.431-0.479,1.074-0.479,1.931c0,0.761,0.157,1.357,0.472,1.788c0.314,0.431,0.752,0.646,1.312,0.646
		c0.561,0,0.997-0.219,1.309-0.656c0.312-0.437,0.468-1.078,0.468-1.921c0-0.747-0.161-1.34-0.482-1.777
		C146.603,27.805,146.166,27.586,145.615,27.586 M138.116,33.923c-1.035,0-1.855-0.335-2.461-1.005
		c-0.606-0.67-0.909-1.595-0.909-2.775v-0.171c0-1.126,0.301-2.027,0.902-2.704c0.602-0.677,1.422-1.015,2.461-1.015
		c0.88,0,1.596,0.256,2.15,0.769c0.554,0.513,0.844,1.186,0.872,2.02h-1.565c-0.018-0.424-0.163-0.772-0.434-1.046
		c-0.271-0.273-0.616-0.41-1.036-0.41c-0.538,0-0.953,0.195-1.244,0.585c-0.292,0.39-0.44,0.981-0.444,1.774v0.267
		c0,0.802,0.145,1.4,0.434,1.794c0.289,0.394,0.708,0.591,1.254,0.591c0.415,0,0.759-0.121,1.032-0.362
		c0.273-0.242,0.419-0.54,0.438-0.896h1.565c-0.018,0.46-0.162,0.89-0.431,1.289c-0.269,0.399-0.633,0.714-1.094,0.947
		C139.146,33.807,138.649,33.923,138.116,33.923 M121.029,33.923c-0.802,0-1.409-0.235-1.822-0.704
		c-0.413-0.469-0.619-1.148-0.619-2.037V26.39h1.661v4.771c0,0.939,0.39,1.408,1.169,1.408c0.807,0,1.351-0.289,1.634-0.868V26.39
		h1.661v7.396h-1.565l-0.041-0.725C122.619,33.636,121.926,33.923,121.029,33.923 M113.732,33.923c-1.044,0-1.879-0.347-2.505-1.042
		c-0.627-0.695-0.94-1.621-0.94-2.779V30.02c0-0.725,0.144-1.378,0.431-1.958c0.287-0.581,0.69-1.028,1.21-1.34
		c0.52-0.312,1.116-0.468,1.791-0.468c0.998,0,1.808,0.321,2.43,0.964c0.622,0.642,0.958,1.495,1.008,2.557l0.007,0.39
		c0,0.729-0.14,1.381-0.42,1.955c-0.28,0.574-0.681,1.018-1.203,1.333C115.018,33.766,114.416,33.923,113.732,33.923
		 M113.718,27.586c-0.542,0-0.973,0.215-1.292,0.646c-0.319,0.431-0.479,1.074-0.479,1.931c0,0.761,0.157,1.357,0.472,1.788
		c0.314,0.431,0.752,0.646,1.313,0.646c0.56,0,0.997-0.219,1.309-0.656c0.312-0.437,0.468-1.078,0.468-1.921
		c0-0.747-0.161-1.34-0.482-1.777C114.706,27.805,114.27,27.586,113.718,27.586 M97.28,33.923c-1.044,0-1.879-0.347-2.505-1.042
		c-0.627-0.695-0.94-1.621-0.94-2.779V30.02c0-0.725,0.144-1.378,0.431-1.958c0.287-0.581,0.69-1.028,1.21-1.34
		c0.52-0.312,1.117-0.468,1.791-0.468c0.998,0,1.808,0.321,2.43,0.964c0.622,0.642,0.958,1.495,1.008,2.557l0.007,0.39
		c0,0.729-0.14,1.381-0.42,1.955c-0.28,0.574-0.681,1.018-1.203,1.333C98.566,33.766,97.964,33.923,97.28,33.923 M97.266,27.586
		c-0.542,0-0.973,0.215-1.292,0.646c-0.319,0.431-0.479,1.074-0.479,1.931c0,0.761,0.157,1.357,0.472,1.788
		c0.314,0.431,0.752,0.646,1.312,0.646s0.997-0.219,1.309-0.656c0.312-0.437,0.468-1.078,0.468-1.921
		c0-0.747-0.161-1.34-0.482-1.777C98.254,27.805,97.818,27.586,97.266,27.586 M86.079,33.923c-0.606,0-1.146-0.109-1.62-0.328
		s-0.843-0.519-1.107-0.902c-0.264-0.383-0.396-0.795-0.396-1.237h1.613c0.023,0.392,0.171,0.694,0.444,0.906
		c0.274,0.212,0.636,0.318,1.087,0.318c0.437,0,0.77-0.083,0.998-0.249c0.228-0.166,0.342-0.384,0.342-0.653
		c0-0.296-0.122-0.522-0.366-0.677c-0.244-0.155-0.648-0.292-1.213-0.41c-0.565-0.118-1.037-0.269-1.415-0.451
		c-0.829-0.401-1.244-0.982-1.244-1.743c0-0.638,0.269-1.171,0.807-1.6c0.538-0.428,1.221-0.643,2.051-0.643
		c0.884,0,1.598,0.219,2.143,0.656c0.544,0.437,0.817,1.005,0.817,1.702h-1.661c0-0.319-0.119-0.584-0.355-0.796
		c-0.237-0.212-0.551-0.318-0.943-0.318c-0.365,0-0.662,0.084-0.892,0.253c-0.23,0.169-0.345,0.394-0.345,0.677
		c0,0.255,0.107,0.454,0.321,0.595c0.214,0.141,0.647,0.284,1.299,0.427c0.652,0.144,1.163,0.314,1.535,0.513
		c0.371,0.198,0.647,0.436,0.827,0.714c0.18,0.278,0.27,0.615,0.27,1.012c0,0.665-0.276,1.204-0.827,1.617
		S86.973,33.923,86.079,33.923 M73.843,33.923c-1.053,0-1.906-0.332-2.56-0.995c-0.654-0.663-0.981-1.546-0.981-2.649v-0.205
		c0-0.738,0.142-1.398,0.427-1.979c0.285-0.581,0.685-1.033,1.2-1.357s1.089-0.485,1.723-0.485c1.007,0,1.785,0.321,2.334,0.964
		c0.549,0.642,0.824,1.552,0.824,2.728v0.67h-4.833c0.05,0.611,0.254,1.094,0.612,1.449c0.358,0.355,0.808,0.533,1.35,0.533
		c0.761,0,1.381-0.308,1.859-0.923l0.895,0.855c-0.296,0.442-0.692,0.785-1.186,1.029C75.013,33.801,74.459,33.923,73.843,33.923
		 M73.645,27.586c-0.456,0-0.824,0.16-1.104,0.478c-0.28,0.319-0.459,0.763-0.537,1.333h3.165v-0.123
		c-0.036-0.556-0.185-0.976-0.444-1.261C74.466,27.728,74.106,27.586,73.645,27.586 M66.223,33.923c-0.866,0-1.54-0.312-2.023-0.937
		l-0.082,0.8h-1.504v-10.5h1.661v3.814c0.479-0.565,1.123-0.848,1.935-0.848c0.902,0,1.611,0.335,2.126,1.005
		c0.515,0.67,0.772,1.606,0.772,2.81v0.096c0,1.148-0.256,2.062-0.769,2.741C67.826,33.583,67.121,33.923,66.223,33.923
		 M65.793,27.613c-0.72,0-1.226,0.314-1.518,0.943v3.049c0.296,0.643,0.807,0.964,1.531,0.964c0.52,0,0.921-0.194,1.203-0.581
		c0.283-0.387,0.428-0.973,0.438-1.757V30.02c0-0.802-0.141-1.404-0.424-1.805C66.741,27.814,66.33,27.613,65.793,27.613
		 M45.941,33.923c-1.053,0-1.906-0.332-2.56-0.995c-0.654-0.663-0.981-1.546-0.981-2.649v-0.205c0-0.738,0.142-1.398,0.427-1.979
		c0.285-0.581,0.685-1.033,1.2-1.357c0.515-0.324,1.089-0.485,1.723-0.485c1.007,0,1.785,0.321,2.335,0.964
		c0.549,0.642,0.824,1.552,0.824,2.728v0.67h-4.833c0.05,0.611,0.254,1.094,0.612,1.449c0.358,0.355,0.808,0.533,1.35,0.533
		c0.761,0,1.381-0.308,1.859-0.923l0.896,0.855c-0.296,0.442-0.692,0.785-1.186,1.029C47.111,33.801,46.556,33.923,45.941,33.923
		 M45.743,27.586c-0.456,0-0.824,0.16-1.104,0.478c-0.28,0.319-0.459,0.763-0.537,1.333h3.165v-0.123
		c-0.037-0.556-0.185-0.976-0.444-1.261C46.563,27.728,46.203,27.586,45.743,27.586 M14.392,33.923
		c-0.743,0-1.349-0.212-1.818-0.636c-0.469-0.424-0.704-0.948-0.704-1.572c0-0.788,0.293-1.393,0.878-1.815
		c0.585-0.421,1.423-0.632,2.512-0.632h1.019v-0.485c0-0.383-0.107-0.689-0.321-0.919c-0.214-0.23-0.54-0.345-0.978-0.345
		c-0.378,0-0.688,0.095-0.93,0.284c-0.242,0.189-0.362,0.43-0.362,0.721h-1.661c0-0.406,0.134-0.785,0.403-1.138
		c0.269-0.353,0.635-0.63,1.097-0.831c0.462-0.201,0.979-0.301,1.548-0.301c0.866,0,1.556,0.218,2.071,0.653
		c0.515,0.435,0.779,1.047,0.793,1.835v3.336c0,0.665,0.093,1.196,0.28,1.593v0.116h-1.695c-0.073-0.141-0.137-0.371-0.191-0.69
		C15.804,33.647,15.157,33.923,14.392,33.923 M15.383,30.313c-0.615,0-1.078,0.107-1.388,0.321c-0.31,0.214-0.465,0.517-0.465,0.909
		c0,0.319,0.106,0.573,0.318,0.762c0.212,0.189,0.496,0.284,0.851,0.284c0.328,0,0.637-0.08,0.926-0.239
		c0.289-0.159,0.507-0.374,0.653-0.643v-1.394H15.383 M206.67,33.861c-0.296,0-0.531-0.084-0.704-0.253
		c-0.173-0.169-0.26-0.385-0.26-0.649c0-0.264,0.084-0.484,0.253-0.66c0.169-0.175,0.406-0.263,0.711-0.263
		c0.31,0,0.549,0.088,0.718,0.263c0.169,0.175,0.253,0.395,0.253,0.66c0,0.26-0.084,0.475-0.253,0.646
		C207.219,33.776,206.98,33.861,206.67,33.861 M192.55,33.786h-1.661V26.39h1.661V33.786 M189.06,33.786h-1.661v-4.792
		c0-0.469-0.101-0.817-0.304-1.042c-0.203-0.226-0.534-0.338-0.995-0.338c-0.67,0-1.169,0.303-1.497,0.909v5.264h-1.661V26.39h1.565
		l0.048,0.855c0.547-0.661,1.265-0.991,2.153-0.991c1.54,0,2.324,0.882,2.352,2.646V33.786 M173.3,33.786h-1.661v-4.812
		c0-0.469-0.103-0.813-0.308-1.032c-0.205-0.219-0.545-0.328-1.019-0.328c-0.378,0-0.687,0.101-0.926,0.304
		c-0.239,0.203-0.407,0.468-0.502,0.796l0.007,5.072h-1.661v-4.867c-0.023-0.87-0.467-1.306-1.333-1.306
		c-0.665,0-1.137,0.271-1.415,0.813v5.359h-1.661V26.39h1.565l0.048,0.772c0.519-0.606,1.23-0.909,2.133-0.909
		c0.989,0,1.666,0.378,2.03,1.135c0.538-0.757,1.294-1.135,2.27-1.135c0.816,0,1.423,0.226,1.822,0.677s0.603,1.117,0.612,1.996
		V33.786 M161.029,33.786h-1.661v-4.812c0-0.469-0.103-0.813-0.308-1.032c-0.205-0.219-0.545-0.328-1.019-0.328
		c-0.378,0-0.687,0.101-0.926,0.304c-0.239,0.203-0.407,0.468-0.503,0.796l0.007,5.072h-1.661v-4.867
		c-0.023-0.87-0.467-1.306-1.333-1.306c-0.665,0-1.137,0.271-1.415,0.813v5.359h-1.661V26.39h1.565l0.048,0.772
		c0.52-0.606,1.23-0.909,2.133-0.909c0.989,0,1.666,0.378,2.03,1.135c0.538-0.757,1.294-1.135,2.27-1.135
		c0.816,0,1.423,0.226,1.822,0.677s0.603,1.117,0.612,1.996V33.786 M128.166,33.786h-1.661V26.39h1.586l0.041,0.827
		c0.401-0.643,0.957-0.964,1.668-0.964c0.237,0,0.433,0.032,0.588,0.096l-0.007,1.559c-0.219-0.036-0.444-0.055-0.677-0.055
		c-0.761,0-1.274,0.292-1.538,0.875V33.786 M104.254,33.786h-1.661V27.62h-1.128v-1.23h1.128v-0.677c0-0.82,0.228-1.454,0.684-1.9
		c0.456-0.447,1.094-0.67,1.914-0.67c0.292,0,0.602,0.041,0.93,0.123l-0.041,1.299c-0.182-0.036-0.394-0.055-0.636-0.055
		c-0.793,0-1.189,0.408-1.189,1.224v0.656h1.504v1.23h-1.504V33.786 M79.906,33.786h-1.661V26.39h1.586l0.041,0.827
		c0.401-0.643,0.957-0.964,1.668-0.964c0.237,0,0.433,0.032,0.588,0.096l-0.007,1.559c-0.219-0.036-0.444-0.055-0.677-0.055
		c-0.761,0-1.274,0.292-1.538,0.875V33.786 M60.822,33.786h-1.661v-4.812c0-0.469-0.103-0.813-0.308-1.032
		c-0.205-0.219-0.545-0.328-1.019-0.328c-0.378,0-0.687,0.101-0.926,0.304c-0.239,0.203-0.407,0.468-0.502,0.796l0.007,5.072h-1.661
		v-4.867c-0.023-0.87-0.467-1.306-1.333-1.306c-0.665,0-1.137,0.271-1.415,0.813v5.359h-1.661V26.39h1.565l0.048,0.772
		c0.52-0.606,1.23-0.909,2.133-0.909c0.989,0,1.666,0.378,2.03,1.135c0.538-0.757,1.294-1.135,2.269-1.135
		c0.816,0,1.423,0.226,1.822,0.677c0.399,0.451,0.603,1.117,0.612,1.996V33.786 M40.94,33.786h-1.661v-4.812
		c0-0.469-0.102-0.813-0.308-1.032c-0.205-0.219-0.545-0.328-1.019-0.328c-0.378,0-0.687,0.101-0.926,0.304
		c-0.239,0.203-0.407,0.468-0.502,0.796l0.007,5.072H34.87v-4.867c-0.023-0.87-0.467-1.306-1.333-1.306
		c-0.665,0-1.137,0.271-1.415,0.813v5.359h-1.661V26.39h1.565l0.048,0.772c0.52-0.606,1.23-0.909,2.133-0.909
		c0.989,0,1.666,0.378,2.03,1.135c0.538-0.757,1.294-1.135,2.269-1.135c0.816,0,1.423,0.226,1.822,0.677
		c0.399,0.451,0.603,1.117,0.612,1.996V33.786 M25.03,33.786h-1.661v-10.5h1.661V33.786 M21.464,33.786h-1.661v-10.5h1.661V33.786
		 M191.723,25.344c-0.301,0-0.532-0.083-0.694-0.249c-0.162-0.166-0.243-0.375-0.243-0.626c0-0.255,0.081-0.467,0.243-0.636
		c0.162-0.169,0.393-0.253,0.694-0.253c0.301,0,0.533,0.084,0.697,0.253c0.164,0.169,0.246,0.381,0.246,0.636
		c0,0.251-0.082,0.459-0.246,0.626C192.256,25.261,192.024,25.344,191.723,25.344"/>
	<path fill="#000000" d="M431.932,72.63h-1.661V62.39h1.531l0.068,0.752c0.488-0.592,1.151-0.889,1.989-0.889
		c0.902,0,1.61,0.336,2.123,1.008c0.513,0.672,0.769,1.605,0.769,2.799v0.103c0,1.144-0.26,2.056-0.779,2.738
		c-0.519,0.681-1.217,1.022-2.092,1.022c-0.811,0-1.461-0.267-1.948-0.8V72.63 M433.395,63.613c-0.679,0-1.167,0.28-1.463,0.841
		v3.281c0.301,0.574,0.793,0.861,1.477,0.861c0.529,0,0.942-0.213,1.241-0.639c0.298-0.426,0.448-1.072,0.448-1.938
		c0-0.738-0.147-1.324-0.441-1.757C434.362,63.83,433.942,63.613,433.395,63.613 M472.133,69.923c-0.606,0-1.146-0.109-1.62-0.328
		c-0.474-0.219-0.843-0.519-1.107-0.902c-0.264-0.383-0.397-0.795-0.397-1.237h1.613c0.023,0.392,0.171,0.694,0.444,0.906
		c0.273,0.212,0.636,0.318,1.087,0.318c0.438,0,0.77-0.083,0.998-0.25c0.228-0.166,0.342-0.384,0.342-0.653
		c0-0.296-0.122-0.522-0.366-0.677c-0.244-0.155-0.648-0.292-1.213-0.41c-0.565-0.118-1.037-0.269-1.415-0.451
		c-0.829-0.401-1.244-0.982-1.244-1.743c0-0.638,0.269-1.171,0.807-1.6c0.538-0.428,1.221-0.643,2.051-0.643
		c0.884,0,1.598,0.219,2.143,0.656c0.545,0.437,0.817,1.005,0.817,1.702h-1.661c0-0.319-0.119-0.585-0.355-0.796
		c-0.237-0.212-0.551-0.318-0.943-0.318c-0.365,0-0.662,0.084-0.892,0.253c-0.23,0.169-0.345,0.394-0.345,0.677
		c0,0.255,0.107,0.454,0.321,0.595c0.214,0.141,0.647,0.284,1.299,0.427c0.652,0.143,1.163,0.314,1.535,0.513
		c0.371,0.198,0.647,0.436,0.827,0.714c0.18,0.278,0.27,0.615,0.27,1.012c0,0.665-0.276,1.204-0.827,1.617
		C473.748,69.717,473.026,69.923,472.133,69.923 M455.586,69.923c-1.276,0-1.914-0.704-1.914-2.112v-4.19h-1.217v-1.23h1.217v-1.798
		h1.661v1.798h1.306v1.23h-1.306v4.129c0,0.283,0.056,0.487,0.167,0.612c0.112,0.125,0.311,0.188,0.598,0.188
		c0.191,0,0.385-0.023,0.581-0.068v1.285C456.302,69.87,455.937,69.923,455.586,69.923 M420.86,69.923
		c-1.053,0-1.906-0.332-2.56-0.995c-0.654-0.663-0.981-1.546-0.981-2.649v-0.205c0-0.738,0.142-1.398,0.427-1.979
		c0.285-0.581,0.685-1.033,1.2-1.357c0.515-0.324,1.089-0.485,1.723-0.485c1.007,0,1.785,0.321,2.335,0.964
		c0.549,0.642,0.824,1.552,0.824,2.728v0.67h-4.833c0.05,0.611,0.254,1.094,0.612,1.449s0.808,0.533,1.35,0.533
		c0.761,0,1.381-0.308,1.859-0.923l0.896,0.855c-0.296,0.442-0.692,0.785-1.186,1.029C422.031,69.801,421.476,69.923,420.86,69.923
		 M420.662,63.586c-0.456,0-0.824,0.16-1.104,0.478c-0.28,0.319-0.459,0.763-0.537,1.333h3.165v-0.123
		c-0.036-0.556-0.185-0.976-0.444-1.261C421.483,63.728,421.122,63.586,420.662,63.586 M412.252,69.923
		c-0.866,0-1.567-0.349-2.102-1.046c-0.536-0.697-0.803-1.645-0.803-2.844c0-1.139,0.264-2.054,0.793-2.745
		c0.529-0.69,1.237-1.036,2.126-1.036c0.784,0,1.417,0.274,1.9,0.82v-3.787h1.661v10.5h-1.504l-0.082-0.766
		C413.744,69.622,413.081,69.923,412.252,69.923 M412.689,63.613c-0.538,0-0.952,0.213-1.244,0.639
		c-0.292,0.426-0.438,1.068-0.438,1.924c0,0.752,0.145,1.339,0.434,1.76c0.289,0.422,0.701,0.632,1.234,0.632
		c0.679,0,1.176-0.303,1.49-0.909v-3.158C413.86,63.91,413.368,63.613,412.689,63.613 M396.303,69.923
		c-0.802,0-1.409-0.235-1.822-0.704c-0.413-0.469-0.619-1.148-0.619-2.037V62.39h1.661v4.771c0,0.939,0.39,1.408,1.169,1.408
		c0.807,0,1.351-0.289,1.634-0.868V62.39h1.661v7.396h-1.565l-0.041-0.725C397.893,69.636,397.201,69.923,396.303,69.923
		 M387.953,69.923c-1.276,0-1.914-0.704-1.914-2.112v-4.19h-1.217v-1.23h1.217v-1.798h1.661v1.798h1.306v1.23H387.7v4.129
		c0,0.283,0.056,0.487,0.167,0.612c0.112,0.125,0.311,0.188,0.598,0.188c0.191,0,0.385-0.023,0.581-0.068v1.285
		C388.668,69.87,388.304,69.923,387.953,69.923 M380.283,69.923c-0.743,0-1.349-0.212-1.818-0.636
		c-0.469-0.424-0.704-0.948-0.704-1.572c0-0.788,0.293-1.393,0.878-1.815c0.586-0.421,1.423-0.632,2.512-0.632h1.019v-0.485
		c0-0.383-0.107-0.689-0.321-0.919c-0.214-0.23-0.54-0.345-0.978-0.345c-0.378,0-0.688,0.095-0.93,0.284
		c-0.242,0.189-0.362,0.43-0.362,0.721h-1.661c0-0.406,0.134-0.785,0.403-1.138c0.269-0.353,0.635-0.63,1.097-0.831
		c0.462-0.2,0.979-0.301,1.548-0.301c0.866,0,1.556,0.218,2.071,0.653c0.515,0.435,0.779,1.047,0.793,1.835v3.336
		c0,0.665,0.093,1.196,0.28,1.593v0.116h-1.695c-0.073-0.141-0.137-0.371-0.191-0.69C381.696,69.647,381.049,69.923,380.283,69.923
		 M381.275,66.313c-0.615,0-1.078,0.107-1.388,0.321c-0.31,0.214-0.465,0.517-0.465,0.909c0,0.319,0.106,0.573,0.318,0.762
		c0.212,0.189,0.496,0.284,0.851,0.284c0.328,0,0.637-0.08,0.926-0.239c0.289-0.159,0.507-0.374,0.653-0.643v-1.394H381.275
		 M367.811,69.923c-1.276,0-1.914-0.704-1.914-2.112v-4.19h-1.217v-1.23h1.217v-1.798h1.661v1.798h1.306v1.23h-1.306v4.129
		c0,0.283,0.056,0.487,0.167,0.612c0.112,0.125,0.311,0.188,0.598,0.188c0.191,0,0.385-0.023,0.581-0.068v1.285
		C368.527,69.87,368.162,69.923,367.811,69.923 M357.41,69.923c-0.606,0-1.146-0.109-1.62-0.328
		c-0.474-0.219-0.843-0.519-1.107-0.902c-0.264-0.383-0.396-0.795-0.396-1.237h1.613c0.023,0.392,0.171,0.694,0.444,0.906
		c0.273,0.212,0.636,0.318,1.087,0.318c0.438,0,0.77-0.083,0.998-0.25c0.228-0.166,0.342-0.384,0.342-0.653
		c0-0.296-0.122-0.522-0.366-0.677c-0.244-0.155-0.648-0.292-1.213-0.41c-0.565-0.118-1.037-0.269-1.415-0.451
		c-0.83-0.401-1.244-0.982-1.244-1.743c0-0.638,0.269-1.171,0.807-1.6c0.538-0.428,1.221-0.643,2.051-0.643
		c0.884,0,1.599,0.219,2.143,0.656c0.544,0.437,0.817,1.005,0.817,1.702h-1.661c0-0.319-0.119-0.585-0.355-0.796
		c-0.237-0.212-0.551-0.318-0.943-0.318c-0.365,0-0.662,0.084-0.892,0.253c-0.23,0.169-0.345,0.394-0.345,0.677
		c0,0.255,0.107,0.454,0.321,0.595c0.214,0.141,0.647,0.284,1.299,0.427c0.652,0.143,1.163,0.314,1.535,0.513
		c0.371,0.198,0.647,0.436,0.827,0.714c0.18,0.278,0.27,0.615,0.27,1.012c0,0.665-0.276,1.204-0.827,1.617
		C359.026,69.717,358.304,69.923,357.41,69.923 M350.333,69.923c-1.053,0-1.906-0.332-2.56-0.995
		c-0.654-0.663-0.981-1.546-0.981-2.649v-0.205c0-0.738,0.142-1.398,0.427-1.979c0.285-0.581,0.685-1.033,1.2-1.357
		c0.515-0.324,1.089-0.485,1.723-0.485c1.007,0,1.785,0.321,2.335,0.964c0.549,0.642,0.824,1.552,0.824,2.728v0.67h-4.833
		c0.05,0.611,0.254,1.094,0.612,1.449c0.358,0.355,0.808,0.533,1.35,0.533c0.761,0,1.381-0.308,1.859-0.923l0.896,0.855
		c-0.296,0.442-0.692,0.785-1.186,1.029C351.503,69.801,350.948,69.923,350.333,69.923 M350.135,63.586
		c-0.456,0-0.824,0.16-1.104,0.478c-0.28,0.319-0.459,0.763-0.537,1.333h3.165v-0.123c-0.036-0.556-0.185-0.976-0.444-1.261
		C350.955,63.728,350.595,63.586,350.135,63.586 M341.23,69.923c-1.276,0-1.914-0.704-1.914-2.112v-4.19h-1.217v-1.23h1.217v-1.798
		h1.661v1.798h1.306v1.23h-1.306v4.129c0,0.283,0.056,0.487,0.167,0.612c0.112,0.125,0.311,0.188,0.598,0.188
		c0.191,0,0.385-0.023,0.581-0.068v1.285C341.945,69.87,341.581,69.923,341.23,69.923 M321.907,69.923
		c-0.802,0-1.409-0.235-1.822-0.704c-0.413-0.469-0.619-1.148-0.619-2.037V62.39h1.661v4.771c0,0.939,0.39,1.408,1.169,1.408
		c0.807,0,1.351-0.289,1.634-0.868V62.39h1.661v7.396h-1.565l-0.041-0.725C323.498,69.636,322.805,69.923,321.907,69.923
		 M290.057,69.923c-1.044,0-1.879-0.347-2.505-1.042c-0.627-0.695-0.94-1.621-0.94-2.779V66.02c0-0.725,0.144-1.378,0.431-1.959
		c0.287-0.581,0.69-1.028,1.21-1.34c0.52-0.312,1.117-0.468,1.791-0.468c0.998,0,1.808,0.321,2.43,0.964
		c0.622,0.642,0.958,1.495,1.008,2.557l0.007,0.39c0,0.729-0.14,1.381-0.42,1.955c-0.28,0.574-0.681,1.019-1.203,1.333
		C291.343,69.766,290.74,69.923,290.057,69.923 M290.043,63.586c-0.542,0-0.973,0.215-1.292,0.646
		c-0.319,0.431-0.478,1.074-0.478,1.931c0,0.761,0.157,1.357,0.472,1.788c0.314,0.431,0.752,0.646,1.312,0.646
		c0.56,0,0.997-0.219,1.309-0.656c0.312-0.438,0.468-1.078,0.468-1.921c0-0.747-0.161-1.34-0.482-1.777
		C291.031,63.805,290.595,63.586,290.043,63.586 M282.544,69.923c-1.035,0-1.855-0.335-2.461-1.005
		c-0.606-0.67-0.909-1.595-0.909-2.775v-0.171c0-1.126,0.301-2.027,0.902-2.704c0.602-0.677,1.422-1.015,2.461-1.015
		c0.879,0,1.596,0.256,2.15,0.769s0.844,1.186,0.872,2.02h-1.565c-0.018-0.424-0.163-0.772-0.434-1.046
		c-0.271-0.273-0.616-0.41-1.036-0.41c-0.538,0-0.953,0.195-1.244,0.584c-0.292,0.39-0.44,0.981-0.444,1.774v0.267
		c0,0.802,0.145,1.4,0.434,1.794c0.289,0.394,0.708,0.591,1.254,0.591c0.415,0,0.759-0.121,1.032-0.362
		c0.273-0.242,0.419-0.54,0.438-0.896h1.565c-0.018,0.46-0.162,0.89-0.431,1.289c-0.269,0.399-0.634,0.714-1.094,0.947
		C283.574,69.807,283.077,69.923,282.544,69.923 M270.551,69.923c-0.866,0-1.567-0.349-2.102-1.046
		c-0.536-0.697-0.803-1.645-0.803-2.844c0-1.139,0.264-2.054,0.793-2.745s1.237-1.036,2.126-1.036c0.784,0,1.417,0.274,1.9,0.82
		v-3.787h1.661v10.5h-1.504l-0.082-0.766C272.043,69.622,271.38,69.923,270.551,69.923 M270.988,63.613
		c-0.538,0-0.953,0.213-1.244,0.639c-0.292,0.426-0.437,1.068-0.437,1.924c0,0.752,0.145,1.339,0.434,1.76
		c0.289,0.422,0.701,0.632,1.234,0.632c0.679,0,1.176-0.303,1.49-0.909v-3.158C272.16,63.91,271.667,63.613,270.988,63.613
		 M254.733,69.923c-0.743,0-1.349-0.212-1.818-0.636c-0.469-0.424-0.704-0.948-0.704-1.572c0-0.788,0.293-1.393,0.878-1.815
		c0.585-0.421,1.423-0.632,2.512-0.632h1.019v-0.485c0-0.383-0.107-0.689-0.321-0.919c-0.214-0.23-0.54-0.345-0.978-0.345
		c-0.378,0-0.688,0.095-0.93,0.284c-0.242,0.189-0.362,0.43-0.362,0.721h-1.661c0-0.406,0.134-0.785,0.403-1.138
		c0.269-0.353,0.635-0.63,1.097-0.831c0.462-0.2,0.979-0.301,1.548-0.301c0.866,0,1.556,0.218,2.071,0.653
		c0.515,0.435,0.779,1.047,0.793,1.835v3.336c0,0.665,0.093,1.196,0.28,1.593v0.116h-1.695c-0.073-0.141-0.137-0.371-0.191-0.69
		C256.146,69.647,255.499,69.923,254.733,69.923 M255.724,66.313c-0.615,0-1.078,0.107-1.388,0.321
		c-0.31,0.214-0.465,0.517-0.465,0.909c0,0.319,0.106,0.573,0.318,0.762c0.212,0.189,0.496,0.284,0.851,0.284
		c0.328,0,0.637-0.08,0.926-0.239c0.289-0.159,0.507-0.374,0.653-0.643v-1.394H255.724 M244.38,69.923
		c-0.606,0-1.146-0.109-1.62-0.328c-0.474-0.219-0.843-0.519-1.107-0.902c-0.264-0.383-0.396-0.795-0.396-1.237h1.613
		c0.023,0.392,0.171,0.694,0.444,0.906c0.273,0.212,0.636,0.318,1.087,0.318c0.438,0,0.77-0.083,0.998-0.25
		c0.228-0.166,0.342-0.384,0.342-0.653c0-0.296-0.122-0.522-0.366-0.677c-0.244-0.155-0.648-0.292-1.213-0.41
		c-0.565-0.118-1.037-0.269-1.415-0.451c-0.829-0.401-1.244-0.982-1.244-1.743c0-0.638,0.269-1.171,0.807-1.6
		c0.538-0.428,1.221-0.643,2.051-0.643c0.884,0,1.598,0.219,2.143,0.656s0.817,1.005,0.817,1.702h-1.661
		c0-0.319-0.118-0.585-0.355-0.796c-0.237-0.212-0.552-0.318-0.943-0.318c-0.365,0-0.662,0.084-0.892,0.253
		c-0.23,0.169-0.345,0.394-0.345,0.677c0,0.255,0.107,0.454,0.321,0.595c0.214,0.141,0.647,0.284,1.299,0.427
		c0.652,0.143,1.163,0.314,1.535,0.513c0.371,0.198,0.647,0.436,0.827,0.714c0.18,0.278,0.27,0.615,0.27,1.012
		c0,0.665-0.276,1.204-0.827,1.617C245.996,69.717,245.273,69.923,244.38,69.923 M237.303,69.923c-1.053,0-1.906-0.332-2.56-0.995
		s-0.981-1.546-0.981-2.649v-0.205c0-0.738,0.142-1.398,0.427-1.979c0.285-0.581,0.685-1.033,1.2-1.357
		c0.515-0.324,1.089-0.485,1.723-0.485c1.007,0,1.785,0.321,2.335,0.964c0.549,0.642,0.824,1.552,0.824,2.728v0.67h-4.833
		c0.05,0.611,0.254,1.094,0.612,1.449c0.358,0.355,0.808,0.533,1.35,0.533c0.761,0,1.381-0.308,1.859-0.923l0.896,0.855
		c-0.296,0.442-0.692,0.785-1.186,1.029C238.473,69.801,237.918,69.923,237.303,69.923 M237.105,63.586
		c-0.456,0-0.824,0.16-1.104,0.478c-0.28,0.319-0.459,0.763-0.537,1.333h3.165v-0.123c-0.037-0.556-0.185-0.976-0.444-1.261
		C237.925,63.728,237.565,63.586,237.105,63.586 M229.681,69.923c-1.034,0-1.855-0.335-2.461-1.005
		c-0.606-0.67-0.909-1.595-0.909-2.775v-0.171c0-1.126,0.301-2.027,0.902-2.704c0.601-0.677,1.422-1.015,2.461-1.015
		c0.88,0,1.596,0.256,2.15,0.769s0.844,1.186,0.872,2.02h-1.565c-0.018-0.424-0.163-0.772-0.434-1.046
		c-0.271-0.273-0.616-0.41-1.036-0.41c-0.538,0-0.953,0.195-1.244,0.584c-0.292,0.39-0.44,0.981-0.444,1.774v0.267
		c0,0.802,0.145,1.4,0.434,1.794c0.289,0.394,0.708,0.591,1.254,0.591c0.415,0,0.759-0.121,1.032-0.362
		c0.273-0.242,0.419-0.54,0.437-0.896h1.565c-0.018,0.46-0.162,0.89-0.431,1.289c-0.269,0.399-0.633,0.714-1.094,0.947
		C230.711,69.807,230.214,69.923,229.681,69.923 M216.139,69.923c-0.802,0-1.409-0.235-1.822-0.704
		c-0.413-0.469-0.619-1.148-0.619-2.037V62.39h1.661v4.771c0,0.939,0.39,1.408,1.169,1.408c0.807,0,1.351-0.289,1.634-0.868V62.39
		h1.661v7.396h-1.565l-0.041-0.725C217.729,69.636,217.037,69.923,216.139,69.923 M208.842,69.923c-1.044,0-1.879-0.347-2.505-1.042
		c-0.627-0.695-0.94-1.621-0.94-2.779V66.02c0-0.725,0.144-1.378,0.431-1.959c0.287-0.581,0.69-1.028,1.21-1.34
		c0.52-0.312,1.117-0.468,1.791-0.468c0.998,0,1.808,0.321,2.43,0.964c0.622,0.642,0.958,1.495,1.008,2.557l0.007,0.39
		c0,0.729-0.14,1.381-0.42,1.955c-0.28,0.574-0.681,1.019-1.203,1.333C210.128,69.766,209.526,69.923,208.842,69.923
		 M208.829,63.586c-0.542,0-0.973,0.215-1.292,0.646c-0.319,0.431-0.479,1.074-0.479,1.931c0,0.761,0.157,1.357,0.472,1.788
		s0.752,0.646,1.312,0.646c0.56,0,0.997-0.219,1.309-0.656c0.312-0.438,0.468-1.078,0.468-1.921c0-0.747-0.161-1.34-0.482-1.777
		C209.816,63.805,209.38,63.586,208.829,63.586 M201.26,69.923c-0.606,0-1.146-0.109-1.62-0.328
		c-0.474-0.219-0.843-0.519-1.107-0.902c-0.264-0.383-0.396-0.795-0.396-1.237h1.613c0.023,0.392,0.171,0.694,0.444,0.906
		c0.273,0.212,0.636,0.318,1.087,0.318c0.437,0,0.77-0.083,0.998-0.25c0.228-0.166,0.342-0.384,0.342-0.653
		c0-0.296-0.122-0.522-0.366-0.677c-0.244-0.155-0.648-0.292-1.213-0.41c-0.565-0.118-1.037-0.269-1.415-0.451
		c-0.829-0.401-1.244-0.982-1.244-1.743c0-0.638,0.269-1.171,0.807-1.6c0.538-0.428,1.221-0.643,2.051-0.643
		c0.884,0,1.598,0.219,2.143,0.656c0.544,0.437,0.817,1.005,0.817,1.702h-1.661c0-0.319-0.119-0.585-0.355-0.796
		c-0.237-0.212-0.551-0.318-0.943-0.318c-0.365,0-0.662,0.084-0.892,0.253c-0.23,0.169-0.345,0.394-0.345,0.677
		c0,0.255,0.107,0.454,0.321,0.595c0.214,0.141,0.647,0.284,1.299,0.427c0.652,0.143,1.163,0.314,1.535,0.513
		c0.371,0.198,0.647,0.436,0.827,0.714c0.18,0.278,0.27,0.615,0.27,1.012c0,0.665-0.276,1.204-0.827,1.617
		C202.875,69.717,202.153,69.923,201.26,69.923 M194.182,69.923c-1.053,0-1.906-0.332-2.56-0.995
		c-0.654-0.663-0.981-1.546-0.981-2.649v-0.205c0-0.738,0.142-1.398,0.427-1.979c0.285-0.581,0.685-1.033,1.2-1.357
		c0.515-0.324,1.089-0.485,1.723-0.485c1.007,0,1.785,0.321,2.334,0.964c0.549,0.642,0.824,1.552,0.824,2.728v0.67h-4.833
		c0.05,0.611,0.254,1.094,0.612,1.449c0.358,0.355,0.808,0.533,1.35,0.533c0.761,0,1.381-0.308,1.859-0.923l0.895,0.855
		c-0.296,0.442-0.692,0.785-1.186,1.029C195.352,69.801,194.798,69.923,194.182,69.923 M193.984,63.586
		c-0.456,0-0.824,0.16-1.104,0.478c-0.28,0.319-0.459,0.763-0.537,1.333h3.165v-0.123c-0.036-0.556-0.185-0.976-0.444-1.261
		C194.804,63.728,194.444,63.586,193.984,63.586 M178.082,69.923c-1.053,0-1.906-0.332-2.56-0.995
		c-0.654-0.663-0.981-1.546-0.981-2.649v-0.205c0-0.738,0.142-1.398,0.427-1.979c0.285-0.581,0.685-1.033,1.2-1.357
		c0.515-0.324,1.089-0.485,1.723-0.485c1.007,0,1.785,0.321,2.335,0.964c0.549,0.642,0.824,1.552,0.824,2.728v0.67h-4.833
		c0.05,0.611,0.254,1.094,0.612,1.449s0.808,0.533,1.35,0.533c0.761,0,1.381-0.308,1.859-0.923l0.896,0.855
		c-0.296,0.442-0.692,0.785-1.186,1.029C179.252,69.801,178.697,69.923,178.082,69.923 M177.884,63.586
		c-0.456,0-0.824,0.16-1.104,0.478c-0.28,0.319-0.459,0.763-0.537,1.333h3.165v-0.123c-0.037-0.556-0.185-0.976-0.444-1.261
		C178.704,63.728,178.344,63.586,177.884,63.586 M164.618,69.923c-1.276,0-1.914-0.704-1.914-2.112v-4.19h-1.217v-1.23h1.217v-1.798
		h1.661v1.798h1.306v1.23h-1.306v4.129c0,0.283,0.056,0.487,0.168,0.612c0.112,0.125,0.311,0.188,0.598,0.188
		c0.191,0,0.385-0.023,0.581-0.068v1.285C165.334,69.87,164.969,69.923,164.618,69.923 M148.966,69.923
		c-1.044,0-1.879-0.347-2.505-1.042c-0.627-0.695-0.94-1.621-0.94-2.779V66.02c0-0.725,0.144-1.378,0.431-1.959
		c0.287-0.581,0.69-1.028,1.21-1.34c0.52-0.312,1.117-0.468,1.791-0.468c0.998,0,1.808,0.321,2.43,0.964
		c0.622,0.642,0.958,1.495,1.008,2.557l0.007,0.39c0,0.729-0.14,1.381-0.42,1.955c-0.28,0.574-0.681,1.019-1.203,1.333
		C150.252,69.766,149.649,69.923,148.966,69.923 M148.952,63.586c-0.542,0-0.973,0.215-1.292,0.646
		c-0.319,0.431-0.479,1.074-0.479,1.931c0,0.761,0.157,1.357,0.472,1.788c0.314,0.431,0.752,0.646,1.312,0.646
		c0.56,0,0.997-0.219,1.309-0.656c0.312-0.438,0.468-1.078,0.468-1.921c0-0.747-0.161-1.34-0.482-1.777
		C149.94,63.805,149.503,63.586,148.952,63.586 M137.95,69.923c-1.053,0-1.906-0.332-2.56-0.995
		c-0.654-0.663-0.981-1.546-0.981-2.649v-0.205c0-0.738,0.142-1.398,0.427-1.979c0.285-0.581,0.685-1.033,1.2-1.357
		c0.515-0.324,1.089-0.485,1.723-0.485c1.007,0,1.785,0.321,2.334,0.964c0.549,0.642,0.824,1.552,0.824,2.728v0.67h-4.833
		c0.05,0.611,0.254,1.094,0.612,1.449c0.358,0.355,0.808,0.533,1.35,0.533c0.761,0,1.381-0.308,1.859-0.923l0.895,0.855
		c-0.296,0.442-0.692,0.785-1.186,1.029C139.12,69.801,138.565,69.923,137.95,69.923 M137.752,63.586
		c-0.456,0-0.824,0.16-1.104,0.478c-0.28,0.319-0.459,0.763-0.537,1.333h3.165v-0.123c-0.036-0.556-0.185-0.976-0.444-1.261
		C138.572,63.728,138.212,63.586,137.752,63.586 M117.548,69.923c-1.044,0-1.879-0.347-2.505-1.042
		c-0.627-0.695-0.94-1.621-0.94-2.779V66.02c0-0.725,0.144-1.378,0.431-1.959c0.287-0.581,0.69-1.028,1.21-1.34
		c0.52-0.312,1.117-0.468,1.791-0.468c0.998,0,1.808,0.321,2.43,0.964c0.622,0.642,0.958,1.495,1.008,2.557l0.007,0.39
		c0,0.729-0.14,1.381-0.42,1.955c-0.28,0.574-0.681,1.019-1.203,1.333C118.835,69.766,118.232,69.923,117.548,69.923
		 M117.535,63.586c-0.542,0-0.973,0.215-1.292,0.646c-0.319,0.431-0.478,1.074-0.478,1.931c0,0.761,0.157,1.357,0.472,1.788
		s0.752,0.646,1.312,0.646c0.56,0,0.997-0.219,1.309-0.656c0.312-0.438,0.468-1.078,0.468-1.921c0-0.747-0.161-1.34-0.482-1.777
		C118.523,63.805,118.086,63.586,117.535,63.586 M109.966,69.923c-0.606,0-1.146-0.109-1.62-0.328
		c-0.474-0.219-0.843-0.519-1.107-0.902c-0.264-0.383-0.396-0.795-0.396-1.237h1.613c0.023,0.392,0.171,0.694,0.444,0.906
		c0.273,0.212,0.636,0.318,1.087,0.318c0.438,0,0.77-0.083,0.998-0.25c0.228-0.166,0.342-0.384,0.342-0.653
		c0-0.296-0.122-0.522-0.366-0.677c-0.244-0.155-0.648-0.292-1.213-0.41c-0.565-0.118-1.037-0.269-1.415-0.451
		c-0.829-0.401-1.244-0.982-1.244-1.743c0-0.638,0.269-1.171,0.807-1.6c0.538-0.428,1.221-0.643,2.051-0.643
		c0.884,0,1.598,0.219,2.143,0.656c0.544,0.437,0.817,1.005,0.817,1.702h-1.661c0-0.319-0.119-0.585-0.355-0.796
		c-0.237-0.212-0.551-0.318-0.943-0.318c-0.365,0-0.662,0.084-0.892,0.253c-0.23,0.169-0.345,0.394-0.345,0.677
		c0,0.255,0.107,0.454,0.321,0.595c0.214,0.141,0.647,0.284,1.299,0.427c0.652,0.143,1.163,0.314,1.535,0.513
		c0.371,0.198,0.647,0.436,0.827,0.714c0.18,0.278,0.27,0.615,0.27,1.012c0,0.665-0.276,1.204-0.827,1.617
		C111.581,69.717,110.859,69.923,109.966,69.923 M98.246,69.923c-0.866,0-1.567-0.349-2.102-1.046
		c-0.536-0.697-0.803-1.645-0.803-2.844c0-1.139,0.264-2.054,0.793-2.745c0.529-0.69,1.237-1.036,2.126-1.036
		c0.784,0,1.417,0.274,1.9,0.82v-3.787h1.661v10.5h-1.504l-0.082-0.766C99.738,69.622,99.075,69.923,98.246,69.923 M98.683,63.613
		c-0.538,0-0.953,0.213-1.244,0.639s-0.438,1.068-0.438,1.924c0,0.752,0.145,1.339,0.434,1.76c0.289,0.422,0.701,0.632,1.234,0.632
		c0.679,0,1.176-0.303,1.49-0.909v-3.158C99.854,63.91,99.362,63.613,98.683,63.613 M91.244,69.923c-1.053,0-1.906-0.332-2.56-0.995
		c-0.654-0.663-0.981-1.546-0.981-2.649v-0.205c0-0.738,0.142-1.398,0.427-1.979c0.285-0.581,0.685-1.033,1.2-1.357
		c0.515-0.324,1.089-0.485,1.723-0.485c1.007,0,1.785,0.321,2.335,0.964c0.549,0.642,0.824,1.552,0.824,2.728v0.67h-4.833
		c0.05,0.611,0.254,1.094,0.612,1.449c0.358,0.355,0.808,0.533,1.35,0.533c0.761,0,1.381-0.308,1.859-0.923l0.896,0.855
		c-0.296,0.442-0.692,0.785-1.186,1.029C92.414,69.801,91.859,69.923,91.244,69.923 M91.045,63.586c-0.456,0-0.824,0.16-1.104,0.478
		c-0.28,0.319-0.459,0.763-0.537,1.333h3.165v-0.123c-0.036-0.556-0.185-0.976-0.444-1.261
		C91.866,63.728,91.506,63.586,91.045,63.586 M70.596,69.923c-1.276,0-1.914-0.704-1.914-2.112v-4.19h-1.217v-1.23h1.217v-1.798
		h1.661v1.798h1.306v1.23h-1.306v4.129c0,0.283,0.056,0.487,0.167,0.612c0.112,0.125,0.311,0.188,0.598,0.188
		c0.191,0,0.385-0.023,0.581-0.068v1.285C71.311,69.87,70.947,69.923,70.596,69.923 M62.721,69.923
		c-0.802,0-1.409-0.235-1.822-0.704c-0.413-0.469-0.619-1.148-0.619-2.037V62.39h1.661v4.771c0,0.939,0.39,1.408,1.169,1.408
		c0.807,0,1.351-0.289,1.634-0.868V62.39h1.661v7.396H64.84l-0.041-0.725C64.312,69.636,63.619,69.923,62.721,69.923 M55.425,69.923
		c-1.044,0-1.879-0.347-2.505-1.042c-0.627-0.695-0.94-1.621-0.94-2.779V66.02c0-0.725,0.144-1.378,0.431-1.959
		c0.287-0.581,0.69-1.028,1.21-1.34c0.519-0.312,1.117-0.468,1.791-0.468c0.998,0,1.808,0.321,2.43,0.964
		c0.622,0.642,0.958,1.495,1.008,2.557l0.007,0.39c0,0.729-0.14,1.381-0.42,1.955c-0.28,0.574-0.681,1.019-1.203,1.333
		C56.711,69.766,56.108,69.923,55.425,69.923 M55.411,63.586c-0.542,0-0.973,0.215-1.292,0.646
		c-0.319,0.431-0.478,1.074-0.478,1.931c0,0.761,0.157,1.357,0.472,1.788c0.314,0.431,0.752,0.646,1.312,0.646
		c0.56,0,0.997-0.219,1.309-0.656c0.312-0.438,0.468-1.078,0.468-1.921c0-0.747-0.161-1.34-0.482-1.777
		C56.399,63.805,55.962,63.586,55.411,63.586 M44.408,69.923c-1.053,0-1.906-0.332-2.56-0.995c-0.654-0.663-0.981-1.546-0.981-2.649
		v-0.205c0-0.738,0.142-1.398,0.427-1.979c0.285-0.581,0.685-1.033,1.2-1.357c0.515-0.324,1.089-0.485,1.723-0.485
		c1.007,0,1.785,0.321,2.335,0.964c0.549,0.642,0.824,1.552,0.824,2.728v0.67h-4.833c0.05,0.611,0.254,1.094,0.612,1.449
		c0.358,0.355,0.808,0.533,1.35,0.533c0.761,0,1.381-0.308,1.859-0.923l0.896,0.855c-0.296,0.442-0.692,0.785-1.186,1.029
		C45.579,69.801,45.024,69.923,44.408,69.923 M44.21,63.586c-0.456,0-0.824,0.16-1.104,0.478c-0.28,0.319-0.459,0.763-0.537,1.333
		h3.165v-0.123c-0.037-0.556-0.185-0.976-0.444-1.261C45.031,63.728,44.67,63.586,44.21,63.586 M27.416,69.923
		c-1.053,0-1.906-0.332-2.56-0.995s-0.981-1.546-0.981-2.649v-0.205c0-0.738,0.142-1.398,0.427-1.979
		c0.285-0.581,0.685-1.033,1.2-1.357c0.515-0.324,1.089-0.485,1.723-0.485c1.007,0,1.785,0.321,2.334,0.964
		c0.549,0.642,0.824,1.552,0.824,2.728v0.67H25.55c0.05,0.611,0.254,1.094,0.612,1.449c0.358,0.355,0.808,0.533,1.35,0.533
		c0.761,0,1.381-0.308,1.859-0.923l0.895,0.855c-0.296,0.442-0.692,0.785-1.186,1.029C28.586,69.801,28.031,69.923,27.416,69.923
		 M27.218,63.586c-0.456,0-0.824,0.16-1.104,0.478c-0.28,0.319-0.459,0.763-0.537,1.333h3.165v-0.123
		c-0.036-0.556-0.185-0.976-0.444-1.261C28.038,63.728,27.678,63.586,27.218,63.586 M467.546,69.786h-1.661V62.39h1.661V69.786
		 M464.063,69.786h-1.661v-4.771c0-0.51-0.111-0.872-0.332-1.083c-0.221-0.212-0.546-0.318-0.974-0.318
		c-0.665,0-1.162,0.296-1.49,0.889v5.284h-1.661v-10.5h1.661v3.91c0.542-0.629,1.228-0.943,2.058-0.943c1.577,0,2.377,0.9,2.399,2.7
		V69.786 M447.933,69.786h-1.661v-4.792c0-0.469-0.101-0.817-0.304-1.043c-0.203-0.226-0.534-0.338-0.995-0.338
		c-0.67,0-1.169,0.303-1.497,0.909v5.264h-1.661V62.39h1.565l0.048,0.854c0.547-0.661,1.265-0.991,2.153-0.991
		c1.54,0,2.324,0.882,2.352,2.646V69.786 M439.962,69.786h-1.661V62.39h1.661V69.786 M426.923,69.786h-1.661V62.39h1.586
		l0.041,0.827c0.401-0.643,0.957-0.964,1.668-0.964c0.237,0,0.433,0.032,0.588,0.096l-0.007,1.559
		c-0.219-0.036-0.444-0.055-0.677-0.055c-0.761,0-1.274,0.292-1.538,0.875V69.786 M407.884,69.786h-1.661v-4.792
		c0-0.469-0.102-0.817-0.304-1.043c-0.203-0.226-0.534-0.338-0.995-0.338c-0.67,0-1.169,0.303-1.497,0.909v5.264h-1.661V62.39h1.565
		l0.048,0.854c0.547-0.661,1.265-0.991,2.153-0.991c1.54,0,2.324,0.882,2.351,2.646V69.786 M376.288,69.786h-1.661v-4.771
		c0-0.51-0.111-0.872-0.332-1.083c-0.221-0.212-0.546-0.318-0.974-0.318c-0.665,0-1.162,0.296-1.49,0.889v5.284h-1.661v-10.5h1.661
		v3.91c0.542-0.629,1.228-0.943,2.058-0.943c1.577,0,2.377,0.9,2.399,2.7V69.786 M345.275,69.786h-1.661V62.39h1.661V69.786
		 M336.978,69.786h-1.661V62.39h1.661V69.786 M333.488,69.786h-1.661v-4.792c0-0.469-0.102-0.817-0.304-1.043
		c-0.203-0.226-0.534-0.338-0.995-0.338c-0.67,0-1.169,0.303-1.497,0.909v5.264h-1.661V62.39h1.565l0.048,0.854
		c0.547-0.661,1.265-0.991,2.153-0.991c1.54,0,2.324,0.882,2.351,2.646V69.786 M317.729,69.786h-1.661v-4.812
		c0-0.469-0.103-0.813-0.308-1.032c-0.205-0.219-0.545-0.328-1.019-0.328c-0.378,0-0.687,0.101-0.926,0.304
		c-0.239,0.203-0.407,0.468-0.503,0.796l0.007,5.072h-1.661v-4.867c-0.023-0.87-0.467-1.306-1.333-1.306
		c-0.665,0-1.137,0.271-1.415,0.813v5.359h-1.661V62.39h1.565l0.048,0.772c0.52-0.606,1.23-0.909,2.133-0.909
		c0.989,0,1.666,0.378,2.03,1.135c0.538-0.756,1.294-1.135,2.27-1.135c0.816,0,1.423,0.226,1.822,0.677
		c0.399,0.451,0.603,1.117,0.612,1.996V69.786 M305.458,69.786h-1.661v-4.812c0-0.469-0.102-0.813-0.308-1.032
		c-0.205-0.219-0.545-0.328-1.019-0.328c-0.378,0-0.687,0.101-0.926,0.304c-0.239,0.203-0.407,0.468-0.502,0.796l0.007,5.072h-1.661
		v-4.867c-0.023-0.87-0.467-1.306-1.333-1.306c-0.665,0-1.137,0.271-1.415,0.813v5.359h-1.661V62.39h1.565l0.048,0.772
		c0.52-0.606,1.23-0.909,2.133-0.909c0.989,0,1.666,0.378,2.03,1.135c0.538-0.756,1.294-1.135,2.269-1.135
		c0.816,0,1.423,0.226,1.822,0.677c0.399,0.451,0.603,1.117,0.612,1.996V69.786 M266.184,69.786h-1.661v-4.792
		c0-0.469-0.102-0.817-0.304-1.043c-0.203-0.226-0.534-0.338-0.995-0.338c-0.67,0-1.169,0.303-1.497,0.909v5.264h-1.661V62.39h1.565
		l0.048,0.854c0.547-0.661,1.265-0.991,2.153-0.991c1.54,0,2.324,0.882,2.352,2.646V69.786 M223.277,69.786h-1.661V62.39h1.586
		l0.041,0.827c0.401-0.643,0.957-0.964,1.668-0.964c0.237,0,0.433,0.032,0.588,0.096l-0.007,1.559
		c-0.219-0.036-0.444-0.055-0.677-0.055c-0.761,0-1.274,0.292-1.538,0.875V69.786 M187.622,69.786h-1.661V62.39h1.586l0.041,0.827
		c0.401-0.643,0.957-0.964,1.668-0.964c0.237,0,0.433,0.032,0.588,0.096l-0.007,1.559c-0.219-0.036-0.444-0.055-0.677-0.055
		c-0.761,0-1.274,0.292-1.538,0.875V69.786 M173.095,69.786h-1.661v-4.771c0-0.51-0.111-0.872-0.331-1.083
		c-0.221-0.212-0.546-0.318-0.974-0.318c-0.665,0-1.162,0.296-1.49,0.889v5.284h-1.661v-10.5h1.661v3.91
		c0.542-0.629,1.228-0.943,2.058-0.943c1.577,0,2.377,0.9,2.399,2.7V69.786 M155.94,69.786h-1.661V63.62h-1.128v-1.23h1.128v-0.677
		c0-0.82,0.228-1.454,0.684-1.9c0.456-0.447,1.094-0.67,1.914-0.67c0.292,0,0.602,0.041,0.93,0.123l-0.041,1.299
		c-0.182-0.036-0.394-0.055-0.636-0.055c-0.793,0-1.189,0.408-1.189,1.224v0.656h1.504v1.23h-1.504V69.786 M132.949,69.786h-1.661
		v-4.812c0-0.469-0.103-0.813-0.308-1.032c-0.205-0.219-0.545-0.328-1.019-0.328c-0.378,0-0.687,0.101-0.926,0.304
		c-0.239,0.203-0.407,0.468-0.502,0.796l0.007,5.072h-1.661v-4.867c-0.023-0.87-0.467-1.306-1.333-1.306
		c-0.665,0-1.137,0.271-1.415,0.813v5.359h-1.661V62.39h1.565l0.048,0.772c0.519-0.606,1.23-0.909,2.133-0.909
		c0.989,0,1.666,0.378,2.03,1.135c0.538-0.756,1.294-1.135,2.27-1.135c0.816,0,1.423,0.226,1.822,0.677
		c0.399,0.451,0.603,1.117,0.612,1.996V69.786 M86.25,69.786h-1.661v-4.792c0-0.469-0.101-0.817-0.304-1.043
		c-0.203-0.226-0.534-0.338-0.995-0.338c-0.67,0-1.169,0.303-1.497,0.909v5.264h-1.661V62.39h1.565l0.048,0.854
		c0.547-0.661,1.265-0.991,2.153-0.991c1.54,0,2.324,0.882,2.352,2.646V69.786 M78.279,69.786h-1.661V62.39h1.661V69.786
		 M74.703,69.786h-1.661v-10.5h1.661V69.786 M37.768,69.786h-1.442l-2.584-7.396h1.723l1.586,5.291l1.565-5.291h1.716L37.768,69.786
		 M21.022,69.786h-1.654l-1.894-7.267l-1.935,7.267h-1.661l-2.297-9.953h1.716l1.545,7.478l1.9-7.478h1.449l1.88,7.492l1.531-7.492
		h1.716L21.022,69.786 M31.793,62.786l-0.848-0.526c0.41-0.597,0.622-1.228,0.636-1.894v-1.08h1.456v0.943
		c0,0.469-0.12,0.942-0.359,1.418C32.439,62.124,32.144,62.504,31.793,62.786 M466.719,61.344c-0.301,0-0.532-0.083-0.694-0.249
		c-0.162-0.166-0.243-0.375-0.243-0.626c0-0.255,0.081-0.467,0.243-0.636c0.162-0.169,0.393-0.253,0.694-0.253
		s0.533,0.084,0.697,0.253c0.164,0.169,0.246,0.38,0.246,0.636c0,0.251-0.082,0.459-0.246,0.626
		C467.252,61.261,467.019,61.344,466.719,61.344 M439.135,61.344c-0.301,0-0.532-0.083-0.694-0.249
		c-0.162-0.166-0.243-0.375-0.243-0.626c0-0.255,0.081-0.467,0.243-0.636c0.162-0.169,0.393-0.253,0.694-0.253
		c0.301,0,0.533,0.084,0.697,0.253c0.164,0.169,0.246,0.38,0.246,0.636c0,0.251-0.082,0.459-0.246,0.626
		C439.669,61.261,439.436,61.344,439.135,61.344 M344.447,61.344c-0.301,0-0.532-0.083-0.694-0.249
		c-0.162-0.166-0.243-0.375-0.243-0.626c0-0.255,0.081-0.467,0.243-0.636c0.162-0.169,0.393-0.253,0.694-0.253
		s0.533,0.084,0.697,0.253c0.164,0.169,0.246,0.38,0.246,0.636c0,0.251-0.082,0.459-0.246,0.626
		C344.981,61.261,344.748,61.344,344.447,61.344 M336.151,61.344c-0.301,0-0.532-0.083-0.694-0.249
		c-0.162-0.166-0.243-0.375-0.243-0.626c0-0.255,0.081-0.467,0.243-0.636c0.162-0.169,0.393-0.253,0.694-0.253
		c0.301,0,0.533,0.084,0.697,0.253c0.164,0.169,0.246,0.38,0.246,0.636c0,0.251-0.082,0.459-0.246,0.626
		C336.684,61.261,336.452,61.344,336.151,61.344 M77.452,61.344c-0.301,0-0.532-0.083-0.694-0.249
		c-0.162-0.166-0.243-0.375-0.243-0.626c0-0.255,0.081-0.467,0.243-0.636c0.162-0.169,0.393-0.253,0.694-0.253
		c0.301,0,0.533,0.084,0.697,0.253c0.164,0.169,0.246,0.38,0.246,0.636c0,0.251-0.082,0.459-0.246,0.626
		C77.985,61.261,77.752,61.344,77.452,61.344"/>
	<path fill="#000000" d="M118.853,87.923c-1.044,0-1.879-0.347-2.505-1.042c-0.627-0.695-0.94-1.621-0.94-2.779V84.02
		c0-0.725,0.144-1.378,0.431-1.959c0.287-0.581,0.69-1.028,1.21-1.34c0.52-0.312,1.117-0.468,1.791-0.468
		c0.998,0,1.808,0.321,2.43,0.964c0.622,0.642,0.958,1.495,1.008,2.557l0.007,0.39c0,0.729-0.14,1.381-0.42,1.955
		c-0.28,0.574-0.681,1.019-1.203,1.333C120.14,87.766,119.537,87.923,118.853,87.923 M118.84,81.586
		c-0.542,0-0.973,0.215-1.292,0.646c-0.319,0.431-0.478,1.074-0.478,1.931c0,0.761,0.157,1.357,0.472,1.788
		c0.315,0.431,0.752,0.646,1.312,0.646s0.997-0.219,1.309-0.656c0.312-0.438,0.468-1.078,0.468-1.921
		c0-0.747-0.161-1.34-0.482-1.777C119.828,81.805,119.391,81.586,118.84,81.586 M107.744,87.923c-1.053,0-1.906-0.332-2.56-0.995
		c-0.654-0.663-0.981-1.546-0.981-2.649v-0.205c0-0.738,0.142-1.398,0.427-1.979c0.285-0.581,0.685-1.033,1.2-1.357
		c0.515-0.324,1.089-0.485,1.723-0.485c1.007,0,1.785,0.321,2.335,0.964c0.549,0.642,0.824,1.552,0.824,2.728v0.67h-4.833
		c0.05,0.611,0.254,1.094,0.612,1.449c0.358,0.355,0.808,0.533,1.35,0.533c0.761,0,1.381-0.308,1.859-0.923l0.896,0.855
		c-0.296,0.442-0.692,0.785-1.186,1.029C108.914,87.801,108.36,87.923,107.744,87.923 M107.546,81.586
		c-0.456,0-0.824,0.16-1.104,0.479c-0.28,0.319-0.459,0.763-0.537,1.333h3.165v-0.123c-0.036-0.556-0.185-0.976-0.444-1.261
		C108.366,81.728,108.006,81.586,107.546,81.586 M100.124,87.923c-0.866,0-1.54-0.312-2.023-0.937l-0.082,0.8h-1.504v-10.5h1.661
		v3.814c0.478-0.565,1.123-0.848,1.935-0.848c0.902,0,1.611,0.335,2.126,1.005c0.515,0.67,0.772,1.606,0.772,2.81v0.096
		c0,1.148-0.256,2.062-0.769,2.741C101.727,87.583,101.022,87.923,100.124,87.923 M99.694,81.613c-0.72,0-1.226,0.314-1.518,0.943
		v3.049c0.296,0.643,0.807,0.964,1.531,0.964c0.52,0,0.921-0.194,1.203-0.581c0.283-0.387,0.428-0.973,0.437-1.757V84.02
		c0-0.802-0.141-1.404-0.424-1.805C100.642,81.814,100.231,81.613,99.694,81.613 M90.571,87.923c-1.276,0-1.914-0.704-1.914-2.112
		v-4.19H87.44v-1.23h1.217v-1.798h1.661v1.798h1.306v1.23h-1.306v4.129c0,0.283,0.056,0.487,0.167,0.612
		c0.112,0.125,0.311,0.188,0.598,0.188c0.191,0,0.385-0.023,0.581-0.068v1.285C91.287,87.87,90.922,87.923,90.571,87.923
		 M75.949,87.923c-1.053,0-1.906-0.332-2.56-0.995c-0.654-0.663-0.981-1.546-0.981-2.649v-0.205c0-0.738,0.142-1.398,0.427-1.979
		c0.285-0.581,0.685-1.033,1.2-1.357c0.515-0.324,1.089-0.485,1.723-0.485c1.007,0,1.785,0.321,2.335,0.964
		c0.549,0.642,0.824,1.552,0.824,2.728v0.67h-4.833c0.05,0.611,0.254,1.094,0.612,1.449c0.358,0.355,0.808,0.533,1.35,0.533
		c0.761,0,1.381-0.308,1.859-0.923l0.896,0.855c-0.296,0.442-0.692,0.785-1.186,1.029C77.119,87.801,76.564,87.923,75.949,87.923
		 M75.751,81.586c-0.456,0-0.824,0.16-1.104,0.479c-0.28,0.319-0.459,0.763-0.537,1.333h3.165v-0.123
		c-0.036-0.556-0.185-0.976-0.444-1.261C76.571,81.728,76.211,81.586,75.751,81.586 M58.097,87.923
		c-1.276,0-1.914-0.704-1.914-2.112v-4.19h-1.217v-1.23h1.217v-1.798h1.661v1.798h1.306v1.23h-1.306v4.129
		c0,0.283,0.056,0.487,0.167,0.612c0.112,0.125,0.311,0.188,0.598,0.188c0.191,0,0.385-0.023,0.581-0.068v1.285
		C58.812,87.87,58.448,87.923,58.097,87.923 M22.677,87.923c-1.044,0-1.879-0.347-2.505-1.042c-0.627-0.695-0.94-1.621-0.94-2.779
		V84.02c0-0.725,0.144-1.378,0.431-1.959c0.287-0.581,0.69-1.028,1.21-1.34c0.519-0.312,1.116-0.468,1.791-0.468
		c0.998,0,1.808,0.321,2.43,0.964c0.622,0.642,0.958,1.495,1.008,2.557l0.007,0.39c0,0.729-0.14,1.381-0.42,1.955
		c-0.28,0.574-0.681,1.019-1.203,1.333C23.963,87.766,23.36,87.923,22.677,87.923 M22.663,81.586c-0.542,0-0.973,0.215-1.292,0.646
		c-0.319,0.431-0.478,1.074-0.478,1.931c0,0.761,0.157,1.357,0.472,1.788c0.314,0.431,0.752,0.646,1.312,0.646
		c0.56,0,0.997-0.219,1.309-0.656c0.312-0.438,0.468-1.078,0.468-1.921c0-0.747-0.161-1.34-0.482-1.777
		C23.651,81.805,23.214,81.586,22.663,81.586 M15.164,87.923c-1.035,0-1.855-0.335-2.461-1.005c-0.606-0.67-0.909-1.595-0.909-2.775
		v-0.171c0-1.126,0.301-2.027,0.902-2.704c0.601-0.677,1.422-1.015,2.461-1.015c0.88,0,1.596,0.256,2.15,0.769
		c0.554,0.513,0.844,1.186,0.872,2.02h-1.565c-0.018-0.424-0.163-0.772-0.434-1.046c-0.271-0.273-0.616-0.41-1.036-0.41
		c-0.538,0-0.953,0.195-1.244,0.584c-0.292,0.39-0.44,0.981-0.444,1.774v0.267c0,0.802,0.145,1.4,0.434,1.794
		c0.289,0.394,0.708,0.591,1.254,0.591c0.415,0,0.759-0.121,1.032-0.362c0.274-0.242,0.419-0.54,0.437-0.896h1.565
		c-0.018,0.46-0.162,0.89-0.431,1.289c-0.269,0.399-0.633,0.714-1.094,0.947C16.194,87.807,15.697,87.923,15.164,87.923
		 M134.484,87.861c-0.296,0-0.531-0.084-0.704-0.253c-0.173-0.169-0.26-0.385-0.26-0.649c0-0.264,0.084-0.484,0.253-0.66
		c0.169-0.175,0.406-0.263,0.711-0.263c0.31,0,0.549,0.088,0.718,0.263c0.169,0.175,0.253,0.395,0.253,0.66
		c0,0.26-0.084,0.475-0.253,0.646C135.034,87.776,134.794,87.861,134.484,87.861 M130.846,87.786h-1.367l-1.586-5.079l-1.559,5.079
		h-1.367l-2.023-7.396h1.62l1.196,5.052l1.518-5.052h1.251l1.538,5.106l1.176-5.106h1.62L130.846,87.786 M113.872,87.786h-1.661
		v-10.5h1.661V87.786 M86.455,87.786h-1.661v-4.792c0-0.469-0.101-0.817-0.304-1.043c-0.203-0.226-0.534-0.338-0.995-0.338
		c-0.67,0-1.169,0.303-1.497,0.909v5.264h-1.661V80.39h1.565l0.048,0.854c0.547-0.661,1.265-0.991,2.153-0.991
		c1.54,0,2.324,0.882,2.351,2.646V87.786 M70.948,87.786h-1.661v-4.812c0-0.469-0.103-0.813-0.308-1.032
		c-0.205-0.219-0.545-0.328-1.019-0.328c-0.378,0-0.687,0.101-0.926,0.304c-0.239,0.203-0.407,0.468-0.502,0.796l0.007,5.072h-1.661
		v-4.867c-0.023-0.87-0.467-1.306-1.333-1.306c-0.665,0-1.137,0.271-1.415,0.813v5.359h-1.661V80.39h1.565l0.048,0.772
		c0.519-0.606,1.23-0.909,2.133-0.909c0.989,0,1.666,0.378,2.03,1.135c0.538-0.756,1.294-1.135,2.269-1.135
		c0.816,0,1.423,0.226,1.822,0.677c0.399,0.451,0.603,1.117,0.612,1.996V87.786 M53.845,87.786h-1.661V80.39h1.661V87.786
		 M50.349,87.786h-1.661v-4.812c0-0.469-0.103-0.813-0.308-1.032c-0.205-0.219-0.545-0.328-1.019-0.328
		c-0.378,0-0.687,0.101-0.926,0.304c-0.239,0.203-0.407,0.468-0.502,0.796l0.007,5.072h-1.661v-4.867
		c-0.023-0.87-0.467-1.306-1.333-1.306c-0.665,0-1.137,0.271-1.415,0.813v5.359h-1.661V80.39h1.565l0.048,0.772
		c0.519-0.606,1.23-0.909,2.133-0.909c0.989,0,1.666,0.378,2.03,1.135c0.538-0.756,1.294-1.135,2.27-1.135
		c0.816,0,1.423,0.226,1.822,0.677c0.399,0.451,0.603,1.117,0.612,1.996V87.786 M38.077,87.786h-1.661v-4.812
		c0-0.469-0.103-0.813-0.308-1.032c-0.205-0.219-0.545-0.328-1.019-0.328c-0.378,0-0.687,0.101-0.926,0.304
		c-0.239,0.203-0.407,0.468-0.503,0.796l0.007,5.072h-1.661v-4.867c-0.023-0.87-0.467-1.306-1.333-1.306
		c-0.665,0-1.137,0.271-1.415,0.813v5.359h-1.661V80.39h1.565l0.048,0.772c0.519-0.606,1.23-0.909,2.133-0.909
		c0.989,0,1.666,0.378,2.03,1.135c0.538-0.756,1.294-1.135,2.269-1.135c0.816,0,1.423,0.226,1.822,0.677
		c0.399,0.451,0.603,1.117,0.612,1.996V87.786 M53.018,79.344c-0.301,0-0.532-0.083-0.694-0.249
		c-0.162-0.166-0.243-0.375-0.243-0.626c0-0.255,0.081-0.467,0.243-0.636c0.162-0.169,0.393-0.253,0.694-0.253
		c0.301,0,0.533,0.084,0.697,0.253c0.164,0.169,0.246,0.38,0.246,0.636c0,0.251-0.082,0.459-0.246,0.626
		C53.551,79.261,53.319,79.344,53.018,79.344"/>
</g>
</svg>
