<!-- Generator: Adobe InDesign 20.4 SVG Export Plug-in, SVG Library version: 9.3 build 117 -->
<!DOCTYPE svg PUBLIC "-//W3C//DTD SVG 1.1//EN" "http://www.w3.org/Graphics/SVG/1.1/DTD/svg11.dtd">
<svg version="1.1" xmlns="http://www.w3.org/2000/svg" xmlns:xlink="http://www.w3.org/1999/xlink" x="0%" y="0%" width="100%"
	 height="100%" viewBox="0 0 530.271 137.716" preserveAspectRatio="xMidYMid slice" overflow="visible" xml:space="preserve">
<clipPath id="clp_unq_id_1" fill="none">
	<path shape-rendering="crispEdges" stroke="#000000" d="M0,0h530.271v137.716H0V0"/>
</clipPath>
<g clip-path="url(#clp_unq_id_1)" fill="none">
	<path fill="#E0EDF9" d="M7.966,1.116v135.6h516.936V1.116H7.966"/>
	<path fill="#000000" d="M86.93,18.882l-0.308-1.036c0.308-0.098,0.714-0.294,1.079-0.602c0.336-0.266,0.756-0.742,1.037-1.373
		c0.056-0.126,0.098-0.224,0.098-0.294c0-0.07-0.028-0.168-0.084-0.322l-2.507-6.247h1.345l1.485,4.006
		c0.154,0.448,0.322,0.981,0.434,1.387h0.028c0.126-0.406,0.266-0.925,0.434-1.415l1.345-3.978h1.303l-1.849,4.833
		c-0.883,2.325-1.485,3.516-2.325,4.244C87.841,18.616,87.239,18.826,86.93,18.882 M297.791,18.714c-0.812,0-1.709-0.196-2.255-0.56
		l0.308-0.939c0.448,0.28,1.149,0.532,1.989,0.532c1.261,0,2.185-0.658,2.185-2.367v-0.756h-0.028
		c-0.378,0.63-1.107,1.135-2.157,1.135c-1.681,0-2.886-1.429-2.886-3.306c0-2.297,1.499-3.6,3.054-3.6
		c1.177,0,1.821,0.616,2.115,1.177h0.028l0.056-1.023h1.079c-0.028,0.49-0.056,1.036-0.056,1.863v3.936
		c0,1.555-0.308,2.507-0.967,3.096C299.598,18.518,298.645,18.714,297.791,18.714 M298.211,9.819c-1.177,0-2.017,0.995-2.017,2.563
		c0,1.331,0.672,2.437,2.003,2.437c0.757,0,1.443-0.476,1.709-1.261c0.07-0.21,0.098-0.448,0.098-0.658v-1.219
		c0-0.21-0.014-0.392-0.07-0.56C299.71,10.407,299.108,9.819,298.211,9.819 M80.337,17.509c0.308-0.826,0.686-2.325,0.841-3.348
		l1.373-0.14c-0.322,1.191-0.939,2.745-1.331,3.404L80.337,17.509 M316.124,15.94c-1.835,0-3.25-1.345-3.25-3.488
		c0-2.269,1.485-3.6,3.362-3.6c1.947,0,3.264,1.415,3.264,3.488C319.5,14.848,317.763,15.94,316.124,15.94 M316.208,9.777
		c-1.457,0-2.087,1.345-2.087,2.633c0,1.485,0.854,2.605,2.059,2.605c1.177,0,2.059-1.107,2.059-2.633
		C318.239,11.234,317.665,9.777,316.208,9.777 M282.577,15.94c-1.373,0-2.073-0.967-2.073-1.947c0-1.626,1.434-2.522,4.016-2.522
		c0.02,0,0.04,0,0.06,0v-0.14c0-0.56-0.154-1.569-1.541-1.569c-0.63,0-1.289,0.196-1.765,0.504l-0.28-0.812
		c0.56-0.364,1.373-0.602,2.227-0.602c2.073,0,2.577,1.415,2.577,2.773v2.535c0,0.588,0.028,1.163,0.112,1.625h-1.121l-0.098-0.854
		h-0.042C284.272,15.464,283.543,15.94,282.577,15.94 M284.409,12.324c-1.292,0-2.673,0.277-2.673,1.529
		c0,0.798,0.532,1.177,1.163,1.177c0.883,0,1.443-0.56,1.639-1.135c0.042-0.126,0.07-0.266,0.07-0.392v-1.177
		C284.542,12.325,284.476,12.324,284.409,12.324 M258.458,15.94c-0.98,0-1.765-0.378-2.269-1.275h-0.042l-0.056,1.121h-1.064
		c0.028-0.462,0.056-1.149,0.056-1.751V5.841h1.219v4.258h0.028c0.434-0.756,1.219-1.247,2.311-1.247
		c1.681,0,2.872,1.401,2.858,3.46C261.498,14.736,259.971,15.94,258.458,15.94 M258.248,9.833c-0.84,0-1.625,0.574-1.877,1.513
		c-0.028,0.14-0.07,0.308-0.07,0.504v1.219c0,0.154,0.028,0.308,0.056,0.448c0.238,0.854,0.952,1.443,1.849,1.443
		c1.289,0,2.059-1.051,2.059-2.605C260.265,10.995,259.564,9.833,258.248,9.833 M246.51,15.94c-1.639,0-2.9-1.387-2.9-3.446
		c-0.014-2.255,1.387-3.642,3.04-3.642c1.037,0,1.737,0.49,2.045,1.036h0.028V5.841h1.233v8.194c0,0.602,0.014,1.289,0.056,1.751
		h-1.107l-0.056-1.177h-0.028C248.443,15.366,247.617,15.94,246.51,15.94 M246.888,9.819c-1.275,0-2.031,1.121-2.031,2.619
		c0,1.373,0.672,2.507,2.003,2.507c0.826,0,1.583-0.546,1.807-1.471c0.042-0.168,0.056-0.336,0.056-0.532v-1.177
		c0-0.154-0.014-0.364-0.056-0.518C248.485,10.463,247.813,9.819,246.888,9.819 M199.442,15.94c-1.373,0-2.073-0.967-2.073-1.947
		c0-1.626,1.434-2.522,4.016-2.522c0.02,0,0.04,0,0.06,0v-0.14c0-0.56-0.154-1.569-1.541-1.569c-0.63,0-1.289,0.196-1.765,0.504
		l-0.28-0.812c0.56-0.364,1.373-0.602,2.227-0.602c2.073,0,2.577,1.415,2.577,2.773v2.535c0,0.588,0.028,1.163,0.112,1.625h-1.121
		l-0.098-0.854h-0.042C201.137,15.464,200.409,15.94,199.442,15.94 M201.275,12.324c-1.292,0-2.673,0.277-2.673,1.529
		c0,0.798,0.532,1.177,1.163,1.177c0.883,0,1.443-0.56,1.639-1.135c0.042-0.126,0.07-0.266,0.07-0.392v-1.177
		C201.407,12.325,201.341,12.324,201.275,12.324 M189.867,15.94c-1.835,0-3.25-1.345-3.25-3.488c0-2.269,1.485-3.6,3.362-3.6
		c1.947,0,3.264,1.415,3.264,3.488C193.243,14.848,191.506,15.94,189.867,15.94 M189.951,9.777c-1.457,0-2.087,1.345-2.087,2.633
		c0,1.485,0.855,2.605,2.059,2.605c1.177,0,2.059-1.107,2.059-2.633C191.982,11.234,191.408,9.777,189.951,9.777 M144.385,15.94
		c-1.373,0-2.073-0.967-2.073-1.947c0-1.626,1.434-2.522,4.016-2.522c0.02,0,0.04,0,0.06,0v-0.14c0-0.56-0.154-1.569-1.541-1.569
		c-0.63,0-1.289,0.196-1.765,0.504l-0.28-0.812c0.56-0.364,1.373-0.602,2.227-0.602c2.073,0,2.577,1.415,2.577,2.773v2.535
		c0,0.588,0.028,1.163,0.112,1.625h-1.121l-0.098-0.854h-0.042C146.08,15.464,145.352,15.94,144.385,15.94 M146.218,12.324
		c-1.292,0-2.673,0.277-2.673,1.529c0,0.798,0.532,1.177,1.163,1.177c0.883,0,1.443-0.56,1.639-1.135
		c0.042-0.126,0.07-0.266,0.07-0.392v-1.177C146.35,12.325,146.284,12.324,146.218,12.324 M121.267,15.94
		c-1.373,0-2.073-0.967-2.073-1.947c0-1.626,1.434-2.522,4.016-2.522c0.02,0,0.04,0,0.06,0v-0.14c0-0.56-0.154-1.569-1.541-1.569
		c-0.63,0-1.289,0.196-1.765,0.504l-0.28-0.812c0.56-0.364,1.373-0.602,2.227-0.602c2.073,0,2.577,1.415,2.577,2.773v2.535
		c0,0.588,0.028,1.163,0.112,1.625h-1.121l-0.098-0.854h-0.042C122.962,15.464,122.234,15.94,121.267,15.94 M123.1,12.324
		c-1.292,0-2.673,0.277-2.673,1.529c0,0.798,0.532,1.177,1.163,1.177c0.882,0,1.443-0.56,1.639-1.135
		c0.042-0.126,0.07-0.266,0.07-0.392v-1.177C123.233,12.325,123.167,12.324,123.1,12.324 M103.518,15.94
		c-1.065,0-2.339-0.588-2.339-2.97V9.007h1.233v3.754c0,1.289,0.392,2.157,1.513,2.157c0.826,0,1.401-0.574,1.625-1.121
		c0.07-0.182,0.112-0.406,0.112-0.63v-4.16h1.233v4.931c0,0.7,0.014,1.317,0.056,1.849h-1.093l-0.07-1.107h-0.028
		C105.437,15.226,104.722,15.94,103.518,15.94 M96.322,15.94c-1.835,0-3.25-1.345-3.25-3.488c0-2.269,1.485-3.6,3.362-3.6
		c1.947,0,3.264,1.415,3.264,3.488C99.698,14.848,97.961,15.94,96.322,15.94 M96.406,9.777c-1.457,0-2.087,1.345-2.087,2.633
		c0,1.485,0.854,2.605,2.059,2.605c1.177,0,2.059-1.107,2.059-2.633C98.437,11.234,97.863,9.777,96.406,9.777 M56.446,15.94
		c-1.639,0-2.9-1.387-2.9-3.446c-0.014-2.255,1.387-3.642,3.04-3.642c1.036,0,1.737,0.49,2.045,1.036h0.028V5.841h1.233v8.194
		c0,0.602,0.014,1.289,0.056,1.751h-1.107l-0.056-1.177h-0.028C58.379,15.366,57.553,15.94,56.446,15.94 M56.825,9.819
		c-1.275,0-2.031,1.121-2.031,2.619c0,1.373,0.672,2.507,2.003,2.507c0.826,0,1.583-0.546,1.807-1.471
		c0.042-0.168,0.056-0.336,0.056-0.532v-1.177c0-0.154-0.014-0.364-0.056-0.518C58.421,10.463,57.749,9.819,56.825,9.819
		 M48.634,15.94c-1.065,0-2.339-0.588-2.339-2.97V9.007h1.233v3.754c0,1.289,0.392,2.157,1.513,2.157
		c0.826,0,1.401-0.574,1.625-1.121c0.07-0.182,0.112-0.406,0.112-0.63v-4.16h1.233v4.931c0,0.7,0.014,1.317,0.056,1.849h-1.093
		l-0.07-1.107h-0.028C50.553,15.226,49.839,15.94,48.634,15.94 M27.872,15.94c-1.373,0-2.073-0.967-2.073-1.947
		c0-1.626,1.434-2.522,4.016-2.522c0.02,0,0.04,0,0.06,0v-0.14c0-0.56-0.154-1.569-1.541-1.569c-0.63,0-1.289,0.196-1.765,0.504
		l-0.28-0.812c0.56-0.364,1.373-0.602,2.227-0.602c2.073,0,2.577,1.415,2.577,2.773v2.535c0,0.588,0.028,1.163,0.112,1.625h-1.121
		l-0.098-0.854h-0.042C29.567,15.464,28.839,15.94,27.872,15.94 M29.705,12.324c-1.292,0-2.673,0.277-2.673,1.529
		c0,0.798,0.532,1.177,1.163,1.177c0.883,0,1.443-0.56,1.639-1.135c0.042-0.126,0.07-0.266,0.07-0.392v-1.177
		C29.837,12.325,29.771,12.324,29.705,12.324 M306.086,15.926c-2.087,0-3.334-1.373-3.334-3.418s1.205-3.656,3.18-3.656
		c2.213,0,2.801,1.947,2.801,3.194c0,0.252-0.028,0.448-0.042,0.574h-4.763c0.028,1.667,1.093,2.353,2.325,2.353
		c0.882,0,1.415-0.154,1.877-0.35l0.21,0.883C307.907,15.702,307.165,15.926,306.086,15.926 M305.834,9.735
		c-1.247,0-1.793,1.149-1.891,2.003h3.6C307.557,10.954,307.221,9.735,305.834,9.735 M269.191,15.926
		c-2.087,0-3.334-1.373-3.334-3.418s1.205-3.656,3.18-3.656c2.213,0,2.802,1.947,2.802,3.194c0,0.252-0.028,0.448-0.042,0.574
		h-4.763c0.028,1.667,1.093,2.353,2.325,2.353c0.883,0,1.415-0.154,1.877-0.35l0.21,0.883
		C271.012,15.702,270.27,15.926,269.191,15.926 M268.939,9.735c-1.247,0-1.793,1.149-1.891,2.003h3.6
		C270.662,10.954,270.326,9.735,268.939,9.735 M239.857,15.926c-2.087,0-3.334-1.373-3.334-3.418s1.205-3.656,3.18-3.656
		c2.213,0,2.801,1.947,2.801,3.194c0,0.252-0.028,0.448-0.042,0.574H237.7c0.028,1.667,1.093,2.353,2.325,2.353
		c0.882,0,1.415-0.154,1.877-0.35l0.21,0.883C241.678,15.702,240.936,15.926,239.857,15.926 M239.605,9.735
		c-1.247,0-1.793,1.149-1.891,2.003h3.6C241.328,10.954,240.992,9.735,239.605,9.735 M229.24,15.926
		c-2.045,0-3.376-1.387-3.376-3.46c0-2.087,1.429-3.6,3.642-3.6c0.728,0,1.373,0.182,1.709,0.35l-0.28,0.953
		c-0.294-0.168-0.756-0.322-1.429-0.322c-1.555,0-2.395,1.149-2.395,2.563c0,1.569,1.008,2.535,2.353,2.535
		c0.7,0,1.163-0.182,1.513-0.336l0.21,0.924C230.865,15.702,230.15,15.926,229.24,15.926 M184.74,15.926
		c-0.574,0-1.036-0.182-1.331-0.518c-0.35-0.364-0.476-0.967-0.476-1.765V9.945h-1.051V9.007h1.051V7.382l1.205-0.322v1.947h1.765
		v0.938h-1.765v3.656c0,0.84,0.238,1.317,0.924,1.317c0.322,0,0.56-0.042,0.714-0.084l0.056,0.924
		C185.594,15.856,185.216,15.926,184.74,15.926 M175.43,15.926c-0.742,0-1.429-0.182-1.905-0.462l0.308-0.938
		c0.364,0.238,1.008,0.49,1.625,0.49c0.896,0,1.317-0.448,1.317-1.009c0-0.588-0.35-0.911-1.261-1.247
		c-1.219-0.434-1.793-1.107-1.793-1.919c0-1.093,0.883-1.989,2.339-1.989c0.686,0,1.289,0.196,1.667,0.42l-0.308,0.897
		c-0.266-0.168-0.756-0.392-1.387-0.392c-0.728,0-1.135,0.42-1.135,0.924c0,0.56,0.406,0.813,1.289,1.149
		c1.177,0.448,1.779,1.037,1.779,2.045C177.965,15.086,177.041,15.926,175.43,15.926 M170.009,15.926
		c-0.742,0-1.429-0.182-1.905-0.462l0.308-0.938c0.364,0.238,1.008,0.49,1.625,0.49c0.896,0,1.317-0.448,1.317-1.009
		c0-0.588-0.35-0.911-1.261-1.247c-1.219-0.434-1.793-1.107-1.793-1.919c0-1.093,0.883-1.989,2.339-1.989
		c0.686,0,1.289,0.196,1.667,0.42l-0.308,0.897c-0.266-0.168-0.756-0.392-1.387-0.392c-0.728,0-1.135,0.42-1.135,0.924
		c0,0.56,0.406,0.813,1.289,1.149c1.177,0.448,1.779,1.037,1.779,2.045C172.544,15.086,171.62,15.926,170.009,15.926
		 M164.484,15.926c-2.087,0-3.334-1.373-3.334-3.418s1.205-3.656,3.18-3.656c2.213,0,2.802,1.947,2.802,3.194
		c0,0.252-0.028,0.448-0.042,0.574h-4.763c0.028,1.667,1.093,2.353,2.325,2.353c0.882,0,1.415-0.154,1.877-0.35l0.21,0.883
		C166.305,15.702,165.563,15.926,164.484,15.926 M164.232,9.735c-1.247,0-1.793,1.149-1.891,2.003h3.6
		C165.955,10.954,165.619,9.735,164.232,9.735 M158.47,15.926c-2.045,0-3.376-1.387-3.376-3.46c0-2.087,1.429-3.6,3.642-3.6
		c0.729,0,1.373,0.182,1.709,0.35l-0.28,0.953c-0.294-0.168-0.757-0.322-1.429-0.322c-1.555,0-2.395,1.149-2.395,2.563
		c0,1.569,1.009,2.535,2.353,2.535c0.7,0,1.163-0.182,1.513-0.336l0.21,0.924C160.095,15.702,159.38,15.926,158.47,15.926
		 M152.427,15.926c-2.045,0-3.376-1.387-3.376-3.46c0-2.087,1.429-3.6,3.642-3.6c0.728,0,1.373,0.182,1.709,0.35l-0.28,0.953
		c-0.294-0.168-0.756-0.322-1.429-0.322c-1.555,0-2.395,1.149-2.395,2.563c0,1.569,1.008,2.535,2.353,2.535
		c0.7,0,1.163-0.182,1.513-0.336l0.21,0.924C154.052,15.702,153.338,15.926,152.427,15.926 M135.566,15.926
		c-2.087,0-3.334-1.373-3.334-3.418s1.205-3.656,3.18-3.656c2.213,0,2.802,1.947,2.802,3.194c0,0.252-0.028,0.448-0.042,0.574
		h-4.763c0.028,1.667,1.093,2.353,2.325,2.353c0.883,0,1.415-0.154,1.877-0.35l0.21,0.883
		C137.387,15.702,136.645,15.926,135.566,15.926 M135.314,9.735c-1.247,0-1.793,1.149-1.891,2.003h3.6
		C137.037,10.954,136.701,9.735,135.314,9.735 M78.585,15.926c-0.574,0-1.037-0.182-1.331-0.518
		c-0.35-0.364-0.476-0.967-0.476-1.765V9.945h-1.051V9.007h1.051V7.382l1.205-0.322v1.947h1.765v0.938h-1.765v3.656
		c0,0.84,0.238,1.317,0.925,1.317c0.322,0,0.56-0.042,0.714-0.084l0.056,0.924C79.44,15.856,79.062,15.926,78.585,15.926
		 M64.755,15.926c-2.087,0-3.334-1.373-3.334-3.418s1.205-3.656,3.18-3.656c2.213,0,2.802,1.947,2.802,3.194
		c0,0.252-0.028,0.448-0.042,0.574h-4.763c0.028,1.667,1.093,2.353,2.325,2.353c0.882,0,1.415-0.154,1.877-0.35l0.21,0.883
		C66.576,15.702,65.834,15.926,64.755,15.926 M64.503,9.735c-1.247,0-1.793,1.149-1.891,2.003h3.6
		C66.226,10.954,65.89,9.735,64.503,9.735 M43.878,15.926c-0.574,0-1.036-0.182-1.331-0.518c-0.35-0.364-0.476-0.967-0.476-1.765
		V9.945h-1.051V9.007h1.051V7.382l1.205-0.322v1.947h1.765v0.938h-1.765v3.656c0,0.84,0.238,1.317,0.924,1.317
		c0.322,0,0.56-0.042,0.714-0.084l0.056,0.924C44.733,15.856,44.355,15.926,43.878,15.926 M37.616,15.926
		c-0.742,0-1.429-0.182-1.905-0.462l0.308-0.938c0.364,0.238,1.008,0.49,1.625,0.49c0.897,0,1.317-0.448,1.317-1.009
		c0-0.588-0.35-0.911-1.261-1.247c-1.219-0.434-1.793-1.107-1.793-1.919c0-1.093,0.882-1.989,2.339-1.989
		c0.686,0,1.289,0.196,1.667,0.42l-0.308,0.897c-0.266-0.168-0.756-0.392-1.387-0.392c-0.729,0-1.135,0.42-1.135,0.924
		c0,0.56,0.406,0.813,1.289,1.149c1.177,0.448,1.779,1.037,1.779,2.045C40.151,15.086,39.227,15.926,37.616,15.926 M19.108,15.926
		c-0.742,0-1.429-0.182-1.905-0.462l0.308-0.938c0.364,0.238,1.009,0.49,1.625,0.49c0.896,0,1.317-0.448,1.317-1.009
		c0-0.588-0.35-0.911-1.261-1.247c-1.219-0.434-1.793-1.107-1.793-1.919c0-1.093,0.883-1.989,2.339-1.989
		c0.686,0,1.289,0.196,1.667,0.42l-0.308,0.897c-0.266-0.168-0.756-0.392-1.387-0.392c-0.728,0-1.135,0.42-1.135,0.924
		c0,0.56,0.406,0.813,1.289,1.149c1.177,0.448,1.779,1.037,1.779,2.045C21.644,15.086,20.719,15.926,19.108,15.926 M322.33,15.786
		h-1.219V9.945h-0.952V9.007h0.952V8.684c0-0.953,0.21-1.821,0.784-2.367c0.462-0.448,1.079-0.63,1.653-0.63
		c0.434,0,0.812,0.098,1.051,0.196l-0.168,0.952c-0.182-0.084-0.434-0.154-0.784-0.154c-1.051,0-1.317,0.925-1.317,1.961v0.364
		h1.639v0.938h-1.639V15.786 M293.467,15.786h-1.233v-3.908c0-1.093-0.406-2.003-1.569-2.003c-0.812,0-1.443,0.574-1.653,1.261
		c-0.056,0.154-0.084,0.364-0.084,0.574v4.076h-1.233v-4.945c0-0.7-0.014-1.275-0.056-1.835h1.093l0.07,1.121h0.028
		c0.336-0.644,1.121-1.275,2.241-1.275c0.939,0,2.395,0.56,2.395,2.886V15.786 M277.688,15.786h-1.219v-4.664
		c0-0.798-0.014-1.485-0.056-2.115h1.079l0.042,1.331h0.056c0.308-0.911,1.051-1.485,1.877-1.485c0.14,0,0.238,0.014,0.35,0.042
		v1.163c-0.126-0.028-0.252-0.042-0.42-0.042c-0.868,0-1.485,0.658-1.653,1.583c-0.028,0.168-0.056,0.364-0.056,0.574V15.786
		 M264.296,15.786h-1.233V5.841h1.233V15.786 M253.141,15.786h-1.233v-6.78h1.233V15.786 M233.75,15.786h-1.219v-4.664
		c0-0.798-0.014-1.485-0.056-2.115h1.079l0.042,1.331h0.056c0.308-0.911,1.051-1.485,1.877-1.485c0.14,0,0.238,0.014,0.35,0.042
		v1.163c-0.126-0.028-0.252-0.042-0.42-0.042c-0.869,0-1.485,0.658-1.653,1.583c-0.028,0.168-0.056,0.364-0.056,0.574V15.786
		 M224.384,15.786h-1.233v-3.908c0-1.093-0.406-2.003-1.569-2.003c-0.813,0-1.443,0.574-1.653,1.261
		c-0.056,0.154-0.084,0.364-0.084,0.574v4.076h-1.233v-4.945c0-0.7-0.014-1.275-0.056-1.835h1.093l0.07,1.121h0.028
		c0.336-0.644,1.121-1.275,2.241-1.275c0.939,0,2.395,0.56,2.395,2.886V15.786 M216.671,15.786h-1.233v-6.78h1.233V15.786
		 M210.332,15.786H209.1v-3.908c0-1.093-0.406-2.003-1.569-2.003c-0.813,0-1.443,0.574-1.653,1.261
		c-0.056,0.154-0.084,0.364-0.084,0.574v4.076h-1.233v-4.945c0-0.7-0.014-1.275-0.056-1.835h1.093l0.07,1.121h0.028
		c0.336-0.644,1.121-1.275,2.241-1.275c0.939,0,2.395,0.56,2.395,2.886V15.786 M129.102,15.786h-1.177l-2.577-6.78h1.317l1.331,3.81
		c0.224,0.616,0.406,1.177,0.546,1.737h0.042c0.154-0.56,0.35-1.121,0.574-1.737l1.317-3.81h1.289L129.102,15.786 M117.813,15.786
		h-1.233v-3.894c0-1.093-0.406-2.017-1.569-2.017c-0.798,0-1.429,0.56-1.653,1.233c-0.07,0.168-0.084,0.35-0.084,0.588v4.09h-1.233
		V5.841h1.233v4.23h0.028c0.196-0.35,0.504-0.658,0.883-0.868c0.364-0.21,0.798-0.35,1.261-0.35c0.911,0,2.367,0.56,2.367,2.9
		V15.786 M74.665,15.786h-1.233v-3.908c0-1.093-0.406-2.003-1.569-2.003c-0.813,0-1.443,0.574-1.653,1.261
		c-0.056,0.154-0.084,0.364-0.084,0.574v4.076h-1.233v-4.945c0-0.7-0.014-1.275-0.056-1.835h1.093L70,10.127h0.028
		c0.336-0.644,1.121-1.275,2.241-1.275c0.939,0,2.395,0.56,2.395,2.886V15.786 M16.216,15.786h-1.303l-1.008-2.97h-3.348l-0.98,2.97
		H8.316l3.208-9.441h1.471L16.216,15.786 M12.21,7.424c-0.14,0.56-0.294,1.135-0.476,1.709l-0.924,2.732h2.843l-0.924-2.717
		c-0.21-0.616-0.35-1.177-0.49-1.723H12.21 M252.497,7.858c-0.434,0-0.742-0.336-0.742-0.756c0-0.434,0.322-0.77,0.77-0.77
		c0.462,0,0.756,0.336,0.756,0.77C253.295,7.522,252.987,7.858,252.497,7.858 M216.027,7.858c-0.434,0-0.742-0.336-0.742-0.756
		c0-0.434,0.322-0.77,0.77-0.77c0.462,0,0.756,0.336,0.756,0.77C216.826,7.522,216.517,7.858,216.027,7.858"/>
	<path fill="#000000" d="M294.052,42.714c-0.812,0-1.709-0.196-2.255-0.56l0.308-0.938c0.448,0.28,1.149,0.532,1.989,0.532
		c1.261,0,2.185-0.658,2.185-2.367v-0.756h-0.028c-0.378,0.63-1.107,1.135-2.157,1.135c-1.681,0-2.886-1.429-2.886-3.306
		c0-2.297,1.499-3.6,3.054-3.6c1.177,0,1.821,0.616,2.115,1.177h0.028l0.056-1.023h1.079c-0.028,0.49-0.056,1.036-0.056,1.863v3.936
		c0,1.555-0.308,2.507-0.966,3.096C295.859,42.518,294.907,42.714,294.052,42.714 M294.472,33.819c-1.177,0-2.017,0.995-2.017,2.563
		c0,1.331,0.672,2.437,2.003,2.437c0.756,0,1.443-0.476,1.709-1.261c0.07-0.21,0.098-0.448,0.098-0.658v-1.219
		c0-0.21-0.014-0.392-0.07-0.56C295.971,34.407,295.369,33.819,294.472,33.819 M15.631,42.56h-1.219v-7.34
		c0-0.868-0.028-1.569-0.056-2.213h1.107l0.056,1.163h0.028c0.504-0.826,1.303-1.317,2.409-1.317c1.639,0,2.872,1.387,2.872,3.446
		c0,2.437-1.485,3.642-3.082,3.642c-0.896,0-1.681-0.392-2.087-1.065h-0.028V42.56 M17.578,33.833c-0.84,0-1.625,0.602-1.863,1.527
		c-0.042,0.154-0.084,0.336-0.084,0.504v1.163c0,0.182,0.028,0.35,0.056,0.504c0.224,0.854,0.966,1.443,1.849,1.443
		c1.303,0,2.059-1.065,2.059-2.619C19.595,34.996,18.88,33.833,17.578,33.833 M366.996,39.94c-0.49,0-0.826-0.378-0.826-0.883
		c0-0.518,0.35-0.882,0.84-0.882s0.826,0.364,0.826,0.882C367.836,39.562,367.514,39.94,366.996,39.94 M333.662,39.94
		c-1.933,0-3.39-1.107-3.39-4.034v-5.561h1.233v5.589c0,2.115,0.939,3.012,2.199,3.012c1.401,0,2.297-0.924,2.297-3.012v-5.589
		h1.233v5.505C337.234,38.75,335.707,39.94,333.662,39.94 M317.132,39.94c-1.065,0-2.339-0.588-2.339-2.97v-3.964h1.233v3.754
		c0,1.289,0.392,2.157,1.513,2.157c0.826,0,1.401-0.574,1.625-1.121c0.07-0.182,0.112-0.406,0.112-0.63v-4.16h1.233v4.931
		c0,0.7,0.014,1.317,0.056,1.849h-1.093l-0.07-1.107h-0.028C319.051,39.226,318.337,39.94,317.132,39.94 M309.936,39.94
		c-1.835,0-3.25-1.345-3.25-3.488c0-2.269,1.485-3.6,3.362-3.6c1.947,0,3.264,1.415,3.264,3.488
		C313.312,38.848,311.575,39.94,309.936,39.94 M310.02,33.777c-1.457,0-2.087,1.345-2.087,2.633c0,1.485,0.855,2.605,2.059,2.605
		c1.177,0,2.059-1.107,2.059-2.633C312.052,35.234,311.477,33.777,310.02,33.777 M286.303,39.94c-1.065,0-2.339-0.588-2.339-2.97
		v-3.964h1.233v3.754c0,1.289,0.392,2.157,1.513,2.157c0.827,0,1.401-0.574,1.625-1.121c0.07-0.182,0.112-0.406,0.112-0.63v-4.16
		h1.233v4.931c0,0.7,0.014,1.317,0.056,1.849h-1.093l-0.07-1.107h-0.028C288.222,39.226,287.508,39.94,286.303,39.94 M279.107,39.94
		c-1.835,0-3.25-1.345-3.25-3.488c0-2.269,1.485-3.6,3.362-3.6c1.947,0,3.264,1.415,3.264,3.488
		C282.483,38.848,280.746,39.94,279.107,39.94 M279.191,33.777c-1.457,0-2.087,1.345-2.087,2.633c0,1.485,0.854,2.605,2.059,2.605
		c1.177,0,2.059-1.107,2.059-2.633C281.223,35.234,280.648,33.777,279.191,33.777 M251.084,39.94c-1.639,0-2.9-1.387-2.9-3.446
		c-0.014-2.255,1.387-3.642,3.04-3.642c1.036,0,1.737,0.49,2.045,1.036h0.028v-4.048h1.233v8.194c0,0.602,0.014,1.289,0.056,1.751
		h-1.107l-0.056-1.177h-0.028C253.017,39.366,252.19,39.94,251.084,39.94 M251.462,33.819c-1.275,0-2.031,1.121-2.031,2.619
		c0,1.373,0.672,2.507,2.003,2.507c0.826,0,1.583-0.546,1.807-1.471c0.042-0.168,0.056-0.336,0.056-0.532v-1.177
		c0-0.154-0.014-0.364-0.056-0.518C253.059,34.463,252.387,33.819,251.462,33.819 M235.807,39.94c-1.373,0-2.073-0.967-2.073-1.947
		c0-1.626,1.434-2.522,4.016-2.522c0.02,0,0.04,0,0.06,0v-0.14c0-0.56-0.154-1.569-1.541-1.569c-0.63,0-1.289,0.196-1.765,0.504
		l-0.28-0.812c0.56-0.364,1.373-0.602,2.227-0.602c2.073,0,2.577,1.415,2.577,2.773v2.535c0,0.588,0.028,1.163,0.112,1.625h-1.121
		l-0.098-0.854h-0.042C237.502,39.464,236.773,39.94,235.807,39.94 M237.639,36.324c-1.292,0-2.673,0.277-2.673,1.529
		c0,0.798,0.532,1.177,1.163,1.177c0.883,0,1.443-0.56,1.639-1.135c0.042-0.126,0.07-0.266,0.07-0.392v-1.177
		C237.772,36.325,237.706,36.324,237.639,36.324 M145.285,39.94c-1.835,0-3.25-1.345-3.25-3.488c0-2.269,1.485-3.6,3.362-3.6
		c1.947,0,3.264,1.415,3.264,3.488C148.661,38.848,146.924,39.94,145.285,39.94 M145.369,33.777c-1.457,0-2.087,1.345-2.087,2.633
		c0,1.485,0.854,2.605,2.059,2.605c1.177,0,2.059-1.107,2.059-2.633C147.4,35.234,146.826,33.777,145.369,33.777 M137.87,39.94
		c-0.981,0-1.765-0.378-2.269-1.275h-0.042l-0.056,1.121h-1.065c0.028-0.462,0.056-1.149,0.056-1.751v-8.194h1.219v4.258h0.028
		c0.434-0.756,1.219-1.247,2.311-1.247c1.681,0,2.871,1.401,2.858,3.46C140.909,38.736,139.382,39.94,137.87,39.94 M137.659,33.833
		c-0.84,0-1.625,0.574-1.877,1.513c-0.028,0.14-0.07,0.308-0.07,0.504v1.219c0,0.154,0.028,0.308,0.056,0.448
		c0.238,0.854,0.952,1.443,1.849,1.443c1.289,0,2.059-1.051,2.059-2.605C139.677,34.996,138.976,33.833,137.659,33.833
		 M103.07,39.94c-1.065,0-2.339-0.588-2.339-2.97v-3.964h1.233v3.754c0,1.289,0.392,2.157,1.513,2.157
		c0.826,0,1.401-0.574,1.625-1.121c0.07-0.182,0.112-0.406,0.112-0.63v-4.16h1.233v4.931c0,0.7,0.014,1.317,0.056,1.849h-1.093
		l-0.07-1.107h-0.028C104.989,39.226,104.274,39.94,103.07,39.94 M95.874,39.94c-1.835,0-3.25-1.345-3.25-3.488
		c0-2.269,1.485-3.6,3.362-3.6c1.947,0,3.264,1.415,3.264,3.488C99.25,38.848,97.513,39.94,95.874,39.94 M95.958,33.777
		c-1.457,0-2.087,1.345-2.087,2.633c0,1.485,0.854,2.605,2.059,2.605c1.177,0,2.059-1.107,2.059-2.633
		C97.989,35.234,97.415,33.777,95.958,33.777 M67.565,39.94c-1.639,0-2.9-1.387-2.9-3.446c-0.014-2.255,1.387-3.642,3.04-3.642
		c1.037,0,1.737,0.49,2.045,1.036h0.028v-4.048h1.233v8.194c0,0.602,0.014,1.289,0.056,1.751H69.96l-0.056-1.177h-0.028
		C69.498,39.366,68.671,39.94,67.565,39.94 M67.943,33.819c-1.275,0-2.031,1.121-2.031,2.619c0,1.373,0.672,2.507,2.003,2.507
		c0.826,0,1.583-0.546,1.807-1.471c0.042-0.168,0.056-0.336,0.056-0.532v-1.177c0-0.154-0.014-0.364-0.056-0.518
		C69.54,34.463,68.868,33.819,67.943,33.819 M52.288,39.94c-1.373,0-2.073-0.967-2.073-1.947c0-1.626,1.434-2.522,4.016-2.522
		c0.02,0,0.04,0,0.06,0v-0.14c0-0.56-0.154-1.569-1.541-1.569c-0.63,0-1.289,0.196-1.765,0.504l-0.28-0.812
		c0.56-0.364,1.373-0.602,2.227-0.602c2.073,0,2.577,1.415,2.577,2.773v2.535c0,0.588,0.028,1.163,0.112,1.625h-1.121l-0.098-0.854
		h-0.042C53.983,39.464,53.254,39.94,52.288,39.94 M54.12,36.324c-1.292,0-2.673,0.277-2.673,1.529c0,0.798,0.532,1.177,1.163,1.177
		c0.883,0,1.443-0.56,1.639-1.135c0.042-0.126,0.07-0.266,0.07-0.392v-1.177C54.253,36.325,54.187,36.324,54.12,36.324
		 M23.942,39.94c-1.373,0-2.073-0.967-2.073-1.947c0-1.626,1.434-2.522,4.016-2.522c0.02,0,0.04,0,0.06,0v-0.14
		c0-0.56-0.154-1.569-1.541-1.569c-0.63,0-1.289,0.196-1.765,0.504l-0.28-0.812c0.56-0.364,1.373-0.602,2.227-0.602
		c2.073,0,2.577,1.415,2.577,2.773v2.535c0,0.588,0.028,1.163,0.112,1.625h-1.121l-0.098-0.854h-0.042
		C25.637,39.464,24.909,39.94,23.942,39.94 M25.775,36.324c-1.292,0-2.673,0.277-2.673,1.529c0,0.798,0.532,1.177,1.163,1.177
		c0.883,0,1.443-0.56,1.639-1.135c0.042-0.126,0.07-0.266,0.07-0.392v-1.177C25.908,36.325,25.841,36.324,25.775,36.324
		 M386.764,39.926c-2.087,0-3.334-1.373-3.334-3.418c0-2.045,1.205-3.656,3.18-3.656c2.213,0,2.802,1.947,2.802,3.194
		c0,0.252-0.028,0.448-0.042,0.574h-4.763c0.028,1.667,1.093,2.353,2.325,2.353c0.882,0,1.415-0.154,1.877-0.35l0.21,0.883
		C388.585,39.702,387.843,39.926,386.764,39.926 M386.512,33.735c-1.247,0-1.793,1.149-1.891,2.003h3.6
		C388.235,34.954,387.899,33.735,386.512,33.735 M350.35,39.926c-0.91,0-1.905-0.266-2.409-0.602l0.308-1.023
		c0.546,0.336,1.345,0.616,2.185,0.616c1.247,0,1.975-0.658,1.975-1.611c0-0.882-0.504-1.387-1.779-1.877
		c-1.541-0.546-2.493-1.345-2.493-2.676c0-1.471,1.219-2.563,3.054-2.563c0.967,0,1.667,0.224,2.087,0.462l-0.336,0.995
		c-0.308-0.168-0.939-0.448-1.793-0.448c-1.289,0-1.779,0.77-1.779,1.415c0,0.883,0.574,1.317,1.877,1.821
		c1.597,0.616,2.409,1.387,2.409,2.773C353.656,38.666,352.578,39.926,350.35,39.926 M324.59,39.926
		c-0.574,0-1.036-0.182-1.331-0.518c-0.35-0.364-0.476-0.966-0.476-1.765v-3.698h-1.051v-0.939h1.051v-1.625l1.205-0.322v1.947
		h1.765v0.939h-1.765v3.656c0,0.841,0.238,1.317,0.924,1.317c0.322,0,0.56-0.042,0.714-0.084l0.056,0.924
		C325.444,39.856,325.066,39.926,324.59,39.926 M261.765,39.926c-0.574,0-1.036-0.182-1.331-0.518
		c-0.35-0.364-0.476-0.966-0.476-1.765v-3.698h-1.051v-0.939h1.051v-1.625l1.205-0.322v1.947h1.765v0.939h-1.765v3.656
		c0,0.841,0.238,1.317,0.924,1.317c0.322,0,0.56-0.042,0.714-0.084l0.056,0.924C262.62,39.856,262.242,39.926,261.765,39.926
		 M181.114,39.926c-0.574,0-1.037-0.182-1.331-0.518c-0.35-0.364-0.476-0.966-0.476-1.765v-3.698h-1.051v-0.939h1.051v-1.625
		l1.205-0.322v1.947h1.765v0.939h-1.765v3.656c0,0.841,0.238,1.317,0.925,1.317c0.322,0,0.56-0.042,0.714-0.084l0.056,0.924
		C181.969,39.856,181.59,39.926,181.114,39.926 M152.203,39.926c-0.574,0-1.037-0.182-1.331-0.518
		c-0.35-0.364-0.476-0.966-0.476-1.765v-3.698h-1.051v-0.939h1.051v-1.625l1.205-0.322v1.947h1.765v0.939h-1.765v3.656
		c0,0.841,0.238,1.317,0.924,1.317c0.322,0,0.56-0.042,0.714-0.084l0.056,0.924C153.058,39.856,152.679,39.926,152.203,39.926
		 M127.271,39.926c-0.742,0-1.429-0.182-1.905-0.462l0.308-0.938c0.364,0.238,1.009,0.49,1.625,0.49
		c0.896,0,1.317-0.448,1.317-1.009c0-0.588-0.35-0.91-1.261-1.247c-1.219-0.434-1.793-1.107-1.793-1.919
		c0-1.093,0.883-1.989,2.339-1.989c0.686,0,1.289,0.196,1.667,0.42l-0.308,0.896c-0.266-0.168-0.756-0.392-1.387-0.392
		c-0.728,0-1.135,0.42-1.135,0.925c0,0.56,0.406,0.812,1.289,1.149c1.177,0.448,1.779,1.037,1.779,2.045
		C129.806,39.086,128.882,39.926,127.271,39.926 M121.746,39.926c-2.087,0-3.334-1.373-3.334-3.418c0-2.045,1.205-3.656,3.18-3.656
		c2.213,0,2.802,1.947,2.802,3.194c0,0.252-0.028,0.448-0.042,0.574h-4.763c0.028,1.667,1.093,2.353,2.325,2.353
		c0.882,0,1.415-0.154,1.877-0.35l0.21,0.883C123.567,39.702,122.824,39.926,121.746,39.926 M121.494,33.735
		c-1.247,0-1.793,1.149-1.891,2.003h3.6C123.217,34.954,122.88,33.735,121.494,33.735 M115.731,39.926
		c-2.045,0-3.376-1.387-3.376-3.46c0-2.087,1.429-3.6,3.642-3.6c0.728,0,1.373,0.182,1.709,0.35l-0.28,0.953
		c-0.294-0.168-0.756-0.322-1.429-0.322c-1.555,0-2.395,1.149-2.395,2.563c0,1.569,1.009,2.535,2.353,2.535
		c0.7,0,1.163-0.182,1.513-0.336l0.21,0.924C117.356,39.702,116.642,39.926,115.731,39.926 M89.011,39.926
		c-0.742,0-1.429-0.182-1.905-0.462l0.308-0.938c0.364,0.238,1.008,0.49,1.625,0.49c0.897,0,1.317-0.448,1.317-1.009
		c0-0.588-0.35-0.91-1.261-1.247c-1.219-0.434-1.793-1.107-1.793-1.919c0-1.093,0.882-1.989,2.339-1.989
		c0.686,0,1.289,0.196,1.667,0.42L91,34.169c-0.266-0.168-0.756-0.392-1.387-0.392c-0.729,0-1.135,0.42-1.135,0.925
		c0,0.56,0.406,0.812,1.289,1.149c1.177,0.448,1.779,1.037,1.779,2.045C91.546,39.086,90.621,39.926,89.011,39.926 M83.486,39.926
		c-2.087,0-3.334-1.373-3.334-3.418c0-2.045,1.205-3.656,3.18-3.656c2.213,0,2.802,1.947,2.802,3.194
		c0,0.252-0.028,0.448-0.042,0.574h-4.763c0.028,1.667,1.093,2.353,2.325,2.353c0.882,0,1.415-0.154,1.877-0.35l0.21,0.883
		C85.307,39.702,84.564,39.926,83.486,39.926 M83.233,33.735c-1.247,0-1.793,1.149-1.891,2.003h3.6
		C84.956,34.954,84.62,33.735,83.233,33.735 M43.524,39.926c-0.742,0-1.429-0.182-1.905-0.462l0.308-0.938
		c0.364,0.238,1.008,0.49,1.625,0.49c0.896,0,1.317-0.448,1.317-1.009c0-0.588-0.35-0.91-1.261-1.247
		c-1.219-0.434-1.793-1.107-1.793-1.919c0-1.093,0.882-1.989,2.339-1.989c0.686,0,1.289,0.196,1.667,0.42l-0.308,0.896
		c-0.266-0.168-0.756-0.392-1.387-0.392c-0.728,0-1.135,0.42-1.135,0.925c0,0.56,0.406,0.812,1.289,1.149
		c1.177,0.448,1.779,1.037,1.779,2.045C46.059,39.086,45.135,39.926,43.524,39.926 M37.999,39.926c-2.087,0-3.334-1.373-3.334-3.418
		c0-2.045,1.205-3.656,3.18-3.656c2.213,0,2.802,1.947,2.802,3.194c0,0.252-0.028,0.448-0.042,0.574h-4.763
		c0.028,1.667,1.093,2.353,2.325,2.353c0.882,0,1.415-0.154,1.877-0.35l0.21,0.883C39.82,39.702,39.077,39.926,37.999,39.926
		 M37.747,33.735c-1.247,0-1.793,1.149-1.891,2.003h3.6C39.47,34.954,39.134,33.735,37.747,33.735 M31.985,39.926
		c-2.045,0-3.376-1.387-3.376-3.46c0-2.087,1.429-3.6,3.642-3.6c0.728,0,1.373,0.182,1.709,0.35l-0.28,0.953
		c-0.294-0.168-0.756-0.322-1.429-0.322c-1.555,0-2.395,1.149-2.395,2.563c0,1.569,1.008,2.535,2.353,2.535
		c0.7,0,1.163-0.182,1.513-0.336l0.21,0.924C33.609,39.702,32.895,39.926,31.985,39.926 M10.417,39.926
		c-0.742,0-1.429-0.182-1.905-0.462l0.308-0.938c0.364,0.238,1.008,0.49,1.625,0.49c0.897,0,1.317-0.448,1.317-1.009
		c0-0.588-0.35-0.91-1.261-1.247c-1.219-0.434-1.793-1.107-1.793-1.919c0-1.093,0.883-1.989,2.339-1.989
		c0.686,0,1.289,0.196,1.667,0.42l-0.308,0.896c-0.266-0.168-0.756-0.392-1.387-0.392c-0.728,0-1.135,0.42-1.135,0.925
		c0,0.56,0.406,0.812,1.289,1.149c1.177,0.448,1.779,1.037,1.779,2.045C12.952,39.086,12.028,39.926,10.417,39.926 M215.978,39.87
		c-0.869,0-1.597-0.042-2.213-0.112v-9.287c0.742-0.112,1.625-0.196,2.592-0.196c1.751,0,2.998,0.406,3.824,1.177
		c0.84,0.77,1.331,1.863,1.331,3.39c0,1.541-0.476,2.802-1.359,3.67C219.27,39.394,217.813,39.87,215.978,39.87 M216.412,31.242
		c-0.63,0-1.107,0.056-1.429,0.126v7.452c0.308,0.056,0.756,0.07,1.233,0.07c2.605,0,4.02-1.457,4.02-4.006
		C220.25,32.656,218.989,31.242,216.412,31.242 M380.509,39.786h-1.275l-1.191-4.917c-0.294-1.205-0.49-2.129-0.616-3.082H377.4
		c-0.168,0.939-0.378,1.863-0.728,3.082l-1.345,4.917h-1.275l-2.395-9.441h1.289l1.121,4.777c0.28,1.177,0.532,2.353,0.7,3.264
		h0.028c0.154-0.938,0.448-2.059,0.77-3.278l1.261-4.763h1.275l1.149,4.791c0.266,1.121,0.518,2.241,0.658,3.236h0.028
		c0.196-1.037,0.462-2.087,0.756-3.264l1.247-4.763h1.247L380.509,39.786 M363.266,39.786h-1.275l-1.191-4.917
		c-0.294-1.205-0.49-2.129-0.616-3.082h-0.028c-0.168,0.939-0.378,1.863-0.728,3.082l-1.345,4.917h-1.275l-2.395-9.441h1.289
		l1.121,4.777c0.28,1.177,0.532,2.353,0.7,3.264h0.028c0.154-0.938,0.448-2.059,0.77-3.278l1.261-4.763h1.275l1.149,4.791
		c0.266,1.121,0.518,2.241,0.658,3.236h0.028c0.196-1.037,0.462-2.087,0.756-3.264l1.247-4.763h1.247L363.266,39.786
		 M346.384,39.786h-1.233l-2.998-4.79c-0.658-1.051-1.289-2.129-1.765-3.152l-0.042,0.014c0.07,1.191,0.098,2.325,0.098,3.894v4.034
		h-1.149v-9.441h1.331l3.026,4.777c0.7,1.107,1.247,2.101,1.695,3.068l0.028-0.014c-0.112-1.261-0.14-2.409-0.14-3.88v-3.95h1.149
		V39.786 M305.206,39.786h-1.233v-3.894c0-1.093-0.406-2.017-1.569-2.017c-0.798,0-1.429,0.56-1.653,1.233
		c-0.07,0.168-0.084,0.35-0.084,0.588v4.09h-1.233v-9.945h1.233v4.23h0.028c0.196-0.35,0.504-0.658,0.883-0.868
		c0.364-0.21,0.798-0.35,1.261-0.35c0.911,0,2.367,0.56,2.367,2.9V39.786 M273.091,39.786h-1.219v-4.664
		c0-0.798-0.014-1.485-0.056-2.115h1.079l0.042,1.331h0.056c0.308-0.911,1.051-1.485,1.877-1.485c0.14,0,0.238,0.014,0.35,0.042
		v1.163c-0.126-0.028-0.252-0.042-0.42-0.042c-0.869,0-1.485,0.658-1.653,1.583c-0.028,0.168-0.056,0.364-0.056,0.574V39.786
		 M269.974,39.786h-1.233v-3.894c0-1.093-0.406-2.017-1.569-2.017c-0.798,0-1.429,0.56-1.653,1.233
		c-0.07,0.168-0.084,0.35-0.084,0.588v4.09h-1.233v-9.945h1.233v4.23h0.028c0.196-0.35,0.504-0.658,0.882-0.868
		c0.364-0.21,0.798-0.35,1.261-0.35c0.911,0,2.367,0.56,2.367,2.9V39.786 M246.697,39.786h-1.233v-3.908
		c0-1.093-0.406-2.003-1.569-2.003c-0.812,0-1.443,0.574-1.653,1.261c-0.056,0.154-0.084,0.364-0.084,0.574v4.076h-1.233v-4.945
		c0-0.7-0.014-1.275-0.056-1.835h1.093l0.07,1.121h0.028c0.336-0.644,1.121-1.275,2.241-1.275c0.938,0,2.395,0.56,2.395,2.886
		V39.786 M229.818,39.786h-1.303l-1.009-2.97h-3.348l-0.981,2.97h-1.261l3.208-9.441h1.471L229.818,39.786 M225.812,31.424
		c-0.14,0.56-0.294,1.135-0.476,1.709l-0.925,2.732h2.844l-0.925-2.717c-0.21-0.616-0.35-1.177-0.49-1.723H225.812 M212.506,39.786
		h-1.303l-1.008-2.97h-3.348l-0.981,2.97h-1.261l3.208-9.441h1.471L212.506,39.786 M208.5,31.424
		c-0.14,0.56-0.294,1.135-0.476,1.709l-0.924,2.732h2.844l-0.925-2.717c-0.21-0.616-0.35-1.177-0.49-1.723H208.5 M200.171,39.786
		h-1.233v-3.908c0-1.093-0.406-2.003-1.569-2.003c-0.812,0-1.443,0.574-1.653,1.261c-0.056,0.154-0.084,0.364-0.084,0.574v4.076
		H194.4v-4.945c0-0.7-0.014-1.275-0.056-1.835h1.093l0.07,1.121h0.028c0.336-0.644,1.121-1.275,2.241-1.275
		c0.938,0,2.395,0.56,2.395,2.886V39.786 M192.459,39.786h-1.233v-6.78h1.233V39.786 M189.323,39.786h-1.233v-3.894
		c0-1.093-0.406-2.017-1.569-2.017c-0.798,0-1.429,0.56-1.653,1.233c-0.07,0.168-0.084,0.35-0.084,0.588v4.09h-1.233v-9.945h1.233
		v4.23h0.028c0.196-0.35,0.504-0.658,0.883-0.868c0.364-0.21,0.798-0.35,1.261-0.35c0.91,0,2.367,0.56,2.367,2.9V39.786
		 M177.044,39.786h-1.233v-6.78h1.233V39.786 M172.41,39.786h-1.121l-1.036-3.236c-0.238-0.756-0.434-1.429-0.602-2.227h-0.028
		c-0.168,0.812-0.378,1.513-0.616,2.241l-1.093,3.222h-1.121l-2.045-6.78h1.261l0.897,3.446c0.196,0.756,0.378,1.457,0.504,2.157
		h0.042c0.154-0.686,0.378-1.415,0.602-2.143l1.107-3.46h1.037l1.051,3.39c0.252,0.812,0.448,1.527,0.602,2.213h0.042
		c0.112-0.686,0.294-1.401,0.518-2.199l0.967-3.404h1.219L172.41,39.786 M160.412,39.786h-1.233v-3.894
		c0-1.093-0.406-2.017-1.569-2.017c-0.798,0-1.429,0.56-1.653,1.233c-0.07,0.168-0.084,0.35-0.084,0.588v4.09h-1.233v-9.945h1.233
		v4.23h0.028c0.196-0.35,0.504-0.658,0.882-0.868c0.364-0.21,0.798-0.35,1.261-0.35c0.911,0,2.367,0.56,2.367,2.9V39.786
		 M109.624,39.786h-1.219v-4.664c0-0.798-0.014-1.485-0.056-2.115h1.079l0.042,1.331h0.056c0.308-0.911,1.051-1.485,1.877-1.485
		c0.14,0,0.238,0.014,0.35,0.042v1.163c-0.126-0.028-0.252-0.042-0.42-0.042c-0.868,0-1.485,0.658-1.653,1.583
		c-0.028,0.168-0.056,0.364-0.056,0.574V39.786 M77.378,39.786h-1.219v-4.664c0-0.798-0.014-1.485-0.056-2.115h1.079l0.042,1.331
		h0.056c0.308-0.911,1.051-1.485,1.877-1.485c0.14,0,0.238,0.014,0.35,0.042v1.163c-0.126-0.028-0.252-0.042-0.42-0.042
		c-0.869,0-1.485,0.658-1.653,1.583c-0.028,0.168-0.056,0.364-0.056,0.574V39.786 M63.178,39.786h-1.233v-3.908
		c0-1.093-0.406-2.003-1.569-2.003c-0.812,0-1.443,0.574-1.653,1.261c-0.056,0.154-0.084,0.364-0.084,0.574v4.076h-1.233v-4.945
		c0-0.7-0.014-1.275-0.056-1.835h1.093l0.07,1.121h0.028c0.336-0.644,1.121-1.275,2.241-1.275c0.938,0,2.395,0.56,2.395,2.886
		V39.786 M191.815,31.858c-0.434,0-0.742-0.336-0.742-0.756c0-0.434,0.322-0.77,0.77-0.77c0.462,0,0.756,0.336,0.756,0.77
		C192.613,31.522,192.305,31.858,191.815,31.858 M176.4,31.858c-0.434,0-0.742-0.336-0.742-0.756c0-0.434,0.322-0.77,0.77-0.77
		c0.462,0,0.756,0.336,0.756,0.77C177.198,31.522,176.89,31.858,176.4,31.858"/>
	<path fill="#000000" d="M295.418,66.882l-0.308-1.037c0.308-0.098,0.714-0.294,1.079-0.602c0.336-0.266,0.756-0.742,1.037-1.373
		c0.056-0.126,0.098-0.224,0.098-0.294c0-0.07-0.028-0.168-0.084-0.322l-2.507-6.247h1.345l1.485,4.006
		c0.154,0.448,0.322,0.98,0.434,1.387h0.028c0.126-0.406,0.266-0.924,0.434-1.415l1.345-3.978h1.303l-1.849,4.833
		c-0.883,2.325-1.485,3.516-2.325,4.244C296.329,66.616,295.727,66.826,295.418,66.882 M74.026,66.882l-0.308-1.037
		c0.308-0.098,0.714-0.294,1.079-0.602c0.336-0.266,0.756-0.742,1.037-1.373c0.056-0.126,0.098-0.224,0.098-0.294
		c0-0.07-0.028-0.168-0.084-0.322l-2.507-6.247h1.345l1.485,4.006c0.154,0.448,0.322,0.98,0.434,1.387h0.028
		c0.126-0.406,0.266-0.924,0.434-1.415l1.345-3.978h1.303l-1.849,4.833c-0.883,2.325-1.485,3.516-2.325,4.244
		C74.936,66.616,74.334,66.826,74.026,66.882 M287.048,66.714c-0.812,0-1.709-0.196-2.255-0.56l0.308-0.938
		c0.448,0.28,1.149,0.532,1.989,0.532c1.261,0,2.185-0.658,2.185-2.367v-0.756h-0.028c-0.378,0.63-1.107,1.135-2.157,1.135
		c-1.681,0-2.886-1.429-2.886-3.306c0-2.297,1.499-3.6,3.054-3.6c1.177,0,1.821,0.616,2.115,1.177h0.028l0.056-1.023h1.079
		c-0.028,0.49-0.056,1.036-0.056,1.863v3.936c0,1.555-0.308,2.507-0.966,3.096C288.855,66.518,287.902,66.714,287.048,66.714
		 M287.468,57.819c-1.177,0-2.017,0.995-2.017,2.563c0,1.331,0.672,2.437,2.003,2.437c0.756,0,1.443-0.476,1.709-1.261
		c0.07-0.21,0.098-0.448,0.098-0.658v-1.219c0-0.21-0.014-0.392-0.07-0.56C288.967,58.407,288.365,57.819,287.468,57.819
		 M58.663,66.714c-0.812,0-1.709-0.196-2.255-0.56l0.308-0.938c0.448,0.28,1.149,0.532,1.989,0.532c1.261,0,2.185-0.658,2.185-2.367
		v-0.756h-0.028c-0.378,0.63-1.107,1.135-2.157,1.135c-1.681,0-2.886-1.429-2.886-3.306c0-2.297,1.499-3.6,3.054-3.6
		c1.177,0,1.821,0.616,2.115,1.177h0.028l0.056-1.023h1.079c-0.028,0.49-0.056,1.036-0.056,1.863v3.936
		c0,1.555-0.308,2.507-0.967,3.096C60.469,66.518,59.517,66.714,58.663,66.714 M59.083,57.819c-1.177,0-2.017,0.995-2.017,2.563
		c0,1.331,0.672,2.437,2.003,2.437c0.756,0,1.443-0.476,1.709-1.261c0.07-0.21,0.098-0.448,0.098-0.658v-1.219
		c0-0.21-0.014-0.392-0.07-0.56C60.582,58.407,59.979,57.819,59.083,57.819 M312.005,63.94c-1.065,0-2.339-0.588-2.339-2.97v-3.964
		h1.233v3.754c0,1.289,0.392,2.157,1.513,2.157c0.827,0,1.401-0.574,1.625-1.121c0.07-0.182,0.112-0.406,0.112-0.63v-4.16h1.233
		v4.931c0,0.7,0.014,1.317,0.056,1.849h-1.093l-0.07-1.107h-0.028C313.924,63.226,313.21,63.94,312.005,63.94 M304.81,63.94
		c-1.835,0-3.25-1.345-3.25-3.488c0-2.269,1.485-3.6,3.362-3.6c1.947,0,3.264,1.415,3.264,3.488
		C308.186,62.848,306.449,63.94,304.81,63.94 M304.894,57.777c-1.457,0-2.087,1.345-2.087,2.633c0,1.485,0.854,2.605,2.059,2.605
		c1.177,0,2.059-1.107,2.059-2.633C306.925,59.234,306.35,57.777,304.894,57.777 M263.898,63.94c-1.065,0-2.339-0.588-2.339-2.97
		v-3.964h1.233v3.754c0,1.289,0.392,2.157,1.513,2.157c0.826,0,1.401-0.574,1.625-1.121c0.07-0.182,0.112-0.406,0.112-0.63v-4.16
		h1.233v4.931c0,0.7,0.014,1.317,0.056,1.849h-1.093l-0.07-1.107h-0.028C265.817,63.226,265.103,63.94,263.898,63.94 M256.227,63.94
		c-1.639,0-2.9-1.387-2.9-3.446c-0.014-2.255,1.387-3.642,3.04-3.642c1.037,0,1.737,0.49,2.045,1.037h0.028v-4.048h1.233v8.195
		c0,0.602,0.014,1.289,0.056,1.751h-1.107l-0.056-1.177h-0.028C258.161,63.366,257.334,63.94,256.227,63.94 M256.606,57.819
		c-1.275,0-2.031,1.121-2.031,2.619c0,1.373,0.672,2.507,2.003,2.507c0.826,0,1.583-0.546,1.807-1.471
		c0.042-0.168,0.056-0.336,0.056-0.532v-1.177c0-0.154-0.014-0.364-0.056-0.518C258.202,58.463,257.53,57.819,256.606,57.819
		 M206.87,63.94c-1.835,0-3.25-1.345-3.25-3.488c0-2.269,1.485-3.6,3.362-3.6c1.947,0,3.264,1.415,3.264,3.488
		C210.246,62.848,208.509,63.94,206.87,63.94 M206.954,57.777c-1.457,0-2.087,1.345-2.087,2.633c0,1.485,0.854,2.605,2.059,2.605
		c1.177,0,2.059-1.107,2.059-2.633C208.985,59.234,208.411,57.777,206.954,57.777 M185.948,63.94c-1.835,0-3.25-1.345-3.25-3.488
		c0-2.269,1.485-3.6,3.362-3.6c1.947,0,3.264,1.415,3.264,3.488C189.323,62.848,187.586,63.94,185.948,63.94 M186.032,57.777
		c-1.457,0-2.087,1.345-2.087,2.633c0,1.485,0.854,2.605,2.059,2.605c1.177,0,2.059-1.107,2.059-2.633
		C188.063,59.234,187.488,57.777,186.032,57.777 M127.531,63.94c-1.373,0-2.073-0.967-2.073-1.947c0-1.626,1.434-2.522,4.016-2.522
		c0.02,0,0.04,0,0.06,0v-0.14c0-0.56-0.154-1.569-1.541-1.569c-0.63,0-1.289,0.196-1.765,0.504l-0.28-0.813
		c0.56-0.364,1.373-0.602,2.227-0.602c2.073,0,2.577,1.415,2.577,2.773v2.535c0,0.588,0.028,1.163,0.112,1.625h-1.121l-0.098-0.854
		h-0.042C129.226,63.464,128.498,63.94,127.531,63.94 M129.364,60.324c-1.292,0-2.673,0.277-2.673,1.529
		c0,0.798,0.532,1.177,1.163,1.177c0.883,0,1.443-0.56,1.639-1.135c0.042-0.126,0.07-0.266,0.07-0.392v-1.177
		C129.496,60.325,129.43,60.324,129.364,60.324 M106.351,63.94c-1.835,0-3.25-1.345-3.25-3.488c0-2.269,1.485-3.6,3.362-3.6
		c1.947,0,3.264,1.415,3.264,3.488C109.727,62.848,107.99,63.94,106.351,63.94 M106.436,57.777c-1.457,0-2.087,1.345-2.087,2.633
		c0,1.485,0.854,2.605,2.059,2.605c1.177,0,2.059-1.107,2.059-2.633C108.467,59.234,107.892,57.777,106.436,57.777 M90.613,63.94
		c-1.065,0-2.339-0.588-2.339-2.97v-3.964h1.233v3.754c0,1.289,0.392,2.157,1.513,2.157c0.826,0,1.401-0.574,1.625-1.121
		c0.07-0.182,0.112-0.406,0.112-0.63v-4.16h1.233v4.931c0,0.7,0.014,1.317,0.056,1.849h-1.093l-0.07-1.107h-0.028
		C92.532,63.226,91.817,63.94,90.613,63.94 M83.417,63.94c-1.835,0-3.25-1.345-3.25-3.488c0-2.269,1.485-3.6,3.362-3.6
		c1.947,0,3.264,1.415,3.264,3.488C86.793,62.848,85.056,63.94,83.417,63.94 M83.501,57.777c-1.457,0-2.087,1.345-2.087,2.633
		c0,1.485,0.854,2.605,2.059,2.605c1.177,0,2.059-1.107,2.059-2.633C85.532,59.234,84.958,57.777,83.501,57.777 M51.153,63.94
		c-1.373,0-2.073-0.967-2.073-1.947c0-1.626,1.434-2.522,4.016-2.522c0.02,0,0.04,0,0.06,0v-0.14c0-0.56-0.154-1.569-1.541-1.569
		c-0.63,0-1.289,0.196-1.765,0.504l-0.28-0.813c0.56-0.364,1.373-0.602,2.227-0.602c2.073,0,2.577,1.415,2.577,2.773v2.535
		c0,0.588,0.028,1.163,0.112,1.625h-1.121l-0.098-0.854h-0.042C52.848,63.464,52.119,63.94,51.153,63.94 M52.985,60.324
		c-1.292,0-2.673,0.277-2.673,1.529c0,0.798,0.532,1.177,1.163,1.177c0.883,0,1.443-0.56,1.639-1.135
		c0.042-0.126,0.07-0.266,0.07-0.392v-1.177C53.118,60.325,53.052,60.324,52.985,60.324 M39.709,63.94
		c-1.065,0-2.339-0.588-2.339-2.97v-3.964h1.233v3.754c0,1.289,0.392,2.157,1.513,2.157c0.826,0,1.401-0.574,1.625-1.121
		c0.07-0.182,0.112-0.406,0.112-0.63v-4.16h1.233v4.931c0,0.7,0.014,1.317,0.056,1.849h-1.093l-0.07-1.107h-0.028
		C41.629,63.226,40.914,63.94,39.709,63.94 M32.514,63.94c-1.835,0-3.25-1.345-3.25-3.488c0-2.269,1.485-3.6,3.362-3.6
		c1.947,0,3.264,1.415,3.264,3.488C35.89,62.848,34.153,63.94,32.514,63.94 M32.598,57.777c-1.457,0-2.087,1.345-2.087,2.633
		c0,1.485,0.854,2.605,2.059,2.605c1.177,0,2.059-1.107,2.059-2.633C34.629,59.234,34.055,57.777,32.598,57.777 M370.127,63.926
		c-0.574,0-1.037-0.182-1.331-0.518c-0.35-0.364-0.476-0.967-0.476-1.765v-3.698h-1.051v-0.939h1.051v-1.625l1.205-0.322v1.947
		h1.765v0.939h-1.765v3.656c0,0.841,0.238,1.317,0.925,1.317c0.322,0,0.56-0.042,0.714-0.084l0.056,0.925
		C370.981,63.856,370.603,63.926,370.127,63.926 M347.253,63.926c-2.087,0-3.334-1.373-3.334-3.418c0-2.045,1.205-3.656,3.18-3.656
		c2.213,0,2.802,1.947,2.802,3.194c0,0.252-0.028,0.448-0.042,0.574h-4.762c0.028,1.667,1.092,2.353,2.325,2.353
		c0.883,0,1.415-0.154,1.877-0.35l0.21,0.883C349.074,63.702,348.332,63.926,347.253,63.926 M347.001,57.735
		c-1.247,0-1.793,1.149-1.891,2.003h3.6C348.724,58.954,348.388,57.735,347.001,57.735 M327.114,63.926
		c-0.574,0-1.036-0.182-1.331-0.518c-0.35-0.364-0.476-0.967-0.476-1.765v-3.698h-1.051v-0.939h1.051v-1.625l1.205-0.322v1.947
		h1.765v0.939h-1.765v3.656c0,0.841,0.238,1.317,0.924,1.317c0.322,0,0.56-0.042,0.714-0.084l0.056,0.925
		C327.968,63.856,327.59,63.926,327.114,63.926 M246.54,63.926c-2.087,0-3.334-1.373-3.334-3.418c0-2.045,1.205-3.656,3.18-3.656
		c2.213,0,2.801,1.947,2.801,3.194c0,0.252-0.028,0.448-0.042,0.574h-4.763c0.028,1.667,1.093,2.353,2.325,2.353
		c0.883,0,1.415-0.154,1.877-0.35l0.21,0.883C248.361,63.702,247.618,63.926,246.54,63.926 M246.288,57.735
		c-1.247,0-1.793,1.149-1.891,2.003h3.6C248.011,58.954,247.675,57.735,246.288,57.735 M239.585,63.926
		c-0.742,0-1.429-0.182-1.905-0.462l0.308-0.939c0.364,0.238,1.008,0.49,1.625,0.49c0.896,0,1.317-0.448,1.317-1.008
		c0-0.588-0.35-0.911-1.261-1.247c-1.219-0.434-1.793-1.107-1.793-1.919c0-1.093,0.882-1.989,2.339-1.989
		c0.686,0,1.289,0.196,1.667,0.42l-0.308,0.896c-0.266-0.168-0.756-0.392-1.387-0.392c-0.729,0-1.135,0.42-1.135,0.925
		c0,0.56,0.406,0.812,1.289,1.149c1.177,0.448,1.779,1.037,1.779,2.045C242.121,63.086,241.196,63.926,239.585,63.926
		 M234.06,63.926c-2.087,0-3.334-1.373-3.334-3.418c0-2.045,1.205-3.656,3.18-3.656c2.213,0,2.802,1.947,2.802,3.194
		c0,0.252-0.028,0.448-0.042,0.574h-4.763c0.028,1.667,1.093,2.353,2.325,2.353c0.882,0,1.415-0.154,1.877-0.35l0.21,0.883
		C235.881,63.702,235.139,63.926,234.06,63.926 M233.808,57.735c-1.247,0-1.793,1.149-1.891,2.003h3.6
		C235.531,58.954,235.195,57.735,233.808,57.735 M221.015,63.926c-0.574,0-1.036-0.182-1.331-0.518
		c-0.35-0.364-0.476-0.967-0.476-1.765v-3.698h-1.051v-0.939h1.051v-1.625l1.205-0.322v1.947h1.765v0.939h-1.765v3.656
		c0,0.841,0.238,1.317,0.924,1.317c0.322,0,0.56-0.042,0.714-0.084l0.056,0.925C221.87,63.856,221.491,63.926,221.015,63.926
		 M198.456,63.926c-0.574,0-1.037-0.182-1.331-0.518c-0.35-0.364-0.476-0.967-0.476-1.765v-3.698h-1.051v-0.939h1.051v-1.625
		l1.205-0.322v1.947h1.765v0.939h-1.765v3.656c0,0.841,0.238,1.317,0.925,1.317c0.322,0,0.56-0.042,0.714-0.084l0.056,0.925
		C199.31,63.856,198.932,63.926,198.456,63.926 M192.194,63.926c-0.742,0-1.429-0.182-1.905-0.462l0.308-0.939
		c0.364,0.238,1.009,0.49,1.625,0.49c0.896,0,1.317-0.448,1.317-1.008c0-0.588-0.35-0.911-1.261-1.247
		c-1.219-0.434-1.793-1.107-1.793-1.919c0-1.093,0.883-1.989,2.339-1.989c0.686,0,1.289,0.196,1.667,0.42l-0.308,0.896
		c-0.266-0.168-0.757-0.392-1.387-0.392c-0.728,0-1.135,0.42-1.135,0.925c0,0.56,0.406,0.812,1.289,1.149
		c1.177,0.448,1.779,1.037,1.779,2.045C194.729,63.086,193.804,63.926,192.194,63.926 M164.248,63.926
		c-2.087,0-3.334-1.373-3.334-3.418c0-2.045,1.205-3.656,3.18-3.656c2.213,0,2.801,1.947,2.801,3.194
		c0,0.252-0.028,0.448-0.042,0.574h-4.763c0.028,1.667,1.093,2.353,2.325,2.353c0.883,0,1.415-0.154,1.877-0.35l0.21,0.883
		C166.069,63.702,165.326,63.926,164.248,63.926 M163.996,57.735c-1.247,0-1.793,1.149-1.891,2.003h3.6
		C165.719,58.954,165.382,57.735,163.996,57.735 M151.202,63.926c-0.574,0-1.037-0.182-1.331-0.518
		c-0.35-0.364-0.476-0.967-0.476-1.765v-3.698h-1.051v-0.939h1.051v-1.625l1.205-0.322v1.947h1.765v0.939H150.6v3.656
		c0,0.841,0.238,1.317,0.925,1.317c0.322,0,0.56-0.042,0.714-0.084l0.056,0.925C152.057,63.856,151.679,63.926,151.202,63.926
		 M141.837,63.926c-2.087,0-3.334-1.373-3.334-3.418c0-2.045,1.205-3.656,3.18-3.656c2.213,0,2.802,1.947,2.802,3.194
		c0,0.252-0.028,0.448-0.042,0.574h-4.762c0.028,1.667,1.093,2.353,2.325,2.353c0.882,0,1.415-0.154,1.877-0.35l0.21,0.883
		C143.658,63.702,142.916,63.926,141.837,63.926 M141.585,57.735c-1.247,0-1.793,1.149-1.891,2.003h3.6
		C143.308,58.954,142.972,57.735,141.585,57.735 M101.224,63.926c-0.574,0-1.037-0.182-1.331-0.518
		c-0.35-0.364-0.476-0.967-0.476-1.765v-3.698h-1.051v-0.939h1.051v-1.625l1.205-0.322v1.947h1.765v0.939h-1.765v3.656
		c0,0.841,0.238,1.317,0.925,1.317c0.322,0,0.56-0.042,0.714-0.084l0.056,0.925C102.079,63.856,101.701,63.926,101.224,63.926
		 M66.958,63.926c-2.087,0-3.334-1.373-3.334-3.418c0-2.045,1.205-3.656,3.18-3.656c2.213,0,2.802,1.947,2.802,3.194
		c0,0.252-0.028,0.448-0.042,0.574h-4.763c0.028,1.667,1.093,2.353,2.325,2.353c0.883,0,1.415-0.154,1.877-0.35l0.21,0.883
		C68.779,63.702,68.036,63.926,66.958,63.926 M66.706,57.735c-1.247,0-1.793,1.149-1.891,2.003h3.6
		C68.429,58.954,68.092,57.735,66.706,57.735 M26.597,63.926c-2.045,0-3.376-1.387-3.376-3.46c0-2.087,1.429-3.6,3.642-3.6
		c0.728,0,1.373,0.182,1.709,0.35l-0.28,0.952c-0.294-0.168-0.756-0.322-1.429-0.322c-1.555,0-2.395,1.149-2.395,2.563
		c0,1.569,1.009,2.535,2.353,2.535c0.7,0,1.163-0.182,1.513-0.336l0.21,0.924C28.222,63.702,27.508,63.926,26.597,63.926
		 M11.832,63.926c-2.087,0-3.334-1.373-3.334-3.418c0-2.045,1.205-3.656,3.18-3.656c2.213,0,2.802,1.947,2.802,3.194
		c0,0.252-0.028,0.448-0.042,0.574H9.675c0.028,1.667,1.093,2.353,2.325,2.353c0.883,0,1.415-0.154,1.877-0.35l0.21,0.883
		C13.653,63.702,12.911,63.926,11.832,63.926 M11.58,57.735c-1.247,0-1.793,1.149-1.891,2.003h3.6
		C13.303,58.954,12.967,57.735,11.58,57.735 M378.336,63.786h-1.233v-3.894c0-1.093-0.406-2.017-1.569-2.017
		c-0.798,0-1.429,0.56-1.653,1.233c-0.07,0.168-0.084,0.35-0.084,0.588v4.09h-1.233v-9.945h1.233v4.23h0.028
		c0.196-0.35,0.504-0.658,0.883-0.868c0.364-0.21,0.798-0.35,1.261-0.35c0.91,0,2.367,0.56,2.367,2.9V63.786 M366.057,63.786h-1.233
		v-6.78h1.233V63.786 M361.423,63.786h-1.121l-1.036-3.236c-0.238-0.756-0.434-1.429-0.602-2.227h-0.028
		c-0.168,0.812-0.378,1.513-0.616,2.241l-1.093,3.222h-1.121l-2.045-6.78h1.261l0.897,3.446c0.196,0.756,0.378,1.457,0.504,2.157
		h0.042c0.154-0.686,0.378-1.415,0.602-2.143l1.107-3.46h1.037l1.051,3.39c0.252,0.812,0.448,1.527,0.602,2.213h0.042
		c0.112-0.686,0.294-1.401,0.518-2.199l0.967-3.404h1.219L361.423,63.786 M342.404,63.786H341.2v-3.838
		c0-1.303-0.476-2.087-1.471-2.087c-0.7,0-1.247,0.518-1.457,1.121c-0.056,0.168-0.098,0.392-0.098,0.616v4.188h-1.205v-4.062
		c0-1.079-0.476-1.863-1.415-1.863c-0.77,0-1.331,0.616-1.527,1.233c-0.07,0.182-0.098,0.392-0.098,0.602v4.09h-1.205v-4.945
		c0-0.7-0.014-1.275-0.056-1.835h1.079l0.056,1.093h0.042c0.378-0.644,1.009-1.247,2.129-1.247c0.925,0,1.625,0.56,1.919,1.359
		h0.028c0.21-0.378,0.476-0.672,0.756-0.883c0.406-0.308,0.854-0.476,1.499-0.476c0.897,0,2.227,0.588,2.227,2.942V63.786
		 M330.784,63.786h-1.233v-6.78h1.233V63.786 M318.56,63.786h-1.219v-4.665c0-0.798-0.014-1.485-0.056-2.115h1.079l0.042,1.331
		h0.056c0.308-0.911,1.051-1.485,1.877-1.485c0.14,0,0.238,0.014,0.35,0.042v1.163c-0.126-0.028-0.252-0.042-0.42-0.042
		c-0.868,0-1.485,0.658-1.653,1.583c-0.028,0.168-0.056,0.364-0.056,0.574V63.786 M282.724,63.786h-1.233v-3.908
		c0-1.093-0.406-2.003-1.569-2.003c-0.813,0-1.443,0.574-1.653,1.261c-0.056,0.154-0.084,0.364-0.084,0.574v4.076h-1.233v-4.945
		c0-0.7-0.014-1.275-0.056-1.835h1.093l0.07,1.121h0.028c0.336-0.644,1.121-1.275,2.241-1.275c0.939,0,2.395,0.56,2.395,2.886
		V63.786 M275.012,63.786h-1.233v-6.78h1.233V63.786 M270.452,63.786h-1.219v-4.665c0-0.798-0.014-1.485-0.056-2.115h1.079
		l0.042,1.331h0.056c0.308-0.911,1.051-1.485,1.877-1.485c0.14,0,0.238,0.014,0.35,0.042v1.163c-0.126-0.028-0.252-0.042-0.42-0.042
		c-0.869,0-1.485,0.658-1.653,1.583c-0.028,0.168-0.056,0.364-0.056,0.574V63.786 M229.224,63.786h-1.233v-3.894
		c0-1.093-0.406-2.017-1.569-2.017c-0.798,0-1.429,0.56-1.653,1.233c-0.07,0.168-0.084,0.35-0.084,0.588v4.09h-1.233v-9.945h1.233
		v4.23h0.028c0.196-0.35,0.504-0.658,0.882-0.868c0.364-0.21,0.798-0.35,1.261-0.35c0.911,0,2.367,0.56,2.367,2.9V63.786
		 M213.077,63.786h-1.219v-5.841h-0.952v-0.939h0.952v-0.322c0-0.953,0.21-1.821,0.784-2.367c0.462-0.448,1.079-0.63,1.653-0.63
		c0.434,0,0.812,0.098,1.051,0.196l-0.168,0.952c-0.182-0.084-0.434-0.154-0.784-0.154c-1.051,0-1.317,0.925-1.317,1.961v0.364
		h1.639v0.939h-1.639V63.786 M181.205,63.786h-1.205v-3.838c0-1.303-0.476-2.087-1.471-2.087c-0.7,0-1.247,0.518-1.457,1.121
		c-0.056,0.168-0.098,0.392-0.098,0.616v4.188h-1.205v-4.062c0-1.079-0.476-1.863-1.415-1.863c-0.77,0-1.331,0.616-1.527,1.233
		c-0.07,0.182-0.098,0.392-0.098,0.602v4.09h-1.205v-4.945c0-0.7-0.014-1.275-0.056-1.835h1.079l0.056,1.093h0.042
		c0.378-0.644,1.009-1.247,2.129-1.247c0.925,0,1.625,0.56,1.919,1.359h0.028c0.21-0.378,0.476-0.672,0.756-0.883
		c0.406-0.308,0.854-0.476,1.499-0.476c0.897,0,2.227,0.588,2.227,2.942V63.786 M159.411,63.786h-1.233v-3.894
		c0-1.093-0.406-2.017-1.569-2.017c-0.798,0-1.429,0.56-1.653,1.233c-0.07,0.168-0.084,0.35-0.084,0.588v4.09h-1.233v-9.945h1.233
		v4.23h0.028c0.196-0.35,0.504-0.658,0.882-0.868c0.364-0.21,0.798-0.35,1.261-0.35c0.91,0,2.367,0.56,2.367,2.9V63.786
		 M138.34,63.786h-1.499l-2.339-3.25l-0.63,0.7v2.549h-1.219v-9.945h1.219v6.275h0.028c0.168-0.238,0.406-0.532,0.602-0.77
		l1.989-2.339h1.485l-2.619,2.787L138.34,63.786 M124.065,63.786h-1.205v-3.838c0-1.303-0.476-2.087-1.471-2.087
		c-0.7,0-1.247,0.518-1.457,1.121c-0.056,0.168-0.098,0.392-0.098,0.616v4.188h-1.205v-4.062c0-1.079-0.476-1.863-1.415-1.863
		c-0.77,0-1.331,0.616-1.527,1.233c-0.07,0.182-0.098,0.392-0.098,0.602v4.09h-1.205v-4.945c0-0.7-0.014-1.275-0.056-1.835h1.079
		l0.056,1.093h0.042c0.378-0.644,1.009-1.247,2.129-1.247c0.925,0,1.625,0.56,1.919,1.359h0.028c0.21-0.378,0.476-0.672,0.756-0.883
		c0.406-0.308,0.854-0.476,1.499-0.476c0.897,0,2.227,0.588,2.227,2.942V63.786 M46.264,63.786h-1.219v-4.665
		c0-0.798-0.014-1.485-0.056-2.115h1.079l0.042,1.331h0.056c0.308-0.911,1.051-1.485,1.877-1.485c0.14,0,0.238,0.014,0.35,0.042
		v1.163c-0.126-0.028-0.252-0.042-0.42-0.042c-0.869,0-1.485,0.658-1.653,1.583c-0.028,0.168-0.056,0.364-0.056,0.574V63.786
		 M21.741,63.786h-1.233v-3.908c0-1.093-0.406-2.003-1.569-2.003c-0.812,0-1.443,0.574-1.653,1.261
		c-0.056,0.154-0.084,0.364-0.084,0.574v4.076H15.97v-4.945c0-0.7-0.014-1.275-0.056-1.835h1.093l0.07,1.121h0.028
		c0.336-0.644,1.121-1.275,2.241-1.275c0.939,0,2.395,0.56,2.395,2.886V63.786 M365.412,55.858c-0.434,0-0.742-0.336-0.742-0.756
		c0-0.434,0.322-0.77,0.77-0.77c0.462,0,0.756,0.336,0.756,0.77C366.211,55.522,365.903,55.858,365.412,55.858 M330.14,55.858
		c-0.434,0-0.742-0.336-0.742-0.756c0-0.434,0.322-0.77,0.77-0.77c0.462,0,0.757,0.336,0.757,0.77
		C330.938,55.522,330.63,55.858,330.14,55.858 M274.367,55.858c-0.434,0-0.742-0.336-0.742-0.756c0-0.434,0.322-0.77,0.77-0.77
		c0.462,0,0.756,0.336,0.756,0.77C275.166,55.522,274.858,55.858,274.367,55.858"/>
	<path fill="#000000" d="M167.726,90.882l-0.308-1.037c0.308-0.098,0.714-0.294,1.079-0.602c0.336-0.266,0.756-0.742,1.037-1.373
		c0.056-0.126,0.098-0.224,0.098-0.294c0-0.07-0.028-0.168-0.084-0.322l-2.507-6.247h1.345l1.485,4.006
		c0.154,0.448,0.322,0.98,0.434,1.387h0.028c0.126-0.406,0.266-0.924,0.434-1.415l1.345-3.978h1.303l-1.849,4.833
		c-0.883,2.325-1.485,3.516-2.325,4.244C168.637,90.616,168.034,90.826,167.726,90.882 M226.025,90.714
		c-0.813,0-1.709-0.196-2.255-0.56l0.308-0.939c0.448,0.28,1.149,0.532,1.989,0.532c1.261,0,2.185-0.658,2.185-2.367v-0.756h-0.028
		c-0.378,0.63-1.107,1.135-2.157,1.135c-1.681,0-2.886-1.429-2.886-3.306c0-2.297,1.499-3.6,3.054-3.6
		c1.177,0,1.821,0.616,2.115,1.177h0.028l0.056-1.023h1.079c-0.028,0.49-0.056,1.036-0.056,1.863v3.936
		c0,1.555-0.308,2.507-0.967,3.096C227.832,90.518,226.88,90.714,226.025,90.714 M226.446,81.819c-1.177,0-2.017,0.995-2.017,2.563
		c0,1.331,0.672,2.437,2.003,2.437c0.756,0,1.443-0.476,1.709-1.261c0.07-0.21,0.098-0.448,0.098-0.658v-1.219
		c0-0.21-0.014-0.392-0.07-0.56C227.944,82.407,227.342,81.819,226.446,81.819 M348.845,87.94c-1.639,0-2.9-1.387-2.9-3.446
		c-0.014-2.255,1.387-3.642,3.04-3.642c1.037,0,1.737,0.49,2.045,1.037h0.028v-4.048h1.233v8.195c0,0.602,0.014,1.289,0.056,1.751
		h-1.107l-0.056-1.177h-0.028C350.778,87.366,349.952,87.94,348.845,87.94 M349.223,81.819c-1.275,0-2.031,1.121-2.031,2.619
		c0,1.373,0.672,2.507,2.003,2.507c0.826,0,1.583-0.546,1.807-1.471c0.042-0.168,0.056-0.336,0.056-0.532v-1.177
		c0-0.154-0.014-0.364-0.056-0.518C350.82,82.463,350.148,81.819,349.223,81.819 M333.568,87.94c-1.373,0-2.073-0.966-2.073-1.947
		c0-1.626,1.434-2.522,4.016-2.522c0.02,0,0.04,0,0.06,0v-0.14c0-0.56-0.154-1.569-1.541-1.569c-0.63,0-1.289,0.196-1.765,0.504
		l-0.28-0.812c0.56-0.364,1.373-0.602,2.227-0.602c2.073,0,2.577,1.415,2.577,2.773v2.535c0,0.588,0.028,1.163,0.112,1.625h-1.121
		l-0.098-0.854h-0.042C335.263,87.464,334.535,87.94,333.568,87.94 M335.401,84.324c-1.292,0-2.673,0.277-2.673,1.529
		c0,0.798,0.532,1.177,1.163,1.177c0.883,0,1.443-0.56,1.639-1.135c0.042-0.126,0.07-0.266,0.07-0.392v-1.177
		C335.533,84.325,335.467,84.324,335.401,84.324 M313.854,87.94c-1.835,0-3.25-1.345-3.25-3.488c0-2.269,1.485-3.6,3.362-3.6
		c1.947,0,3.264,1.415,3.264,3.488C317.23,86.848,315.493,87.94,313.854,87.94 M313.938,81.777c-1.457,0-2.087,1.345-2.087,2.633
		c0,1.485,0.854,2.605,2.059,2.605c1.177,0,2.059-1.107,2.059-2.633C315.969,83.234,315.395,81.777,313.938,81.777 M296.138,87.94
		c-0.98,0-1.765-0.378-2.269-1.275h-0.042l-0.056,1.121h-1.065c0.028-0.462,0.056-1.149,0.056-1.751v-8.195h1.219v4.258h0.028
		c0.434-0.756,1.219-1.247,2.311-1.247c1.681,0,2.872,1.401,2.858,3.46C299.178,86.736,297.651,87.94,296.138,87.94 M295.928,81.833
		c-0.84,0-1.625,0.574-1.877,1.513c-0.028,0.14-0.07,0.308-0.07,0.504v1.219c0,0.154,0.028,0.308,0.056,0.448
		c0.238,0.854,0.953,1.443,1.849,1.443c1.289,0,2.059-1.051,2.059-2.605C297.945,82.996,297.245,81.833,295.928,81.833
		 M284.728,87.94c-1.835,0-3.25-1.345-3.25-3.488c0-2.269,1.485-3.6,3.362-3.6c1.947,0,3.264,1.415,3.264,3.488
		C288.104,86.848,286.367,87.94,284.728,87.94 M284.812,81.777c-1.457,0-2.087,1.345-2.087,2.633c0,1.485,0.854,2.605,2.059,2.605
		c1.177,0,2.059-1.107,2.059-2.633C286.843,83.234,286.269,81.777,284.812,81.777 M269.416,87.94c-1.639,0-2.899-1.387-2.899-3.446
		c-0.014-2.255,1.387-3.642,3.04-3.642c1.036,0,1.737,0.49,2.045,1.037h0.028v-4.048h1.233v8.195c0,0.602,0.014,1.289,0.056,1.751
		h-1.107l-0.056-1.177h-0.028C271.349,87.366,270.523,87.94,269.416,87.94 M269.794,81.819c-1.275,0-2.031,1.121-2.031,2.619
		c0,1.373,0.672,2.507,2.003,2.507c0.827,0,1.583-0.546,1.807-1.471c0.042-0.168,0.056-0.336,0.056-0.532v-1.177
		c0-0.154-0.014-0.364-0.056-0.518C271.391,82.463,270.719,81.819,269.794,81.819 M189.45,87.94c-1.373,0-2.073-0.966-2.073-1.947
		c0-1.626,1.434-2.522,4.016-2.522c0.02,0,0.04,0,0.06,0v-0.14c0-0.56-0.154-1.569-1.541-1.569c-0.63,0-1.289,0.196-1.765,0.504
		l-0.28-0.812c0.56-0.364,1.373-0.602,2.227-0.602c2.073,0,2.577,1.415,2.577,2.773v2.535c0,0.588,0.028,1.163,0.112,1.625h-1.121
		l-0.098-0.854h-0.042C191.145,87.464,190.417,87.94,189.45,87.94 M191.283,84.324c-1.292,0-2.673,0.277-2.673,1.529
		c0,0.798,0.532,1.177,1.163,1.177c0.883,0,1.443-0.56,1.639-1.135c0.042-0.126,0.07-0.266,0.07-0.392v-1.177
		C191.416,84.325,191.35,84.324,191.283,84.324 M163.504,87.94c-0.98,0-1.765-0.378-2.269-1.275h-0.042l-0.056,1.121h-1.064
		c0.028-0.462,0.056-1.149,0.056-1.751v-8.195h1.219v4.258h0.028c0.434-0.756,1.219-1.247,2.311-1.247
		c1.681,0,2.872,1.401,2.858,3.46C166.544,86.736,165.017,87.94,163.504,87.94 M163.294,81.833c-0.84,0-1.625,0.574-1.877,1.513
		c-0.028,0.14-0.07,0.308-0.07,0.504v1.219c0,0.154,0.028,0.308,0.056,0.448c0.238,0.854,0.953,1.443,1.849,1.443
		c1.289,0,2.059-1.051,2.059-2.605C165.311,82.996,164.611,81.833,163.294,81.833 M140.619,87.94c-1.835,0-3.25-1.345-3.25-3.488
		c0-2.269,1.485-3.6,3.362-3.6c1.947,0,3.264,1.415,3.264,3.488C143.994,86.848,142.258,87.94,140.619,87.94 M140.703,81.777
		c-1.457,0-2.087,1.345-2.087,2.633c0,1.485,0.854,2.605,2.059,2.605c1.177,0,2.059-1.107,2.059-2.633
		C142.734,83.234,142.159,81.777,140.703,81.777 M113.085,87.94c-1.065,0-2.339-0.588-2.339-2.97v-3.964h1.233v3.754
		c0,1.289,0.392,2.157,1.513,2.157c0.826,0,1.401-0.574,1.625-1.121c0.07-0.182,0.112-0.406,0.112-0.63v-4.16h1.233v4.931
		c0,0.7,0.014,1.317,0.056,1.849h-1.093l-0.07-1.107h-0.028C115.004,87.226,114.29,87.94,113.085,87.94 M105.889,87.94
		c-1.835,0-3.25-1.345-3.25-3.488c0-2.269,1.485-3.6,3.362-3.6c1.947,0,3.264,1.415,3.264,3.488
		C109.265,86.848,107.528,87.94,105.889,87.94 M105.973,81.777c-1.457,0-2.087,1.345-2.087,2.633c0,1.485,0.854,2.605,2.059,2.605
		c1.177,0,2.059-1.107,2.059-2.633C108.004,83.234,107.43,81.777,105.973,81.777 M94.535,87.94c-1.639,0-2.899-1.387-2.899-3.446
		c-0.014-2.255,1.387-3.642,3.04-3.642c1.037,0,1.737,0.49,2.045,1.037h0.028v-4.048h1.233v8.195c0,0.602,0.014,1.289,0.056,1.751
		H96.93l-0.056-1.177h-0.028C96.468,87.366,95.642,87.94,94.535,87.94 M94.913,81.819c-1.275,0-2.031,1.121-2.031,2.619
		c0,1.373,0.672,2.507,2.003,2.507c0.826,0,1.583-0.546,1.807-1.471c0.042-0.168,0.056-0.336,0.056-0.532v-1.177
		c0-0.154-0.014-0.364-0.056-0.518C96.51,82.463,95.838,81.819,94.913,81.819 M61.162,87.94c-1.373,0-2.073-0.966-2.073-1.947
		c0-1.626,1.434-2.522,4.016-2.522c0.02,0,0.04,0,0.06,0v-0.14c0-0.56-0.154-1.569-1.541-1.569c-0.63,0-1.289,0.196-1.765,0.504
		l-0.28-0.812c0.56-0.364,1.373-0.602,2.227-0.602c2.073,0,2.577,1.415,2.577,2.773v2.535c0,0.588,0.028,1.163,0.112,1.625h-1.121
		l-0.098-0.854h-0.042C62.857,87.464,62.129,87.94,61.162,87.94 M62.994,84.324c-1.292,0-2.673,0.277-2.673,1.529
		c0,0.798,0.532,1.177,1.163,1.177c0.883,0,1.443-0.56,1.639-1.135c0.042-0.126,0.07-0.266,0.07-0.392v-1.177
		C63.127,84.325,63.061,84.324,62.994,84.324 M44.806,87.94c-1.065,0-2.339-0.588-2.339-2.97v-3.964H43.7v3.754
		c0,1.289,0.392,2.157,1.513,2.157c0.826,0,1.401-0.574,1.625-1.121c0.07-0.182,0.112-0.406,0.112-0.63v-4.16h1.233v4.931
		c0,0.7,0.014,1.317,0.056,1.849h-1.093l-0.07-1.107h-0.028C46.725,87.226,46.011,87.94,44.806,87.94 M37.611,87.94
		c-1.835,0-3.25-1.345-3.25-3.488c0-2.269,1.485-3.6,3.362-3.6c1.947,0,3.264,1.415,3.264,3.488
		C40.987,86.848,39.25,87.94,37.611,87.94 M37.695,81.777c-1.457,0-2.087,1.345-2.087,2.633c0,1.485,0.854,2.605,2.059,2.605
		c1.177,0,2.059-1.107,2.059-2.633C39.726,83.234,39.152,81.777,37.695,81.777 M22.71,87.94c-0.49,0-0.826-0.378-0.826-0.882
		c0-0.518,0.35-0.883,0.84-0.883c0.49,0,0.826,0.364,0.826,0.883C23.55,87.562,23.228,87.94,22.71,87.94 M11.286,87.94
		c-1.065,0-2.339-0.588-2.339-2.97v-3.964h1.233v3.754c0,1.289,0.392,2.157,1.513,2.157c0.826,0,1.401-0.574,1.625-1.121
		c0.07-0.182,0.112-0.406,0.112-0.63v-4.16h1.233v4.931c0,0.7,0.014,1.317,0.056,1.849h-1.093l-0.07-1.107h-0.028
		C13.205,87.226,12.49,87.94,11.286,87.94 M303.637,87.926c-2.087,0-3.334-1.373-3.334-3.418c0-2.045,1.205-3.656,3.18-3.656
		c2.213,0,2.801,1.947,2.801,3.194c0,0.252-0.028,0.448-0.042,0.574h-4.763c0.028,1.667,1.093,2.353,2.325,2.353
		c0.883,0,1.415-0.154,1.877-0.35l0.21,0.882C305.458,87.702,304.716,87.926,303.637,87.926 M303.385,81.735
		c-1.247,0-1.793,1.149-1.891,2.003h3.6C305.108,82.953,304.772,81.735,303.385,81.735 M277.725,87.926
		c-2.087,0-3.334-1.373-3.334-3.418c0-2.045,1.205-3.656,3.18-3.656c2.213,0,2.802,1.947,2.802,3.194
		c0,0.252-0.028,0.448-0.042,0.574h-4.763c0.028,1.667,1.093,2.353,2.325,2.353c0.883,0,1.415-0.154,1.877-0.35l0.21,0.882
		C279.546,87.702,278.804,87.926,277.725,87.926 M277.473,81.735c-1.247,0-1.793,1.149-1.891,2.003h3.6
		C279.196,82.953,278.86,81.735,277.473,81.735 M249.738,87.926c-2.087,0-3.334-1.373-3.334-3.418c0-2.045,1.205-3.656,3.18-3.656
		c2.213,0,2.802,1.947,2.802,3.194c0,0.252-0.028,0.448-0.042,0.574h-4.762c0.028,1.667,1.093,2.353,2.325,2.353
		c0.883,0,1.415-0.154,1.877-0.35l0.21,0.882C251.559,87.702,250.817,87.926,249.738,87.926 M249.486,81.735
		c-1.247,0-1.793,1.149-1.891,2.003h3.6C251.209,82.953,250.873,81.735,249.486,81.735 M236.693,87.926
		c-0.574,0-1.036-0.182-1.331-0.518c-0.35-0.364-0.476-0.967-0.476-1.765v-3.698h-1.051v-0.939h1.051v-1.625l1.205-0.322v1.947
		h1.765v0.939h-1.765v3.656c0,0.84,0.238,1.317,0.924,1.317c0.322,0,0.56-0.042,0.714-0.084l0.056,0.925
		C237.547,87.856,237.169,87.926,236.693,87.926 M201.819,87.926c-2.045,0-3.376-1.387-3.376-3.46c0-2.087,1.429-3.6,3.642-3.6
		c0.728,0,1.373,0.182,1.709,0.35l-0.28,0.952c-0.294-0.168-0.756-0.322-1.429-0.322c-1.555,0-2.395,1.149-2.395,2.563
		c0,1.569,1.008,2.535,2.353,2.535c0.7,0,1.163-0.182,1.513-0.336l0.21,0.924C203.444,87.702,202.729,87.926,201.819,87.926
		 M196.601,87.926c-0.574,0-1.036-0.182-1.331-0.518c-0.35-0.364-0.476-0.967-0.476-1.765v-3.698h-1.051v-0.939h1.051v-1.625
		l1.205-0.322v1.947h1.765v0.939h-1.765v3.656c0,0.84,0.238,1.317,0.924,1.317c0.322,0,0.56-0.042,0.714-0.084l0.056,0.925
		C197.455,87.856,197.077,87.926,196.601,87.926 M152.85,87.926c-2.087,0-3.334-1.373-3.334-3.418c0-2.045,1.205-3.656,3.18-3.656
		c2.213,0,2.802,1.947,2.802,3.194c0,0.252-0.028,0.448-0.042,0.574h-4.763c0.028,1.667,1.093,2.353,2.325,2.353
		c0.882,0,1.415-0.154,1.877-0.35l0.21,0.882C154.671,87.702,153.929,87.926,152.85,87.926 M152.598,81.735
		c-1.247,0-1.793,1.149-1.891,2.003h3.6C154.321,82.953,153.985,81.735,152.598,81.735 M120.543,87.926
		c-0.574,0-1.037-0.182-1.331-0.518c-0.35-0.364-0.476-0.967-0.476-1.765v-3.698h-1.051v-0.939h1.051v-1.625l1.205-0.322v1.947
		h1.765v0.939h-1.765v3.656c0,0.84,0.238,1.317,0.924,1.317c0.322,0,0.56-0.042,0.714-0.084l0.056,0.925
		C121.397,87.856,121.019,87.926,120.543,87.926 M56.217,87.926c-2.045,0-3.376-1.387-3.376-3.46c0-2.087,1.429-3.6,3.642-3.6
		c0.729,0,1.373,0.182,1.709,0.35l-0.28,0.952c-0.294-0.168-0.757-0.322-1.429-0.322c-1.555,0-2.395,1.149-2.395,2.563
		c0,1.569,1.008,2.535,2.353,2.535c0.7,0,1.163-0.182,1.513-0.336l0.21,0.924C57.841,87.702,57.127,87.926,56.217,87.926
		 M18.025,87.926c-0.742,0-1.429-0.182-1.905-0.462l0.308-0.939c0.364,0.238,1.009,0.49,1.625,0.49c0.897,0,1.317-0.448,1.317-1.008
		c0-0.588-0.35-0.911-1.261-1.247c-1.219-0.434-1.793-1.107-1.793-1.919c0-1.093,0.883-1.989,2.339-1.989
		c0.686,0,1.289,0.196,1.667,0.42l-0.308,0.896c-0.266-0.168-0.756-0.392-1.387-0.392c-0.728,0-1.135,0.42-1.135,0.924
		c0,0.56,0.406,0.812,1.289,1.149c1.177,0.448,1.779,1.036,1.779,2.045C20.56,87.086,19.636,87.926,18.025,87.926 M344.458,87.786
		h-1.233v-3.908c0-1.093-0.406-2.003-1.569-2.003c-0.812,0-1.443,0.574-1.653,1.261c-0.056,0.154-0.084,0.364-0.084,0.574v4.076
		h-1.233v-4.945c0-0.7-0.014-1.275-0.056-1.835h1.093l0.07,1.121h0.028c0.336-0.644,1.121-1.275,2.241-1.275
		c0.938,0,2.395,0.56,2.395,2.886V87.786 M325.507,87.786h-1.121l-1.036-3.236c-0.238-0.757-0.434-1.429-0.602-2.227h-0.028
		c-0.168,0.812-0.378,1.513-0.616,2.241l-1.093,3.222h-1.121l-2.045-6.78h1.261l0.897,3.446c0.196,0.756,0.378,1.457,0.504,2.157
		h0.042c0.154-0.686,0.378-1.415,0.602-2.143l1.107-3.46h1.037l1.051,3.39c0.252,0.812,0.448,1.527,0.602,2.213h0.042
		c0.112-0.686,0.294-1.401,0.518-2.199l0.967-3.404h1.219L325.507,87.786 M309.043,87.786h-1.233v-9.945h1.233V87.786
		 M264.993,87.786h-1.233v-6.78h1.233V87.786 M259.93,87.786h-1.177l-2.577-6.78h1.317l1.331,3.81
		c0.224,0.616,0.406,1.177,0.546,1.737h0.042c0.154-0.56,0.35-1.121,0.574-1.737l1.317-3.81h1.289L259.93,87.786 M244.902,87.786
		h-1.233v-3.894c0-1.093-0.406-2.017-1.569-2.017c-0.798,0-1.429,0.56-1.653,1.233c-0.07,0.168-0.084,0.35-0.084,0.588v4.09h-1.233
		v-9.945h1.233v4.23h0.028c0.196-0.35,0.504-0.658,0.883-0.868c0.364-0.21,0.798-0.35,1.261-0.35c0.911,0,2.367,0.56,2.367,2.9
		V87.786 M221.701,87.786h-1.233v-3.908c0-1.093-0.406-2.003-1.569-2.003c-0.812,0-1.443,0.574-1.653,1.261
		c-0.056,0.154-0.084,0.364-0.084,0.574v4.076h-1.233v-4.945c0-0.7-0.014-1.275-0.056-1.835h1.093l0.07,1.121h0.028
		c0.336-0.644,1.121-1.275,2.241-1.275c0.939,0,2.395,0.56,2.395,2.886V87.786 M213.989,87.786h-1.233v-6.78h1.233V87.786
		 M210.853,87.786h-1.233v-3.894c0-1.093-0.406-2.017-1.569-2.017c-0.798,0-1.429,0.56-1.653,1.233
		c-0.07,0.168-0.084,0.35-0.084,0.588v4.09h-1.233v-9.945h1.233v4.23h0.028c0.196-0.35,0.504-0.658,0.882-0.868
		c0.364-0.21,0.798-0.35,1.261-0.35c0.911,0,2.367,0.56,2.367,2.9V87.786 M184.53,87.786h-1.121l-1.037-3.236
		c-0.238-0.757-0.434-1.429-0.602-2.227h-0.028c-0.168,0.812-0.378,1.513-0.616,2.241l-1.093,3.222h-1.121l-2.045-6.78h1.261
		l0.896,3.446c0.196,0.756,0.378,1.457,0.504,2.157h0.042c0.154-0.686,0.378-1.415,0.602-2.143l1.107-3.46h1.036l1.051,3.39
		c0.252,0.812,0.448,1.527,0.602,2.213h0.042c0.112-0.686,0.294-1.401,0.518-2.199l0.967-3.404h1.219L184.53,87.786 M146.743,87.786
		h-1.219v-4.665c0-0.798-0.014-1.485-0.056-2.115h1.079l0.042,1.331h0.056c0.308-0.91,1.051-1.485,1.877-1.485
		c0.14,0,0.238,0.014,0.35,0.042v1.163c-0.126-0.028-0.252-0.042-0.42-0.042c-0.869,0-1.485,0.658-1.653,1.583
		c-0.028,0.168-0.056,0.364-0.056,0.574V87.786 M135.876,87.786h-1.205v-3.838c0-1.303-0.476-2.087-1.471-2.087
		c-0.7,0-1.247,0.518-1.457,1.121c-0.056,0.168-0.098,0.392-0.098,0.616v4.188h-1.205v-4.062c0-1.079-0.476-1.863-1.415-1.863
		c-0.77,0-1.331,0.616-1.527,1.233c-0.07,0.182-0.098,0.392-0.098,0.602v4.09h-1.205v-4.945c0-0.7-0.014-1.275-0.056-1.835h1.079
		l0.056,1.093h0.042c0.378-0.644,1.009-1.247,2.129-1.247c0.925,0,1.625,0.56,1.919,1.359h0.028c0.21-0.378,0.476-0.672,0.757-0.883
		c0.406-0.308,0.854-0.476,1.499-0.476c0.897,0,2.227,0.588,2.227,2.942V87.786 M90.148,87.786h-1.233v-3.908
		c0-1.093-0.406-2.003-1.569-2.003c-0.812,0-1.443,0.574-1.653,1.261C85.638,83.29,85.61,83.5,85.61,83.71v4.076h-1.233v-4.945
		c0-0.7-0.014-1.275-0.056-1.835h1.093l0.07,1.121h0.028c0.336-0.644,1.121-1.275,2.241-1.275c0.939,0,2.395,0.56,2.395,2.886
		V87.786 M82.439,87.786h-1.219v-5.841h-2.717v5.841h-1.219v-5.841h-0.952v-0.939h0.952v-0.364c0-1.793,1.051-2.955,2.956-2.955
		c0.63,0,1.373,0.196,1.723,0.448l-0.35,0.939c-0.294-0.21-0.826-0.392-1.429-0.392c-1.303,0-1.681,0.91-1.681,1.989v0.336h3.936
		V87.786 M72.052,87.786h-1.233v-3.908c0-1.093-0.406-2.003-1.569-2.003c-0.812,0-1.443,0.574-1.653,1.261
		c-0.056,0.154-0.084,0.364-0.084,0.574v4.076h-1.233v-4.945c0-0.7-0.014-1.275-0.056-1.835h1.093l0.07,1.121h0.028
		c0.336-0.644,1.121-1.275,2.241-1.275c0.939,0,2.395,0.56,2.395,2.886V87.786 M31.559,87.786h-1.233V83.78l-2.984-5.435h1.387
		l1.331,2.605c0.364,0.714,0.644,1.289,0.939,1.947h0.028c0.266-0.616,0.588-1.233,0.952-1.947l1.359-2.605h1.387l-3.166,5.421
		V87.786 M264.349,79.858c-0.434,0-0.742-0.336-0.742-0.756c0-0.434,0.322-0.77,0.77-0.77c0.462,0,0.757,0.336,0.757,0.77
		C265.147,79.522,264.839,79.858,264.349,79.858 M213.345,79.858c-0.434,0-0.742-0.336-0.742-0.756c0-0.434,0.322-0.77,0.77-0.77
		c0.462,0,0.756,0.336,0.756,0.77C214.143,79.522,213.835,79.858,213.345,79.858"/>
	<path fill="#000000" d="M254.953,114.714c-0.812,0-1.709-0.196-2.255-0.56l0.308-0.939c0.448,0.28,1.149,0.532,1.989,0.532
		c1.261,0,2.185-0.658,2.185-2.367v-0.756h-0.028c-0.378,0.63-1.107,1.135-2.157,1.135c-1.681,0-2.886-1.429-2.886-3.306
		c0-2.297,1.499-3.6,3.054-3.6c1.177,0,1.821,0.616,2.115,1.177h0.028l0.056-1.023h1.079c-0.028,0.49-0.056,1.037-0.056,1.863v3.936
		c0,1.555-0.308,2.507-0.967,3.096C256.76,114.518,255.807,114.714,254.953,114.714 M255.373,105.819
		c-1.177,0-2.017,0.995-2.017,2.563c0,1.331,0.672,2.437,2.003,2.437c0.756,0,1.443-0.476,1.709-1.261
		c0.07-0.21,0.098-0.448,0.098-0.658v-1.219c0-0.21-0.014-0.392-0.07-0.56C256.872,106.407,256.27,105.819,255.373,105.819
		 M41.861,114.714c-0.812,0-1.709-0.196-2.255-0.56l0.308-0.939c0.448,0.28,1.149,0.532,1.989,0.532
		c1.261,0,2.185-0.658,2.185-2.367v-0.756H44.06c-0.378,0.63-1.107,1.135-2.157,1.135c-1.681,0-2.886-1.429-2.886-3.306
		c0-2.297,1.499-3.6,3.054-3.6c1.177,0,1.821,0.616,2.115,1.177h0.028l0.056-1.023h1.079c-0.028,0.49-0.056,1.037-0.056,1.863v3.936
		c0,1.555-0.308,2.507-0.967,3.096C43.668,114.518,42.716,114.714,41.861,114.714 M42.281,105.819c-1.177,0-2.017,0.995-2.017,2.563
		c0,1.331,0.672,2.437,2.003,2.437c0.756,0,1.443-0.476,1.709-1.261c0.07-0.21,0.098-0.448,0.098-0.658v-1.219
		c0-0.21-0.014-0.392-0.07-0.56C43.78,106.407,43.178,105.819,42.281,105.819 M239.131,114.56h-1.219v-7.34
		c0-0.868-0.028-1.569-0.056-2.213h1.107l0.056,1.163h0.028c0.504-0.826,1.303-1.317,2.409-1.317c1.639,0,2.872,1.387,2.872,3.446
		c0,2.437-1.485,3.642-3.082,3.642c-0.896,0-1.681-0.392-2.087-1.065h-0.028V114.56 M241.078,105.833
		c-0.84,0-1.625,0.602-1.863,1.527c-0.042,0.154-0.084,0.336-0.084,0.504v1.163c0,0.182,0.028,0.35,0.056,0.504
		c0.224,0.854,0.967,1.443,1.849,1.443c1.303,0,2.059-1.065,2.059-2.62C243.095,106.996,242.381,105.833,241.078,105.833
		 M132.412,114.56h-1.219v-7.34c0-0.868-0.028-1.569-0.056-2.213h1.107l0.056,1.163h0.028c0.504-0.826,1.303-1.317,2.409-1.317
		c1.639,0,2.872,1.387,2.872,3.446c0,2.437-1.485,3.642-3.082,3.642c-0.896,0-1.681-0.392-2.087-1.065h-0.028V114.56
		 M134.359,105.833c-0.84,0-1.625,0.602-1.863,1.527c-0.042,0.154-0.084,0.336-0.084,0.504v1.163c0,0.182,0.028,0.35,0.056,0.504
		c0.224,0.854,0.967,1.443,1.849,1.443c1.303,0,2.059-1.065,2.059-2.62C136.377,106.996,135.662,105.833,134.359,105.833
		 M268.007,111.94c-0.49,0-0.826-0.378-0.826-0.869c0-0.504,0.35-0.868,0.826-0.868c0.504,0,0.826,0.364,0.826,0.868
		C268.833,111.562,268.511,111.94,268.007,111.94 M247.443,111.94c-1.373,0-2.073-0.967-2.073-1.947
		c0-1.626,1.434-2.521,4.016-2.521c0.02,0,0.04,0,0.061,0v-0.14c0-0.56-0.154-1.569-1.541-1.569c-0.63,0-1.289,0.196-1.765,0.504
		l-0.28-0.812c0.56-0.364,1.373-0.602,2.227-0.602c2.073,0,2.577,1.415,2.577,2.773v2.535c0,0.588,0.028,1.163,0.112,1.625h-1.121
		l-0.098-0.854h-0.042C249.138,111.464,248.41,111.94,247.443,111.94 M249.276,108.324c-1.292,0-2.673,0.277-2.673,1.529
		c0,0.798,0.532,1.177,1.163,1.177c0.883,0,1.443-0.56,1.639-1.135c0.042-0.126,0.07-0.266,0.07-0.392v-1.177
		C249.408,108.325,249.342,108.324,249.276,108.324 M170.288,111.94c-1.835,0-3.25-1.345-3.25-3.488c0-2.269,1.485-3.6,3.362-3.6
		c1.947,0,3.264,1.415,3.264,3.488C173.664,110.848,171.927,111.94,170.288,111.94 M170.372,105.777
		c-1.457,0-2.087,1.345-2.087,2.633c0,1.485,0.855,2.605,2.059,2.605c1.177,0,2.059-1.107,2.059-2.633
		C172.403,107.234,171.829,105.777,170.372,105.777 M140.724,111.94c-1.373,0-2.073-0.967-2.073-1.947
		c0-1.626,1.434-2.521,4.016-2.521c0.02,0,0.04,0,0.061,0v-0.14c0-0.56-0.154-1.569-1.541-1.569c-0.63,0-1.289,0.196-1.765,0.504
		l-0.28-0.812c0.56-0.364,1.373-0.602,2.227-0.602c2.073,0,2.577,1.415,2.577,2.773v2.535c0,0.588,0.028,1.163,0.112,1.625h-1.121
		l-0.098-0.854h-0.042C142.419,111.464,141.691,111.94,140.724,111.94 M142.557,108.324c-1.292,0-2.673,0.277-2.673,1.529
		c0,0.798,0.532,1.177,1.163,1.177c0.883,0,1.443-0.56,1.639-1.135c0.042-0.126,0.07-0.266,0.07-0.392v-1.177
		C142.689,108.325,142.623,108.324,142.557,108.324 M117.176,111.94c-1.639,0-2.9-1.387-2.9-3.446
		c-0.014-2.255,1.387-3.642,3.04-3.642c1.036,0,1.737,0.49,2.045,1.037h0.028v-4.048h1.233v8.195c0,0.602,0.014,1.289,0.056,1.751
		h-1.107l-0.056-1.177h-0.028C119.109,111.366,118.282,111.94,117.176,111.94 M117.554,105.819c-1.275,0-2.031,1.121-2.031,2.619
		c0,1.373,0.672,2.507,2.003,2.507c0.826,0,1.583-0.546,1.807-1.471c0.042-0.168,0.056-0.336,0.056-0.532v-1.177
		c0-0.154-0.014-0.364-0.056-0.518C119.151,106.463,118.479,105.819,117.554,105.819 M97.862,111.94
		c-1.065,0-2.339-0.588-2.339-2.97v-3.964h1.233v3.754c0,1.289,0.392,2.157,1.513,2.157c0.826,0,1.401-0.574,1.625-1.121
		c0.07-0.182,0.112-0.406,0.112-0.63v-4.16h1.233v4.931c0,0.7,0.014,1.317,0.056,1.849h-1.093l-0.07-1.107h-0.028
		C99.781,111.226,99.066,111.94,97.862,111.94 M85.956,111.94c-1.373,0-2.073-0.967-2.073-1.947c0-1.626,1.434-2.521,4.016-2.521
		c0.02,0,0.04,0,0.061,0v-0.14c0-0.56-0.154-1.569-1.541-1.569c-0.63,0-1.289,0.196-1.765,0.504l-0.28-0.812
		c0.56-0.364,1.373-0.602,2.227-0.602c2.073,0,2.577,1.415,2.577,2.773v2.535c0,0.588,0.028,1.163,0.112,1.625h-1.121l-0.098-0.854
		h-0.042C87.651,111.464,86.922,111.94,85.956,111.94 M87.788,108.324c-1.292,0-2.673,0.277-2.673,1.529
		c0,0.798,0.532,1.177,1.163,1.177c0.883,0,1.443-0.56,1.639-1.135c0.042-0.126,0.07-0.266,0.07-0.392v-1.177
		C87.921,108.325,87.855,108.324,87.788,108.324 M60.397,111.94c-1.065,0-2.339-0.588-2.339-2.97v-3.964h1.233v3.754
		c0,1.289,0.392,2.157,1.513,2.157c0.826,0,1.401-0.574,1.625-1.121c0.07-0.182,0.112-0.406,0.112-0.63v-4.16h1.233v4.931
		c0,0.7,0.014,1.317,0.056,1.849h-1.093l-0.07-1.107h-0.028C62.316,111.226,61.601,111.94,60.397,111.94 M53.201,111.94
		c-1.835,0-3.25-1.345-3.25-3.488c0-2.269,1.485-3.6,3.362-3.6c1.947,0,3.264,1.415,3.264,3.488
		C56.577,110.848,54.84,111.94,53.201,111.94 M53.285,105.777c-1.457,0-2.087,1.345-2.087,2.633c0,1.485,0.854,2.605,2.059,2.605
		c1.177,0,2.059-1.107,2.059-2.633C55.316,107.234,54.742,105.777,53.285,105.777 M263.248,111.926
		c-2.087,0-3.334-1.373-3.334-3.418c0-2.045,1.205-3.656,3.18-3.656c2.213,0,2.802,1.947,2.802,3.194
		c0,0.252-0.028,0.448-0.042,0.574h-4.763c0.028,1.667,1.093,2.353,2.325,2.353c0.882,0,1.415-0.154,1.877-0.35l0.21,0.882
		C265.069,111.702,264.327,111.926,263.248,111.926 M262.996,105.735c-1.247,0-1.793,1.149-1.891,2.003h3.6
		C264.719,106.953,264.383,105.735,262.996,105.735 M232.258,111.926c-0.574,0-1.037-0.182-1.331-0.518
		c-0.35-0.364-0.476-0.967-0.476-1.765v-3.698H229.4v-0.939h1.051v-1.625l1.205-0.322v1.947h1.765v0.939h-1.765v3.656
		c0,0.84,0.238,1.317,0.925,1.317c0.322,0,0.56-0.042,0.714-0.084l0.056,0.925C233.112,111.856,232.734,111.926,232.258,111.926
		 M219.09,111.926c-2.087,0-3.334-1.373-3.334-3.418c0-2.045,1.205-3.656,3.18-3.656c2.213,0,2.801,1.947,2.801,3.194
		c0,0.252-0.028,0.448-0.042,0.574h-4.763c0.028,1.667,1.093,2.353,2.325,2.353c0.883,0,1.415-0.154,1.877-0.35l0.21,0.882
		C220.911,111.702,220.169,111.926,219.09,111.926 M218.838,105.735c-1.247,0-1.793,1.149-1.891,2.003h3.6
		C220.561,106.953,220.225,105.735,218.838,105.735 M201.204,111.926c-2.087,0-3.334-1.373-3.334-3.418
		c0-2.045,1.205-3.656,3.18-3.656c2.213,0,2.802,1.947,2.802,3.194c0,0.252-0.028,0.448-0.042,0.574h-4.763
		c0.028,1.667,1.093,2.353,2.325,2.353c0.883,0,1.415-0.154,1.877-0.35l0.21,0.882C203.025,111.702,202.283,111.926,201.204,111.926
		 M200.952,105.735c-1.247,0-1.793,1.149-1.891,2.003h3.6C202.675,106.953,202.339,105.735,200.952,105.735 M188.159,111.926
		c-0.574,0-1.037-0.182-1.331-0.518c-0.35-0.364-0.476-0.967-0.476-1.765v-3.698h-1.051v-0.939h1.051v-1.625l1.205-0.322v1.947
		h1.765v0.939h-1.765v3.656c0,0.84,0.238,1.317,0.925,1.317c0.322,0,0.56-0.042,0.714-0.084l0.056,0.925
		C189.013,111.856,188.635,111.926,188.159,111.926 M160.306,111.926c-0.742,0-1.429-0.182-1.905-0.462l0.308-0.939
		c0.364,0.238,1.009,0.49,1.625,0.49c0.896,0,1.317-0.448,1.317-1.008c0-0.588-0.35-0.911-1.261-1.247
		c-1.219-0.434-1.793-1.107-1.793-1.919c0-1.093,0.883-1.989,2.339-1.989c0.686,0,1.289,0.196,1.667,0.42l-0.308,0.896
		c-0.266-0.168-0.756-0.392-1.387-0.392c-0.728,0-1.135,0.42-1.135,0.924c0,0.56,0.406,0.812,1.289,1.149
		c1.177,0.448,1.779,1.036,1.779,2.045C162.841,111.086,161.917,111.926,160.306,111.926 M154.781,111.926
		c-2.087,0-3.334-1.373-3.334-3.418c0-2.045,1.205-3.656,3.18-3.656c2.213,0,2.801,1.947,2.801,3.194
		c0,0.252-0.028,0.448-0.042,0.574h-4.762c0.028,1.667,1.093,2.353,2.325,2.353c0.883,0,1.415-0.154,1.877-0.35l0.21,0.882
		C156.602,111.702,155.859,111.926,154.781,111.926 M154.529,105.735c-1.247,0-1.793,1.149-1.891,2.003h3.6
		C156.252,106.953,155.915,105.735,154.529,105.735 M148.766,111.926c-2.045,0-3.376-1.387-3.376-3.46c0-2.087,1.429-3.6,3.642-3.6
		c0.728,0,1.373,0.182,1.709,0.35l-0.28,0.952c-0.294-0.168-0.756-0.322-1.429-0.322c-1.555,0-2.395,1.149-2.395,2.563
		c0,1.569,1.009,2.535,2.353,2.535c0.7,0,1.163-0.182,1.513-0.336l0.21,0.924C150.391,111.702,149.677,111.926,148.766,111.926
		 M127.199,111.926c-0.742,0-1.429-0.182-1.905-0.462l0.308-0.939c0.364,0.238,1.009,0.49,1.625,0.49
		c0.896,0,1.317-0.448,1.317-1.008c0-0.588-0.35-0.911-1.261-1.247c-1.219-0.434-1.793-1.107-1.793-1.919
		c0-1.093,0.883-1.989,2.339-1.989c0.686,0,1.289,0.196,1.667,0.42l-0.308,0.896c-0.266-0.168-0.757-0.392-1.387-0.392
		c-0.728,0-1.135,0.42-1.135,0.924c0,0.56,0.406,0.812,1.289,1.149c1.177,0.448,1.779,1.036,1.779,2.045
		C129.734,111.086,128.81,111.926,127.199,111.926 M110.523,111.926c-2.087,0-3.334-1.373-3.334-3.418
		c0-2.045,1.205-3.656,3.18-3.656c2.213,0,2.802,1.947,2.802,3.194c0,0.252-0.028,0.448-0.042,0.574h-4.763
		c0.028,1.667,1.093,2.353,2.325,2.353c0.883,0,1.415-0.154,1.877-0.35l0.21,0.882C112.344,111.702,111.602,111.926,110.523,111.926
		 M110.271,105.735c-1.247,0-1.793,1.149-1.891,2.003h3.6C111.994,106.953,111.658,105.735,110.271,105.735 M93.106,111.926
		c-0.574,0-1.037-0.182-1.331-0.518c-0.35-0.364-0.476-0.967-0.476-1.765v-3.698h-1.051v-0.939h1.051v-1.625l1.205-0.322v1.947
		h1.765v0.939h-1.765v3.656c0,0.84,0.238,1.317,0.925,1.317c0.322,0,0.56-0.042,0.714-0.084l0.056,0.925
		C93.96,111.856,93.582,111.926,93.106,111.926 M80.319,111.926c-2.087,0-3.334-1.373-3.334-3.418c0-2.045,1.205-3.656,3.18-3.656
		c2.213,0,2.802,1.947,2.802,3.194c0,0.252-0.028,0.448-0.042,0.574h-4.763c0.028,1.667,1.093,2.353,2.325,2.353
		c0.883,0,1.415-0.154,1.877-0.35l0.21,0.882C82.14,111.702,81.397,111.926,80.319,111.926 M80.067,105.735
		c-1.247,0-1.793,1.149-1.891,2.003h3.6C81.79,106.953,81.453,105.735,80.067,105.735 M24.458,111.926
		c-2.087,0-3.334-1.373-3.334-3.418c0-2.045,1.205-3.656,3.18-3.656c2.213,0,2.802,1.947,2.802,3.194
		c0,0.252-0.028,0.448-0.042,0.574h-4.763c0.028,1.667,1.093,2.353,2.325,2.353c0.883,0,1.415-0.154,1.877-0.35l0.21,0.882
		C26.279,111.702,25.537,111.926,24.458,111.926 M24.206,105.735c-1.247,0-1.793,1.149-1.891,2.003h3.6
		C25.929,106.953,25.593,105.735,24.206,105.735 M17.372,111.926c-2.087,0-3.334-1.373-3.334-3.418c0-2.045,1.205-3.656,3.18-3.656
		c2.213,0,2.802,1.947,2.802,3.194c0,0.252-0.028,0.448-0.042,0.574h-4.763c0.028,1.667,1.093,2.353,2.325,2.353
		c0.883,0,1.415-0.154,1.877-0.35l0.21,0.882C19.193,111.702,18.45,111.926,17.372,111.926 M17.12,105.735
		c-1.247,0-1.793,1.149-1.891,2.003h3.6C18.842,106.953,18.506,105.735,17.12,105.735 M10.417,111.926
		c-0.742,0-1.429-0.182-1.905-0.462l0.308-0.939c0.364,0.238,1.008,0.49,1.625,0.49c0.897,0,1.317-0.448,1.317-1.008
		c0-0.588-0.35-0.911-1.261-1.247c-1.219-0.434-1.793-1.107-1.793-1.919c0-1.093,0.883-1.989,2.339-1.989
		c0.686,0,1.289,0.196,1.667,0.42l-0.308,0.896c-0.266-0.168-0.756-0.392-1.387-0.392c-0.728,0-1.135,0.42-1.135,0.924
		c0,0.56,0.406,0.812,1.289,1.149c1.177,0.448,1.779,1.036,1.779,2.045C12.952,111.086,12.028,111.926,10.417,111.926
		 M228.637,111.786h-1.401l-0.995-1.527c-0.266-0.392-0.49-0.77-0.728-1.177h-0.028c-0.224,0.406-0.462,0.77-0.714,1.177
		l-0.981,1.527h-1.359l2.409-3.46l-2.297-3.32h1.373l0.967,1.457c0.252,0.378,0.462,0.728,0.686,1.107h0.042
		c0.224-0.406,0.448-0.756,0.672-1.121l0.952-1.443h1.331l-2.311,3.278L228.637,111.786 M214.253,111.786h-1.233v-3.908
		c0-1.093-0.406-2.003-1.569-2.003c-0.813,0-1.443,0.574-1.653,1.261c-0.056,0.154-0.084,0.364-0.084,0.574v4.076h-1.233v-4.945
		c0-0.7-0.014-1.275-0.056-1.835h1.093l0.07,1.121h0.028c0.336-0.644,1.121-1.275,2.241-1.275c0.939,0,2.395,0.56,2.395,2.886
		V111.786 M196.367,111.786h-1.233v-3.894c0-1.093-0.406-2.017-1.569-2.017c-0.798,0-1.429,0.56-1.653,1.233
		c-0.07,0.168-0.084,0.35-0.084,0.588v4.09h-1.233v-9.945h1.233v4.23h0.028c0.196-0.35,0.504-0.658,0.883-0.869
		c0.364-0.21,0.798-0.35,1.261-0.35c0.91,0,2.367,0.56,2.367,2.9V111.786 M180.965,111.786h-1.233v-3.908
		c0-1.093-0.406-2.003-1.569-2.003c-0.812,0-1.443,0.574-1.653,1.261c-0.056,0.154-0.084,0.364-0.084,0.574v4.076h-1.233v-4.945
		c0-0.7-0.014-1.275-0.056-1.835h1.093l0.07,1.121h0.028c0.336-0.644,1.121-1.275,2.241-1.275c0.939,0,2.395,0.56,2.395,2.886
		V111.786 M104.416,111.786h-1.219v-4.664c0-0.798-0.014-1.485-0.056-2.115h1.079l0.042,1.331h0.056
		c0.308-0.91,1.051-1.485,1.877-1.485c0.14,0,0.238,0.014,0.35,0.042v1.163c-0.126-0.028-0.252-0.042-0.42-0.042
		c-0.868,0-1.485,0.658-1.653,1.583c-0.028,0.168-0.056,0.364-0.056,0.574V111.786 M74.763,111.786h-1.219v-5.841h-0.953v-0.939
		h0.953v-0.322c0-0.952,0.21-1.821,0.784-2.367c0.462-0.448,1.079-0.63,1.653-0.63c0.434,0,0.812,0.098,1.051,0.196l-0.168,0.952
		c-0.182-0.084-0.434-0.154-0.784-0.154c-1.051,0-1.317,0.924-1.317,1.961v0.364h1.639v0.939h-1.639V111.786 M66.951,111.786h-1.219
		v-4.664c0-0.798-0.014-1.485-0.056-2.115h1.079l0.042,1.331h0.056c0.308-0.91,1.051-1.485,1.877-1.485
		c0.14,0,0.238,0.014,0.35,0.042v1.163c-0.126-0.028-0.252-0.042-0.42-0.042c-0.868,0-1.485,0.658-1.653,1.583
		c-0.028,0.168-0.056,0.364-0.056,0.574V111.786 M37.537,111.786h-1.233v-3.908c0-1.093-0.406-2.003-1.569-2.003
		c-0.812,0-1.443,0.574-1.653,1.261c-0.056,0.154-0.084,0.364-0.084,0.574v4.076h-1.233v-4.945c0-0.7-0.014-1.275-0.056-1.835h1.093
		l0.07,1.121h0.028c0.336-0.644,1.121-1.275,2.241-1.275c0.939,0,2.395,0.56,2.395,2.886V111.786 M29.825,111.786h-1.233v-6.78
		h1.233V111.786 M268.483,109.069h-0.952l-0.196-6.724h1.345L268.483,109.069 M29.181,103.858c-0.434,0-0.742-0.336-0.742-0.756
		c0-0.434,0.322-0.77,0.77-0.77c0.462,0,0.756,0.336,0.756,0.77C29.979,103.522,29.671,103.858,29.181,103.858"/>
</g>
</svg>
