<!-- Generator: Adobe InDesign 20.3 SVG Export Plug-in, SVG Library version: 9.3 build 254 -->
<!DOCTYPE svg PUBLIC "-//W3C//DTD SVG 1.1//EN" "http://www.w3.org/Graphics/SVG/1.1/DTD/svg11.dtd">
<svg version="1.1" xmlns="http://www.w3.org/2000/svg" xmlns:xlink="http://www.w3.org/1999/xlink" x="0%" y="0%" width="100%"
	 height="100%" viewBox="0 0 251.783 113.926" preserveAspectRatio="xMidYMid slice" overflow="visible" xml:space="preserve">
<clipPath id="clp_unq_id_1" fill="none">
	<path shape-rendering="crispEdges" stroke="#000000" d="M0,0h251.783v113.926H0V0"/>
</clipPath>
<g clip-path="url(#clp_unq_id_1)" fill="none">
	<path fill="#000000" d="M169.269,16.17c-0.457,0-0.904-0.098-1.342-0.293c-0.438-0.195-0.771-0.463-1.002-0.803l0.562-0.65
		c0.465,0.574,1.033,0.861,1.705,0.861c0.527,0,0.938-0.149,1.233-0.445c0.295-0.297,0.442-0.715,0.442-1.254v-0.545
		c-0.434,0.5-1.025,0.75-1.775,0.75c-0.742,0-1.343-0.299-1.802-0.896c-0.459-0.598-0.688-1.412-0.688-2.443
		c0-0.988,0.229-1.774,0.686-2.358c0.457-0.584,1.063-0.876,1.816-0.876c0.773,0,1.377,0.273,1.811,0.82l0.053-0.703h0.99v6.187
		c0,0.82-0.243,1.467-0.729,1.939C170.742,15.934,170.089,16.17,169.269,16.17 M169.374,8.137c-0.527,0-0.939,0.205-1.236,0.615
		c-0.297,0.41-0.445,1.018-0.445,1.822c0,0.715,0.146,1.276,0.439,1.685c0.293,0.408,0.703,0.612,1.23,0.612
		c0.684,0,1.186-0.311,1.506-0.932V9.045C170.536,8.439,170.038,8.137,169.374,8.137 M178.641,13.791
		c-0.625,0-1.138-0.177-1.538-0.53c-0.4-0.353-0.601-0.802-0.601-1.345c0-0.66,0.251-1.173,0.753-1.538
		c0.502-0.365,1.208-0.548,2.118-0.548h1.055V9.332c0-0.379-0.113-0.681-0.34-0.905c-0.227-0.225-0.561-0.337-1.002-0.337
		c-0.387,0-0.711,0.098-0.973,0.293c-0.262,0.195-0.393,0.432-0.393,0.709h-1.09c0-0.316,0.112-0.622,0.337-0.917
		c0.225-0.295,0.529-0.528,0.914-0.7c0.385-0.172,0.808-0.258,1.269-0.258c0.73,0,1.303,0.183,1.717,0.548
		c0.414,0.365,0.629,0.868,0.645,1.509v2.918c0,0.582,0.074,1.045,0.223,1.389v0.094h-1.137c-0.063-0.125-0.113-0.348-0.152-0.668
		C179.941,13.529,179.34,13.791,178.641,13.791 M179.578,10.598c-1.328,0-1.992,0.389-1.992,1.166c0,0.34,0.113,0.606,0.34,0.797
		c0.227,0.191,0.518,0.287,0.873,0.287c0.34,0,0.662-0.088,0.967-0.264c0.305-0.176,0.525-0.404,0.662-0.686v-1.301H179.578
		 M155.265,13.791c-0.484,0-0.85-0.146-1.096-0.439c-0.246-0.293-0.369-0.709-0.369-1.248V8.172h-1.154V7.334h1.154V5.799h1.084
		v1.535h1.184v0.838h-1.184v3.937c0,0.254,0.053,0.445,0.158,0.572c0.105,0.127,0.285,0.191,0.539,0.191
		c0.125,0,0.297-0.023,0.516-0.07v0.874C155.812,13.752,155.534,13.791,155.265,13.791 M148.805,13.791
		c-0.625,0-1.138-0.177-1.538-0.53c-0.4-0.353-0.601-0.802-0.601-1.345c0-0.66,0.251-1.173,0.753-1.538
		c0.502-0.365,1.208-0.548,2.118-0.548h1.055V9.332c0-0.379-0.113-0.681-0.34-0.905c-0.227-0.225-0.561-0.337-1.002-0.337
		c-0.387,0-0.711,0.098-0.973,0.293c-0.262,0.195-0.393,0.432-0.393,0.709h-1.09c0-0.316,0.112-0.622,0.337-0.917
		c0.225-0.295,0.529-0.528,0.914-0.7c0.385-0.172,0.808-0.258,1.269-0.258c0.73,0,1.303,0.183,1.717,0.548
		c0.414,0.365,0.629,0.868,0.645,1.509v2.918c0,0.582,0.074,1.045,0.223,1.389v0.094h-1.137c-0.063-0.125-0.113-0.348-0.152-0.668
		C150.105,13.529,149.504,13.791,148.805,13.791 M149.742,10.598c-1.328,0-1.992,0.389-1.992,1.166c0,0.34,0.113,0.606,0.34,0.797
		c0.227,0.191,0.518,0.287,0.873,0.287c0.34,0,0.662-0.088,0.967-0.264c0.305-0.176,0.525-0.404,0.662-0.686v-1.301H149.742
		 M143.12,13.791c-0.859,0-1.559-0.282-2.098-0.847c-0.539-0.564-0.809-1.319-0.809-2.265V10.48c0-0.629,0.12-1.19,0.36-1.685
		c0.24-0.494,0.576-0.881,1.008-1.16c0.432-0.279,0.899-0.419,1.403-0.419c0.824,0,1.465,0.272,1.922,0.814
		c0.457,0.543,0.686,1.32,0.686,2.332v0.451h-4.295c0.016,0.625,0.198,1.13,0.548,1.515c0.35,0.385,0.794,0.577,1.333,0.577
		c0.383,0,0.707-0.078,0.973-0.234c0.266-0.156,0.498-0.363,0.697-0.621l0.662,0.516C144.979,13.383,144.182,13.791,143.12,13.791
		 M142.985,8.107c-0.438,0-0.805,0.159-1.102,0.478c-0.297,0.318-0.48,0.765-0.551,1.339h3.176V9.842
		c-0.031-0.551-0.18-0.977-0.445-1.28C143.797,8.259,143.438,8.107,142.985,8.107 M132.61,13.791c-0.863,0-1.55-0.288-2.06-0.864
		c-0.51-0.576-0.765-1.364-0.765-2.364v-0.182c0-0.617,0.113-1.166,0.34-1.647c0.226-0.48,0.552-0.853,0.976-1.119
		c0.424-0.266,0.925-0.398,1.503-0.398c0.711,0,1.302,0.213,1.772,0.639c0.471,0.426,0.722,0.978,0.753,1.658h-1.025
		c-0.031-0.41-0.187-0.747-0.466-1.011c-0.279-0.264-0.624-0.396-1.034-0.396c-0.551,0-0.978,0.198-1.28,0.595
		c-0.303,0.396-0.454,0.97-0.454,1.72v0.205c0,0.73,0.15,1.293,0.451,1.687c0.301,0.395,0.73,0.592,1.289,0.592
		c0.387,0,0.725-0.117,1.014-0.352c0.289-0.234,0.449-0.527,0.48-0.879h1.025c-0.02,0.363-0.145,0.709-0.375,1.037
		c-0.231,0.328-0.538,0.59-0.923,0.785C133.447,13.693,133.039,13.791,132.61,13.791 M122.734,13.791
		c-0.859,0-1.556-0.299-2.089-0.896c-0.533-0.598-0.8-1.389-0.8-2.373v-0.076c0-0.621,0.122-1.18,0.366-1.676
		c0.244-0.496,0.584-0.879,1.02-1.148c0.435-0.27,0.933-0.404,1.491-0.404c0.863,0,1.562,0.299,2.095,0.896
		c0.533,0.598,0.8,1.393,0.8,2.385v0.076c0,0.617-0.118,1.171-0.354,1.661c-0.236,0.49-0.574,0.872-1.014,1.146
		C123.809,13.654,123.304,13.791,122.734,13.791 M122.722,8.107c-0.535,0-0.967,0.213-1.295,0.639
		c-0.328,0.426-0.492,1.035-0.492,1.828c0,0.703,0.163,1.268,0.489,1.693c0.326,0.426,0.763,0.639,1.31,0.639
		c0.551,0,0.988-0.216,1.312-0.647c0.324-0.432,0.486-1.036,0.486-1.813c0-0.695-0.165-1.259-0.495-1.69
		C123.707,8.323,123.269,8.107,122.722,8.107 M118.228,13.791c-0.484,0-0.85-0.146-1.096-0.439
		c-0.246-0.293-0.369-0.709-0.369-1.248V8.172h-1.154V7.334h1.154V5.799h1.084v1.535h1.184v0.838h-1.184v3.937
		c0,0.254,0.053,0.445,0.158,0.572c0.105,0.127,0.285,0.191,0.539,0.191c0.125,0,0.297-0.023,0.516-0.07v0.874
		C118.775,13.752,118.498,13.791,118.228,13.791 M108.745,13.791c-0.734,0-1.333-0.301-1.796-0.902
		c-0.463-0.601-0.694-1.387-0.694-2.355v-0.082c0-0.973,0.23-1.755,0.691-2.347c0.461-0.592,1.064-0.888,1.811-0.888
		c0.742,0,1.33,0.254,1.764,0.762V4.674h1.084v9h-0.996l-0.053-0.68C110.122,13.525,109.518,13.791,108.745,13.791 M109.026,8.137
		c-0.531,0-0.945,0.205-1.242,0.615c-0.297,0.41-0.445,1.018-0.445,1.822c0,0.719,0.148,1.281,0.445,1.688
		c0.297,0.406,0.707,0.609,1.23,0.609c0.687,0,1.189-0.309,1.506-0.926V9.033C110.196,8.436,109.698,8.137,109.026,8.137
		 M102.666,13.791c-0.859,0-1.559-0.282-2.098-0.847c-0.539-0.564-0.809-1.319-0.809-2.265V10.48c0-0.629,0.12-1.19,0.36-1.685
		c0.24-0.494,0.576-0.881,1.008-1.16c0.432-0.279,0.899-0.419,1.403-0.419c0.824,0,1.465,0.272,1.922,0.814
		c0.457,0.543,0.686,1.32,0.686,2.332v0.451h-4.295c0.016,0.625,0.198,1.13,0.548,1.515c0.35,0.385,0.794,0.577,1.333,0.577
		c0.383,0,0.707-0.078,0.973-0.234c0.266-0.156,0.498-0.363,0.697-0.621l0.662,0.516C104.525,13.383,103.728,13.791,102.666,13.791
		 M102.531,8.107c-0.438,0-0.805,0.159-1.102,0.478c-0.297,0.318-0.48,0.765-0.551,1.339h3.176V9.842
		c-0.031-0.551-0.18-0.977-0.445-1.28C103.344,8.259,102.984,8.107,102.531,8.107 M98.119,13.791c-0.484,0-0.85-0.146-1.096-0.439
		c-0.246-0.293-0.369-0.709-0.369-1.248V8.172H95.5V7.334h1.154V5.799h1.084v1.535h1.184v0.838h-1.184v3.937
		c0,0.254,0.053,0.445,0.158,0.572c0.105,0.127,0.285,0.191,0.539,0.191c0.125,0,0.297-0.023,0.516-0.07v0.874
		C98.666,13.752,98.389,13.791,98.119,13.791 M91.659,13.791c-0.625,0-1.138-0.177-1.538-0.53c-0.4-0.353-0.601-0.802-0.601-1.345
		c0-0.66,0.251-1.173,0.753-1.538c0.502-0.365,1.208-0.548,2.118-0.548h1.055V9.332c0-0.379-0.113-0.681-0.34-0.905
		C92.88,8.202,92.546,8.09,92.104,8.09c-0.387,0-0.711,0.098-0.973,0.293c-0.262,0.195-0.393,0.432-0.393,0.709h-1.09
		c0-0.316,0.112-0.622,0.337-0.917c0.225-0.295,0.529-0.528,0.914-0.7c0.385-0.172,0.808-0.258,1.269-0.258
		c0.73,0,1.303,0.183,1.717,0.548c0.414,0.365,0.629,0.868,0.645,1.509v2.918c0,0.582,0.074,1.045,0.223,1.389v0.094h-1.137
		c-0.063-0.125-0.113-0.348-0.152-0.668C92.96,13.529,92.358,13.791,91.659,13.791 M92.596,10.598c-1.328,0-1.992,0.389-1.992,1.166
		c0,0.34,0.113,0.606,0.34,0.797c0.227,0.191,0.518,0.287,0.873,0.287c0.34,0,0.662-0.088,0.967-0.264
		c0.305-0.176,0.525-0.404,0.662-0.686v-1.301H92.596 M85.887,13.791c-0.863,0-1.55-0.288-2.06-0.864
		c-0.51-0.576-0.765-1.364-0.765-2.364v-0.182c0-0.617,0.113-1.166,0.34-1.647c0.226-0.48,0.552-0.853,0.976-1.119
		c0.424-0.266,0.925-0.398,1.503-0.398c0.711,0,1.302,0.213,1.772,0.639c0.471,0.426,0.722,0.978,0.753,1.658h-1.025
		c-0.031-0.41-0.187-0.747-0.466-1.011c-0.279-0.264-0.624-0.396-1.034-0.396c-0.551,0-0.978,0.198-1.28,0.595
		c-0.303,0.396-0.454,0.97-0.454,1.72v0.205c0,0.73,0.15,1.293,0.451,1.687c0.301,0.395,0.73,0.592,1.289,0.592
		c0.387,0,0.725-0.117,1.014-0.352c0.289-0.234,0.449-0.527,0.48-0.879h1.025c-0.02,0.363-0.145,0.709-0.375,1.037
		c-0.231,0.328-0.538,0.59-0.923,0.785C86.724,13.693,86.316,13.791,85.887,13.791 M75.882,13.791c-0.734,0-1.333-0.301-1.796-0.902
		c-0.463-0.601-0.694-1.387-0.694-2.355v-0.082c0-0.973,0.23-1.755,0.691-2.347c0.461-0.592,1.064-0.888,1.811-0.888
		c0.742,0,1.33,0.254,1.764,0.762V4.674h1.084v9h-0.996l-0.053-0.68C77.259,13.525,76.656,13.791,75.882,13.791 M76.163,8.137
		c-0.531,0-0.945,0.205-1.242,0.615c-0.297,0.41-0.445,1.018-0.445,1.822c0,0.719,0.148,1.281,0.445,1.688
		c0.297,0.406,0.707,0.609,1.23,0.609c0.687,0,1.189-0.309,1.506-0.926V9.033C77.333,8.436,76.835,8.137,76.163,8.137
		 M69.803,13.791c-0.859,0-1.559-0.282-2.098-0.847c-0.539-0.564-0.809-1.319-0.809-2.265V10.48c0-0.629,0.12-1.19,0.36-1.685
		c0.24-0.494,0.576-0.881,1.008-1.16c0.432-0.279,0.899-0.419,1.403-0.419c0.824,0,1.465,0.272,1.922,0.814
		c0.457,0.543,0.686,1.32,0.686,2.332v0.451h-4.295c0.016,0.625,0.198,1.13,0.548,1.515c0.35,0.385,0.794,0.577,1.333,0.577
		c0.383,0,0.707-0.078,0.973-0.234c0.266-0.156,0.498-0.363,0.697-0.621l0.662,0.516C71.662,13.383,70.866,13.791,69.803,13.791
		 M69.668,8.107c-0.438,0-0.805,0.159-1.102,0.478c-0.297,0.318-0.48,0.765-0.551,1.339h3.176V9.842
		c-0.031-0.551-0.18-0.977-0.445-1.28C70.481,8.259,70.121,8.107,69.668,8.107 M62.581,13.791c-0.734,0-1.333-0.301-1.796-0.902
		c-0.463-0.601-0.694-1.387-0.694-2.355v-0.082c0-0.973,0.23-1.755,0.691-2.347c0.461-0.592,1.064-0.888,1.811-0.888
		c0.742,0,1.33,0.254,1.764,0.762V4.674h1.084v9h-0.996l-0.053-0.68C63.958,13.525,63.354,13.791,62.581,13.791 M62.862,8.137
		c-0.531,0-0.945,0.205-1.242,0.615c-0.297,0.41-0.445,1.018-0.445,1.822c0,0.719,0.148,1.281,0.445,1.688
		c0.297,0.406,0.707,0.609,1.23,0.609c0.687,0,1.189-0.309,1.506-0.926V9.033C64.032,8.436,63.534,8.137,62.862,8.137
		 M53.408,13.791c-0.508,0-0.957-0.09-1.348-0.27c-0.391-0.18-0.696-0.431-0.917-0.753c-0.221-0.322-0.331-0.671-0.331-1.046h1.084
		c0.019,0.363,0.165,0.651,0.436,0.864c0.271,0.213,0.63,0.319,1.075,0.319c0.41,0,0.739-0.083,0.987-0.249
		c0.248-0.166,0.372-0.388,0.372-0.665c0-0.293-0.11-0.521-0.331-0.683c-0.221-0.162-0.606-0.302-1.154-0.419
		c-0.549-0.117-0.984-0.258-1.307-0.422c-0.322-0.164-0.561-0.359-0.715-0.586c-0.154-0.226-0.231-0.496-0.231-0.809
		c0-0.52,0.22-0.959,0.659-1.318c0.439-0.359,1.001-0.539,1.685-0.539c0.719,0,1.302,0.186,1.749,0.557
		c0.447,0.371,0.671,0.846,0.671,1.424h-1.09c0-0.297-0.126-0.553-0.378-0.768c-0.252-0.215-0.569-0.322-0.952-0.322
		c-0.395,0-0.703,0.086-0.926,0.258c-0.223,0.172-0.334,0.397-0.334,0.674c0,0.262,0.103,0.459,0.311,0.592
		c0.207,0.133,0.581,0.26,1.122,0.381c0.541,0.121,0.979,0.266,1.315,0.434c0.336,0.168,0.585,0.37,0.747,0.606
		c0.162,0.236,0.243,0.524,0.243,0.864c0,0.566-0.227,1.021-0.68,1.362C54.719,13.62,54.131,13.791,53.408,13.791 M30.11,13.791
		c-0.586,0-1.133-0.112-1.641-0.337c-0.508-0.225-0.899-0.532-1.175-0.923c-0.275-0.391-0.413-0.834-0.413-1.33h1.131
		c0,0.516,0.19,0.923,0.571,1.222c0.381,0.299,0.89,0.448,1.526,0.448c0.594,0,1.049-0.121,1.365-0.363
		c0.316-0.242,0.475-0.572,0.475-0.99c0-0.418-0.146-0.741-0.439-0.97s-0.824-0.454-1.594-0.677
		c-0.965-0.277-1.667-0.618-2.106-1.022c-0.439-0.404-0.659-0.903-0.659-1.497c0-0.672,0.269-1.228,0.806-1.667
		c0.537-0.439,1.235-0.659,2.095-0.659c0.586,0,1.108,0.113,1.567,0.34c0.459,0.227,0.814,0.539,1.066,0.938
		c0.252,0.398,0.378,0.834,0.378,1.307h-1.131c0-0.517-0.164-0.924-0.492-1.22c-0.328-0.296-0.791-0.444-1.389-0.444
		c-0.555,0-0.987,0.122-1.298,0.367c-0.311,0.245-0.466,0.584-0.466,1.018c0,0.348,0.147,0.643,0.442,0.883
		c0.295,0.241,0.797,0.461,1.506,0.66c0.709,0.2,1.264,0.42,1.664,0.66c0.4,0.24,0.697,0.521,0.891,0.841
		c0.193,0.32,0.29,0.697,0.29,1.131c0,0.691-0.27,1.245-0.809,1.661C31.733,13.583,31.013,13.791,30.11,13.791 M13.738,13.791
		c-0.934,0-1.678-0.252-2.232-0.756c-0.555-0.504-0.836-1.197-0.844-2.08V5.143h1.113v5.777c0,0.617,0.17,1.097,0.51,1.438
		c0.34,0.342,0.824,0.513,1.453,0.513c0.637,0,1.124-0.17,1.462-0.51c0.338-0.34,0.507-0.818,0.507-1.436V5.143h1.131v5.801
		c-0.004,0.805-0.257,1.463-0.759,1.975c-0.502,0.512-1.183,0.799-2.042,0.861L13.738,13.791 M165.181,13.674h-1.084V9.479
		c-0.004-0.457-0.108-0.795-0.314-1.014c-0.205-0.219-0.524-0.328-0.958-0.328c-0.352,0-0.66,0.094-0.926,0.281
		c-0.266,0.188-0.473,0.434-0.621,0.738v4.518h-1.084v-6.34h1.025l0.035,0.797c0.484-0.609,1.117-0.914,1.898-0.914
		c1.34,0,2.016,0.756,2.027,2.268V13.674 M158.437,13.674h-1.084v-6.34h1.084V13.674 M137.536,13.674h-1.084v-6.34h1.055
		l0.018,0.732c0.355-0.566,0.859-0.85,1.512-0.85c0.211,0,0.371,0.027,0.48,0.082v1.008c-0.164-0.027-0.342-0.041-0.533-0.041
		c-0.711,0-1.193,0.303-1.447,0.908V13.674 M81.609,13.674h-1.084v-6.34h1.084V13.674 M49.378,13.674h-1.084v-6.34h1.084V13.674
		 M41.963,13.674h-1.025L39.18,7.457l-0.135-0.65l-0.135,0.65l-1.822,6.217h-1.025L34,5.143h1.125l1.348,5.842l0.164,1.125
		l0.24-1.014l1.687-5.953h0.949l1.646,5.953l0.234,1.031l0.182-1.148L42.9,5.143h1.131L41.963,13.674 M25.342,13.674h-1.131
		L19.916,7.1v6.574h-1.131V5.143h1.131l4.307,6.603V5.143h1.119V13.674 M157.903,6.268c-0.211,0-0.37-0.059-0.478-0.176
		c-0.107-0.117-0.161-0.264-0.161-0.439s0.054-0.324,0.161-0.445c0.107-0.121,0.267-0.182,0.478-0.182
		c0.211,0,0.371,0.061,0.48,0.182c0.109,0.121,0.164,0.27,0.164,0.445s-0.055,0.322-0.164,0.439
		C158.274,6.209,158.114,6.268,157.903,6.268 M81.076,6.268c-0.211,0-0.37-0.059-0.478-0.176c-0.108-0.117-0.161-0.264-0.161-0.439
		s0.054-0.324,0.161-0.445c0.107-0.121,0.267-0.182,0.478-0.182c0.211,0,0.371,0.061,0.48,0.182c0.109,0.121,0.164,0.27,0.164,0.445
		s-0.055,0.322-0.164,0.439C81.447,6.209,81.287,6.268,81.076,6.268 M48.844,6.268c-0.211,0-0.37-0.059-0.478-0.176
		c-0.107-0.117-0.161-0.264-0.161-0.439s0.054-0.324,0.161-0.445c0.107-0.121,0.267-0.182,0.478-0.182
		c0.211,0,0.371,0.061,0.48,0.182c0.109,0.121,0.164,0.27,0.164,0.445s-0.055,0.322-0.164,0.439
		C49.216,6.209,49.055,6.268,48.844,6.268"/>
	<path fill="#000000" d="M194.403,29.791c-0.859,0-1.559-0.282-2.098-0.847c-0.539-0.564-0.809-1.319-0.809-2.265V26.48
		c0-0.629,0.12-1.19,0.36-1.685c0.24-0.494,0.576-0.881,1.008-1.16c0.432-0.279,0.899-0.419,1.403-0.419
		c0.824,0,1.465,0.272,1.922,0.814c0.457,0.543,0.686,1.32,0.686,2.332v0.451h-4.295c0.016,0.625,0.198,1.13,0.548,1.515
		c0.35,0.385,0.794,0.577,1.333,0.577c0.383,0,0.707-0.078,0.973-0.234c0.266-0.156,0.498-0.363,0.697-0.621l0.662,0.516
		C196.263,29.383,195.466,29.791,194.403,29.791 M194.268,24.107c-0.438,0-0.805,0.159-1.102,0.478
		c-0.297,0.318-0.48,0.765-0.551,1.339h3.176v-0.082c-0.031-0.551-0.18-0.978-0.445-1.28
		C195.081,24.259,194.722,24.107,194.268,24.107 M176.849,29.791c-0.484,0-0.85-0.146-1.096-0.439
		c-0.246-0.293-0.369-0.709-0.369-1.248v-3.932h-1.154v-0.838h1.154v-1.535h1.084v1.535h1.184v0.838h-1.184v3.937
		c0,0.254,0.053,0.445,0.158,0.572c0.106,0.127,0.285,0.191,0.539,0.191c0.125,0,0.297-0.023,0.516-0.07v0.874
		C177.395,29.752,177.118,29.791,176.849,29.791 M164.444,29.791c-0.859,0-1.559-0.282-2.098-0.847
		c-0.539-0.564-0.809-1.319-0.809-2.265V26.48c0-0.629,0.12-1.19,0.36-1.685c0.24-0.494,0.576-0.881,1.008-1.16
		c0.432-0.279,0.899-0.419,1.403-0.419c0.824,0,1.465,0.272,1.922,0.814c0.457,0.543,0.686,1.32,0.686,2.332v0.451h-4.295
		c0.016,0.625,0.198,1.13,0.548,1.515c0.35,0.385,0.794,0.577,1.333,0.577c0.383,0,0.707-0.078,0.973-0.234
		c0.266-0.156,0.498-0.363,0.697-0.621l0.662,0.516C166.304,29.383,165.507,29.791,164.444,29.791 M164.309,24.107
		c-0.438,0-0.805,0.159-1.102,0.478c-0.297,0.318-0.48,0.765-0.551,1.339h3.176v-0.082c-0.031-0.551-0.18-0.978-0.445-1.28
		C165.122,24.259,164.763,24.107,164.309,24.107 M157.222,29.791c-0.734,0-1.333-0.301-1.796-0.902
		c-0.463-0.602-0.694-1.387-0.694-2.355v-0.082c0-0.973,0.23-1.755,0.691-2.347c0.461-0.592,1.064-0.888,1.811-0.888
		c0.742,0,1.33,0.254,1.764,0.762v-3.305h1.084v9h-0.996l-0.053-0.68C158.599,29.525,157.995,29.791,157.222,29.791 M157.503,24.137
		c-0.531,0-0.945,0.205-1.242,0.615c-0.297,0.41-0.445,1.018-0.445,1.822c0,0.719,0.148,1.281,0.445,1.687
		c0.297,0.406,0.707,0.609,1.23,0.609c0.687,0,1.189-0.309,1.506-0.926v-2.912C158.673,24.436,158.175,24.137,157.503,24.137
		 M150.377,29.791c-0.676,0-1.19-0.196-1.544-0.589c-0.354-0.393-0.532-0.974-0.536-1.743v-4.125h1.084v4.096
		c0,0.961,0.391,1.441,1.172,1.441c0.828,0,1.379-0.309,1.652-0.926v-4.611h1.084v6.34h-1.031l-0.023-0.627
		C151.812,29.543,151.193,29.791,150.377,29.791 M146.278,29.791c-0.484,0-0.85-0.146-1.096-0.439
		c-0.246-0.293-0.369-0.709-0.369-1.248v-3.932h-1.154v-0.838h1.154v-1.535h1.084v1.535h1.184v0.838h-1.184v3.937
		c0,0.254,0.053,0.445,0.158,0.572s0.285,0.191,0.539,0.191c0.125,0,0.297-0.023,0.516-0.07v0.874
		C146.825,29.752,146.548,29.791,146.278,29.791 M140.418,29.791c-0.508,0-0.957-0.09-1.348-0.27
		c-0.391-0.18-0.696-0.431-0.917-0.753c-0.221-0.322-0.331-0.671-0.331-1.046h1.084c0.019,0.363,0.165,0.651,0.436,0.864
		c0.271,0.213,0.63,0.319,1.075,0.319c0.41,0,0.739-0.083,0.987-0.249c0.248-0.166,0.372-0.388,0.372-0.665
		c0-0.293-0.11-0.52-0.331-0.683c-0.221-0.162-0.606-0.302-1.154-0.419c-0.549-0.117-0.984-0.258-1.307-0.422
		c-0.322-0.164-0.561-0.359-0.715-0.586c-0.154-0.226-0.231-0.496-0.231-0.809c0-0.519,0.22-0.959,0.659-1.318
		c0.439-0.359,1.001-0.539,1.685-0.539c0.719,0,1.302,0.186,1.749,0.557c0.447,0.371,0.671,0.846,0.671,1.424h-1.09
		c0-0.297-0.126-0.553-0.378-0.768c-0.252-0.215-0.569-0.322-0.952-0.322c-0.395,0-0.703,0.086-0.926,0.258
		c-0.223,0.172-0.334,0.397-0.334,0.674c0,0.262,0.104,0.459,0.311,0.592c0.207,0.133,0.581,0.26,1.122,0.381
		c0.541,0.121,0.979,0.266,1.315,0.434c0.336,0.168,0.585,0.37,0.747,0.606c0.162,0.236,0.243,0.524,0.243,0.864
		c0,0.566-0.227,1.021-0.68,1.362C141.728,29.62,141.14,29.791,140.418,29.791 M132.926,29.791c-0.484,0-0.85-0.146-1.096-0.439
		c-0.246-0.293-0.369-0.709-0.369-1.248v-3.932h-1.154v-0.838h1.154v-1.535h1.084v1.535h1.184v0.838h-1.184v3.937
		c0,0.254,0.053,0.445,0.158,0.572c0.105,0.127,0.285,0.191,0.539,0.191c0.125,0,0.297-0.023,0.516-0.07v0.874
		C133.473,29.752,133.196,29.791,132.926,29.791 M119.771,29.791c-0.625,0-1.138-0.177-1.538-0.53
		c-0.4-0.353-0.601-0.802-0.601-1.345c0-0.66,0.251-1.173,0.753-1.538c0.502-0.365,1.208-0.548,2.118-0.548h1.055v-0.498
		c0-0.379-0.113-0.681-0.34-0.905c-0.227-0.225-0.561-0.337-1.002-0.337c-0.387,0-0.711,0.098-0.973,0.293
		c-0.262,0.195-0.393,0.432-0.393,0.709h-1.09c0-0.316,0.112-0.622,0.337-0.917c0.225-0.295,0.529-0.528,0.914-0.7
		c0.385-0.172,0.808-0.258,1.269-0.258c0.73,0,1.303,0.183,1.717,0.548c0.414,0.365,0.629,0.868,0.644,1.509v2.918
		c0,0.582,0.074,1.045,0.223,1.389v0.094h-1.137c-0.063-0.125-0.113-0.348-0.152-0.668C121.071,29.529,120.47,29.791,119.771,29.791
		 M120.708,26.598c-1.328,0-1.992,0.389-1.992,1.166c0,0.34,0.113,0.605,0.34,0.797c0.226,0.191,0.518,0.287,0.873,0.287
		c0.34,0,0.662-0.088,0.967-0.264c0.305-0.176,0.525-0.404,0.662-0.686v-1.301H120.708 M109.783,29.791
		c-0.801,0-1.42-0.283-1.857-0.85l-0.053,0.732h-0.996v-9h1.084v3.357c0.437-0.543,1.041-0.814,1.811-0.814
		c0.769,0,1.374,0.291,1.813,0.873c0.439,0.582,0.659,1.379,0.659,2.391v0.094c0,0.969-0.223,1.747-0.668,2.335
		C111.131,29.497,110.533,29.791,109.783,29.791 M109.502,24.137c-0.715,0-1.229,0.332-1.541,0.996v2.742
		c0.332,0.664,0.85,0.996,1.553,0.996c0.519,0,0.924-0.201,1.213-0.604c0.289-0.402,0.434-1.008,0.434-1.816
		c0-0.738-0.143-1.309-0.428-1.711C110.447,24.338,110.037,24.137,109.502,24.137 M90.472,29.791c-0.734,0-1.333-0.301-1.796-0.902
		c-0.463-0.602-0.694-1.387-0.694-2.355v-0.082c0-0.973,0.23-1.755,0.691-2.347c0.461-0.592,1.064-0.888,1.811-0.888
		c0.742,0,1.33,0.254,1.764,0.762v-3.305h1.084v9h-0.996l-0.053-0.68C91.849,29.525,91.246,29.791,90.472,29.791 M90.754,24.137
		c-0.531,0-0.945,0.205-1.242,0.615c-0.297,0.41-0.445,1.018-0.445,1.822c0,0.719,0.148,1.281,0.445,1.687
		c0.297,0.406,0.707,0.609,1.23,0.609c0.687,0,1.189-0.309,1.506-0.926v-2.912C91.924,24.436,91.425,24.137,90.754,24.137
		 M76.979,29.791c-0.625,0-1.138-0.177-1.538-0.53c-0.4-0.353-0.601-0.802-0.601-1.345c0-0.66,0.251-1.173,0.753-1.538
		c0.502-0.365,1.208-0.548,2.118-0.548h1.055v-0.498c0-0.379-0.113-0.681-0.34-0.905c-0.227-0.225-0.561-0.337-1.002-0.337
		c-0.387,0-0.711,0.098-0.973,0.293c-0.262,0.195-0.393,0.432-0.393,0.709h-1.09c0-0.316,0.112-0.622,0.337-0.917
		c0.225-0.295,0.529-0.528,0.914-0.7c0.385-0.172,0.808-0.258,1.269-0.258c0.73,0,1.303,0.183,1.717,0.548
		c0.414,0.365,0.629,0.868,0.645,1.509v2.918c0,0.582,0.074,1.045,0.223,1.389v0.094h-1.137c-0.063-0.125-0.113-0.348-0.152-0.668
		C78.28,29.529,77.678,29.791,76.979,29.791 M77.916,26.598c-1.328,0-1.992,0.389-1.992,1.166c0,0.34,0.113,0.605,0.34,0.797
		c0.227,0.191,0.518,0.287,0.873,0.287c0.34,0,0.662-0.088,0.967-0.264c0.305-0.176,0.525-0.404,0.662-0.686v-1.301H77.916
		 M68.205,29.791c-0.859,0-1.559-0.282-2.098-0.847c-0.539-0.564-0.809-1.319-0.809-2.265V26.48c0-0.629,0.12-1.19,0.36-1.685
		c0.24-0.494,0.576-0.881,1.008-1.16c0.432-0.279,0.899-0.419,1.403-0.419c0.824,0,1.465,0.272,1.922,0.814
		c0.457,0.543,0.686,1.32,0.686,2.332v0.451h-4.295c0.016,0.625,0.198,1.13,0.548,1.515c0.35,0.385,0.794,0.577,1.333,0.577
		c0.383,0,0.707-0.078,0.973-0.234c0.266-0.156,0.498-0.363,0.697-0.621l0.662,0.516C70.064,29.383,69.267,29.791,68.205,29.791
		 M68.07,24.107c-0.438,0-0.805,0.159-1.102,0.478c-0.297,0.318-0.48,0.765-0.551,1.339h3.176v-0.082
		c-0.031-0.551-0.18-0.978-0.445-1.28C68.882,24.259,68.523,24.107,68.07,24.107 M58.756,29.791c-0.801,0-1.42-0.283-1.857-0.85
		l-0.053,0.732H55.85v-9h1.084v3.357c0.437-0.543,1.041-0.814,1.811-0.814c0.77,0,1.374,0.291,1.814,0.873
		c0.439,0.582,0.659,1.379,0.659,2.391v0.094c0,0.969-0.223,1.747-0.668,2.335C60.104,29.497,59.506,29.791,58.756,29.791
		 M58.475,24.137c-0.715,0-1.229,0.332-1.541,0.996v2.742c0.332,0.664,0.85,0.996,1.553,0.996c0.52,0,0.924-0.201,1.213-0.604
		c0.289-0.402,0.434-1.008,0.434-1.816c0-0.738-0.143-1.309-0.428-1.711C59.42,24.338,59.01,24.137,58.475,24.137 M51.248,29.791
		c-0.625,0-1.138-0.177-1.538-0.53c-0.401-0.353-0.601-0.802-0.601-1.345c0-0.66,0.251-1.173,0.753-1.538
		c0.502-0.365,1.208-0.548,2.118-0.548h1.055v-0.498c0-0.379-0.113-0.681-0.34-0.905c-0.227-0.225-0.561-0.337-1.002-0.337
		c-0.387,0-0.711,0.098-0.973,0.293c-0.262,0.195-0.393,0.432-0.393,0.709h-1.09c0-0.316,0.112-0.622,0.337-0.917
		c0.225-0.295,0.529-0.528,0.914-0.7c0.385-0.172,0.808-0.258,1.269-0.258c0.73,0,1.303,0.183,1.717,0.548
		c0.414,0.365,0.629,0.868,0.645,1.509v2.918c0,0.582,0.074,1.045,0.223,1.389v0.094h-1.137c-0.063-0.125-0.113-0.348-0.152-0.668
		C52.549,29.529,51.948,29.791,51.248,29.791 M52.186,26.598c-1.328,0-1.992,0.389-1.992,1.166c0,0.34,0.113,0.605,0.34,0.797
		c0.227,0.191,0.518,0.287,0.873,0.287c0.34,0,0.662-0.088,0.967-0.264c0.305-0.176,0.525-0.404,0.662-0.686v-1.301H52.186
		 M40.876,29.791c-0.859,0-1.556-0.299-2.089-0.896c-0.533-0.598-0.8-1.389-0.8-2.373v-0.076c0-0.621,0.122-1.18,0.366-1.676
		c0.244-0.496,0.584-0.879,1.02-1.148c0.436-0.27,0.933-0.404,1.491-0.404c0.863,0,1.562,0.299,2.095,0.896
		c0.533,0.598,0.8,1.393,0.8,2.385v0.076c0,0.617-0.118,1.171-0.354,1.661c-0.236,0.49-0.574,0.872-1.014,1.145
		C41.951,29.654,41.446,29.791,40.876,29.791 M40.864,24.107c-0.535,0-0.967,0.213-1.295,0.639
		c-0.328,0.426-0.492,1.035-0.492,1.828c0,0.703,0.163,1.268,0.489,1.693c0.326,0.426,0.763,0.639,1.31,0.639
		c0.551,0,0.988-0.216,1.312-0.647c0.324-0.432,0.486-1.036,0.486-1.813c0-0.695-0.165-1.259-0.495-1.69
		C41.849,24.323,41.411,24.107,40.864,24.107 M23.862,29.791c-0.859,0-1.559-0.282-2.098-0.847
		c-0.539-0.564-0.809-1.319-0.809-2.265V26.48c0-0.629,0.12-1.19,0.36-1.685c0.24-0.494,0.576-0.881,1.008-1.16
		c0.432-0.279,0.899-0.419,1.403-0.419c0.824,0,1.465,0.272,1.922,0.814c0.457,0.543,0.686,1.32,0.686,2.332v0.451H22.04
		c0.016,0.625,0.198,1.13,0.548,1.515c0.35,0.385,0.794,0.577,1.333,0.577c0.383,0,0.707-0.078,0.973-0.234
		c0.266-0.156,0.498-0.363,0.697-0.621l0.662,0.516C25.721,29.383,24.925,29.791,23.862,29.791 M23.727,24.107
		c-0.438,0-0.805,0.159-1.102,0.478c-0.297,0.318-0.48,0.765-0.551,1.339h3.176v-0.082c-0.031-0.551-0.18-0.978-0.445-1.28
		C24.54,24.259,24.18,24.107,23.727,24.107 M198.8,29.738c-0.223,0-0.39-0.061-0.501-0.182c-0.111-0.121-0.167-0.271-0.167-0.451
		c0-0.187,0.056-0.344,0.167-0.469c0.111-0.125,0.278-0.188,0.501-0.188c0.223,0,0.392,0.063,0.507,0.188
		c0.115,0.125,0.173,0.281,0.173,0.469c0,0.18-0.058,0.33-0.173,0.451C199.191,29.678,199.022,29.738,198.8,29.738 M189.384,29.674
		H188.3v-5.502h-1.002v-0.838h1.002v-0.65c0-0.68,0.182-1.205,0.545-1.576c0.363-0.371,0.877-0.557,1.541-0.557
		c0.25,0,0.498,0.033,0.744,0.099l-0.059,0.874c-0.184-0.035-0.379-0.053-0.586-0.053c-0.352,0-0.623,0.103-0.814,0.309
		c-0.191,0.206-0.287,0.501-0.287,0.885v0.67h1.354v0.838h-1.354V29.674 M186.071,29.674h-1.084v-6.34h1.084V29.674 M183.185,29.674
		h-1.084v-9h1.084V29.674 M173.281,29.674h-1.084v-4.195c-0.004-0.457-0.108-0.795-0.313-1.014
		c-0.205-0.219-0.524-0.328-0.958-0.328c-0.352,0-0.66,0.094-0.926,0.281c-0.266,0.188-0.473,0.434-0.621,0.738v4.518h-1.084v-6.34
		h1.025l0.035,0.797c0.484-0.609,1.117-0.914,1.898-0.914c1.34,0,2.016,0.756,2.027,2.268V29.674 M129.359,29.674h-1.084v-4.195
		c-0.004-0.457-0.108-0.795-0.314-1.014c-0.205-0.219-0.524-0.328-0.958-0.328c-0.352,0-0.66,0.094-0.926,0.281
		c-0.266,0.188-0.473,0.434-0.621,0.738v4.518h-1.084v-6.34h1.025l0.035,0.797c0.484-0.609,1.117-0.914,1.898-0.914
		c1.34,0,2.016,0.756,2.027,2.268V29.674 M114.777,29.674h-1.084v-6.34h1.055l0.018,0.732c0.355-0.566,0.859-0.85,1.512-0.85
		c0.211,0,0.371,0.027,0.48,0.082v1.008c-0.164-0.027-0.342-0.041-0.533-0.041c-0.711,0-1.193,0.303-1.447,0.908V29.674
		 M105.118,29.674h-1.084v-6.34h1.084V29.674 M100.6,29.674h-0.826l-2.297-6.34h1.107l1.611,4.869l1.57-4.869h1.107L100.6,29.674
		 M86.567,29.674h-1.084v-4.195c-0.004-0.457-0.108-0.795-0.313-1.014c-0.205-0.219-0.524-0.328-0.958-0.328
		c-0.352,0-0.66,0.094-0.926,0.281c-0.266,0.188-0.473,0.434-0.621,0.738v4.518H81.58v-6.34h1.025l0.035,0.797
		c0.484-0.609,1.117-0.914,1.898-0.914c1.34,0,2.016,0.756,2.027,2.268V29.674 M63.807,29.674h-1.084v-9h1.084V29.674
		 M46.255,29.674h-1.084v-6.34h1.055l0.018,0.732c0.355-0.566,0.859-0.85,1.512-0.85c0.211,0,0.371,0.027,0.48,0.082v1.008
		c-0.164-0.027-0.342-0.041-0.533-0.041c-0.711,0-1.193,0.303-1.447,0.908V29.674 M36.601,29.674h-1.084V25.49
		c0-0.453-0.104-0.792-0.311-1.017c-0.207-0.225-0.555-0.337-1.043-0.337c-0.402,0-0.736,0.12-1.002,0.36
		c-0.266,0.24-0.42,0.564-0.463,0.97v4.207h-1.09V25.52c0-0.922-0.451-1.383-1.353-1.383c-0.711,0-1.197,0.303-1.459,0.908v4.629
		h-1.084v-6.34h1.025l0.029,0.703c0.465-0.547,1.092-0.82,1.881-0.82c0.887,0,1.49,0.34,1.811,1.02
		c0.211-0.305,0.485-0.551,0.823-0.738c0.338-0.188,0.737-0.281,1.198-0.281c1.391,0,2.098,0.736,2.121,2.209V29.674 M19.545,29.674
		h-1.084V25.49c0-0.453-0.103-0.792-0.31-1.017c-0.207-0.225-0.555-0.337-1.043-0.337c-0.402,0-0.736,0.12-1.002,0.36
		c-0.266,0.24-0.42,0.564-0.463,0.97v4.207h-1.09V25.52c0-0.922-0.451-1.383-1.353-1.383c-0.711,0-1.197,0.303-1.459,0.908v4.629
		h-1.084v-6.34h1.025l0.029,0.703c0.465-0.547,1.092-0.82,1.881-0.82c0.887,0,1.49,0.34,1.811,1.02
		c0.211-0.305,0.485-0.551,0.823-0.738c0.338-0.188,0.737-0.281,1.198-0.281c1.391,0,2.098,0.736,2.121,2.209V29.674
		 M185.538,22.268c-0.211,0-0.37-0.059-0.478-0.176c-0.107-0.117-0.161-0.264-0.161-0.439c0-0.176,0.054-0.324,0.161-0.445
		c0.107-0.121,0.267-0.182,0.478-0.182s0.371,0.061,0.48,0.182c0.109,0.121,0.164,0.27,0.164,0.445c0,0.176-0.055,0.322-0.164,0.439
		C185.909,22.209,185.749,22.268,185.538,22.268 M104.585,22.268c-0.211,0-0.37-0.059-0.478-0.176
		c-0.107-0.117-0.161-0.264-0.161-0.439c0-0.176,0.054-0.324,0.161-0.445c0.107-0.121,0.267-0.182,0.478-0.182
		c0.211,0,0.371,0.061,0.48,0.182c0.109,0.121,0.164,0.27,0.164,0.445c0,0.176-0.055,0.322-0.164,0.439
		C104.956,22.209,104.796,22.268,104.585,22.268"/>
	<path fill="#000000" d="M167.924,48.111h-1.084v-8.777h0.99l0.053,0.703c0.441-0.547,1.055-0.82,1.84-0.82
		c0.762,0,1.364,0.287,1.808,0.861c0.443,0.574,0.665,1.373,0.665,2.397v0.1c0,0.965-0.221,1.742-0.662,2.332
		c-0.441,0.59-1.039,0.885-1.793,0.885c-0.77,0-1.375-0.244-1.816-0.732V48.111 M169.401,40.137c-0.656,0-1.148,0.291-1.477,0.873
		v3.029c0.324,0.578,0.82,0.867,1.488,0.867c0.519,0,0.933-0.206,1.239-0.618c0.307-0.412,0.46-1.024,0.46-1.837
		c0-0.715-0.152-1.279-0.457-1.693C170.35,40.344,169.932,40.137,169.401,40.137 M161.114,48.111h-1.084v-8.777h0.99l0.053,0.703
		c0.441-0.547,1.055-0.82,1.84-0.82c0.762,0,1.364,0.287,1.808,0.861c0.443,0.574,0.665,1.373,0.665,2.397v0.1
		c0,0.965-0.221,1.742-0.662,2.332c-0.441,0.59-1.039,0.885-1.793,0.885c-0.77,0-1.375-0.244-1.816-0.732V48.111 M162.591,40.137
		c-0.656,0-1.148,0.291-1.477,0.873v3.029c0.324,0.578,0.82,0.867,1.488,0.867c0.52,0,0.933-0.206,1.239-0.618
		c0.307-0.412,0.46-1.024,0.46-1.837c0-0.715-0.152-1.279-0.457-1.693C163.54,40.344,163.122,40.137,162.591,40.137 M148.698,48.111
		h-1.084v-3.023c-0.438,0.469-1.02,0.703-1.746,0.703c-0.766,0-1.376-0.298-1.831-0.894c-0.455-0.596-0.683-1.386-0.683-2.37v-0.076
		c0-0.996,0.228-1.784,0.686-2.364c0.457-0.58,1.07-0.87,1.84-0.87c0.75,0,1.342,0.252,1.775,0.756l0.047-0.639h0.996V48.111
		 M146.149,40.107c-0.523,0-0.94,0.208-1.248,0.624c-0.309,0.416-0.463,1.03-0.463,1.843c0,0.727,0.153,1.297,0.46,1.711
		c0.307,0.414,0.72,0.621,1.239,0.621c0.645,0,1.137-0.285,1.477-0.855v-3.105C147.27,40.387,146.782,40.107,146.149,40.107
		 M57.442,48.111h-1.084v-8.777h0.99l0.053,0.703c0.441-0.547,1.055-0.82,1.84-0.82c0.762,0,1.364,0.287,1.808,0.861
		c0.443,0.574,0.665,1.373,0.665,2.397v0.1c0,0.965-0.221,1.742-0.662,2.332c-0.441,0.59-1.039,0.885-1.793,0.885
		c-0.77,0-1.375-0.244-1.816-0.732V48.111 M58.918,40.137c-0.656,0-1.148,0.291-1.477,0.873v3.029
		c0.324,0.578,0.82,0.867,1.488,0.867c0.52,0,0.933-0.206,1.239-0.618c0.307-0.412,0.46-1.024,0.46-1.837
		c0-0.715-0.152-1.279-0.457-1.693C59.867,40.344,59.449,40.137,58.918,40.137 M203.876,45.791c-0.484,0-0.85-0.146-1.096-0.439
		c-0.246-0.293-0.369-0.709-0.369-1.248v-3.932h-1.154v-0.838h1.154v-1.535h1.084v1.535h1.184v0.838h-1.184v3.937
		c0,0.254,0.053,0.445,0.158,0.572c0.105,0.127,0.285,0.191,0.539,0.191c0.125,0,0.297-0.023,0.516-0.07v0.874
		C204.423,45.752,204.145,45.791,203.876,45.791 M182.352,45.791c-0.734,0-1.333-0.301-1.796-0.902
		c-0.463-0.602-0.694-1.387-0.694-2.355v-0.082c0-0.973,0.23-1.755,0.691-2.347c0.461-0.592,1.064-0.888,1.811-0.888
		c0.742,0,1.33,0.254,1.764,0.762v-3.305h1.084v9h-0.996l-0.053-0.68C183.729,45.525,183.126,45.791,182.352,45.791 M182.634,40.137
		c-0.531,0-0.945,0.205-1.242,0.615c-0.297,0.41-0.445,1.018-0.445,1.822c0,0.719,0.148,1.281,0.445,1.687
		c0.297,0.406,0.707,0.609,1.23,0.609c0.687,0,1.189-0.309,1.506-0.926v-2.912C183.804,40.436,183.306,40.137,182.634,40.137
		 M176.273,45.791c-0.859,0-1.559-0.282-2.098-0.847c-0.539-0.564-0.809-1.319-0.809-2.265V42.48c0-0.629,0.12-1.19,0.36-1.685
		c0.24-0.494,0.576-0.881,1.008-1.16c0.432-0.279,0.899-0.419,1.403-0.419c0.824,0,1.465,0.272,1.922,0.814
		c0.457,0.543,0.686,1.32,0.686,2.332v0.451h-4.295c0.016,0.625,0.198,1.13,0.548,1.515c0.35,0.385,0.794,0.577,1.333,0.577
		c0.383,0,0.707-0.078,0.973-0.234c0.266-0.156,0.498-0.363,0.697-0.621l0.662,0.516C178.133,45.383,177.336,45.791,176.273,45.791
		 M176.139,40.107c-0.438,0-0.805,0.159-1.102,0.478c-0.297,0.318-0.48,0.765-0.551,1.339h3.176v-0.082
		c-0.031-0.551-0.18-0.977-0.445-1.28C176.951,40.259,176.592,40.107,176.139,40.107 M152.511,45.791
		c-0.676,0-1.19-0.196-1.544-0.589c-0.354-0.393-0.532-0.974-0.536-1.743v-4.125h1.084v4.096c0,0.961,0.391,1.441,1.172,1.441
		c0.828,0,1.379-0.309,1.652-0.926v-4.611h1.084v6.34h-1.031l-0.023-0.627C153.947,45.543,153.328,45.791,152.511,45.791
		 M139.765,45.791c-0.859,0-1.559-0.282-2.098-0.847c-0.539-0.564-0.809-1.319-0.809-2.265V42.48c0-0.629,0.12-1.19,0.36-1.685
		c0.24-0.494,0.576-0.881,1.008-1.16c0.432-0.279,0.899-0.419,1.403-0.419c0.824,0,1.465,0.272,1.922,0.814
		c0.457,0.543,0.686,1.32,0.686,2.332v0.451h-4.295c0.016,0.625,0.198,1.13,0.548,1.515c0.35,0.385,0.794,0.577,1.333,0.577
		c0.383,0,0.707-0.078,0.973-0.234c0.266-0.156,0.498-0.363,0.697-0.621l0.662,0.516C141.624,45.383,140.827,45.791,139.765,45.791
		 M139.63,40.107c-0.438,0-0.805,0.159-1.102,0.478c-0.297,0.318-0.48,0.765-0.551,1.339h3.176v-0.082
		c-0.031-0.551-0.18-0.977-0.445-1.28C140.443,40.259,140.083,40.107,139.63,40.107 M129.801,45.791
		c-0.859,0-1.556-0.299-2.089-0.896c-0.533-0.598-0.8-1.389-0.8-2.373v-0.076c0-0.621,0.122-1.18,0.366-1.676
		c0.244-0.496,0.584-0.879,1.02-1.148c0.436-0.27,0.933-0.404,1.491-0.404c0.863,0,1.562,0.299,2.095,0.896
		c0.533,0.598,0.8,1.393,0.8,2.385v0.076c0,0.617-0.118,1.171-0.354,1.661c-0.236,0.49-0.574,0.872-1.014,1.146
		C130.877,45.654,130.372,45.791,129.801,45.791 M129.79,40.107c-0.535,0-0.967,0.213-1.295,0.639
		c-0.328,0.426-0.492,1.035-0.492,1.828c0,0.703,0.163,1.268,0.489,1.693c0.326,0.426,0.763,0.639,1.31,0.639
		c0.551,0,0.988-0.216,1.312-0.647c0.324-0.432,0.486-1.036,0.486-1.813c0-0.695-0.165-1.259-0.495-1.69
		C130.775,40.323,130.336,40.107,129.79,40.107 M123.365,45.791c-0.508,0-0.957-0.09-1.348-0.27
		c-0.391-0.18-0.696-0.431-0.917-0.753c-0.221-0.322-0.331-0.671-0.331-1.046h1.084c0.019,0.363,0.165,0.651,0.436,0.864
		c0.271,0.213,0.63,0.319,1.075,0.319c0.41,0,0.739-0.083,0.987-0.249c0.248-0.166,0.372-0.388,0.372-0.665
		c0-0.293-0.11-0.52-0.331-0.683c-0.221-0.162-0.606-0.302-1.154-0.419c-0.549-0.117-0.984-0.258-1.307-0.422
		c-0.322-0.164-0.561-0.359-0.715-0.586c-0.154-0.227-0.231-0.496-0.231-0.809c0-0.519,0.22-0.959,0.659-1.318
		c0.439-0.359,1.001-0.539,1.685-0.539c0.719,0,1.302,0.186,1.749,0.557c0.447,0.371,0.671,0.846,0.671,1.424h-1.09
		c0-0.297-0.126-0.553-0.378-0.768c-0.252-0.215-0.569-0.322-0.952-0.322c-0.395,0-0.703,0.086-0.926,0.258
		c-0.223,0.172-0.334,0.397-0.334,0.674c0,0.262,0.104,0.459,0.311,0.592c0.207,0.133,0.581,0.26,1.122,0.381
		c0.541,0.121,0.979,0.266,1.315,0.434c0.336,0.168,0.585,0.37,0.747,0.606c0.162,0.236,0.243,0.524,0.243,0.864
		c0,0.566-0.227,1.021-0.68,1.362C124.675,45.62,124.087,45.791,123.365,45.791 M113.602,45.791c-0.625,0-1.138-0.177-1.538-0.53
		c-0.4-0.353-0.601-0.802-0.601-1.345c0-0.66,0.251-1.173,0.753-1.538c0.502-0.365,1.208-0.548,2.118-0.548h1.055v-0.498
		c0-0.379-0.113-0.681-0.34-0.905c-0.227-0.225-0.561-0.337-1.002-0.337c-0.387,0-0.711,0.098-0.973,0.293
		c-0.262,0.195-0.393,0.432-0.393,0.709h-1.09c0-0.316,0.112-0.622,0.337-0.917c0.225-0.295,0.529-0.528,0.914-0.7
		c0.385-0.172,0.808-0.258,1.269-0.258c0.73,0,1.303,0.183,1.717,0.548c0.414,0.365,0.629,0.868,0.644,1.509v2.918
		c0,0.582,0.074,1.045,0.223,1.389v0.094h-1.137c-0.063-0.125-0.113-0.348-0.152-0.668
		C114.903,45.529,114.301,45.791,113.602,45.791 M114.539,42.598c-1.328,0-1.992,0.389-1.992,1.166c0,0.34,0.113,0.606,0.34,0.797
		c0.226,0.191,0.518,0.287,0.873,0.287c0.34,0,0.662-0.088,0.967-0.264c0.305-0.176,0.525-0.404,0.662-0.686v-1.301H114.539
		 M104.828,45.791c-0.859,0-1.559-0.282-2.098-0.847c-0.539-0.564-0.809-1.319-0.809-2.265V42.48c0-0.629,0.12-1.19,0.36-1.685
		c0.24-0.494,0.576-0.881,1.008-1.16c0.432-0.279,0.899-0.419,1.403-0.419c0.824,0,1.465,0.272,1.922,0.814
		c0.457,0.543,0.686,1.32,0.686,2.332v0.451h-4.295c0.016,0.625,0.198,1.13,0.548,1.515c0.35,0.385,0.794,0.577,1.333,0.577
		c0.383,0,0.707-0.078,0.973-0.234c0.266-0.156,0.498-0.363,0.697-0.621l0.662,0.516C106.687,45.383,105.89,45.791,104.828,45.791
		 M104.693,40.107c-0.438,0-0.805,0.159-1.102,0.478c-0.297,0.318-0.48,0.765-0.551,1.339h3.176v-0.082
		c-0.031-0.551-0.18-0.977-0.445-1.28C105.505,40.259,105.146,40.107,104.693,40.107 M93.559,45.791
		c-0.625,0-1.138-0.177-1.538-0.53c-0.4-0.353-0.601-0.802-0.601-1.345c0-0.66,0.251-1.173,0.753-1.538
		c0.502-0.365,1.208-0.548,2.118-0.548h1.055v-0.498c0-0.379-0.113-0.681-0.34-0.905c-0.227-0.225-0.561-0.337-1.002-0.337
		c-0.387,0-0.711,0.098-0.973,0.293c-0.262,0.195-0.393,0.432-0.393,0.709h-1.09c0-0.316,0.112-0.622,0.337-0.917
		c0.225-0.295,0.529-0.528,0.914-0.7c0.385-0.172,0.808-0.258,1.269-0.258c0.73,0,1.303,0.183,1.717,0.548
		c0.414,0.365,0.629,0.868,0.645,1.509v2.918c0,0.582,0.074,1.045,0.223,1.389v0.094h-1.137c-0.063-0.125-0.113-0.348-0.152-0.668
		C94.859,45.529,94.258,45.791,93.559,45.791 M94.496,42.598c-1.328,0-1.992,0.389-1.992,1.166c0,0.34,0.113,0.606,0.34,0.797
		c0.227,0.191,0.518,0.287,0.873,0.287c0.34,0,0.662-0.088,0.967-0.264c0.305-0.176,0.525-0.404,0.662-0.686v-1.301H94.496
		 M84.655,45.791c-0.508,0-0.957-0.09-1.348-0.27c-0.391-0.18-0.696-0.431-0.917-0.753c-0.221-0.322-0.331-0.671-0.331-1.046h1.084
		c0.02,0.363,0.165,0.651,0.437,0.864c0.271,0.213,0.63,0.319,1.075,0.319c0.41,0,0.739-0.083,0.987-0.249
		c0.248-0.166,0.372-0.388,0.372-0.665c0-0.293-0.11-0.52-0.331-0.683c-0.221-0.162-0.605-0.302-1.154-0.419
		s-0.984-0.258-1.307-0.422c-0.322-0.164-0.561-0.359-0.715-0.586c-0.154-0.227-0.231-0.496-0.231-0.809
		c0-0.519,0.22-0.959,0.659-1.318c0.439-0.359,1.001-0.539,1.685-0.539c0.719,0,1.302,0.186,1.749,0.557
		c0.447,0.371,0.671,0.846,0.671,1.424h-1.09c0-0.297-0.126-0.553-0.378-0.768c-0.252-0.215-0.569-0.322-0.952-0.322
		c-0.395,0-0.703,0.086-0.926,0.258c-0.223,0.172-0.334,0.397-0.334,0.674c0,0.262,0.103,0.459,0.311,0.592
		c0.207,0.133,0.581,0.26,1.122,0.381c0.541,0.121,0.979,0.266,1.315,0.434c0.336,0.168,0.585,0.37,0.747,0.606
		c0.162,0.236,0.243,0.524,0.243,0.864c0,0.566-0.227,1.021-0.68,1.362C85.966,45.62,85.378,45.791,84.655,45.791 M78.582,45.791
		c-0.859,0-1.559-0.282-2.098-0.847c-0.539-0.564-0.809-1.319-0.809-2.265V42.48c0-0.629,0.12-1.19,0.36-1.685
		c0.24-0.494,0.576-0.881,1.008-1.16c0.432-0.279,0.899-0.419,1.403-0.419c0.824,0,1.465,0.272,1.922,0.814
		c0.457,0.543,0.686,1.32,0.686,2.332v0.451H76.76c0.016,0.625,0.198,1.13,0.548,1.515c0.35,0.385,0.794,0.577,1.333,0.577
		c0.383,0,0.707-0.078,0.973-0.234c0.266-0.156,0.498-0.363,0.697-0.621l0.662,0.516C80.442,45.383,79.645,45.791,78.582,45.791
		 M78.448,40.107c-0.438,0-0.805,0.159-1.102,0.478c-0.297,0.318-0.48,0.765-0.551,1.339h3.176v-0.082
		c-0.031-0.551-0.18-0.977-0.445-1.28C79.26,40.259,78.901,40.107,78.448,40.107 M72.11,45.791c-0.508,0-0.957-0.09-1.348-0.27
		c-0.391-0.18-0.696-0.431-0.917-0.753c-0.221-0.322-0.331-0.671-0.331-1.046h1.084c0.02,0.363,0.165,0.651,0.437,0.864
		c0.271,0.213,0.63,0.319,1.075,0.319c0.41,0,0.739-0.083,0.987-0.249c0.248-0.166,0.372-0.388,0.372-0.665
		c0-0.293-0.11-0.52-0.331-0.683c-0.221-0.162-0.605-0.302-1.154-0.419S71,42.633,70.678,42.469
		c-0.322-0.164-0.561-0.359-0.715-0.586c-0.154-0.227-0.231-0.496-0.231-0.809c0-0.519,0.22-0.959,0.659-1.318
		c0.439-0.359,1.001-0.539,1.685-0.539c0.719,0,1.302,0.186,1.749,0.557c0.447,0.371,0.671,0.846,0.671,1.424h-1.09
		c0-0.297-0.126-0.553-0.378-0.768c-0.252-0.215-0.569-0.322-0.952-0.322c-0.395,0-0.703,0.086-0.926,0.258
		c-0.223,0.172-0.334,0.397-0.334,0.674c0,0.262,0.103,0.459,0.311,0.592c0.207,0.133,0.581,0.26,1.122,0.381
		c0.541,0.121,0.979,0.266,1.315,0.434c0.336,0.168,0.585,0.37,0.747,0.606c0.162,0.236,0.243,0.524,0.243,0.864
		c0,0.566-0.227,1.021-0.68,1.362C73.421,45.62,72.833,45.791,72.11,45.791 M65.22,45.791c-0.676,0-1.19-0.196-1.544-0.589
		c-0.354-0.393-0.532-0.974-0.536-1.743v-4.125h1.084v4.096c0,0.961,0.391,1.441,1.172,1.441c0.828,0,1.379-0.309,1.652-0.926
		v-4.611h1.084v6.34h-1.031l-0.023-0.627C66.655,45.543,66.036,45.791,65.22,45.791 M41.17,45.791c-0.625,0-1.138-0.177-1.538-0.53
		c-0.4-0.353-0.601-0.802-0.601-1.345c0-0.66,0.251-1.173,0.753-1.538c0.502-0.365,1.208-0.548,2.118-0.548h1.055v-0.498
		c0-0.379-0.113-0.681-0.34-0.905c-0.227-0.225-0.561-0.337-1.002-0.337c-0.387,0-0.711,0.098-0.973,0.293
		c-0.262,0.195-0.393,0.432-0.393,0.709h-1.09c0-0.316,0.112-0.622,0.337-0.917c0.225-0.295,0.529-0.528,0.914-0.7
		c0.385-0.172,0.808-0.258,1.269-0.258c0.73,0,1.303,0.183,1.717,0.548c0.414,0.365,0.629,0.868,0.645,1.509v2.918
		c0,0.582,0.074,1.045,0.223,1.389v0.094h-1.137c-0.063-0.125-0.113-0.348-0.152-0.668C42.471,45.529,41.869,45.791,41.17,45.791
		 M42.108,42.598c-1.328,0-1.992,0.389-1.992,1.166c0,0.34,0.113,0.606,0.34,0.797c0.227,0.191,0.518,0.287,0.873,0.287
		c0.34,0,0.662-0.088,0.967-0.264c0.305-0.176,0.525-0.404,0.662-0.686v-1.301H42.108 M35.398,45.791
		c-0.863,0-1.55-0.288-2.06-0.864c-0.51-0.576-0.765-1.364-0.765-2.364v-0.182c0-0.617,0.113-1.166,0.34-1.646
		c0.226-0.48,0.552-0.854,0.976-1.119c0.424-0.266,0.925-0.398,1.503-0.398c0.711,0,1.302,0.213,1.772,0.639
		c0.471,0.426,0.722,0.979,0.753,1.658h-1.025c-0.031-0.41-0.187-0.747-0.466-1.011c-0.279-0.264-0.624-0.396-1.034-0.396
		c-0.551,0-0.978,0.198-1.28,0.595c-0.303,0.397-0.454,0.97-0.454,1.72v0.205c0,0.73,0.15,1.293,0.451,1.687
		c0.301,0.395,0.73,0.592,1.289,0.592c0.387,0,0.725-0.117,1.014-0.352c0.289-0.234,0.449-0.527,0.48-0.879h1.025
		c-0.02,0.363-0.145,0.709-0.375,1.037c-0.231,0.328-0.538,0.59-0.923,0.785C36.235,45.693,35.828,45.791,35.398,45.791
		 M21.083,45.791c-0.676,0-1.19-0.196-1.544-0.589c-0.354-0.393-0.532-0.974-0.536-1.743v-4.125h1.084v4.096
		c0,0.961,0.391,1.441,1.172,1.441c0.828,0,1.379-0.309,1.652-0.926v-4.611h1.084v6.34h-1.031l-0.023-0.627
		C22.518,45.543,21.899,45.791,21.083,45.791 M13.973,45.791c-0.672,0-1.268-0.165-1.787-0.495c-0.52-0.33-0.923-0.801-1.21-1.412
		c-0.287-0.611-0.435-1.319-0.442-2.124v-0.615c0-0.82,0.143-1.545,0.428-2.174c0.285-0.629,0.688-1.11,1.21-1.444
		c0.522-0.334,1.118-0.501,1.79-0.501c0.684,0,1.286,0.165,1.808,0.495c0.522,0.33,0.923,0.809,1.204,1.436
		c0.281,0.627,0.422,1.356,0.422,2.189v0.539c0,0.836-0.141,1.565-0.422,2.189c-0.281,0.623-0.68,1.099-1.195,1.427
		C15.262,45.627,14.66,45.791,13.973,45.791 M13.961,37.992c-0.711,0-1.271,0.271-1.679,0.812c-0.408,0.541-0.618,1.292-0.63,2.253
		v0.627c0,0.981,0.206,1.751,0.618,2.312c0.412,0.561,0.979,0.841,1.702,0.841c0.727,0,1.289-0.265,1.688-0.794
		c0.398-0.529,0.604-1.288,0.615-2.276v-0.633c0-1.012-0.203-1.788-0.609-2.329C15.26,38.263,14.691,37.992,13.961,37.992
		 M210.904,45.674h-1.084v-4.195c-0.004-0.457-0.108-0.795-0.313-1.014c-0.205-0.219-0.524-0.328-0.958-0.328
		c-0.352,0-0.66,0.094-0.926,0.281c-0.266,0.188-0.473,0.434-0.621,0.738v4.518h-1.084v-9h1.084v3.428
		c0.48-0.59,1.105-0.885,1.875-0.885c1.34,0,2.016,0.756,2.027,2.268V45.674 M200.178,45.674h-1.084v-6.34h1.084V45.674
		 M196.054,45.674h-0.879l-1.541-4.805l-1.5,4.805h-0.879l-1.84-6.34h1.078l1.248,4.746l1.477-4.746h0.873l1.506,4.846l1.219-4.846
		h1.084L196.054,45.674 M158.272,45.674h-1.084v-6.34h1.084V45.674 M119.327,45.674h-1.084v-9h1.084V45.674 M99.244,45.674H98.16
		v-6.34h1.055l0.018,0.732c0.355-0.566,0.859-0.85,1.512-0.85c0.211,0,0.371,0.027,0.48,0.082v1.008
		c-0.164-0.027-0.342-0.041-0.533-0.041c-0.711,0-1.193,0.303-1.447,0.908V45.674 M54.66,45.674h-1.084V41.49
		c0-0.453-0.104-0.792-0.311-1.017c-0.207-0.225-0.555-0.337-1.043-0.337c-0.402,0-0.736,0.12-1.002,0.36
		c-0.266,0.24-0.42,0.563-0.463,0.97v4.207h-1.09V41.52c0-0.922-0.451-1.383-1.353-1.383c-0.711,0-1.197,0.303-1.459,0.908v4.629
		h-1.084v-6.34h1.025l0.029,0.703c0.465-0.547,1.092-0.82,1.881-0.82c0.887,0,1.49,0.34,1.811,1.02
		c0.211-0.305,0.485-0.551,0.823-0.738c0.338-0.188,0.737-0.281,1.198-0.281c1.391,0,2.098,0.736,2.121,2.209V45.674 M26.788,45.674
		h-1.084v-6.34h1.055l0.018,0.732c0.355-0.566,0.859-0.85,1.512-0.85c0.211,0,0.371,0.027,0.48,0.082v1.008
		c-0.164-0.027-0.342-0.041-0.533-0.041c-0.711,0-1.193,0.303-1.447,0.908V45.674 M199.645,38.268c-0.211,0-0.37-0.059-0.478-0.176
		c-0.107-0.117-0.161-0.264-0.161-0.439c0-0.176,0.054-0.324,0.161-0.445c0.107-0.121,0.267-0.182,0.478-0.182
		c0.211,0,0.371,0.061,0.48,0.182c0.109,0.121,0.164,0.27,0.164,0.445c0,0.176-0.055,0.322-0.164,0.439
		S199.856,38.268,199.645,38.268 M157.738,38.268c-0.211,0-0.37-0.059-0.478-0.176c-0.108-0.117-0.161-0.264-0.161-0.439
		c0-0.176,0.054-0.324,0.161-0.445c0.107-0.121,0.267-0.182,0.478-0.182c0.211,0,0.371,0.061,0.48,0.182
		c0.109,0.121,0.164,0.27,0.164,0.445c0,0.176-0.055,0.322-0.164,0.439C158.11,38.209,157.949,38.268,157.738,38.268"/>
	<path fill="#000000" d="M69.961,64.234l-0.205-0.018l-0.404-0.076v-0.879l0.293,0.023c0.367,0,0.653-0.074,0.858-0.223
		c0.205-0.149,0.374-0.42,0.507-0.814l0.24-0.644l-2.262-6.27h1.184l1.582,4.752l1.477-4.752h1.16l-2.549,7.318
		C71.447,63.707,70.82,64.234,69.961,64.234 M33.862,64.234l-0.205-0.018l-0.404-0.076v-0.879l0.293,0.023
		c0.367,0,0.653-0.074,0.858-0.223c0.205-0.149,0.374-0.42,0.507-0.814l0.24-0.644l-2.262-6.27h1.184l1.582,4.752l1.477-4.752h1.16
		l-2.549,7.318C35.349,63.707,34.722,64.234,33.862,64.234 M62.265,64.17c-0.457,0-0.904-0.098-1.342-0.293
		c-0.438-0.195-0.772-0.463-1.002-0.803l0.562-0.65c0.465,0.574,1.033,0.861,1.705,0.861c0.527,0,0.938-0.148,1.233-0.445
		c0.295-0.297,0.442-0.715,0.442-1.254v-0.545c-0.434,0.5-1.025,0.75-1.775,0.75c-0.742,0-1.343-0.299-1.802-0.896
		c-0.459-0.598-0.688-1.412-0.688-2.443c0-0.988,0.229-1.774,0.686-2.358c0.457-0.584,1.063-0.876,1.816-0.876
		c0.773,0,1.377,0.273,1.811,0.82l0.053-0.703h0.99v6.187c0,0.82-0.243,1.467-0.729,1.939C63.738,63.934,63.085,64.17,62.265,64.17
		 M62.37,56.137c-0.527,0-0.939,0.205-1.236,0.615c-0.297,0.41-0.445,1.018-0.445,1.822c0,0.715,0.146,1.276,0.439,1.685
		c0.293,0.408,0.703,0.612,1.23,0.612c0.684,0,1.186-0.311,1.506-0.932v-2.895C63.532,56.439,63.034,56.137,62.37,56.137
		 M233.281,61.791c-0.734,0-1.333-0.301-1.796-0.902c-0.463-0.602-0.694-1.387-0.694-2.355v-0.082c0-0.973,0.23-1.755,0.691-2.347
		c0.461-0.592,1.064-0.888,1.811-0.888c0.742,0,1.33,0.254,1.764,0.762v-3.305h1.084v9h-0.996l-0.053-0.68
		C234.658,61.525,234.055,61.791,233.281,61.791 M233.562,56.137c-0.531,0-0.945,0.205-1.242,0.615
		c-0.297,0.41-0.445,1.018-0.445,1.822c0,0.719,0.148,1.281,0.445,1.688c0.297,0.406,0.707,0.609,1.23,0.609
		c0.687,0,1.189-0.309,1.506-0.926v-2.912C234.732,56.436,234.234,56.137,233.562,56.137 M219.788,61.791
		c-0.625,0-1.138-0.177-1.538-0.53c-0.4-0.353-0.601-0.802-0.601-1.345c0-0.66,0.251-1.173,0.753-1.538
		c0.502-0.365,1.208-0.548,2.118-0.548h1.055v-0.498c0-0.379-0.113-0.681-0.34-0.905c-0.227-0.225-0.561-0.337-1.002-0.337
		c-0.387,0-0.711,0.098-0.973,0.293c-0.262,0.195-0.393,0.432-0.393,0.709h-1.09c0-0.316,0.112-0.622,0.337-0.917
		c0.225-0.295,0.529-0.528,0.914-0.7c0.385-0.172,0.808-0.258,1.269-0.258c0.73,0,1.303,0.183,1.717,0.548
		c0.414,0.365,0.629,0.868,0.645,1.509v2.918c0,0.582,0.074,1.045,0.223,1.389v0.094h-1.137c-0.063-0.125-0.113-0.348-0.152-0.668
		C221.088,61.529,220.487,61.791,219.788,61.791 M220.725,58.598c-1.328,0-1.992,0.389-1.992,1.166c0,0.34,0.113,0.606,0.34,0.797
		c0.226,0.191,0.518,0.287,0.873,0.287c0.34,0,0.662-0.088,0.967-0.264c0.305-0.176,0.525-0.404,0.662-0.686v-1.301H220.725
		 M211.013,61.791c-0.859,0-1.559-0.282-2.098-0.847c-0.539-0.564-0.809-1.319-0.809-2.265V58.48c0-0.629,0.12-1.19,0.36-1.685
		c0.24-0.494,0.576-0.881,1.008-1.16c0.432-0.279,0.899-0.419,1.403-0.419c0.824,0,1.465,0.272,1.922,0.814
		c0.457,0.543,0.686,1.32,0.686,2.332v0.451h-4.295c0.016,0.625,0.198,1.13,0.548,1.515c0.35,0.385,0.794,0.577,1.333,0.577
		c0.383,0,0.707-0.078,0.973-0.234c0.266-0.156,0.498-0.363,0.697-0.621l0.662,0.516C212.873,61.383,212.076,61.791,211.013,61.791
		 M210.878,56.107c-0.438,0-0.805,0.159-1.102,0.478c-0.297,0.318-0.48,0.765-0.551,1.339h3.176v-0.082
		c-0.031-0.551-0.18-0.977-0.445-1.28C211.691,56.259,211.332,56.107,210.878,56.107 M201.565,61.791
		c-0.801,0-1.42-0.283-1.857-0.85l-0.053,0.732h-0.996v-9h1.084v3.357c0.437-0.543,1.041-0.814,1.811-0.814
		c0.769,0,1.374,0.291,1.813,0.873c0.439,0.582,0.659,1.379,0.659,2.391v0.094c0,0.969-0.223,1.747-0.668,2.335
		C202.913,61.497,202.315,61.791,201.565,61.791 M201.284,56.137c-0.715,0-1.229,0.332-1.541,0.996v2.742
		c0.332,0.664,0.85,0.996,1.553,0.996c0.519,0,0.924-0.201,1.213-0.604c0.289-0.402,0.434-1.008,0.434-1.816
		c0-0.738-0.143-1.309-0.428-1.711C202.229,56.338,201.819,56.137,201.284,56.137 M194.057,61.791c-0.625,0-1.138-0.177-1.538-0.53
		c-0.4-0.353-0.601-0.802-0.601-1.345c0-0.66,0.251-1.173,0.753-1.538c0.502-0.365,1.208-0.548,2.118-0.548h1.055v-0.498
		c0-0.379-0.113-0.681-0.34-0.905c-0.227-0.225-0.561-0.337-1.002-0.337c-0.387,0-0.711,0.098-0.973,0.293
		c-0.262,0.195-0.393,0.432-0.393,0.709h-1.09c0-0.316,0.112-0.622,0.337-0.917c0.225-0.295,0.529-0.528,0.914-0.7
		c0.385-0.172,0.808-0.258,1.269-0.258c0.73,0,1.303,0.183,1.717,0.548c0.414,0.365,0.629,0.868,0.645,1.509v2.918
		c0,0.582,0.074,1.045,0.223,1.389v0.094h-1.137c-0.063-0.125-0.113-0.348-0.152-0.668
		C195.358,61.529,194.756,61.791,194.057,61.791 M194.995,58.598c-1.328,0-1.992,0.389-1.992,1.166c0,0.34,0.113,0.606,0.34,0.797
		c0.227,0.191,0.518,0.287,0.873,0.287c0.34,0,0.662-0.088,0.967-0.264c0.305-0.176,0.525-0.404,0.662-0.686v-1.301H194.995
		 M190.028,61.791c-0.484,0-0.85-0.146-1.096-0.439c-0.246-0.293-0.369-0.709-0.369-1.248v-3.932h-1.154v-0.838h1.154v-1.535h1.084
		v1.535h1.184v0.838h-1.184v3.937c0,0.254,0.053,0.445,0.158,0.572c0.106,0.127,0.285,0.191,0.539,0.191
		c0.125,0,0.297-0.023,0.516-0.07v0.874C190.575,61.752,190.298,61.791,190.028,61.791 M179.341,61.791
		c-0.859,0-1.556-0.299-2.089-0.896c-0.533-0.598-0.8-1.389-0.8-2.373v-0.076c0-0.621,0.122-1.18,0.366-1.676
		c0.244-0.496,0.584-0.879,1.02-1.148c0.436-0.27,0.933-0.404,1.491-0.404c0.863,0,1.561,0.299,2.095,0.896
		c0.533,0.598,0.8,1.393,0.8,2.385v0.076c0,0.617-0.118,1.171-0.354,1.661c-0.236,0.49-0.574,0.872-1.014,1.146
		C180.416,61.654,179.911,61.791,179.341,61.791 M179.329,56.107c-0.535,0-0.967,0.213-1.295,0.639
		c-0.328,0.426-0.492,1.035-0.492,1.828c0,0.703,0.163,1.268,0.489,1.693c0.326,0.426,0.763,0.639,1.31,0.639
		c0.551,0,0.988-0.216,1.312-0.647c0.324-0.432,0.486-1.036,0.486-1.813c0-0.695-0.165-1.259-0.495-1.69
		C180.315,56.323,179.876,56.107,179.329,56.107 M157.977,61.791c-0.859,0-1.556-0.299-2.089-0.896
		c-0.533-0.598-0.8-1.389-0.8-2.373v-0.076c0-0.621,0.122-1.18,0.366-1.676c0.244-0.496,0.584-0.879,1.02-1.148
		c0.435-0.27,0.933-0.404,1.491-0.404c0.863,0,1.562,0.299,2.095,0.896c0.533,0.598,0.8,1.393,0.8,2.385v0.076
		c0,0.617-0.118,1.171-0.354,1.661c-0.236,0.49-0.574,0.872-1.014,1.146C159.052,61.654,158.547,61.791,157.977,61.791
		 M157.965,56.107c-0.535,0-0.967,0.213-1.295,0.639c-0.328,0.426-0.492,1.035-0.492,1.828c0,0.703,0.163,1.268,0.489,1.693
		c0.326,0.426,0.763,0.639,1.31,0.639c0.551,0,0.988-0.216,1.312-0.647c0.324-0.432,0.486-1.036,0.486-1.813
		c0-0.695-0.165-1.259-0.495-1.69C158.95,56.323,158.512,56.107,157.965,56.107 M151.536,61.791c-0.863,0-1.55-0.288-2.06-0.864
		c-0.51-0.576-0.765-1.364-0.765-2.364v-0.182c0-0.617,0.113-1.166,0.34-1.647c0.227-0.48,0.552-0.853,0.976-1.119
		c0.424-0.266,0.925-0.398,1.503-0.398c0.711,0,1.302,0.213,1.773,0.639c0.471,0.426,0.722,0.978,0.753,1.658h-1.025
		c-0.031-0.41-0.187-0.747-0.466-1.011c-0.279-0.264-0.624-0.396-1.034-0.396c-0.551,0-0.978,0.198-1.28,0.595
		c-0.303,0.396-0.454,0.97-0.454,1.72v0.205c0,0.73,0.15,1.293,0.451,1.687c0.301,0.395,0.73,0.592,1.289,0.592
		c0.387,0,0.725-0.117,1.014-0.352c0.289-0.234,0.449-0.527,0.48-0.879h1.025c-0.02,0.363-0.145,0.709-0.375,1.037
		c-0.231,0.328-0.538,0.59-0.923,0.785C152.373,61.693,151.966,61.791,151.536,61.791 M141.332,61.791
		c-0.625,0-1.138-0.177-1.538-0.53c-0.4-0.353-0.601-0.802-0.601-1.345c0-0.66,0.251-1.173,0.753-1.538
		c0.502-0.365,1.208-0.548,2.118-0.548h1.055v-0.498c0-0.379-0.113-0.681-0.34-0.905c-0.227-0.225-0.561-0.337-1.002-0.337
		c-0.387,0-0.711,0.098-0.973,0.293c-0.262,0.195-0.393,0.432-0.393,0.709h-1.09c0-0.316,0.112-0.622,0.337-0.917
		c0.225-0.295,0.529-0.528,0.914-0.7c0.385-0.172,0.808-0.258,1.269-0.258c0.73,0,1.303,0.183,1.717,0.548
		c0.414,0.365,0.629,0.868,0.645,1.509v2.918c0,0.582,0.074,1.045,0.223,1.389v0.094h-1.137c-0.063-0.125-0.113-0.348-0.152-0.668
		C142.633,61.529,142.031,61.791,141.332,61.791 M142.27,58.598c-1.328,0-1.992,0.389-1.992,1.166c0,0.34,0.113,0.606,0.34,0.797
		c0.226,0.191,0.518,0.287,0.873,0.287c0.34,0,0.662-0.088,0.967-0.264c0.305-0.176,0.525-0.404,0.662-0.686v-1.301H142.27
		 M127.929,61.791c-0.859,0-1.556-0.299-2.089-0.896c-0.533-0.598-0.8-1.389-0.8-2.373v-0.076c0-0.621,0.122-1.18,0.366-1.676
		c0.244-0.496,0.584-0.879,1.02-1.148c0.435-0.27,0.933-0.404,1.491-0.404c0.863,0,1.562,0.299,2.095,0.896
		c0.533,0.598,0.8,1.393,0.8,2.385v0.076c0,0.617-0.118,1.171-0.354,1.661c-0.236,0.49-0.574,0.872-1.014,1.146
		C129.004,61.654,128.499,61.791,127.929,61.791 M127.917,56.107c-0.535,0-0.967,0.213-1.295,0.639
		c-0.328,0.426-0.492,1.035-0.492,1.828c0,0.703,0.163,1.268,0.489,1.693c0.326,0.426,0.763,0.639,1.31,0.639
		c0.551,0,0.988-0.216,1.313-0.647c0.324-0.432,0.486-1.036,0.486-1.813c0-0.695-0.165-1.259-0.495-1.69
		C128.903,56.323,128.464,56.107,127.917,56.107 M113.678,61.791c-0.734,0-1.333-0.301-1.796-0.902
		c-0.463-0.602-0.694-1.387-0.694-2.355v-0.082c0-0.973,0.23-1.755,0.691-2.347c0.461-0.592,1.064-0.888,1.811-0.888
		c0.742,0,1.33,0.254,1.764,0.762v-3.305h1.084v9h-0.996l-0.053-0.68C115.055,61.525,114.452,61.791,113.678,61.791 M113.96,56.137
		c-0.531,0-0.945,0.205-1.242,0.615c-0.297,0.41-0.445,1.018-0.445,1.822c0,0.719,0.148,1.281,0.445,1.688
		c0.297,0.406,0.707,0.609,1.23,0.609c0.687,0,1.189-0.309,1.506-0.926v-2.912C115.13,56.436,114.632,56.137,113.96,56.137
		 M107.599,61.791c-0.859,0-1.559-0.282-2.098-0.847c-0.539-0.564-0.809-1.319-0.809-2.265V58.48c0-0.629,0.12-1.19,0.36-1.685
		c0.24-0.494,0.576-0.881,1.008-1.16c0.432-0.279,0.899-0.419,1.403-0.419c0.824,0,1.465,0.272,1.922,0.814
		c0.457,0.543,0.686,1.32,0.686,2.332v0.451h-4.295c0.016,0.625,0.198,1.13,0.548,1.515c0.35,0.385,0.794,0.577,1.333,0.577
		c0.383,0,0.707-0.078,0.973-0.234c0.266-0.156,0.498-0.363,0.697-0.621l0.662,0.516C109.459,61.383,108.662,61.791,107.599,61.791
		 M107.465,56.107c-0.438,0-0.805,0.159-1.102,0.478c-0.297,0.318-0.48,0.765-0.551,1.339h3.176v-0.082
		c-0.031-0.551-0.18-0.977-0.445-1.28C108.277,56.259,107.918,56.107,107.465,56.107 M101.136,61.791
		c-0.859,0-1.559-0.282-2.098-0.847C98.5,60.38,98.23,59.625,98.23,58.68V58.48c0-0.629,0.12-1.19,0.36-1.685
		c0.24-0.494,0.576-0.881,1.008-1.16c0.432-0.279,0.899-0.419,1.403-0.419c0.824,0,1.465,0.272,1.922,0.814
		c0.457,0.543,0.686,1.32,0.686,2.332v0.451h-4.295c0.016,0.625,0.198,1.13,0.548,1.515c0.35,0.385,0.794,0.577,1.333,0.577
		c0.383,0,0.707-0.078,0.973-0.234c0.266-0.156,0.498-0.363,0.697-0.621l0.662,0.516C102.996,61.383,102.199,61.791,101.136,61.791
		 M101.002,56.107c-0.438,0-0.805,0.159-1.102,0.478c-0.297,0.318-0.48,0.765-0.551,1.339h3.176v-0.082
		c-0.031-0.551-0.18-0.977-0.445-1.28C101.814,56.259,101.455,56.107,101.002,56.107 M84.185,61.791
		c-0.676,0-1.19-0.196-1.544-0.589c-0.354-0.393-0.532-0.974-0.536-1.743v-4.125h1.084v4.096c0,0.961,0.391,1.441,1.172,1.441
		c0.828,0,1.379-0.309,1.652-0.926v-4.611h1.084v6.34h-1.031l-0.023-0.627C85.62,61.543,85.001,61.791,84.185,61.791 M77.84,61.791
		c-0.859,0-1.556-0.299-2.089-0.896c-0.533-0.598-0.8-1.389-0.8-2.373v-0.076c0-0.621,0.122-1.18,0.366-1.676
		c0.244-0.496,0.584-0.879,1.02-1.148c0.435-0.27,0.933-0.404,1.491-0.404c0.863,0,1.562,0.299,2.095,0.896
		c0.533,0.598,0.8,1.393,0.8,2.385v0.076c0,0.617-0.118,1.171-0.354,1.661c-0.236,0.49-0.574,0.872-1.014,1.146
		C78.915,61.654,78.411,61.791,77.84,61.791 M77.829,56.107c-0.535,0-0.967,0.213-1.295,0.639c-0.328,0.426-0.492,1.035-0.492,1.828
		c0,0.703,0.163,1.268,0.489,1.693c0.326,0.426,0.763,0.639,1.31,0.639c0.551,0,0.988-0.216,1.312-0.647
		c0.324-0.432,0.486-1.036,0.486-1.813c0-0.695-0.165-1.259-0.495-1.69C78.814,56.323,78.375,56.107,77.829,56.107 M41.604,61.791
		c-0.484,0-0.85-0.146-1.096-0.439c-0.246-0.293-0.369-0.709-0.369-1.248v-3.932h-1.154v-0.838h1.154v-1.535h1.084v1.535h1.184
		v0.838h-1.184v3.937c0,0.254,0.053,0.445,0.158,0.572c0.106,0.127,0.285,0.191,0.539,0.191c0.125,0,0.297-0.023,0.516-0.07v0.874
		C42.151,61.752,41.873,61.791,41.604,61.791 M25.226,61.791c-0.859,0-1.559-0.282-2.098-0.847
		c-0.539-0.564-0.809-1.319-0.809-2.265V58.48c0-0.629,0.12-1.19,0.36-1.685c0.24-0.494,0.576-0.881,1.008-1.16
		c0.432-0.279,0.899-0.419,1.403-0.419c0.824,0,1.465,0.272,1.922,0.814c0.457,0.543,0.686,1.32,0.686,2.332v0.451h-4.295
		c0.016,0.625,0.198,1.13,0.548,1.515c0.35,0.385,0.794,0.577,1.333,0.577c0.383,0,0.707-0.078,0.973-0.234
		c0.266-0.156,0.498-0.363,0.697-0.621l0.662,0.516C27.086,61.383,26.289,61.791,25.226,61.791 M25.092,56.107
		c-0.438,0-0.805,0.159-1.102,0.478c-0.297,0.318-0.48,0.765-0.551,1.339h3.176v-0.082c-0.031-0.551-0.18-0.977-0.445-1.28
		C25.904,56.259,25.545,56.107,25.092,56.107 M13.293,61.791c-0.859,0-1.559-0.282-2.098-0.847
		c-0.539-0.564-0.809-1.319-0.809-2.265V58.48c0-0.629,0.12-1.19,0.36-1.685c0.24-0.494,0.576-0.881,1.008-1.16
		c0.432-0.279,0.899-0.419,1.403-0.419c0.824,0,1.465,0.272,1.922,0.814c0.457,0.543,0.686,1.32,0.686,2.332v0.451h-4.295
		c0.016,0.625,0.198,1.13,0.548,1.515c0.35,0.385,0.794,0.577,1.333,0.577c0.383,0,0.707-0.078,0.973-0.234
		c0.266-0.156,0.498-0.363,0.697-0.621l0.662,0.516C15.152,61.383,14.355,61.791,13.293,61.791 M13.158,56.107
		c-0.438,0-0.805,0.159-1.102,0.478c-0.297,0.318-0.48,0.765-0.551,1.339h3.176v-0.082c-0.031-0.551-0.18-0.977-0.445-1.28
		C13.971,56.259,13.611,56.107,13.158,56.107 M229.375,61.674h-1.084v-4.195c-0.004-0.457-0.108-0.795-0.314-1.014
		c-0.205-0.219-0.524-0.328-0.958-0.328c-0.352,0-0.66,0.094-0.926,0.281c-0.266,0.188-0.473,0.434-0.621,0.738v4.518h-1.084v-6.34
		h1.025l0.035,0.797c0.484-0.609,1.117-0.914,1.898-0.914c1.34,0,2.016,0.756,2.027,2.268V61.674 M206.616,61.674h-1.084v-9h1.084
		V61.674 M184.72,61.674h-1.084v-6.34h1.055l0.018,0.732c0.355-0.566,0.859-0.85,1.512-0.85c0.211,0,0.371,0.027,0.48,0.082v1.008
		c-0.164-0.027-0.342-0.041-0.533-0.041c-0.711,0-1.193,0.303-1.447,0.908V61.674 M174.339,61.674h-1.084v-5.502h-1.002v-0.838
		h1.002v-0.65c0-0.68,0.182-1.205,0.545-1.576c0.363-0.371,0.877-0.557,1.541-0.557c0.25,0,0.498,0.033,0.744,0.099l-0.059,0.874
		c-0.184-0.035-0.379-0.053-0.586-0.053c-0.352,0-0.623,0.103-0.814,0.309c-0.191,0.206-0.287,0.501-0.287,0.885v0.67h1.353v0.838
		h-1.353V61.674 M171.161,61.674h-1.084V57.49c0-0.453-0.104-0.792-0.311-1.017c-0.207-0.225-0.555-0.337-1.043-0.337
		c-0.402,0-0.736,0.12-1.002,0.36c-0.266,0.24-0.42,0.563-0.463,0.97v4.207h-1.09V57.52c0-0.922-0.451-1.383-1.353-1.383
		c-0.711,0-1.197,0.303-1.459,0.908v4.629h-1.084v-6.34h1.025l0.029,0.703c0.465-0.547,1.092-0.82,1.881-0.82
		c0.887,0,1.49,0.34,1.811,1.02c0.211-0.305,0.485-0.551,0.823-0.738c0.338-0.187,0.737-0.281,1.198-0.281
		c1.391,0,2.098,0.736,2.121,2.209V61.674 M133.308,61.674h-1.084v-6.34h1.055l0.018,0.732c0.355-0.566,0.859-0.85,1.512-0.85
		c0.211,0,0.371,0.027,0.48,0.082v1.008c-0.164-0.027-0.342-0.041-0.533-0.041c-0.711,0-1.193,0.303-1.447,0.908V61.674
		 M122.927,61.674h-1.084v-5.502h-1.002v-0.838h1.002v-0.65c0-0.68,0.182-1.205,0.545-1.576c0.363-0.371,0.877-0.557,1.541-0.557
		c0.25,0,0.498,0.033,0.744,0.099l-0.059,0.874c-0.184-0.035-0.379-0.053-0.586-0.053c-0.352,0-0.623,0.103-0.814,0.309
		c-0.191,0.206-0.287,0.501-0.287,0.885v0.67h1.354v0.838h-1.354V61.674 M96.82,61.674h-1.084v-4.195
		c-0.004-0.457-0.108-0.795-0.313-1.014c-0.205-0.219-0.524-0.328-0.958-0.328c-0.352,0-0.66,0.094-0.926,0.281
		c-0.266,0.188-0.473,0.434-0.621,0.738v4.518h-1.084v-6.34h1.025l0.035,0.797c0.484-0.609,1.117-0.914,1.898-0.914
		c1.34,0,2.016,0.756,2.027,2.268V61.674 M58.177,61.674h-1.084v-4.195c-0.004-0.457-0.108-0.795-0.314-1.014
		c-0.205-0.219-0.524-0.328-0.958-0.328c-0.352,0-0.66,0.094-0.926,0.281c-0.266,0.188-0.473,0.434-0.621,0.738v4.518h-1.084v-6.34
		h1.025l0.035,0.797c0.484-0.609,1.117-0.914,1.898-0.914c1.34,0,2.016,0.756,2.027,2.268V61.674 M51.433,61.674h-1.084v-6.34h1.084
		V61.674 M48.632,61.674h-1.084v-4.195c-0.004-0.457-0.108-0.795-0.313-1.014c-0.205-0.219-0.524-0.328-0.958-0.328
		c-0.352,0-0.66,0.094-0.926,0.281c-0.266,0.188-0.473,0.434-0.621,0.738v4.518h-1.084v-9h1.084v3.428
		c0.48-0.59,1.105-0.885,1.875-0.885c1.34,0,2.016,0.756,2.027,2.268V61.674 M30.161,61.674h-1.084v-6.34h1.055l0.018,0.732
		c0.355-0.566,0.859-0.85,1.512-0.85c0.211,0,0.371,0.027,0.48,0.082v1.008c-0.164-0.027-0.342-0.041-0.533-0.041
		c-0.711,0-1.193,0.303-1.447,0.908V61.674 M19.453,61.674h-0.826l-2.297-6.34h1.107l1.611,4.869l1.57-4.869h1.107L19.453,61.674
		 M50.9,54.268c-0.211,0-0.37-0.059-0.478-0.176c-0.107-0.117-0.161-0.264-0.161-0.439c0-0.176,0.054-0.324,0.161-0.445
		c0.107-0.121,0.267-0.182,0.478-0.182c0.211,0,0.371,0.061,0.48,0.182c0.109,0.121,0.164,0.27,0.164,0.445
		c0,0.176-0.055,0.322-0.164,0.439C51.271,54.209,51.111,54.268,50.9,54.268"/>
	<path fill="#000000" d="M120.587,80.234l-0.205-0.018l-0.404-0.076v-0.879l0.293,0.023c0.367,0,0.653-0.074,0.858-0.223
		c0.205-0.149,0.374-0.42,0.507-0.814l0.24-0.644l-2.262-6.27h1.184l1.582,4.752l1.477-4.752h1.16l-2.549,7.318
		C122.073,79.707,121.446,80.234,120.587,80.234 M86.193,80.234c-0.238,0-0.459-0.035-0.662-0.105v-0.862
		c0.125,0.031,0.289,0.047,0.492,0.047c0.242,0,0.427-0.066,0.554-0.196c0.127-0.131,0.19-0.359,0.19-0.683v-7.101h1.084v7.072
		C87.851,79.625,87.298,80.234,86.193,80.234 M193.899,80.17c-0.457,0-0.904-0.098-1.342-0.293
		c-0.438-0.195-0.771-0.463-1.002-0.803l0.562-0.65c0.465,0.574,1.033,0.861,1.705,0.861c0.527,0,0.938-0.149,1.233-0.445
		c0.295-0.297,0.442-0.715,0.442-1.254v-0.545c-0.434,0.5-1.025,0.75-1.775,0.75c-0.742,0-1.343-0.299-1.802-0.896
		c-0.459-0.598-0.688-1.412-0.688-2.443c0-0.988,0.229-1.774,0.686-2.358c0.457-0.584,1.062-0.876,1.816-0.876
		c0.773,0,1.377,0.273,1.811,0.82l0.053-0.703h0.99v6.187c0,0.82-0.243,1.467-0.73,1.939
		C195.373,79.934,194.719,80.17,193.899,80.17 M194.005,72.137c-0.527,0-0.939,0.205-1.236,0.615
		c-0.297,0.41-0.445,1.018-0.445,1.822c0,0.715,0.146,1.276,0.439,1.685s0.703,0.612,1.23,0.612c0.684,0,1.186-0.311,1.506-0.932
		v-2.895C195.167,72.439,194.669,72.137,194.005,72.137 M125.535,79.373l-0.615-0.422c0.367-0.512,0.559-1.039,0.574-1.582v-0.979
		h1.061v0.85c0,0.395-0.097,0.789-0.29,1.184C126.071,78.818,125.828,79.135,125.535,79.373 M232.675,77.791
		c-0.508,0-0.957-0.09-1.348-0.27c-0.391-0.18-0.696-0.431-0.917-0.753c-0.221-0.322-0.331-0.671-0.331-1.046h1.084
		c0.019,0.363,0.165,0.651,0.436,0.864c0.271,0.213,0.63,0.319,1.075,0.319c0.41,0,0.739-0.083,0.987-0.249
		c0.248-0.166,0.372-0.388,0.372-0.665c0-0.293-0.11-0.521-0.331-0.683c-0.221-0.162-0.606-0.302-1.154-0.419
		c-0.549-0.117-0.984-0.258-1.307-0.422c-0.322-0.164-0.561-0.359-0.715-0.586c-0.154-0.226-0.231-0.496-0.231-0.809
		c0-0.52,0.22-0.959,0.659-1.318c0.439-0.359,1.001-0.539,1.685-0.539c0.719,0,1.302,0.186,1.749,0.557
		c0.447,0.371,0.671,0.846,0.671,1.424h-1.09c0-0.297-0.126-0.553-0.378-0.768c-0.252-0.215-0.569-0.322-0.952-0.322
		c-0.395,0-0.703,0.086-0.926,0.258c-0.223,0.172-0.334,0.397-0.334,0.674c0,0.262,0.104,0.459,0.311,0.592
		c0.207,0.133,0.581,0.26,1.122,0.381c0.541,0.121,0.979,0.266,1.315,0.434c0.336,0.168,0.585,0.37,0.747,0.606
		c0.162,0.236,0.243,0.524,0.243,0.864c0,0.566-0.227,1.021-0.68,1.362C233.985,77.62,233.398,77.791,232.675,77.791
		 M228.283,77.791c-0.484,0-0.85-0.146-1.096-0.439c-0.246-0.293-0.369-0.709-0.369-1.248v-3.932h-1.154v-0.838h1.154v-1.535h1.084
		v1.535h1.184v0.838h-1.184v3.937c0,0.254,0.053,0.445,0.158,0.572c0.105,0.127,0.285,0.191,0.539,0.191
		c0.125,0,0.297-0.023,0.516-0.07v0.874C228.83,77.752,228.552,77.791,228.283,77.791 M215.878,77.791
		c-0.859,0-1.559-0.282-2.098-0.847c-0.539-0.564-0.809-1.319-0.809-2.265V74.48c0-0.629,0.12-1.19,0.36-1.685
		c0.24-0.494,0.576-0.881,1.008-1.16c0.432-0.279,0.899-0.419,1.403-0.419c0.824,0,1.465,0.272,1.922,0.814
		c0.457,0.543,0.686,1.32,0.686,2.332v0.451h-4.295c0.016,0.625,0.198,1.13,0.548,1.515c0.35,0.385,0.794,0.577,1.333,0.577
		c0.383,0,0.707-0.078,0.973-0.234c0.266-0.156,0.498-0.363,0.697-0.621l0.662,0.516C217.738,77.383,216.941,77.791,215.878,77.791
		 M215.744,72.107c-0.438,0-0.805,0.159-1.102,0.478c-0.297,0.318-0.48,0.765-0.551,1.339h3.176v-0.082
		c-0.031-0.551-0.18-0.978-0.445-1.28C216.556,72.259,216.197,72.107,215.744,72.107 M203.945,77.791
		c-0.859,0-1.559-0.282-2.098-0.847c-0.539-0.564-0.809-1.319-0.809-2.265V74.48c0-0.629,0.12-1.19,0.36-1.685
		c0.24-0.494,0.576-0.881,1.008-1.16c0.432-0.279,0.899-0.419,1.403-0.419c0.824,0,1.465,0.272,1.922,0.814
		c0.457,0.543,0.686,1.32,0.686,2.332v0.451h-4.295c0.016,0.625,0.198,1.13,0.548,1.515c0.35,0.385,0.794,0.577,1.333,0.577
		c0.383,0,0.707-0.078,0.973-0.234c0.266-0.156,0.498-0.363,0.697-0.621l0.662,0.516C205.804,77.383,205.007,77.791,203.945,77.791
		 M203.81,72.107c-0.438,0-0.805,0.159-1.102,0.478c-0.297,0.318-0.48,0.765-0.551,1.339h3.176v-0.082
		c-0.031-0.551-0.18-0.978-0.445-1.28C204.623,72.259,204.263,72.107,203.81,72.107 M179.895,77.791
		c-0.484,0-0.85-0.146-1.096-0.439c-0.246-0.293-0.369-0.709-0.369-1.248v-3.932h-1.154v-0.838h1.154v-1.535h1.084v1.535h1.184
		v0.838h-1.184v3.937c0,0.254,0.053,0.445,0.158,0.572c0.105,0.127,0.285,0.191,0.539,0.191c0.125,0,0.297-0.023,0.516-0.07v0.874
		C180.442,77.752,180.165,77.791,179.895,77.791 M171.221,77.791c-0.863,0-1.55-0.288-2.06-0.864
		c-0.51-0.576-0.765-1.364-0.765-2.364v-0.182c0-0.617,0.113-1.166,0.34-1.646c0.227-0.48,0.552-0.853,0.976-1.119
		c0.424-0.266,0.925-0.398,1.503-0.398c0.711,0,1.302,0.213,1.772,0.639c0.471,0.426,0.722,0.979,0.753,1.658h-1.025
		c-0.031-0.41-0.187-0.747-0.466-1.011c-0.279-0.264-0.624-0.395-1.034-0.395c-0.551,0-0.978,0.198-1.28,0.595
		c-0.303,0.397-0.454,0.97-0.454,1.72v0.205c0,0.731,0.15,1.293,0.451,1.688c0.301,0.395,0.73,0.592,1.289,0.592
		c0.387,0,0.725-0.117,1.014-0.352c0.289-0.234,0.449-0.527,0.48-0.879h1.025c-0.02,0.363-0.145,0.709-0.375,1.037
		c-0.231,0.328-0.538,0.59-0.923,0.785C172.058,77.693,171.65,77.791,171.221,77.791 M159.281,77.791
		c-0.859,0-1.559-0.282-2.098-0.847c-0.539-0.564-0.809-1.319-0.809-2.265V74.48c0-0.629,0.12-1.19,0.36-1.685
		c0.24-0.494,0.576-0.881,1.008-1.16c0.432-0.279,0.899-0.419,1.403-0.419c0.824,0,1.465,0.272,1.922,0.814
		c0.457,0.543,0.686,1.32,0.686,2.332v0.451h-4.295c0.016,0.625,0.198,1.13,0.548,1.515c0.35,0.385,0.794,0.577,1.333,0.577
		c0.383,0,0.707-0.078,0.973-0.234c0.266-0.156,0.498-0.363,0.697-0.621l0.662,0.516C161.14,77.383,160.344,77.791,159.281,77.791
		 M159.146,72.107c-0.438,0-0.805,0.159-1.102,0.478c-0.297,0.318-0.48,0.765-0.551,1.339h3.176v-0.082
		c-0.031-0.551-0.18-0.978-0.445-1.28C159.959,72.259,159.599,72.107,159.146,72.107 M144.908,77.791
		c-0.484,0-0.85-0.146-1.096-0.439c-0.246-0.293-0.369-0.709-0.369-1.248v-3.932h-1.154v-0.838h1.154v-1.535h1.084v1.535h1.184
		v0.838h-1.184v3.937c0,0.254,0.053,0.445,0.158,0.572c0.105,0.127,0.285,0.191,0.539,0.191c0.125,0,0.297-0.023,0.516-0.07v0.874
		C145.455,77.752,145.178,77.791,144.908,77.791 M116.605,77.791c-0.859,0-1.559-0.282-2.098-0.847
		c-0.539-0.564-0.809-1.319-0.809-2.265V74.48c0-0.629,0.12-1.19,0.36-1.685c0.24-0.494,0.576-0.881,1.008-1.16
		c0.432-0.279,0.899-0.419,1.403-0.419c0.824,0,1.465,0.272,1.922,0.814c0.457,0.543,0.686,1.32,0.686,2.332v0.451h-4.295
		c0.016,0.625,0.198,1.13,0.548,1.515c0.35,0.385,0.794,0.577,1.333,0.577c0.383,0,0.707-0.078,0.973-0.234
		c0.266-0.156,0.498-0.363,0.697-0.621l0.662,0.516C118.465,77.383,117.668,77.791,116.605,77.791 M116.47,72.107
		c-0.438,0-0.805,0.159-1.102,0.478c-0.297,0.318-0.48,0.765-0.551,1.339h3.176v-0.082c-0.031-0.551-0.18-0.978-0.445-1.28
		C117.283,72.259,116.924,72.107,116.47,72.107 M98.525,77.791c-0.676,0-1.19-0.196-1.544-0.589
		c-0.354-0.393-0.532-0.974-0.536-1.743v-4.125h1.084v4.096c0,0.961,0.391,1.441,1.172,1.441c0.828,0,1.379-0.309,1.652-0.926
		v-4.611h1.084v6.34h-1.031l-0.023-0.627C99.961,77.543,99.342,77.791,98.525,77.791 M92.181,77.791
		c-0.859,0-1.556-0.299-2.089-0.896s-0.8-1.389-0.8-2.373v-0.076c0-0.621,0.122-1.18,0.366-1.676
		c0.244-0.496,0.584-0.879,1.02-1.148c0.435-0.27,0.933-0.404,1.491-0.404c0.863,0,1.562,0.299,2.095,0.896
		c0.533,0.598,0.8,1.393,0.8,2.385v0.076c0,0.617-0.118,1.171-0.354,1.661c-0.236,0.49-0.574,0.872-1.014,1.145
		C93.256,77.654,92.751,77.791,92.181,77.791 M92.169,72.107c-0.535,0-0.967,0.213-1.295,0.639
		c-0.328,0.426-0.492,1.035-0.492,1.828c0,0.703,0.163,1.268,0.489,1.693c0.326,0.426,0.763,0.639,1.31,0.639
		c0.551,0,0.988-0.216,1.312-0.647c0.324-0.432,0.486-1.036,0.486-1.813c0-0.695-0.165-1.259-0.495-1.69
		C93.155,72.323,92.716,72.107,92.169,72.107 M79.903,77.791c-0.863,0-1.55-0.288-2.06-0.864c-0.51-0.576-0.765-1.364-0.765-2.364
		v-0.182c0-0.617,0.113-1.166,0.34-1.646c0.227-0.48,0.552-0.853,0.976-1.119c0.424-0.266,0.925-0.398,1.503-0.398
		c0.711,0,1.302,0.213,1.772,0.639c0.471,0.426,0.722,0.979,0.753,1.658h-1.025c-0.031-0.41-0.187-0.747-0.466-1.011
		c-0.279-0.264-0.624-0.395-1.034-0.395c-0.551,0-0.978,0.198-1.28,0.595c-0.303,0.397-0.454,0.97-0.454,1.72v0.205
		c0,0.731,0.15,1.293,0.451,1.688c0.301,0.395,0.73,0.592,1.289,0.592c0.387,0,0.725-0.117,1.014-0.352
		c0.289-0.234,0.449-0.527,0.48-0.879h1.025c-0.02,0.363-0.145,0.709-0.375,1.037c-0.231,0.328-0.538,0.59-0.923,0.785
		C80.74,77.693,80.333,77.791,79.903,77.791 M60.079,77.791c-0.859,0-1.559-0.282-2.098-0.847c-0.539-0.564-0.809-1.319-0.809-2.265
		V74.48c0-0.629,0.12-1.19,0.36-1.685c0.24-0.494,0.576-0.881,1.008-1.16c0.432-0.279,0.899-0.419,1.403-0.419
		c0.824,0,1.465,0.272,1.922,0.814c0.457,0.543,0.686,1.32,0.686,2.332v0.451h-4.295c0.016,0.625,0.198,1.13,0.548,1.515
		c0.35,0.385,0.794,0.577,1.333,0.577c0.383,0,0.707-0.078,0.973-0.234c0.266-0.156,0.498-0.363,0.697-0.621l0.662,0.516
		C61.938,77.383,61.142,77.791,60.079,77.791 M59.944,72.107c-0.438,0-0.805,0.159-1.102,0.478c-0.297,0.318-0.48,0.765-0.551,1.339
		h3.176v-0.082c-0.031-0.551-0.18-0.978-0.445-1.28C60.757,72.259,60.397,72.107,59.944,72.107 M52.857,77.791
		c-0.734,0-1.333-0.301-1.796-0.902c-0.463-0.602-0.694-1.387-0.694-2.355v-0.082c0-0.973,0.23-1.755,0.691-2.347
		c0.461-0.592,1.064-0.888,1.811-0.888c0.742,0,1.33,0.254,1.764,0.762v-3.305h1.084v9H54.72l-0.053-0.68
		C54.234,77.525,53.63,77.791,52.857,77.791 M53.138,72.137c-0.531,0-0.945,0.205-1.242,0.615c-0.297,0.41-0.445,1.018-0.445,1.822
		c0,0.719,0.148,1.281,0.445,1.687c0.297,0.406,0.707,0.609,1.23,0.609c0.687,0,1.189-0.309,1.506-0.926v-2.912
		C54.308,72.436,53.81,72.137,53.138,72.137 M46.07,77.791c-0.625,0-1.138-0.177-1.538-0.53c-0.4-0.353-0.601-0.802-0.601-1.345
		c0-0.66,0.251-1.173,0.753-1.538c0.502-0.365,1.208-0.548,2.118-0.548h1.055v-0.498c0-0.379-0.113-0.681-0.34-0.905
		c-0.227-0.225-0.561-0.337-1.002-0.337c-0.387,0-0.711,0.098-0.973,0.293c-0.262,0.195-0.393,0.432-0.393,0.709h-1.09
		c0-0.316,0.112-0.622,0.337-0.917c0.225-0.295,0.529-0.528,0.914-0.7c0.385-0.172,0.808-0.258,1.269-0.258
		c0.73,0,1.303,0.183,1.717,0.548c0.414,0.365,0.629,0.868,0.645,1.509v2.918c0,0.582,0.074,1.045,0.223,1.389v0.094h-1.137
		c-0.063-0.125-0.113-0.348-0.152-0.668C47.37,77.529,46.769,77.791,46.07,77.791 M47.007,74.598c-1.328,0-1.992,0.389-1.992,1.166
		c0,0.34,0.113,0.605,0.34,0.797c0.226,0.191,0.518,0.287,0.873,0.287c0.34,0,0.662-0.088,0.967-0.264
		c0.305-0.176,0.525-0.404,0.662-0.686v-1.301H47.007 M40.297,77.791c-0.863,0-1.55-0.288-2.06-0.864
		c-0.51-0.576-0.765-1.364-0.765-2.364v-0.182c0-0.617,0.113-1.166,0.34-1.646c0.227-0.48,0.552-0.853,0.976-1.119
		c0.424-0.266,0.925-0.398,1.503-0.398c0.711,0,1.302,0.213,1.773,0.639c0.471,0.426,0.722,0.979,0.753,1.658h-1.025
		c-0.031-0.41-0.187-0.747-0.466-1.011c-0.279-0.264-0.624-0.395-1.034-0.395c-0.551,0-0.978,0.198-1.28,0.595
		c-0.303,0.397-0.454,0.97-0.454,1.72v0.205c0,0.731,0.15,1.293,0.451,1.688c0.301,0.395,0.73,0.592,1.289,0.592
		c0.387,0,0.725-0.117,1.014-0.352c0.289-0.234,0.449-0.527,0.48-0.879h1.025c-0.02,0.363-0.145,0.709-0.375,1.037
		c-0.231,0.328-0.538,0.59-0.923,0.785C41.134,77.693,40.727,77.791,40.297,77.791 M33.182,77.791c-0.625,0-1.138-0.177-1.538-0.53
		c-0.4-0.353-0.601-0.802-0.601-1.345c0-0.66,0.251-1.173,0.753-1.538c0.502-0.365,1.208-0.548,2.118-0.548h1.055v-0.498
		c0-0.379-0.113-0.681-0.34-0.905c-0.227-0.225-0.561-0.337-1.002-0.337c-0.387,0-0.711,0.098-0.973,0.293
		c-0.262,0.195-0.393,0.432-0.393,0.709h-1.09c0-0.316,0.112-0.622,0.337-0.917c0.225-0.295,0.529-0.528,0.914-0.7
		c0.385-0.172,0.808-0.258,1.269-0.258c0.73,0,1.303,0.183,1.717,0.548c0.414,0.365,0.629,0.868,0.644,1.509v2.918
		c0,0.582,0.074,1.045,0.223,1.389v0.094h-1.137c-0.063-0.125-0.113-0.348-0.152-0.668C34.483,77.529,33.881,77.791,33.182,77.791
		 M34.119,74.598c-1.328,0-1.992,0.389-1.992,1.166c0,0.34,0.113,0.605,0.34,0.797c0.226,0.191,0.518,0.287,0.873,0.287
		c0.34,0,0.662-0.088,0.967-0.264c0.305-0.176,0.525-0.404,0.662-0.686v-1.301H34.119 M16.892,77.791
		c-0.676,0-1.19-0.196-1.544-0.589c-0.354-0.393-0.532-0.974-0.536-1.743v-4.125h1.084v4.096c0,0.961,0.391,1.441,1.172,1.441
		c0.828,0,1.379-0.309,1.652-0.926v-4.611h1.084v6.34h-1.031l-0.023-0.627C18.328,77.543,17.708,77.791,16.892,77.791
		 M224.715,77.674h-1.084v-4.195c-0.004-0.457-0.108-0.795-0.314-1.014c-0.205-0.219-0.524-0.328-0.958-0.328
		c-0.352,0-0.66,0.094-0.926,0.281c-0.266,0.188-0.473,0.434-0.621,0.738v4.518h-1.084v-6.34h1.025l0.035,0.797
		c0.484-0.609,1.117-0.914,1.898-0.914c1.34,0,2.016,0.756,2.027,2.268V77.674 M210.105,77.674h-0.826l-2.297-6.34h1.107
		l1.611,4.869l1.57-4.869h1.107L210.105,77.674 M189.812,77.674h-1.084v-4.195c-0.004-0.457-0.108-0.795-0.314-1.014
		c-0.205-0.219-0.524-0.328-0.958-0.328c-0.352,0-0.66,0.094-0.926,0.281c-0.266,0.188-0.473,0.434-0.621,0.738v4.518h-1.084v-6.34
		h1.025l0.035,0.797c0.484-0.609,1.117-0.914,1.898-0.914c1.34,0,2.016,0.756,2.027,2.268V77.674 M183.067,77.674h-1.084v-6.34
		h1.084V77.674 M176.198,77.674h-1.084v-6.34h1.084V77.674 M167.802,77.674h-1.254l-1.465-2.373l-1.465,2.373h-1.26l2.139-3.205
		l-2.074-3.135h1.254l1.389,2.314l1.406-2.314h1.266l-2.074,3.135L167.802,77.674 M151.936,77.674h-1.084v-4.195
		c-0.004-0.457-0.108-0.795-0.314-1.014c-0.205-0.219-0.524-0.328-0.958-0.328c-0.352,0-0.66,0.094-0.926,0.281
		c-0.266,0.188-0.473,0.434-0.621,0.738v4.518h-1.084v-9h1.084v3.428c0.48-0.59,1.105-0.885,1.875-0.885
		c1.34,0,2.016,0.756,2.027,2.268V77.674 M141.211,77.674h-1.084v-6.34h1.084V77.674 M137.087,77.674h-0.879l-1.541-4.805
		l-1.5,4.805h-0.879l-1.84-6.34h1.078l1.248,4.746l1.477-4.746h0.873l1.506,4.846l1.219-4.846h1.084L137.087,77.674 M112.289,77.674
		h-1.084v-4.195c-0.004-0.457-0.108-0.795-0.314-1.014c-0.205-0.219-0.524-0.328-0.958-0.328c-0.352,0-0.66,0.094-0.926,0.281
		c-0.266,0.188-0.473,0.434-0.621,0.738v4.518h-1.084v-6.34h1.025l0.035,0.797c0.484-0.609,1.117-0.914,1.898-0.914
		c1.34,0,2.016,0.756,2.027,2.268V77.674 M104.23,77.674h-1.084v-6.34h1.055l0.018,0.732c0.355-0.566,0.859-0.85,1.512-0.85
		c0.211,0,0.371,0.027,0.48,0.082v1.008c-0.164-0.027-0.342-0.041-0.533-0.041c-0.711,0-1.193,0.303-1.447,0.908V77.674
		 M75.626,77.674h-1.084v-6.34h1.084V77.674 M72.818,77.674h-1.084V73.49c0-0.453-0.104-0.792-0.31-1.017
		c-0.207-0.225-0.555-0.337-1.043-0.337c-0.402,0-0.736,0.12-1.002,0.36c-0.266,0.24-0.42,0.564-0.463,0.97v4.207h-1.09V73.52
		c0-0.922-0.451-1.383-1.353-1.383c-0.711,0-1.197,0.303-1.459,0.908v4.629h-1.084v-6.34h1.025l0.029,0.703
		c0.465-0.547,1.092-0.82,1.881-0.82c0.887,0,1.49,0.34,1.811,1.02c0.211-0.305,0.485-0.551,0.823-0.738
		c0.338-0.188,0.737-0.281,1.198-0.281c1.391,0,2.098,0.736,2.121,2.209V77.674 M26.499,77.674h-1.084v-4.195
		c-0.004-0.457-0.108-0.795-0.313-1.014c-0.205-0.219-0.524-0.328-0.958-0.328c-0.352,0-0.66,0.094-0.926,0.281
		c-0.266,0.188-0.473,0.434-0.621,0.738v4.518h-1.084v-6.34h1.025l0.035,0.797c0.484-0.609,1.117-0.914,1.898-0.914
		c1.34,0,2.016,0.756,2.027,2.268V77.674 M12.279,77.674h-1.084v-5.502h-1.002v-0.838h1.002v-0.65c0-0.68,0.182-1.205,0.545-1.576
		c0.363-0.371,0.877-0.557,1.541-0.557c0.25,0,0.498,0.033,0.744,0.099l-0.059,0.874c-0.184-0.035-0.379-0.053-0.586-0.053
		c-0.352,0-0.623,0.103-0.814,0.309c-0.191,0.206-0.287,0.501-0.287,0.885v0.67h1.354v0.838h-1.354V77.674 M182.534,70.268
		c-0.211,0-0.37-0.059-0.478-0.176c-0.107-0.117-0.161-0.264-0.161-0.439c0-0.176,0.054-0.324,0.161-0.445
		c0.107-0.121,0.267-0.182,0.478-0.182c0.211,0,0.371,0.061,0.48,0.182c0.109,0.121,0.164,0.27,0.164,0.445
		c0,0.176-0.055,0.322-0.164,0.439C182.905,70.209,182.745,70.268,182.534,70.268 M175.665,70.268c-0.211,0-0.37-0.059-0.478-0.176
		c-0.107-0.117-0.161-0.264-0.161-0.439c0-0.176,0.054-0.324,0.161-0.445c0.107-0.121,0.267-0.182,0.478-0.182
		s0.371,0.061,0.48,0.182c0.109,0.121,0.164,0.27,0.164,0.445c0,0.176-0.055,0.322-0.164,0.439
		C176.036,70.209,175.876,70.268,175.665,70.268 M140.677,70.268c-0.211,0-0.37-0.059-0.478-0.176
		c-0.107-0.117-0.161-0.264-0.161-0.439c0-0.176,0.054-0.324,0.161-0.445c0.107-0.121,0.267-0.182,0.478-0.182
		s0.371,0.061,0.48,0.182c0.109,0.121,0.164,0.27,0.164,0.445c0,0.176-0.055,0.322-0.164,0.439
		C141.048,70.209,140.888,70.268,140.677,70.268 M87.289,70.268c-0.211,0-0.369-0.059-0.475-0.176
		c-0.105-0.117-0.158-0.264-0.158-0.439c0-0.172,0.054-0.319,0.161-0.442c0.107-0.123,0.265-0.185,0.472-0.185
		c0.211,0,0.371,0.061,0.48,0.182c0.109,0.121,0.164,0.27,0.164,0.445c0,0.176-0.055,0.322-0.164,0.439
		C87.66,70.209,87.5,70.268,87.289,70.268 M75.093,70.268c-0.211,0-0.37-0.059-0.478-0.176c-0.107-0.117-0.161-0.264-0.161-0.439
		c0-0.176,0.054-0.324,0.161-0.445c0.107-0.121,0.267-0.182,0.478-0.182c0.211,0,0.371,0.061,0.48,0.182
		c0.109,0.121,0.164,0.27,0.164,0.445c0,0.176-0.055,0.322-0.164,0.439C75.464,70.209,75.304,70.268,75.093,70.268"/>
	<path fill="#000000" d="M182.468,96.17c-0.457,0-0.904-0.098-1.342-0.293c-0.438-0.195-0.772-0.463-1.002-0.803l0.563-0.65
		c0.465,0.574,1.033,0.861,1.705,0.861c0.527,0,0.938-0.148,1.233-0.445c0.295-0.297,0.442-0.715,0.442-1.254v-0.545
		c-0.434,0.5-1.025,0.75-1.775,0.75c-0.742,0-1.343-0.299-1.802-0.896s-0.688-1.412-0.688-2.443c0-0.988,0.229-1.774,0.686-2.358
		c0.457-0.584,1.062-0.876,1.816-0.876c0.773,0,1.377,0.273,1.811,0.82l0.053-0.703h0.99v6.188c0,0.82-0.243,1.467-0.73,1.939
		C183.942,95.933,183.288,96.17,182.468,96.17 M182.573,88.137c-0.527,0-0.94,0.205-1.236,0.615
		c-0.297,0.41-0.445,1.018-0.445,1.822c0,0.715,0.146,1.276,0.439,1.685c0.293,0.408,0.703,0.612,1.23,0.612
		c0.684,0,1.185-0.311,1.506-0.932v-2.895C183.735,88.439,183.237,88.137,182.573,88.137 M144.462,96.17
		c-0.457,0-0.904-0.098-1.342-0.293c-0.438-0.195-0.772-0.463-1.002-0.803l0.562-0.65c0.465,0.574,1.033,0.861,1.705,0.861
		c0.527,0,0.938-0.148,1.233-0.445c0.295-0.297,0.442-0.715,0.442-1.254v-0.545c-0.434,0.5-1.025,0.75-1.775,0.75
		c-0.742,0-1.343-0.299-1.802-0.896c-0.459-0.598-0.688-1.412-0.688-2.443c0-0.988,0.229-1.774,0.686-2.358
		c0.457-0.584,1.062-0.876,1.816-0.876c0.773,0,1.377,0.273,1.811,0.82l0.053-0.703h0.99v6.188c0,0.82-0.243,1.467-0.73,1.939
		C145.935,95.933,145.282,96.17,144.462,96.17 M144.567,88.137c-0.527,0-0.939,0.205-1.236,0.615
		c-0.297,0.41-0.445,1.018-0.445,1.822c0,0.715,0.146,1.276,0.439,1.685c0.293,0.408,0.703,0.612,1.23,0.612
		c0.684,0,1.186-0.311,1.506-0.932v-2.895C145.729,88.439,145.231,88.137,144.567,88.137 M48.535,96.111h-1.084v-8.777h0.99
		l0.053,0.703c0.441-0.547,1.055-0.82,1.84-0.82c0.762,0,1.364,0.287,1.808,0.861c0.443,0.574,0.665,1.373,0.665,2.397v0.1
		c0,0.965-0.221,1.742-0.662,2.332c-0.441,0.59-1.039,0.885-1.793,0.885c-0.77,0-1.375-0.244-1.816-0.732V96.111 M50.012,88.137
		c-0.656,0-1.148,0.291-1.477,0.873v3.029c0.324,0.578,0.82,0.867,1.488,0.867c0.519,0,0.933-0.206,1.239-0.618
		c0.307-0.412,0.46-1.024,0.46-1.837c0-0.715-0.152-1.279-0.457-1.693C50.961,88.344,50.543,88.137,50.012,88.137 M41.725,96.111
		h-1.084v-8.777h0.99l0.053,0.703c0.441-0.547,1.055-0.82,1.84-0.82c0.762,0,1.364,0.287,1.808,0.861
		c0.443,0.574,0.665,1.373,0.665,2.397v0.1c0,0.965-0.221,1.742-0.662,2.332c-0.441,0.59-1.039,0.885-1.793,0.885
		c-0.77,0-1.375-0.244-1.816-0.732V96.111 M43.201,88.137c-0.656,0-1.148,0.291-1.477,0.873v3.029
		c0.324,0.578,0.82,0.867,1.488,0.867c0.52,0,0.933-0.206,1.239-0.618c0.307-0.412,0.46-1.024,0.46-1.837
		c0-0.715-0.152-1.279-0.457-1.693C44.151,88.344,43.733,88.137,43.201,88.137 M227.376,93.791c-0.859,0-1.559-0.282-2.098-0.847
		c-0.539-0.564-0.809-1.319-0.809-2.265V90.48c0-0.629,0.12-1.19,0.36-1.685c0.24-0.494,0.576-0.881,1.008-1.16
		c0.432-0.279,0.899-0.419,1.403-0.419c0.824,0,1.465,0.272,1.922,0.814c0.457,0.543,0.686,1.32,0.686,2.332v0.451h-4.295
		c0.016,0.625,0.198,1.13,0.548,1.515c0.35,0.385,0.794,0.577,1.333,0.577c0.383,0,0.707-0.078,0.973-0.234
		c0.266-0.156,0.498-0.363,0.697-0.621l0.662,0.516C229.235,93.383,228.438,93.791,227.376,93.791 M227.241,88.107
		c-0.438,0-0.805,0.159-1.102,0.478c-0.297,0.318-0.48,0.765-0.551,1.339h3.176v-0.082c-0.031-0.551-0.18-0.977-0.445-1.28
		C228.053,88.259,227.694,88.107,227.241,88.107 M216.037,93.791c-0.484,0-0.85-0.146-1.096-0.439
		c-0.246-0.293-0.369-0.709-0.369-1.248v-3.932h-1.154v-0.838h1.154v-1.535h1.084v1.535h1.184v0.838h-1.184v3.937
		c0,0.254,0.053,0.445,0.158,0.572c0.105,0.127,0.285,0.191,0.539,0.191c0.125,0,0.297-0.023,0.516-0.07v0.874
		C216.584,93.752,216.307,93.791,216.037,93.791 M209.026,93.791c-0.484,0-0.85-0.146-1.096-0.439
		c-0.246-0.293-0.369-0.709-0.369-1.248v-3.932h-1.154v-0.838h1.154v-1.535h1.084v1.535h1.184v0.838h-1.184v3.937
		c0,0.254,0.053,0.445,0.158,0.572c0.105,0.127,0.285,0.191,0.539,0.191c0.125,0,0.297-0.023,0.516-0.07v0.874
		C209.573,93.752,209.296,93.791,209.026,93.791 M202.46,93.791c-0.676,0-1.19-0.196-1.544-0.589
		c-0.354-0.393-0.532-0.974-0.536-1.743v-4.125h1.084v4.096c0,0.961,0.391,1.441,1.172,1.441c0.828,0,1.379-0.309,1.652-0.926
		v-4.611h1.084v6.34h-1.031l-0.023-0.627C203.896,93.543,203.277,93.791,202.46,93.791 M196.116,93.791
		c-0.859,0-1.556-0.299-2.089-0.896c-0.533-0.598-0.8-1.389-0.8-2.373v-0.076c0-0.621,0.122-1.18,0.366-1.676
		c0.244-0.496,0.584-0.879,1.02-1.148c0.435-0.27,0.933-0.404,1.491-0.404c0.863,0,1.562,0.299,2.095,0.896
		c0.533,0.598,0.8,1.393,0.8,2.385v0.076c0,0.617-0.118,1.171-0.354,1.661c-0.236,0.49-0.574,0.872-1.014,1.146
		C197.191,93.654,196.686,93.791,196.116,93.791 M196.104,88.107c-0.535,0-0.967,0.213-1.295,0.639s-0.492,1.035-0.492,1.828
		c0,0.703,0.163,1.268,0.489,1.693c0.326,0.426,0.763,0.639,1.31,0.639c0.551,0,0.988-0.216,1.312-0.647
		c0.324-0.432,0.486-1.036,0.486-1.813c0-0.695-0.165-1.259-0.495-1.69C197.089,88.323,196.651,88.107,196.104,88.107
		 M175.441,93.791c-0.676,0-1.19-0.196-1.544-0.589c-0.354-0.393-0.532-0.974-0.536-1.743v-4.125h1.084v4.096
		c0,0.961,0.391,1.441,1.172,1.441c0.828,0,1.379-0.309,1.652-0.926v-4.611h1.084v6.34h-1.031l-0.023-0.627
		C176.877,93.543,176.257,93.791,175.441,93.791 M169.097,93.791c-0.859,0-1.556-0.299-2.089-0.896
		c-0.533-0.598-0.8-1.389-0.8-2.373v-0.076c0-0.621,0.122-1.18,0.366-1.676c0.244-0.496,0.584-0.879,1.02-1.148
		c0.435-0.27,0.933-0.404,1.491-0.404c0.863,0,1.562,0.299,2.095,0.896c0.533,0.598,0.8,1.393,0.8,2.385v0.076
		c0,0.617-0.118,1.171-0.354,1.661c-0.236,0.49-0.574,0.872-1.014,1.146C170.172,93.654,169.667,93.791,169.097,93.791
		 M169.085,88.107c-0.535,0-0.967,0.213-1.295,0.639s-0.492,1.035-0.492,1.828c0,0.703,0.163,1.268,0.489,1.693
		c0.326,0.426,0.763,0.639,1.31,0.639c0.551,0,0.988-0.216,1.312-0.647c0.324-0.432,0.486-1.036,0.486-1.813
		c0-0.695-0.165-1.259-0.495-1.69C170.07,88.323,169.632,88.107,169.085,88.107 M153.728,93.791c-0.484,0-0.85-0.146-1.096-0.439
		c-0.246-0.293-0.369-0.709-0.369-1.248v-3.932h-1.154v-0.838h1.154v-1.535h1.084v1.535h1.184v0.838h-1.184v3.937
		c0,0.254,0.053,0.445,0.158,0.572c0.105,0.127,0.285,0.191,0.539,0.191c0.125,0,0.297-0.023,0.516-0.07v0.874
		C154.275,93.752,153.998,93.791,153.728,93.791 M114.533,93.791c-0.676,0-1.19-0.196-1.544-0.589
		c-0.354-0.393-0.532-0.974-0.536-1.743v-4.125h1.084v4.096c0,0.961,0.391,1.441,1.172,1.441c0.828,0,1.379-0.309,1.652-0.926
		v-4.611h1.084v6.34h-1.031l-0.023-0.627C115.969,93.543,115.35,93.791,114.533,93.791 M101.362,93.791
		c-0.508,0-0.957-0.09-1.348-0.27c-0.391-0.18-0.696-0.431-0.917-0.753c-0.221-0.322-0.331-0.671-0.331-1.046h1.084
		c0.019,0.363,0.165,0.651,0.436,0.864c0.271,0.213,0.63,0.319,1.075,0.319c0.41,0,0.739-0.083,0.987-0.249
		c0.248-0.166,0.372-0.388,0.372-0.665c0-0.293-0.11-0.52-0.331-0.683c-0.221-0.162-0.606-0.302-1.154-0.419
		c-0.549-0.117-0.984-0.258-1.307-0.422c-0.322-0.164-0.561-0.359-0.715-0.586c-0.154-0.227-0.231-0.496-0.231-0.809
		c0-0.519,0.22-0.959,0.659-1.318c0.439-0.359,1.001-0.539,1.685-0.539c0.719,0,1.302,0.186,1.749,0.557
		c0.447,0.371,0.671,0.846,0.671,1.424h-1.09c0-0.297-0.126-0.553-0.378-0.768c-0.252-0.215-0.569-0.322-0.952-0.322
		c-0.395,0-0.703,0.086-0.926,0.258c-0.223,0.172-0.334,0.397-0.334,0.674c0,0.262,0.104,0.459,0.311,0.592
		c0.207,0.133,0.581,0.26,1.122,0.381c0.541,0.121,0.979,0.266,1.315,0.434c0.336,0.168,0.585,0.37,0.747,0.606
		c0.162,0.236,0.243,0.524,0.243,0.864c0,0.566-0.227,1.021-0.68,1.362C102.672,93.62,102.085,93.791,101.362,93.791 M95.289,93.791
		c-0.859,0-1.559-0.282-2.098-0.847c-0.539-0.564-0.809-1.319-0.809-2.265V90.48c0-0.629,0.12-1.19,0.36-1.685
		c0.24-0.494,0.576-0.881,1.008-1.16c0.432-0.279,0.899-0.419,1.403-0.419c0.824,0,1.465,0.272,1.922,0.814
		c0.457,0.543,0.686,1.32,0.686,2.332v0.451h-4.295c0.016,0.625,0.198,1.13,0.548,1.515c0.35,0.385,0.794,0.577,1.333,0.577
		c0.383,0,0.707-0.078,0.973-0.234c0.266-0.156,0.498-0.363,0.697-0.621l0.662,0.516C97.148,93.383,96.351,93.791,95.289,93.791
		 M95.154,88.107c-0.438,0-0.805,0.159-1.102,0.478c-0.297,0.318-0.48,0.765-0.551,1.339h3.176v-0.082
		c-0.031-0.551-0.18-0.977-0.445-1.28C95.967,88.259,95.607,88.107,95.154,88.107 M87.758,93.791c-0.484,0-0.85-0.146-1.096-0.439
		c-0.246-0.293-0.369-0.709-0.369-1.248v-3.932h-1.154v-0.838h1.154v-1.535h1.084v1.535h1.184v0.838h-1.184v3.937
		c0,0.254,0.053,0.445,0.158,0.572c0.105,0.127,0.285,0.191,0.539,0.191c0.125,0,0.297-0.023,0.516-0.07v0.874
		C88.305,93.752,88.028,93.791,87.758,93.791 M71.647,93.791c-0.676,0-1.19-0.196-1.544-0.589c-0.354-0.393-0.532-0.974-0.536-1.743
		v-4.125h1.084v4.096c0,0.961,0.391,1.441,1.172,1.441c0.828,0,1.379-0.309,1.652-0.926v-4.611h1.084v6.34h-1.031l-0.023-0.627
		C73.082,93.543,72.463,93.791,71.647,93.791 M67.548,93.791c-0.484,0-0.85-0.146-1.096-0.439c-0.246-0.293-0.369-0.709-0.369-1.248
		v-3.932h-1.154v-0.838h1.154v-1.535h1.084v1.535h1.184v0.838h-1.184v3.937c0,0.254,0.053,0.445,0.158,0.572
		c0.105,0.127,0.285,0.191,0.539,0.191c0.125,0,0.297-0.023,0.516-0.07v0.874C68.095,93.752,67.818,93.791,67.548,93.791
		 M56.861,93.791c-0.859,0-1.556-0.299-2.089-0.896c-0.533-0.598-0.8-1.389-0.8-2.373v-0.076c0-0.621,0.122-1.18,0.366-1.676
		c0.244-0.496,0.584-0.879,1.02-1.148c0.435-0.27,0.933-0.404,1.491-0.404c0.863,0,1.562,0.299,2.095,0.896
		c0.533,0.598,0.8,1.393,0.8,2.385v0.076c0,0.617-0.118,1.171-0.354,1.661c-0.236,0.49-0.574,0.872-1.014,1.146
		C57.936,93.654,57.431,93.791,56.861,93.791 M56.849,88.107c-0.535,0-0.967,0.213-1.295,0.639
		c-0.328,0.426-0.492,1.035-0.492,1.828c0,0.703,0.163,1.268,0.489,1.693c0.326,0.426,0.763,0.639,1.31,0.639
		c0.551,0,0.988-0.216,1.312-0.647c0.324-0.432,0.486-1.036,0.486-1.813c0-0.695-0.165-1.259-0.495-1.69
		C57.835,88.323,57.396,88.107,56.849,88.107 M36.346,93.791c-0.859,0-1.556-0.299-2.089-0.896c-0.533-0.598-0.8-1.389-0.8-2.373
		v-0.076c0-0.621,0.122-1.18,0.366-1.676c0.244-0.496,0.584-0.879,1.02-1.148c0.436-0.27,0.933-0.404,1.491-0.404
		c0.863,0,1.561,0.299,2.095,0.896c0.533,0.598,0.8,1.393,0.8,2.385v0.076c0,0.617-0.118,1.171-0.354,1.661
		c-0.236,0.49-0.574,0.872-1.014,1.146C37.421,93.654,36.916,93.791,36.346,93.791 M36.334,88.107c-0.535,0-0.967,0.213-1.295,0.639
		c-0.328,0.426-0.492,1.035-0.492,1.828c0,0.703,0.163,1.268,0.489,1.693c0.326,0.426,0.763,0.639,1.31,0.639
		c0.551,0,0.988-0.216,1.312-0.647c0.324-0.432,0.486-1.036,0.486-1.813c0-0.695-0.165-1.259-0.495-1.69
		C37.32,88.323,36.881,88.107,36.334,88.107 M26.113,93.791c-0.734,0-1.333-0.301-1.796-0.902c-0.463-0.602-0.694-1.387-0.694-2.355
		v-0.082c0-0.973,0.23-1.755,0.691-2.347c0.461-0.592,1.064-0.888,1.811-0.888c0.742,0,1.33,0.254,1.764,0.762v-3.305h1.084v9
		h-0.996l-0.053-0.68C27.49,93.525,26.886,93.791,26.113,93.791 M26.394,88.137c-0.531,0-0.945,0.205-1.242,0.615
		c-0.297,0.41-0.445,1.018-0.445,1.822c0,0.719,0.148,1.281,0.445,1.687c0.297,0.406,0.707,0.609,1.23,0.609
		c0.687,0,1.189-0.309,1.506-0.926v-2.912C27.564,88.436,27.066,88.137,26.394,88.137 M12.619,93.791
		c-0.625,0-1.138-0.177-1.538-0.53c-0.401-0.353-0.601-0.802-0.601-1.345c0-0.66,0.251-1.173,0.753-1.538
		c0.502-0.365,1.208-0.548,2.118-0.548h1.055v-0.498c0-0.379-0.113-0.681-0.34-0.905c-0.227-0.225-0.561-0.337-1.002-0.337
		c-0.387,0-0.711,0.098-0.973,0.293c-0.262,0.195-0.393,0.432-0.393,0.709h-1.09c0-0.316,0.112-0.622,0.337-0.917
		c0.225-0.295,0.529-0.528,0.914-0.7c0.385-0.172,0.808-0.258,1.269-0.258c0.73,0,1.303,0.183,1.717,0.548
		c0.414,0.365,0.629,0.868,0.645,1.509v2.918c0,0.582,0.074,1.045,0.223,1.389v0.094h-1.137c-0.063-0.125-0.113-0.348-0.152-0.668
		C13.92,93.529,13.318,93.791,12.619,93.791 M13.557,90.598c-1.328,0-1.992,0.389-1.992,1.166c0,0.34,0.113,0.606,0.34,0.797
		c0.227,0.191,0.518,0.287,0.873,0.287c0.34,0,0.662-0.088,0.967-0.264s0.525-0.404,0.662-0.686v-1.301H13.557 M223.065,93.674
		h-1.084v-4.195c-0.004-0.457-0.108-0.795-0.313-1.014c-0.205-0.219-0.524-0.328-0.958-0.328c-0.352,0-0.66,0.094-0.926,0.281
		c-0.266,0.187-0.473,0.434-0.621,0.738v4.518h-1.084v-9h1.084v3.428c0.48-0.59,1.105-0.885,1.875-0.885
		c1.34,0,2.016,0.756,2.027,2.268V93.674 M191.848,93.674h-1.084v-4.195c-0.004-0.457-0.108-0.795-0.313-1.014
		c-0.205-0.219-0.524-0.328-0.958-0.328c-0.352,0-0.66,0.094-0.926,0.281c-0.266,0.187-0.473,0.434-0.621,0.738v4.518h-1.084v-9
		h1.084v3.428c0.48-0.59,1.105-0.885,1.875-0.885c1.34,0,2.016,0.756,2.027,2.268V93.674 M163.53,93.674h-1.084v-6.34h1.055
		l0.018,0.732c0.355-0.566,0.859-0.85,1.512-0.85c0.211,0,0.371,0.027,0.48,0.082v1.008c-0.164-0.027-0.342-0.041-0.533-0.041
		c-0.711,0-1.193,0.303-1.447,0.908V93.674 M160.756,93.674h-1.084v-4.195c-0.004-0.457-0.108-0.795-0.313-1.014
		c-0.205-0.219-0.524-0.328-0.958-0.328c-0.352,0-0.66,0.094-0.926,0.281c-0.266,0.187-0.473,0.434-0.621,0.738v4.518h-1.084v-9
		h1.084v3.428c0.48-0.59,1.105-0.885,1.875-0.885c1.34,0,2.016,0.756,2.027,2.268V93.674 M140.374,93.674h-1.084v-4.195
		c-0.004-0.457-0.108-0.795-0.314-1.014c-0.205-0.219-0.524-0.328-0.958-0.328c-0.352,0-0.66,0.094-0.926,0.281
		c-0.266,0.187-0.473,0.434-0.621,0.738v4.518h-1.084v-6.34h1.025l0.035,0.797c0.484-0.609,1.117-0.914,1.898-0.914
		c1.34,0,2.016,0.756,2.027,2.268V93.674 M133.629,93.674h-1.084v-6.34h1.084V93.674 M130.823,93.674h-1.084v-4.195
		c-0.004-0.457-0.108-0.795-0.313-1.014c-0.205-0.219-0.524-0.328-0.958-0.328c-0.352,0-0.66,0.094-0.926,0.281
		c-0.266,0.187-0.473,0.434-0.621,0.738v4.518h-1.084v-6.34h1.025l0.035,0.797c0.484-0.609,1.117-0.914,1.898-0.914
		c1.34,0,2.016,0.756,2.027,2.268V93.674 M124.141,93.674h-1.084v-4.195c-0.004-0.457-0.108-0.795-0.313-1.014
		c-0.205-0.219-0.524-0.328-0.958-0.328c-0.352,0-0.66,0.094-0.926,0.281c-0.266,0.187-0.473,0.434-0.621,0.738v4.518h-1.084v-6.34
		h1.025l0.035,0.797c0.484-0.609,1.117-0.914,1.898-0.914c1.34,0,2.016,0.756,2.027,2.268V93.674 M109.392,93.674h-1.084v-6.34
		h1.055l0.018,0.732c0.355-0.566,0.859-0.85,1.512-0.85c0.211,0,0.371,0.027,0.48,0.082v1.008c-0.164-0.027-0.342-0.041-0.533-0.041
		c-0.711,0-1.193,0.303-1.447,0.908V93.674 M90.93,93.674h-1.084v-6.34h1.084V93.674 M84.06,93.674h-1.084v-6.34h1.084V93.674
		 M81.254,93.674H80.17v-4.195c-0.004-0.457-0.108-0.795-0.313-1.014c-0.205-0.219-0.524-0.328-0.958-0.328
		c-0.352,0-0.66,0.094-0.926,0.281c-0.266,0.187-0.473,0.434-0.621,0.738v4.518h-1.084v-6.34h1.025l0.035,0.797
		c0.484-0.609,1.117-0.914,1.898-0.914c1.34,0,2.016,0.756,2.027,2.268V93.674 M62.24,93.674h-1.084v-6.34h1.055l0.018,0.732
		c0.355-0.566,0.859-0.85,1.512-0.85c0.211,0,0.371,0.027,0.48,0.082v1.008c-0.164-0.027-0.342-0.041-0.533-0.041
		c-0.711,0-1.193,0.303-1.447,0.908V93.674 M22.207,93.674h-1.084v-4.195c-0.004-0.457-0.108-0.795-0.314-1.014
		c-0.205-0.219-0.524-0.328-0.958-0.328c-0.352,0-0.66,0.094-0.926,0.281c-0.266,0.187-0.473,0.434-0.621,0.738v4.518h-1.084v-6.34
		h1.025l0.035,0.797c0.484-0.609,1.117-0.914,1.898-0.914c1.34,0,2.016,0.756,2.027,2.268V93.674 M133.096,86.268
		c-0.211,0-0.37-0.059-0.478-0.176c-0.107-0.117-0.161-0.264-0.161-0.439s0.054-0.324,0.161-0.445
		c0.107-0.121,0.267-0.182,0.478-0.182c0.211,0,0.371,0.061,0.48,0.182c0.109,0.121,0.164,0.27,0.164,0.445
		s-0.055,0.322-0.164,0.439C133.467,86.209,133.307,86.268,133.096,86.268 M90.397,86.268c-0.211,0-0.37-0.059-0.478-0.176
		c-0.107-0.117-0.161-0.264-0.161-0.439s0.054-0.324,0.161-0.445c0.107-0.121,0.267-0.182,0.478-0.182
		c0.211,0,0.371,0.061,0.48,0.182c0.109,0.121,0.164,0.27,0.164,0.445s-0.055,0.322-0.164,0.439
		C90.768,86.209,90.607,86.268,90.397,86.268 M83.527,86.268c-0.211,0-0.37-0.059-0.478-0.176c-0.108-0.117-0.161-0.264-0.161-0.439
		s0.054-0.324,0.161-0.445c0.107-0.121,0.267-0.182,0.478-0.182c0.211,0,0.371,0.061,0.48,0.182c0.109,0.121,0.164,0.27,0.164,0.445
		s-0.055,0.322-0.164,0.439C83.898,86.209,83.738,86.268,83.527,86.268"/>
	<path fill="#000000" d="M10.943,112.234l-0.205-0.018l-0.404-0.076v-0.879l0.293,0.023c0.367,0,0.653-0.074,0.858-0.223
		c0.205-0.148,0.374-0.42,0.507-0.814l0.24-0.645l-2.262-6.27h1.184l1.582,4.752l1.477-4.752h1.16l-2.549,7.318
		C12.43,111.707,11.803,112.234,10.943,112.234 M24.525,109.791c-0.625,0-1.138-0.177-1.538-0.53
		c-0.4-0.353-0.601-0.802-0.601-1.345c0-0.66,0.251-1.173,0.753-1.538c0.502-0.365,1.208-0.548,2.118-0.548h1.055v-0.498
		c0-0.379-0.113-0.681-0.34-0.905c-0.227-0.225-0.561-0.337-1.002-0.337c-0.387,0-0.711,0.098-0.973,0.293
		c-0.262,0.195-0.393,0.432-0.393,0.709h-1.09c0-0.316,0.112-0.622,0.337-0.917c0.225-0.295,0.529-0.528,0.914-0.7
		c0.385-0.172,0.808-0.258,1.269-0.258c0.73,0,1.303,0.183,1.717,0.548c0.414,0.365,0.629,0.868,0.644,1.509v2.918
		c0,0.582,0.074,1.045,0.223,1.389v0.094h-1.137c-0.063-0.125-0.113-0.348-0.152-0.668
		C25.825,109.529,25.224,109.791,24.525,109.791 M25.462,106.598c-1.328,0-1.992,0.389-1.992,1.166c0,0.34,0.113,0.606,0.34,0.797
		c0.226,0.191,0.518,0.287,0.873,0.287c0.34,0,0.662-0.088,0.967-0.264c0.305-0.176,0.525-0.404,0.662-0.686v-1.301H25.462
		 M18.84,109.791c-0.859,0-1.559-0.282-2.098-0.847c-0.539-0.564-0.809-1.319-0.809-2.265v-0.199c0-0.629,0.12-1.19,0.36-1.685
		c0.24-0.494,0.576-0.881,1.008-1.16c0.432-0.279,0.899-0.419,1.403-0.419c0.824,0,1.465,0.272,1.922,0.814
		c0.457,0.543,0.686,1.32,0.686,2.332v0.451h-4.295c0.016,0.625,0.198,1.13,0.548,1.515c0.35,0.385,0.794,0.577,1.333,0.577
		c0.383,0,0.707-0.078,0.973-0.234c0.266-0.156,0.498-0.363,0.697-0.621l0.662,0.516C20.699,109.383,19.902,109.791,18.84,109.791
		 M18.705,104.107c-0.438,0-0.805,0.159-1.102,0.478c-0.297,0.318-0.48,0.765-0.551,1.339h3.176v-0.082
		c-0.031-0.551-0.18-0.977-0.445-1.28C19.518,104.259,19.158,104.107,18.705,104.107 M33.222,109.738
		c-0.223,0-0.39-0.061-0.501-0.182c-0.111-0.121-0.167-0.271-0.167-0.451c0-0.188,0.056-0.344,0.167-0.469
		c0.111-0.125,0.278-0.188,0.501-0.188c0.223,0,0.392,0.063,0.507,0.188c0.115,0.125,0.173,0.281,0.173,0.469
		c0,0.18-0.058,0.33-0.173,0.451C33.613,109.678,33.444,109.738,33.222,109.738 M30.21,109.674h-1.084v-6.34h1.055l0.018,0.732
		c0.355-0.566,0.859-0.85,1.512-0.85c0.211,0,0.371,0.027,0.48,0.082v1.008c-0.164-0.027-0.342-0.041-0.533-0.041
		c-0.711,0-1.193,0.303-1.447,0.908V109.674"/>
</g>
</svg>
