<!-- Generator: Adobe InDesign 20.3 SVG Export Plug-in, SVG Library version: 9.3 build 254 -->
<!DOCTYPE svg PUBLIC "-//W3C//DTD SVG 1.1//EN" "http://www.w3.org/Graphics/SVG/1.1/DTD/svg11.dtd">
<svg version="1.1" xmlns="http://www.w3.org/2000/svg" xmlns:xlink="http://www.w3.org/1999/xlink" x="0%" y="0%" width="100%"
	 height="100%" viewBox="0 0 522.975 73.726" preserveAspectRatio="xMidYMid slice" overflow="visible" xml:space="preserve">
<clipPath id="clp_unq_id_1" fill="none">
	<path shape-rendering="crispEdges" stroke="#000000" d="M0,0h522.975v73.726H0V0"/>
</clipPath>
<g clip-path="url(#clp_unq_id_1)" fill="none">
	<path fill="#000000" d="M461.604,18.773l-0.239-0.021l-0.472-0.089v-1.025l0.342,0.027c0.428,0,0.762-0.087,1.002-0.26
		c0.239-0.173,0.436-0.49,0.591-0.95l0.28-0.752l-2.639-7.314h1.381l1.846,5.544l1.723-5.544h1.354l-2.974,8.538
		C463.338,18.158,462.607,18.773,461.604,18.773 M143.438,18.773l-0.239-0.021l-0.472-0.089v-1.025l0.342,0.027
		c0.428,0,0.762-0.087,1.001-0.26c0.239-0.173,0.436-0.49,0.591-0.95l0.28-0.752l-2.639-7.314h1.381l1.846,5.544l1.723-5.544h1.353
		l-2.974,8.538C145.172,18.158,144.44,18.773,143.438,18.773 M97.935,18.773l-0.239-0.021l-0.472-0.089v-1.025l0.342,0.027
		c0.428,0,0.762-0.087,1.002-0.26c0.239-0.173,0.436-0.49,0.591-0.95l0.28-0.752L96.8,8.39h1.381l1.846,5.544l1.723-5.544h1.354
		l-2.974,8.538C99.669,18.158,98.937,18.773,97.935,18.773 M284.16,18.698c-0.533,0-1.055-0.114-1.565-0.342
		c-0.51-0.228-0.9-0.54-1.169-0.937l0.656-0.759c0.542,0.67,1.205,1.005,1.989,1.005c0.615,0,1.095-0.173,1.439-0.519
		c0.344-0.346,0.516-0.834,0.516-1.463v-0.636c-0.506,0.583-1.196,0.875-2.071,0.875c-0.866,0-1.567-0.349-2.102-1.046
		s-0.803-1.648-0.803-2.851c0-1.153,0.267-2.07,0.8-2.751c0.533-0.681,1.24-1.022,2.119-1.022c0.902,0,1.606,0.319,2.112,0.957
		l0.062-0.82h1.155v7.219c0,0.957-0.284,1.711-0.851,2.263C285.88,18.422,285.117,18.698,284.16,18.698 M284.283,9.326
		c-0.615,0-1.096,0.239-1.443,0.718c-0.346,0.479-0.52,1.187-0.52,2.126c0,0.834,0.171,1.489,0.513,1.965
		c0.342,0.476,0.82,0.714,1.436,0.714c0.797,0,1.383-0.362,1.757-1.087v-3.377C285.639,9.679,285.058,9.326,284.283,9.326
		 M397.032,18.63h-1.265V8.39h1.155l0.062,0.82c0.515-0.638,1.231-0.957,2.146-0.957c0.889,0,1.592,0.335,2.109,1.005
		s0.776,1.602,0.776,2.796v0.116c0,1.126-0.258,2.033-0.772,2.721c-0.515,0.688-1.212,1.032-2.092,1.032
		c-0.898,0-1.604-0.285-2.119-0.854V18.63 M398.755,9.326c-0.766,0-1.34,0.339-1.723,1.019v3.534
		c0.378,0.675,0.957,1.012,1.736,1.012c0.606,0,1.088-0.24,1.446-0.721c0.358-0.481,0.537-1.195,0.537-2.143
		c0-0.834-0.178-1.492-0.533-1.975C399.862,9.568,399.374,9.326,398.755,9.326 M389.098,18.63h-1.265V8.39h1.155l0.062,0.82
		c0.515-0.638,1.23-0.957,2.146-0.957c0.889,0,1.592,0.335,2.109,1.005c0.517,0.67,0.776,1.602,0.776,2.796v0.116
		c0,1.126-0.258,2.033-0.772,2.721c-0.515,0.688-1.212,1.032-2.092,1.032c-0.898,0-1.604-0.285-2.119-0.854V18.63 M390.82,9.326
		c-0.766,0-1.34,0.339-1.723,1.019v3.534c0.378,0.675,0.957,1.012,1.736,1.012c0.606,0,1.088-0.24,1.446-0.721
		c0.358-0.481,0.537-1.195,0.537-2.143c0-0.834-0.178-1.492-0.533-1.975S391.44,9.326,390.82,9.326 M91.212,17.769l-0.718-0.492
		c0.428-0.597,0.652-1.212,0.67-1.846v-1.142h1.237v0.991c0,0.46-0.113,0.921-0.338,1.381
		C91.837,17.121,91.554,17.491,91.212,17.769 M502.507,15.923c-1.003,0-1.818-0.329-2.447-0.988
		c-0.629-0.659-0.943-1.539-0.943-2.642v-0.232c0-0.734,0.14-1.389,0.42-1.965c0.28-0.576,0.672-1.028,1.176-1.353
		c0.503-0.326,1.049-0.489,1.637-0.489c0.961,0,1.709,0.317,2.242,0.95c0.533,0.634,0.8,1.54,0.8,2.721v0.526h-5.011
		c0.018,0.729,0.231,1.318,0.639,1.767c0.408,0.449,0.926,0.673,1.555,0.673c0.447,0,0.825-0.091,1.135-0.273
		c0.31-0.182,0.581-0.424,0.814-0.725l0.772,0.602C504.676,15.447,503.746,15.923,502.507,15.923 M502.349,9.292
		c-0.51,0-0.939,0.186-1.285,0.557c-0.346,0.372-0.561,0.892-0.643,1.562h3.705v-0.096c-0.037-0.643-0.21-1.14-0.52-1.494
		C503.297,9.469,502.878,9.292,502.349,9.292 M489.383,15.923c-0.729,0-1.327-0.206-1.794-0.619
		c-0.467-0.412-0.701-0.935-0.701-1.569c0-0.77,0.293-1.368,0.878-1.794c0.586-0.426,1.409-0.639,2.471-0.639h1.23v-0.581
		c0-0.442-0.132-0.794-0.396-1.056c-0.264-0.262-0.654-0.393-1.169-0.393c-0.451,0-0.83,0.114-1.135,0.342
		c-0.305,0.228-0.458,0.504-0.458,0.827h-1.271c0-0.369,0.131-0.726,0.393-1.07c0.262-0.344,0.617-0.616,1.066-0.817
		c0.449-0.201,0.942-0.301,1.48-0.301c0.852,0,1.52,0.213,2.003,0.639c0.483,0.426,0.734,1.013,0.752,1.76v3.404
		c0,0.679,0.087,1.219,0.26,1.62v0.109h-1.326c-0.073-0.146-0.132-0.406-0.178-0.779C490.901,15.618,490.199,15.923,489.383,15.923
		 M490.477,12.197c-1.549,0-2.324,0.454-2.324,1.36c0,0.397,0.132,0.706,0.396,0.93c0.264,0.223,0.604,0.335,1.019,0.335
		c0.396,0,0.772-0.103,1.128-0.308c0.355-0.205,0.613-0.472,0.772-0.8v-1.518H490.477 M478.176,15.923
		c-0.789,0-1.389-0.229-1.801-0.687c-0.413-0.458-0.621-1.136-0.626-2.034V8.39h1.265v4.778c0,1.121,0.456,1.682,1.367,1.682
		c0.966,0,1.609-0.36,1.928-1.08V8.39h1.265v7.396h-1.203l-0.027-0.731C479.851,15.633,479.128,15.923,478.176,15.923
		 M470.785,15.923c-1.003,0-1.815-0.349-2.437-1.046c-0.622-0.697-0.933-1.62-0.933-2.769V12.02c0-0.725,0.142-1.376,0.427-1.955
		c0.285-0.579,0.681-1.025,1.189-1.34c0.508-0.314,1.088-0.472,1.74-0.472c1.007,0,1.822,0.349,2.444,1.046
		c0.622,0.697,0.933,1.625,0.933,2.782v0.089c0,0.72-0.138,1.366-0.413,1.938c-0.276,0.572-0.67,1.017-1.183,1.336
		C472.04,15.763,471.451,15.923,470.785,15.923 M470.772,9.292c-0.624,0-1.128,0.248-1.511,0.745
		c-0.383,0.497-0.574,1.208-0.574,2.133c0,0.82,0.19,1.479,0.571,1.976c0.38,0.497,0.89,0.745,1.528,0.745
		c0.643,0,1.153-0.252,1.531-0.755c0.378-0.504,0.567-1.209,0.567-2.116c0-0.811-0.193-1.469-0.578-1.972
		C471.921,9.544,471.41,9.292,470.772,9.292 M453.322,15.923c-1.003,0-1.818-0.329-2.447-0.988
		c-0.629-0.659-0.943-1.539-0.943-2.642v-0.232c0-0.734,0.14-1.389,0.421-1.965c0.28-0.576,0.672-1.028,1.176-1.353
		c0.504-0.326,1.049-0.489,1.637-0.489c0.961,0,1.709,0.317,2.242,0.95c0.533,0.634,0.8,1.54,0.8,2.721v0.526h-5.011
		c0.018,0.729,0.231,1.318,0.639,1.767c0.408,0.449,0.926,0.673,1.555,0.673c0.447,0,0.825-0.091,1.135-0.273
		c0.31-0.182,0.581-0.424,0.814-0.725l0.772,0.602C455.492,15.447,454.562,15.923,453.322,15.923 M453.165,9.292
		c-0.51,0-0.939,0.186-1.285,0.557c-0.346,0.372-0.56,0.892-0.643,1.562h3.705v-0.096c-0.037-0.643-0.21-1.14-0.52-1.494
		C454.113,9.469,453.694,9.292,453.165,9.292 M419.183,15.923c-0.565,0-0.991-0.171-1.278-0.513
		c-0.287-0.342-0.431-0.827-0.431-1.456V9.367h-1.347V8.39h1.347V6.599h1.265V8.39h1.381v0.977h-1.381v4.593
		c0,0.297,0.062,0.519,0.185,0.667c0.123,0.148,0.333,0.222,0.629,0.222c0.146,0,0.346-0.027,0.602-0.082v1.019
		C419.821,15.878,419.497,15.923,419.183,15.923 M406.735,15.923c-1.003,0-1.815-0.349-2.437-1.046
		c-0.622-0.697-0.933-1.62-0.933-2.769V12.02c0-0.725,0.142-1.376,0.427-1.955c0.285-0.579,0.681-1.025,1.189-1.34
		c0.508-0.314,1.088-0.472,1.74-0.472c1.007,0,1.822,0.349,2.444,1.046c0.622,0.697,0.933,1.625,0.933,2.782v0.089
		c0,0.72-0.138,1.366-0.414,1.938c-0.276,0.572-0.67,1.017-1.183,1.336C407.99,15.763,407.401,15.923,406.735,15.923 M406.722,9.292
		c-0.624,0-1.128,0.248-1.511,0.745c-0.383,0.497-0.574,1.208-0.574,2.133c0,0.82,0.19,1.479,0.571,1.976
		c0.38,0.497,0.89,0.745,1.528,0.745c0.643,0,1.153-0.252,1.531-0.755c0.378-0.504,0.567-1.209,0.567-2.116
		c0-0.811-0.192-1.469-0.578-1.972C407.871,9.544,407.36,9.292,406.722,9.292 M382.452,15.923c-0.789,0-1.389-0.229-1.801-0.687
		c-0.412-0.458-0.621-1.136-0.625-2.034V8.39h1.265v4.778c0,1.121,0.456,1.682,1.367,1.682c0.966,0,1.609-0.36,1.928-1.08V8.39
		h1.265v7.396h-1.203l-0.027-0.731C384.126,15.633,383.404,15.923,382.452,15.923 M375.543,15.923c-0.592,0-1.117-0.105-1.572-0.314
		c-0.456-0.21-0.812-0.502-1.07-0.878c-0.258-0.376-0.386-0.783-0.386-1.22h1.265c0.023,0.424,0.192,0.76,0.509,1.008
		c0.317,0.248,0.735,0.373,1.254,0.373c0.479,0,0.862-0.097,1.152-0.291c0.289-0.194,0.434-0.452,0.434-0.776
		c0-0.342-0.129-0.607-0.386-0.796c-0.258-0.189-0.706-0.352-1.347-0.489c-0.64-0.137-1.148-0.301-1.524-0.492
		s-0.654-0.419-0.834-0.684c-0.18-0.264-0.27-0.579-0.27-0.943c0-0.606,0.256-1.119,0.769-1.538
		c0.513-0.419,1.168-0.629,1.965-0.629c0.838,0,1.519,0.217,2.041,0.65c0.522,0.433,0.783,0.987,0.783,1.661h-1.271
		c0-0.346-0.147-0.645-0.441-0.896c-0.294-0.251-0.664-0.376-1.111-0.376c-0.46,0-0.82,0.1-1.08,0.301
		c-0.26,0.201-0.39,0.463-0.39,0.786c0,0.305,0.121,0.536,0.362,0.69c0.242,0.155,0.678,0.303,1.309,0.444
		c0.631,0.141,1.143,0.31,1.535,0.506c0.392,0.196,0.682,0.432,0.872,0.707c0.189,0.276,0.284,0.612,0.284,1.008
		c0,0.661-0.264,1.191-0.793,1.589C377.072,15.724,376.386,15.923,375.543,15.923 M360.526,15.923c-0.729,0-1.327-0.206-1.794-0.619
		c-0.467-0.412-0.701-0.935-0.701-1.569c0-0.77,0.293-1.368,0.879-1.794c0.585-0.426,1.409-0.639,2.471-0.639h1.231v-0.581
		c0-0.442-0.132-0.794-0.397-1.056c-0.264-0.262-0.654-0.393-1.169-0.393c-0.451,0-0.83,0.114-1.135,0.342
		c-0.305,0.228-0.458,0.504-0.458,0.827h-1.272c0-0.369,0.131-0.726,0.393-1.07c0.262-0.344,0.618-0.616,1.066-0.817
		c0.449-0.201,0.942-0.301,1.48-0.301c0.852,0,1.52,0.213,2.003,0.639c0.483,0.426,0.734,1.013,0.752,1.76v3.404
		c0,0.679,0.087,1.219,0.26,1.62v0.109h-1.326c-0.073-0.146-0.132-0.406-0.178-0.779C362.044,15.618,361.342,15.923,360.526,15.923
		 M361.62,12.197c-1.55,0-2.324,0.454-2.324,1.36c0,0.397,0.132,0.706,0.396,0.93c0.264,0.223,0.604,0.335,1.019,0.335
		c0.396,0,0.772-0.103,1.128-0.308c0.355-0.205,0.613-0.472,0.773-0.8v-1.518H361.62 M350.498,15.923
		c-1.007,0-1.808-0.336-2.403-1.008c-0.595-0.672-0.892-1.592-0.892-2.758v-0.212c0-0.72,0.132-1.36,0.396-1.921
		c0.264-0.561,0.644-0.996,1.138-1.306c0.494-0.31,1.079-0.465,1.753-0.465c0.829,0,1.519,0.248,2.068,0.745
		c0.549,0.497,0.842,1.142,0.878,1.934h-1.196c-0.037-0.479-0.218-0.872-0.543-1.179c-0.326-0.308-0.728-0.461-1.206-0.461
		c-0.643,0-1.141,0.231-1.494,0.694c-0.353,0.463-0.53,1.131-0.53,2.006v0.239c0,0.852,0.175,1.508,0.526,1.969
		c0.351,0.46,0.852,0.69,1.504,0.69c0.451,0,0.845-0.137,1.183-0.41c0.337-0.273,0.524-0.615,0.56-1.025h1.196
		c-0.023,0.424-0.169,0.827-0.438,1.21c-0.269,0.383-0.628,0.688-1.077,0.916C351.475,15.809,351,15.923,350.498,15.923
		 M334.396,15.923c-0.729,0-1.327-0.206-1.794-0.619c-0.467-0.412-0.701-0.935-0.701-1.569c0-0.77,0.293-1.368,0.878-1.794
		c0.585-0.426,1.409-0.639,2.471-0.639h1.231v-0.581c0-0.442-0.132-0.794-0.397-1.056c-0.264-0.262-0.654-0.393-1.169-0.393
		c-0.451,0-0.83,0.114-1.135,0.342c-0.305,0.228-0.458,0.504-0.458,0.827h-1.272c0-0.369,0.131-0.726,0.393-1.07
		c0.262-0.344,0.618-0.616,1.066-0.817c0.449-0.201,0.942-0.301,1.48-0.301c0.852,0,1.52,0.213,2.003,0.639
		c0.483,0.426,0.734,1.013,0.752,1.76v3.404c0,0.679,0.087,1.219,0.26,1.62v0.109h-1.326c-0.073-0.146-0.132-0.406-0.178-0.779
		C335.914,15.618,335.212,15.923,334.396,15.923 M335.49,12.197c-1.549,0-2.324,0.454-2.324,1.36c0,0.397,0.132,0.706,0.396,0.93
		c0.264,0.223,0.604,0.335,1.019,0.335c0.396,0,0.772-0.103,1.128-0.308c0.355-0.205,0.613-0.472,0.773-0.8v-1.518H335.49
		 M303.337,15.923c-1.003,0-1.815-0.349-2.437-1.046c-0.622-0.697-0.933-1.62-0.933-2.769V12.02c0-0.725,0.142-1.376,0.427-1.955
		c0.285-0.579,0.681-1.025,1.19-1.34c0.508-0.314,1.088-0.472,1.74-0.472c1.007,0,1.822,0.349,2.444,1.046
		c0.622,0.697,0.933,1.625,0.933,2.782v0.089c0,0.72-0.138,1.366-0.414,1.938c-0.276,0.572-0.67,1.017-1.183,1.336
		C304.592,15.763,304.003,15.923,303.337,15.923 M303.324,9.292c-0.624,0-1.128,0.248-1.511,0.745
		c-0.383,0.497-0.574,1.208-0.574,2.133c0,0.82,0.19,1.479,0.571,1.976c0.38,0.497,0.89,0.745,1.528,0.745
		c0.643,0,1.153-0.252,1.531-0.755c0.378-0.504,0.567-1.209,0.567-2.116c0-0.811-0.193-1.469-0.578-1.972
		C304.473,9.544,303.962,9.292,303.324,9.292 M292.349,15.923c-1.003,0-1.818-0.329-2.447-0.988
		c-0.629-0.659-0.943-1.539-0.943-2.642v-0.232c0-0.734,0.14-1.389,0.42-1.965c0.28-0.576,0.672-1.028,1.176-1.353
		c0.503-0.326,1.049-0.489,1.637-0.489c0.961,0,1.709,0.317,2.242,0.95c0.533,0.634,0.8,1.54,0.8,2.721v0.526h-5.011
		c0.018,0.729,0.231,1.318,0.639,1.767c0.408,0.449,0.926,0.673,1.555,0.673c0.447,0,0.825-0.091,1.135-0.273
		c0.31-0.182,0.581-0.424,0.814-0.725l0.772,0.602C294.518,15.447,293.588,15.923,292.349,15.923 M292.192,9.292
		c-0.51,0-0.939,0.186-1.285,0.557c-0.346,0.372-0.561,0.892-0.643,1.562h3.705v-0.096c-0.037-0.643-0.21-1.14-0.52-1.494
		C293.139,9.469,292.72,9.292,292.192,9.292 M268.23,15.923c-0.729,0-1.327-0.206-1.794-0.619c-0.467-0.412-0.701-0.935-0.701-1.569
		c0-0.77,0.293-1.368,0.878-1.794s1.409-0.639,2.471-0.639h1.23v-0.581c0-0.442-0.132-0.794-0.396-1.056
		c-0.264-0.262-0.654-0.393-1.169-0.393c-0.451,0-0.83,0.114-1.135,0.342c-0.305,0.228-0.458,0.504-0.458,0.827h-1.271
		c0-0.369,0.131-0.726,0.393-1.07c0.262-0.344,0.617-0.616,1.066-0.817c0.449-0.201,0.942-0.301,1.48-0.301
		c0.852,0,1.52,0.213,2.003,0.639c0.483,0.426,0.734,1.013,0.752,1.76v3.404c0,0.679,0.087,1.219,0.26,1.62v0.109h-1.326
		c-0.073-0.146-0.132-0.406-0.178-0.779C269.747,15.618,269.045,15.923,268.23,15.923 M269.323,12.197
		c-1.549,0-2.324,0.454-2.324,1.36c0,0.397,0.132,0.706,0.396,0.93c0.264,0.223,0.604,0.335,1.019,0.335
		c0.396,0,0.772-0.103,1.128-0.308c0.355-0.205,0.613-0.472,0.772-0.8v-1.518H269.323 M252.213,15.923
		c-0.729,0-1.327-0.206-1.794-0.619c-0.467-0.412-0.701-0.935-0.701-1.569c0-0.77,0.293-1.368,0.878-1.794
		c0.585-0.426,1.409-0.639,2.471-0.639h1.231v-0.581c0-0.442-0.132-0.794-0.397-1.056c-0.264-0.262-0.654-0.393-1.169-0.393
		c-0.451,0-0.83,0.114-1.135,0.342c-0.305,0.228-0.458,0.504-0.458,0.827h-1.271c0-0.369,0.131-0.726,0.393-1.07
		c0.262-0.344,0.618-0.616,1.066-0.817c0.449-0.201,0.942-0.301,1.48-0.301c0.852,0,1.52,0.213,2.003,0.639
		c0.483,0.426,0.734,1.013,0.752,1.76v3.404c0,0.679,0.087,1.219,0.26,1.62v0.109h-1.326c-0.073-0.146-0.132-0.406-0.178-0.779
		C253.73,15.618,253.028,15.923,252.213,15.923 M253.306,12.197c-1.549,0-2.324,0.454-2.324,1.36c0,0.397,0.132,0.706,0.396,0.93
		c0.264,0.223,0.604,0.335,1.019,0.335c0.396,0,0.772-0.103,1.128-0.308c0.355-0.205,0.613-0.472,0.773-0.8v-1.518H253.306
		 M241.374,15.923c-1.003,0-1.815-0.349-2.437-1.046c-0.622-0.697-0.933-1.62-0.933-2.769V12.02c0-0.725,0.142-1.376,0.427-1.955
		c0.285-0.579,0.681-1.025,1.189-1.34c0.508-0.314,1.088-0.472,1.74-0.472c1.007,0,1.822,0.349,2.444,1.046s0.933,1.625,0.933,2.782
		v0.089c0,0.72-0.138,1.366-0.414,1.938c-0.276,0.572-0.67,1.017-1.183,1.336C242.629,15.763,242.04,15.923,241.374,15.923
		 M241.361,9.292c-0.624,0-1.128,0.248-1.511,0.745c-0.383,0.497-0.574,1.208-0.574,2.133c0,0.82,0.19,1.479,0.571,1.976
		c0.38,0.497,0.89,0.745,1.528,0.745c0.643,0,1.153-0.252,1.531-0.755c0.378-0.504,0.567-1.209,0.567-2.116
		c0-0.811-0.193-1.469-0.578-1.972C242.51,9.544,241.999,9.292,241.361,9.292 M236.129,15.923c-0.565,0-0.991-0.171-1.278-0.513
		c-0.287-0.342-0.431-0.827-0.431-1.456V9.367h-1.347V8.39h1.347V6.599h1.265V8.39h1.381v0.977h-1.381v4.593
		c0,0.297,0.062,0.519,0.185,0.667c0.123,0.148,0.333,0.222,0.629,0.222c0.146,0,0.346-0.027,0.601-0.082v1.019
		C236.767,15.878,236.444,15.923,236.129,15.923 M225.865,15.923c-0.593,0-1.117-0.105-1.572-0.314
		c-0.456-0.21-0.812-0.502-1.07-0.878c-0.258-0.376-0.386-0.783-0.386-1.22h1.265c0.023,0.424,0.193,0.76,0.509,1.008
		c0.317,0.248,0.735,0.373,1.254,0.373c0.479,0,0.862-0.097,1.152-0.291c0.289-0.194,0.434-0.452,0.434-0.776
		c0-0.342-0.129-0.607-0.386-0.796c-0.258-0.189-0.706-0.352-1.347-0.489c-0.64-0.137-1.148-0.301-1.524-0.492
		c-0.376-0.191-0.654-0.419-0.834-0.684c-0.18-0.264-0.27-0.579-0.27-0.943c0-0.606,0.256-1.119,0.769-1.538
		c0.513-0.419,1.168-0.629,1.965-0.629c0.839,0,1.519,0.217,2.041,0.65s0.783,0.987,0.783,1.661h-1.272
		c0-0.346-0.147-0.645-0.441-0.896c-0.294-0.251-0.664-0.376-1.111-0.376c-0.46,0-0.82,0.1-1.08,0.301
		c-0.26,0.201-0.39,0.463-0.39,0.786c0,0.305,0.121,0.536,0.362,0.69c0.241,0.155,0.678,0.303,1.309,0.444
		c0.631,0.141,1.143,0.31,1.535,0.506c0.392,0.196,0.682,0.432,0.872,0.707c0.189,0.276,0.284,0.612,0.284,1.008
		c0,0.661-0.264,1.191-0.793,1.589C227.394,15.724,226.708,15.923,225.865,15.923 M218.632,15.923c-0.593,0-1.117-0.105-1.572-0.314
		c-0.456-0.21-0.812-0.502-1.07-0.878c-0.258-0.376-0.386-0.783-0.386-1.22h1.265c0.023,0.424,0.193,0.76,0.509,1.008
		c0.317,0.248,0.735,0.373,1.254,0.373c0.479,0,0.862-0.097,1.152-0.291c0.289-0.194,0.434-0.452,0.434-0.776
		c0-0.342-0.129-0.607-0.386-0.796c-0.258-0.189-0.706-0.352-1.347-0.489c-0.64-0.137-1.148-0.301-1.524-0.492
		c-0.376-0.191-0.654-0.419-0.834-0.684c-0.18-0.264-0.27-0.579-0.27-0.943c0-0.606,0.256-1.119,0.769-1.538
		c0.513-0.419,1.168-0.629,1.965-0.629c0.839,0,1.519,0.217,2.041,0.65s0.783,0.987,0.783,1.661h-1.271
		c0-0.346-0.147-0.645-0.441-0.896c-0.294-0.251-0.664-0.376-1.111-0.376c-0.46,0-0.82,0.1-1.08,0.301
		c-0.26,0.201-0.39,0.463-0.39,0.786c0,0.305,0.121,0.536,0.362,0.69c0.241,0.155,0.678,0.303,1.309,0.444
		c0.631,0.141,1.143,0.31,1.535,0.506c0.392,0.196,0.682,0.432,0.872,0.707c0.189,0.276,0.284,0.612,0.284,1.008
		c0,0.661-0.264,1.191-0.793,1.589C220.161,15.724,219.475,15.923,218.632,15.923 M211.558,15.923c-1.003,0-1.818-0.329-2.447-0.988
		c-0.629-0.659-0.943-1.539-0.943-2.642v-0.232c0-0.734,0.14-1.389,0.421-1.965c0.28-0.576,0.672-1.028,1.176-1.353
		c0.504-0.326,1.049-0.489,1.637-0.489c0.961,0,1.709,0.317,2.242,0.95c0.533,0.634,0.8,1.54,0.8,2.721v0.526h-5.011
		c0.018,0.729,0.231,1.318,0.639,1.767c0.408,0.449,0.926,0.673,1.555,0.673c0.447,0,0.825-0.091,1.135-0.273
		s0.581-0.424,0.814-0.725l0.772,0.602C213.728,15.447,212.798,15.923,211.558,15.923 M211.401,9.292
		c-0.51,0-0.939,0.186-1.285,0.557c-0.346,0.372-0.56,0.892-0.643,1.562h3.705v-0.096c-0.037-0.643-0.21-1.14-0.52-1.494
		C212.349,9.469,211.93,9.292,211.401,9.292 M204.027,15.923c-1.007,0-1.808-0.336-2.403-1.008
		c-0.595-0.672-0.892-1.592-0.892-2.758v-0.212c0-0.72,0.132-1.36,0.396-1.921c0.264-0.561,0.644-0.996,1.138-1.306
		c0.494-0.31,1.079-0.465,1.753-0.465c0.829,0,1.519,0.248,2.068,0.745c0.549,0.497,0.842,1.142,0.878,1.934h-1.196
		c-0.037-0.479-0.218-0.872-0.543-1.179c-0.326-0.308-0.728-0.461-1.206-0.461c-0.643,0-1.141,0.231-1.494,0.694
		c-0.353,0.463-0.53,1.131-0.53,2.006v0.239c0,0.852,0.175,1.508,0.526,1.969c0.351,0.46,0.852,0.69,1.504,0.69
		c0.451,0,0.845-0.137,1.183-0.41c0.337-0.273,0.524-0.615,0.56-1.025h1.196c-0.023,0.424-0.169,0.827-0.438,1.21
		c-0.269,0.383-0.628,0.688-1.077,0.916C205.003,15.809,204.528,15.923,204.027,15.923 M196.584,15.923
		c-1.007,0-1.808-0.336-2.403-1.008c-0.595-0.672-0.892-1.592-0.892-2.758v-0.212c0-0.72,0.132-1.36,0.397-1.921
		c0.264-0.561,0.644-0.996,1.138-1.306c0.494-0.31,1.079-0.465,1.753-0.465c0.829,0,1.519,0.248,2.068,0.745
		c0.549,0.497,0.842,1.142,0.878,1.934h-1.196c-0.037-0.479-0.218-0.872-0.543-1.179c-0.326-0.308-0.728-0.461-1.207-0.461
		c-0.643,0-1.14,0.231-1.494,0.694c-0.353,0.463-0.53,1.131-0.53,2.006v0.239c0,0.852,0.175,1.508,0.526,1.969
		c0.351,0.46,0.852,0.69,1.504,0.69c0.451,0,0.845-0.137,1.183-0.41c0.337-0.273,0.524-0.615,0.56-1.025h1.196
		c-0.023,0.424-0.169,0.827-0.438,1.21c-0.269,0.383-0.628,0.688-1.077,0.916C197.56,15.809,197.085,15.923,196.584,15.923
		 M188.294,15.923c-0.729,0-1.327-0.206-1.794-0.619c-0.467-0.412-0.701-0.935-0.701-1.569c0-0.77,0.293-1.368,0.878-1.794
		c0.586-0.426,1.409-0.639,2.471-0.639h1.23v-0.581c0-0.442-0.132-0.794-0.396-1.056c-0.264-0.262-0.654-0.393-1.169-0.393
		c-0.451,0-0.83,0.114-1.135,0.342c-0.305,0.228-0.458,0.504-0.458,0.827h-1.272c0-0.369,0.131-0.726,0.393-1.07
		c0.262-0.344,0.617-0.616,1.066-0.817c0.449-0.201,0.942-0.301,1.48-0.301c0.852,0,1.52,0.213,2.003,0.639
		c0.483,0.426,0.734,1.013,0.752,1.76v3.404c0,0.679,0.087,1.219,0.26,1.62v0.109h-1.326c-0.073-0.146-0.132-0.406-0.178-0.779
		C189.811,15.618,189.109,15.923,188.294,15.923 M189.387,12.197c-1.549,0-2.324,0.454-2.324,1.36c0,0.397,0.132,0.706,0.397,0.93
		c0.264,0.223,0.604,0.335,1.019,0.335c0.396,0,0.772-0.103,1.128-0.308c0.355-0.205,0.613-0.472,0.772-0.8v-1.518H189.387
		 M178.057,15.923c-1.003,0-1.818-0.329-2.447-0.988c-0.629-0.659-0.943-1.539-0.943-2.642v-0.232c0-0.734,0.14-1.389,0.42-1.965
		c0.28-0.576,0.672-1.028,1.176-1.353c0.504-0.326,1.049-0.489,1.637-0.489c0.962,0,1.709,0.317,2.242,0.95
		c0.533,0.634,0.8,1.54,0.8,2.721v0.526h-5.011c0.018,0.729,0.231,1.318,0.639,1.767c0.408,0.449,0.926,0.673,1.555,0.673
		c0.447,0,0.825-0.091,1.135-0.273c0.31-0.182,0.581-0.424,0.814-0.725l0.772,0.602C180.226,15.447,179.296,15.923,178.057,15.923
		 M177.9,9.292c-0.51,0-0.939,0.186-1.285,0.557c-0.346,0.372-0.56,0.892-0.643,1.562h3.705v-0.096
		c-0.037-0.643-0.21-1.14-0.52-1.494C178.847,9.469,178.428,9.292,177.9,9.292 M163.31,15.923c-0.729,0-1.327-0.206-1.795-0.619
		c-0.467-0.412-0.701-0.935-0.701-1.569c0-0.77,0.293-1.368,0.878-1.794c0.585-0.426,1.409-0.639,2.471-0.639h1.231v-0.581
		c0-0.442-0.132-0.794-0.397-1.056c-0.264-0.262-0.654-0.393-1.169-0.393c-0.451,0-0.83,0.114-1.135,0.342
		c-0.305,0.228-0.458,0.504-0.458,0.827h-1.272c0-0.369,0.131-0.726,0.393-1.07c0.262-0.344,0.618-0.616,1.066-0.817
		c0.449-0.201,0.942-0.301,1.48-0.301c0.852,0,1.52,0.213,2.003,0.639c0.483,0.426,0.734,1.013,0.752,1.76v3.404
		c0,0.679,0.087,1.219,0.26,1.62v0.109h-1.326c-0.073-0.146-0.132-0.406-0.178-0.779C164.827,15.618,164.125,15.923,163.31,15.923
		 M164.403,12.197c-1.55,0-2.324,0.454-2.324,1.36c0,0.397,0.132,0.706,0.396,0.93c0.264,0.223,0.604,0.335,1.019,0.335
		c0.397,0,0.773-0.103,1.128-0.308c0.355-0.205,0.613-0.472,0.772-0.8v-1.518H164.403 M137.955,15.923
		c-0.729,0-1.327-0.206-1.794-0.619c-0.467-0.412-0.701-0.935-0.701-1.569c0-0.77,0.293-1.368,0.878-1.794
		c0.585-0.426,1.409-0.639,2.471-0.639h1.231v-0.581c0-0.442-0.132-0.794-0.397-1.056c-0.264-0.262-0.654-0.393-1.169-0.393
		c-0.451,0-0.83,0.114-1.135,0.342c-0.305,0.228-0.458,0.504-0.458,0.827h-1.272c0-0.369,0.131-0.726,0.393-1.07
		c0.262-0.344,0.618-0.616,1.066-0.817c0.449-0.201,0.942-0.301,1.48-0.301c0.852,0,1.52,0.213,2.003,0.639
		c0.483,0.426,0.734,1.013,0.752,1.76v3.404c0,0.679,0.087,1.219,0.26,1.62v0.109h-1.326c-0.073-0.146-0.132-0.406-0.178-0.779
		C139.473,15.618,138.771,15.923,137.955,15.923 M139.049,12.197c-1.55,0-2.324,0.454-2.324,1.36c0,0.397,0.132,0.706,0.396,0.93
		c0.264,0.223,0.604,0.335,1.019,0.335c0.396,0,0.772-0.103,1.128-0.308c0.355-0.205,0.613-0.472,0.773-0.8v-1.518H139.049
		 M114.507,15.923c-0.789,0-1.389-0.229-1.801-0.687c-0.413-0.458-0.621-1.136-0.625-2.034V8.39h1.265v4.778
		c0,1.121,0.456,1.682,1.367,1.682c0.966,0,1.609-0.36,1.928-1.08V8.39h1.265v7.396h-1.203l-0.027-0.731
		C116.181,15.633,115.459,15.923,114.507,15.923 M107.116,15.923c-1.003,0-1.815-0.349-2.437-1.046
		c-0.622-0.697-0.933-1.62-0.933-2.769V12.02c0-0.725,0.142-1.376,0.427-1.955c0.285-0.579,0.681-1.025,1.189-1.34
		c0.508-0.314,1.088-0.472,1.74-0.472c1.007,0,1.822,0.349,2.444,1.046c0.622,0.697,0.933,1.625,0.933,2.782v0.089
		c0,0.72-0.138,1.366-0.414,1.938c-0.276,0.572-0.67,1.017-1.183,1.336C108.37,15.763,107.781,15.923,107.116,15.923 M107.102,9.292
		c-0.624,0-1.128,0.248-1.511,0.745c-0.383,0.497-0.574,1.208-0.574,2.133c0,0.82,0.19,1.479,0.571,1.976
		c0.38,0.497,0.89,0.745,1.528,0.745c0.643,0,1.153-0.252,1.531-0.755c0.378-0.504,0.567-1.209,0.567-2.116
		c0-0.811-0.193-1.469-0.578-1.972C108.252,9.544,107.74,9.292,107.102,9.292 M88.662,15.923c-0.565,0-0.991-0.171-1.278-0.513
		c-0.287-0.342-0.431-0.827-0.431-1.456V9.367h-1.347V8.39h1.347V6.599h1.265V8.39h1.381v0.977h-1.381v4.593
		c0,0.297,0.062,0.519,0.185,0.667c0.123,0.148,0.333,0.222,0.629,0.222c0.146,0,0.346-0.027,0.602-0.082v1.019
		C89.3,15.878,88.976,15.923,88.662,15.923 M74.213,15.923c-1.003,0-1.818-0.329-2.447-0.988c-0.629-0.659-0.943-1.539-0.943-2.642
		v-0.232c0-0.734,0.14-1.389,0.42-1.965c0.28-0.576,0.672-1.028,1.176-1.353c0.504-0.326,1.049-0.489,1.637-0.489
		c0.961,0,1.709,0.317,2.242,0.95c0.533,0.634,0.8,1.54,0.8,2.721v0.526h-5.011c0.018,0.729,0.231,1.318,0.639,1.767
		c0.408,0.449,0.926,0.673,1.555,0.673c0.447,0,0.825-0.091,1.135-0.273s0.581-0.424,0.814-0.725l0.772,0.602
		C76.382,15.447,75.452,15.923,74.213,15.923 M74.055,9.292c-0.51,0-0.939,0.186-1.285,0.557c-0.346,0.372-0.561,0.892-0.643,1.562
		h3.705v-0.096c-0.037-0.643-0.21-1.14-0.52-1.494C75.003,9.469,74.584,9.292,74.055,9.292 M65.798,15.923
		c-0.857,0-1.555-0.351-2.095-1.053c-0.54-0.702-0.81-1.618-0.81-2.748v-0.096c0-1.135,0.269-2.047,0.807-2.738
		c0.538-0.69,1.242-1.036,2.112-1.036c0.866,0,1.552,0.296,2.058,0.889V5.286h1.265v10.5h-1.162l-0.062-0.793
		C67.404,15.613,66.7,15.923,65.798,15.923 M66.126,9.326c-0.62,0-1.103,0.239-1.449,0.718c-0.346,0.479-0.52,1.187-0.52,2.126
		c0,0.839,0.173,1.495,0.52,1.969c0.346,0.474,0.825,0.711,1.436,0.711c0.802,0,1.388-0.36,1.757-1.08v-3.397
		C67.491,9.675,66.91,9.326,66.126,9.326 M57.823,15.923c-0.788,0-1.389-0.229-1.801-0.687c-0.413-0.458-0.621-1.136-0.626-2.034
		V8.39h1.265v4.778c0,1.121,0.456,1.682,1.367,1.682c0.966,0,1.609-0.36,1.928-1.08V8.39h1.265v7.396h-1.203l-0.027-0.731
		C59.498,15.633,58.775,15.923,57.823,15.923 M53.052,15.923c-0.565,0-0.991-0.171-1.278-0.513
		c-0.287-0.342-0.431-0.827-0.431-1.456V9.367h-1.347V8.39h1.347V6.599h1.265V8.39h1.381v0.977h-1.381v4.593
		c0,0.297,0.062,0.519,0.185,0.667c0.123,0.148,0.333,0.222,0.629,0.222c0.146,0,0.346-0.027,0.602-0.082v1.019
		C53.69,15.878,53.367,15.923,53.052,15.923 M46.225,15.923c-0.592,0-1.117-0.105-1.572-0.314c-0.456-0.21-0.812-0.502-1.07-0.878
		c-0.258-0.376-0.386-0.783-0.386-1.22h1.265c0.023,0.424,0.192,0.76,0.509,1.008c0.317,0.248,0.735,0.373,1.254,0.373
		c0.479,0,0.862-0.097,1.152-0.291c0.289-0.194,0.434-0.452,0.434-0.776c0-0.342-0.129-0.607-0.386-0.796
		c-0.258-0.189-0.706-0.352-1.347-0.489c-0.64-0.137-1.148-0.301-1.524-0.492c-0.376-0.191-0.654-0.419-0.834-0.684
		c-0.18-0.264-0.27-0.579-0.27-0.943c0-0.606,0.256-1.119,0.769-1.538c0.513-0.419,1.168-0.629,1.965-0.629
		c0.838,0,1.519,0.217,2.041,0.65c0.522,0.433,0.783,0.987,0.783,1.661h-1.272c0-0.346-0.147-0.645-0.441-0.896
		c-0.294-0.251-0.664-0.376-1.111-0.376c-0.46,0-0.82,0.1-1.08,0.301c-0.26,0.201-0.39,0.463-0.39,0.786
		c0,0.305,0.121,0.536,0.362,0.69c0.242,0.155,0.678,0.303,1.309,0.444c0.631,0.141,1.143,0.31,1.535,0.506
		c0.392,0.196,0.682,0.432,0.872,0.707c0.189,0.276,0.284,0.612,0.284,1.008c0,0.661-0.264,1.191-0.793,1.589
		C47.754,15.724,47.068,15.923,46.225,15.923 M34.566,15.923c-0.729,0-1.327-0.206-1.794-0.619
		c-0.467-0.412-0.701-0.935-0.701-1.569c0-0.77,0.293-1.368,0.878-1.794c0.586-0.426,1.409-0.639,2.471-0.639h1.23v-0.581
		c0-0.442-0.132-0.794-0.396-1.056c-0.264-0.262-0.654-0.393-1.169-0.393c-0.451,0-0.83,0.114-1.135,0.342
		c-0.305,0.228-0.458,0.504-0.458,0.827h-1.271c0-0.369,0.131-0.726,0.393-1.07c0.262-0.344,0.617-0.616,1.066-0.817
		c0.449-0.201,0.942-0.301,1.48-0.301c0.852,0,1.52,0.213,2.003,0.639c0.483,0.426,0.734,1.013,0.752,1.76v3.404
		c0,0.679,0.087,1.219,0.26,1.62v0.109h-1.326c-0.073-0.146-0.132-0.406-0.178-0.779C36.084,15.618,35.382,15.923,34.566,15.923
		 M35.66,12.197c-1.549,0-2.324,0.454-2.324,1.36c0,0.397,0.132,0.706,0.397,0.93c0.264,0.223,0.604,0.335,1.019,0.335
		c0.396,0,0.772-0.103,1.128-0.308c0.355-0.205,0.613-0.472,0.772-0.8v-1.518H35.66 M24.179,15.923
		c-0.593,0-1.117-0.105-1.572-0.314c-0.456-0.21-0.812-0.502-1.07-0.878c-0.258-0.376-0.386-0.783-0.386-1.22h1.265
		c0.023,0.424,0.192,0.76,0.509,1.008c0.317,0.248,0.735,0.373,1.254,0.373c0.479,0,0.862-0.097,1.152-0.291
		c0.289-0.194,0.434-0.452,0.434-0.776c0-0.342-0.129-0.607-0.386-0.796c-0.258-0.189-0.706-0.352-1.347-0.489
		c-0.64-0.137-1.148-0.301-1.524-0.492c-0.376-0.191-0.654-0.419-0.834-0.684c-0.18-0.264-0.27-0.579-0.27-0.943
		c0-0.606,0.256-1.119,0.769-1.538c0.513-0.419,1.168-0.629,1.965-0.629c0.838,0,1.519,0.217,2.04,0.65
		c0.522,0.433,0.783,0.987,0.783,1.661H25.69c0-0.346-0.147-0.645-0.441-0.896c-0.294-0.251-0.664-0.376-1.111-0.376
		c-0.46,0-0.82,0.1-1.08,0.301c-0.26,0.201-0.39,0.463-0.39,0.786c0,0.305,0.121,0.536,0.362,0.69
		c0.241,0.155,0.678,0.303,1.309,0.444c0.631,0.141,1.143,0.31,1.535,0.506c0.392,0.196,0.682,0.432,0.872,0.707
		c0.189,0.276,0.284,0.612,0.284,1.008c0,0.661-0.264,1.191-0.793,1.589S25.022,15.923,24.179,15.923 M496.004,15.786h-1.265V8.39
		h1.23l0.021,0.854c0.415-0.661,1.003-0.991,1.764-0.991c0.246,0,0.433,0.032,0.561,0.096v1.176
		c-0.191-0.032-0.399-0.048-0.622-0.048c-0.83,0-1.392,0.353-1.689,1.06V15.786 M448.203,15.786h-1.265v-10.5h1.265V15.786
		 M444.839,15.786h-1.265V8.39h1.265V15.786 M441.584,15.786h-1.265v-4.894c-0.005-0.533-0.126-0.927-0.366-1.183
		c-0.239-0.255-0.612-0.383-1.118-0.383c-0.41,0-0.77,0.109-1.08,0.328c-0.31,0.219-0.552,0.506-0.725,0.861v5.271h-1.265v-10.5
		h1.265v3.999c0.56-0.688,1.29-1.032,2.187-1.032c1.563,0,2.352,0.882,2.365,2.646V15.786 M432.284,15.786h-1.025l-1.798-5.605
		l-1.75,5.605h-1.025l-2.146-7.396h1.258l1.456,5.537l1.723-5.537h1.019l1.757,5.653l1.422-5.653h1.265L432.284,15.786 M413,15.786
		h-1.265V8.39h1.23l0.021,0.854c0.415-0.661,1.002-0.991,1.764-0.991c0.246,0,0.433,0.032,0.561,0.096v1.176
		c-0.191-0.032-0.399-0.048-0.622-0.048c-0.83,0-1.392,0.353-1.689,1.06V15.786 M367.193,15.786h-1.265v-10.5h1.265V15.786
		 M356.294,15.786h-1.265V8.39h1.265V15.786 M345.57,15.786h-1.265v-4.894c-0.005-0.533-0.126-0.927-0.366-1.183
		c-0.239-0.255-0.612-0.383-1.118-0.383c-0.41,0-0.77,0.109-1.08,0.328c-0.31,0.219-0.551,0.506-0.725,0.861v5.271h-1.265V8.39
		h1.196l0.041,0.93c0.565-0.711,1.303-1.066,2.215-1.066c1.563,0,2.352,0.882,2.365,2.646V15.786 M330.237,15.786h-1.265v-4.894
		c-0.005-0.533-0.126-0.927-0.366-1.183c-0.239-0.255-0.612-0.383-1.118-0.383c-0.41,0-0.77,0.109-1.08,0.328
		c-0.31,0.219-0.551,0.506-0.725,0.861v5.271h-1.265V8.39h1.196l0.041,0.93c0.565-0.711,1.303-1.066,2.215-1.066
		c1.563,0,2.352,0.882,2.365,2.646V15.786 M322.274,15.786h-1.272V8.39h1.272V15.786 M318.275,15.786h-1.272V9.367h-1.169V8.39
		h1.169V7.761c0-0.825,0.236-1.467,0.708-1.928s1.138-0.69,1.999-0.69c0.51,0,1.155,0.139,1.935,0.417l-0.212,1.066
		c-0.57-0.228-1.112-0.342-1.627-0.342c-0.542,0-0.933,0.122-1.172,0.366c-0.239,0.244-0.359,0.61-0.359,1.097V8.39h1.511v0.977
		h-1.511V15.786 M310,15.786h-1.265V9.367h-1.169V8.39h1.169V7.631c0-0.793,0.212-1.406,0.636-1.839
		c0.424-0.433,1.023-0.649,1.798-0.649c0.292,0,0.581,0.038,0.868,0.115l-0.068,1.019c-0.214-0.041-0.442-0.061-0.684-0.061
		c-0.41,0-0.727,0.12-0.95,0.36C310.111,6.816,310,7.16,310,7.608V8.39h1.579v0.977H310V15.786 M279.403,15.786h-1.265v-4.894
		c-0.005-0.533-0.126-0.927-0.366-1.183c-0.239-0.255-0.612-0.383-1.118-0.383c-0.41,0-0.77,0.109-1.08,0.328
		c-0.31,0.219-0.551,0.506-0.725,0.861v5.271h-1.265V8.39h1.196l0.041,0.93c0.565-0.711,1.303-1.066,2.215-1.066
		c1.563,0,2.352,0.882,2.365,2.646V15.786 M262.415,15.786h-1.265V8.39h1.231l0.02,0.854c0.415-0.661,1.003-0.991,1.764-0.991
		c0.246,0,0.433,0.032,0.561,0.096v1.176c-0.191-0.032-0.399-0.048-0.622-0.048c-0.83,0-1.392,0.353-1.689,1.06V15.786
		 M171.334,15.786h-0.964l-2.68-7.396h1.292l1.88,5.681l1.832-5.681h1.292L171.334,15.786 M159.157,15.786h-1.265v-4.894
		c-0.005-0.533-0.126-0.927-0.366-1.183c-0.239-0.255-0.612-0.383-1.118-0.383c-0.41,0-0.77,0.109-1.08,0.328
		c-0.31,0.219-0.552,0.506-0.725,0.861v5.271h-1.265v-10.5h1.265v3.999c0.561-0.688,1.29-1.032,2.187-1.032
		c1.563,0,2.352,0.882,2.365,2.646V15.786 M133.794,15.786h-1.265v-4.881c0-0.529-0.121-0.924-0.362-1.186
		c-0.242-0.262-0.647-0.393-1.217-0.393c-0.469,0-0.859,0.14-1.169,0.42c-0.31,0.28-0.49,0.657-0.54,1.131v4.908h-1.272v-4.847
		c0-1.075-0.526-1.613-1.579-1.613c-0.83,0-1.397,0.353-1.702,1.06v5.4h-1.265V8.39h1.196l0.034,0.82
		c0.542-0.638,1.274-0.957,2.194-0.957c1.035,0,1.739,0.397,2.112,1.19c0.246-0.356,0.566-0.643,0.96-0.861
		c0.394-0.219,0.86-0.328,1.398-0.328c1.622,0,2.447,0.859,2.475,2.577V15.786 M84.511,15.786h-1.265v-4.894
		c-0.005-0.533-0.126-0.927-0.366-1.183c-0.239-0.255-0.612-0.383-1.118-0.383c-0.41,0-0.77,0.109-1.08,0.328
		s-0.551,0.506-0.725,0.861v5.271h-1.265V8.39h1.196l0.041,0.93c0.565-0.711,1.303-1.066,2.215-1.066
		c1.563,0,2.352,0.882,2.365,2.646V15.786 M20.264,15.786h-1.347l-0.95-2.604h-4.17l-0.936,2.604h-1.354l3.801-9.953h1.148
		L20.264,15.786 M15.882,7.453l-1.688,4.655h3.384L15.882,7.453 M444.217,7.146c-0.246,0-0.432-0.068-0.557-0.205
		c-0.125-0.137-0.188-0.308-0.188-0.513c0-0.205,0.063-0.378,0.188-0.519c0.125-0.141,0.311-0.212,0.557-0.212
		c0.246,0,0.433,0.071,0.56,0.212c0.128,0.141,0.191,0.314,0.191,0.519c0,0.205-0.064,0.376-0.191,0.513
		C444.65,7.077,444.463,7.146,444.217,7.146 M355.672,7.146c-0.246,0-0.432-0.068-0.557-0.205c-0.125-0.137-0.188-0.308-0.188-0.513
		c0-0.205,0.063-0.378,0.188-0.519c0.125-0.141,0.311-0.212,0.557-0.212c0.246,0,0.433,0.071,0.56,0.212
		c0.128,0.141,0.191,0.314,0.191,0.519c0,0.205-0.064,0.376-0.191,0.513C356.105,7.077,355.918,7.146,355.672,7.146"/>
	<path fill="#000000" d="M423.824,38.773l-0.239-0.021l-0.472-0.089v-1.025l0.342,0.027c0.428,0,0.762-0.087,1.001-0.26
		c0.239-0.173,0.436-0.49,0.591-0.95l0.28-0.752l-2.639-7.314h1.381l1.846,5.544l1.723-5.544h1.353l-2.974,8.538
		C425.558,38.158,424.827,38.773,423.824,38.773 M282.965,38.773l-0.239-0.021l-0.472-0.089v-1.025l0.342,0.027
		c0.428,0,0.762-0.087,1.002-0.26c0.239-0.173,0.436-0.49,0.591-0.95l0.28-0.752l-2.639-7.314h1.381l1.846,5.544l1.723-5.544h1.354
		l-2.974,8.538C284.699,38.158,283.967,38.773,282.965,38.773 M165.456,38.773l-0.239-0.021l-0.472-0.089v-1.025l0.342,0.027
		c0.428,0,0.762-0.087,1.001-0.26c0.239-0.173,0.436-0.49,0.591-0.95l0.28-0.752l-2.639-7.314h1.381l1.846,5.544l1.723-5.544h1.353
		l-2.974,8.538C167.19,38.158,166.459,38.773,165.456,38.773 M44.517,38.773l-0.239-0.021l-0.472-0.089v-1.025l0.342,0.027
		c0.428,0,0.762-0.087,1.001-0.26c0.239-0.173,0.436-0.49,0.591-0.95l0.28-0.752l-2.639-7.314h1.381l1.846,5.544l1.723-5.544h1.353
		l-2.974,8.538C46.251,38.158,45.519,38.773,44.517,38.773 M137.112,38.698c-0.533,0-1.055-0.114-1.566-0.342
		c-0.51-0.228-0.9-0.54-1.169-0.936l0.656-0.759c0.542,0.67,1.205,1.005,1.989,1.005c0.615,0,1.095-0.173,1.439-0.519
		c0.344-0.346,0.516-0.834,0.516-1.463v-0.636c-0.506,0.584-1.196,0.875-2.071,0.875c-0.866,0-1.567-0.349-2.102-1.046
		c-0.535-0.697-0.803-1.647-0.803-2.851c0-1.153,0.267-2.07,0.8-2.751c0.533-0.681,1.24-1.022,2.119-1.022
		c0.902,0,1.606,0.319,2.112,0.957l0.062-0.82h1.155v7.219c0,0.957-0.284,1.711-0.851,2.263
		C138.831,38.422,138.069,38.698,137.112,38.698 M137.235,29.326c-0.615,0-1.096,0.239-1.442,0.718
		c-0.346,0.479-0.519,1.187-0.519,2.126c0,0.834,0.171,1.489,0.513,1.965c0.342,0.476,0.82,0.714,1.436,0.714
		c0.797,0,1.383-0.362,1.757-1.087v-3.377C138.591,29.679,138.01,29.326,137.235,29.326 M64.862,38.698
		c-0.533,0-1.055-0.114-1.565-0.342c-0.51-0.228-0.9-0.54-1.169-0.936l0.656-0.759c0.542,0.67,1.205,1.005,1.989,1.005
		c0.615,0,1.095-0.173,1.439-0.519c0.344-0.346,0.516-0.834,0.516-1.463v-0.636c-0.506,0.584-1.196,0.875-2.071,0.875
		c-0.866,0-1.567-0.349-2.102-1.046c-0.536-0.697-0.803-1.647-0.803-2.851c0-1.153,0.267-2.07,0.8-2.751
		c0.533-0.681,1.24-1.022,2.119-1.022c0.902,0,1.606,0.319,2.112,0.957l0.062-0.82H68v7.219c0,0.957-0.284,1.711-0.851,2.263
		C66.581,38.422,65.819,38.698,64.862,38.698 M64.985,29.326c-0.615,0-1.096,0.239-1.442,0.718
		c-0.346,0.479-0.519,1.187-0.519,2.126c0,0.834,0.171,1.489,0.513,1.965c0.342,0.476,0.82,0.714,1.436,0.714
		c0.797,0,1.383-0.362,1.757-1.087v-3.377C66.341,29.679,65.76,29.326,64.985,29.326 M93.252,38.63h-1.265V28.39h1.155l0.062,0.82
		c0.515-0.638,1.23-0.957,2.146-0.957c0.889,0,1.592,0.335,2.109,1.005c0.517,0.67,0.776,1.602,0.776,2.796v0.116
		c0,1.126-0.258,2.033-0.772,2.721c-0.515,0.688-1.212,1.032-2.092,1.032c-0.898,0-1.604-0.285-2.119-0.855V38.63 M94.975,29.326
		c-0.766,0-1.34,0.34-1.723,1.019v3.534c0.378,0.675,0.957,1.012,1.736,1.012c0.606,0,1.088-0.24,1.446-0.721
		c0.358-0.481,0.537-1.195,0.537-2.143c0-0.834-0.178-1.493-0.533-1.976C96.082,29.568,95.595,29.326,94.975,29.326 M70.1,37.769
		l-0.718-0.492c0.428-0.597,0.652-1.212,0.67-1.846v-1.142h1.237v0.991c0,0.46-0.113,0.921-0.338,1.381
		C70.725,37.121,70.441,37.491,70.1,37.769 M493.95,35.923c-0.729,0-1.327-0.206-1.794-0.619c-0.467-0.412-0.701-0.935-0.701-1.569
		c0-0.77,0.293-1.368,0.878-1.794c0.586-0.426,1.409-0.639,2.471-0.639h1.23v-0.581c0-0.442-0.132-0.794-0.396-1.056
		c-0.264-0.262-0.654-0.393-1.169-0.393c-0.451,0-0.83,0.114-1.135,0.342c-0.305,0.228-0.458,0.504-0.458,0.827h-1.271
		c0-0.369,0.131-0.726,0.393-1.07c0.262-0.344,0.617-0.616,1.066-0.817c0.449-0.2,0.942-0.301,1.48-0.301
		c0.852,0,1.52,0.213,2.003,0.639c0.483,0.426,0.734,1.013,0.752,1.76v3.404c0,0.679,0.087,1.219,0.26,1.62v0.109h-1.326
		c-0.073-0.146-0.132-0.406-0.178-0.779C495.467,35.618,494.766,35.923,493.95,35.923 M495.043,32.197
		c-1.549,0-2.324,0.454-2.324,1.36c0,0.396,0.132,0.706,0.397,0.93c0.264,0.223,0.604,0.335,1.019,0.335
		c0.396,0,0.772-0.103,1.128-0.308c0.355-0.205,0.613-0.472,0.772-0.8v-1.518H495.043 M483.922,35.923
		c-1.007,0-1.808-0.336-2.403-1.008c-0.595-0.672-0.892-1.592-0.892-2.758v-0.212c0-0.72,0.132-1.36,0.397-1.921
		c0.264-0.56,0.644-0.996,1.138-1.306c0.494-0.31,1.079-0.465,1.753-0.465c0.83,0,1.519,0.248,2.068,0.745
		c0.549,0.497,0.842,1.142,0.878,1.935h-1.196c-0.037-0.479-0.218-0.872-0.543-1.179c-0.326-0.308-0.728-0.461-1.207-0.461
		c-0.643,0-1.14,0.231-1.494,0.694c-0.353,0.463-0.53,1.131-0.53,2.006v0.239c0,0.852,0.175,1.508,0.526,1.969
		c0.351,0.46,0.852,0.69,1.504,0.69c0.451,0,0.845-0.137,1.183-0.41c0.337-0.273,0.524-0.615,0.56-1.025h1.196
		c-0.023,0.424-0.169,0.827-0.438,1.21c-0.269,0.383-0.628,0.688-1.077,0.916C484.898,35.809,484.423,35.923,483.922,35.923
		 M467.82,35.923c-0.729,0-1.327-0.206-1.794-0.619c-0.467-0.412-0.701-0.935-0.701-1.569c0-0.77,0.293-1.368,0.878-1.794
		c0.586-0.426,1.409-0.639,2.471-0.639h1.23v-0.581c0-0.442-0.132-0.794-0.396-1.056c-0.264-0.262-0.654-0.393-1.169-0.393
		c-0.451,0-0.83,0.114-1.135,0.342c-0.305,0.228-0.458,0.504-0.458,0.827h-1.272c0-0.369,0.131-0.726,0.393-1.07
		c0.262-0.344,0.617-0.616,1.066-0.817c0.449-0.2,0.942-0.301,1.48-0.301c0.852,0,1.52,0.213,2.003,0.639
		c0.483,0.426,0.734,1.013,0.752,1.76v3.404c0,0.679,0.086,1.219,0.26,1.62v0.109h-1.326c-0.073-0.146-0.132-0.406-0.178-0.779
		C469.337,35.618,468.636,35.923,467.82,35.923 M468.914,32.197c-1.549,0-2.324,0.454-2.324,1.36c0,0.396,0.132,0.706,0.397,0.93
		c0.264,0.223,0.604,0.335,1.019,0.335c0.396,0,0.772-0.103,1.128-0.308c0.355-0.205,0.613-0.472,0.772-0.8v-1.518H468.914
		 M436.761,35.923c-1.003,0-1.815-0.349-2.437-1.046c-0.622-0.697-0.933-1.62-0.933-2.769V32.02c0-0.725,0.142-1.376,0.427-1.955
		c0.285-0.579,0.681-1.025,1.189-1.34c0.508-0.314,1.088-0.472,1.74-0.472c1.007,0,1.822,0.349,2.444,1.046
		c0.622,0.697,0.933,1.625,0.933,2.782v0.089c0,0.72-0.138,1.366-0.414,1.938c-0.276,0.572-0.67,1.018-1.183,1.336
		C438.015,35.763,437.426,35.923,436.761,35.923 M436.747,29.292c-0.624,0-1.128,0.248-1.511,0.745
		c-0.383,0.497-0.574,1.208-0.574,2.133c0,0.82,0.19,1.479,0.571,1.976c0.38,0.497,0.89,0.745,1.528,0.745
		c0.643,0,1.153-0.252,1.531-0.755c0.378-0.504,0.567-1.209,0.567-2.116c0-0.811-0.193-1.469-0.578-1.972
		C437.897,29.544,437.385,29.292,436.747,29.292 M412.895,35.923c-0.729,0-1.327-0.206-1.794-0.619
		c-0.467-0.412-0.701-0.935-0.701-1.569c0-0.77,0.293-1.368,0.878-1.794c0.585-0.426,1.409-0.639,2.471-0.639h1.231v-0.581
		c0-0.442-0.132-0.794-0.397-1.056c-0.264-0.262-0.654-0.393-1.169-0.393c-0.451,0-0.83,0.114-1.135,0.342
		c-0.305,0.228-0.458,0.504-0.458,0.827h-1.271c0-0.369,0.131-0.726,0.393-1.07c0.262-0.344,0.618-0.616,1.066-0.817
		c0.449-0.2,0.942-0.301,1.48-0.301c0.852,0,1.52,0.213,2.003,0.639c0.483,0.426,0.734,1.013,0.752,1.76v3.404
		c0,0.679,0.087,1.219,0.26,1.62v0.109h-1.326c-0.073-0.146-0.132-0.406-0.178-0.779C414.412,35.618,413.71,35.923,412.895,35.923
		 M413.988,32.197c-1.55,0-2.324,0.454-2.324,1.36c0,0.396,0.132,0.706,0.396,0.93c0.264,0.223,0.604,0.335,1.019,0.335
		c0.396,0,0.772-0.103,1.128-0.308c0.356-0.205,0.613-0.472,0.773-0.8v-1.518H413.988 M380.643,35.923
		c-0.789,0-1.389-0.229-1.801-0.687c-0.413-0.458-0.621-1.136-0.625-2.034V28.39h1.265v4.778c0,1.121,0.456,1.682,1.367,1.682
		c0.966,0,1.609-0.36,1.928-1.08v-5.38h1.265v7.397h-1.203l-0.027-0.731C382.318,35.634,381.595,35.923,380.643,35.923
		 M373.734,35.923c-0.592,0-1.117-0.105-1.572-0.314c-0.456-0.21-0.812-0.502-1.07-0.878c-0.258-0.376-0.386-0.783-0.386-1.22h1.265
		c0.023,0.424,0.192,0.76,0.509,1.008c0.317,0.248,0.735,0.373,1.254,0.373c0.479,0,0.862-0.097,1.152-0.291
		c0.289-0.194,0.434-0.452,0.434-0.776c0-0.342-0.129-0.607-0.386-0.796c-0.258-0.189-0.706-0.352-1.347-0.489
		c-0.64-0.137-1.148-0.301-1.524-0.492c-0.376-0.191-0.654-0.419-0.834-0.684c-0.18-0.264-0.27-0.579-0.27-0.943
		c0-0.606,0.256-1.119,0.769-1.538c0.513-0.419,1.168-0.629,1.965-0.629c0.838,0,1.519,0.216,2.041,0.649
		c0.522,0.433,0.783,0.987,0.783,1.661h-1.271c0-0.346-0.147-0.645-0.441-0.896c-0.294-0.251-0.664-0.376-1.111-0.376
		c-0.46,0-0.82,0.1-1.08,0.301c-0.26,0.201-0.39,0.463-0.39,0.786c0,0.305,0.121,0.536,0.362,0.69
		c0.242,0.155,0.678,0.303,1.309,0.444c0.631,0.141,1.143,0.31,1.535,0.506c0.392,0.196,0.682,0.432,0.872,0.708
		c0.189,0.276,0.284,0.612,0.284,1.008c0,0.661-0.264,1.191-0.793,1.589C375.263,35.724,374.577,35.923,373.734,35.923
		 M362.076,35.923c-0.729,0-1.327-0.206-1.794-0.619c-0.467-0.412-0.701-0.935-0.701-1.569c0-0.77,0.293-1.368,0.878-1.794
		c0.585-0.426,1.409-0.639,2.471-0.639h1.23v-0.581c0-0.442-0.132-0.794-0.396-1.056c-0.264-0.262-0.654-0.393-1.169-0.393
		c-0.451,0-0.829,0.114-1.135,0.342c-0.305,0.228-0.458,0.504-0.458,0.827h-1.272c0-0.369,0.131-0.726,0.393-1.07
		c0.262-0.344,0.618-0.616,1.066-0.817c0.449-0.2,0.942-0.301,1.48-0.301c0.852,0,1.52,0.213,2.003,0.639
		c0.483,0.426,0.734,1.013,0.752,1.76v3.404c0,0.679,0.087,1.219,0.26,1.62v0.109h-1.326c-0.073-0.146-0.132-0.406-0.178-0.779
		C363.593,35.618,362.891,35.923,362.076,35.923 M363.169,32.197c-1.549,0-2.324,0.454-2.324,1.36c0,0.396,0.132,0.706,0.396,0.93
		c0.264,0.223,0.604,0.335,1.019,0.335c0.396,0,0.772-0.103,1.128-0.308c0.355-0.205,0.613-0.472,0.772-0.8v-1.518H363.169
		 M350.889,35.923c-0.857,0-1.555-0.351-2.095-1.053c-0.54-0.702-0.81-1.618-0.81-2.748v-0.096c0-1.135,0.269-2.047,0.807-2.738
		c0.538-0.69,1.242-1.036,2.112-1.036c0.866,0,1.552,0.296,2.058,0.889v-3.856h1.265v10.5h-1.162l-0.062-0.793
		C352.495,35.613,351.791,35.923,350.889,35.923 M351.217,29.326c-0.62,0-1.103,0.239-1.449,0.718
		c-0.346,0.479-0.519,1.187-0.519,2.126c0,0.839,0.173,1.495,0.519,1.969c0.346,0.474,0.825,0.711,1.436,0.711
		c0.802,0,1.388-0.36,1.757-1.08v-3.397C352.582,29.675,352.001,29.326,351.217,29.326 M299.537,35.923
		c-0.789,0-1.389-0.229-1.801-0.687c-0.412-0.458-0.621-1.136-0.625-2.034V28.39h1.265v4.778c0,1.121,0.456,1.682,1.367,1.682
		c0.966,0,1.609-0.36,1.928-1.08v-5.38h1.265v7.397h-1.203l-0.027-0.731C301.211,35.634,300.489,35.923,299.537,35.923
		 M292.146,35.923c-1.003,0-1.815-0.349-2.437-1.046c-0.622-0.697-0.933-1.62-0.933-2.769V32.02c0-0.725,0.142-1.376,0.427-1.955
		c0.285-0.579,0.681-1.025,1.189-1.34c0.508-0.314,1.088-0.472,1.74-0.472c1.007,0,1.822,0.349,2.444,1.046
		c0.622,0.697,0.933,1.625,0.933,2.782v0.089c0,0.72-0.138,1.366-0.414,1.938c-0.276,0.572-0.67,1.018-1.183,1.336
		C293.4,35.763,292.811,35.923,292.146,35.923 M292.132,29.292c-0.624,0-1.128,0.248-1.511,0.745s-0.574,1.208-0.574,2.133
		c0,0.82,0.19,1.479,0.571,1.976c0.38,0.497,0.89,0.745,1.528,0.745c0.643,0,1.153-0.252,1.531-0.755
		c0.378-0.504,0.567-1.209,0.567-2.116c0-0.811-0.192-1.469-0.578-1.972C293.282,29.544,292.77,29.292,292.132,29.292
		 M263.714,35.923c-1.003,0-1.815-0.349-2.437-1.046c-0.622-0.697-0.933-1.62-0.933-2.769V32.02c0-0.725,0.142-1.376,0.427-1.955
		c0.285-0.579,0.681-1.025,1.189-1.34c0.508-0.314,1.088-0.472,1.74-0.472c1.007,0,1.822,0.349,2.444,1.046
		c0.622,0.697,0.933,1.625,0.933,2.782v0.089c0,0.72-0.138,1.366-0.414,1.938c-0.276,0.572-0.67,1.018-1.183,1.336
		C264.968,35.763,264.379,35.923,263.714,35.923 M263.7,29.292c-0.624,0-1.128,0.248-1.511,0.745s-0.574,1.208-0.574,2.133
		c0,0.82,0.19,1.479,0.571,1.976c0.38,0.497,0.89,0.745,1.528,0.745c0.643,0,1.153-0.252,1.531-0.755
		c0.378-0.504,0.567-1.209,0.567-2.116c0-0.811-0.193-1.469-0.578-1.972C264.85,29.544,264.338,29.292,263.7,29.292 M252.83,35.923
		c-1.003,0-1.818-0.329-2.447-0.988c-0.629-0.659-0.943-1.539-0.943-2.642v-0.232c0-0.734,0.14-1.389,0.42-1.965
		c0.28-0.576,0.672-1.028,1.176-1.353c0.504-0.326,1.049-0.489,1.637-0.489c0.961,0,1.709,0.317,2.242,0.95
		c0.533,0.634,0.8,1.541,0.8,2.721v0.526h-5.011c0.018,0.729,0.231,1.318,0.639,1.767c0.408,0.449,0.926,0.673,1.555,0.673
		c0.447,0,0.825-0.091,1.135-0.273c0.31-0.182,0.581-0.424,0.813-0.725l0.772,0.602C254.999,35.447,254.069,35.923,252.83,35.923
		 M252.673,29.292c-0.51,0-0.939,0.186-1.285,0.557c-0.346,0.371-0.561,0.892-0.643,1.562h3.705v-0.096
		c-0.037-0.643-0.21-1.14-0.52-1.494C253.62,29.469,253.201,29.292,252.673,29.292 M229.193,35.923
		c-0.593,0-1.117-0.105-1.572-0.314c-0.456-0.21-0.812-0.502-1.07-0.878c-0.258-0.376-0.386-0.783-0.386-1.22h1.265
		c0.023,0.424,0.192,0.76,0.509,1.008c0.317,0.248,0.735,0.373,1.254,0.373c0.479,0,0.862-0.097,1.152-0.291
		c0.289-0.194,0.434-0.452,0.434-0.776c0-0.342-0.129-0.607-0.386-0.796c-0.258-0.189-0.706-0.352-1.347-0.489
		c-0.64-0.137-1.148-0.301-1.524-0.492c-0.376-0.191-0.654-0.419-0.834-0.684c-0.18-0.264-0.27-0.579-0.27-0.943
		c0-0.606,0.256-1.119,0.769-1.538c0.513-0.419,1.168-0.629,1.965-0.629c0.839,0,1.519,0.216,2.041,0.649s0.783,0.987,0.783,1.661
		h-1.272c0-0.346-0.147-0.645-0.441-0.896c-0.294-0.251-0.664-0.376-1.111-0.376c-0.46,0-0.82,0.1-1.08,0.301
		c-0.26,0.201-0.39,0.463-0.39,0.786c0,0.305,0.121,0.536,0.362,0.69c0.241,0.155,0.678,0.303,1.309,0.444
		c0.631,0.141,1.143,0.31,1.535,0.506c0.392,0.196,0.682,0.432,0.872,0.708c0.189,0.276,0.284,0.612,0.284,1.008
		c0,0.661-0.264,1.191-0.793,1.589C230.722,35.724,230.036,35.923,229.193,35.923 M221.204,35.923c-0.857,0-1.555-0.351-2.095-1.053
		c-0.54-0.702-0.81-1.618-0.81-2.748v-0.096c0-1.135,0.269-2.047,0.807-2.738c0.538-0.69,1.242-1.036,2.112-1.036
		c0.866,0,1.552,0.296,2.058,0.889v-3.856h1.265v10.5h-1.162l-0.062-0.793C222.81,35.613,222.106,35.923,221.204,35.923
		 M221.532,29.326c-0.62,0-1.103,0.239-1.449,0.718c-0.346,0.479-0.519,1.187-0.519,2.126c0,0.839,0.173,1.495,0.519,1.969
		c0.346,0.474,0.825,0.711,1.436,0.711c0.802,0,1.388-0.36,1.757-1.08v-3.397C222.897,29.675,222.316,29.326,221.532,29.326
		 M214.123,35.923c-1.003,0-1.818-0.329-2.447-0.988s-0.943-1.539-0.943-2.642v-0.232c0-0.734,0.14-1.389,0.421-1.965
		c0.28-0.576,0.672-1.028,1.176-1.353c0.504-0.326,1.049-0.489,1.637-0.489c0.961,0,1.709,0.317,2.242,0.95
		c0.533,0.634,0.8,1.541,0.8,2.721v0.526h-5.011c0.018,0.729,0.231,1.318,0.639,1.767c0.408,0.449,0.926,0.673,1.555,0.673
		c0.447,0,0.825-0.091,1.135-0.273c0.31-0.182,0.581-0.424,0.814-0.725l0.772,0.602C216.292,35.447,215.362,35.923,214.123,35.923
		 M213.966,29.292c-0.51,0-0.939,0.186-1.285,0.557c-0.346,0.371-0.56,0.892-0.643,1.562h3.705v-0.096
		c-0.037-0.643-0.21-1.14-0.52-1.494C214.914,29.469,214.494,29.292,213.966,29.292 M206.594,35.923
		c-1.003,0-1.818-0.329-2.447-0.988c-0.629-0.659-0.943-1.539-0.943-2.642v-0.232c0-0.734,0.14-1.389,0.42-1.965
		c0.28-0.576,0.672-1.028,1.176-1.353c0.504-0.326,1.049-0.489,1.637-0.489c0.961,0,1.709,0.317,2.242,0.95
		c0.533,0.634,0.8,1.541,0.8,2.721v0.526h-5.011c0.018,0.729,0.231,1.318,0.639,1.767c0.408,0.449,0.926,0.673,1.555,0.673
		c0.447,0,0.825-0.091,1.135-0.273c0.31-0.182,0.581-0.424,0.814-0.725l0.772,0.602C208.763,35.447,207.834,35.923,206.594,35.923
		 M206.437,29.292c-0.51,0-0.939,0.186-1.285,0.557c-0.346,0.371-0.561,0.892-0.643,1.562h3.705v-0.096
		c-0.037-0.643-0.21-1.14-0.519-1.494C207.385,29.469,206.965,29.292,206.437,29.292 M182.028,35.923
		c-0.788,0-1.389-0.229-1.801-0.687c-0.413-0.458-0.621-1.136-0.626-2.034V28.39h1.265v4.778c0,1.121,0.456,1.682,1.367,1.682
		c0.966,0,1.609-0.36,1.928-1.08v-5.38h1.265v7.397h-1.203l-0.027-0.731C183.703,35.634,182.98,35.923,182.028,35.923
		 M174.637,35.923c-1.003,0-1.815-0.349-2.437-1.046c-0.622-0.697-0.933-1.62-0.933-2.769V32.02c0-0.725,0.142-1.376,0.427-1.955
		c0.285-0.579,0.681-1.025,1.189-1.34c0.508-0.314,1.088-0.472,1.74-0.472c1.007,0,1.822,0.349,2.444,1.046
		c0.622,0.697,0.933,1.625,0.933,2.782v0.089c0,0.72-0.138,1.366-0.414,1.938c-0.276,0.572-0.67,1.018-1.183,1.336
		C175.892,35.763,175.303,35.923,174.637,35.923 M174.624,29.292c-0.624,0-1.128,0.248-1.511,0.745
		c-0.383,0.497-0.574,1.208-0.574,2.133c0,0.82,0.19,1.479,0.571,1.976c0.38,0.497,0.89,0.745,1.528,0.745
		c0.643,0,1.153-0.252,1.531-0.755c0.378-0.504,0.567-1.209,0.567-2.116c0-0.811-0.193-1.469-0.578-1.972
		C175.773,29.544,175.262,29.292,174.624,29.292 M148.798,35.923c-1.003,0-1.815-0.349-2.437-1.046
		c-0.622-0.697-0.933-1.62-0.933-2.769V32.02c0-0.725,0.142-1.376,0.427-1.955c0.285-0.579,0.681-1.025,1.189-1.34
		c0.508-0.314,1.088-0.472,1.74-0.472c1.007,0,1.822,0.349,2.444,1.046c0.622,0.697,0.933,1.625,0.933,2.782v0.089
		c0,0.72-0.138,1.366-0.414,1.938c-0.276,0.572-0.67,1.018-1.183,1.336C150.052,35.763,149.463,35.923,148.798,35.923
		 M148.784,29.292c-0.624,0-1.128,0.248-1.511,0.745s-0.574,1.208-0.574,2.133c0,0.82,0.19,1.479,0.571,1.976
		c0.38,0.497,0.89,0.745,1.528,0.745c0.643,0,1.153-0.252,1.531-0.755c0.378-0.504,0.567-1.209,0.567-2.116
		c0-0.811-0.193-1.469-0.578-1.972C149.934,29.544,149.422,29.292,148.784,29.292 M117.827,35.923c-0.857,0-1.555-0.351-2.095-1.053
		c-0.54-0.702-0.81-1.618-0.81-2.748v-0.096c0-1.135,0.269-2.047,0.807-2.738c0.538-0.69,1.242-1.036,2.112-1.036
		c0.866,0,1.552,0.296,2.058,0.889v-3.856h1.265v10.5H120l-0.062-0.793C119.433,35.613,118.729,35.923,117.827,35.923
		 M118.155,29.326c-0.62,0-1.103,0.239-1.449,0.718c-0.346,0.479-0.52,1.187-0.52,2.126c0,0.839,0.173,1.495,0.52,1.969
		c0.346,0.474,0.825,0.711,1.436,0.711c0.802,0,1.388-0.36,1.757-1.08v-3.397C119.519,29.675,118.938,29.326,118.155,29.326
		 M102.983,35.923c-1.003,0-1.818-0.329-2.447-0.988c-0.629-0.659-0.943-1.539-0.943-2.642v-0.232c0-0.734,0.14-1.389,0.42-1.965
		c0.28-0.576,0.672-1.028,1.176-1.353c0.504-0.326,1.049-0.489,1.637-0.489c0.962,0,1.709,0.317,2.242,0.95
		c0.533,0.634,0.8,1.541,0.8,2.721v0.526h-5.011c0.018,0.729,0.231,1.318,0.639,1.767c0.408,0.449,0.926,0.673,1.555,0.673
		c0.447,0,0.825-0.091,1.135-0.273c0.31-0.182,0.581-0.424,0.813-0.725l0.773,0.602C105.152,35.447,104.222,35.923,102.983,35.923
		 M102.826,29.292c-0.51,0-0.939,0.186-1.285,0.557c-0.346,0.371-0.56,0.892-0.643,1.562h3.705v-0.096
		c-0.037-0.643-0.21-1.14-0.519-1.494C103.774,29.469,103.354,29.292,102.826,29.292 M87.507,35.923
		c-1.003,0-1.818-0.329-2.447-0.988c-0.629-0.659-0.943-1.539-0.943-2.642v-0.232c0-0.734,0.14-1.389,0.42-1.965
		c0.28-0.576,0.672-1.028,1.176-1.353c0.503-0.326,1.049-0.489,1.637-0.489c0.961,0,1.709,0.317,2.242,0.95
		c0.533,0.634,0.8,1.541,0.8,2.721v0.526h-5.011c0.018,0.729,0.231,1.318,0.639,1.767c0.408,0.449,0.926,0.673,1.555,0.673
		c0.447,0,0.825-0.091,1.135-0.273c0.31-0.182,0.581-0.424,0.814-0.725l0.772,0.602C89.676,35.447,88.747,35.923,87.507,35.923
		 M87.35,29.292c-0.51,0-0.939,0.186-1.285,0.557c-0.346,0.371-0.561,0.892-0.643,1.562h3.705v-0.096
		c-0.037-0.643-0.21-1.14-0.52-1.494C88.298,29.469,87.878,29.292,87.35,29.292 M79.092,35.923c-0.857,0-1.555-0.351-2.095-1.053
		c-0.54-0.702-0.81-1.618-0.81-2.748v-0.096c0-1.135,0.269-2.047,0.807-2.738c0.538-0.69,1.242-1.036,2.112-1.036
		c0.866,0,1.552,0.296,2.058,0.889v-3.856h1.265v10.5h-1.162l-0.062-0.793C80.699,35.613,79.995,35.923,79.092,35.923 M79.42,29.326
		c-0.62,0-1.103,0.239-1.449,0.718c-0.346,0.479-0.519,1.187-0.519,2.126c0,0.839,0.173,1.495,0.519,1.969
		c0.346,0.474,0.825,0.711,1.436,0.711c0.802,0,1.388-0.36,1.757-1.08v-3.397C80.785,29.675,80.204,29.326,79.42,29.326
		 M38.78,35.923c-0.857,0-1.555-0.351-2.095-1.053c-0.54-0.702-0.81-1.618-0.81-2.748v-0.096c0-1.135,0.269-2.047,0.807-2.738
		c0.538-0.69,1.242-1.036,2.112-1.036c0.866,0,1.552,0.296,2.058,0.889v-3.856h1.265v10.5h-1.162l-0.062-0.793
		C40.387,35.613,39.683,35.923,38.78,35.923 M39.108,29.326c-0.62,0-1.103,0.239-1.449,0.718c-0.346,0.479-0.52,1.187-0.52,2.126
		c0,0.839,0.173,1.495,0.52,1.969c0.346,0.474,0.825,0.711,1.435,0.711c0.802,0,1.388-0.36,1.757-1.08v-3.397
		C40.473,29.675,39.892,29.326,39.108,29.326 M30.806,35.923c-0.789,0-1.389-0.229-1.801-0.687
		c-0.413-0.458-0.621-1.136-0.625-2.034V28.39h1.265v4.778c0,1.121,0.456,1.682,1.367,1.682c0.966,0,1.609-0.36,1.928-1.08v-5.38
		h1.265v7.397H33l-0.027-0.731C32.48,35.634,31.758,35.923,30.806,35.923 M26.035,35.923c-0.565,0-0.991-0.171-1.278-0.513
		s-0.431-0.827-0.431-1.456v-4.587h-1.347V28.39h1.347v-1.791h1.265v1.791h1.381v0.978h-1.381v4.593
		c0,0.297,0.062,0.519,0.185,0.667c0.123,0.148,0.333,0.222,0.629,0.222c0.146,0,0.346-0.027,0.602-0.082v1.019
		C26.673,35.878,26.35,35.923,26.035,35.923 M19.207,35.923c-0.592,0-1.117-0.105-1.572-0.314c-0.456-0.21-0.812-0.502-1.07-0.878
		c-0.258-0.376-0.386-0.783-0.386-1.22h1.265c0.023,0.424,0.192,0.76,0.509,1.008c0.317,0.248,0.735,0.373,1.254,0.373
		c0.479,0,0.862-0.097,1.152-0.291c0.289-0.194,0.434-0.452,0.434-0.776c0-0.342-0.129-0.607-0.386-0.796
		c-0.258-0.189-0.706-0.352-1.347-0.489c-0.64-0.137-1.148-0.301-1.524-0.492c-0.376-0.191-0.654-0.419-0.834-0.684
		c-0.18-0.264-0.27-0.579-0.27-0.943c0-0.606,0.256-1.119,0.769-1.538c0.513-0.419,1.168-0.629,1.965-0.629
		c0.838,0,1.519,0.216,2.041,0.649c0.522,0.433,0.783,0.987,0.783,1.661h-1.271c0-0.346-0.147-0.645-0.441-0.896
		c-0.294-0.251-0.664-0.376-1.111-0.376c-0.46,0-0.82,0.1-1.08,0.301c-0.26,0.201-0.39,0.463-0.39,0.786
		c0,0.305,0.121,0.536,0.362,0.69c0.242,0.155,0.678,0.303,1.309,0.444s1.143,0.31,1.535,0.506c0.392,0.196,0.682,0.432,0.872,0.708
		c0.189,0.276,0.284,0.612,0.284,1.008c0,0.661-0.264,1.191-0.793,1.589C20.736,35.724,20.05,35.923,19.207,35.923 M234.495,35.861
		c-0.26,0-0.455-0.071-0.584-0.212c-0.13-0.141-0.195-0.317-0.195-0.526c0-0.219,0.065-0.401,0.195-0.547
		c0.13-0.146,0.325-0.219,0.584-0.219c0.26,0,0.457,0.073,0.591,0.219c0.134,0.146,0.202,0.328,0.202,0.547
		c0,0.21-0.067,0.385-0.202,0.526C234.952,35.791,234.755,35.861,234.495,35.861 M500.617,35.786h-1.265v-10.5h1.265V35.786
		 M489.717,35.786h-1.265V28.39h1.265V35.786 M478.993,35.786h-1.265v-4.895c-0.005-0.533-0.126-0.927-0.366-1.183
		c-0.239-0.255-0.612-0.383-1.118-0.383c-0.41,0-0.77,0.109-1.08,0.328c-0.31,0.219-0.551,0.506-0.725,0.861v5.271h-1.265V28.39
		h1.196l0.041,0.93c0.565-0.711,1.303-1.066,2.215-1.066c1.563,0,2.351,0.882,2.365,2.646V35.786 M463.66,35.786h-1.265v-4.895
		c-0.005-0.533-0.126-0.927-0.366-1.183c-0.239-0.255-0.612-0.383-1.118-0.383c-0.41,0-0.77,0.109-1.08,0.328
		c-0.31,0.219-0.551,0.506-0.725,0.861v5.271h-1.265V28.39h1.196l0.041,0.93c0.565-0.711,1.303-1.066,2.215-1.066
		c1.563,0,2.352,0.882,2.365,2.646V35.786 M455.697,35.786h-1.272V28.39h1.272V35.786 M451.698,35.786h-1.272v-6.419h-1.169V28.39
		h1.169v-0.629c0-0.825,0.236-1.467,0.708-1.928s1.138-0.69,1.999-0.69c0.51,0,1.155,0.139,1.935,0.417l-0.212,1.066
		c-0.57-0.228-1.112-0.342-1.627-0.342c-0.542,0-0.933,0.122-1.172,0.366c-0.239,0.244-0.359,0.61-0.359,1.097v0.643h1.511v0.978
		h-1.511V35.786 M443.423,35.786h-1.265v-6.419h-1.169V28.39h1.169v-0.759c0-0.793,0.212-1.406,0.636-1.839
		c0.424-0.433,1.023-0.649,1.798-0.649c0.292,0,0.581,0.039,0.868,0.115l-0.068,1.019c-0.214-0.041-0.442-0.062-0.684-0.062
		c-0.41,0-0.727,0.12-0.95,0.36c-0.223,0.24-0.335,0.584-0.335,1.032v0.782h1.579v0.978h-1.579V35.786 M419.515,35.786h-1.265V28.39
		h1.23l0.021,0.855c0.415-0.661,1.003-0.991,1.764-0.991c0.246,0,0.433,0.032,0.561,0.096v1.176
		c-0.191-0.032-0.399-0.048-0.622-0.048c-0.83,0-1.392,0.353-1.689,1.06V35.786 M408.734,35.786h-1.265v-4.881
		c0-0.529-0.121-0.924-0.362-1.186c-0.242-0.262-0.647-0.393-1.217-0.393c-0.469,0-0.859,0.14-1.169,0.42
		c-0.31,0.28-0.49,0.657-0.54,1.131v4.908h-1.272v-4.847c0-1.076-0.526-1.613-1.579-1.613c-0.829,0-1.397,0.353-1.702,1.06v5.401
		h-1.265V28.39h1.196l0.034,0.82c0.542-0.638,1.274-0.957,2.194-0.957c1.035,0,1.739,0.396,2.112,1.189
		c0.246-0.355,0.566-0.643,0.96-0.861c0.394-0.219,0.86-0.328,1.398-0.328c1.622,0,2.447,0.859,2.475,2.577V35.786 M396.394,35.786
		h-1.265v-4.881c0-0.529-0.121-0.924-0.362-1.186c-0.242-0.262-0.647-0.393-1.217-0.393c-0.469,0-0.859,0.14-1.169,0.42
		c-0.31,0.28-0.49,0.657-0.54,1.131v4.908h-1.272v-4.847c0-1.076-0.526-1.613-1.579-1.613c-0.83,0-1.397,0.353-1.702,1.06v5.401
		h-1.265V28.39h1.196l0.034,0.82c0.542-0.638,1.274-0.957,2.194-0.957c1.034,0,1.738,0.396,2.112,1.189
		c0.246-0.355,0.566-0.643,0.96-0.861c0.394-0.219,0.86-0.328,1.398-0.328c1.622,0,2.447,0.859,2.475,2.577V35.786 M346.343,35.786
		h-1.265v-4.895c-0.005-0.533-0.126-0.927-0.366-1.183c-0.239-0.255-0.612-0.383-1.118-0.383c-0.41,0-0.77,0.109-1.08,0.328
		c-0.31,0.219-0.551,0.506-0.725,0.861v5.271h-1.265V28.39h1.196l0.041,0.93c0.565-0.711,1.303-1.066,2.215-1.066
		c1.563,0,2.351,0.882,2.365,2.646V35.786 M338.38,35.786h-1.271V28.39h1.271V35.786 M334.381,35.786h-1.272v-6.419h-1.169V28.39
		h1.169v-0.629c0-0.825,0.236-1.467,0.708-1.928c0.472-0.46,1.138-0.69,1.999-0.69c0.51,0,1.155,0.139,1.935,0.417l-0.212,1.066
		c-0.57-0.228-1.112-0.342-1.627-0.342c-0.542,0-0.933,0.122-1.172,0.366c-0.239,0.244-0.359,0.61-0.359,1.097v0.643h1.511v0.978
		h-1.511V35.786 M327.056,35.786h-1.265v-10.5h1.265V35.786 M323.708,35.786h-1.265v-10.5h1.265V35.786 M320.344,35.786h-1.265
		V28.39h1.265V35.786 M315.543,35.786h-1.025l-1.798-5.606l-1.75,5.606h-1.025l-2.147-7.397h1.258l1.456,5.537l1.723-5.537h1.019
		l1.757,5.653l1.422-5.653h1.265L315.543,35.786 M275.592,35.786h-1.025l-1.798-5.606l-1.75,5.606h-1.025l-2.147-7.397h1.258
		l1.456,5.537l1.723-5.537h1.018l1.757,5.653l1.422-5.653h1.265L275.592,35.786 M258.641,35.786h-1.265v-10.5h1.265V35.786
		 M244.629,35.786h-3.452v-9.953h3.254c1.08,0,1.892,0.223,2.437,0.67c0.544,0.447,0.817,1.107,0.817,1.982
		c0,0.465-0.132,0.876-0.396,1.234c-0.264,0.358-0.624,0.635-1.08,0.831c0.538,0.15,0.963,0.436,1.275,0.858
		c0.312,0.422,0.468,0.924,0.468,1.507c0,0.893-0.289,1.595-0.868,2.105C246.505,35.531,245.686,35.786,244.629,35.786
		 M242.49,31.131v3.582h2.167c0.611,0,1.093-0.158,1.446-0.475c0.353-0.317,0.53-0.753,0.53-1.309c0-1.198-0.652-1.798-1.955-1.798
		H242.49 M242.49,26.906v3.172h1.982c0.574,0,1.033-0.144,1.377-0.432c0.344-0.288,0.516-0.678,0.516-1.171
		c0-0.548-0.16-0.947-0.479-1.195c-0.319-0.249-0.804-0.373-1.456-0.373H242.49 M201.57,35.786h-1.265v-4.895
		c-0.005-0.533-0.126-0.927-0.366-1.183c-0.239-0.255-0.612-0.383-1.118-0.383c-0.41,0-0.77,0.109-1.08,0.328
		c-0.31,0.219-0.551,0.506-0.725,0.861v5.271h-1.265V28.39h1.196l0.041,0.93c0.565-0.711,1.303-1.066,2.215-1.066
		c1.563,0,2.352,0.882,2.365,2.646V35.786 M188.674,35.786h-1.265V28.39h1.231l0.02,0.855c0.415-0.661,1.003-0.991,1.764-0.991
		c0.246,0,0.433,0.032,0.561,0.096v1.176c-0.191-0.032-0.399-0.048-0.622-0.048c-0.829,0-1.392,0.353-1.688,1.06V35.786
		 M159.615,35.786h-1.265v-4.895c-0.005-0.533-0.126-0.927-0.366-1.183c-0.239-0.255-0.612-0.383-1.118-0.383
		c-0.41,0-0.77,0.109-1.08,0.328c-0.31,0.219-0.552,0.506-0.725,0.861v5.271h-1.265V28.39h1.196l0.041,0.93
		c0.565-0.711,1.303-1.066,2.215-1.066c1.563,0,2.352,0.882,2.365,2.646V35.786 M132.355,35.786h-1.265v-4.895
		c-0.005-0.533-0.126-0.927-0.366-1.183c-0.239-0.255-0.612-0.383-1.118-0.383c-0.41,0-0.77,0.109-1.08,0.328
		c-0.31,0.219-0.551,0.506-0.725,0.861v5.271h-1.265V28.39h1.196l0.041,0.93c0.565-0.711,1.303-1.066,2.215-1.066
		c1.563,0,2.351,0.882,2.365,2.646V35.786 M124.497,35.786h-1.265V28.39h1.265V35.786 M113.281,35.786h-1.265v-4.895
		c-0.005-0.533-0.126-0.927-0.366-1.183c-0.239-0.255-0.612-0.383-1.118-0.383c-0.41,0-0.77,0.109-1.08,0.328
		c-0.31,0.219-0.552,0.506-0.725,0.861v5.271h-1.265V28.39h1.196l0.041,0.93c0.565-0.711,1.303-1.066,2.215-1.066
		c1.563,0,2.352,0.882,2.365,2.646V35.786 M60.105,35.786H58.84v-4.895c-0.005-0.533-0.126-0.927-0.366-1.183
		c-0.239-0.255-0.612-0.383-1.118-0.383c-0.41,0-0.77,0.109-1.08,0.328c-0.31,0.219-0.551,0.506-0.725,0.861v5.271h-1.265V28.39
		h1.196l0.041,0.93c0.565-0.711,1.303-1.066,2.215-1.066c1.563,0,2.352,0.882,2.365,2.646V35.786 M52.247,35.786h-1.265V28.39h1.265
		V35.786 M489.095,27.146c-0.246,0-0.432-0.068-0.557-0.205c-0.125-0.137-0.188-0.308-0.188-0.513c0-0.205,0.063-0.378,0.188-0.52
		c0.125-0.141,0.311-0.212,0.557-0.212c0.246,0,0.433,0.071,0.56,0.212c0.128,0.141,0.191,0.314,0.191,0.52
		c0,0.205-0.064,0.376-0.191,0.513C489.528,27.077,489.341,27.146,489.095,27.146 M319.722,27.146c-0.246,0-0.432-0.068-0.557-0.205
		c-0.125-0.137-0.188-0.308-0.188-0.513c0-0.205,0.063-0.378,0.188-0.52c0.125-0.141,0.311-0.212,0.557-0.212
		c0.246,0,0.433,0.071,0.56,0.212c0.128,0.141,0.191,0.314,0.191,0.52c0,0.205-0.064,0.376-0.191,0.513
		C320.155,27.077,319.968,27.146,319.722,27.146 M123.875,27.146c-0.246,0-0.432-0.068-0.557-0.205
		c-0.125-0.137-0.188-0.308-0.188-0.513c0-0.205,0.063-0.378,0.188-0.52c0.125-0.141,0.311-0.212,0.557-0.212
		c0.246,0,0.433,0.071,0.561,0.212c0.128,0.141,0.191,0.314,0.191,0.52c0,0.205-0.064,0.376-0.191,0.513
		C124.308,27.077,124.121,27.146,123.875,27.146 M51.625,27.146c-0.246,0-0.432-0.068-0.557-0.205
		c-0.125-0.137-0.188-0.308-0.188-0.513c0-0.205,0.063-0.378,0.188-0.52c0.125-0.141,0.311-0.212,0.557-0.212
		s0.433,0.071,0.561,0.212c0.128,0.141,0.191,0.314,0.191,0.52c0,0.205-0.064,0.376-0.191,0.513
		C52.058,27.077,51.871,27.146,51.625,27.146"/>
	<path fill="#000000" d="M279.77,58.774l-0.239-0.021l-0.472-0.089v-1.025l0.342,0.027c0.428,0,0.762-0.087,1.001-0.26
		c0.239-0.173,0.436-0.49,0.591-0.95l0.28-0.752l-2.639-7.314h1.381l1.846,5.544l1.723-5.544h1.353l-2.974,8.538
		C281.503,58.158,280.772,58.774,279.77,58.774 M176.336,58.774l-0.239-0.021l-0.472-0.089v-1.025l0.342,0.027
		c0.428,0,0.762-0.087,1.001-0.26c0.239-0.173,0.436-0.49,0.591-0.95l0.28-0.752l-2.639-7.314h1.381l1.846,5.544l1.723-5.544h1.353
		l-2.974,8.538C178.07,58.158,177.338,58.774,176.336,58.774 M337.805,58.698c-0.533,0-1.055-0.114-1.565-0.342
		c-0.51-0.228-0.9-0.54-1.169-0.936l0.656-0.759c0.542,0.67,1.205,1.005,1.989,1.005c0.615,0,1.095-0.173,1.439-0.519
		c0.344-0.346,0.516-0.834,0.516-1.463v-0.636c-0.506,0.583-1.196,0.875-2.071,0.875c-0.866,0-1.567-0.349-2.102-1.046
		c-0.536-0.697-0.803-1.648-0.803-2.851c0-1.153,0.267-2.07,0.8-2.751c0.533-0.681,1.24-1.022,2.119-1.022
		c0.902,0,1.607,0.319,2.112,0.957l0.062-0.82h1.155v7.219c0,0.957-0.284,1.711-0.851,2.263
		C339.524,58.423,338.762,58.698,337.805,58.698 M337.928,49.326c-0.615,0-1.096,0.239-1.442,0.718
		c-0.346,0.479-0.52,1.187-0.52,2.126c0,0.834,0.171,1.489,0.513,1.965c0.342,0.476,0.82,0.714,1.436,0.714
		c0.797,0,1.383-0.362,1.757-1.087v-3.377C339.284,49.679,338.703,49.326,337.928,49.326 M301.813,57.769l-0.718-0.492
		c0.428-0.597,0.652-1.212,0.67-1.846v-1.142h1.237v0.991c0,0.46-0.113,0.921-0.338,1.381
		C302.439,57.121,302.155,57.49,301.813,57.769 M453.785,55.923c-0.592,0-1.117-0.105-1.572-0.314
		c-0.456-0.209-0.812-0.502-1.07-0.878c-0.258-0.376-0.386-0.783-0.386-1.22h1.265c0.023,0.424,0.192,0.76,0.509,1.008
		c0.317,0.248,0.735,0.373,1.254,0.373c0.479,0,0.862-0.097,1.152-0.291c0.289-0.194,0.434-0.452,0.434-0.776
		c0-0.342-0.129-0.607-0.386-0.796c-0.258-0.189-0.706-0.352-1.347-0.489c-0.64-0.137-1.148-0.301-1.524-0.492
		c-0.376-0.191-0.654-0.419-0.834-0.684c-0.18-0.264-0.27-0.579-0.27-0.943c0-0.606,0.256-1.119,0.769-1.538
		c0.513-0.419,1.168-0.629,1.965-0.629c0.838,0,1.519,0.217,2.041,0.649c0.522,0.433,0.783,0.987,0.783,1.661h-1.272
		c0-0.346-0.147-0.645-0.441-0.896c-0.294-0.251-0.664-0.376-1.111-0.376c-0.46,0-0.82,0.1-1.08,0.301
		c-0.26,0.201-0.39,0.463-0.39,0.786c0,0.305,0.121,0.535,0.362,0.69c0.242,0.155,0.678,0.303,1.309,0.444
		c0.631,0.141,1.143,0.31,1.535,0.506c0.392,0.196,0.682,0.432,0.872,0.708c0.189,0.276,0.284,0.612,0.284,1.008
		c0,0.661-0.264,1.191-0.793,1.589C455.314,55.724,454.628,55.923,453.785,55.923 M423.522,55.923c-0.565,0-0.991-0.171-1.278-0.513
		c-0.287-0.342-0.431-0.827-0.431-1.456v-4.587h-1.347V48.39h1.347v-1.791h1.265v1.791h1.381v0.978h-1.381v4.593
		c0,0.297,0.062,0.519,0.185,0.667c0.123,0.148,0.333,0.222,0.629,0.222c0.146,0,0.346-0.027,0.602-0.082v1.019
		C424.16,55.878,423.837,55.923,423.522,55.923 M408.198,55.923c-0.729,0-1.327-0.206-1.795-0.619
		c-0.467-0.412-0.701-0.935-0.701-1.569c0-0.77,0.293-1.368,0.878-1.794c0.585-0.426,1.409-0.639,2.471-0.639h1.231v-0.581
		c0-0.442-0.132-0.794-0.397-1.056c-0.264-0.262-0.654-0.393-1.169-0.393c-0.451,0-0.83,0.114-1.135,0.342
		c-0.305,0.228-0.458,0.504-0.458,0.827h-1.272c0-0.369,0.131-0.726,0.393-1.07c0.262-0.344,0.618-0.616,1.066-0.817
		c0.449-0.201,0.942-0.301,1.48-0.301c0.852,0,1.52,0.213,2.003,0.639c0.483,0.426,0.734,1.013,0.752,1.76v3.404
		c0,0.679,0.087,1.219,0.26,1.62v0.109h-1.326c-0.073-0.146-0.132-0.406-0.178-0.779C409.715,55.618,409.013,55.923,408.198,55.923
		 M409.292,52.197c-1.55,0-2.324,0.454-2.324,1.36c0,0.397,0.132,0.706,0.396,0.93c0.264,0.223,0.604,0.335,1.019,0.335
		c0.397,0,0.773-0.103,1.128-0.308c0.355-0.205,0.613-0.472,0.772-0.8v-1.518H409.292 M395.029,55.923
		c-1.003,0-1.818-0.329-2.447-0.988c-0.629-0.658-0.943-1.539-0.943-2.642v-0.233c0-0.734,0.14-1.389,0.42-1.965
		c0.28-0.576,0.672-1.028,1.176-1.354c0.504-0.326,1.049-0.489,1.637-0.489c0.962,0,1.709,0.317,2.242,0.95
		c0.533,0.634,0.8,1.54,0.8,2.721v0.526h-5.011c0.018,0.729,0.231,1.318,0.639,1.767c0.408,0.449,0.926,0.673,1.555,0.673
		c0.447,0,0.825-0.091,1.135-0.273c0.31-0.182,0.581-0.424,0.813-0.725l0.773,0.602C397.198,55.447,396.269,55.923,395.029,55.923
		 M394.872,49.292c-0.51,0-0.939,0.186-1.285,0.557c-0.346,0.372-0.561,0.892-0.643,1.562h3.705v-0.096
		c-0.037-0.643-0.21-1.14-0.52-1.494C395.82,49.469,395.401,49.292,394.872,49.292 M384.099,55.923
		c-1.003,0-1.818-0.329-2.447-0.988c-0.629-0.658-0.943-1.539-0.943-2.642v-0.233c0-0.734,0.14-1.389,0.42-1.965
		c0.28-0.576,0.672-1.028,1.176-1.354c0.504-0.326,1.049-0.489,1.637-0.489c0.961,0,1.709,0.317,2.242,0.95
		c0.533,0.634,0.8,1.54,0.8,2.721v0.526h-5.011c0.018,0.729,0.231,1.318,0.639,1.767c0.408,0.449,0.926,0.673,1.555,0.673
		c0.447,0,0.825-0.091,1.135-0.273c0.31-0.182,0.581-0.424,0.813-0.725l0.772,0.602C386.268,55.447,385.338,55.923,384.099,55.923
		 M383.941,49.292c-0.51,0-0.939,0.186-1.285,0.557c-0.346,0.372-0.561,0.892-0.643,1.562h3.705v-0.096
		c-0.036-0.643-0.21-1.14-0.519-1.494C384.889,49.469,384.47,49.292,383.941,49.292 M362.643,55.923
		c-0.565,0-0.991-0.171-1.278-0.513c-0.287-0.342-0.431-0.827-0.431-1.456v-4.587h-1.347V48.39h1.347v-1.791h1.265v1.791h1.381
		v0.978h-1.381v4.593c0,0.297,0.062,0.519,0.185,0.667c0.123,0.148,0.333,0.222,0.629,0.222c0.146,0,0.346-0.027,0.602-0.082v1.019
		C363.281,55.878,362.958,55.923,362.643,55.923 M322.231,55.923c-1.003,0-1.815-0.349-2.437-1.046
		c-0.622-0.697-0.933-1.62-0.933-2.769V52.02c0-0.725,0.142-1.376,0.427-1.955c0.285-0.579,0.681-1.025,1.19-1.34
		c0.508-0.314,1.088-0.472,1.74-0.472c1.007,0,1.822,0.349,2.444,1.046c0.622,0.697,0.933,1.625,0.933,2.782v0.089
		c0,0.72-0.138,1.366-0.414,1.938c-0.276,0.572-0.67,1.018-1.183,1.336C323.485,55.763,322.896,55.923,322.231,55.923
		 M322.217,49.292c-0.624,0-1.128,0.248-1.511,0.745s-0.574,1.208-0.574,2.133c0,0.82,0.19,1.479,0.571,1.976
		c0.38,0.497,0.89,0.745,1.528,0.745c0.643,0,1.153-0.252,1.531-0.755c0.378-0.504,0.567-1.209,0.567-2.116
		c0-0.811-0.192-1.469-0.578-1.972C323.367,49.544,322.855,49.292,322.217,49.292 M310.491,55.923c-0.729,0-1.327-0.206-1.795-0.619
		c-0.467-0.412-0.701-0.935-0.701-1.569c0-0.77,0.293-1.368,0.878-1.794c0.585-0.426,1.409-0.639,2.471-0.639h1.231v-0.581
		c0-0.442-0.132-0.794-0.397-1.056c-0.264-0.262-0.654-0.393-1.169-0.393c-0.451,0-0.83,0.114-1.135,0.342
		c-0.305,0.228-0.458,0.504-0.458,0.827h-1.272c0-0.369,0.131-0.726,0.393-1.07c0.262-0.344,0.618-0.616,1.066-0.817
		c0.449-0.201,0.942-0.301,1.48-0.301c0.852,0,1.52,0.213,2.003,0.639c0.483,0.426,0.734,1.013,0.752,1.76v3.404
		c0,0.679,0.087,1.219,0.26,1.62v0.109h-1.326c-0.073-0.146-0.132-0.406-0.178-0.779C312.009,55.618,311.307,55.923,310.491,55.923
		 M311.585,52.197c-1.55,0-2.324,0.454-2.324,1.36c0,0.397,0.132,0.706,0.396,0.93c0.264,0.223,0.604,0.335,1.019,0.335
		c0.397,0,0.773-0.103,1.128-0.308c0.355-0.205,0.613-0.472,0.772-0.8v-1.518H311.585 M296.341,55.923
		c-0.788,0-1.389-0.229-1.801-0.687c-0.413-0.458-0.621-1.136-0.626-2.034V48.39h1.265v4.778c0,1.121,0.456,1.682,1.367,1.682
		c0.966,0,1.609-0.36,1.928-1.08v-5.38h1.265v7.397h-1.203l-0.027-0.731C298.016,55.633,297.294,55.923,296.341,55.923
		 M288.951,55.923c-1.003,0-1.815-0.349-2.437-1.046c-0.622-0.697-0.933-1.62-0.933-2.769V52.02c0-0.725,0.142-1.376,0.427-1.955
		c0.285-0.579,0.681-1.025,1.19-1.34c0.508-0.314,1.088-0.472,1.74-0.472c1.007,0,1.822,0.349,2.444,1.046
		c0.622,0.697,0.933,1.625,0.933,2.782v0.089c0,0.72-0.138,1.366-0.414,1.938c-0.276,0.572-0.67,1.018-1.183,1.336
		C290.205,55.763,289.616,55.923,288.951,55.923 M288.937,49.292c-0.624,0-1.128,0.248-1.511,0.745s-0.574,1.208-0.574,2.133
		c0,0.82,0.19,1.479,0.571,1.976c0.38,0.497,0.89,0.745,1.528,0.745c0.643,0,1.153-0.252,1.531-0.755
		c0.378-0.504,0.567-1.209,0.567-2.116c0-0.811-0.193-1.469-0.578-1.972C290.087,49.544,289.575,49.292,288.937,49.292
		 M270.886,55.923c-1.003,0-1.815-0.349-2.437-1.046c-0.622-0.697-0.933-1.62-0.933-2.769V52.02c0-0.725,0.142-1.376,0.427-1.955
		c0.285-0.579,0.681-1.025,1.189-1.34c0.508-0.314,1.088-0.472,1.74-0.472c1.007,0,1.822,0.349,2.444,1.046
		c0.622,0.697,0.933,1.625,0.933,2.782v0.089c0,0.72-0.138,1.366-0.414,1.938c-0.276,0.572-0.67,1.018-1.183,1.336
		C272.141,55.763,271.552,55.923,270.886,55.923 M270.873,49.292c-0.625,0-1.128,0.248-1.511,0.745s-0.574,1.208-0.574,2.133
		c0,0.82,0.19,1.479,0.571,1.976s0.89,0.745,1.528,0.745c0.643,0,1.153-0.252,1.531-0.755c0.378-0.504,0.567-1.209,0.567-2.116
		c0-0.811-0.193-1.469-0.578-1.972C272.022,49.544,271.511,49.292,270.873,49.292 M265.641,55.923c-0.565,0-0.991-0.171-1.278-0.513
		c-0.287-0.342-0.431-0.827-0.431-1.456v-4.587h-1.347V48.39h1.347v-1.791h1.265v1.791h1.381v0.978h-1.381v4.593
		c0,0.297,0.062,0.519,0.185,0.667c0.123,0.148,0.333,0.222,0.629,0.222c0.146,0,0.346-0.027,0.602-0.082v1.019
		C266.279,55.878,265.955,55.923,265.641,55.923 M255.527,55.923c-1.003,0-1.818-0.329-2.447-0.988
		c-0.629-0.658-0.943-1.539-0.943-2.642v-0.233c0-0.734,0.14-1.389,0.42-1.965c0.28-0.576,0.672-1.028,1.176-1.354
		c0.504-0.326,1.049-0.489,1.637-0.489c0.961,0,1.709,0.317,2.242,0.95c0.533,0.634,0.8,1.54,0.8,2.721v0.526h-5.011
		c0.018,0.729,0.231,1.318,0.639,1.767c0.408,0.449,0.926,0.673,1.555,0.673c0.447,0,0.825-0.091,1.135-0.273
		c0.31-0.182,0.581-0.424,0.814-0.725l0.772,0.602C257.697,55.447,256.767,55.923,255.527,55.923 M255.37,49.292
		c-0.51,0-0.939,0.186-1.285,0.557c-0.346,0.372-0.56,0.892-0.643,1.562h3.705v-0.096c-0.037-0.643-0.21-1.14-0.52-1.494
		C256.318,49.469,255.899,49.292,255.37,49.292 M244.527,55.923c-0.934,0-1.657-0.33-2.167-0.991l-0.062,0.855h-1.162v-10.5h1.265
		v3.917c0.51-0.633,1.214-0.95,2.112-0.95c0.898,0,1.603,0.34,2.116,1.019c0.513,0.679,0.769,1.609,0.769,2.789v0.109
		c0,1.13-0.26,2.038-0.779,2.724C246.099,55.58,245.402,55.923,244.527,55.923 M244.199,49.326c-0.834,0-1.433,0.387-1.798,1.162
		v3.199c0.387,0.775,0.991,1.162,1.812,1.162c0.606,0,1.078-0.235,1.415-0.704c0.337-0.469,0.506-1.176,0.506-2.119
		c0-0.861-0.166-1.527-0.499-1.996S244.823,49.326,244.199,49.326 M235.78,55.923c-0.729,0-1.327-0.206-1.794-0.619
		c-0.467-0.412-0.701-0.935-0.701-1.569c0-0.77,0.293-1.368,0.878-1.794c0.586-0.426,1.409-0.639,2.471-0.639h1.23v-0.581
		c0-0.442-0.132-0.794-0.396-1.056c-0.264-0.262-0.654-0.393-1.169-0.393c-0.451,0-0.83,0.114-1.135,0.342
		c-0.305,0.228-0.458,0.504-0.458,0.827h-1.271c0-0.369,0.131-0.726,0.393-1.07c0.262-0.344,0.617-0.616,1.066-0.817
		c0.449-0.201,0.942-0.301,1.48-0.301c0.852,0,1.52,0.213,2.003,0.639c0.483,0.426,0.734,1.013,0.752,1.76v3.404
		c0,0.679,0.087,1.219,0.26,1.62v0.109h-1.326c-0.073-0.146-0.132-0.406-0.178-0.779C237.298,55.618,236.596,55.923,235.78,55.923
		 M236.874,52.197c-1.55,0-2.324,0.454-2.324,1.36c0,0.397,0.132,0.706,0.397,0.93c0.264,0.223,0.604,0.335,1.019,0.335
		c0.396,0,0.772-0.103,1.128-0.308c0.355-0.205,0.613-0.472,0.772-0.8v-1.518H236.874 M221.493,55.923
		c-0.729,0-1.327-0.206-1.795-0.619c-0.467-0.412-0.701-0.935-0.701-1.569c0-0.77,0.293-1.368,0.878-1.794
		c0.585-0.426,1.409-0.639,2.471-0.639h1.231v-0.581c0-0.442-0.132-0.794-0.397-1.056c-0.264-0.262-0.654-0.393-1.169-0.393
		c-0.451,0-0.83,0.114-1.135,0.342c-0.305,0.228-0.458,0.504-0.458,0.827h-1.271c0-0.369,0.131-0.726,0.393-1.07
		c0.262-0.344,0.618-0.616,1.066-0.817c0.449-0.201,0.942-0.301,1.48-0.301c0.852,0,1.52,0.213,2.003,0.639
		c0.483,0.426,0.734,1.013,0.752,1.76v3.404c0,0.679,0.087,1.219,0.26,1.62v0.109h-1.326c-0.073-0.146-0.132-0.406-0.178-0.779
		C223.011,55.618,222.309,55.923,221.493,55.923 M222.587,52.197c-1.55,0-2.324,0.454-2.324,1.36c0,0.397,0.132,0.706,0.396,0.93
		c0.264,0.223,0.604,0.335,1.019,0.335c0.397,0,0.773-0.103,1.128-0.308c0.355-0.205,0.613-0.472,0.772-0.8v-1.518H222.587
		 M207.476,55.923c-0.729,0-1.327-0.206-1.795-0.619c-0.467-0.412-0.701-0.935-0.701-1.569c0-0.77,0.293-1.368,0.878-1.794
		c0.586-0.426,1.409-0.639,2.471-0.639h1.231v-0.581c0-0.442-0.132-0.794-0.396-1.056c-0.264-0.262-0.654-0.393-1.169-0.393
		c-0.451,0-0.83,0.114-1.135,0.342c-0.305,0.228-0.458,0.504-0.458,0.827h-1.271c0-0.369,0.131-0.726,0.393-1.07
		c0.262-0.344,0.617-0.616,1.066-0.817c0.449-0.201,0.942-0.301,1.48-0.301c0.852,0,1.52,0.213,2.003,0.639
		c0.483,0.426,0.734,1.013,0.752,1.76v3.404c0,0.679,0.086,1.219,0.26,1.62v0.109h-1.326c-0.073-0.146-0.132-0.406-0.178-0.779
		C208.994,55.618,208.292,55.923,207.476,55.923 M208.57,52.197c-1.55,0-2.324,0.454-2.324,1.36c0,0.397,0.132,0.706,0.397,0.93
		c0.264,0.223,0.604,0.335,1.018,0.335c0.397,0,0.773-0.103,1.128-0.308c0.355-0.205,0.613-0.472,0.772-0.8v-1.518H208.57
		 M197.24,55.923c-1.003,0-1.818-0.329-2.447-0.988c-0.629-0.658-0.943-1.539-0.943-2.642v-0.233c0-0.734,0.14-1.389,0.42-1.965
		c0.28-0.576,0.672-1.028,1.176-1.354c0.504-0.326,1.049-0.489,1.637-0.489c0.961,0,1.709,0.317,2.242,0.95
		c0.533,0.634,0.8,1.54,0.8,2.721v0.526h-5.011c0.018,0.729,0.231,1.318,0.639,1.767c0.408,0.449,0.926,0.673,1.555,0.673
		c0.447,0,0.825-0.091,1.135-0.273c0.31-0.182,0.581-0.424,0.813-0.725l0.772,0.602C199.409,55.447,198.479,55.923,197.24,55.923
		 M197.082,49.292c-0.51,0-0.939,0.186-1.285,0.557c-0.346,0.372-0.561,0.892-0.643,1.562h3.705v-0.096
		c-0.037-0.643-0.21-1.14-0.52-1.494C198.03,49.469,197.611,49.292,197.082,49.292 M189.628,55.923c-0.934,0-1.657-0.33-2.167-0.991
		l-0.061,0.855h-1.162v-10.5h1.265v3.917c0.51-0.633,1.214-0.95,2.112-0.95c0.898,0,1.603,0.34,2.116,1.019
		c0.513,0.679,0.769,1.609,0.769,2.789v0.109c0,1.13-0.26,2.038-0.779,2.724C191.2,55.58,190.503,55.923,189.628,55.923
		 M189.3,49.326c-0.834,0-1.433,0.387-1.798,1.162v3.199c0.387,0.775,0.991,1.162,1.812,1.162c0.606,0,1.078-0.235,1.415-0.704
		c0.337-0.469,0.506-1.176,0.506-2.119c0-0.861-0.166-1.527-0.499-1.996S189.924,49.326,189.3,49.326 M170.853,55.923
		c-0.729,0-1.327-0.206-1.794-0.619c-0.467-0.412-0.701-0.935-0.701-1.569c0-0.77,0.293-1.368,0.878-1.794
		c0.586-0.426,1.409-0.639,2.471-0.639h1.23v-0.581c0-0.442-0.132-0.794-0.396-1.056c-0.264-0.262-0.654-0.393-1.169-0.393
		c-0.451,0-0.829,0.114-1.135,0.342c-0.305,0.228-0.458,0.504-0.458,0.827h-1.271c0-0.369,0.131-0.726,0.393-1.07
		c0.262-0.344,0.617-0.616,1.066-0.817c0.449-0.201,0.942-0.301,1.48-0.301c0.852,0,1.52,0.213,2.003,0.639
		c0.483,0.426,0.734,1.013,0.752,1.76v3.404c0,0.679,0.087,1.219,0.26,1.62v0.109h-1.326c-0.073-0.146-0.132-0.406-0.178-0.779
		C172.371,55.618,171.669,55.923,170.853,55.923 M171.947,52.197c-1.549,0-2.324,0.454-2.324,1.36c0,0.397,0.132,0.706,0.396,0.93
		c0.264,0.223,0.604,0.335,1.019,0.335c0.396,0,0.772-0.103,1.128-0.308c0.355-0.205,0.613-0.472,0.772-0.8v-1.518H171.947
		 M150.31,55.923c-0.565,0-0.991-0.171-1.278-0.513c-0.287-0.342-0.431-0.827-0.431-1.456v-4.587h-1.347V48.39h1.347v-1.791h1.265
		v1.791h1.381v0.978h-1.381v4.593c0,0.297,0.062,0.519,0.184,0.667c0.123,0.148,0.333,0.222,0.629,0.222
		c0.146,0,0.346-0.027,0.602-0.082v1.019C150.948,55.878,150.624,55.923,150.31,55.923 M142.784,55.923
		c-0.729,0-1.327-0.206-1.794-0.619c-0.467-0.412-0.701-0.935-0.701-1.569c0-0.77,0.293-1.368,0.878-1.794
		c0.585-0.426,1.409-0.639,2.471-0.639h1.231v-0.581c0-0.442-0.132-0.794-0.397-1.056c-0.264-0.262-0.654-0.393-1.169-0.393
		c-0.451,0-0.83,0.114-1.135,0.342c-0.305,0.228-0.458,0.504-0.458,0.827h-1.272c0-0.369,0.131-0.726,0.393-1.07
		c0.262-0.344,0.618-0.616,1.066-0.817c0.449-0.201,0.942-0.301,1.48-0.301c0.852,0,1.52,0.213,2.003,0.639
		c0.483,0.426,0.734,1.013,0.752,1.76v3.404c0,0.679,0.087,1.219,0.26,1.62v0.109h-1.326c-0.073-0.146-0.132-0.406-0.178-0.779
		C144.302,55.618,143.6,55.923,142.784,55.923 M143.878,52.197c-1.55,0-2.324,0.454-2.324,1.36c0,0.397,0.132,0.706,0.396,0.93
		c0.264,0.223,0.604,0.335,1.019,0.335c0.396,0,0.772-0.103,1.128-0.308c0.356-0.205,0.613-0.472,0.773-0.8v-1.518H143.878
		 M130.443,55.923c-0.565,0-0.991-0.171-1.278-0.513c-0.287-0.342-0.431-0.827-0.431-1.456v-4.587h-1.347V48.39h1.347v-1.791h1.265
		v1.791h1.381v0.978h-1.381v4.593c0,0.297,0.062,0.519,0.185,0.667c0.123,0.148,0.333,0.222,0.629,0.222
		c0.146,0,0.346-0.027,0.602-0.082v1.019C131.081,55.878,130.757,55.923,130.443,55.923 M120.329,55.923
		c-1.003,0-1.818-0.329-2.447-0.988c-0.629-0.658-0.943-1.539-0.943-2.642v-0.233c0-0.734,0.14-1.389,0.42-1.965
		c0.28-0.576,0.672-1.028,1.176-1.354c0.503-0.326,1.049-0.489,1.637-0.489c0.961,0,1.709,0.317,2.242,0.95
		c0.533,0.634,0.8,1.54,0.8,2.721v0.526h-5.011c0.018,0.729,0.231,1.318,0.639,1.767c0.408,0.449,0.926,0.673,1.555,0.673
		c0.447,0,0.825-0.091,1.135-0.273c0.31-0.182,0.581-0.424,0.814-0.725l0.772,0.602C122.498,55.447,121.569,55.923,120.329,55.923
		 M120.172,49.292c-0.51,0-0.939,0.186-1.285,0.557c-0.346,0.372-0.561,0.892-0.643,1.562h3.705v-0.096
		c-0.037-0.643-0.21-1.14-0.519-1.494C121.12,49.469,120.701,49.292,120.172,49.292 M112.798,55.923
		c-1.007,0-1.808-0.336-2.403-1.008c-0.595-0.672-0.892-1.592-0.892-2.758v-0.212c0-0.72,0.132-1.36,0.396-1.921
		c0.264-0.561,0.644-0.996,1.138-1.306s1.079-0.465,1.753-0.465c0.829,0,1.519,0.248,2.068,0.745
		c0.549,0.497,0.842,1.142,0.878,1.935h-1.196c-0.037-0.479-0.218-0.872-0.543-1.179c-0.326-0.308-0.728-0.461-1.207-0.461
		c-0.643,0-1.141,0.231-1.494,0.694c-0.353,0.463-0.53,1.131-0.53,2.006v0.239c0,0.852,0.175,1.508,0.526,1.969
		c0.351,0.46,0.852,0.69,1.504,0.69c0.451,0,0.845-0.137,1.183-0.41c0.337-0.273,0.524-0.615,0.561-1.025h1.196
		c-0.023,0.424-0.169,0.827-0.437,1.21c-0.269,0.383-0.628,0.688-1.077,0.916C113.774,55.809,113.299,55.923,112.798,55.923
		 M96.696,55.923c-0.729,0-1.327-0.206-1.795-0.619c-0.467-0.412-0.701-0.935-0.701-1.569c0-0.77,0.293-1.368,0.878-1.794
		c0.585-0.426,1.409-0.639,2.471-0.639h1.231v-0.581c0-0.442-0.132-0.794-0.397-1.056c-0.264-0.262-0.654-0.393-1.169-0.393
		c-0.451,0-0.83,0.114-1.135,0.342c-0.305,0.228-0.458,0.504-0.458,0.827h-1.272c0-0.369,0.131-0.726,0.393-1.07
		c0.262-0.344,0.618-0.616,1.066-0.817c0.449-0.201,0.942-0.301,1.48-0.301c0.852,0,1.52,0.213,2.003,0.639
		c0.483,0.426,0.734,1.013,0.752,1.76v3.404c0,0.679,0.087,1.219,0.26,1.62v0.109h-1.326c-0.073-0.146-0.132-0.406-0.178-0.779
		C98.213,55.618,97.512,55.923,96.696,55.923 M97.79,52.197c-1.55,0-2.324,0.454-2.324,1.36c0,0.397,0.132,0.706,0.396,0.93
		c0.264,0.223,0.604,0.335,1.019,0.335c0.397,0,0.773-0.103,1.128-0.308c0.355-0.205,0.613-0.472,0.772-0.8v-1.518H97.79
		 M92.005,55.923c-0.565,0-0.991-0.171-1.278-0.513c-0.287-0.342-0.431-0.827-0.431-1.456v-4.587H88.95V48.39h1.347v-1.791h1.265
		v1.791h1.381v0.978h-1.381v4.593c0,0.297,0.062,0.519,0.185,0.667c0.123,0.148,0.333,0.222,0.629,0.222
		c0.146,0,0.346-0.027,0.602-0.082v1.019C92.643,55.878,92.32,55.923,92.005,55.923 M85.178,55.923
		c-0.593,0-1.117-0.105-1.572-0.314c-0.456-0.209-0.812-0.502-1.07-0.878c-0.258-0.376-0.386-0.783-0.386-1.22h1.265
		c0.023,0.424,0.192,0.76,0.509,1.008c0.317,0.248,0.735,0.373,1.254,0.373c0.479,0,0.862-0.097,1.152-0.291
		c0.289-0.194,0.434-0.452,0.434-0.776c0-0.342-0.129-0.607-0.386-0.796s-0.706-0.352-1.347-0.489
		c-0.64-0.137-1.148-0.301-1.524-0.492c-0.376-0.191-0.654-0.419-0.834-0.684c-0.18-0.264-0.27-0.579-0.27-0.943
		c0-0.606,0.256-1.119,0.769-1.538c0.513-0.419,1.168-0.629,1.965-0.629c0.838,0,1.519,0.217,2.041,0.649
		c0.522,0.433,0.783,0.987,0.783,1.661h-1.272c0-0.346-0.147-0.645-0.441-0.896c-0.294-0.251-0.664-0.376-1.111-0.376
		c-0.46,0-0.82,0.1-1.08,0.301c-0.26,0.201-0.39,0.463-0.39,0.786c0,0.305,0.121,0.535,0.362,0.69
		c0.242,0.155,0.678,0.303,1.309,0.444c0.631,0.141,1.143,0.31,1.535,0.506c0.392,0.196,0.682,0.432,0.872,0.708
		c0.189,0.276,0.284,0.612,0.284,1.008c0,0.661-0.264,1.191-0.793,1.589C86.707,55.724,86.021,55.923,85.178,55.923 M74.643,55.923
		c-0.593,0-1.117-0.105-1.572-0.314c-0.456-0.209-0.812-0.502-1.07-0.878c-0.258-0.376-0.386-0.783-0.386-1.22h1.265
		c0.023,0.424,0.193,0.76,0.509,1.008c0.317,0.248,0.735,0.373,1.254,0.373c0.479,0,0.862-0.097,1.152-0.291
		c0.289-0.194,0.434-0.452,0.434-0.776c0-0.342-0.129-0.607-0.386-0.796c-0.258-0.189-0.706-0.352-1.347-0.489
		c-0.64-0.137-1.148-0.301-1.524-0.492c-0.376-0.191-0.654-0.419-0.834-0.684c-0.18-0.264-0.27-0.579-0.27-0.943
		c0-0.606,0.256-1.119,0.769-1.538c0.513-0.419,1.168-0.629,1.965-0.629c0.839,0,1.519,0.217,2.041,0.649
		c0.522,0.433,0.783,0.987,0.783,1.661h-1.272c0-0.346-0.147-0.645-0.441-0.896c-0.294-0.251-0.664-0.376-1.111-0.376
		c-0.46,0-0.82,0.1-1.08,0.301c-0.26,0.201-0.39,0.463-0.39,0.786c0,0.305,0.121,0.535,0.362,0.69
		c0.241,0.155,0.678,0.303,1.309,0.444c0.631,0.141,1.143,0.31,1.535,0.506c0.392,0.196,0.682,0.432,0.872,0.708
		c0.189,0.276,0.284,0.612,0.284,1.008c0,0.661-0.264,1.191-0.793,1.589C76.172,55.724,75.486,55.923,74.643,55.923 M67.41,55.923
		c-0.593,0-1.117-0.105-1.572-0.314c-0.456-0.209-0.812-0.502-1.07-0.878c-0.258-0.376-0.386-0.783-0.386-1.22h1.265
		c0.023,0.424,0.193,0.76,0.509,1.008c0.317,0.248,0.735,0.373,1.254,0.373c0.479,0,0.862-0.097,1.152-0.291
		c0.289-0.194,0.434-0.452,0.434-0.776c0-0.342-0.129-0.607-0.386-0.796c-0.258-0.189-0.706-0.352-1.347-0.489
		c-0.64-0.137-1.148-0.301-1.524-0.492c-0.376-0.191-0.654-0.419-0.834-0.684c-0.18-0.264-0.27-0.579-0.27-0.943
		c0-0.606,0.256-1.119,0.769-1.538c0.513-0.419,1.168-0.629,1.965-0.629c0.839,0,1.519,0.217,2.041,0.649
		c0.522,0.433,0.783,0.987,0.783,1.661h-1.272c0-0.346-0.147-0.645-0.441-0.896c-0.294-0.251-0.664-0.376-1.111-0.376
		c-0.46,0-0.82,0.1-1.08,0.301c-0.26,0.201-0.39,0.463-0.39,0.786c0,0.305,0.121,0.535,0.362,0.69
		c0.241,0.155,0.678,0.303,1.309,0.444c0.631,0.141,1.143,0.31,1.535,0.506c0.392,0.196,0.682,0.432,0.872,0.708
		c0.189,0.276,0.284,0.612,0.284,1.008c0,0.661-0.264,1.191-0.793,1.589C68.939,55.724,68.253,55.923,67.41,55.923 M59.445,55.923
		c-0.729,0-1.327-0.206-1.794-0.619c-0.467-0.412-0.701-0.935-0.701-1.569c0-0.77,0.293-1.368,0.878-1.794
		c0.585-0.426,1.409-0.639,2.471-0.639h1.231v-0.581c0-0.442-0.132-0.794-0.397-1.056c-0.264-0.262-0.654-0.393-1.169-0.393
		c-0.451,0-0.829,0.114-1.135,0.342c-0.305,0.228-0.458,0.504-0.458,0.827h-1.272c0-0.369,0.131-0.726,0.393-1.07
		c0.262-0.344,0.618-0.616,1.066-0.817c0.449-0.201,0.942-0.301,1.48-0.301c0.852,0,1.52,0.213,2.003,0.639
		c0.483,0.426,0.734,1.013,0.752,1.76v3.404c0,0.679,0.087,1.219,0.26,1.62v0.109h-1.326c-0.073-0.146-0.132-0.406-0.178-0.779
		C60.963,55.618,60.261,55.923,59.445,55.923 M60.539,52.197c-1.549,0-2.324,0.454-2.324,1.36c0,0.397,0.132,0.706,0.396,0.93
		c0.264,0.223,0.604,0.335,1.019,0.335c0.396,0,0.772-0.103,1.128-0.308c0.355-0.205,0.613-0.472,0.773-0.8v-1.518H60.539
		 M459.087,55.861c-0.26,0-0.455-0.071-0.584-0.212c-0.13-0.141-0.195-0.317-0.195-0.526c0-0.219,0.065-0.401,0.195-0.547
		c0.13-0.146,0.325-0.219,0.584-0.219s0.457,0.073,0.591,0.219c0.134,0.146,0.202,0.328,0.202,0.547c0,0.21-0.067,0.385-0.202,0.526
		C459.543,55.791,459.346,55.861,459.087,55.861 M450.221,55.786h-1.483l-2.577-3.425l-0.793,0.827v2.598h-1.265v-10.5h1.265v6.351
		l0.677-0.813l2.304-2.434h1.538l-2.878,3.09L450.221,55.786 M442.13,55.786h-1.265v-4.894c-0.005-0.533-0.126-0.927-0.366-1.183
		c-0.239-0.255-0.612-0.383-1.118-0.383c-0.41,0-0.77,0.109-1.08,0.328c-0.31,0.219-0.551,0.506-0.725,0.861v5.271h-1.265V48.39
		h1.196l0.041,0.93c0.565-0.711,1.303-1.066,2.215-1.066c1.563,0,2.352,0.882,2.365,2.646V55.786 M434.272,55.786h-1.265V48.39
		h1.265V55.786 M430.915,55.786h-1.265v-10.5h1.265V55.786 M419.371,55.786h-1.265v-4.894c-0.005-0.533-0.126-0.927-0.366-1.183
		c-0.239-0.255-0.612-0.383-1.118-0.383c-0.41,0-0.77,0.109-1.08,0.328c-0.31,0.219-0.551,0.506-0.725,0.861v5.271h-1.265V48.39
		h1.196l0.041,0.93c0.565-0.711,1.303-1.066,2.215-1.066c1.563,0,2.352,0.882,2.365,2.646V55.786 M402.205,55.786h-0.964
		l-2.68-7.397h1.292l1.88,5.681l1.832-5.681h1.292L402.205,55.786 M389.91,55.786h-1.265v-10.5h1.265V55.786 M377.596,55.786h-1.265
		V48.39h1.231l0.02,0.855c0.415-0.661,1.003-0.991,1.764-0.991c0.246,0,0.433,0.032,0.561,0.096v1.176
		c-0.191-0.032-0.399-0.048-0.622-0.048c-0.829,0-1.392,0.353-1.688,1.06V55.786 M370.832,55.786h-1.265v-4.894
		c-0.005-0.533-0.126-0.927-0.366-1.183c-0.239-0.255-0.612-0.383-1.118-0.383c-0.41,0-0.77,0.109-1.08,0.328
		c-0.31,0.219-0.551,0.506-0.725,0.861v5.271h-1.265v-10.5h1.265v3.999c0.561-0.688,1.29-1.032,2.188-1.032
		c1.563,0,2.352,0.882,2.365,2.646V55.786 M358.339,55.786h-1.265V48.39h1.265V55.786 M353.538,55.786h-1.025l-1.798-5.606
		l-1.75,5.606h-1.025l-2.146-7.397h1.258l1.456,5.537l1.723-5.537h1.019l1.757,5.653l1.422-5.653h1.265L353.538,55.786
		 M333.048,55.786h-1.265v-4.894c-0.005-0.533-0.126-0.927-0.366-1.183c-0.239-0.255-0.612-0.383-1.118-0.383
		c-0.41,0-0.77,0.109-1.08,0.328c-0.31,0.219-0.552,0.506-0.725,0.861v5.271h-1.265V48.39h1.196l0.041,0.93
		c0.565-0.711,1.303-1.066,2.215-1.066c1.563,0,2.352,0.882,2.365,2.646V55.786 M317.158,55.786h-1.265v-10.5h1.265V55.786
		 M250.408,55.786h-1.265v-10.5h1.265V55.786 M231.523,55.786h-1.265v-10.5h1.265V55.786 M228.159,55.786h-1.265V48.39h1.265V55.786
		 M215.501,55.786h-0.964l-2.68-7.397h1.292l1.88,5.681l1.832-5.681h1.292L215.501,55.786 M166.692,55.786h-1.265v-4.881
		c0-0.529-0.121-0.924-0.362-1.186c-0.242-0.262-0.647-0.393-1.217-0.393c-0.469,0-0.859,0.14-1.169,0.42
		c-0.31,0.28-0.49,0.657-0.54,1.131v4.908h-1.272v-4.847c0-1.076-0.526-1.613-1.579-1.613c-0.83,0-1.397,0.353-1.702,1.06v5.4
		h-1.265V48.39h1.196l0.034,0.82c0.542-0.638,1.274-0.957,2.194-0.957c1.034,0,1.739,0.397,2.112,1.189
		c0.246-0.355,0.566-0.643,0.96-0.861c0.394-0.219,0.86-0.328,1.398-0.328c1.622,0,2.447,0.859,2.475,2.577V55.786 M138.631,55.786
		h-1.265v-4.894c-0.005-0.533-0.126-0.927-0.366-1.183c-0.239-0.255-0.612-0.383-1.118-0.383c-0.41,0-0.77,0.109-1.08,0.328
		c-0.31,0.219-0.551,0.506-0.725,0.861v5.271h-1.265v-10.5h1.265v3.999c0.56-0.688,1.29-1.032,2.187-1.032
		c1.563,0,2.352,0.882,2.365,2.646V55.786 M107.869,55.786h-1.265v-4.894c-0.005-0.533-0.126-0.927-0.366-1.183
		c-0.239-0.255-0.612-0.383-1.118-0.383c-0.41,0-0.77,0.109-1.08,0.328c-0.31,0.219-0.552,0.506-0.725,0.861v5.271h-1.265V48.39
		h1.196l0.041,0.93c0.565-0.711,1.303-1.066,2.215-1.066c1.563,0,2.352,0.882,2.365,2.646V55.786 M80.487,55.786h-1.265V48.39h1.265
		V55.786 M433.65,47.145c-0.246,0-0.432-0.068-0.557-0.205c-0.125-0.137-0.188-0.308-0.188-0.513c0-0.205,0.063-0.378,0.188-0.519
		c0.125-0.141,0.311-0.212,0.557-0.212s0.433,0.071,0.56,0.212c0.128,0.141,0.191,0.314,0.191,0.519
		c0,0.205-0.064,0.376-0.191,0.513C434.083,47.077,433.896,47.145,433.65,47.145 M357.717,47.145c-0.246,0-0.432-0.068-0.557-0.205
		c-0.125-0.137-0.188-0.308-0.188-0.513c0-0.205,0.063-0.378,0.188-0.519c0.125-0.141,0.311-0.212,0.557-0.212
		c0.246,0,0.433,0.071,0.561,0.212c0.128,0.141,0.191,0.314,0.191,0.519c0,0.205-0.064,0.376-0.191,0.513
		C358.15,47.077,357.963,47.145,357.717,47.145 M227.537,47.145c-0.246,0-0.432-0.068-0.557-0.205
		c-0.125-0.137-0.188-0.308-0.188-0.513c0-0.205,0.063-0.378,0.188-0.519c0.125-0.141,0.311-0.212,0.557-0.212
		c0.246,0,0.433,0.071,0.561,0.212c0.128,0.141,0.191,0.314,0.191,0.519c0,0.205-0.064,0.376-0.191,0.513
		C227.97,47.077,227.783,47.145,227.537,47.145 M79.865,47.145c-0.246,0-0.432-0.068-0.557-0.205
		c-0.125-0.137-0.188-0.308-0.188-0.513c0-0.205,0.063-0.378,0.188-0.519c0.125-0.141,0.311-0.212,0.557-0.212
		s0.433,0.071,0.561,0.212c0.128,0.141,0.191,0.314,0.191,0.519c0,0.205-0.064,0.376-0.191,0.513
		C80.298,47.077,80.111,47.145,79.865,47.145"/>
</g>
</svg>
