<!-- Generator: Adobe InDesign 20.3 SVG Export Plug-in, SVG Library version: 9.3 build 254 -->
<!DOCTYPE svg PUBLIC "-//W3C//DTD SVG 1.1//EN" "http://www.w3.org/Graphics/SVG/1.1/DTD/svg11.dtd">
<svg version="1.1" xmlns="http://www.w3.org/2000/svg" xmlns:xlink="http://www.w3.org/1999/xlink" x="0%" y="0%" width="100%"
	 height="100%" viewBox="0 0 511.702 89.274" preserveAspectRatio="xMidYMid slice" overflow="visible" xml:space="preserve">
<clipPath id="clp_unq_id_1" fill="none">
	<path shape-rendering="crispEdges" stroke="#000000" d="M0,0h511.702v89.274H0V0"/>
</clipPath>
<g clip-path="url(#clp_unq_id_1)" fill="none">
	<path fill="#000000" d="M462.908,16.17c-0.457,0-0.904-0.098-1.342-0.293c-0.438-0.195-0.772-0.463-1.002-0.803l0.562-0.65
		c0.465,0.574,1.033,0.861,1.705,0.861c0.527,0,0.938-0.148,1.233-0.445c0.295-0.297,0.442-0.715,0.442-1.254v-0.545
		c-0.434,0.5-1.025,0.75-1.775,0.75c-0.742,0-1.343-0.299-1.802-0.896c-0.459-0.598-0.689-1.412-0.689-2.443
		c0-0.988,0.229-1.774,0.686-2.358c0.457-0.584,1.062-0.876,1.816-0.876c0.773,0,1.377,0.273,1.811,0.82l0.053-0.703h0.99v6.188
		c0,0.82-0.243,1.467-0.729,1.939C464.382,15.933,463.729,16.17,462.908,16.17 M463.014,8.137c-0.527,0-0.94,0.205-1.236,0.615
		c-0.297,0.41-0.445,1.018-0.445,1.822c0,0.715,0.147,1.276,0.44,1.685c0.293,0.408,0.703,0.612,1.23,0.612
		c0.684,0,1.186-0.311,1.506-0.932V9.045C464.176,8.439,463.678,8.137,463.014,8.137 M176.976,16.17
		c-0.457,0-0.904-0.098-1.342-0.293c-0.437-0.195-0.771-0.463-1.002-0.803l0.562-0.65c0.465,0.574,1.033,0.861,1.705,0.861
		c0.527,0,0.938-0.148,1.233-0.445c0.295-0.297,0.442-0.715,0.442-1.254v-0.545c-0.433,0.5-1.025,0.75-1.775,0.75
		c-0.742,0-1.343-0.299-1.802-0.896c-0.459-0.598-0.689-1.412-0.689-2.443c0-0.988,0.229-1.774,0.686-2.358
		c0.457-0.584,1.062-0.876,1.816-0.876c0.773,0,1.377,0.273,1.811,0.82l0.053-0.703h0.99v6.188c0,0.82-0.243,1.467-0.73,1.939
		C178.45,15.933,177.796,16.17,176.976,16.17 M177.081,8.137c-0.527,0-0.939,0.205-1.236,0.615c-0.297,0.41-0.445,1.018-0.445,1.822
		c0,0.715,0.146,1.276,0.439,1.685c0.293,0.408,0.703,0.612,1.231,0.612c0.684,0,1.186-0.311,1.506-0.932V9.045
		C178.244,8.439,177.746,8.137,177.081,8.137 M92.017,16.17c-0.457,0-0.904-0.098-1.342-0.293c-0.438-0.195-0.772-0.463-1.002-0.803
		l0.562-0.65c0.465,0.574,1.033,0.861,1.705,0.861c0.527,0,0.938-0.148,1.233-0.445c0.295-0.297,0.442-0.715,0.442-1.254v-0.545
		c-0.434,0.5-1.025,0.75-1.775,0.75c-0.742,0-1.343-0.299-1.802-0.896c-0.459-0.598-0.689-1.412-0.689-2.443
		c0-0.988,0.229-1.774,0.686-2.358c0.457-0.584,1.062-0.876,1.816-0.876c0.773,0,1.377,0.273,1.811,0.82l0.053-0.703h0.99v6.188
		c0,0.82-0.243,1.467-0.73,1.939C93.491,15.933,92.838,16.17,92.017,16.17 M92.123,8.137c-0.527,0-0.939,0.205-1.236,0.615
		c-0.297,0.41-0.445,1.018-0.445,1.822c0,0.715,0.147,1.276,0.44,1.685c0.293,0.408,0.703,0.612,1.23,0.612
		c0.684,0,1.186-0.311,1.506-0.932V9.045C93.285,8.439,92.787,8.137,92.123,8.137 M410.387,16.111h-1.084V7.334h0.99l0.053,0.703
		c0.441-0.547,1.055-0.82,1.84-0.82c0.762,0,1.364,0.287,1.808,0.861c0.443,0.574,0.665,1.373,0.665,2.397v0.1
		c0,0.965-0.221,1.742-0.662,2.332c-0.442,0.59-1.039,0.885-1.793,0.885c-0.77,0-1.375-0.244-1.816-0.732V16.111 M411.864,8.137
		c-0.656,0-1.148,0.291-1.477,0.873v3.029c0.324,0.578,0.82,0.867,1.488,0.867c0.52,0,0.933-0.206,1.239-0.618
		c0.307-0.412,0.46-1.024,0.46-1.837c0-0.715-0.152-1.279-0.457-1.693C412.813,8.344,412.395,8.137,411.864,8.137 M403.577,16.111
		h-1.084V7.334h0.99l0.053,0.703c0.441-0.547,1.055-0.82,1.84-0.82c0.762,0,1.364,0.287,1.808,0.861
		c0.443,0.574,0.665,1.373,0.665,2.397v0.1c0,0.965-0.221,1.742-0.662,2.332c-0.441,0.59-1.039,0.885-1.793,0.885
		c-0.77,0-1.375-0.244-1.816-0.732V16.111 M405.053,8.137c-0.656,0-1.149,0.291-1.477,0.873v3.029
		c0.324,0.578,0.82,0.867,1.488,0.867c0.519,0,0.933-0.206,1.239-0.618c0.307-0.412,0.46-1.024,0.46-1.837
		c0-0.715-0.152-1.279-0.457-1.693C406.003,8.344,405.585,8.137,405.053,8.137 M157.901,16.111h-1.084V7.334h0.99l0.053,0.703
		c0.441-0.547,1.055-0.82,1.84-0.82c0.762,0,1.364,0.287,1.808,0.861c0.443,0.574,0.665,1.373,0.665,2.397v0.1
		c0,0.965-0.221,1.742-0.662,2.332c-0.441,0.59-1.039,0.885-1.793,0.885c-0.769,0-1.375-0.244-1.816-0.732V16.111 M159.378,8.137
		c-0.656,0-1.148,0.291-1.476,0.873v3.029c0.324,0.578,0.82,0.867,1.488,0.867c0.519,0,0.933-0.206,1.239-0.618
		c0.307-0.412,0.46-1.024,0.46-1.837c0-0.715-0.152-1.279-0.457-1.693C160.327,8.344,159.909,8.137,159.378,8.137 M482.555,13.791
		c-0.859,0-1.559-0.282-2.098-0.847c-0.539-0.564-0.809-1.319-0.809-2.265V10.48c0-0.629,0.12-1.19,0.36-1.685
		c0.24-0.494,0.576-0.881,1.008-1.16c0.432-0.279,0.899-0.419,1.403-0.419c0.824,0,1.465,0.271,1.922,0.814
		c0.457,0.543,0.686,1.32,0.686,2.332v0.451h-4.295c0.016,0.625,0.198,1.13,0.548,1.515c0.35,0.385,0.794,0.577,1.333,0.577
		c0.383,0,0.707-0.078,0.973-0.234c0.266-0.156,0.498-0.363,0.697-0.621l0.662,0.516C484.414,13.383,483.617,13.791,482.555,13.791
		 M482.42,8.107c-0.438,0-0.805,0.159-1.102,0.478c-0.297,0.318-0.48,0.765-0.551,1.339h3.176V9.842
		c-0.031-0.551-0.18-0.977-0.445-1.28C483.232,8.259,482.873,8.107,482.42,8.107 M473.106,13.791c-0.801,0-1.42-0.283-1.857-0.85
		l-0.053,0.732H470.2v-9h1.084v3.357c0.437-0.543,1.041-0.814,1.811-0.814c0.77,0,1.374,0.291,1.814,0.873
		c0.44,0.582,0.659,1.379,0.659,2.391v0.094c0,0.969-0.223,1.747-0.668,2.335C474.454,13.497,473.856,13.791,473.106,13.791
		 M472.825,8.137c-0.715,0-1.228,0.332-1.541,0.996v2.742c0.332,0.664,0.85,0.996,1.553,0.996c0.519,0,0.924-0.201,1.213-0.604
		c0.289-0.402,0.434-1.008,0.434-1.816c0-0.738-0.143-1.309-0.428-1.711C473.77,8.338,473.36,8.137,472.825,8.137 M450.88,13.791
		c-0.859,0-1.559-0.282-2.098-0.847c-0.539-0.564-0.809-1.319-0.809-2.265V10.48c0-0.629,0.12-1.19,0.36-1.685
		c0.24-0.494,0.576-0.881,1.008-1.16c0.432-0.279,0.899-0.419,1.403-0.419c0.824,0,1.465,0.271,1.922,0.814
		c0.457,0.543,0.685,1.32,0.685,2.332v0.451h-4.295c0.016,0.625,0.198,1.13,0.548,1.515c0.35,0.385,0.794,0.577,1.333,0.577
		c0.383,0,0.707-0.078,0.973-0.234c0.266-0.156,0.498-0.363,0.697-0.621l0.662,0.516C452.739,13.383,451.942,13.791,450.88,13.791
		 M450.745,8.107c-0.438,0-0.805,0.159-1.102,0.478c-0.297,0.318-0.48,0.765-0.551,1.339h3.176V9.842
		c-0.031-0.551-0.18-0.977-0.445-1.28C451.558,8.259,451.198,8.107,450.745,8.107 M440.916,13.791c-0.859,0-1.556-0.299-2.089-0.896
		c-0.533-0.598-0.8-1.389-0.8-2.373v-0.076c0-0.621,0.122-1.18,0.366-1.676c0.244-0.496,0.584-0.879,1.02-1.148
		c0.435-0.27,0.933-0.404,1.491-0.404c0.863,0,1.562,0.299,2.095,0.896c0.533,0.598,0.8,1.393,0.8,2.385v0.076
		c0,0.617-0.118,1.171-0.355,1.661c-0.236,0.49-0.574,0.872-1.014,1.145C441.991,13.654,441.486,13.791,440.916,13.791
		 M440.904,8.107c-0.535,0-0.967,0.213-1.295,0.639c-0.328,0.426-0.492,1.035-0.492,1.828c0,0.703,0.163,1.268,0.489,1.693
		c0.326,0.426,0.763,0.639,1.31,0.639c0.551,0,0.988-0.216,1.312-0.647s0.486-1.036,0.486-1.813c0-0.695-0.165-1.259-0.495-1.69
		C441.89,8.323,441.451,8.107,440.904,8.107 M436.411,13.791c-0.484,0-0.85-0.147-1.096-0.44c-0.246-0.293-0.369-0.709-0.369-1.248
		V8.172h-1.154V7.334h1.154V5.799h1.084v1.535h1.184v0.838h-1.184v3.937c0,0.254,0.053,0.445,0.158,0.572
		c0.105,0.127,0.285,0.191,0.539,0.191c0.125,0,0.297-0.023,0.516-0.07v0.874C436.957,13.752,436.68,13.791,436.411,13.791
		 M429.4,13.791c-0.484,0-0.85-0.147-1.096-0.44c-0.246-0.293-0.369-0.709-0.369-1.248V8.172h-1.154V7.334h1.154V5.799h1.084v1.535
		h1.184v0.838h-1.184v3.937c0,0.254,0.053,0.445,0.158,0.572c0.105,0.127,0.285,0.191,0.539,0.191c0.125,0,0.297-0.023,0.516-0.07
		v0.874C429.947,13.752,429.67,13.791,429.4,13.791 M418.713,13.791c-0.859,0-1.556-0.299-2.089-0.896
		c-0.533-0.598-0.8-1.389-0.8-2.373v-0.076c0-0.621,0.122-1.18,0.366-1.676c0.244-0.496,0.584-0.879,1.02-1.148
		c0.436-0.27,0.933-0.404,1.491-0.404c0.863,0,1.562,0.299,2.095,0.896c0.533,0.598,0.8,1.393,0.8,2.385v0.076
		c0,0.617-0.118,1.171-0.354,1.661c-0.236,0.49-0.574,0.872-1.014,1.145C419.788,13.654,419.283,13.791,418.713,13.791
		 M418.701,8.107c-0.535,0-0.967,0.213-1.295,0.639c-0.328,0.426-0.492,1.035-0.492,1.828c0,0.703,0.163,1.268,0.489,1.693
		c0.326,0.426,0.763,0.639,1.31,0.639c0.551,0,0.988-0.216,1.312-0.647c0.324-0.432,0.486-1.036,0.486-1.813
		c0-0.695-0.165-1.259-0.495-1.69C419.687,8.323,419.248,8.107,418.701,8.107 M397.872,13.791c-0.676,0-1.191-0.196-1.544-0.589
		c-0.354-0.393-0.532-0.974-0.536-1.743V7.334h1.084v4.096c0,0.961,0.39,1.441,1.172,1.441c0.828,0,1.379-0.309,1.652-0.926V7.334
		h1.084v6.34h-1.031l-0.023-0.627C399.307,13.543,398.688,13.791,397.872,13.791 M391.941,13.791c-0.508,0-0.957-0.09-1.348-0.27
		c-0.391-0.18-0.696-0.431-0.917-0.753c-0.221-0.322-0.331-0.671-0.331-1.046h1.084c0.019,0.363,0.165,0.651,0.436,0.864
		c0.271,0.213,0.63,0.319,1.075,0.319c0.41,0,0.739-0.083,0.987-0.249c0.248-0.166,0.372-0.388,0.372-0.665
		c0-0.293-0.11-0.52-0.331-0.683c-0.221-0.162-0.605-0.302-1.154-0.419c-0.549-0.117-0.984-0.258-1.307-0.422
		s-0.561-0.359-0.715-0.586c-0.154-0.226-0.231-0.496-0.231-0.809c0-0.519,0.22-0.959,0.659-1.318
		c0.439-0.359,1.001-0.539,1.684-0.539c0.719,0,1.302,0.185,1.749,0.557c0.447,0.371,0.671,0.846,0.671,1.424h-1.09
		c0-0.297-0.126-0.553-0.378-0.768c-0.252-0.215-0.569-0.322-0.952-0.322c-0.395,0-0.703,0.086-0.926,0.258
		c-0.223,0.172-0.334,0.396-0.334,0.674c0,0.262,0.103,0.459,0.311,0.592c0.207,0.133,0.581,0.26,1.122,0.381
		c0.541,0.121,0.979,0.266,1.315,0.434c0.336,0.168,0.585,0.37,0.747,0.606c0.162,0.236,0.243,0.524,0.243,0.864
		c0,0.566-0.227,1.021-0.68,1.362C393.251,13.62,392.663,13.791,391.941,13.791 M379.058,13.791c-0.625,0-1.138-0.177-1.538-0.53
		c-0.4-0.353-0.601-0.802-0.601-1.345c0-0.66,0.251-1.173,0.753-1.538c0.502-0.365,1.208-0.548,2.118-0.548h1.055V9.332
		c0-0.379-0.113-0.681-0.34-0.905c-0.227-0.225-0.561-0.337-1.002-0.337c-0.387,0-0.711,0.098-0.973,0.293
		c-0.262,0.195-0.393,0.432-0.393,0.709h-1.09c0-0.316,0.112-0.622,0.337-0.917c0.225-0.295,0.529-0.528,0.914-0.7
		c0.385-0.172,0.808-0.258,1.269-0.258c0.73,0,1.303,0.183,1.717,0.548c0.414,0.365,0.629,0.868,0.644,1.509v2.918
		c0,0.582,0.074,1.045,0.223,1.389v0.094h-1.137c-0.063-0.125-0.113-0.348-0.152-0.668
		C380.359,13.529,379.758,13.791,379.058,13.791 M379.996,10.598c-1.328,0-1.992,0.389-1.992,1.166c0,0.34,0.113,0.606,0.34,0.797
		c0.227,0.192,0.518,0.287,0.873,0.287c0.34,0,0.662-0.088,0.967-0.264c0.305-0.176,0.525-0.404,0.662-0.685v-1.301H379.996
		 M370.444,13.791c-0.863,0-1.55-0.288-2.06-0.864c-0.51-0.576-0.765-1.364-0.765-2.364v-0.182c0-0.617,0.113-1.166,0.34-1.647
		c0.226-0.48,0.552-0.853,0.975-1.119c0.424-0.266,0.925-0.398,1.503-0.398c0.711,0,1.302,0.213,1.773,0.639
		c0.471,0.426,0.722,0.979,0.753,1.658h-1.025c-0.031-0.41-0.187-0.747-0.466-1.011c-0.279-0.264-0.624-0.396-1.034-0.396
		c-0.551,0-0.978,0.198-1.28,0.595c-0.303,0.396-0.454,0.97-0.454,1.72v0.205c0,0.73,0.15,1.293,0.451,1.687
		c0.301,0.395,0.73,0.592,1.289,0.592c0.387,0,0.725-0.117,1.014-0.352c0.289-0.234,0.449-0.527,0.48-0.879h1.025
		c-0.02,0.363-0.145,0.709-0.375,1.037c-0.231,0.328-0.538,0.59-0.923,0.785C371.281,13.693,370.873,13.791,370.444,13.791
		 M356.622,13.791c-0.625,0-1.138-0.177-1.538-0.53c-0.4-0.353-0.601-0.802-0.601-1.345c0-0.66,0.251-1.173,0.753-1.538
		c0.502-0.365,1.208-0.548,2.118-0.548h1.055V9.332c0-0.379-0.113-0.681-0.34-0.905c-0.227-0.225-0.561-0.337-1.002-0.337
		c-0.387,0-0.711,0.098-0.973,0.293c-0.262,0.195-0.393,0.432-0.393,0.709h-1.09c0-0.316,0.112-0.622,0.337-0.917
		c0.225-0.295,0.529-0.528,0.914-0.7c0.385-0.172,0.808-0.258,1.269-0.258c0.73,0,1.303,0.183,1.717,0.548
		c0.414,0.365,0.629,0.868,0.644,1.509v2.918c0,0.582,0.074,1.045,0.223,1.389v0.094h-1.137c-0.062-0.125-0.113-0.348-0.152-0.668
		C357.922,13.529,357.321,13.791,356.622,13.791 M357.559,10.598c-1.328,0-1.992,0.389-1.992,1.166c0,0.34,0.113,0.606,0.34,0.797
		c0.226,0.192,0.518,0.287,0.873,0.287c0.34,0,0.662-0.088,0.967-0.264c0.305-0.176,0.525-0.404,0.662-0.685v-1.301H357.559
		 M333.699,13.791c-0.735,0-1.333-0.301-1.796-0.902c-0.463-0.602-0.694-1.387-0.694-2.355v-0.082c0-0.973,0.23-1.755,0.691-2.347
		s1.064-0.888,1.811-0.888c0.742,0,1.33,0.254,1.764,0.762V4.674h1.084v9h-0.996l-0.053-0.68
		C335.076,13.525,334.472,13.791,333.699,13.791 M333.98,8.137c-0.531,0-0.945,0.205-1.242,0.615
		c-0.297,0.41-0.445,1.018-0.445,1.822c0,0.719,0.148,1.281,0.445,1.687c0.297,0.406,0.707,0.609,1.231,0.609
		c0.687,0,1.189-0.309,1.506-0.926V9.033C335.15,8.436,334.652,8.137,333.98,8.137 M320.205,13.791c-0.625,0-1.138-0.177-1.538-0.53
		c-0.4-0.353-0.601-0.802-0.601-1.345c0-0.66,0.251-1.173,0.753-1.538c0.502-0.365,1.208-0.548,2.118-0.548h1.055V9.332
		c0-0.379-0.113-0.681-0.34-0.905c-0.226-0.225-0.561-0.337-1.002-0.337c-0.387,0-0.711,0.098-0.973,0.293
		c-0.262,0.195-0.393,0.432-0.393,0.709h-1.09c0-0.316,0.112-0.622,0.337-0.917c0.225-0.295,0.529-0.528,0.914-0.7
		c0.385-0.172,0.808-0.258,1.269-0.258c0.73,0,1.303,0.183,1.717,0.548c0.414,0.365,0.629,0.868,0.645,1.509v2.918
		c0,0.582,0.074,1.045,0.223,1.389v0.094h-1.137c-0.062-0.125-0.113-0.348-0.152-0.668
		C321.506,13.529,320.905,13.791,320.205,13.791 M321.143,10.598c-1.328,0-1.992,0.389-1.992,1.166c0,0.34,0.113,0.606,0.34,0.797
		c0.226,0.192,0.518,0.287,0.873,0.287c0.34,0,0.662-0.088,0.967-0.264c0.305-0.176,0.525-0.404,0.662-0.685v-1.301H321.143
		 M311.431,13.791c-0.859,0-1.559-0.282-2.098-0.847c-0.539-0.564-0.809-1.319-0.809-2.265V10.48c0-0.629,0.12-1.19,0.36-1.685
		c0.24-0.494,0.576-0.881,1.008-1.16c0.432-0.279,0.9-0.419,1.403-0.419c0.824,0,1.465,0.271,1.922,0.814
		c0.457,0.543,0.686,1.32,0.686,2.332v0.451h-4.295c0.016,0.625,0.198,1.13,0.548,1.515c0.349,0.385,0.794,0.577,1.333,0.577
		c0.383,0,0.707-0.078,0.973-0.234c0.266-0.156,0.498-0.363,0.697-0.621l0.662,0.516C313.29,13.383,312.493,13.791,311.431,13.791
		 M311.296,8.107c-0.437,0-0.805,0.159-1.102,0.478c-0.297,0.318-0.48,0.765-0.551,1.339h3.176V9.842
		c-0.031-0.551-0.18-0.977-0.445-1.28C312.109,8.259,311.749,8.107,311.296,8.107 M293.93,13.791c-0.859,0-1.556-0.299-2.089-0.896
		c-0.533-0.598-0.8-1.389-0.8-2.373v-0.076c0-0.621,0.122-1.18,0.366-1.676c0.244-0.496,0.584-0.879,1.02-1.148
		c0.436-0.27,0.933-0.404,1.491-0.404c0.863,0,1.562,0.299,2.095,0.896c0.533,0.598,0.8,1.393,0.8,2.385v0.076
		c0,0.617-0.118,1.171-0.354,1.661c-0.236,0.49-0.574,0.872-1.014,1.145C295.005,13.654,294.5,13.791,293.93,13.791 M293.918,8.107
		c-0.535,0-0.967,0.213-1.295,0.639c-0.328,0.426-0.492,1.035-0.492,1.828c0,0.703,0.163,1.268,0.489,1.693
		c0.326,0.426,0.763,0.639,1.31,0.639c0.551,0,0.988-0.216,1.312-0.647c0.324-0.432,0.486-1.036,0.486-1.813
		c0-0.695-0.165-1.259-0.495-1.69C294.904,8.323,294.465,8.107,293.918,8.107 M287.489,13.791c-0.863,0-1.55-0.288-2.06-0.864
		c-0.51-0.576-0.765-1.364-0.765-2.364v-0.182c0-0.617,0.113-1.166,0.34-1.647c0.226-0.48,0.552-0.853,0.976-1.119
		c0.424-0.266,0.925-0.398,1.503-0.398c0.711,0,1.302,0.213,1.773,0.639c0.471,0.426,0.722,0.979,0.753,1.658h-1.025
		c-0.031-0.41-0.187-0.747-0.466-1.011c-0.279-0.264-0.624-0.396-1.034-0.396c-0.551,0-0.978,0.198-1.28,0.595
		c-0.303,0.396-0.454,0.97-0.454,1.72v0.205c0,0.73,0.15,1.293,0.451,1.687c0.301,0.395,0.73,0.592,1.289,0.592
		c0.387,0,0.725-0.117,1.014-0.352c0.289-0.234,0.449-0.527,0.48-0.879h1.025c-0.02,0.363-0.145,0.709-0.375,1.037
		c-0.23,0.328-0.538,0.59-0.923,0.785C288.326,13.693,287.919,13.791,287.489,13.791 M268.387,13.791
		c-0.508,0-0.957-0.09-1.348-0.27c-0.391-0.18-0.696-0.431-0.917-0.753c-0.221-0.322-0.331-0.671-0.331-1.046h1.084
		c0.019,0.363,0.165,0.651,0.437,0.864c0.271,0.213,0.63,0.319,1.075,0.319c0.41,0,0.739-0.083,0.987-0.249
		c0.248-0.166,0.372-0.388,0.372-0.665c0-0.293-0.11-0.52-0.331-0.683c-0.221-0.162-0.606-0.302-1.154-0.419
		c-0.549-0.117-0.984-0.258-1.307-0.422c-0.322-0.164-0.561-0.359-0.715-0.586c-0.154-0.226-0.231-0.496-0.231-0.809
		c0-0.519,0.22-0.959,0.659-1.318c0.44-0.359,1.001-0.539,1.685-0.539c0.719,0,1.302,0.185,1.749,0.557s0.671,0.846,0.671,1.424
		h-1.09c0-0.297-0.126-0.553-0.378-0.768c-0.252-0.215-0.569-0.322-0.952-0.322c-0.395,0-0.703,0.086-0.926,0.258
		s-0.334,0.396-0.334,0.674c0,0.262,0.103,0.459,0.311,0.592c0.207,0.133,0.581,0.26,1.122,0.381
		c0.541,0.121,0.979,0.266,1.315,0.434c0.336,0.168,0.585,0.37,0.747,0.606c0.162,0.236,0.243,0.524,0.243,0.864
		c0,0.566-0.227,1.021-0.68,1.362C269.697,13.62,269.109,13.791,268.387,13.791 M258.072,13.791c-0.859,0-1.559-0.282-2.098-0.847
		c-0.539-0.564-0.809-1.319-0.809-2.265V10.48c0-0.629,0.12-1.19,0.36-1.685c0.24-0.494,0.576-0.881,1.008-1.16
		c0.432-0.279,0.899-0.419,1.403-0.419c0.824,0,1.465,0.271,1.922,0.814c0.457,0.543,0.685,1.32,0.685,2.332v0.451h-4.295
		c0.016,0.625,0.198,1.13,0.548,1.515c0.35,0.385,0.794,0.577,1.333,0.577c0.383,0,0.707-0.078,0.973-0.234
		c0.266-0.156,0.498-0.363,0.697-0.621l0.662,0.516C259.931,13.383,259.134,13.791,258.072,13.791 M257.937,8.107
		c-0.438,0-0.805,0.159-1.102,0.478c-0.297,0.318-0.48,0.765-0.551,1.339h3.176V9.842c-0.031-0.551-0.18-0.977-0.445-1.28
		C258.75,8.259,258.39,8.107,257.937,8.107 M242.936,13.791c-0.859,0-1.556-0.299-2.089-0.896c-0.533-0.598-0.8-1.389-0.8-2.373
		v-0.076c0-0.621,0.122-1.18,0.366-1.676c0.244-0.496,0.584-0.879,1.02-1.148c0.436-0.27,0.933-0.404,1.491-0.404
		c0.863,0,1.562,0.299,2.095,0.896c0.533,0.598,0.8,1.393,0.8,2.385v0.076c0,0.617-0.118,1.171-0.354,1.661
		c-0.236,0.49-0.574,0.872-1.014,1.145C244.012,13.654,243.507,13.791,242.936,13.791 M242.925,8.107
		c-0.535,0-0.967,0.213-1.295,0.639c-0.328,0.426-0.492,1.035-0.492,1.828c0,0.703,0.163,1.268,0.489,1.693
		c0.326,0.426,0.763,0.639,1.31,0.639c0.551,0,0.988-0.216,1.312-0.647s0.486-1.036,0.486-1.813c0-0.695-0.165-1.259-0.495-1.69
		C243.91,8.323,243.472,8.107,242.925,8.107 M226.792,13.791c-0.863,0-1.55-0.288-2.06-0.864c-0.51-0.576-0.765-1.364-0.765-2.364
		v-0.182c0-0.617,0.113-1.166,0.34-1.647c0.226-0.48,0.552-0.853,0.975-1.119c0.424-0.266,0.925-0.398,1.503-0.398
		c0.711,0,1.302,0.213,1.773,0.639c0.471,0.426,0.722,0.979,0.753,1.658h-1.025c-0.031-0.41-0.187-0.747-0.466-1.011
		c-0.279-0.264-0.624-0.396-1.034-0.396c-0.551,0-0.978,0.198-1.28,0.595c-0.303,0.396-0.454,0.97-0.454,1.72v0.205
		c0,0.73,0.15,1.293,0.451,1.687c0.301,0.395,0.73,0.592,1.289,0.592c0.387,0,0.725-0.117,1.014-0.352
		c0.289-0.234,0.449-0.527,0.48-0.879h1.025c-0.02,0.363-0.145,0.709-0.375,1.037c-0.231,0.328-0.538,0.59-0.923,0.785
		C227.629,13.693,227.222,13.791,226.792,13.791 M187.447,13.791c-0.625,0-1.138-0.177-1.538-0.53
		c-0.4-0.353-0.601-0.802-0.601-1.345c0-0.66,0.251-1.173,0.753-1.538c0.502-0.365,1.208-0.548,2.118-0.548h1.055V9.332
		c0-0.379-0.113-0.681-0.34-0.905c-0.227-0.225-0.561-0.337-1.002-0.337c-0.387,0-0.711,0.098-0.973,0.293
		c-0.262,0.195-0.393,0.432-0.393,0.709h-1.09c0-0.316,0.112-0.622,0.337-0.917c0.225-0.295,0.529-0.528,0.914-0.7
		c0.385-0.172,0.808-0.258,1.269-0.258c0.73,0,1.303,0.183,1.717,0.548c0.414,0.365,0.629,0.868,0.645,1.509v2.918
		c0,0.582,0.074,1.045,0.223,1.389v0.094h-1.137c-0.063-0.125-0.113-0.348-0.152-0.668
		C188.748,13.529,188.147,13.791,187.447,13.791 M188.385,10.598c-1.328,0-1.992,0.389-1.992,1.166c0,0.34,0.113,0.606,0.34,0.797
		c0.226,0.192,0.518,0.287,0.873,0.287c0.34,0,0.662-0.088,0.967-0.264c0.305-0.176,0.525-0.404,0.662-0.685v-1.301H188.385
		 M170.278,13.791c-0.859,0-1.556-0.299-2.089-0.896c-0.533-0.598-0.8-1.389-0.8-2.373v-0.076c0-0.621,0.122-1.18,0.366-1.676
		c0.244-0.496,0.584-0.879,1.02-1.148c0.436-0.27,0.933-0.404,1.491-0.404c0.863,0,1.562,0.299,2.095,0.896
		c0.533,0.598,0.8,1.393,0.8,2.385v0.076c0,0.617-0.118,1.171-0.354,1.661c-0.236,0.49-0.574,0.872-1.014,1.145
		C171.353,13.654,170.848,13.791,170.278,13.791 M170.266,8.107c-0.535,0-0.967,0.213-1.295,0.639
		c-0.328,0.426-0.492,1.035-0.492,1.828c0,0.703,0.163,1.268,0.489,1.693c0.326,0.426,0.763,0.639,1.31,0.639
		c0.551,0,0.988-0.216,1.312-0.647c0.324-0.432,0.486-1.036,0.486-1.813c0-0.695-0.165-1.259-0.495-1.69
		C171.251,8.323,170.813,8.107,170.266,8.107 M151.658,13.791c-0.484,0-0.85-0.147-1.096-0.44c-0.246-0.293-0.369-0.709-0.369-1.248
		V8.172h-1.154V7.334h1.154V5.799h1.084v1.535h1.184v0.838h-1.184v3.937c0,0.254,0.053,0.445,0.158,0.572
		c0.106,0.127,0.285,0.191,0.539,0.191c0.125,0,0.297-0.023,0.516-0.07v0.874C152.205,13.752,151.928,13.791,151.658,13.791
		 M139.254,13.791c-0.859,0-1.559-0.282-2.098-0.847c-0.539-0.564-0.809-1.319-0.809-2.265V10.48c0-0.629,0.12-1.19,0.36-1.685
		c0.24-0.494,0.576-0.881,1.008-1.16c0.432-0.279,0.899-0.419,1.403-0.419c0.824,0,1.465,0.271,1.922,0.814
		c0.457,0.543,0.686,1.32,0.686,2.332v0.451h-4.295c0.015,0.625,0.198,1.13,0.548,1.515c0.35,0.385,0.794,0.577,1.333,0.577
		c0.383,0,0.707-0.078,0.973-0.234c0.266-0.156,0.498-0.363,0.697-0.621l0.662,0.516C141.113,13.383,140.316,13.791,139.254,13.791
		 M139.119,8.107c-0.437,0-0.805,0.159-1.102,0.478c-0.297,0.318-0.48,0.765-0.551,1.339h3.176V9.842
		c-0.031-0.551-0.18-0.977-0.445-1.28C139.931,8.259,139.572,8.107,139.119,8.107 M111.359,13.791c-0.859,0-1.559-0.282-2.098-0.847
		c-0.539-0.564-0.809-1.319-0.809-2.265V10.48c0-0.629,0.12-1.19,0.36-1.685c0.24-0.494,0.576-0.881,1.008-1.16
		c0.432-0.279,0.899-0.419,1.403-0.419c0.824,0,1.465,0.271,1.922,0.814c0.457,0.543,0.685,1.32,0.685,2.332v0.451h-4.295
		c0.016,0.625,0.198,1.13,0.548,1.515c0.35,0.385,0.794,0.577,1.333,0.577c0.383,0,0.707-0.078,0.973-0.234
		c0.266-0.156,0.498-0.363,0.697-0.621l0.662,0.516C113.218,13.383,112.421,13.791,111.359,13.791 M111.224,8.107
		c-0.438,0-0.805,0.159-1.102,0.478c-0.297,0.318-0.48,0.765-0.551,1.339h3.176V9.842c-0.031-0.551-0.18-0.977-0.445-1.28
		C112.036,8.259,111.677,8.107,111.224,8.107 M99.003,13.791c-0.859,0-1.556-0.299-2.089-0.896c-0.533-0.598-0.8-1.389-0.8-2.373
		v-0.076c0-0.621,0.122-1.18,0.366-1.676c0.244-0.496,0.584-0.879,1.02-1.148c0.436-0.27,0.933-0.404,1.491-0.404
		c0.863,0,1.562,0.299,2.095,0.896c0.533,0.598,0.8,1.393,0.8,2.385v0.076c0,0.617-0.118,1.171-0.354,1.661
		s-0.574,0.872-1.014,1.145C100.078,13.654,99.573,13.791,99.003,13.791 M98.991,8.107c-0.535,0-0.967,0.213-1.295,0.639
		c-0.328,0.426-0.492,1.035-0.492,1.828c0,0.703,0.163,1.268,0.489,1.693c0.326,0.426,0.763,0.639,1.31,0.639
		c0.551,0,0.988-0.216,1.313-0.647c0.324-0.432,0.486-1.036,0.486-1.813c0-0.695-0.165-1.259-0.495-1.69
		C99.977,8.323,99.538,8.107,98.991,8.107 M81.948,13.791c-0.625,0-1.138-0.177-1.538-0.53c-0.4-0.353-0.601-0.802-0.601-1.345
		c0-0.66,0.251-1.173,0.753-1.538c0.502-0.365,1.208-0.548,2.118-0.548h1.055V9.332c0-0.379-0.113-0.681-0.34-0.905
		c-0.227-0.225-0.561-0.337-1.002-0.337c-0.387,0-0.711,0.098-0.973,0.293c-0.262,0.195-0.393,0.432-0.393,0.709h-1.09
		c0-0.316,0.112-0.622,0.337-0.917c0.225-0.295,0.529-0.528,0.914-0.7c0.385-0.172,0.808-0.258,1.269-0.258
		c0.73,0,1.303,0.183,1.717,0.548c0.414,0.365,0.629,0.868,0.645,1.509v2.918c0,0.582,0.074,1.045,0.223,1.389v0.094h-1.137
		c-0.063-0.125-0.113-0.348-0.152-0.668C83.249,13.529,82.647,13.791,81.948,13.791 M82.886,10.598
		c-1.328,0-1.992,0.389-1.992,1.166c0,0.34,0.113,0.606,0.34,0.797c0.226,0.192,0.518,0.287,0.873,0.287
		c0.34,0,0.662-0.088,0.967-0.264c0.305-0.176,0.525-0.404,0.662-0.685v-1.301H82.886 M73.045,13.791
		c-0.508,0-0.957-0.09-1.348-0.27c-0.391-0.18-0.696-0.431-0.917-0.753c-0.221-0.322-0.331-0.671-0.331-1.046h1.084
		c0.019,0.363,0.165,0.651,0.437,0.864c0.271,0.213,0.63,0.319,1.075,0.319c0.41,0,0.739-0.083,0.987-0.249
		c0.248-0.166,0.372-0.388,0.372-0.665c0-0.293-0.11-0.52-0.331-0.683c-0.221-0.162-0.606-0.302-1.154-0.419
		c-0.549-0.117-0.984-0.258-1.307-0.422c-0.322-0.164-0.561-0.359-0.715-0.586c-0.154-0.226-0.231-0.496-0.231-0.809
		c0-0.519,0.22-0.959,0.659-1.318c0.44-0.359,1.001-0.539,1.685-0.539c0.719,0,1.302,0.185,1.749,0.557
		c0.447,0.371,0.671,0.846,0.671,1.424h-1.09c0-0.297-0.126-0.553-0.378-0.768c-0.252-0.215-0.569-0.322-0.952-0.322
		c-0.395,0-0.703,0.086-0.926,0.258c-0.223,0.172-0.334,0.396-0.334,0.674c0,0.262,0.104,0.459,0.311,0.592
		c0.207,0.133,0.581,0.26,1.122,0.381c0.541,0.121,0.979,0.266,1.315,0.434c0.336,0.168,0.585,0.37,0.747,0.606
		c0.162,0.236,0.243,0.524,0.243,0.864c0,0.566-0.227,1.021-0.68,1.362C74.355,13.62,73.767,13.791,73.045,13.791 M42.347,13.791
		c-0.859,0-1.559-0.282-2.098-0.847c-0.539-0.564-0.809-1.319-0.809-2.265V10.48c0-0.629,0.12-1.19,0.36-1.685
		c0.24-0.494,0.576-0.881,1.008-1.16c0.432-0.279,0.899-0.419,1.403-0.419c0.824,0,1.465,0.271,1.922,0.814
		c0.457,0.543,0.686,1.32,0.686,2.332v0.451h-4.295c0.015,0.625,0.198,1.13,0.548,1.515c0.35,0.385,0.794,0.577,1.333,0.577
		c0.383,0,0.707-0.078,0.973-0.234c0.266-0.156,0.498-0.363,0.697-0.621l0.662,0.516C44.206,13.383,43.409,13.791,42.347,13.791
		 M42.212,8.107c-0.438,0-0.805,0.159-1.102,0.478c-0.297,0.318-0.48,0.765-0.551,1.339h3.176V9.842
		c-0.031-0.551-0.18-0.977-0.445-1.28C43.025,8.259,42.665,8.107,42.212,8.107 M33.638,13.791c-0.484,0-0.85-0.147-1.096-0.44
		c-0.246-0.293-0.369-0.709-0.369-1.248V8.172h-1.154V7.334h1.154V5.799h1.084v1.535h1.184v0.838h-1.184v3.937
		c0,0.254,0.053,0.445,0.158,0.572c0.105,0.127,0.285,0.191,0.539,0.191c0.125,0,0.297-0.023,0.516-0.07v0.874
		C34.184,13.752,33.907,13.791,33.638,13.791 M21.233,13.791c-0.859,0-1.559-0.282-2.098-0.847
		c-0.539-0.564-0.809-1.319-0.809-2.265V10.48c0-0.629,0.12-1.19,0.36-1.685s0.576-0.881,1.008-1.16
		c0.432-0.279,0.9-0.419,1.403-0.419c0.824,0,1.465,0.271,1.922,0.814c0.457,0.543,0.686,1.32,0.686,2.332v0.451h-4.295
		c0.015,0.625,0.198,1.13,0.548,1.515c0.349,0.385,0.794,0.577,1.333,0.577c0.383,0,0.707-0.078,0.973-0.234
		c0.266-0.156,0.498-0.363,0.697-0.621l0.662,0.516C23.092,13.383,22.296,13.791,21.233,13.791 M21.098,8.107
		c-0.437,0-0.805,0.159-1.102,0.478c-0.297,0.318-0.48,0.765-0.551,1.339h3.176V9.842c-0.031-0.551-0.18-0.977-0.445-1.28
		C21.911,8.259,21.551,8.107,21.098,8.107 M13.873,13.791c-1.008,0-1.815-0.361-2.423-1.084c-0.607-0.723-0.911-1.689-0.911-2.9
		v-0.82c0-0.793,0.142-1.49,0.425-2.092s0.685-1.063,1.204-1.386c0.519-0.322,1.121-0.483,1.805-0.483
		c0.906,0,1.633,0.253,2.18,0.759c0.547,0.506,0.865,1.206,0.955,2.101h-1.131c-0.098-0.682-0.31-1.175-0.636-1.481
		c-0.326-0.306-0.782-0.458-1.368-0.458c-0.719,0-1.282,0.266-1.69,0.798c-0.408,0.532-0.612,1.288-0.612,2.269v0.827
		c0,0.927,0.193,1.664,0.58,2.211c0.387,0.547,0.928,0.821,1.623,0.821c0.625,0,1.105-0.142,1.439-0.425
		c0.334-0.283,0.556-0.776,0.665-1.479h1.131c-0.105,0.902-0.438,1.599-0.999,2.089C15.548,13.546,14.803,13.791,13.873,13.791
		 M478.157,13.674h-1.084v-9h1.084V13.674 M468.442,13.674h-1.084v-6.34h1.084V13.674 M458.756,13.674h-1.084v-6.34h1.084V13.674
		 M455.871,13.674h-1.084v-9h1.084V13.674 M424.092,13.674h-1.084v-6.34h1.055l0.018,0.732c0.355-0.566,0.859-0.85,1.512-0.85
		c0.211,0,0.371,0.027,0.48,0.082v1.008c-0.164-0.027-0.342-0.041-0.533-0.041c-0.711,0-1.193,0.303-1.447,0.908V13.674
		 M384.783,13.674h-1.084v-9h1.084V13.674 M375.421,13.674h-1.084v-6.34h1.084V13.674 M366.209,13.674h-1.084V9.479
		c-0.004-0.457-0.108-0.795-0.313-1.014c-0.205-0.219-0.524-0.328-0.958-0.328c-0.352,0-0.66,0.094-0.926,0.281
		c-0.266,0.188-0.473,0.434-0.621,0.738v4.518h-1.084v-6.34h1.025l0.035,0.797c0.484-0.609,1.117-0.914,1.898-0.914
		c1.34,0,2.016,0.756,2.027,2.267V13.674 M353.047,13.674h-1.084V9.479c-0.004-0.457-0.108-0.795-0.313-1.014
		c-0.205-0.219-0.524-0.328-0.958-0.328c-0.352,0-0.66,0.094-0.926,0.281c-0.266,0.188-0.473,0.434-0.621,0.738v4.518h-1.084v-6.34
		h1.025l0.035,0.797c0.484-0.609,1.117-0.914,1.898-0.914c1.34,0,2.016,0.756,2.027,2.267V13.674 M346.211,13.674h-1.09v-6.34h1.09
		V13.674 M342.784,13.674h-1.09V8.172h-1.002V7.334h1.002V6.795c0-0.707,0.202-1.258,0.606-1.652
		c0.404-0.394,0.976-0.592,1.714-0.592c0.437,0,0.99,0.119,1.658,0.358l-0.182,0.914c-0.488-0.195-0.953-0.293-1.394-0.293
		c-0.465,0-0.8,0.105-1.005,0.313c-0.205,0.209-0.308,0.523-0.308,0.941v0.551h1.295v0.838h-1.295V13.674 M329.793,13.674h-1.084
		V9.479c-0.004-0.457-0.108-0.795-0.314-1.014c-0.205-0.219-0.524-0.328-0.958-0.328c-0.352,0-0.66,0.094-0.926,0.281
		c-0.266,0.188-0.473,0.434-0.621,0.738v4.518h-1.084v-6.34h1.025l0.035,0.797c0.484-0.609,1.117-0.914,1.898-0.914
		c1.34,0,2.016,0.756,2.027,2.267V13.674 M307.114,13.674h-1.084V9.49c0-0.453-0.104-0.792-0.311-1.017
		c-0.207-0.225-0.555-0.337-1.043-0.337c-0.402,0-0.736,0.12-1.002,0.36c-0.266,0.24-0.42,0.564-0.463,0.97v4.207h-1.09V9.52
		c0-0.922-0.451-1.383-1.354-1.383c-0.711,0-1.197,0.303-1.459,0.908v4.629h-1.084v-6.34h1.025l0.029,0.703
		c0.465-0.547,1.092-0.82,1.881-0.82c0.887,0,1.49,0.34,1.81,1.019c0.211-0.305,0.485-0.551,0.823-0.738
		c0.338-0.188,0.737-0.281,1.198-0.281c1.391,0,2.098,0.736,2.121,2.209V13.674 M283.255,13.674h-1.084V9.479
		c-0.004-0.457-0.108-0.795-0.313-1.014c-0.205-0.219-0.524-0.328-0.958-0.328c-0.352,0-0.66,0.094-0.926,0.281
		c-0.266,0.188-0.473,0.434-0.621,0.738v4.518h-1.084v-6.34h1.025l0.035,0.797c0.484-0.609,1.117-0.914,1.898-0.914
		c1.34,0,2.016,0.756,2.027,2.267V13.674 M276.51,13.674h-1.084v-6.34h1.084V13.674 M263.006,13.674h-1.084v-6.34h1.055l0.018,0.732
		c0.355-0.566,0.859-0.85,1.512-0.85c0.211,0,0.371,0.027,0.48,0.082v1.008c-0.164-0.027-0.342-0.041-0.533-0.041
		c-0.711,0-1.193,0.303-1.447,0.908V13.674 M253.053,13.674h-1.084V8.172h-1.002V7.334h1.002v-0.65c0-0.68,0.182-1.205,0.545-1.576
		c0.363-0.371,0.877-0.557,1.541-0.557c0.25,0,0.498,0.033,0.744,0.099l-0.059,0.874c-0.184-0.035-0.379-0.053-0.586-0.053
		c-0.352,0-0.623,0.103-0.814,0.309c-0.191,0.206-0.287,0.501-0.287,0.885v0.67h1.354v0.838h-1.354V13.674 M248.658,13.674h-1.084
		V8.172h-1.002V7.334h1.002v-0.65c0-0.68,0.182-1.205,0.545-1.576c0.363-0.371,0.877-0.557,1.541-0.557
		c0.25,0,0.498,0.033,0.744,0.099l-0.059,0.874c-0.184-0.035-0.379-0.053-0.586-0.053c-0.352,0-0.623,0.103-0.814,0.309
		c-0.191,0.206-0.287,0.501-0.287,0.885v0.67h1.353v0.838h-1.353V13.674 M235.621,13.674h-1.084V9.479
		c-0.004-0.457-0.108-0.795-0.313-1.014c-0.205-0.219-0.524-0.328-0.958-0.328c-0.352,0-0.66,0.094-0.926,0.281
		c-0.266,0.188-0.473,0.434-0.621,0.738v4.518h-1.084v-9h1.084v3.428c0.48-0.59,1.105-0.885,1.875-0.885
		c1.34,0,2.016,0.756,2.027,2.267V13.674 M222.515,13.674h-1.084v-6.34h1.084V13.674 M219.714,13.674h-1.084V9.479
		c-0.004-0.457-0.109-0.795-0.314-1.014c-0.205-0.219-0.524-0.328-0.958-0.328c-0.352,0-0.66,0.094-0.926,0.281
		c-0.266,0.188-0.473,0.434-0.621,0.738v4.518h-1.084v-9h1.084v3.428c0.48-0.59,1.105-0.885,1.875-0.885
		c1.34,0,2.016,0.756,2.027,2.267V13.674 M211.734,13.674h-0.879l-1.541-4.805l-1.5,4.805h-0.879l-1.84-6.34h1.078l1.248,4.746
		l1.476-4.746h0.873l1.506,4.846l1.219-4.846h1.084L211.734,13.674 M200.938,13.674h-1.084V9.49c0-0.453-0.104-0.792-0.311-1.017
		c-0.207-0.225-0.555-0.337-1.043-0.337c-0.402,0-0.736,0.12-1.002,0.36c-0.266,0.24-0.42,0.564-0.463,0.97v4.207h-1.09V9.52
		c0-0.922-0.451-1.383-1.353-1.383c-0.711,0-1.197,0.303-1.459,0.908v4.629h-1.084v-6.34h1.025l0.029,0.703
		c0.465-0.547,1.092-0.82,1.881-0.82c0.887,0,1.49,0.34,1.811,1.019c0.211-0.305,0.485-0.551,0.823-0.738
		c0.338-0.188,0.737-0.281,1.198-0.281c1.391,0,2.098,0.736,2.121,2.209V13.674 M182.454,13.674h-1.084v-6.34h1.055l0.018,0.732
		c0.355-0.566,0.859-0.85,1.512-0.85c0.211,0,0.371,0.027,0.48,0.082v1.008c-0.164-0.027-0.342-0.041-0.533-0.041
		c-0.711,0-1.193,0.303-1.447,0.908V13.674 M164.712,13.674h-1.084v-6.34h1.055l0.018,0.732c0.355-0.566,0.859-0.85,1.512-0.85
		c0.211,0,0.371,0.027,0.48,0.082v1.008c-0.164-0.027-0.342-0.041-0.533-0.041c-0.711,0-1.193,0.303-1.447,0.908V13.674
		 M148.09,13.674h-1.084V9.479c-0.004-0.457-0.109-0.795-0.313-1.014c-0.205-0.219-0.524-0.328-0.958-0.328
		c-0.352,0-0.66,0.094-0.926,0.281c-0.266,0.188-0.473,0.434-0.621,0.738v4.518h-1.084v-6.34h1.025l0.035,0.797
		c0.484-0.609,1.117-0.914,1.898-0.914c1.34,0,2.016,0.756,2.027,2.267V13.674 M134.936,13.674h-1.084V9.49
		c0-0.453-0.104-0.792-0.311-1.017c-0.207-0.225-0.555-0.337-1.043-0.337c-0.402,0-0.736,0.12-1.002,0.36
		c-0.266,0.24-0.42,0.564-0.463,0.97v4.207h-1.09V9.52c0-0.922-0.451-1.383-1.354-1.383c-0.711,0-1.197,0.303-1.459,0.908v4.629
		h-1.084v-6.34h1.025l0.029,0.703c0.465-0.547,1.092-0.82,1.881-0.82c0.887,0,1.49,0.34,1.811,1.019
		c0.211-0.305,0.485-0.551,0.823-0.738c0.338-0.188,0.737-0.281,1.198-0.281c1.391,0,2.098,0.736,2.121,2.209V13.674
		 M124.352,13.674h-1.084V9.479c-0.004-0.457-0.108-0.795-0.313-1.014c-0.205-0.219-0.524-0.328-0.958-0.328
		c-0.352,0-0.66,0.094-0.926,0.281c-0.266,0.188-0.473,0.434-0.621,0.738v4.518h-1.084v-6.34h1.025l0.035,0.797
		c0.484-0.609,1.117-0.914,1.898-0.914c1.34,0,2.016,0.756,2.027,2.267V13.674 M116.293,13.674h-1.084v-6.34h1.055l0.018,0.732
		c0.355-0.566,0.859-0.85,1.512-0.85c0.211,0,0.371,0.027,0.48,0.082v1.008c-0.164-0.027-0.342-0.041-0.533-0.041
		c-0.711,0-1.193,0.303-1.447,0.908V13.674 M105.585,13.674h-0.826l-2.297-6.34h1.107l1.611,4.869l1.57-4.869h1.108L105.585,13.674
		 M69.014,13.674H67.93v-6.34h1.084V13.674 M63.914,13.674h-1.271l-2.209-2.936l-0.68,0.709v2.226H58.67v-9h1.084v5.443l0.58-0.697
		l1.975-2.086h1.318L61.16,9.982L63.914,13.674 M56.968,13.674h-1.084V9.479c-0.004-0.457-0.108-0.795-0.313-1.014
		c-0.205-0.219-0.524-0.328-0.958-0.328c-0.352,0-0.66,0.094-0.926,0.281c-0.266,0.188-0.473,0.434-0.621,0.738v4.518h-1.084v-6.34
		h1.025l0.035,0.797c0.484-0.609,1.117-0.914,1.898-0.914c1.34,0,2.016,0.756,2.027,2.267V13.674 M50.223,13.674h-1.084v-6.34h1.084
		V13.674 M47.338,13.674h-1.084v-9h1.084V13.674 M36.763,13.674h-1.084v-6.34h1.055l0.018,0.732c0.355-0.566,0.859-0.85,1.512-0.85
		c0.211,0,0.371,0.027,0.48,0.082v1.008c-0.164-0.027-0.342-0.041-0.533-0.041c-0.711,0-1.193,0.303-1.447,0.908V13.674
		 M30.07,13.674h-1.084V9.479c-0.004-0.457-0.108-0.795-0.313-1.014c-0.205-0.219-0.524-0.328-0.958-0.328
		c-0.352,0-0.66,0.094-0.926,0.281c-0.266,0.188-0.473,0.434-0.621,0.738v4.518h-1.084v-6.34h1.025l0.035,0.797
		c0.484-0.609,1.117-0.914,1.898-0.914c1.34,0,2.016,0.756,2.027,2.267V13.674 M467.908,6.268c-0.211,0-0.37-0.059-0.478-0.176
		s-0.161-0.264-0.161-0.439c0-0.176,0.054-0.324,0.161-0.445c0.107-0.121,0.267-0.182,0.478-0.182c0.211,0,0.371,0.061,0.48,0.182
		c0.109,0.121,0.164,0.27,0.164,0.445c0,0.176-0.055,0.322-0.164,0.439C468.28,6.209,468.119,6.268,467.908,6.268 M458.223,6.268
		c-0.211,0-0.37-0.059-0.478-0.176c-0.107-0.117-0.161-0.264-0.161-0.439c0-0.176,0.054-0.324,0.161-0.445
		c0.107-0.121,0.267-0.182,0.478-0.182c0.211,0,0.371,0.061,0.48,0.182c0.109,0.121,0.164,0.27,0.164,0.445
		c0,0.176-0.055,0.322-0.164,0.439C458.594,6.209,458.434,6.268,458.223,6.268 M374.888,6.268c-0.211,0-0.37-0.059-0.478-0.176
		c-0.107-0.117-0.161-0.264-0.161-0.439c0-0.176,0.054-0.324,0.161-0.445c0.107-0.121,0.267-0.182,0.478-0.182
		c0.211,0,0.371,0.061,0.48,0.182c0.109,0.121,0.164,0.27,0.164,0.445c0,0.176-0.055,0.322-0.164,0.439
		C375.259,6.209,375.099,6.268,374.888,6.268 M275.977,6.268c-0.211,0-0.37-0.059-0.478-0.176c-0.107-0.117-0.161-0.264-0.161-0.439
		c0-0.176,0.054-0.324,0.161-0.445c0.107-0.121,0.267-0.182,0.478-0.182c0.211,0,0.371,0.061,0.48,0.182
		c0.109,0.121,0.164,0.27,0.164,0.445c0,0.176-0.055,0.322-0.164,0.439C276.348,6.209,276.188,6.268,275.977,6.268 M221.981,6.268
		c-0.211,0-0.37-0.059-0.478-0.176c-0.107-0.117-0.161-0.264-0.161-0.439c0-0.176,0.054-0.324,0.161-0.445
		c0.107-0.121,0.267-0.182,0.478-0.182c0.211,0,0.371,0.061,0.48,0.182c0.109,0.121,0.164,0.27,0.164,0.445
		c0,0.176-0.055,0.322-0.164,0.439C222.353,6.209,222.192,6.268,221.981,6.268 M68.481,6.268c-0.211,0-0.37-0.059-0.478-0.176
		c-0.107-0.117-0.161-0.264-0.161-0.439c0-0.176,0.054-0.324,0.161-0.445c0.107-0.121,0.267-0.182,0.478-0.182
		c0.211,0,0.371,0.061,0.48,0.182c0.109,0.121,0.164,0.27,0.164,0.445c0,0.176-0.055,0.322-0.164,0.439S68.692,6.268,68.481,6.268
		 M49.69,6.268c-0.211,0-0.37-0.059-0.478-0.176c-0.107-0.117-0.161-0.264-0.161-0.439c0-0.176,0.054-0.324,0.161-0.445
		c0.107-0.121,0.267-0.182,0.478-0.182c0.211,0,0.371,0.061,0.48,0.182c0.109,0.121,0.164,0.27,0.164,0.445
		c0,0.176-0.055,0.322-0.164,0.439S49.901,6.268,49.69,6.268"/>
	<path fill="#000000" d="M244.36,32.234l-0.205-0.018l-0.404-0.076v-0.879l0.293,0.023c0.367,0,0.653-0.074,0.859-0.223
		c0.205-0.148,0.374-0.42,0.507-0.814l0.24-0.645l-2.262-6.269h1.184l1.582,4.752l1.477-4.752h1.16l-2.549,7.318
		C245.847,31.707,245.22,32.234,244.36,32.234 M419.415,32.17c-0.457,0-0.904-0.098-1.342-0.293
		c-0.438-0.195-0.772-0.463-1.002-0.803l0.562-0.65c0.465,0.574,1.033,0.861,1.705,0.861c0.527,0,0.938-0.148,1.233-0.445
		c0.295-0.297,0.442-0.715,0.442-1.254v-0.545c-0.434,0.5-1.025,0.75-1.775,0.75c-0.742,0-1.343-0.299-1.802-0.896
		c-0.459-0.598-0.689-1.412-0.689-2.443c0-0.988,0.229-1.774,0.686-2.358c0.457-0.584,1.062-0.876,1.816-0.876
		c0.773,0,1.377,0.273,1.811,0.82l0.053-0.703h0.99v6.187c0,0.82-0.243,1.467-0.729,1.939
		C420.888,31.934,420.235,32.17,419.415,32.17 M419.52,24.137c-0.527,0-0.94,0.205-1.236,0.615c-0.297,0.41-0.445,1.018-0.445,1.822
		c0,0.715,0.147,1.277,0.44,1.685c0.293,0.408,0.703,0.612,1.23,0.612c0.684,0,1.186-0.311,1.506-0.932v-2.895
		C420.682,24.44,420.184,24.137,419.52,24.137 M192.489,32.17c-0.457,0-0.904-0.098-1.342-0.293
		c-0.438-0.195-0.772-0.463-1.002-0.803l0.562-0.65c0.465,0.574,1.033,0.861,1.705,0.861c0.527,0,0.938-0.148,1.233-0.445
		c0.295-0.297,0.442-0.715,0.442-1.254v-0.545c-0.434,0.5-1.025,0.75-1.775,0.75c-0.742,0-1.343-0.299-1.802-0.896
		c-0.459-0.598-0.689-1.412-0.689-2.443c0-0.988,0.229-1.774,0.686-2.358c0.457-0.584,1.062-0.876,1.816-0.876
		c0.773,0,1.377,0.273,1.811,0.82l0.053-0.703h0.99v6.187c0,0.82-0.243,1.467-0.729,1.939
		C193.963,31.934,193.31,32.17,192.489,32.17 M192.595,24.137c-0.527,0-0.94,0.205-1.236,0.615c-0.297,0.41-0.445,1.018-0.445,1.822
		c0,0.715,0.146,1.277,0.439,1.685c0.293,0.408,0.703,0.612,1.231,0.612c0.684,0,1.186-0.311,1.506-0.932v-2.895
		C193.757,24.44,193.259,24.137,192.595,24.137 M305.779,32.111h-1.084v-8.777h0.99l0.053,0.703c0.441-0.547,1.055-0.82,1.84-0.82
		c0.762,0,1.364,0.287,1.808,0.861c0.443,0.574,0.665,1.373,0.665,2.396v0.1c0,0.965-0.221,1.742-0.662,2.332
		c-0.441,0.59-1.039,0.885-1.793,0.885c-0.77,0-1.375-0.244-1.816-0.732V32.111 M307.255,24.137c-0.656,0-1.149,0.291-1.477,0.873
		v3.029c0.324,0.578,0.82,0.867,1.488,0.867c0.519,0,0.933-0.206,1.239-0.618c0.307-0.412,0.46-1.024,0.46-1.837
		c0-0.715-0.152-1.279-0.457-1.693C308.205,24.344,307.786,24.137,307.255,24.137 M273.626,32.111h-1.084v-8.777h0.99l0.053,0.703
		c0.441-0.547,1.055-0.82,1.84-0.82c0.762,0,1.364,0.287,1.808,0.861c0.443,0.574,0.665,1.373,0.665,2.396v0.1
		c0,0.965-0.221,1.742-0.662,2.332c-0.441,0.59-1.039,0.885-1.793,0.885c-0.77,0-1.375-0.244-1.816-0.732V32.111 M275.103,24.137
		c-0.656,0-1.148,0.291-1.476,0.873v3.029c0.324,0.578,0.82,0.867,1.488,0.867c0.519,0,0.933-0.206,1.239-0.618
		c0.307-0.412,0.46-1.024,0.46-1.837c0-0.715-0.152-1.279-0.457-1.693C276.052,24.344,275.634,24.137,275.103,24.137
		 M266.816,32.111h-1.084v-8.777h0.99l0.053,0.703c0.441-0.547,1.055-0.82,1.84-0.82c0.762,0,1.364,0.287,1.808,0.861
		c0.443,0.574,0.665,1.373,0.665,2.396v0.1c0,0.965-0.221,1.742-0.662,2.332c-0.442,0.59-1.039,0.885-1.793,0.885
		c-0.77,0-1.375-0.244-1.816-0.732V32.111 M268.293,24.137c-0.656,0-1.148,0.291-1.477,0.873v3.029
		c0.324,0.578,0.82,0.867,1.488,0.867c0.52,0,0.933-0.206,1.239-0.618c0.307-0.412,0.46-1.024,0.46-1.837
		c0-0.715-0.152-1.279-0.457-1.693C269.242,24.344,268.824,24.137,268.293,24.137 M489.033,29.791c-0.508,0-0.957-0.09-1.348-0.27
		c-0.391-0.18-0.696-0.431-0.917-0.753c-0.221-0.322-0.331-0.671-0.331-1.046h1.084c0.019,0.363,0.165,0.651,0.436,0.864
		c0.271,0.213,0.63,0.319,1.075,0.319c0.41,0,0.739-0.083,0.987-0.249c0.248-0.166,0.372-0.388,0.372-0.665
		c0-0.293-0.11-0.52-0.331-0.683c-0.221-0.162-0.606-0.302-1.154-0.419c-0.549-0.117-0.984-0.258-1.307-0.422
		s-0.561-0.359-0.715-0.586c-0.154-0.226-0.231-0.496-0.231-0.809c0-0.52,0.22-0.959,0.659-1.318
		c0.439-0.359,1.001-0.539,1.684-0.539c0.719,0,1.302,0.185,1.749,0.557c0.447,0.371,0.671,0.846,0.671,1.424h-1.09
		c0-0.297-0.126-0.553-0.378-0.768c-0.252-0.215-0.569-0.322-0.952-0.322c-0.395,0-0.703,0.086-0.926,0.258
		c-0.223,0.172-0.334,0.396-0.334,0.674c0,0.262,0.103,0.459,0.311,0.592c0.207,0.133,0.581,0.26,1.122,0.381
		c0.541,0.121,0.979,0.266,1.315,0.434c0.336,0.168,0.585,0.37,0.747,0.606c0.162,0.236,0.243,0.524,0.243,0.864
		c0,0.566-0.227,1.021-0.68,1.362C490.344,29.62,489.756,29.791,489.033,29.791 M484.641,29.791c-0.484,0-0.85-0.146-1.096-0.439
		c-0.246-0.293-0.369-0.709-0.369-1.248v-3.932h-1.154v-0.838h1.154v-1.535h1.084v1.535h1.184v0.838h-1.184v3.936
		c0,0.254,0.053,0.445,0.158,0.572c0.105,0.127,0.285,0.191,0.539,0.191c0.125,0,0.297-0.023,0.516-0.07v0.874
		C485.188,29.752,484.911,29.791,484.641,29.791 M472.237,29.791c-0.859,0-1.559-0.282-2.098-0.847
		c-0.539-0.565-0.809-1.319-0.809-2.265V26.48c0-0.629,0.12-1.19,0.36-1.685c0.24-0.494,0.576-0.881,1.008-1.16
		c0.432-0.279,0.899-0.419,1.403-0.419c0.824,0,1.465,0.272,1.922,0.814c0.457,0.543,0.685,1.32,0.685,2.332v0.451h-4.295
		c0.016,0.625,0.198,1.13,0.548,1.515c0.35,0.385,0.794,0.577,1.333,0.577c0.383,0,0.707-0.078,0.973-0.234
		c0.266-0.156,0.498-0.363,0.697-0.621l0.662,0.516C474.096,29.383,473.299,29.791,472.237,29.791 M472.102,24.107
		c-0.438,0-0.805,0.159-1.102,0.478c-0.297,0.318-0.48,0.765-0.551,1.339h3.176v-0.082c-0.031-0.551-0.18-0.978-0.445-1.28
		C472.914,24.259,472.555,24.107,472.102,24.107 M465.014,29.791c-0.734,0-1.333-0.301-1.796-0.902
		c-0.463-0.602-0.694-1.387-0.694-2.355v-0.082c0-0.973,0.23-1.755,0.691-2.347c0.461-0.592,1.064-0.888,1.811-0.888
		c0.742,0,1.33,0.254,1.764,0.762v-3.305h1.084v9h-0.996l-0.053-0.68C466.391,29.525,465.788,29.791,465.014,29.791 M465.296,24.137
		c-0.531,0-0.945,0.205-1.242,0.615c-0.297,0.41-0.445,1.018-0.445,1.822c0,0.719,0.148,1.281,0.445,1.688
		c0.297,0.406,0.707,0.609,1.23,0.609c0.688,0,1.19-0.309,1.506-0.926v-2.912C466.466,24.436,465.967,24.137,465.296,24.137
		 M458.169,29.791c-0.676,0-1.19-0.196-1.544-0.589c-0.354-0.392-0.532-0.974-0.536-1.743v-4.125h1.084v4.096
		c0,0.961,0.391,1.441,1.172,1.441c0.828,0,1.379-0.309,1.652-0.926v-4.611h1.084v6.34h-1.031l-0.023-0.627
		C459.605,29.543,458.986,29.791,458.169,29.791 M454.071,29.791c-0.484,0-0.85-0.146-1.096-0.439
		c-0.246-0.293-0.369-0.709-0.369-1.248v-3.932h-1.154v-0.838h1.154v-1.535h1.084v1.535h1.184v0.838h-1.184v3.936
		c0,0.254,0.053,0.445,0.158,0.572c0.105,0.127,0.285,0.191,0.539,0.191c0.125,0,0.297-0.023,0.516-0.07v0.874
		C454.617,29.752,454.34,29.791,454.071,29.791 M448.21,29.791c-0.508,0-0.957-0.09-1.348-0.27c-0.391-0.18-0.696-0.431-0.917-0.753
		c-0.221-0.322-0.331-0.671-0.331-1.046h1.084c0.02,0.363,0.165,0.651,0.437,0.864c0.271,0.213,0.63,0.319,1.075,0.319
		c0.41,0,0.739-0.083,0.987-0.249c0.248-0.166,0.372-0.388,0.372-0.665c0-0.293-0.11-0.52-0.331-0.683
		c-0.221-0.162-0.606-0.302-1.154-0.419c-0.549-0.117-0.984-0.258-1.307-0.422c-0.322-0.164-0.561-0.359-0.715-0.586
		c-0.154-0.226-0.231-0.496-0.231-0.809c0-0.52,0.22-0.959,0.659-1.318c0.439-0.359,1.001-0.539,1.685-0.539
		c0.719,0,1.302,0.185,1.749,0.557c0.447,0.371,0.671,0.846,0.671,1.424h-1.09c0-0.297-0.126-0.553-0.378-0.768
		c-0.252-0.215-0.569-0.322-0.952-0.322c-0.395,0-0.703,0.086-0.926,0.258c-0.223,0.172-0.334,0.396-0.334,0.674
		c0,0.262,0.103,0.459,0.311,0.592c0.207,0.133,0.581,0.26,1.122,0.381c0.541,0.121,0.979,0.266,1.315,0.434
		c0.336,0.168,0.585,0.37,0.747,0.606c0.162,0.236,0.243,0.524,0.243,0.864c0,0.566-0.227,1.021-0.68,1.362
		C449.521,29.62,448.933,29.791,448.21,29.791 M439.061,29.791c-0.859,0-1.559-0.282-2.098-0.847
		c-0.539-0.565-0.809-1.319-0.809-2.265V26.48c0-0.629,0.12-1.19,0.36-1.685c0.24-0.494,0.576-0.881,1.008-1.16
		c0.432-0.279,0.899-0.419,1.403-0.419c0.824,0,1.465,0.272,1.922,0.814c0.457,0.543,0.685,1.32,0.685,2.332v0.451h-4.295
		c0.016,0.625,0.198,1.13,0.548,1.515c0.35,0.385,0.794,0.577,1.333,0.577c0.383,0,0.707-0.078,0.973-0.234
		c0.266-0.156,0.498-0.363,0.697-0.621l0.662,0.516C440.92,29.383,440.123,29.791,439.061,29.791 M438.926,24.107
		c-0.438,0-0.805,0.159-1.102,0.478c-0.297,0.318-0.48,0.765-0.551,1.339h3.176v-0.082c-0.031-0.551-0.18-0.978-0.445-1.28
		C439.738,24.259,439.379,24.107,438.926,24.107 M429.612,29.791c-0.801,0-1.42-0.283-1.857-0.85l-0.053,0.732h-0.996v-9h1.084
		v3.357c0.437-0.543,1.041-0.814,1.811-0.814c0.769,0,1.374,0.291,1.813,0.873c0.44,0.582,0.659,1.379,0.659,2.391v0.094
		c0,0.969-0.223,1.747-0.668,2.335C430.96,29.497,430.362,29.791,429.612,29.791 M429.331,24.137c-0.715,0-1.228,0.332-1.541,0.996
		v2.742c0.332,0.664,0.85,0.996,1.553,0.996c0.519,0,0.924-0.201,1.213-0.604c0.289-0.402,0.434-1.008,0.434-1.816
		c0-0.738-0.143-1.309-0.428-1.711C430.276,24.338,429.866,24.137,429.331,24.137 M407.386,29.791c-0.859,0-1.559-0.282-2.098-0.847
		c-0.539-0.565-0.809-1.319-0.809-2.265V26.48c0-0.629,0.12-1.19,0.36-1.685c0.24-0.494,0.576-0.881,1.008-1.16
		c0.432-0.279,0.899-0.419,1.403-0.419c0.824,0,1.465,0.272,1.922,0.814c0.457,0.543,0.686,1.32,0.686,2.332v0.451h-4.295
		c0.016,0.625,0.198,1.13,0.548,1.515c0.35,0.385,0.794,0.577,1.333,0.577c0.383,0,0.707-0.078,0.973-0.234
		c0.266-0.156,0.498-0.363,0.697-0.621l0.662,0.516C409.245,29.383,408.449,29.791,407.386,29.791 M407.251,24.107
		c-0.438,0-0.805,0.159-1.102,0.478c-0.297,0.318-0.48,0.765-0.551,1.339h3.176v-0.082c-0.031-0.551-0.18-0.978-0.445-1.28
		C408.064,24.259,407.704,24.107,407.251,24.107 M397.422,29.791c-0.859,0-1.556-0.299-2.089-0.896
		c-0.533-0.598-0.8-1.389-0.8-2.373v-0.076c0-0.621,0.122-1.18,0.366-1.676c0.244-0.496,0.584-0.879,1.02-1.148
		c0.436-0.27,0.933-0.404,1.491-0.404c0.863,0,1.562,0.299,2.095,0.896c0.533,0.598,0.8,1.393,0.8,2.385v0.076
		c0,0.617-0.118,1.171-0.354,1.661c-0.236,0.49-0.574,0.872-1.014,1.145C398.498,29.654,397.993,29.791,397.422,29.791
		 M397.411,24.107c-0.535,0-0.967,0.213-1.295,0.639c-0.328,0.426-0.492,1.035-0.492,1.828c0,0.703,0.163,1.268,0.489,1.693
		c0.326,0.426,0.763,0.639,1.31,0.639c0.551,0,0.988-0.216,1.313-0.647c0.324-0.432,0.486-1.036,0.486-1.813
		c0-0.695-0.165-1.259-0.495-1.69C398.396,24.323,397.957,24.107,397.411,24.107 M392.917,29.791c-0.484,0-0.85-0.146-1.096-0.439
		c-0.246-0.293-0.369-0.709-0.369-1.248v-3.932h-1.154v-0.838h1.154v-1.535h1.084v1.535h1.184v0.838h-1.184v3.936
		c0,0.254,0.053,0.445,0.158,0.572c0.105,0.127,0.285,0.191,0.539,0.191c0.125,0,0.297-0.023,0.516-0.07v0.874
		C393.464,29.752,393.186,29.791,392.917,29.791 M384.248,29.791c-0.859,0-1.559-0.282-2.098-0.847
		c-0.539-0.565-0.809-1.319-0.809-2.265V26.48c0-0.629,0.12-1.19,0.36-1.685c0.24-0.494,0.576-0.881,1.008-1.16
		c0.432-0.279,0.9-0.419,1.403-0.419c0.824,0,1.465,0.272,1.922,0.814c0.457,0.543,0.686,1.32,0.686,2.332v0.451h-4.295
		c0.016,0.625,0.198,1.13,0.548,1.515c0.35,0.385,0.794,0.577,1.333,0.577c0.383,0,0.707-0.078,0.973-0.234
		c0.266-0.156,0.498-0.363,0.697-0.621l0.662,0.516C386.107,29.383,385.31,29.791,384.248,29.791 M384.113,24.107
		c-0.437,0-0.805,0.159-1.102,0.478c-0.297,0.318-0.48,0.765-0.551,1.339h3.176v-0.082c-0.031-0.551-0.18-0.978-0.445-1.28
		C384.926,24.259,384.566,24.107,384.113,24.107 M374.8,29.791c-0.801,0-1.42-0.283-1.857-0.85l-0.053,0.732h-0.996v-9h1.084v3.357
		c0.437-0.543,1.041-0.814,1.811-0.814c0.77,0,1.374,0.291,1.814,0.873c0.439,0.582,0.659,1.379,0.659,2.391v0.094
		c0,0.969-0.223,1.747-0.668,2.335C376.147,29.497,375.55,29.791,374.8,29.791 M374.518,24.137c-0.715,0-1.229,0.332-1.541,0.996
		v2.742c0.332,0.664,0.85,0.996,1.553,0.996c0.519,0,0.924-0.201,1.213-0.604c0.289-0.402,0.433-1.008,0.433-1.816
		c0-0.738-0.143-1.309-0.428-1.711C375.464,24.338,375.053,24.137,374.518,24.137 M367.292,29.791c-0.625,0-1.138-0.177-1.538-0.53
		c-0.4-0.354-0.601-0.802-0.601-1.345c0-0.66,0.251-1.173,0.753-1.538c0.502-0.365,1.208-0.548,2.118-0.548h1.055v-0.498
		c0-0.379-0.113-0.681-0.34-0.905c-0.227-0.225-0.561-0.337-1.002-0.337c-0.387,0-0.711,0.098-0.973,0.293
		c-0.262,0.195-0.393,0.432-0.393,0.709h-1.09c0-0.316,0.112-0.622,0.337-0.917c0.225-0.295,0.529-0.528,0.914-0.7
		c0.385-0.172,0.808-0.258,1.269-0.258c0.73,0,1.303,0.183,1.717,0.548c0.414,0.365,0.629,0.868,0.644,1.509v2.918
		c0,0.582,0.074,1.045,0.223,1.389v0.094h-1.137c-0.063-0.125-0.113-0.348-0.152-0.668
		C368.593,29.529,367.991,29.791,367.292,29.791 M368.229,26.598c-1.328,0-1.992,0.389-1.992,1.166c0,0.34,0.113,0.606,0.34,0.797
		c0.226,0.191,0.518,0.287,0.873,0.287c0.34,0,0.662-0.088,0.967-0.264c0.305-0.176,0.525-0.404,0.662-0.685v-1.301H368.229
		 M355.017,29.791c-0.625,0-1.138-0.177-1.538-0.53c-0.4-0.354-0.601-0.802-0.601-1.345c0-0.66,0.251-1.173,0.753-1.538
		c0.502-0.365,1.208-0.548,2.118-0.548h1.055v-0.498c0-0.379-0.113-0.681-0.34-0.905c-0.227-0.225-0.561-0.337-1.002-0.337
		c-0.387,0-0.711,0.098-0.973,0.293c-0.262,0.195-0.392,0.432-0.392,0.709h-1.09c0-0.316,0.112-0.622,0.337-0.917
		c0.225-0.295,0.529-0.528,0.914-0.7c0.385-0.172,0.808-0.258,1.269-0.258c0.73,0,1.303,0.183,1.717,0.548
		c0.414,0.365,0.629,0.868,0.644,1.509v2.918c0,0.582,0.074,1.045,0.223,1.389v0.094h-1.137c-0.063-0.125-0.113-0.348-0.152-0.668
		C356.318,29.529,355.716,29.791,355.017,29.791 M355.955,26.598c-1.328,0-1.992,0.389-1.992,1.166c0,0.34,0.113,0.606,0.34,0.797
		c0.227,0.191,0.518,0.287,0.873,0.287c0.34,0,0.662-0.088,0.967-0.264c0.305-0.176,0.525-0.404,0.662-0.685v-1.301H355.955
		 M342.981,29.791c-0.625,0-1.138-0.177-1.538-0.53c-0.4-0.354-0.601-0.802-0.601-1.345c0-0.66,0.251-1.173,0.753-1.538
		c0.502-0.365,1.208-0.548,2.118-0.548h1.055v-0.498c0-0.379-0.113-0.681-0.34-0.905c-0.227-0.225-0.561-0.337-1.002-0.337
		c-0.387,0-0.711,0.098-0.973,0.293c-0.262,0.195-0.393,0.432-0.393,0.709h-1.09c0-0.316,0.112-0.622,0.337-0.917
		c0.225-0.295,0.529-0.528,0.914-0.7c0.385-0.172,0.808-0.258,1.269-0.258c0.73,0,1.303,0.183,1.717,0.548
		c0.414,0.365,0.629,0.868,0.645,1.509v2.918c0,0.582,0.074,1.045,0.223,1.389v0.094h-1.137c-0.063-0.125-0.113-0.348-0.152-0.668
		C344.282,29.529,343.68,29.791,342.981,29.791 M343.918,26.598c-1.328,0-1.992,0.389-1.992,1.166c0,0.34,0.113,0.606,0.34,0.797
		c0.226,0.191,0.518,0.287,0.873,0.287c0.34,0,0.662-0.088,0.967-0.264c0.305-0.176,0.525-0.404,0.662-0.685v-1.301H343.918
		 M334.078,29.791c-0.508,0-0.957-0.09-1.348-0.27c-0.391-0.18-0.696-0.431-0.917-0.753c-0.221-0.322-0.331-0.671-0.331-1.046h1.084
		c0.019,0.363,0.165,0.651,0.437,0.864c0.271,0.213,0.63,0.319,1.075,0.319c0.41,0,0.739-0.083,0.987-0.249
		c0.248-0.166,0.372-0.388,0.372-0.665c0-0.293-0.11-0.52-0.331-0.683c-0.221-0.162-0.606-0.302-1.154-0.419
		c-0.549-0.117-0.984-0.258-1.307-0.422c-0.322-0.164-0.561-0.359-0.715-0.586c-0.154-0.226-0.231-0.496-0.231-0.809
		c0-0.52,0.22-0.959,0.659-1.318c0.44-0.359,1.001-0.539,1.685-0.539c0.719,0,1.302,0.185,1.749,0.557
		c0.447,0.371,0.671,0.846,0.671,1.424h-1.09c0-0.297-0.126-0.553-0.378-0.768c-0.252-0.215-0.569-0.322-0.952-0.322
		c-0.395,0-0.703,0.086-0.926,0.258c-0.223,0.172-0.334,0.396-0.334,0.674c0,0.262,0.103,0.459,0.311,0.592
		c0.207,0.133,0.581,0.26,1.122,0.381c0.541,0.121,0.979,0.266,1.315,0.434c0.336,0.168,0.585,0.37,0.747,0.606
		c0.162,0.236,0.243,0.524,0.243,0.864c0,0.566-0.227,1.021-0.68,1.362C335.388,29.62,334.8,29.791,334.078,29.791 M320.848,29.791
		c-0.859,0-1.556-0.299-2.089-0.896c-0.533-0.598-0.8-1.389-0.8-2.373v-0.076c0-0.621,0.122-1.18,0.366-1.676
		c0.244-0.496,0.584-0.879,1.02-1.148c0.435-0.27,0.932-0.404,1.491-0.404c0.863,0,1.562,0.299,2.095,0.896
		c0.533,0.598,0.8,1.393,0.8,2.385v0.076c0,0.617-0.118,1.171-0.355,1.661c-0.236,0.49-0.574,0.872-1.014,1.145
		C321.923,29.654,321.418,29.791,320.848,29.791 M320.836,24.107c-0.535,0-0.967,0.213-1.295,0.639
		c-0.328,0.426-0.492,1.035-0.492,1.828c0,0.703,0.163,1.268,0.489,1.693c0.326,0.426,0.763,0.639,1.31,0.639
		c0.551,0,0.988-0.216,1.312-0.647c0.324-0.432,0.486-1.036,0.486-1.813c0-0.695-0.165-1.259-0.495-1.69
		C321.821,24.323,321.383,24.107,320.836,24.107 M313.34,29.791c-0.484,0-0.85-0.146-1.096-0.439
		c-0.246-0.293-0.369-0.709-0.369-1.248v-3.932h-1.154v-0.838h1.154v-1.535h1.084v1.535h1.184v0.838h-1.184v3.936
		c0,0.254,0.053,0.445,0.158,0.572c0.105,0.127,0.285,0.191,0.539,0.191c0.125,0,0.297-0.023,0.516-0.07v0.874
		C313.887,29.752,313.609,29.791,313.34,29.791 M300.4,29.791c-0.859,0-1.556-0.299-2.089-0.896c-0.533-0.598-0.8-1.389-0.8-2.373
		v-0.076c0-0.621,0.122-1.18,0.366-1.676c0.244-0.496,0.584-0.879,1.02-1.148c0.435-0.27,0.933-0.404,1.491-0.404
		c0.863,0,1.562,0.299,2.095,0.896c0.533,0.598,0.8,1.393,0.8,2.385v0.076c0,0.617-0.118,1.171-0.355,1.661
		c-0.236,0.49-0.574,0.872-1.014,1.145C301.475,29.654,300.97,29.791,300.4,29.791 M300.388,24.107
		c-0.535,0-0.967,0.213-1.295,0.639c-0.328,0.426-0.492,1.035-0.492,1.828c0,0.703,0.163,1.268,0.489,1.693
		c0.326,0.426,0.763,0.639,1.31,0.639c0.551,0,0.988-0.216,1.312-0.647c0.324-0.432,0.486-1.036,0.486-1.813
		c0-0.695-0.165-1.259-0.495-1.69C301.373,24.323,300.935,24.107,300.388,24.107 M292.639,29.791c-0.484,0-0.85-0.146-1.096-0.439
		c-0.246-0.293-0.369-0.709-0.369-1.248v-3.932h-1.154v-0.838h1.154v-1.535h1.084v1.535h1.184v0.838h-1.184v3.936
		c0,0.254,0.053,0.445,0.158,0.572c0.105,0.127,0.285,0.191,0.539,0.191c0.125,0,0.297-0.023,0.516-0.07v0.874
		C293.186,29.752,292.909,29.791,292.639,29.791 M281.952,29.791c-0.859,0-1.556-0.299-2.089-0.896
		c-0.533-0.598-0.8-1.389-0.8-2.373v-0.076c0-0.621,0.122-1.18,0.366-1.676c0.244-0.496,0.584-0.879,1.02-1.148
		c0.436-0.27,0.933-0.404,1.491-0.404c0.863,0,1.562,0.299,2.095,0.896c0.533,0.598,0.8,1.393,0.8,2.385v0.076
		c0,0.617-0.118,1.171-0.354,1.661c-0.236,0.49-0.574,0.872-1.014,1.145C283.027,29.654,282.522,29.791,281.952,29.791
		 M281.94,24.107c-0.535,0-0.967,0.213-1.295,0.639c-0.328,0.426-0.492,1.035-0.492,1.828c0,0.703,0.163,1.268,0.489,1.693
		c0.326,0.426,0.763,0.639,1.31,0.639c0.551,0,0.988-0.216,1.313-0.647c0.324-0.432,0.486-1.036,0.486-1.813
		c0-0.695-0.165-1.259-0.495-1.69C282.926,24.323,282.487,24.107,281.94,24.107 M261.111,29.791c-0.676,0-1.191-0.196-1.544-0.589
		c-0.354-0.392-0.532-0.974-0.536-1.743v-4.125h1.084v4.096c0,0.961,0.391,1.441,1.172,1.441c0.828,0,1.379-0.309,1.652-0.926
		v-4.611h1.084v6.34h-1.031l-0.023-0.627C262.547,29.543,261.927,29.791,261.111,29.791 M255.18,29.791
		c-0.508,0-0.957-0.09-1.348-0.27c-0.391-0.18-0.696-0.431-0.917-0.753c-0.221-0.322-0.331-0.671-0.331-1.046h1.084
		c0.019,0.363,0.165,0.651,0.437,0.864c0.271,0.213,0.63,0.319,1.075,0.319c0.41,0,0.739-0.083,0.987-0.249
		c0.248-0.166,0.372-0.388,0.372-0.665c0-0.293-0.11-0.52-0.331-0.683c-0.221-0.162-0.606-0.302-1.154-0.419
		c-0.549-0.117-0.984-0.258-1.307-0.422c-0.322-0.164-0.561-0.359-0.715-0.586c-0.154-0.226-0.231-0.496-0.231-0.809
		c0-0.52,0.22-0.959,0.659-1.318c0.44-0.359,1.001-0.539,1.685-0.539c0.719,0,1.302,0.185,1.749,0.557
		c0.447,0.371,0.671,0.846,0.671,1.424h-1.09c0-0.297-0.126-0.553-0.378-0.768c-0.252-0.215-0.569-0.322-0.952-0.322
		c-0.395,0-0.703,0.086-0.926,0.258c-0.223,0.172-0.334,0.396-0.334,0.674c0,0.262,0.104,0.459,0.311,0.592
		c0.207,0.133,0.581,0.26,1.122,0.381c0.541,0.121,0.979,0.266,1.315,0.434c0.336,0.168,0.585,0.37,0.747,0.606
		c0.162,0.236,0.243,0.524,0.243,0.864c0,0.566-0.227,1.021-0.68,1.362C256.49,29.62,255.902,29.791,255.18,29.791 M239.434,29.791
		c-0.735,0-1.333-0.301-1.796-0.902c-0.463-0.602-0.694-1.387-0.694-2.355v-0.082c0-0.973,0.23-1.755,0.691-2.347
		c0.461-0.592,1.064-0.888,1.811-0.888c0.742,0,1.33,0.254,1.764,0.762v-3.305h1.084v9h-0.996l-0.053-0.68
		C240.811,29.525,240.207,29.791,239.434,29.791 M239.715,24.137c-0.531,0-0.945,0.205-1.242,0.615
		c-0.297,0.41-0.445,1.018-0.445,1.822c0,0.719,0.148,1.281,0.445,1.688c0.297,0.406,0.707,0.609,1.231,0.609
		c0.687,0,1.189-0.309,1.506-0.926v-2.912C240.885,24.436,240.387,24.137,239.715,24.137 M232.589,29.791
		c-0.676,0-1.19-0.196-1.544-0.589c-0.354-0.392-0.532-0.974-0.536-1.743v-4.125h1.084v4.096c0,0.961,0.391,1.441,1.172,1.441
		c0.828,0,1.379-0.309,1.652-0.926v-4.611h1.084v6.34h-1.031l-0.023-0.627C234.024,29.543,233.405,29.791,232.589,29.791
		 M228.49,29.791c-0.484,0-0.85-0.146-1.096-0.439s-0.369-0.709-0.369-1.248v-3.932h-1.154v-0.838h1.154v-1.535h1.084v1.535h1.184
		v0.838h-1.184v3.936c0,0.254,0.053,0.445,0.158,0.572c0.105,0.127,0.285,0.191,0.539,0.191c0.125,0,0.297-0.023,0.516-0.07v0.874
		C229.037,29.752,228.76,29.791,228.49,29.791 M222.629,29.791c-0.508,0-0.957-0.09-1.348-0.27c-0.391-0.18-0.696-0.431-0.917-0.753
		c-0.221-0.322-0.331-0.671-0.331-1.046h1.084c0.019,0.363,0.165,0.651,0.437,0.864c0.271,0.213,0.63,0.319,1.075,0.319
		c0.41,0,0.739-0.083,0.987-0.249c0.248-0.166,0.372-0.388,0.372-0.665c0-0.293-0.11-0.52-0.331-0.683
		c-0.221-0.162-0.606-0.302-1.154-0.419c-0.549-0.117-0.984-0.258-1.307-0.422c-0.322-0.164-0.561-0.359-0.715-0.586
		c-0.154-0.226-0.231-0.496-0.231-0.809c0-0.52,0.22-0.959,0.659-1.318c0.44-0.359,1.001-0.539,1.685-0.539
		c0.719,0,1.302,0.185,1.749,0.557c0.447,0.371,0.671,0.846,0.671,1.424h-1.09c0-0.297-0.126-0.553-0.378-0.768
		c-0.252-0.215-0.569-0.322-0.952-0.322c-0.395,0-0.703,0.086-0.926,0.258c-0.223,0.172-0.334,0.396-0.334,0.674
		c0,0.262,0.104,0.459,0.311,0.592c0.207,0.133,0.581,0.26,1.122,0.381c0.541,0.121,0.979,0.266,1.315,0.434
		c0.336,0.168,0.585,0.37,0.747,0.606c0.162,0.236,0.243,0.524,0.243,0.864c0,0.566-0.227,1.021-0.68,1.362
		C223.94,29.62,223.352,29.791,222.629,29.791 M208.937,29.791c-0.859,0-1.556-0.299-2.089-0.896c-0.533-0.598-0.8-1.389-0.8-2.373
		v-0.076c0-0.621,0.122-1.18,0.366-1.676c0.244-0.496,0.584-0.879,1.02-1.148c0.436-0.27,0.933-0.404,1.491-0.404
		c0.863,0,1.562,0.299,2.095,0.896c0.533,0.598,0.8,1.393,0.8,2.385v0.076c0,0.617-0.118,1.171-0.354,1.661
		c-0.236,0.49-0.574,0.872-1.014,1.145C210.012,29.654,209.507,29.791,208.937,29.791 M208.925,24.107
		c-0.535,0-0.967,0.213-1.295,0.639c-0.328,0.426-0.492,1.035-0.492,1.828c0,0.703,0.163,1.268,0.489,1.693
		c0.326,0.426,0.763,0.639,1.31,0.639c0.551,0,0.988-0.216,1.313-0.647c0.324-0.432,0.486-1.036,0.486-1.813
		c0-0.695-0.165-1.259-0.495-1.69C209.91,24.323,209.472,24.107,208.925,24.107 M199.518,29.791c-0.859,0-1.559-0.282-2.098-0.847
		c-0.539-0.565-0.809-1.319-0.809-2.265V26.48c0-0.629,0.12-1.19,0.36-1.685c0.24-0.494,0.576-0.881,1.008-1.16
		c0.432-0.279,0.899-0.419,1.403-0.419c0.824,0,1.465,0.272,1.922,0.814c0.457,0.543,0.686,1.32,0.686,2.332v0.451h-4.295
		c0.015,0.625,0.198,1.13,0.548,1.515c0.35,0.385,0.794,0.577,1.333,0.577c0.383,0,0.707-0.078,0.973-0.234
		c0.266-0.156,0.498-0.363,0.697-0.621l0.662,0.516C201.377,29.383,200.58,29.791,199.518,29.791 M199.383,24.107
		c-0.438,0-0.805,0.159-1.102,0.478c-0.297,0.318-0.48,0.765-0.551,1.339h3.176v-0.082c-0.031-0.551-0.18-0.978-0.445-1.28
		C200.195,24.259,199.836,24.107,199.383,24.107 M178.814,29.791c-0.625,0-1.138-0.177-1.538-0.53
		c-0.4-0.354-0.601-0.802-0.601-1.345c0-0.66,0.251-1.173,0.753-1.538c0.502-0.365,1.208-0.548,2.118-0.548h1.055v-0.498
		c0-0.379-0.113-0.681-0.34-0.905c-0.226-0.225-0.561-0.337-1.002-0.337c-0.387,0-0.711,0.098-0.973,0.293
		c-0.262,0.195-0.393,0.432-0.393,0.709h-1.09c0-0.316,0.112-0.622,0.337-0.917c0.225-0.295,0.529-0.528,0.914-0.7
		c0.385-0.172,0.808-0.258,1.269-0.258c0.73,0,1.303,0.183,1.717,0.548c0.414,0.365,0.629,0.868,0.644,1.509v2.918
		c0,0.582,0.074,1.045,0.223,1.389v0.094h-1.137c-0.063-0.125-0.113-0.348-0.152-0.668
		C180.115,29.529,179.513,29.791,178.814,29.791 M179.752,26.598c-1.328,0-1.992,0.389-1.992,1.166c0,0.34,0.113,0.606,0.34,0.797
		c0.226,0.191,0.518,0.287,0.873,0.287c0.34,0,0.662-0.088,0.967-0.264c0.305-0.176,0.525-0.404,0.662-0.685v-1.301H179.752
		 M165.076,29.791c-0.625,0-1.138-0.177-1.538-0.53c-0.401-0.354-0.601-0.802-0.601-1.345c0-0.66,0.251-1.173,0.753-1.538
		c0.502-0.365,1.208-0.548,2.118-0.548h1.055v-0.498c0-0.379-0.113-0.681-0.34-0.905c-0.227-0.225-0.561-0.337-1.002-0.337
		c-0.387,0-0.711,0.098-0.973,0.293c-0.262,0.195-0.393,0.432-0.393,0.709h-1.09c0-0.316,0.112-0.622,0.337-0.917
		c0.225-0.295,0.529-0.528,0.914-0.7c0.385-0.172,0.808-0.258,1.269-0.258c0.73,0,1.303,0.183,1.717,0.548
		c0.414,0.365,0.629,0.868,0.645,1.509v2.918c0,0.582,0.074,1.045,0.223,1.389v0.094h-1.137c-0.063-0.125-0.113-0.348-0.152-0.668
		C166.376,29.529,165.775,29.791,165.076,29.791 M166.013,26.598c-1.328,0-1.992,0.389-1.992,1.166c0,0.34,0.113,0.606,0.34,0.797
		c0.226,0.191,0.518,0.287,0.873,0.287c0.34,0,0.662-0.088,0.967-0.264c0.305-0.176,0.525-0.404,0.662-0.685v-1.301H166.013
		 M156.172,29.791c-0.508,0-0.957-0.09-1.348-0.27c-0.391-0.18-0.696-0.431-0.917-0.753c-0.221-0.322-0.331-0.671-0.331-1.046h1.084
		c0.019,0.363,0.165,0.651,0.437,0.864c0.271,0.213,0.63,0.319,1.075,0.319c0.41,0,0.739-0.083,0.987-0.249
		c0.248-0.166,0.372-0.388,0.372-0.665c0-0.293-0.11-0.52-0.331-0.683c-0.221-0.162-0.606-0.302-1.154-0.419
		c-0.549-0.117-0.984-0.258-1.307-0.422c-0.322-0.164-0.561-0.359-0.715-0.586c-0.154-0.226-0.231-0.496-0.231-0.809
		c0-0.52,0.22-0.959,0.659-1.318c0.44-0.359,1.001-0.539,1.685-0.539c0.719,0,1.302,0.185,1.749,0.557
		c0.447,0.371,0.671,0.846,0.671,1.424h-1.09c0-0.297-0.126-0.553-0.378-0.768c-0.252-0.215-0.569-0.322-0.952-0.322
		c-0.395,0-0.703,0.086-0.926,0.258c-0.223,0.172-0.334,0.396-0.334,0.674c0,0.262,0.104,0.459,0.311,0.592
		c0.207,0.133,0.581,0.26,1.122,0.381c0.541,0.121,0.979,0.266,1.315,0.434c0.336,0.168,0.585,0.37,0.747,0.606
		c0.162,0.236,0.243,0.524,0.243,0.864c0,0.566-0.227,1.021-0.68,1.362C157.483,29.62,156.895,29.791,156.172,29.791
		 M144.147,29.791c-0.859,0-1.559-0.282-2.098-0.847c-0.539-0.565-0.809-1.319-0.809-2.265V26.48c0-0.629,0.12-1.19,0.36-1.685
		c0.24-0.494,0.576-0.881,1.008-1.16c0.432-0.279,0.899-0.419,1.403-0.419c0.824,0,1.465,0.272,1.922,0.814
		c0.457,0.543,0.686,1.32,0.686,2.332v0.451h-4.295c0.016,0.625,0.198,1.13,0.548,1.515c0.35,0.385,0.794,0.577,1.333,0.577
		c0.383,0,0.707-0.078,0.973-0.234c0.266-0.156,0.498-0.363,0.697-0.621l0.662,0.516C146.006,29.383,145.209,29.791,144.147,29.791
		 M144.012,24.107c-0.437,0-0.805,0.159-1.102,0.478c-0.297,0.318-0.481,0.765-0.551,1.339h3.176v-0.082
		c-0.031-0.551-0.18-0.978-0.445-1.28C144.825,24.259,144.465,24.107,144.012,24.107 M133.629,29.791
		c-0.859,0-1.559-0.282-2.098-0.847c-0.539-0.565-0.809-1.319-0.809-2.265V26.48c0-0.629,0.12-1.19,0.36-1.685
		c0.24-0.494,0.576-0.881,1.008-1.16c0.432-0.279,0.899-0.419,1.403-0.419c0.824,0,1.465,0.272,1.922,0.814
		c0.457,0.543,0.685,1.32,0.685,2.332v0.451h-4.295c0.016,0.625,0.198,1.13,0.548,1.515c0.35,0.385,0.794,0.577,1.333,0.577
		c0.383,0,0.707-0.078,0.973-0.234c0.266-0.156,0.498-0.363,0.697-0.621l0.662,0.516C135.489,29.383,134.692,29.791,133.629,29.791
		 M133.495,24.107c-0.437,0-0.805,0.159-1.102,0.478c-0.297,0.318-0.48,0.765-0.551,1.339h3.176v-0.082
		c-0.031-0.551-0.18-0.978-0.445-1.28C134.307,24.259,133.948,24.107,133.495,24.107 M106.936,29.791
		c-0.508,0-0.957-0.09-1.348-0.27c-0.391-0.18-0.696-0.431-0.917-0.753c-0.221-0.322-0.331-0.671-0.331-1.046h1.084
		c0.019,0.363,0.165,0.651,0.436,0.864c0.271,0.213,0.63,0.319,1.075,0.319c0.41,0,0.739-0.083,0.987-0.249
		c0.248-0.166,0.372-0.388,0.372-0.665c0-0.293-0.11-0.52-0.331-0.683c-0.221-0.162-0.606-0.302-1.154-0.419
		c-0.549-0.117-0.984-0.258-1.307-0.422s-0.561-0.359-0.715-0.586c-0.154-0.226-0.231-0.496-0.231-0.809
		c0-0.52,0.22-0.959,0.659-1.318c0.439-0.359,1.001-0.539,1.685-0.539c0.719,0,1.302,0.185,1.749,0.557
		c0.447,0.371,0.671,0.846,0.671,1.424h-1.09c0-0.297-0.126-0.553-0.378-0.768c-0.252-0.215-0.569-0.322-0.952-0.322
		c-0.395,0-0.703,0.086-0.926,0.258c-0.223,0.172-0.334,0.396-0.334,0.674c0,0.262,0.104,0.459,0.311,0.592
		c0.207,0.133,0.581,0.26,1.122,0.381c0.541,0.121,0.979,0.266,1.315,0.434c0.336,0.168,0.585,0.37,0.747,0.606
		c0.162,0.236,0.243,0.524,0.243,0.864c0,0.566-0.227,1.021-0.68,1.362C108.247,29.62,107.659,29.791,106.936,29.791
		 M102.544,29.791c-0.484,0-0.85-0.146-1.096-0.439s-0.369-0.709-0.369-1.248v-3.932h-1.154v-0.838h1.154v-1.535h1.084v1.535h1.184
		v0.838h-1.184v3.936c0,0.254,0.053,0.445,0.158,0.572c0.105,0.127,0.285,0.191,0.539,0.191c0.125,0,0.297-0.023,0.516-0.07v0.874
		C103.091,29.752,102.814,29.791,102.544,29.791 M90.14,29.791c-0.859,0-1.559-0.282-2.098-0.847
		c-0.539-0.565-0.809-1.319-0.809-2.265V26.48c0-0.629,0.12-1.19,0.36-1.685c0.24-0.494,0.576-0.881,1.008-1.16
		c0.432-0.279,0.9-0.419,1.403-0.419c0.824,0,1.465,0.272,1.922,0.814c0.457,0.543,0.686,1.32,0.686,2.332v0.451h-4.295
		c0.015,0.625,0.198,1.13,0.548,1.515c0.349,0.385,0.794,0.577,1.333,0.577c0.383,0,0.707-0.078,0.973-0.234
		c0.266-0.156,0.498-0.363,0.697-0.621l0.662,0.516C91.999,29.383,91.202,29.791,90.14,29.791 M90.005,24.107
		c-0.437,0-0.805,0.159-1.102,0.478c-0.297,0.318-0.48,0.765-0.551,1.339h3.176v-0.082c-0.031-0.551-0.18-0.978-0.445-1.28
		C90.817,24.259,90.458,24.107,90.005,24.107 M82.918,29.791c-0.734,0-1.333-0.301-1.796-0.902
		c-0.463-0.602-0.694-1.387-0.694-2.355v-0.082c0-0.973,0.23-1.755,0.691-2.347c0.461-0.592,1.065-0.888,1.811-0.888
		c0.742,0,1.33,0.254,1.764,0.762v-3.305h1.084v9h-0.996l-0.053-0.68C84.294,29.525,83.691,29.791,82.918,29.791 M83.199,24.137
		c-0.531,0-0.945,0.205-1.242,0.615s-0.445,1.018-0.445,1.822c0,0.719,0.148,1.281,0.445,1.688c0.297,0.406,0.707,0.609,1.231,0.609
		c0.688,0,1.189-0.309,1.506-0.926v-2.912C84.369,24.436,83.871,24.137,83.199,24.137 M76.072,29.791
		c-0.676,0-1.191-0.196-1.544-0.589c-0.354-0.392-0.532-0.974-0.536-1.743v-4.125h1.084v4.096c0,0.961,0.391,1.441,1.172,1.441
		c0.828,0,1.379-0.309,1.652-0.926v-4.611h1.084v6.34h-1.031l-0.023-0.627C77.508,29.543,76.889,29.791,76.072,29.791
		 M71.974,29.791c-0.484,0-0.85-0.146-1.096-0.439c-0.246-0.293-0.369-0.709-0.369-1.248v-3.932h-1.154v-0.838h1.154v-1.535h1.084
		v1.535h1.184v0.838h-1.184v3.936c0,0.254,0.053,0.445,0.158,0.572c0.105,0.127,0.285,0.191,0.539,0.191
		c0.125,0,0.297-0.023,0.516-0.07v0.874C72.521,29.752,72.243,29.791,71.974,29.791 M66.113,29.791c-0.508,0-0.957-0.09-1.348-0.27
		c-0.391-0.18-0.696-0.431-0.917-0.753c-0.221-0.322-0.331-0.671-0.331-1.046h1.084c0.019,0.363,0.165,0.651,0.437,0.864
		c0.271,0.213,0.63,0.319,1.075,0.319c0.41,0,0.739-0.083,0.987-0.249c0.248-0.166,0.372-0.388,0.372-0.665
		c0-0.293-0.11-0.52-0.331-0.683c-0.221-0.162-0.606-0.302-1.154-0.419c-0.549-0.117-0.984-0.258-1.307-0.422
		c-0.322-0.164-0.561-0.359-0.715-0.586c-0.154-0.226-0.231-0.496-0.231-0.809c0-0.52,0.22-0.959,0.659-1.318
		c0.44-0.359,1.001-0.539,1.685-0.539c0.719,0,1.302,0.185,1.749,0.557c0.447,0.371,0.671,0.846,0.671,1.424h-1.09
		c0-0.297-0.126-0.553-0.378-0.768c-0.252-0.215-0.569-0.322-0.952-0.322c-0.395,0-0.703,0.086-0.926,0.258
		c-0.223,0.172-0.334,0.396-0.334,0.674c0,0.262,0.103,0.459,0.311,0.592c0.207,0.133,0.581,0.26,1.122,0.381
		c0.541,0.121,0.979,0.266,1.315,0.434c0.336,0.168,0.585,0.37,0.747,0.606c0.162,0.236,0.243,0.524,0.243,0.864
		c0,0.566-0.227,1.021-0.68,1.362S66.836,29.791,66.113,29.791 M56.952,29.791c-0.863,0-1.55-0.288-2.06-0.864
		c-0.51-0.576-0.765-1.364-0.765-2.364v-0.182c0-0.617,0.113-1.166,0.34-1.646c0.226-0.48,0.552-0.854,0.976-1.119
		c0.424-0.266,0.925-0.398,1.503-0.398c0.711,0,1.302,0.213,1.773,0.639c0.471,0.426,0.722,0.978,0.753,1.658h-1.025
		c-0.031-0.41-0.187-0.747-0.466-1.011c-0.279-0.264-0.624-0.396-1.034-0.396c-0.551,0-0.978,0.198-1.28,0.595
		c-0.303,0.396-0.454,0.97-0.454,1.72v0.205c0,0.731,0.15,1.293,0.451,1.687c0.301,0.395,0.73,0.592,1.289,0.592
		c0.387,0,0.725-0.117,1.014-0.352c0.289-0.234,0.449-0.527,0.48-0.879h1.025c-0.02,0.363-0.145,0.709-0.375,1.037
		c-0.23,0.328-0.538,0.59-0.923,0.785C57.789,29.693,57.382,29.791,56.952,29.791 M49.503,29.791c-0.484,0-0.85-0.146-1.096-0.439
		s-0.369-0.709-0.369-1.248v-3.932h-1.154v-0.838h1.154v-1.535h1.084v1.535h1.184v0.838h-1.184v3.936
		c0,0.254,0.053,0.445,0.158,0.572c0.106,0.127,0.285,0.191,0.539,0.191c0.125,0,0.297-0.023,0.516-0.07v0.874
		C50.05,29.752,49.773,29.791,49.503,29.791 M43.642,29.791c-0.508,0-0.957-0.09-1.348-0.27c-0.391-0.18-0.696-0.431-0.917-0.753
		c-0.221-0.322-0.331-0.671-0.331-1.046h1.084c0.019,0.363,0.165,0.651,0.436,0.864c0.272,0.213,0.63,0.319,1.075,0.319
		c0.41,0,0.739-0.083,0.987-0.249c0.248-0.166,0.372-0.388,0.372-0.665c0-0.293-0.11-0.52-0.331-0.683
		c-0.221-0.162-0.606-0.302-1.154-0.419c-0.549-0.117-0.984-0.258-1.307-0.422c-0.322-0.164-0.561-0.359-0.715-0.586
		c-0.154-0.226-0.231-0.496-0.231-0.809c0-0.52,0.22-0.959,0.659-1.318c0.44-0.359,1.001-0.539,1.685-0.539
		c0.719,0,1.302,0.185,1.749,0.557c0.447,0.371,0.671,0.846,0.671,1.424h-1.09c0-0.297-0.126-0.553-0.378-0.768
		c-0.252-0.215-0.569-0.322-0.952-0.322c-0.395,0-0.703,0.086-0.926,0.258c-0.223,0.172-0.334,0.396-0.334,0.674
		c0,0.262,0.104,0.459,0.311,0.592c0.207,0.133,0.581,0.26,1.122,0.381c0.541,0.121,0.979,0.266,1.315,0.434
		c0.336,0.168,0.585,0.37,0.747,0.606c0.162,0.236,0.243,0.524,0.243,0.864c0,0.566-0.227,1.021-0.68,1.362
		C44.953,29.62,44.365,29.791,43.642,29.791 M37.569,29.791c-0.859,0-1.559-0.282-2.098-0.847c-0.539-0.565-0.809-1.319-0.809-2.265
		V26.48c0-0.629,0.12-1.19,0.36-1.685c0.24-0.494,0.576-0.881,1.008-1.16c0.432-0.279,0.9-0.419,1.403-0.419
		c0.824,0,1.465,0.272,1.922,0.814c0.457,0.543,0.686,1.32,0.686,2.332v0.451h-4.295c0.015,0.625,0.198,1.13,0.548,1.515
		c0.349,0.385,0.794,0.577,1.333,0.577c0.383,0,0.707-0.078,0.973-0.234c0.266-0.156,0.498-0.363,0.697-0.621l0.662,0.516
		C39.429,29.383,38.632,29.791,37.569,29.791 M37.435,24.107c-0.437,0-0.805,0.159-1.102,0.478c-0.297,0.318-0.48,0.765-0.551,1.339
		h3.176v-0.082c-0.031-0.551-0.18-0.978-0.445-1.28C38.247,24.259,37.888,24.107,37.435,24.107 M20.068,29.791
		c-0.859,0-1.556-0.299-2.089-0.896c-0.533-0.598-0.8-1.389-0.8-2.373v-0.076c0-0.621,0.122-1.18,0.366-1.676
		c0.244-0.496,0.584-0.879,1.02-1.148c0.436-0.27,0.933-0.404,1.491-0.404c0.863,0,1.562,0.299,2.095,0.896
		c0.533,0.598,0.8,1.393,0.8,2.385v0.076c0,0.617-0.118,1.171-0.354,1.661c-0.236,0.49-0.574,0.872-1.014,1.145
		C21.144,29.654,20.639,29.791,20.068,29.791 M20.057,24.107c-0.535,0-0.967,0.213-1.295,0.639
		c-0.328,0.426-0.492,1.035-0.492,1.828c0,0.703,0.163,1.268,0.489,1.693c0.326,0.426,0.763,0.639,1.31,0.639
		c0.551,0,0.988-0.216,1.313-0.647c0.324-0.432,0.486-1.036,0.486-1.813c0-0.695-0.165-1.259-0.495-1.69
		C21.042,24.323,20.604,24.107,20.057,24.107 M12.889,29.791c-0.734,0-1.333-0.301-1.796-0.902
		c-0.463-0.602-0.694-1.387-0.694-2.355v-0.082c0-0.973,0.23-1.755,0.691-2.347c0.461-0.592,1.065-0.888,1.811-0.888
		c0.742,0,1.33,0.254,1.764,0.762v-3.305h1.084v9h-0.996l-0.053-0.68C14.266,29.525,13.662,29.791,12.889,29.791 M13.17,24.137
		c-0.531,0-0.945,0.205-1.242,0.615c-0.297,0.41-0.445,1.018-0.445,1.822c0,0.719,0.148,1.281,0.445,1.688
		c0.297,0.406,0.707,0.609,1.231,0.609c0.688,0,1.189-0.309,1.506-0.926v-2.912C14.34,24.436,13.842,24.137,13.17,24.137
		 M111.49,29.738c-0.223,0-0.39-0.061-0.501-0.182c-0.111-0.121-0.167-0.271-0.167-0.451c0-0.187,0.056-0.344,0.167-0.469
		c0.111-0.125,0.278-0.188,0.501-0.188c0.223,0,0.392,0.063,0.507,0.188c0.115,0.125,0.173,0.281,0.173,0.469
		c0,0.18-0.058,0.33-0.173,0.451C111.882,29.678,111.713,29.738,111.49,29.738 M481.073,29.674h-1.084v-4.195
		c-0.004-0.457-0.108-0.795-0.313-1.014s-0.524-0.328-0.958-0.328c-0.352,0-0.66,0.094-0.926,0.281
		c-0.266,0.187-0.473,0.434-0.621,0.738v4.518h-1.084v-6.34h1.025l0.035,0.797c0.484-0.609,1.117-0.914,1.898-0.914
		c1.34,0,2.016,0.756,2.027,2.268V29.674 M434.663,29.674h-1.084v-9h1.084V29.674 M424.948,29.674h-1.084v-6.34h1.084V29.674
		 M415.262,29.674h-1.084v-6.34h1.084V29.674 M412.377,29.674h-1.084v-9h1.084V29.674 M379.85,29.674h-1.084v-9h1.084V29.674
		 M363.633,29.674h-1.084v-9h1.084V29.674 M360.741,29.674h-1.084v-6.34h1.084V29.674 M349.87,29.674h-0.826l-2.297-6.34h1.107
		l1.611,4.869l1.57-4.869h1.107L349.87,29.674 M330.129,29.674h-1.084v-4.195c-0.004-0.457-0.108-0.795-0.313-1.014
		s-0.524-0.328-0.958-0.328c-0.352,0-0.66,0.094-0.926,0.281c-0.266,0.187-0.473,0.434-0.621,0.738v4.518h-1.084v-6.34h1.025
		l0.035,0.797c0.484-0.609,1.117-0.914,1.898-0.914c1.34,0,2.016,0.756,2.027,2.268V29.674 M316.512,29.674h-1.084v-6.34h1.084
		V29.674"/>
	<path fill="#000000" d="M287.331,29.674h-1.084v-6.34h1.055l0.018,0.732c0.355-0.566,0.859-0.85,1.512-0.85
		c0.211,0,0.371,0.027,0.48,0.082v1.008c-0.164-0.027-0.342-0.041-0.533-0.041c-0.711,0-1.194,0.303-1.447,0.908V29.674
		 M214.658,29.674h-1.084v-5.502h-1.002v-0.838h1.002v-0.65c0-0.68,0.182-1.205,0.545-1.576c0.363-0.371,0.877-0.557,1.541-0.557
		c0.25,0,0.498,0.033,0.744,0.099l-0.059,0.874c-0.184-0.035-0.379-0.053-0.586-0.053c-0.352,0-0.623,0.103-0.814,0.309
		c-0.192,0.206-0.287,0.501-0.287,0.885v0.67h1.354v0.838h-1.354V29.674 M188.402,29.674h-1.084v-4.195
		c-0.004-0.457-0.108-0.795-0.313-1.014c-0.205-0.219-0.524-0.328-0.958-0.328c-0.352,0-0.66,0.094-0.926,0.281
		c-0.266,0.187-0.473,0.434-0.621,0.738v4.518h-1.084v-6.34h1.025l0.035,0.797c0.484-0.609,1.117-0.914,1.898-0.914
		c1.34,0,2.016,0.756,2.027,2.268V29.674 M173.821,29.674h-1.084v-6.34h1.055l0.018,0.732c0.355-0.566,0.859-0.85,1.512-0.85
		c0.211,0,0.371,0.027,0.48,0.082v1.008c-0.164-0.027-0.342-0.041-0.533-0.041c-0.711,0-1.193,0.303-1.447,0.908V29.674
		 M152.142,29.674h-1.084v-6.34h1.084V29.674 M138.564,29.674h-1.084v-6.34h1.055l0.018,0.732c0.355-0.566,0.859-0.85,1.512-0.85
		c0.211,0,0.371,0.027,0.48,0.082v1.008c-0.164-0.027-0.342-0.041-0.533-0.041c-0.711,0-1.193,0.303-1.447,0.908V29.674
		 M129.319,29.674h-1.084v-4.195c-0.004-0.457-0.108-0.795-0.313-1.014s-0.524-0.328-0.958-0.328c-0.352,0-0.66,0.094-0.926,0.281
		c-0.266,0.187-0.473,0.434-0.621,0.738v4.518h-1.084v-9h1.084v3.428c0.48-0.59,1.105-0.885,1.875-0.885
		c1.34,0,2.016,0.756,2.027,2.268V29.674 M120.37,29.674h-1.119v-7.611h-2.736v-0.92h6.598v0.92h-2.742V29.674 M98.976,29.674
		h-1.084v-4.195c-0.004-0.457-0.108-0.795-0.313-1.014c-0.205-0.219-0.524-0.328-0.958-0.328c-0.352,0-0.66,0.094-0.926,0.281
		c-0.266,0.187-0.473,0.434-0.621,0.738v4.518H93.99v-6.34h1.025l0.035,0.797c0.484-0.609,1.117-0.914,1.899-0.914
		c1.34,0,2.016,0.756,2.027,2.268V29.674 M52.675,29.674h-1.084v-6.34h1.084V29.674 M33.252,29.674h-1.084V25.49
		c0-0.453-0.104-0.792-0.311-1.017c-0.207-0.225-0.555-0.337-1.043-0.337c-0.402,0-0.736,0.12-1.002,0.36
		c-0.266,0.24-0.42,0.564-0.463,0.97v4.207h-1.09V25.52c0-0.922-0.451-1.383-1.353-1.383c-0.711,0-1.197,0.303-1.459,0.908v4.629
		h-1.084v-6.34h1.025l0.029,0.703c0.465-0.547,1.092-0.82,1.881-0.82c0.887,0,1.49,0.34,1.811,1.02
		c0.211-0.305,0.485-0.551,0.823-0.738c0.338-0.187,0.737-0.281,1.198-0.281c1.391,0,2.098,0.736,2.121,2.209V29.674
		 M424.415,22.268c-0.211,0-0.37-0.059-0.478-0.176c-0.107-0.117-0.161-0.264-0.161-0.44c0-0.176,0.054-0.324,0.161-0.445
		s0.267-0.182,0.478-0.182c0.211,0,0.371,0.061,0.48,0.182c0.109,0.121,0.164,0.27,0.164,0.445c0,0.176-0.055,0.322-0.164,0.44
		C424.786,22.209,424.626,22.268,424.415,22.268 M414.729,22.268c-0.211,0-0.37-0.059-0.478-0.176
		c-0.107-0.117-0.161-0.264-0.161-0.44c0-0.176,0.054-0.324,0.161-0.445c0.107-0.121,0.267-0.182,0.478-0.182
		c0.211,0,0.371,0.061,0.48,0.182c0.109,0.121,0.164,0.27,0.164,0.445c0,0.176-0.055,0.322-0.164,0.44
		C415.1,22.209,414.94,22.268,414.729,22.268 M360.208,22.268c-0.211,0-0.37-0.059-0.478-0.176c-0.107-0.117-0.161-0.264-0.161-0.44
		c0-0.176,0.054-0.324,0.161-0.445c0.107-0.121,0.267-0.182,0.478-0.182c0.211,0,0.371,0.061,0.48,0.182
		c0.109,0.121,0.164,0.27,0.164,0.445c0,0.176-0.055,0.322-0.164,0.44C360.579,22.209,360.419,22.268,360.208,22.268
		 M315.978,22.268c-0.211,0-0.37-0.059-0.478-0.176c-0.107-0.117-0.161-0.264-0.161-0.44c0-0.176,0.054-0.324,0.161-0.445
		s0.267-0.182,0.478-0.182c0.211,0,0.371,0.061,0.48,0.182c0.109,0.121,0.164,0.27,0.164,0.445c0,0.176-0.055,0.322-0.164,0.44
		C316.349,22.209,316.189,22.268,315.978,22.268 M151.609,22.268c-0.211,0-0.37-0.059-0.478-0.176
		c-0.107-0.117-0.161-0.264-0.161-0.44c0-0.176,0.054-0.324,0.161-0.445c0.107-0.121,0.267-0.182,0.478-0.182
		c0.211,0,0.371,0.061,0.48,0.182c0.109,0.121,0.164,0.27,0.164,0.445c0,0.176-0.055,0.322-0.164,0.44
		C151.98,22.209,151.82,22.268,151.609,22.268 M52.142,22.268c-0.211,0-0.37-0.059-0.478-0.176c-0.107-0.117-0.161-0.264-0.161-0.44
		c0-0.176,0.054-0.324,0.161-0.445c0.107-0.121,0.267-0.182,0.478-0.182s0.371,0.061,0.48,0.182c0.109,0.121,0.164,0.27,0.164,0.445
		c0,0.176-0.055,0.322-0.164,0.44C52.513,22.209,52.353,22.268,52.142,22.268"/>
	<path fill="#000000" d="M41.254,48.17c-0.457,0-0.904-0.098-1.342-0.293c-0.437-0.195-0.772-0.463-1.002-0.803l0.563-0.65
		c0.465,0.574,1.033,0.861,1.705,0.861c0.527,0,0.938-0.148,1.233-0.445c0.295-0.297,0.442-0.715,0.442-1.254v-0.545
		c-0.434,0.5-1.025,0.75-1.775,0.75c-0.742,0-1.343-0.299-1.802-0.896s-0.688-1.412-0.688-2.443c0-0.988,0.229-1.774,0.685-2.358
		c0.457-0.584,1.063-0.876,1.816-0.876c0.773,0,1.377,0.273,1.811,0.82l0.053-0.703h0.99v6.187c0,0.82-0.243,1.467-0.73,1.94
		C42.727,47.934,42.074,48.17,41.254,48.17 M41.359,40.137c-0.527,0-0.939,0.205-1.236,0.615c-0.297,0.41-0.445,1.018-0.445,1.822
		c0,0.715,0.146,1.276,0.439,1.685c0.293,0.408,0.703,0.612,1.231,0.612c0.684,0,1.185-0.311,1.506-0.932v-2.895
		C42.521,40.439,42.023,40.137,41.359,40.137 M87.032,45.791c-0.859,0-1.559-0.282-2.098-0.847
		c-0.539-0.564-0.809-1.319-0.809-2.265V42.48c0-0.629,0.12-1.19,0.36-1.685c0.24-0.494,0.576-0.881,1.008-1.16
		c0.432-0.279,0.899-0.419,1.403-0.419c0.824,0,1.465,0.272,1.922,0.814c0.457,0.543,0.686,1.32,0.686,2.332v0.451H85.21
		c0.016,0.625,0.198,1.13,0.548,1.515c0.35,0.385,0.794,0.577,1.333,0.577c0.383,0,0.707-0.078,0.973-0.234
		c0.266-0.156,0.498-0.363,0.697-0.621l0.662,0.516C88.892,45.383,88.095,45.791,87.032,45.791 M86.897,40.107
		c-0.438,0-0.805,0.159-1.102,0.478c-0.297,0.318-0.48,0.765-0.551,1.339h3.176v-0.082c-0.031-0.551-0.18-0.978-0.445-1.28
		S87.351,40.107,86.897,40.107 M78.323,45.791c-0.484,0-0.85-0.146-1.096-0.439c-0.246-0.293-0.369-0.709-0.369-1.248v-3.932h-1.154
		v-0.838h1.154v-1.535h1.084v1.535h1.184v0.838h-1.184v3.937c0,0.254,0.053,0.445,0.158,0.572c0.105,0.127,0.285,0.191,0.539,0.191
		c0.125,0,0.297-0.023,0.516-0.07v0.874C78.87,45.752,78.592,45.791,78.323,45.791 M65.918,45.791c-0.859,0-1.559-0.282-2.098-0.847
		c-0.539-0.564-0.809-1.319-0.809-2.265V42.48c0-0.629,0.12-1.19,0.36-1.685c0.24-0.494,0.576-0.881,1.008-1.16
		c0.432-0.279,0.899-0.419,1.403-0.419c0.824,0,1.465,0.272,1.922,0.814c0.457,0.543,0.686,1.32,0.686,2.332v0.451h-4.295
		c0.016,0.625,0.198,1.13,0.548,1.515c0.349,0.385,0.794,0.577,1.333,0.577c0.383,0,0.707-0.078,0.973-0.234
		c0.266-0.156,0.498-0.363,0.697-0.621l0.662,0.516C67.778,45.383,66.981,45.791,65.918,45.791 M65.784,40.107
		c-0.437,0-0.805,0.159-1.102,0.478c-0.297,0.318-0.48,0.765-0.551,1.339h3.176v-0.082c-0.031-0.551-0.18-0.978-0.445-1.28
		C66.596,40.259,66.237,40.107,65.784,40.107 M58.558,45.791c-1.008,0-1.815-0.361-2.423-1.084c-0.607-0.723-0.911-1.689-0.911-2.9
		v-0.82c0-0.793,0.142-1.49,0.425-2.092c0.283-0.601,0.685-1.063,1.204-1.386c0.519-0.322,1.121-0.483,1.805-0.483
		c0.906,0,1.633,0.253,2.18,0.759c0.547,0.506,0.865,1.206,0.955,2.101h-1.131c-0.098-0.682-0.31-1.176-0.636-1.481
		c-0.326-0.306-0.782-0.458-1.368-0.458c-0.719,0-1.282,0.266-1.69,0.798c-0.408,0.532-0.612,1.288-0.612,2.269v0.827
		c0,0.927,0.193,1.664,0.58,2.211c0.387,0.547,0.928,0.821,1.623,0.821c0.625,0,1.104-0.142,1.439-0.425
		c0.334-0.283,0.556-0.776,0.665-1.48h1.131c-0.105,0.902-0.438,1.599-0.999,2.089S59.488,45.791,58.558,45.791 M34.227,45.791
		c-0.676,0-1.191-0.196-1.544-0.589c-0.354-0.392-0.532-0.974-0.536-1.743v-4.125h1.084v4.096c0,0.961,0.39,1.441,1.172,1.441
		c0.828,0,1.379-0.309,1.652-0.926v-4.611h1.084v6.34h-1.031l-0.023-0.627C35.662,45.543,35.043,45.791,34.227,45.791
		 M27.882,45.791c-0.859,0-1.556-0.299-2.089-0.896c-0.533-0.598-0.8-1.389-0.8-2.373v-0.076c0-0.621,0.122-1.18,0.366-1.676
		c0.244-0.496,0.584-0.879,1.019-1.148c0.436-0.27,0.933-0.404,1.491-0.404c0.863,0,1.561,0.299,2.095,0.896
		c0.533,0.598,0.8,1.393,0.8,2.385v0.076c0,0.617-0.118,1.171-0.355,1.661c-0.236,0.49-0.574,0.872-1.014,1.145
		C28.957,45.654,28.453,45.791,27.882,45.791 M27.871,40.107c-0.535,0-0.967,0.213-1.295,0.639
		c-0.328,0.426-0.492,1.035-0.492,1.828c0,0.703,0.163,1.268,0.489,1.693c0.326,0.426,0.763,0.639,1.31,0.639
		c0.551,0,0.988-0.216,1.313-0.647c0.324-0.432,0.486-1.036,0.486-1.813c0-0.695-0.165-1.259-0.495-1.69
		C28.856,40.323,28.417,40.107,27.871,40.107 M12.514,45.791c-0.484,0-0.85-0.146-1.096-0.439c-0.246-0.293-0.369-0.709-0.369-1.248
		v-3.932H9.895v-0.838h1.154v-1.535h1.084v1.535h1.184v0.838h-1.184v3.937c0,0.254,0.053,0.445,0.158,0.572
		c0.106,0.127,0.285,0.191,0.539,0.191c0.125,0,0.297-0.023,0.516-0.07v0.874C13.06,45.752,12.783,45.791,12.514,45.791
		 M110.33,45.738c-0.223,0-0.39-0.061-0.501-0.182c-0.111-0.121-0.167-0.271-0.167-0.451c0-0.188,0.056-0.344,0.167-0.469
		c0.111-0.125,0.278-0.187,0.501-0.187c0.223,0,0.391,0.063,0.507,0.187c0.115,0.125,0.173,0.281,0.173,0.469
		c0,0.18-0.058,0.33-0.173,0.451C110.722,45.678,110.553,45.738,110.33,45.738 M108.599,45.674h-1.271l-2.209-2.936l-0.68,0.709
		v2.227h-1.084v-9h1.084v5.443l0.58-0.697l1.975-2.086h1.318l-2.467,2.648L108.599,45.674 M101.653,45.674h-1.084v-4.195
		c-0.004-0.457-0.108-0.795-0.313-1.014c-0.205-0.219-0.524-0.328-0.958-0.328c-0.352,0-0.66,0.094-0.926,0.281
		c-0.266,0.188-0.473,0.434-0.621,0.738v4.518h-1.084v-6.34h1.025l0.035,0.797c0.484-0.609,1.117-0.914,1.898-0.914
		c1.34,0,2.016,0.756,2.027,2.268V45.674 M94.909,45.674h-1.084v-6.34h1.084V45.674 M92.023,45.674h-1.084v-9h1.084V45.674
		 M81.449,45.674h-1.084v-6.34h1.055l0.018,0.732c0.355-0.566,0.859-0.85,1.512-0.85c0.211,0,0.371,0.027,0.48,0.082v1.008
		c-0.164-0.027-0.342-0.041-0.533-0.041c-0.711,0-1.193,0.303-1.447,0.908V45.674 M74.755,45.674h-1.084v-4.195
		c-0.004-0.457-0.108-0.795-0.313-1.014c-0.205-0.219-0.524-0.328-0.958-0.328c-0.352,0-0.66,0.094-0.926,0.281
		c-0.266,0.188-0.473,0.434-0.621,0.738v4.518h-1.084v-6.34h1.025l0.035,0.797c0.484-0.609,1.117-0.914,1.899-0.914
		c1.34,0,2.016,0.756,2.027,2.268V45.674 M50.634,45.674H49.55v-4.195c-0.004-0.457-0.108-0.795-0.313-1.014
		c-0.205-0.219-0.524-0.328-0.958-0.328c-0.352,0-0.66,0.094-0.926,0.281c-0.266,0.188-0.473,0.434-0.621,0.738v4.518h-1.084v-9
		h1.084v3.428c0.48-0.59,1.105-0.885,1.875-0.885c1.34,0,2.016,0.756,2.027,2.268V45.674 M22.316,45.674h-1.084v-6.34h1.055
		l0.018,0.732c0.355-0.566,0.859-0.85,1.512-0.85c0.211,0,0.371,0.027,0.481,0.082v1.008c-0.164-0.027-0.342-0.041-0.533-0.041
		c-0.711,0-1.193,0.303-1.447,0.908V45.674 M19.542,45.674h-1.084v-4.195c-0.004-0.457-0.108-0.795-0.313-1.014
		c-0.205-0.219-0.524-0.328-0.958-0.328c-0.352,0-0.66,0.094-0.926,0.281c-0.266,0.188-0.473,0.434-0.621,0.738v4.518h-1.084v-9
		h1.084v3.428c0.481-0.59,1.105-0.885,1.875-0.885c1.34,0,2.016,0.756,2.027,2.268V45.674 M94.375,38.268
		c-0.211,0-0.37-0.059-0.478-0.176c-0.107-0.117-0.161-0.264-0.161-0.44s0.054-0.324,0.161-0.445
		c0.107-0.121,0.267-0.182,0.478-0.182c0.211,0,0.371,0.061,0.48,0.182c0.109,0.121,0.164,0.27,0.164,0.445s-0.055,0.322-0.164,0.44
		C94.746,38.209,94.586,38.268,94.375,38.268"/>
</g>
</svg>
