<!-- Generator: Adobe InDesign 20.4 SVG Export Plug-in, SVG Library version: 9.3 build 117 -->
<!DOCTYPE svg PUBLIC "-//W3C//DTD SVG 1.1//EN" "http://www.w3.org/Graphics/SVG/1.1/DTD/svg11.dtd">
<svg version="1.1" xmlns="http://www.w3.org/2000/svg" xmlns:xlink="http://www.w3.org/1999/xlink" x="0%" y="0%" width="100%"
	 height="100%" viewBox="0 0 528.815 73.726" preserveAspectRatio="xMidYMid slice" overflow="visible" xml:space="preserve">
<clipPath id="clp_unq_id_1" fill="none">
	<path shape-rendering="crispEdges" stroke="#000000" d="M0,0h528.815v73.726H0V0"/>
</clipPath>
<g clip-path="url(#clp_unq_id_1)" fill="none">
	<path fill="#000000" d="M466.701,18.773c-0.242,0-0.508-0.041-0.8-0.124v-1.291l0.315,0.021c0.419,0,0.735-0.076,0.947-0.229
		c0.212-0.153,0.379-0.409,0.503-0.768l0.239-0.635l-2.598-7.357h1.791l1.565,5.018l1.504-5.018h1.77l-2.939,8.518
		C468.547,18.151,467.781,18.773,466.701,18.773 M144.842,18.773c-0.242,0-0.508-0.041-0.8-0.124v-1.291l0.315,0.021
		c0.419,0,0.735-0.076,0.947-0.229c0.212-0.153,0.379-0.409,0.503-0.768l0.239-0.635l-2.598-7.357h1.791l1.565,5.018l1.504-5.018
		h1.77l-2.939,8.518C146.688,18.151,145.922,18.773,144.842,18.773 M99.13,18.773c-0.242,0-0.508-0.041-0.8-0.124v-1.291
		l0.314,0.021c0.419,0,0.735-0.076,0.947-0.229c0.212-0.153,0.379-0.409,0.502-0.768l0.239-0.635L97.735,8.39h1.791l1.565,5.018
		l1.504-5.018h1.77l-2.939,8.518C100.976,18.151,100.21,18.773,99.13,18.773 M286.585,18.698c-0.543,0-1.072-0.113-1.589-0.338
		c-0.517-0.226-0.91-0.521-1.179-0.885l0.786-0.998c0.51,0.606,1.139,0.909,1.887,0.909c0.551,0,0.987-0.149,1.306-0.448
		c0.319-0.299,0.479-0.737,0.479-1.316v-0.499c-0.479,0.533-1.117,0.8-1.914,0.8c-0.866,0-1.573-0.344-2.122-1.032
		c-0.549-0.688-0.824-1.641-0.824-2.857c0-1.148,0.27-2.066,0.81-2.751c0.54-0.686,1.257-1.029,2.15-1.029
		c0.843,0,1.506,0.294,1.989,0.882l0.075-0.745h1.497v7.171c0,0.971-0.302,1.736-0.906,2.297
		C288.425,18.418,287.61,18.698,286.585,18.698 M286.797,9.613c-0.547,0-0.972,0.216-1.275,0.649
		c-0.303,0.433-0.455,1.071-0.455,1.914c0,0.743,0.151,1.327,0.455,1.753c0.303,0.426,0.723,0.639,1.261,0.639
		c0.67,0,1.167-0.287,1.49-0.861v-3.254C287.959,9.894,287.467,9.613,286.797,9.613 M401.42,18.63h-1.661V8.39h1.531l0.068,0.752
		c0.488-0.592,1.151-0.889,1.989-0.889c0.902,0,1.61,0.336,2.122,1.008c0.513,0.672,0.769,1.605,0.769,2.799v0.103
		c0,1.144-0.26,2.057-0.779,2.738s-1.217,1.022-2.092,1.022c-0.811,0-1.461-0.266-1.948-0.8V18.63 M402.883,9.613
		c-0.679,0-1.167,0.28-1.463,0.841v3.281c0.301,0.574,0.793,0.861,1.477,0.861c0.529,0,0.942-0.213,1.241-0.639
		c0.298-0.426,0.448-1.072,0.448-1.938c0-0.738-0.147-1.324-0.441-1.757C403.85,9.83,403.43,9.613,402.883,9.613 M393.428,18.63
		h-1.661V8.39h1.531l0.068,0.752c0.488-0.592,1.151-0.889,1.989-0.889c0.902,0,1.61,0.336,2.122,1.008
		c0.513,0.672,0.769,1.605,0.769,2.799v0.103c0,1.144-0.26,2.057-0.779,2.738c-0.52,0.681-1.217,1.022-2.092,1.022
		c-0.811,0-1.461-0.266-1.948-0.8V18.63 M394.89,9.613c-0.679,0-1.167,0.28-1.463,0.841v3.281c0.301,0.574,0.793,0.861,1.477,0.861
		c0.529,0,0.942-0.213,1.241-0.639c0.298-0.426,0.448-1.072,0.448-1.938c0-0.738-0.147-1.324-0.441-1.757
		C395.858,9.83,395.437,9.613,394.89,9.613 M92.038,18.028l-0.896-0.533c0.264-0.415,0.445-0.776,0.543-1.084
		c0.098-0.308,0.149-0.621,0.154-0.94V14.18h1.497l-0.007,1.196c-0.005,0.483-0.126,0.967-0.366,1.453
		C92.725,17.314,92.416,17.714,92.038,18.028 M508.032,15.923c-1.053,0-1.906-0.331-2.56-0.995
		c-0.654-0.663-0.981-1.546-0.981-2.649v-0.205c0-0.738,0.142-1.398,0.427-1.979c0.285-0.581,0.685-1.033,1.2-1.357
		c0.515-0.323,1.089-0.485,1.723-0.485c1.007,0,1.785,0.321,2.334,0.964c0.549,0.643,0.824,1.552,0.824,2.727v0.67h-4.833
		c0.05,0.611,0.254,1.094,0.612,1.449c0.358,0.355,0.808,0.533,1.35,0.533c0.761,0,1.381-0.308,1.859-0.923l0.896,0.854
		c-0.296,0.442-0.692,0.785-1.186,1.029C509.202,15.801,508.647,15.923,508.032,15.923 M507.834,9.586
		c-0.456,0-0.824,0.16-1.104,0.479c-0.28,0.319-0.459,0.763-0.537,1.333h3.165v-0.123c-0.037-0.556-0.185-0.976-0.444-1.261
		C508.654,9.728,508.294,9.586,507.834,9.586 M494.464,15.923c-0.743,0-1.349-0.212-1.818-0.636
		c-0.469-0.424-0.704-0.948-0.704-1.572c0-0.788,0.293-1.393,0.878-1.815c0.586-0.422,1.423-0.632,2.512-0.632h1.019v-0.485
		c0-0.383-0.107-0.689-0.321-0.919c-0.214-0.23-0.54-0.345-0.978-0.345c-0.378,0-0.688,0.095-0.93,0.284
		c-0.242,0.189-0.362,0.43-0.362,0.721h-1.661c0-0.406,0.134-0.785,0.403-1.138c0.269-0.353,0.635-0.63,1.097-0.831
		c0.462-0.2,0.979-0.301,1.548-0.301c0.866,0,1.556,0.218,2.071,0.653c0.515,0.435,0.779,1.047,0.793,1.835v3.336
		c0,0.665,0.093,1.196,0.28,1.593v0.116h-1.695c-0.073-0.141-0.137-0.371-0.191-0.691C495.877,15.647,495.23,15.923,494.464,15.923
		 M495.455,12.314c-0.615,0-1.078,0.107-1.388,0.321s-0.465,0.517-0.465,0.909c0,0.319,0.106,0.573,0.318,0.762
		c0.212,0.189,0.496,0.284,0.851,0.284c0.328,0,0.637-0.08,0.926-0.239s0.507-0.374,0.653-0.643v-1.395H495.455 M483.175,15.923
		c-0.802,0-1.409-0.235-1.822-0.704c-0.413-0.469-0.619-1.148-0.619-2.037V8.39h1.661v4.771c0,0.939,0.39,1.408,1.169,1.408
		c0.807,0,1.351-0.289,1.634-0.868V8.39h1.661v7.397h-1.565l-0.041-0.725C484.765,15.636,484.073,15.923,483.175,15.923
		 M475.878,15.923c-1.044,0-1.879-0.347-2.505-1.042c-0.627-0.695-0.94-1.621-0.94-2.779v-0.082c0-0.725,0.143-1.377,0.431-1.958
		c0.287-0.581,0.69-1.028,1.21-1.34c0.519-0.312,1.117-0.468,1.791-0.468c0.998,0,1.808,0.321,2.43,0.964s0.958,1.495,1.008,2.557
		l0.007,0.39c0,0.729-0.14,1.381-0.42,1.955c-0.28,0.574-0.681,1.019-1.203,1.333C477.164,15.766,476.562,15.923,475.878,15.923
		 M475.865,9.586c-0.542,0-0.973,0.215-1.292,0.646c-0.319,0.431-0.478,1.074-0.478,1.931c0,0.761,0.157,1.357,0.472,1.788
		c0.314,0.431,0.752,0.646,1.312,0.646c0.561,0,0.997-0.219,1.309-0.656c0.312-0.438,0.468-1.078,0.468-1.921
		c0-0.747-0.161-1.34-0.482-1.777C476.852,9.805,476.416,9.586,475.865,9.586 M458.194,15.923c-1.053,0-1.906-0.331-2.56-0.995
		c-0.654-0.663-0.981-1.546-0.981-2.649v-0.205c0-0.738,0.142-1.398,0.427-1.979c0.285-0.581,0.685-1.033,1.2-1.357
		c0.515-0.323,1.089-0.485,1.723-0.485c1.007,0,1.785,0.321,2.334,0.964c0.549,0.643,0.824,1.552,0.824,2.727v0.67h-4.833
		c0.05,0.611,0.254,1.094,0.612,1.449c0.358,0.355,0.808,0.533,1.35,0.533c0.761,0,1.381-0.308,1.859-0.923l0.896,0.854
		c-0.296,0.442-0.692,0.785-1.186,1.029C459.364,15.801,458.809,15.923,458.194,15.923 M457.995,9.586
		c-0.456,0-0.824,0.16-1.104,0.479c-0.28,0.319-0.459,0.763-0.537,1.333h3.165v-0.123c-0.037-0.556-0.185-0.976-0.444-1.261
		C458.816,9.728,458.456,9.586,457.995,9.586 M423.54,15.923c-1.276,0-1.914-0.704-1.914-2.112V9.62h-1.217V8.39h1.217V6.592h1.661
		V8.39h1.306V9.62h-1.306v4.129c0,0.283,0.056,0.487,0.167,0.612c0.112,0.125,0.311,0.188,0.598,0.188
		c0.191,0,0.385-0.023,0.581-0.068v1.285C424.256,15.87,423.891,15.923,423.54,15.923 M410.872,15.923
		c-1.044,0-1.879-0.347-2.505-1.042c-0.627-0.695-0.94-1.621-0.94-2.779v-0.082c0-0.725,0.143-1.377,0.431-1.958
		c0.287-0.581,0.691-1.028,1.21-1.34c0.52-0.312,1.117-0.468,1.791-0.468c0.998,0,1.808,0.321,2.43,0.964s0.958,1.495,1.008,2.557
		l0.007,0.39c0,0.729-0.14,1.381-0.42,1.955c-0.28,0.574-0.681,1.019-1.203,1.333C412.158,15.766,411.556,15.923,410.872,15.923
		 M410.859,9.586c-0.542,0-0.973,0.215-1.292,0.646c-0.319,0.431-0.479,1.074-0.479,1.931c0,0.761,0.157,1.357,0.472,1.788
		c0.314,0.431,0.752,0.646,1.312,0.646c0.561,0,0.997-0.219,1.309-0.656c0.312-0.438,0.468-1.078,0.468-1.921
		c0-0.747-0.161-1.34-0.482-1.777C411.846,9.805,411.41,9.586,410.859,9.586 M386.29,15.923c-0.802,0-1.409-0.235-1.822-0.704
		c-0.413-0.469-0.619-1.148-0.619-2.037V8.39h1.661v4.771c0,0.939,0.39,1.408,1.169,1.408c0.807,0,1.351-0.289,1.634-0.868V8.39
		h1.661v7.397h-1.565l-0.041-0.725C387.88,15.636,387.188,15.923,386.29,15.923 M379.387,15.923c-0.606,0-1.146-0.109-1.62-0.328
		c-0.474-0.219-0.843-0.52-1.107-0.902c-0.264-0.383-0.396-0.795-0.396-1.237h1.613c0.023,0.392,0.171,0.694,0.444,0.906
		c0.273,0.212,0.636,0.318,1.087,0.318c0.438,0,0.77-0.083,0.998-0.249c0.228-0.166,0.342-0.384,0.342-0.653
		c0-0.296-0.122-0.522-0.366-0.677c-0.244-0.155-0.648-0.292-1.213-0.41c-0.565-0.118-1.037-0.269-1.415-0.451
		c-0.83-0.401-1.244-0.982-1.244-1.743c0-0.638,0.269-1.171,0.807-1.6c0.538-0.428,1.221-0.643,2.051-0.643
		c0.884,0,1.599,0.219,2.143,0.656c0.544,0.438,0.817,1.005,0.817,1.702h-1.661c0-0.319-0.119-0.584-0.356-0.796
		c-0.237-0.212-0.551-0.318-0.943-0.318c-0.365,0-0.662,0.084-0.892,0.253c-0.23,0.169-0.345,0.394-0.345,0.677
		c0,0.255,0.107,0.454,0.321,0.595c0.214,0.141,0.647,0.284,1.299,0.427c0.652,0.144,1.163,0.314,1.535,0.513
		c0.371,0.198,0.647,0.436,0.827,0.714c0.18,0.278,0.27,0.615,0.27,1.012c0,0.665-0.276,1.204-0.827,1.617
		C381.002,15.717,380.28,15.923,379.387,15.923 M364.094,15.923c-0.743,0-1.349-0.212-1.818-0.636
		c-0.469-0.424-0.704-0.948-0.704-1.572c0-0.788,0.293-1.393,0.878-1.815c0.586-0.422,1.423-0.632,2.512-0.632h1.019v-0.485
		c0-0.383-0.107-0.689-0.321-0.919c-0.214-0.23-0.54-0.345-0.978-0.345c-0.378,0-0.688,0.095-0.93,0.284
		c-0.242,0.189-0.362,0.43-0.362,0.721h-1.661c0-0.406,0.134-0.785,0.403-1.138c0.269-0.353,0.635-0.63,1.097-0.831
		c0.463-0.2,0.979-0.301,1.548-0.301c0.866,0,1.556,0.218,2.071,0.653c0.515,0.435,0.779,1.047,0.793,1.835v3.336
		c0,0.665,0.093,1.196,0.28,1.593v0.116h-1.695c-0.073-0.141-0.137-0.371-0.191-0.691C365.507,15.647,364.859,15.923,364.094,15.923
		 M365.085,12.314c-0.615,0-1.078,0.107-1.388,0.321s-0.465,0.517-0.465,0.909c0,0.319,0.106,0.573,0.318,0.762
		c0.212,0.189,0.496,0.284,0.851,0.284c0.328,0,0.637-0.08,0.926-0.239c0.289-0.16,0.507-0.374,0.653-0.643v-1.395H365.085
		 M353.928,15.923c-1.035,0-1.855-0.335-2.461-1.005c-0.606-0.67-0.909-1.595-0.909-2.775v-0.171c0-1.126,0.301-2.027,0.902-2.704
		c0.602-0.677,1.422-1.015,2.461-1.015c0.879,0,1.596,0.256,2.15,0.769c0.554,0.513,0.844,1.186,0.871,2.02h-1.565
		c-0.018-0.424-0.163-0.772-0.434-1.046c-0.271-0.274-0.616-0.41-1.036-0.41c-0.538,0-0.953,0.195-1.244,0.584
		c-0.292,0.39-0.44,0.981-0.444,1.774v0.267c0,0.802,0.145,1.4,0.434,1.794c0.289,0.394,0.707,0.591,1.254,0.591
		c0.415,0,0.759-0.121,1.032-0.362c0.273-0.241,0.419-0.54,0.437-0.896h1.565c-0.018,0.46-0.162,0.89-0.431,1.289
		c-0.269,0.399-0.633,0.714-1.094,0.947C354.958,15.807,354.461,15.923,353.928,15.923 M337.645,15.923
		c-0.743,0-1.349-0.212-1.818-0.636c-0.469-0.424-0.704-0.948-0.704-1.572c0-0.788,0.293-1.393,0.878-1.815
		c0.586-0.422,1.423-0.632,2.512-0.632h1.019v-0.485c0-0.383-0.107-0.689-0.321-0.919c-0.214-0.23-0.54-0.345-0.978-0.345
		c-0.378,0-0.688,0.095-0.93,0.284c-0.242,0.189-0.362,0.43-0.362,0.721h-1.661c0-0.406,0.134-0.785,0.403-1.138
		c0.269-0.353,0.635-0.63,1.097-0.831c0.463-0.2,0.979-0.301,1.548-0.301c0.866,0,1.556,0.218,2.071,0.653
		c0.515,0.435,0.779,1.047,0.793,1.835v3.336c0,0.665,0.093,1.196,0.28,1.593v0.116h-1.695c-0.073-0.141-0.137-0.371-0.191-0.691
		C339.058,15.647,338.411,15.923,337.645,15.923 M338.637,12.314c-0.615,0-1.078,0.107-1.388,0.321s-0.465,0.517-0.465,0.909
		c0,0.319,0.106,0.573,0.318,0.762c0.212,0.189,0.496,0.284,0.851,0.284c0.328,0,0.637-0.08,0.926-0.239
		c0.289-0.16,0.507-0.374,0.653-0.643v-1.395H338.637 M305.968,15.923c-1.044,0-1.879-0.347-2.505-1.042
		c-0.627-0.695-0.94-1.621-0.94-2.779v-0.082c0-0.725,0.143-1.377,0.431-1.958c0.287-0.581,0.69-1.028,1.21-1.34
		c0.519-0.312,1.117-0.468,1.791-0.468c0.998,0,1.808,0.321,2.43,0.964s0.958,1.495,1.008,2.557l0.007,0.39
		c0,0.729-0.14,1.381-0.42,1.955c-0.28,0.574-0.681,1.019-1.203,1.333C307.254,15.766,306.651,15.923,305.968,15.923 M305.954,9.586
		c-0.543,0-0.973,0.215-1.292,0.646c-0.319,0.431-0.478,1.074-0.478,1.931c0,0.761,0.157,1.357,0.472,1.788
		c0.315,0.431,0.752,0.646,1.313,0.646c0.56,0,0.997-0.219,1.309-0.656c0.312-0.438,0.468-1.078,0.468-1.921
		c0-0.747-0.161-1.34-0.482-1.777C306.942,9.805,306.505,9.586,305.954,9.586 M294.952,15.923c-1.053,0-1.906-0.331-2.56-0.995
		c-0.654-0.663-0.981-1.546-0.981-2.649v-0.205c0-0.738,0.142-1.398,0.427-1.979c0.285-0.581,0.685-1.033,1.2-1.357
		c0.515-0.323,1.089-0.485,1.723-0.485c1.007,0,1.785,0.321,2.335,0.964c0.549,0.643,0.824,1.552,0.824,2.727v0.67h-4.833
		c0.05,0.611,0.254,1.094,0.612,1.449c0.358,0.355,0.808,0.533,1.35,0.533c0.761,0,1.381-0.308,1.859-0.923l0.895,0.854
		c-0.296,0.442-0.692,0.785-1.186,1.029C296.122,15.801,295.567,15.923,294.952,15.923 M294.754,9.586
		c-0.456,0-0.824,0.16-1.104,0.479c-0.28,0.319-0.459,0.763-0.537,1.333h3.165v-0.123c-0.037-0.556-0.185-0.976-0.444-1.261
		C295.574,9.728,295.214,9.586,294.754,9.586 M270.494,15.923c-0.743,0-1.349-0.212-1.818-0.636
		c-0.469-0.424-0.704-0.948-0.704-1.572c0-0.788,0.293-1.393,0.878-1.815c0.586-0.422,1.423-0.632,2.512-0.632h1.019v-0.485
		c0-0.383-0.107-0.689-0.321-0.919c-0.214-0.23-0.54-0.345-0.978-0.345c-0.378,0-0.688,0.095-0.93,0.284
		c-0.242,0.189-0.362,0.43-0.362,0.721h-1.661c0-0.406,0.134-0.785,0.403-1.138c0.269-0.353,0.635-0.63,1.097-0.831
		c0.462-0.2,0.979-0.301,1.548-0.301c0.866,0,1.556,0.218,2.071,0.653c0.515,0.435,0.779,1.047,0.793,1.835v3.336
		c0,0.665,0.093,1.196,0.28,1.593v0.116h-1.695c-0.073-0.141-0.137-0.371-0.191-0.691C271.906,15.647,271.259,15.923,270.494,15.923
		 M271.485,12.314c-0.615,0-1.078,0.107-1.388,0.321c-0.31,0.214-0.465,0.517-0.465,0.909c0,0.319,0.106,0.573,0.318,0.762
		c0.212,0.189,0.496,0.284,0.851,0.284c0.328,0,0.637-0.08,0.926-0.239s0.507-0.374,0.653-0.643v-1.395H271.485 M254.262,15.923
		c-0.743,0-1.349-0.212-1.818-0.636c-0.469-0.424-0.704-0.948-0.704-1.572c0-0.788,0.293-1.393,0.878-1.815
		c0.586-0.422,1.423-0.632,2.512-0.632h1.019v-0.485c0-0.383-0.107-0.689-0.321-0.919c-0.214-0.23-0.54-0.345-0.978-0.345
		c-0.378,0-0.688,0.095-0.93,0.284c-0.242,0.189-0.362,0.43-0.362,0.721h-1.661c0-0.406,0.134-0.785,0.403-1.138
		c0.269-0.353,0.635-0.63,1.097-0.831c0.463-0.2,0.979-0.301,1.548-0.301c0.866,0,1.556,0.218,2.071,0.653
		c0.515,0.435,0.779,1.047,0.793,1.835v3.336c0,0.665,0.093,1.196,0.28,1.593v0.116h-1.695c-0.073-0.141-0.137-0.371-0.191-0.691
		C255.675,15.647,255.028,15.923,254.262,15.923 M255.253,12.314c-0.615,0-1.078,0.107-1.388,0.321
		c-0.31,0.214-0.465,0.517-0.465,0.909c0,0.319,0.106,0.573,0.318,0.762c0.212,0.189,0.496,0.284,0.851,0.284
		c0.328,0,0.637-0.08,0.926-0.239c0.289-0.16,0.507-0.374,0.653-0.643v-1.395H255.253 M243.513,15.923
		c-1.044,0-1.879-0.347-2.505-1.042c-0.627-0.695-0.94-1.621-0.94-2.779v-0.082c0-0.725,0.143-1.377,0.431-1.958
		c0.287-0.581,0.691-1.028,1.21-1.34c0.519-0.312,1.117-0.468,1.791-0.468c0.998,0,1.808,0.321,2.43,0.964s0.958,1.495,1.008,2.557
		l0.007,0.39c0,0.729-0.14,1.381-0.42,1.955c-0.28,0.574-0.681,1.019-1.203,1.333C244.799,15.766,244.196,15.923,243.513,15.923
		 M243.499,9.586c-0.542,0-0.973,0.215-1.292,0.646c-0.319,0.431-0.479,1.074-0.479,1.931c0,0.761,0.157,1.357,0.472,1.788
		s0.752,0.646,1.312,0.646c0.561,0,0.997-0.219,1.309-0.656c0.312-0.438,0.468-1.078,0.468-1.921c0-0.747-0.161-1.34-0.482-1.777
		C244.487,9.805,244.051,9.586,243.499,9.586 M238.154,15.923c-1.276,0-1.914-0.704-1.914-2.112V9.62h-1.217V8.39h1.217V6.592h1.661
		V8.39h1.306V9.62h-1.306v4.129c0,0.283,0.056,0.487,0.167,0.612c0.112,0.125,0.311,0.188,0.598,0.188
		c0.191,0,0.385-0.023,0.581-0.068v1.285C238.87,15.87,238.505,15.923,238.154,15.923 M227.754,15.923
		c-0.606,0-1.146-0.109-1.62-0.328c-0.474-0.219-0.843-0.52-1.107-0.902c-0.264-0.383-0.396-0.795-0.396-1.237h1.613
		c0.023,0.392,0.171,0.694,0.444,0.906c0.273,0.212,0.636,0.318,1.087,0.318c0.438,0,0.77-0.083,0.998-0.249
		c0.228-0.166,0.342-0.384,0.342-0.653c0-0.296-0.122-0.522-0.366-0.677c-0.244-0.155-0.648-0.292-1.213-0.41
		c-0.565-0.118-1.037-0.269-1.415-0.451c-0.83-0.401-1.244-0.982-1.244-1.743c0-0.638,0.269-1.171,0.807-1.6
		c0.538-0.428,1.221-0.643,2.051-0.643c0.884,0,1.598,0.219,2.143,0.656c0.545,0.438,0.817,1.005,0.817,1.702h-1.661
		c0-0.319-0.118-0.584-0.355-0.796c-0.237-0.212-0.552-0.318-0.943-0.318c-0.365,0-0.662,0.084-0.892,0.253
		c-0.23,0.169-0.345,0.394-0.345,0.677c0,0.255,0.107,0.454,0.321,0.595c0.214,0.141,0.647,0.284,1.299,0.427
		c0.652,0.144,1.163,0.314,1.535,0.513c0.371,0.198,0.647,0.436,0.827,0.714c0.18,0.278,0.27,0.615,0.27,1.012
		c0,0.665-0.276,1.204-0.827,1.617C229.369,15.717,228.647,15.923,227.754,15.923 M220.473,15.923c-0.606,0-1.146-0.109-1.62-0.328
		c-0.474-0.219-0.843-0.52-1.108-0.902c-0.264-0.383-0.396-0.795-0.396-1.237h1.613c0.023,0.392,0.171,0.694,0.444,0.906
		c0.273,0.212,0.636,0.318,1.087,0.318c0.438,0,0.77-0.083,0.998-0.249c0.228-0.166,0.342-0.384,0.342-0.653
		c0-0.296-0.122-0.522-0.366-0.677c-0.244-0.155-0.648-0.292-1.213-0.41c-0.565-0.118-1.037-0.269-1.415-0.451
		c-0.829-0.401-1.244-0.982-1.244-1.743c0-0.638,0.269-1.171,0.807-1.6c0.538-0.428,1.221-0.643,2.051-0.643
		c0.884,0,1.598,0.219,2.143,0.656c0.544,0.438,0.817,1.005,0.817,1.702h-1.661c0-0.319-0.119-0.584-0.355-0.796
		c-0.237-0.212-0.552-0.318-0.943-0.318c-0.365,0-0.662,0.084-0.892,0.253c-0.23,0.169-0.345,0.394-0.345,0.677
		c0,0.255,0.107,0.454,0.321,0.595c0.214,0.141,0.647,0.284,1.299,0.427c0.652,0.144,1.163,0.314,1.535,0.513
		c0.371,0.198,0.647,0.436,0.827,0.714c0.18,0.278,0.27,0.615,0.27,1.012c0,0.665-0.276,1.204-0.827,1.617
		C222.089,15.717,221.367,15.923,220.473,15.923 M213.396,15.923c-1.053,0-1.906-0.331-2.56-0.995
		c-0.654-0.663-0.981-1.546-0.981-2.649v-0.205c0-0.738,0.142-1.398,0.427-1.979c0.285-0.581,0.685-1.033,1.2-1.357
		c0.515-0.323,1.089-0.485,1.723-0.485c1.007,0,1.785,0.321,2.335,0.964c0.549,0.643,0.824,1.552,0.824,2.727v0.67h-4.833
		c0.05,0.611,0.254,1.094,0.612,1.449c0.358,0.355,0.808,0.533,1.35,0.533c0.761,0,1.381-0.308,1.859-0.923l0.895,0.854
		c-0.296,0.442-0.692,0.785-1.186,1.029C214.566,15.801,214.011,15.923,213.396,15.923 M213.198,9.586
		c-0.456,0-0.824,0.16-1.104,0.479c-0.28,0.319-0.459,0.763-0.537,1.333h3.165v-0.123c-0.037-0.556-0.185-0.976-0.444-1.261
		C214.018,9.728,213.658,9.586,213.198,9.586 M205.774,15.923c-1.035,0-1.855-0.335-2.461-1.005
		c-0.606-0.67-0.909-1.595-0.909-2.775v-0.171c0-1.126,0.301-2.027,0.902-2.704s1.422-1.015,2.461-1.015
		c0.879,0,1.596,0.256,2.15,0.769c0.554,0.513,0.844,1.186,0.871,2.02h-1.565c-0.018-0.424-0.163-0.772-0.434-1.046
		c-0.271-0.274-0.616-0.41-1.036-0.41c-0.538,0-0.952,0.195-1.244,0.584c-0.292,0.39-0.44,0.981-0.444,1.774v0.267
		c0,0.802,0.145,1.4,0.434,1.794c0.289,0.394,0.707,0.591,1.254,0.591c0.415,0,0.759-0.121,1.032-0.362
		c0.273-0.241,0.419-0.54,0.437-0.896h1.565c-0.018,0.46-0.162,0.89-0.431,1.289c-0.269,0.399-0.633,0.714-1.094,0.947
		C206.804,15.807,206.308,15.923,205.774,15.923 M198.33,15.923c-1.035,0-1.855-0.335-2.461-1.005
		c-0.606-0.67-0.909-1.595-0.909-2.775v-0.171c0-1.126,0.301-2.027,0.902-2.704s1.422-1.015,2.461-1.015
		c0.879,0,1.596,0.256,2.15,0.769c0.554,0.513,0.844,1.186,0.871,2.02h-1.565c-0.018-0.424-0.163-0.772-0.434-1.046
		c-0.271-0.274-0.616-0.41-1.036-0.41c-0.538,0-0.952,0.195-1.244,0.584c-0.292,0.39-0.44,0.981-0.444,1.774v0.267
		c0,0.802,0.145,1.4,0.434,1.794c0.289,0.394,0.707,0.591,1.254,0.591c0.415,0,0.759-0.121,1.032-0.362
		c0.273-0.241,0.419-0.54,0.437-0.896h1.565c-0.018,0.46-0.162,0.89-0.431,1.289c-0.269,0.399-0.633,0.714-1.094,0.947
		C199.36,15.807,198.863,15.923,198.33,15.923 M189.981,15.923c-0.743,0-1.349-0.212-1.818-0.636
		c-0.469-0.424-0.704-0.948-0.704-1.572c0-0.788,0.293-1.393,0.878-1.815c0.586-0.422,1.423-0.632,2.512-0.632h1.019v-0.485
		c0-0.383-0.107-0.689-0.321-0.919c-0.214-0.23-0.54-0.345-0.978-0.345c-0.378,0-0.688,0.095-0.93,0.284
		c-0.242,0.189-0.362,0.43-0.362,0.721h-1.661c0-0.406,0.134-0.785,0.403-1.138c0.269-0.353,0.635-0.63,1.097-0.831
		c0.462-0.2,0.979-0.301,1.548-0.301c0.866,0,1.556,0.218,2.071,0.653c0.515,0.435,0.779,1.047,0.793,1.835v3.336
		c0,0.665,0.093,1.196,0.28,1.593v0.116h-1.695c-0.073-0.141-0.137-0.371-0.191-0.691C191.393,15.647,190.746,15.923,189.981,15.923
		 M190.972,12.314c-0.615,0-1.078,0.107-1.388,0.321c-0.31,0.214-0.465,0.517-0.465,0.909c0,0.319,0.106,0.573,0.318,0.762
		c0.212,0.189,0.496,0.284,0.851,0.284c0.328,0,0.637-0.08,0.926-0.239c0.289-0.16,0.507-0.374,0.653-0.643v-1.395H190.972
		 M179.812,15.923c-1.053,0-1.906-0.331-2.56-0.995c-0.654-0.663-0.981-1.546-0.981-2.649v-0.205c0-0.738,0.142-1.398,0.427-1.979
		c0.285-0.581,0.685-1.033,1.2-1.357c0.515-0.323,1.089-0.485,1.723-0.485c1.007,0,1.785,0.321,2.334,0.964
		c0.549,0.643,0.824,1.552,0.824,2.727v0.67h-4.833c0.05,0.611,0.254,1.094,0.612,1.449c0.358,0.355,0.808,0.533,1.35,0.533
		c0.761,0,1.381-0.308,1.859-0.923l0.896,0.854c-0.296,0.442-0.692,0.785-1.186,1.029C180.982,15.801,180.427,15.923,179.812,15.923
		 M179.614,9.586c-0.456,0-0.824,0.16-1.104,0.479c-0.28,0.319-0.459,0.763-0.537,1.333h3.165v-0.123
		c-0.037-0.556-0.185-0.976-0.444-1.261C180.434,9.728,180.074,9.586,179.614,9.586 M164.749,15.923
		c-0.743,0-1.349-0.212-1.818-0.636c-0.469-0.424-0.704-0.948-0.704-1.572c0-0.788,0.293-1.393,0.878-1.815
		c0.586-0.422,1.423-0.632,2.512-0.632h1.019v-0.485c0-0.383-0.107-0.689-0.321-0.919c-0.214-0.23-0.54-0.345-0.978-0.345
		c-0.378,0-0.688,0.095-0.93,0.284c-0.242,0.189-0.362,0.43-0.362,0.721h-1.661c0-0.406,0.134-0.785,0.403-1.138
		c0.269-0.353,0.635-0.63,1.097-0.831c0.463-0.2,0.979-0.301,1.548-0.301c0.866,0,1.556,0.218,2.071,0.653
		c0.515,0.435,0.779,1.047,0.793,1.835v3.336c0,0.665,0.093,1.196,0.28,1.593v0.116h-1.695c-0.073-0.141-0.137-0.371-0.191-0.691
		C166.161,15.647,165.514,15.923,164.749,15.923 M165.74,12.314c-0.615,0-1.078,0.107-1.388,0.321s-0.465,0.517-0.465,0.909
		c0,0.319,0.106,0.573,0.318,0.762c0.212,0.189,0.496,0.284,0.851,0.284c0.328,0,0.637-0.08,0.926-0.239
		c0.289-0.16,0.507-0.374,0.653-0.643v-1.395H165.74 M139.092,15.923c-0.743,0-1.349-0.212-1.818-0.636
		c-0.469-0.424-0.704-0.948-0.704-1.572c0-0.788,0.293-1.393,0.878-1.815c0.586-0.422,1.423-0.632,2.512-0.632h1.019v-0.485
		c0-0.383-0.107-0.689-0.321-0.919c-0.214-0.23-0.54-0.345-0.978-0.345c-0.378,0-0.688,0.095-0.93,0.284
		c-0.242,0.189-0.362,0.43-0.362,0.721h-1.661c0-0.406,0.134-0.785,0.403-1.138c0.269-0.353,0.635-0.63,1.097-0.831
		c0.463-0.2,0.979-0.301,1.548-0.301c0.866,0,1.556,0.218,2.071,0.653c0.515,0.435,0.779,1.047,0.793,1.835v3.336
		c0,0.665,0.093,1.196,0.28,1.593v0.116h-1.695c-0.073-0.141-0.137-0.371-0.191-0.691C140.504,15.647,139.857,15.923,139.092,15.923
		 M140.083,12.314c-0.615,0-1.078,0.107-1.388,0.321s-0.465,0.517-0.465,0.909c0,0.319,0.106,0.573,0.318,0.762
		c0.212,0.189,0.496,0.284,0.851,0.284c0.328,0,0.637-0.08,0.926-0.239c0.289-0.16,0.507-0.374,0.653-0.643v-1.395H140.083
		 M115.604,15.923c-0.802,0-1.409-0.235-1.822-0.704c-0.413-0.469-0.619-1.148-0.619-2.037V8.39h1.661v4.771
		c0,0.939,0.39,1.408,1.169,1.408c0.807,0,1.351-0.289,1.634-0.868V8.39h1.661v7.397h-1.565l-0.041-0.725
		C117.194,15.636,116.502,15.923,115.604,15.923 M108.307,15.923c-1.044,0-1.879-0.347-2.505-1.042
		c-0.627-0.695-0.94-1.621-0.94-2.779v-0.082c0-0.725,0.144-1.377,0.431-1.958c0.287-0.581,0.691-1.028,1.21-1.34
		c0.52-0.312,1.117-0.468,1.791-0.468c0.998,0,1.808,0.321,2.43,0.964s0.958,1.495,1.008,2.557l0.007,0.39
		c0,0.729-0.14,1.381-0.42,1.955c-0.28,0.574-0.681,1.019-1.203,1.333C109.593,15.766,108.991,15.923,108.307,15.923 M108.294,9.586
		c-0.542,0-0.973,0.215-1.292,0.646c-0.319,0.431-0.479,1.074-0.479,1.931c0,0.761,0.157,1.357,0.472,1.788s0.752,0.646,1.312,0.646
		c0.561,0,0.997-0.219,1.309-0.656c0.312-0.438,0.468-1.078,0.468-1.921c0-0.747-0.161-1.34-0.482-1.777
		C109.281,9.805,108.845,9.586,108.294,9.586 M89.289,15.923c-1.276,0-1.914-0.704-1.914-2.112V9.62h-1.217V8.39h1.217V6.592h1.661
		V8.39h1.306V9.62h-1.306v4.129c0,0.283,0.056,0.487,0.167,0.612c0.112,0.125,0.311,0.188,0.598,0.188
		c0.191,0,0.385-0.023,0.581-0.068v1.285C90.005,15.87,89.64,15.923,89.289,15.923 M74.667,15.923c-1.053,0-1.906-0.331-2.56-0.995
		c-0.654-0.663-0.981-1.546-0.981-2.649v-0.205c0-0.738,0.142-1.398,0.427-1.979c0.285-0.581,0.685-1.033,1.2-1.357
		c0.515-0.323,1.089-0.485,1.723-0.485c1.007,0,1.785,0.321,2.334,0.964c0.549,0.643,0.824,1.552,0.824,2.727v0.67h-4.833
		c0.05,0.611,0.254,1.094,0.612,1.449c0.358,0.355,0.808,0.533,1.35,0.533c0.761,0,1.381-0.308,1.859-0.923l0.895,0.854
		c-0.296,0.442-0.692,0.785-1.186,1.029C75.837,15.801,75.282,15.923,74.667,15.923 M74.469,9.586c-0.456,0-0.824,0.16-1.104,0.479
		c-0.28,0.319-0.459,0.763-0.537,1.333h3.165v-0.123c-0.037-0.556-0.185-0.976-0.444-1.261C75.289,9.728,74.929,9.586,74.469,9.586
		 M66.058,15.923c-0.866,0-1.567-0.349-2.102-1.046c-0.535-0.697-0.803-1.645-0.803-2.844c0-1.139,0.264-2.054,0.793-2.745
		c0.529-0.69,1.237-1.036,2.126-1.036c0.784,0,1.417,0.274,1.9,0.82V5.286h1.661v10.5h-1.504l-0.082-0.766
		C67.551,15.622,66.888,15.923,66.058,15.923 M66.496,9.613c-0.538,0-0.953,0.213-1.244,0.639c-0.292,0.426-0.438,1.068-0.438,1.924
		c0,0.752,0.145,1.339,0.434,1.76c0.289,0.422,0.701,0.632,1.234,0.632c0.679,0,1.176-0.303,1.49-0.909v-3.158
		C67.667,9.91,67.175,9.613,66.496,9.613 M57.988,15.923c-0.802,0-1.409-0.235-1.822-0.704c-0.413-0.469-0.619-1.148-0.619-2.037
		V8.39h1.661v4.771c0,0.939,0.39,1.408,1.169,1.408c0.807,0,1.351-0.289,1.634-0.868V8.39h1.661v7.397h-1.565l-0.041-0.725
		C59.579,15.636,58.886,15.923,57.988,15.923 M53.276,15.923c-1.276,0-1.914-0.704-1.914-2.112V9.62h-1.217V8.39h1.217V6.592h1.661
		V8.39h1.306V9.62h-1.306v4.129c0,0.283,0.056,0.487,0.167,0.612c0.112,0.125,0.311,0.188,0.598,0.188
		c0.191,0,0.385-0.023,0.581-0.068v1.285C53.991,15.87,53.626,15.923,53.276,15.923 M46.319,15.923c-0.606,0-1.146-0.109-1.62-0.328
		c-0.474-0.219-0.843-0.52-1.107-0.902c-0.264-0.383-0.396-0.795-0.396-1.237h1.613c0.023,0.392,0.171,0.694,0.444,0.906
		c0.274,0.212,0.636,0.318,1.087,0.318c0.438,0,0.77-0.083,0.998-0.249c0.228-0.166,0.342-0.384,0.342-0.653
		c0-0.296-0.122-0.522-0.366-0.677c-0.244-0.155-0.648-0.292-1.213-0.41c-0.565-0.118-1.037-0.269-1.415-0.451
		c-0.83-0.401-1.244-0.982-1.244-1.743c0-0.638,0.269-1.171,0.807-1.6c0.538-0.428,1.221-0.643,2.051-0.643
		c0.884,0,1.598,0.219,2.143,0.656c0.544,0.438,0.817,1.005,0.817,1.702h-1.661c0-0.319-0.119-0.584-0.355-0.796
		c-0.237-0.212-0.552-0.318-0.943-0.318c-0.365,0-0.662,0.084-0.892,0.253c-0.23,0.169-0.345,0.394-0.345,0.677
		c0,0.255,0.107,0.454,0.321,0.595c0.214,0.141,0.647,0.284,1.299,0.427c0.652,0.144,1.163,0.314,1.535,0.513
		c0.371,0.198,0.647,0.436,0.827,0.714c0.18,0.278,0.27,0.615,0.27,1.012c0,0.665-0.276,1.204-0.827,1.617
		C47.935,15.717,47.212,15.923,46.319,15.923 M34.62,15.923c-0.743,0-1.349-0.212-1.818-0.636c-0.469-0.424-0.704-0.948-0.704-1.572
		c0-0.788,0.293-1.393,0.878-1.815c0.586-0.422,1.423-0.632,2.512-0.632h1.019v-0.485c0-0.383-0.107-0.689-0.321-0.919
		c-0.214-0.23-0.54-0.345-0.978-0.345c-0.378,0-0.688,0.095-0.93,0.284c-0.242,0.189-0.362,0.43-0.362,0.721h-1.661
		c0-0.406,0.134-0.785,0.403-1.138c0.269-0.353,0.635-0.63,1.097-0.831c0.462-0.2,0.979-0.301,1.548-0.301
		c0.866,0,1.556,0.218,2.071,0.653c0.515,0.435,0.779,1.047,0.793,1.835v3.336c0,0.665,0.093,1.196,0.28,1.593v0.116h-1.695
		c-0.073-0.141-0.137-0.371-0.191-0.691C36.032,15.647,35.385,15.923,34.62,15.923 M35.611,12.314c-0.615,0-1.078,0.107-1.388,0.321
		s-0.465,0.517-0.465,0.909c0,0.319,0.106,0.573,0.318,0.762c0.212,0.189,0.496,0.284,0.851,0.284c0.328,0,0.637-0.08,0.926-0.239
		c0.289-0.16,0.507-0.374,0.653-0.643v-1.395H35.611 M24.267,15.923c-0.606,0-1.146-0.109-1.62-0.328
		c-0.474-0.219-0.843-0.52-1.107-0.902c-0.264-0.383-0.396-0.795-0.396-1.237h1.613c0.023,0.392,0.171,0.694,0.444,0.906
		c0.273,0.212,0.636,0.318,1.087,0.318c0.438,0,0.77-0.083,0.998-0.249c0.228-0.166,0.342-0.384,0.342-0.653
		c0-0.296-0.122-0.522-0.366-0.677c-0.244-0.155-0.648-0.292-1.213-0.41c-0.565-0.118-1.037-0.269-1.415-0.451
		c-0.83-0.401-1.244-0.982-1.244-1.743c0-0.638,0.269-1.171,0.807-1.6c0.538-0.428,1.221-0.643,2.051-0.643
		c0.884,0,1.599,0.219,2.143,0.656c0.544,0.438,0.817,1.005,0.817,1.702h-1.661c0-0.319-0.118-0.584-0.355-0.796
		c-0.237-0.212-0.551-0.318-0.943-0.318c-0.365,0-0.662,0.084-0.892,0.253c-0.23,0.169-0.345,0.394-0.345,0.677
		c0,0.255,0.107,0.454,0.321,0.595c0.214,0.141,0.647,0.284,1.299,0.427c0.652,0.144,1.163,0.314,1.535,0.513
		c0.371,0.198,0.647,0.436,0.827,0.714c0.18,0.278,0.27,0.615,0.27,1.012c0,0.665-0.276,1.204-0.827,1.617
		C25.882,15.717,25.16,15.923,24.267,15.923 M501.471,15.786h-1.661V8.39h1.586l0.041,0.827c0.401-0.643,0.957-0.964,1.668-0.964
		c0.237,0,0.433,0.032,0.588,0.096l-0.007,1.559c-0.219-0.036-0.444-0.055-0.677-0.055c-0.761,0-1.274,0.292-1.538,0.875V15.786
		 M453.103,15.786h-1.661v-10.5h1.661V15.786 M449.531,15.786h-1.661V8.39h1.661V15.786 M446.048,15.786h-1.661v-4.771
		c0-0.51-0.11-0.872-0.331-1.084c-0.221-0.212-0.546-0.318-0.974-0.318c-0.665,0-1.162,0.296-1.49,0.889v5.284h-1.661v-10.5h1.661
		v3.91c0.542-0.629,1.228-0.943,2.058-0.943c1.577,0,2.377,0.9,2.399,2.7V15.786 M436.764,15.786h-1.367l-1.586-5.079l-1.559,5.079
		h-1.367l-2.023-7.397h1.62l1.196,5.052l1.518-5.052h1.251l1.538,5.106l1.176-5.106h1.62L436.764,15.786 M417.455,15.786h-1.661
		V8.39h1.586l0.041,0.827c0.401-0.643,0.957-0.964,1.668-0.964c0.237,0,0.433,0.032,0.588,0.096l-0.007,1.559
		c-0.219-0.036-0.444-0.055-0.677-0.055c-0.761,0-1.274,0.292-1.538,0.875V15.786 M371.167,15.786h-1.661v-10.5h1.661V15.786
		 M360.027,15.786h-1.661V8.39h1.661V15.786 M349.096,15.786h-1.661v-4.792c0-0.469-0.102-0.817-0.304-1.043
		c-0.203-0.226-0.534-0.338-0.995-0.338c-0.67,0-1.169,0.303-1.497,0.909v5.264h-1.661V8.39h1.565l0.048,0.855
		c0.547-0.661,1.265-0.991,2.153-0.991c1.54,0,2.324,0.882,2.352,2.646V15.786 M333.643,15.786h-1.661v-4.792
		c0-0.469-0.101-0.817-0.304-1.043c-0.203-0.226-0.534-0.338-0.995-0.338c-0.67,0-1.169,0.303-1.497,0.909v5.264h-1.661V8.39h1.565
		l0.048,0.855c0.547-0.661,1.265-0.991,2.153-0.991c1.54,0,2.324,0.882,2.352,2.646V15.786 M325.592,15.786h-1.661V8.39h1.661
		V15.786 M321.388,15.786h-1.661V9.62h-1.128V8.39h1.128V7.884c0.004-0.579,0.127-1.075,0.369-1.49
		c0.241-0.415,0.583-0.727,1.025-0.937c0.442-0.21,0.973-0.314,1.593-0.314c0.364,0,0.714,0.039,1.049,0.116
		c0.335,0.078,0.682,0.176,1.043,0.294l-0.253,1.374c-0.629-0.219-1.203-0.328-1.723-0.328c-0.506,0-0.873,0.111-1.1,0.331
		c-0.228,0.221-0.342,0.553-0.342,0.995V8.39h1.456V9.62h-1.456V15.786 M312.942,15.786h-1.661V9.62h-1.128V8.39h1.128V7.713
		c0-0.82,0.228-1.454,0.684-1.9c0.456-0.447,1.094-0.67,1.914-0.67c0.292,0,0.602,0.041,0.93,0.123l-0.041,1.299
		c-0.182-0.036-0.394-0.055-0.636-0.055c-0.793,0-1.189,0.408-1.189,1.224V8.39h1.504V9.62h-1.504V15.786 M281.944,15.786h-1.661
		v-4.792c0-0.469-0.102-0.817-0.304-1.043c-0.203-0.226-0.534-0.338-0.995-0.338c-0.67,0-1.169,0.303-1.497,0.909v5.264h-1.661V8.39
		h1.565l0.048,0.855c0.547-0.661,1.265-0.991,2.153-0.991c1.54,0,2.324,0.882,2.352,2.646V15.786 M264.834,15.786h-1.661V8.39h1.586
		l0.041,0.827c0.401-0.643,0.957-0.964,1.668-0.964c0.237,0,0.433,0.032,0.588,0.096l-0.007,1.559
		c-0.219-0.036-0.444-0.055-0.677-0.055c-0.761,0-1.274,0.292-1.538,0.875V15.786 M173.171,15.786h-1.442l-2.584-7.397h1.723
		l1.586,5.291l1.565-5.291h1.716L173.171,15.786 M160.753,15.786h-1.661v-4.771c0-0.51-0.111-0.872-0.331-1.084
		c-0.221-0.212-0.546-0.318-0.974-0.318c-0.665,0-1.162,0.296-1.49,0.889v5.284h-1.661v-10.5h1.661v3.91
		c0.542-0.629,1.228-0.943,2.058-0.943c1.577,0,2.377,0.9,2.399,2.7V15.786 M135.083,15.786h-1.661v-4.813
		c0-0.469-0.102-0.813-0.308-1.032c-0.205-0.219-0.545-0.328-1.019-0.328c-0.378,0-0.687,0.102-0.926,0.304
		c-0.239,0.203-0.407,0.468-0.503,0.796l0.007,5.072h-1.661v-4.867c-0.023-0.87-0.467-1.306-1.333-1.306
		c-0.665,0-1.137,0.271-1.415,0.813v5.359h-1.661V8.39h1.565l0.048,0.772c0.52-0.606,1.231-0.909,2.133-0.909
		c0.989,0,1.666,0.378,2.03,1.135c0.538-0.756,1.294-1.135,2.27-1.135c0.816,0,1.423,0.226,1.822,0.677
		c0.399,0.451,0.603,1.117,0.612,1.996V15.786 M85.173,15.786h-1.661v-4.792c0-0.469-0.101-0.817-0.304-1.043
		s-0.534-0.338-0.995-0.338c-0.67,0-1.169,0.303-1.497,0.909v5.264h-1.661V8.39h1.565l0.048,0.855
		c0.547-0.661,1.265-0.991,2.153-0.991c1.54,0,2.324,0.882,2.352,2.646V15.786 M20.455,15.786H18.65l-0.813-2.317h-3.856
		l-0.807,2.317h-1.798l3.76-9.953h1.552L20.455,15.786 M15.909,7.945l-1.442,4.129h2.885L15.909,7.945 M448.704,7.344
		c-0.301,0-0.532-0.083-0.694-0.249c-0.162-0.166-0.243-0.375-0.243-0.626c0-0.255,0.081-0.467,0.243-0.636
		c0.162-0.169,0.393-0.253,0.694-0.253c0.301,0,0.533,0.084,0.697,0.253c0.164,0.169,0.246,0.38,0.246,0.636
		c0,0.251-0.082,0.459-0.246,0.626C449.237,7.261,449.004,7.344,448.704,7.344 M359.2,7.344c-0.301,0-0.532-0.083-0.694-0.249
		c-0.162-0.166-0.243-0.375-0.243-0.626c0-0.255,0.081-0.467,0.243-0.636s0.393-0.253,0.694-0.253c0.301,0,0.533,0.084,0.697,0.253
		c0.164,0.169,0.246,0.38,0.246,0.636c0,0.251-0.082,0.459-0.246,0.626C359.733,7.261,359.501,7.344,359.2,7.344"/>
	<path fill="#000000" d="M428.539,36.773c-0.242,0-0.508-0.041-0.8-0.124v-1.291l0.314,0.021c0.419,0,0.735-0.076,0.947-0.229
		c0.212-0.153,0.379-0.409,0.502-0.768l0.239-0.635l-2.598-7.357h1.791l1.565,5.018l1.504-5.018h1.771l-2.939,8.518
		C430.385,36.151,429.619,36.773,428.539,36.773 M286.166,36.773c-0.242,0-0.508-0.041-0.8-0.124v-1.291l0.314,0.021
		c0.419,0,0.735-0.076,0.947-0.229c0.212-0.153,0.379-0.409,0.502-0.768l0.239-0.635l-2.598-7.357h1.791l1.565,5.018l1.504-5.018
		h1.771l-2.939,8.518C288.011,36.151,287.246,36.773,286.166,36.773 M167.256,36.773c-0.242,0-0.508-0.041-0.8-0.124v-1.291
		l0.315,0.021c0.419,0,0.735-0.076,0.947-0.229c0.212-0.153,0.379-0.409,0.503-0.768l0.239-0.635l-2.598-7.357h1.791l1.565,5.018
		l1.504-5.018h1.771l-2.939,8.518C169.102,36.151,168.336,36.773,167.256,36.773 M44.484,36.773c-0.242,0-0.508-0.041-0.8-0.124
		v-1.291l0.314,0.021c0.419,0,0.735-0.076,0.947-0.229c0.212-0.153,0.379-0.409,0.502-0.768l0.239-0.635l-2.598-7.357h1.791
		l1.565,5.018l1.504-5.018h1.771l-2.94,8.518C46.33,36.151,45.564,36.773,44.484,36.773 M138.47,36.698
		c-0.542,0-1.072-0.113-1.589-0.338c-0.517-0.226-0.91-0.521-1.179-0.885l0.786-0.998c0.51,0.606,1.139,0.909,1.887,0.909
		c0.551,0,0.987-0.149,1.306-0.448c0.319-0.299,0.479-0.737,0.479-1.316v-0.499c-0.479,0.533-1.117,0.8-1.914,0.8
		c-0.866,0-1.573-0.344-2.122-1.032c-0.549-0.688-0.824-1.641-0.824-2.857c0-1.148,0.27-2.065,0.81-2.751
		c0.54-0.686,1.257-1.029,2.15-1.029c0.843,0,1.506,0.294,1.989,0.882l0.075-0.745h1.497v7.171c0,0.971-0.302,1.736-0.906,2.297
		C140.31,36.418,139.496,36.698,138.47,36.698 M138.682,27.613c-0.547,0-0.972,0.216-1.275,0.649
		c-0.303,0.433-0.455,1.071-0.455,1.914c0,0.743,0.151,1.327,0.455,1.753c0.303,0.426,0.723,0.639,1.261,0.639
		c0.67,0,1.167-0.287,1.49-0.861v-3.254C139.845,27.894,139.352,27.613,138.682,27.613 M65.131,36.698
		c-0.542,0-1.072-0.113-1.589-0.338c-0.517-0.226-0.91-0.521-1.179-0.885l0.786-0.998c0.51,0.606,1.139,0.909,1.887,0.909
		c0.551,0,0.987-0.149,1.306-0.448c0.319-0.299,0.479-0.737,0.479-1.316v-0.499c-0.479,0.533-1.117,0.8-1.914,0.8
		c-0.866,0-1.574-0.344-2.123-1.032c-0.549-0.688-0.824-1.641-0.824-2.857c0-1.148,0.27-2.065,0.81-2.751
		c0.54-0.686,1.257-1.029,2.15-1.029c0.843,0,1.506,0.294,1.989,0.882l0.075-0.745h1.497v7.171c0,0.971-0.302,1.736-0.906,2.297
		C66.971,36.418,66.156,36.698,65.131,36.698 M65.343,27.613c-0.547,0-0.972,0.216-1.275,0.649
		c-0.303,0.433-0.455,1.071-0.455,1.914c0,0.743,0.151,1.327,0.455,1.753c0.303,0.426,0.723,0.639,1.261,0.639
		c0.67,0,1.167-0.287,1.49-0.861v-3.254C66.505,27.894,66.013,27.613,65.343,27.613 M94.317,36.63h-1.661V26.39h1.531l0.068,0.752
		c0.488-0.592,1.151-0.889,1.989-0.889c0.902,0,1.61,0.336,2.123,1.008c0.513,0.672,0.769,1.605,0.769,2.799v0.103
		c0,1.144-0.26,2.056-0.779,2.738c-0.519,0.681-1.217,1.022-2.092,1.022c-0.811,0-1.461-0.267-1.948-0.8V36.63 M95.78,27.613
		c-0.679,0-1.167,0.28-1.463,0.841v3.281c0.301,0.574,0.793,0.861,1.476,0.861c0.529,0,0.942-0.213,1.241-0.639
		c0.298-0.426,0.448-1.072,0.448-1.938c0-0.738-0.147-1.324-0.441-1.757C96.747,27.83,96.326,27.613,95.78,27.613 M70.584,36.028
		l-0.896-0.533c0.264-0.415,0.445-0.776,0.543-1.084c0.098-0.308,0.149-0.621,0.154-0.94V32.18h1.497l-0.007,1.196
		c-0.004,0.483-0.126,0.967-0.366,1.453C71.271,35.314,70.962,35.714,70.584,36.028 M499.616,33.923
		c-0.743,0-1.349-0.212-1.818-0.636c-0.469-0.424-0.704-0.948-0.704-1.572c0-0.788,0.293-1.393,0.878-1.815
		c0.586-0.422,1.423-0.632,2.512-0.632h1.019v-0.485c0-0.383-0.107-0.689-0.321-0.919c-0.214-0.23-0.54-0.345-0.978-0.345
		c-0.378,0-0.688,0.095-0.93,0.284c-0.242,0.189-0.362,0.43-0.362,0.721h-1.661c0-0.406,0.134-0.785,0.403-1.138
		c0.269-0.353,0.635-0.63,1.097-0.831c0.462-0.2,0.979-0.301,1.548-0.301c0.866,0,1.556,0.218,2.071,0.653
		c0.515,0.435,0.779,1.047,0.793,1.835v3.336c0,0.665,0.093,1.196,0.28,1.593v0.116h-1.695c-0.073-0.141-0.137-0.371-0.191-0.69
		C501.028,33.647,500.381,33.923,499.616,33.923 M500.607,30.314c-0.615,0-1.078,0.107-1.388,0.321
		c-0.31,0.214-0.465,0.517-0.465,0.909c0,0.319,0.106,0.573,0.318,0.762c0.212,0.189,0.496,0.284,0.851,0.284
		c0.328,0,0.637-0.08,0.926-0.239s0.507-0.374,0.653-0.643v-1.395H500.607 M489.45,33.923c-1.035,0-1.855-0.335-2.461-1.005
		c-0.606-0.67-0.909-1.595-0.909-2.775v-0.171c0-1.126,0.301-2.027,0.902-2.704c0.602-0.677,1.422-1.015,2.461-1.015
		c0.88,0,1.596,0.256,2.15,0.769c0.554,0.513,0.844,1.186,0.872,2.02h-1.565c-0.018-0.424-0.163-0.772-0.434-1.046
		c-0.271-0.274-0.616-0.41-1.036-0.41c-0.538,0-0.953,0.195-1.244,0.584c-0.292,0.39-0.44,0.981-0.444,1.774v0.267
		c0,0.802,0.145,1.4,0.434,1.794c0.289,0.394,0.708,0.591,1.254,0.591c0.415,0,0.759-0.121,1.032-0.362
		c0.273-0.242,0.419-0.54,0.438-0.896h1.565c-0.018,0.46-0.162,0.89-0.431,1.289c-0.269,0.399-0.633,0.714-1.094,0.947
		C490.48,33.807,489.983,33.923,489.45,33.923 M473.167,33.923c-0.743,0-1.349-0.212-1.818-0.636
		c-0.469-0.424-0.704-0.948-0.704-1.572c0-0.788,0.293-1.393,0.878-1.815c0.586-0.422,1.423-0.632,2.512-0.632h1.019v-0.485
		c0-0.383-0.107-0.689-0.321-0.919c-0.214-0.23-0.54-0.345-0.978-0.345c-0.378,0-0.688,0.095-0.93,0.284
		c-0.242,0.189-0.362,0.43-0.362,0.721h-1.661c0-0.406,0.134-0.785,0.403-1.138c0.269-0.353,0.635-0.63,1.097-0.831
		c0.462-0.2,0.979-0.301,1.548-0.301c0.866,0,1.556,0.218,2.071,0.653c0.515,0.435,0.779,1.047,0.793,1.835v3.336
		c0,0.665,0.093,1.196,0.28,1.593v0.116H475.3c-0.073-0.141-0.137-0.371-0.191-0.69C474.58,33.647,473.933,33.923,473.167,33.923
		 M474.158,30.314c-0.615,0-1.078,0.107-1.388,0.321c-0.31,0.214-0.465,0.517-0.465,0.909c0,0.319,0.106,0.573,0.318,0.762
		c0.212,0.189,0.496,0.284,0.851,0.284c0.328,0,0.637-0.08,0.926-0.239c0.289-0.16,0.507-0.374,0.653-0.643v-1.395H474.158
		 M441.49,33.923c-1.044,0-1.879-0.347-2.505-1.043c-0.627-0.695-0.94-1.621-0.94-2.779V30.02c0-0.725,0.144-1.377,0.431-1.958
		c0.287-0.581,0.69-1.028,1.21-1.34c0.52-0.312,1.117-0.468,1.791-0.468c0.998,0,1.808,0.321,2.43,0.964
		c0.622,0.643,0.958,1.495,1.008,2.557l0.007,0.39c0,0.729-0.14,1.381-0.42,1.955c-0.28,0.574-0.681,1.019-1.203,1.333
		C442.776,33.766,442.173,33.923,441.49,33.923 M441.476,27.586c-0.542,0-0.973,0.215-1.292,0.646
		c-0.319,0.431-0.479,1.074-0.479,1.931c0,0.761,0.157,1.357,0.472,1.788c0.315,0.431,0.752,0.646,1.313,0.646
		c0.561,0,0.997-0.219,1.309-0.656c0.312-0.437,0.468-1.078,0.468-1.921c0-0.747-0.161-1.34-0.482-1.777
		C442.464,27.805,442.027,27.586,441.476,27.586 M417.169,33.923c-0.743,0-1.349-0.212-1.818-0.636
		c-0.469-0.424-0.704-0.948-0.704-1.572c0-0.788,0.293-1.393,0.879-1.815c0.586-0.422,1.423-0.632,2.512-0.632h1.019v-0.485
		c0-0.383-0.107-0.689-0.321-0.919c-0.214-0.23-0.54-0.345-0.978-0.345c-0.378,0-0.688,0.095-0.93,0.284
		c-0.242,0.189-0.362,0.43-0.362,0.721h-1.661c0-0.406,0.134-0.785,0.403-1.138c0.269-0.353,0.635-0.63,1.097-0.831
		c0.463-0.2,0.979-0.301,1.548-0.301c0.866,0,1.556,0.218,2.071,0.653c0.515,0.435,0.779,1.047,0.793,1.835v3.336
		c0,0.665,0.093,1.196,0.28,1.593v0.116h-1.695c-0.073-0.141-0.137-0.371-0.191-0.69C418.582,33.647,417.935,33.923,417.169,33.923
		 M418.161,30.314c-0.615,0-1.078,0.107-1.388,0.321c-0.31,0.214-0.465,0.517-0.465,0.909c0,0.319,0.106,0.573,0.318,0.762
		c0.212,0.189,0.496,0.284,0.851,0.284c0.328,0,0.637-0.08,0.926-0.239c0.289-0.16,0.507-0.374,0.653-0.643v-1.395H418.161
		 M384.933,33.923c-0.802,0-1.409-0.235-1.822-0.704c-0.413-0.469-0.619-1.149-0.619-2.037V26.39h1.661v4.771
		c0,0.939,0.39,1.408,1.169,1.408c0.807,0,1.351-0.289,1.634-0.868V26.39h1.661v7.396h-1.565l-0.041-0.725
		C386.523,33.636,385.831,33.923,384.933,33.923 M378.03,33.923c-0.606,0-1.146-0.109-1.62-0.328
		c-0.474-0.219-0.843-0.52-1.107-0.902c-0.264-0.383-0.396-0.795-0.396-1.237h1.613c0.023,0.392,0.171,0.694,0.444,0.906
		c0.273,0.212,0.636,0.318,1.087,0.318c0.438,0,0.77-0.083,0.998-0.25c0.228-0.166,0.342-0.384,0.342-0.653
		c0-0.296-0.122-0.522-0.366-0.677c-0.244-0.155-0.648-0.292-1.213-0.41c-0.565-0.118-1.037-0.269-1.415-0.451
		c-0.829-0.401-1.244-0.982-1.244-1.743c0-0.638,0.269-1.171,0.807-1.6c0.538-0.428,1.221-0.643,2.051-0.643
		c0.884,0,1.599,0.219,2.143,0.656c0.545,0.438,0.817,1.005,0.817,1.702h-1.661c0-0.319-0.118-0.584-0.355-0.796
		c-0.237-0.212-0.551-0.318-0.943-0.318c-0.365,0-0.662,0.084-0.892,0.253c-0.23,0.169-0.345,0.394-0.345,0.677
		c0,0.255,0.107,0.453,0.321,0.595c0.214,0.141,0.647,0.284,1.299,0.427c0.652,0.144,1.163,0.315,1.535,0.513
		c0.371,0.198,0.647,0.436,0.827,0.714c0.18,0.278,0.27,0.615,0.27,1.012c0,0.665-0.276,1.204-0.827,1.617
		C379.646,33.717,378.923,33.923,378.03,33.923 M366.33,33.923c-0.743,0-1.349-0.212-1.818-0.636
		c-0.469-0.424-0.704-0.948-0.704-1.572c0-0.788,0.293-1.393,0.878-1.815c0.586-0.422,1.423-0.632,2.512-0.632h1.019v-0.485
		c0-0.383-0.107-0.689-0.321-0.919c-0.214-0.23-0.54-0.345-0.978-0.345c-0.378,0-0.688,0.095-0.93,0.284
		c-0.242,0.189-0.362,0.43-0.362,0.721h-1.661c0-0.406,0.134-0.785,0.403-1.138c0.269-0.353,0.635-0.63,1.097-0.831
		c0.463-0.2,0.979-0.301,1.548-0.301c0.866,0,1.556,0.218,2.071,0.653c0.515,0.435,0.779,1.047,0.793,1.835v3.336
		c0,0.665,0.093,1.196,0.28,1.593v0.116h-1.695c-0.073-0.141-0.137-0.371-0.191-0.69C367.743,33.647,367.096,33.923,366.33,33.923
		 M367.322,30.314c-0.615,0-1.078,0.107-1.388,0.321c-0.31,0.214-0.465,0.517-0.465,0.909c0,0.319,0.106,0.573,0.318,0.762
		c0.212,0.189,0.496,0.284,0.851,0.284c0.328,0,0.637-0.08,0.926-0.239s0.507-0.374,0.653-0.643v-1.395H367.322 M355.109,33.923
		c-0.866,0-1.567-0.349-2.102-1.046s-0.803-1.645-0.803-2.844c0-1.139,0.264-2.054,0.793-2.745c0.529-0.69,1.237-1.036,2.126-1.036
		c0.784,0,1.417,0.273,1.9,0.82v-3.787h1.661v10.5h-1.504l-0.082-0.766C356.602,33.622,355.939,33.923,355.109,33.923
		 M355.547,27.613c-0.538,0-0.953,0.213-1.244,0.639c-0.292,0.426-0.438,1.068-0.438,1.924c0,0.752,0.145,1.339,0.434,1.76
		c0.289,0.422,0.701,0.632,1.234,0.632c0.679,0,1.176-0.303,1.49-0.909v-3.158C356.718,27.91,356.226,27.613,355.547,27.613
		 M302.64,33.923c-0.802,0-1.409-0.235-1.822-0.704c-0.413-0.469-0.619-1.149-0.619-2.037V26.39h1.661v4.771
		c0,0.939,0.39,1.408,1.169,1.408c0.807,0,1.351-0.289,1.634-0.868V26.39h1.661v7.396h-1.565l-0.041-0.725
		C304.23,33.636,303.537,33.923,302.64,33.923 M295.343,33.923c-1.044,0-1.879-0.347-2.505-1.043
		c-0.627-0.695-0.94-1.621-0.94-2.779V30.02c0-0.725,0.144-1.377,0.431-1.958s0.69-1.028,1.21-1.34
		c0.519-0.312,1.117-0.468,1.791-0.468c0.998,0,1.808,0.321,2.43,0.964c0.622,0.643,0.958,1.495,1.008,2.557l0.007,0.39
		c0,0.729-0.14,1.381-0.42,1.955c-0.28,0.574-0.681,1.019-1.203,1.333C296.629,33.766,296.026,33.923,295.343,33.923
		 M295.329,27.586c-0.542,0-0.973,0.215-1.292,0.646c-0.319,0.431-0.478,1.074-0.478,1.931c0,0.761,0.157,1.357,0.472,1.788
		c0.314,0.431,0.752,0.646,1.312,0.646s0.997-0.219,1.309-0.656c0.312-0.437,0.468-1.078,0.468-1.921
		c0-0.747-0.161-1.34-0.482-1.777C296.317,27.805,295.881,27.586,295.329,27.586 M266.794,33.923c-1.044,0-1.879-0.347-2.505-1.043
		c-0.627-0.695-0.94-1.621-0.94-2.779V30.02c0-0.725,0.144-1.377,0.431-1.958c0.287-0.581,0.691-1.028,1.21-1.34
		c0.52-0.312,1.117-0.468,1.791-0.468c0.998,0,1.808,0.321,2.43,0.964c0.622,0.643,0.958,1.495,1.008,2.557l0.007,0.39
		c0,0.729-0.14,1.381-0.42,1.955c-0.28,0.574-0.681,1.019-1.203,1.333C268.08,33.766,267.477,33.923,266.794,33.923 M266.78,27.586
		c-0.542,0-0.973,0.215-1.292,0.646c-0.319,0.431-0.479,1.074-0.479,1.931c0,0.761,0.157,1.357,0.472,1.788
		c0.314,0.431,0.752,0.646,1.313,0.646c0.561,0,0.997-0.219,1.309-0.656c0.312-0.437,0.468-1.078,0.468-1.921
		c0-0.747-0.161-1.34-0.482-1.777C267.768,27.805,267.331,27.586,266.78,27.586 M255.684,33.923c-1.053,0-1.906-0.331-2.56-0.995
		c-0.654-0.663-0.981-1.546-0.981-2.649v-0.205c0-0.738,0.142-1.398,0.427-1.979c0.285-0.581,0.685-1.033,1.2-1.357
		c0.515-0.324,1.089-0.485,1.723-0.485c1.007,0,1.785,0.321,2.334,0.964c0.549,0.643,0.824,1.552,0.824,2.727v0.67h-4.833
		c0.05,0.611,0.254,1.094,0.612,1.449c0.358,0.355,0.808,0.533,1.35,0.533c0.761,0,1.381-0.308,1.859-0.923l0.896,0.855
		c-0.296,0.442-0.692,0.785-1.186,1.029C256.854,33.801,256.3,33.923,255.684,33.923 M255.486,27.586
		c-0.456,0-0.824,0.16-1.104,0.479c-0.28,0.319-0.459,0.763-0.537,1.333h3.165v-0.123c-0.037-0.556-0.185-0.976-0.444-1.261
		S255.946,27.586,255.486,27.586 M231.587,33.923c-0.606,0-1.146-0.109-1.62-0.328c-0.474-0.219-0.843-0.52-1.107-0.902
		c-0.264-0.383-0.396-0.795-0.396-1.237h1.613c0.023,0.392,0.171,0.694,0.444,0.906c0.273,0.212,0.636,0.318,1.087,0.318
		c0.438,0,0.77-0.083,0.998-0.25c0.228-0.166,0.342-0.384,0.342-0.653c0-0.296-0.122-0.522-0.366-0.677
		c-0.244-0.155-0.648-0.292-1.213-0.41c-0.565-0.118-1.037-0.269-1.415-0.451c-0.83-0.401-1.244-0.982-1.244-1.743
		c0-0.638,0.269-1.171,0.807-1.6c0.538-0.428,1.221-0.643,2.051-0.643c0.884,0,1.599,0.219,2.143,0.656
		c0.544,0.438,0.817,1.005,0.817,1.702h-1.661c0-0.319-0.118-0.584-0.355-0.796c-0.237-0.212-0.551-0.318-0.943-0.318
		c-0.365,0-0.662,0.084-0.892,0.253c-0.23,0.169-0.345,0.394-0.345,0.677c0,0.255,0.107,0.453,0.321,0.595
		c0.214,0.141,0.647,0.284,1.299,0.427c0.652,0.144,1.163,0.315,1.535,0.513c0.371,0.198,0.647,0.436,0.827,0.714
		c0.18,0.278,0.27,0.615,0.27,1.012c0,0.665-0.276,1.204-0.827,1.617C233.202,33.717,232.48,33.923,231.587,33.923 M223.469,33.923
		c-0.866,0-1.567-0.349-2.102-1.046s-0.803-1.645-0.803-2.844c0-1.139,0.264-2.054,0.793-2.745c0.529-0.69,1.237-1.036,2.126-1.036
		c0.784,0,1.417,0.273,1.9,0.82v-3.787h1.661v10.5h-1.504l-0.082-0.766C224.962,33.622,224.298,33.923,223.469,33.923
		 M223.906,27.613c-0.538,0-0.952,0.213-1.244,0.639c-0.292,0.426-0.437,1.068-0.437,1.924c0,0.752,0.145,1.339,0.434,1.76
		c0.289,0.422,0.701,0.632,1.234,0.632c0.679,0,1.176-0.303,1.49-0.909v-3.158C225.078,27.91,224.585,27.613,223.906,27.613
		 M216.467,33.923c-1.053,0-1.906-0.331-2.56-0.995c-0.654-0.663-0.981-1.546-0.981-2.649v-0.205c0-0.738,0.142-1.398,0.427-1.979
		c0.285-0.581,0.685-1.033,1.2-1.357c0.515-0.324,1.089-0.485,1.723-0.485c1.007,0,1.785,0.321,2.334,0.964
		c0.549,0.643,0.824,1.552,0.824,2.727v0.67h-4.833c0.05,0.611,0.254,1.094,0.612,1.449c0.358,0.355,0.808,0.533,1.35,0.533
		c0.761,0,1.381-0.308,1.859-0.923l0.896,0.855c-0.296,0.442-0.692,0.785-1.186,1.029C217.637,33.801,217.082,33.923,216.467,33.923
		 M216.269,27.586c-0.456,0-0.824,0.16-1.104,0.479c-0.28,0.319-0.459,0.763-0.537,1.333h3.165v-0.123
		c-0.037-0.556-0.185-0.976-0.444-1.261C217.089,27.728,216.729,27.586,216.269,27.586 M208.846,33.923
		c-1.053,0-1.906-0.331-2.56-0.995c-0.654-0.663-0.981-1.546-0.981-2.649v-0.205c0-0.738,0.142-1.398,0.427-1.979
		c0.285-0.581,0.685-1.033,1.2-1.357c0.515-0.324,1.089-0.485,1.723-0.485c1.007,0,1.785,0.321,2.335,0.964
		c0.549,0.643,0.824,1.552,0.824,2.727v0.67h-4.833c0.05,0.611,0.254,1.094,0.612,1.449c0.358,0.355,0.808,0.533,1.35,0.533
		c0.761,0,1.381-0.308,1.859-0.923l0.895,0.855c-0.296,0.442-0.692,0.785-1.186,1.029C210.016,33.801,209.462,33.923,208.846,33.923
		 M208.648,27.586c-0.456,0-0.824,0.16-1.104,0.479c-0.28,0.319-0.459,0.763-0.537,1.333h3.165v-0.123
		c-0.037-0.556-0.185-0.976-0.444-1.261C209.468,27.728,209.108,27.586,208.648,27.586 M183.73,33.923
		c-0.802,0-1.41-0.235-1.822-0.704c-0.413-0.469-0.619-1.149-0.619-2.037V26.39h1.661v4.771c0,0.939,0.39,1.408,1.169,1.408
		c0.807,0,1.351-0.289,1.634-0.868V26.39h1.661v7.396h-1.565l-0.041-0.725C185.32,33.636,184.627,33.923,183.73,33.923
		 M176.433,33.923c-1.044,0-1.879-0.347-2.505-1.043c-0.627-0.695-0.94-1.621-0.94-2.779V30.02c0-0.725,0.144-1.377,0.431-1.958
		c0.287-0.581,0.69-1.028,1.21-1.34c0.519-0.312,1.116-0.468,1.791-0.468c0.998,0,1.808,0.321,2.43,0.964
		c0.622,0.643,0.958,1.495,1.008,2.557l0.007,0.39c0,0.729-0.14,1.381-0.42,1.955c-0.28,0.574-0.681,1.019-1.203,1.333
		C177.719,33.766,177.117,33.923,176.433,33.923 M176.419,27.586c-0.543,0-0.973,0.215-1.292,0.646
		c-0.319,0.431-0.479,1.074-0.479,1.931c0,0.761,0.157,1.357,0.472,1.788c0.315,0.431,0.752,0.646,1.313,0.646
		c0.561,0,0.997-0.219,1.309-0.656c0.312-0.437,0.468-1.078,0.468-1.921c0-0.747-0.161-1.34-0.482-1.777
		C177.407,27.805,176.971,27.586,176.419,27.586 M150.286,33.923c-1.044,0-1.879-0.347-2.505-1.043
		c-0.627-0.695-0.94-1.621-0.94-2.779V30.02c0-0.725,0.144-1.377,0.431-1.958c0.287-0.581,0.69-1.028,1.21-1.34
		c0.52-0.312,1.117-0.468,1.791-0.468c0.998,0,1.808,0.321,2.43,0.964c0.622,0.643,0.958,1.495,1.008,2.557l0.007,0.39
		c0,0.729-0.14,1.381-0.42,1.955c-0.28,0.574-0.681,1.019-1.203,1.333C151.573,33.766,150.97,33.923,150.286,33.923 M150.273,27.586
		c-0.542,0-0.973,0.215-1.292,0.646c-0.319,0.431-0.479,1.074-0.479,1.931c0,0.761,0.157,1.357,0.472,1.788
		c0.315,0.431,0.752,0.646,1.313,0.646c0.561,0,0.997-0.219,1.309-0.656c0.312-0.437,0.468-1.078,0.468-1.921
		c0-0.747-0.161-1.34-0.482-1.777C151.26,27.805,150.824,27.586,150.273,27.586 M118.752,33.923c-0.866,0-1.567-0.349-2.102-1.046
		c-0.536-0.697-0.803-1.645-0.803-2.844c0-1.139,0.264-2.054,0.793-2.745c0.529-0.69,1.237-1.036,2.126-1.036
		c0.784,0,1.417,0.273,1.9,0.82v-3.787h1.661v10.5h-1.504l-0.082-0.766C120.244,33.622,119.581,33.923,118.752,33.923
		 M119.189,27.613c-0.538,0-0.952,0.213-1.244,0.639c-0.292,0.426-0.438,1.068-0.438,1.924c0,0.752,0.145,1.339,0.434,1.76
		s0.701,0.632,1.234,0.632c0.679,0,1.176-0.303,1.49-0.909v-3.158C120.36,27.91,119.868,27.613,119.189,27.613 M103.878,33.923
		c-1.053,0-1.906-0.331-2.56-0.995c-0.654-0.663-0.981-1.546-0.981-2.649v-0.205c0-0.738,0.142-1.398,0.427-1.979
		c0.285-0.581,0.685-1.033,1.2-1.357c0.515-0.324,1.089-0.485,1.723-0.485c1.007,0,1.785,0.321,2.334,0.964
		c0.549,0.643,0.824,1.552,0.824,2.727v0.67h-4.833c0.05,0.611,0.254,1.094,0.612,1.449c0.358,0.355,0.808,0.533,1.35,0.533
		c0.761,0,1.381-0.308,1.859-0.923l0.895,0.855c-0.296,0.442-0.692,0.785-1.186,1.029C105.048,33.801,104.493,33.923,103.878,33.923
		 M103.68,27.586c-0.456,0-0.824,0.16-1.104,0.479c-0.28,0.319-0.459,0.763-0.537,1.333h3.165v-0.123
		c-0.037-0.556-0.185-0.976-0.444-1.261S104.14,27.586,103.68,27.586 M88.254,33.923c-1.053,0-1.906-0.331-2.56-0.995
		c-0.654-0.663-0.981-1.546-0.981-2.649v-0.205c0-0.738,0.142-1.398,0.427-1.979c0.285-0.581,0.685-1.033,1.2-1.357
		c0.515-0.324,1.089-0.485,1.723-0.485c1.007,0,1.785,0.321,2.334,0.964c0.549,0.643,0.824,1.552,0.824,2.727v0.67h-4.833
		c0.05,0.611,0.254,1.094,0.612,1.449c0.358,0.355,0.808,0.533,1.35,0.533c0.761,0,1.381-0.308,1.859-0.923l0.896,0.855
		c-0.296,0.442-0.692,0.785-1.186,1.029C89.424,33.801,88.869,33.923,88.254,33.923 M88.056,27.586c-0.456,0-0.824,0.16-1.104,0.479
		c-0.28,0.319-0.459,0.763-0.537,1.333h3.165v-0.123c-0.037-0.556-0.185-0.976-0.444-1.261S88.516,27.586,88.056,27.586
		 M79.645,33.923c-0.866,0-1.567-0.349-2.102-1.046c-0.536-0.697-0.803-1.645-0.803-2.844c0-1.139,0.264-2.054,0.793-2.745
		c0.529-0.69,1.237-1.036,2.126-1.036c0.784,0,1.417,0.273,1.9,0.82v-3.787h1.661v10.5h-1.504l-0.082-0.766
		C81.137,33.622,80.474,33.923,79.645,33.923 M80.083,27.613c-0.538,0-0.952,0.213-1.244,0.639
		c-0.292,0.426-0.438,1.068-0.438,1.924c0,0.752,0.145,1.339,0.434,1.76c0.289,0.422,0.701,0.632,1.234,0.632
		c0.679,0,1.176-0.303,1.49-0.909v-3.158C81.254,27.91,80.762,27.613,80.083,27.613 M38.42,33.923c-0.866,0-1.566-0.349-2.102-1.046
		c-0.536-0.697-0.803-1.645-0.803-2.844c0-1.139,0.264-2.054,0.793-2.745c0.529-0.69,1.237-1.036,2.126-1.036
		c0.784,0,1.417,0.273,1.9,0.82v-3.787h1.661v10.5h-1.504l-0.082-0.766C39.913,33.622,39.25,33.923,38.42,33.923 M38.858,27.613
		c-0.538,0-0.952,0.213-1.244,0.639c-0.292,0.426-0.438,1.068-0.438,1.924c0,0.752,0.145,1.339,0.434,1.76s0.701,0.632,1.234,0.632
		c0.679,0,1.176-0.303,1.49-0.909v-3.158C40.029,27.91,39.537,27.613,38.858,27.613 M30.35,33.923c-0.802,0-1.409-0.235-1.822-0.704
		c-0.413-0.469-0.619-1.149-0.619-2.037V26.39h1.661v4.771c0,0.939,0.39,1.408,1.169,1.408c0.807,0,1.351-0.289,1.634-0.868V26.39
		h1.661v7.396h-1.565l-0.041-0.725C31.94,33.636,31.248,33.923,30.35,33.923 M25.637,33.923c-1.276,0-1.914-0.704-1.914-2.112v-4.19
		h-1.217v-1.23h1.217v-1.798h1.661v1.798h1.306v1.23h-1.306v4.129c0,0.283,0.056,0.487,0.167,0.612
		c0.112,0.125,0.311,0.188,0.598,0.188c0.191,0,0.385-0.023,0.581-0.068v1.285C26.353,33.87,25.988,33.923,25.637,33.923
		 M18.681,33.923c-0.606,0-1.146-0.109-1.62-0.328c-0.474-0.219-0.843-0.52-1.107-0.902c-0.264-0.383-0.396-0.795-0.396-1.237h1.613
		c0.023,0.392,0.171,0.694,0.444,0.906c0.274,0.212,0.636,0.318,1.087,0.318c0.438,0,0.77-0.083,0.998-0.25
		c0.228-0.166,0.342-0.384,0.342-0.653c0-0.296-0.122-0.522-0.366-0.677c-0.244-0.155-0.648-0.292-1.213-0.41
		c-0.565-0.118-1.037-0.269-1.415-0.451c-0.83-0.401-1.244-0.982-1.244-1.743c0-0.638,0.269-1.171,0.807-1.6
		c0.538-0.428,1.221-0.643,2.051-0.643c0.884,0,1.598,0.219,2.143,0.656c0.545,0.438,0.817,1.005,0.817,1.702h-1.661
		c0-0.319-0.118-0.584-0.355-0.796c-0.237-0.212-0.552-0.318-0.943-0.318c-0.365,0-0.662,0.084-0.892,0.253
		c-0.23,0.169-0.345,0.394-0.345,0.677c0,0.255,0.107,0.453,0.321,0.595c0.214,0.141,0.647,0.284,1.299,0.427
		c0.652,0.144,1.163,0.315,1.535,0.513c0.371,0.198,0.647,0.436,0.827,0.714c0.18,0.278,0.27,0.615,0.27,1.012
		c0,0.665-0.276,1.204-0.827,1.617C20.297,33.717,19.574,33.923,18.681,33.923 M237.05,33.861c-0.296,0-0.531-0.084-0.704-0.253
		c-0.173-0.169-0.26-0.385-0.26-0.649c0-0.264,0.084-0.484,0.253-0.66c0.169-0.175,0.406-0.263,0.711-0.263
		c0.31,0,0.549,0.088,0.718,0.263c0.169,0.176,0.253,0.395,0.253,0.66c0,0.26-0.084,0.475-0.253,0.646
		C237.599,33.776,237.359,33.861,237.05,33.861 M506.689,33.786h-1.661v-10.5h1.661V33.786 M495.549,33.786h-1.661V26.39h1.661
		V33.786 M484.618,33.786h-1.661v-4.792c0-0.469-0.101-0.817-0.304-1.043c-0.203-0.226-0.534-0.338-0.995-0.338
		c-0.67,0-1.169,0.303-1.497,0.909v5.264H478.5V26.39h1.565l0.048,0.854c0.547-0.661,1.265-0.991,2.153-0.991
		c1.54,0,2.324,0.882,2.352,2.646V33.786 M469.165,33.786h-1.661v-4.792c0-0.469-0.101-0.817-0.304-1.043
		c-0.203-0.226-0.534-0.338-0.995-0.338c-0.67,0-1.169,0.303-1.497,0.909v5.264h-1.661V26.39h1.565l0.048,0.854
		c0.547-0.661,1.265-0.991,2.153-0.991c1.54,0,2.324,0.882,2.352,2.646V33.786 M461.114,33.786h-1.661V26.39h1.661V33.786
		 M456.91,33.786h-1.661V27.62h-1.128v-1.23h1.128v-0.506c0.005-0.579,0.128-1.075,0.369-1.49c0.242-0.415,0.583-0.727,1.025-0.937
		c0.442-0.21,0.973-0.314,1.593-0.314c0.365,0,0.714,0.039,1.049,0.116c0.335,0.078,0.682,0.175,1.043,0.294l-0.253,1.374
		c-0.629-0.219-1.203-0.328-1.723-0.328c-0.506,0-0.873,0.111-1.101,0.331c-0.228,0.221-0.342,0.553-0.342,0.995v0.465h1.456v1.23
		h-1.456V33.786 M448.464,33.786h-1.661V27.62h-1.128v-1.23h1.128v-0.677c0-0.82,0.228-1.454,0.684-1.9
		c0.456-0.447,1.094-0.67,1.914-0.67c0.292,0,0.602,0.041,0.93,0.123l-0.041,1.299c-0.182-0.037-0.394-0.055-0.636-0.055
		c-0.793,0-1.189,0.408-1.189,1.224v0.656h1.504v1.23h-1.504V33.786 M424.176,33.786h-1.661V26.39h1.586l0.041,0.827
		c0.401-0.643,0.957-0.964,1.668-0.964c0.237,0,0.433,0.032,0.588,0.096l-0.007,1.559c-0.219-0.036-0.444-0.055-0.677-0.055
		c-0.761,0-1.274,0.292-1.538,0.875V33.786 M413.16,33.786h-1.661v-4.812c0-0.469-0.102-0.813-0.308-1.032
		c-0.205-0.219-0.545-0.328-1.019-0.328c-0.378,0-0.687,0.101-0.926,0.304c-0.239,0.203-0.407,0.468-0.502,0.796l0.007,5.072h-1.661
		v-4.867c-0.023-0.87-0.467-1.306-1.333-1.306c-0.665,0-1.137,0.271-1.415,0.813v5.359h-1.661V26.39h1.565l0.048,0.772
		c0.519-0.606,1.23-0.909,2.133-0.909c0.989,0,1.666,0.378,2.03,1.135c0.538-0.756,1.294-1.135,2.269-1.135
		c0.816,0,1.423,0.226,1.822,0.677c0.399,0.451,0.603,1.117,0.612,1.996V33.786 M400.889,33.786h-1.661v-4.812
		c0-0.469-0.102-0.813-0.308-1.032c-0.205-0.219-0.545-0.328-1.019-0.328c-0.378,0-0.687,0.101-0.926,0.304
		c-0.239,0.203-0.407,0.468-0.502,0.796l0.007,5.072h-1.661v-4.867c-0.023-0.87-0.467-1.306-1.333-1.306
		c-0.665,0-1.137,0.271-1.415,0.813v5.359h-1.661V26.39h1.565l0.048,0.772c0.519-0.606,1.23-0.909,2.133-0.909
		c0.989,0,1.666,0.378,2.03,1.135c0.538-0.756,1.294-1.135,2.269-1.135c0.816,0,1.423,0.226,1.822,0.677
		c0.399,0.451,0.603,1.117,0.612,1.996V33.786 M350.742,33.786h-1.661v-4.792c0-0.469-0.102-0.817-0.304-1.043
		c-0.203-0.226-0.534-0.338-0.995-0.338c-0.67,0-1.169,0.303-1.497,0.909v5.264h-1.661V26.39h1.565l0.048,0.854
		c0.547-0.661,1.265-0.991,2.153-0.991c1.54,0,2.324,0.882,2.352,2.646V33.786 M342.691,33.786h-1.661V26.39h1.661V33.786
		 M338.487,33.786h-1.661V27.62h-1.128v-1.23h1.128v-0.506c0.005-0.579,0.128-1.075,0.369-1.49c0.241-0.415,0.583-0.727,1.025-0.937
		c0.442-0.21,0.973-0.314,1.593-0.314c0.365,0,0.714,0.039,1.049,0.116c0.335,0.078,0.682,0.175,1.043,0.294l-0.253,1.374
		c-0.629-0.219-1.203-0.328-1.723-0.328c-0.506,0-0.873,0.111-1.101,0.331c-0.228,0.221-0.342,0.553-0.342,0.995v0.465h1.456v1.23
		h-1.456V33.786 M330.95,33.786h-1.661v-10.5h1.661V33.786 M327.385,33.786h-1.661v-10.5h1.661V33.786 M323.812,33.786h-1.661V26.39
		h1.661V33.786 M318.919,33.786h-1.367l-1.586-5.079l-1.559,5.079h-1.367l-2.023-7.396h1.62l1.196,5.052l1.518-5.052h1.251
		l1.538,5.106l1.176-5.106h1.62L318.919,33.786 M278.786,33.786h-1.367l-1.586-5.079l-1.559,5.079h-1.367l-2.023-7.396h1.62
		l1.196,5.052l1.518-5.052h1.251l1.538,5.106l1.176-5.106h1.62L278.786,33.786 M261.812,33.786h-1.661v-10.5h1.661V33.786
		 M247.341,33.786h-3.63v-9.953h3.411c1.126,0,1.982,0.226,2.57,0.677c0.588,0.451,0.882,1.124,0.882,2.017
		c0,0.456-0.123,0.866-0.369,1.231c-0.246,0.365-0.606,0.647-1.08,0.848c0.538,0.146,0.954,0.42,1.248,0.824
		c0.294,0.403,0.441,0.887,0.441,1.453c0,0.934-0.3,1.652-0.899,2.153C249.315,33.536,248.457,33.786,247.341,33.786 M245.44,29.295
		v3.11h1.921c0.542,0,0.966-0.134,1.271-0.403c0.305-0.269,0.458-0.643,0.458-1.121c0-1.035-0.529-1.563-1.586-1.586H245.44
		 M245.44,25.227v2.796h1.695c0.538,0,0.958-0.122,1.261-0.366c0.303-0.244,0.455-0.589,0.455-1.036c0-0.492-0.14-0.848-0.42-1.066
		c-0.28-0.219-0.717-0.328-1.309-0.328H245.44 M203.852,33.786h-1.661v-4.792c0-0.469-0.102-0.817-0.304-1.043
		c-0.203-0.226-0.534-0.338-0.995-0.338c-0.67,0-1.169,0.303-1.497,0.909v5.264h-1.661V26.39h1.565l0.048,0.854
		c0.547-0.661,1.265-0.991,2.153-0.991c1.54,0,2.324,0.882,2.352,2.646V33.786 M190.868,33.786h-1.661V26.39h1.586l0.041,0.827
		c0.401-0.643,0.957-0.964,1.668-0.964c0.237,0,0.433,0.032,0.588,0.096l-0.007,1.559c-0.219-0.036-0.444-0.055-0.677-0.055
		c-0.761,0-1.274,0.292-1.538,0.875V33.786 M161.312,33.786h-1.661v-4.792c0-0.469-0.101-0.817-0.304-1.043
		c-0.203-0.226-0.534-0.338-0.995-0.338c-0.67,0-1.169,0.303-1.497,0.909v5.264h-1.661V26.39h1.565l0.048,0.854
		c0.547-0.661,1.265-0.991,2.153-0.991c1.54,0,2.324,0.882,2.352,2.646V33.786 M133.83,33.786h-1.661v-4.792
		c0-0.469-0.101-0.817-0.304-1.043c-0.203-0.226-0.534-0.338-0.995-0.338c-0.67,0-1.169,0.303-1.497,0.909v5.264h-1.661V26.39h1.565
		l0.048,0.854c0.547-0.661,1.265-0.991,2.153-0.991c1.54,0,2.324,0.882,2.352,2.646V33.786 M125.859,33.786h-1.661V26.39h1.661
		V33.786 M114.384,33.786h-1.661v-4.792c0-0.469-0.101-0.817-0.304-1.043c-0.203-0.226-0.534-0.338-0.995-0.338
		c-0.67,0-1.169,0.303-1.497,0.909v5.264h-1.661V26.39h1.565l0.048,0.854c0.547-0.661,1.265-0.991,2.153-0.991
		c1.54,0,2.324,0.882,2.352,2.646V33.786 M60.49,33.786h-1.661v-4.792c0-0.469-0.102-0.817-0.304-1.043
		c-0.203-0.226-0.534-0.338-0.995-0.338c-0.67,0-1.169,0.303-1.497,0.909v5.264h-1.661V26.39h1.565l0.048,0.854
		c0.547-0.661,1.265-0.991,2.153-0.991c1.54,0,2.324,0.882,2.352,2.646V33.786 M52.519,33.786h-1.661V26.39h1.661V33.786
		 M494.722,25.344c-0.301,0-0.532-0.083-0.694-0.25c-0.162-0.166-0.243-0.375-0.243-0.625c0-0.255,0.081-0.467,0.243-0.636
		c0.162-0.169,0.393-0.253,0.694-0.253c0.301,0,0.533,0.084,0.697,0.253c0.164,0.169,0.246,0.381,0.246,0.636
		c0,0.251-0.082,0.459-0.246,0.625C495.255,25.261,495.023,25.344,494.722,25.344 M322.985,25.344c-0.301,0-0.532-0.083-0.694-0.25
		c-0.162-0.166-0.243-0.375-0.243-0.625c0-0.255,0.081-0.467,0.243-0.636c0.162-0.169,0.393-0.253,0.694-0.253
		s0.533,0.084,0.697,0.253c0.164,0.169,0.246,0.381,0.246,0.636c0,0.251-0.082,0.459-0.246,0.625
		C323.518,25.261,323.286,25.344,322.985,25.344 M125.032,25.344c-0.301,0-0.532-0.083-0.694-0.25
		c-0.162-0.166-0.243-0.375-0.243-0.625c0-0.255,0.081-0.467,0.243-0.636c0.162-0.169,0.393-0.253,0.694-0.253
		c0.301,0,0.533,0.084,0.697,0.253c0.164,0.169,0.246,0.381,0.246,0.636c0,0.251-0.082,0.459-0.246,0.625
		C125.565,25.261,125.333,25.344,125.032,25.344 M51.692,25.344c-0.301,0-0.532-0.083-0.694-0.25
		c-0.162-0.166-0.243-0.375-0.243-0.625c0-0.255,0.081-0.467,0.243-0.636c0.162-0.169,0.393-0.253,0.694-0.253
		c0.301,0,0.533,0.084,0.697,0.253c0.164,0.169,0.246,0.381,0.246,0.636c0,0.251-0.082,0.459-0.246,0.625
		C52.225,25.261,51.993,25.344,51.692,25.344"/>
	<path fill="#000000" d="M282.309,54.773c-0.242,0-0.508-0.041-0.8-0.124v-1.291l0.314,0.021c0.419,0,0.735-0.076,0.947-0.229
		c0.212-0.153,0.379-0.409,0.502-0.769l0.239-0.635l-2.598-7.357h1.791l1.565,5.017l1.504-5.017h1.771l-2.939,8.518
		C284.155,54.151,283.389,54.773,282.309,54.773 M177.367,54.773c-0.242,0-0.508-0.041-0.8-0.124v-1.291l0.315,0.021
		c0.419,0,0.735-0.076,0.947-0.229c0.212-0.153,0.379-0.409,0.503-0.769l0.239-0.635l-2.598-7.357h1.791l1.565,5.017l1.504-5.017
		h1.771l-2.939,8.518C179.213,54.151,178.447,54.773,177.367,54.773 M341.04,54.698c-0.542,0-1.072-0.113-1.589-0.338
		c-0.517-0.226-0.91-0.521-1.179-0.885l0.786-0.998c0.51,0.606,1.139,0.909,1.887,0.909c0.551,0,0.987-0.149,1.306-0.448
		c0.319-0.299,0.479-0.737,0.479-1.316v-0.499c-0.479,0.533-1.117,0.8-1.914,0.8c-0.866,0-1.573-0.344-2.123-1.032
		c-0.549-0.688-0.824-1.641-0.824-2.857c0-1.148,0.27-2.065,0.81-2.751c0.54-0.686,1.257-1.029,2.15-1.029
		c0.843,0,1.506,0.294,1.989,0.882l0.075-0.745h1.497v7.171c0,0.971-0.302,1.736-0.906,2.297
		C342.88,54.418,342.066,54.698,341.04,54.698 M341.252,45.613c-0.547,0-0.972,0.216-1.275,0.649
		c-0.303,0.433-0.455,1.071-0.455,1.914c0,0.743,0.151,1.327,0.455,1.753c0.303,0.426,0.723,0.639,1.261,0.639
		c0.67,0,1.167-0.287,1.49-0.861v-3.254C342.414,45.894,341.922,45.613,341.252,45.613 M304.566,54.028l-0.896-0.533
		c0.264-0.415,0.445-0.776,0.543-1.084s0.149-0.621,0.154-0.94V50.18h1.497l-0.007,1.196c-0.005,0.483-0.126,0.967-0.366,1.453
		C305.253,53.314,304.944,53.714,304.566,54.028 M459.21,51.923c-0.606,0-1.146-0.109-1.62-0.328
		c-0.474-0.219-0.843-0.519-1.107-0.902c-0.264-0.383-0.397-0.795-0.397-1.237h1.613c0.023,0.392,0.171,0.694,0.444,0.906
		c0.273,0.212,0.636,0.318,1.087,0.318c0.438,0,0.77-0.083,0.998-0.25c0.228-0.166,0.342-0.384,0.342-0.653
		c0-0.296-0.122-0.522-0.366-0.677c-0.244-0.155-0.648-0.292-1.213-0.41c-0.565-0.118-1.037-0.269-1.415-0.451
		c-0.83-0.401-1.244-0.982-1.244-1.743c0-0.638,0.269-1.171,0.807-1.6c0.538-0.428,1.221-0.643,2.051-0.643
		c0.884,0,1.598,0.219,2.143,0.656c0.545,0.438,0.817,1.005,0.817,1.702h-1.661c0-0.319-0.118-0.584-0.355-0.796
		s-0.552-0.318-0.943-0.318c-0.365,0-0.662,0.084-0.892,0.253c-0.23,0.169-0.345,0.394-0.345,0.677c0,0.255,0.107,0.454,0.321,0.595
		c0.214,0.141,0.647,0.284,1.299,0.427c0.652,0.144,1.163,0.315,1.535,0.513c0.371,0.198,0.647,0.436,0.827,0.714
		c0.18,0.278,0.27,0.615,0.27,1.012c0,0.665-0.276,1.204-0.827,1.617C460.826,51.717,460.104,51.923,459.21,51.923 M428.173,51.923
		c-1.276,0-1.914-0.704-1.914-2.112v-4.19h-1.217v-1.23h1.217v-1.798h1.661v1.798h1.306v1.23h-1.306v4.129
		c0,0.283,0.056,0.487,0.167,0.612c0.112,0.125,0.311,0.188,0.598,0.188c0.191,0,0.385-0.023,0.581-0.068v1.285
		C428.889,51.87,428.524,51.923,428.173,51.923 M412.607,51.923c-0.743,0-1.349-0.212-1.818-0.636
		c-0.469-0.424-0.704-0.948-0.704-1.572c0-0.788,0.293-1.393,0.879-1.815c0.586-0.421,1.423-0.632,2.512-0.632h1.019v-0.485
		c0-0.383-0.107-0.689-0.321-0.92c-0.214-0.23-0.54-0.345-0.978-0.345c-0.378,0-0.688,0.095-0.93,0.284
		c-0.242,0.189-0.362,0.43-0.362,0.721h-1.661c0-0.405,0.134-0.785,0.403-1.138c0.269-0.353,0.635-0.63,1.097-0.831
		s0.979-0.301,1.548-0.301c0.866,0,1.556,0.218,2.071,0.653c0.515,0.435,0.779,1.047,0.793,1.835v3.336
		c0,0.665,0.093,1.196,0.28,1.593v0.116h-1.695c-0.073-0.141-0.137-0.371-0.191-0.69C414.02,51.647,413.372,51.923,412.607,51.923
		 M413.598,48.313c-0.615,0-1.078,0.107-1.388,0.321c-0.31,0.214-0.465,0.517-0.465,0.909c0,0.319,0.106,0.573,0.318,0.762
		c0.212,0.189,0.496,0.284,0.851,0.284c0.328,0,0.637-0.08,0.926-0.239c0.289-0.159,0.507-0.374,0.653-0.643v-1.395H413.598
		 M399.361,51.923c-1.053,0-1.906-0.331-2.56-0.995c-0.654-0.663-0.981-1.546-0.981-2.649v-0.205c0-0.738,0.142-1.398,0.427-1.979
		c0.285-0.581,0.685-1.033,1.2-1.357c0.515-0.324,1.089-0.485,1.723-0.485c1.007,0,1.785,0.321,2.334,0.964
		c0.549,0.643,0.824,1.552,0.824,2.727v0.67h-4.833c0.05,0.611,0.254,1.094,0.612,1.449c0.358,0.355,0.808,0.533,1.35,0.533
		c0.761,0,1.381-0.308,1.859-0.923l0.895,0.855c-0.296,0.442-0.692,0.785-1.186,1.029C400.531,51.801,399.977,51.923,399.361,51.923
		 M399.163,45.586c-0.456,0-0.824,0.16-1.104,0.479c-0.28,0.319-0.459,0.763-0.537,1.333h3.165v-0.123
		c-0.037-0.556-0.185-0.976-0.444-1.261C399.983,45.728,399.623,45.586,399.163,45.586 M388.143,51.923
		c-1.053,0-1.906-0.331-2.56-0.995c-0.654-0.663-0.981-1.546-0.981-2.649v-0.205c0-0.738,0.142-1.398,0.427-1.979
		c0.285-0.581,0.685-1.033,1.2-1.357c0.515-0.324,1.089-0.485,1.723-0.485c1.007,0,1.785,0.321,2.334,0.964
		c0.549,0.643,0.824,1.552,0.824,2.727v0.67h-4.833c0.05,0.611,0.254,1.094,0.612,1.449c0.358,0.355,0.808,0.533,1.35,0.533
		c0.761,0,1.381-0.308,1.859-0.923l0.896,0.855c-0.296,0.442-0.692,0.785-1.186,1.029C389.313,51.801,388.758,51.923,388.143,51.923
		 M387.945,45.586c-0.456,0-0.824,0.16-1.104,0.479c-0.28,0.319-0.459,0.763-0.537,1.333h3.165v-0.123
		c-0.037-0.556-0.185-0.976-0.444-1.261C388.765,45.728,388.405,45.586,387.945,45.586 M366.144,51.923
		c-1.276,0-1.914-0.704-1.914-2.112v-4.19h-1.217v-1.23h1.217v-1.798h1.661v1.798h1.306v1.23h-1.306v4.129
		c0,0.283,0.056,0.487,0.167,0.612c0.112,0.125,0.311,0.188,0.598,0.188c0.191,0,0.385-0.023,0.581-0.068v1.285
		C366.859,51.87,366.494,51.923,366.144,51.923 M325.374,51.923c-1.044,0-1.879-0.348-2.505-1.043
		c-0.627-0.695-0.94-1.621-0.94-2.779V48.02c0-0.725,0.144-1.377,0.431-1.958s0.69-1.028,1.21-1.34
		c0.519-0.312,1.117-0.468,1.791-0.468c0.998,0,1.808,0.321,2.43,0.964s0.958,1.495,1.008,2.557l0.007,0.39
		c0,0.729-0.14,1.381-0.42,1.955c-0.28,0.574-0.681,1.019-1.203,1.333C326.66,51.766,326.058,51.923,325.374,51.923 M325.36,45.586
		c-0.542,0-0.973,0.215-1.292,0.646c-0.319,0.431-0.478,1.074-0.478,1.931c0,0.761,0.157,1.357,0.472,1.788
		c0.314,0.431,0.752,0.646,1.312,0.646s0.997-0.219,1.309-0.656c0.312-0.438,0.468-1.078,0.468-1.921
		c0-0.747-0.161-1.34-0.482-1.777S325.912,45.586,325.36,45.586 M313.319,51.923c-0.743,0-1.349-0.212-1.818-0.636
		c-0.469-0.424-0.704-0.948-0.704-1.572c0-0.788,0.293-1.393,0.879-1.815c0.586-0.421,1.423-0.632,2.512-0.632h1.019v-0.485
		c0-0.383-0.107-0.689-0.321-0.92c-0.214-0.23-0.54-0.345-0.978-0.345c-0.378,0-0.688,0.095-0.93,0.284
		c-0.242,0.189-0.362,0.43-0.362,0.721h-1.661c0-0.405,0.134-0.785,0.403-1.138s0.635-0.63,1.097-0.831s0.979-0.301,1.548-0.301
		c0.866,0,1.556,0.218,2.071,0.653c0.515,0.435,0.779,1.047,0.793,1.835v3.336c0,0.665,0.093,1.196,0.28,1.593v0.116h-1.695
		c-0.073-0.141-0.137-0.371-0.191-0.69C314.732,51.647,314.085,51.923,313.319,51.923 M314.311,48.313
		c-0.615,0-1.078,0.107-1.388,0.321c-0.31,0.214-0.465,0.517-0.465,0.909c0,0.319,0.106,0.573,0.318,0.762
		c0.212,0.189,0.496,0.284,0.851,0.284c0.328,0,0.637-0.08,0.926-0.239c0.289-0.159,0.507-0.374,0.653-0.643v-1.395H314.311
		 M298.783,51.923c-0.802,0-1.409-0.235-1.822-0.704c-0.413-0.469-0.619-1.148-0.619-2.037V44.39h1.661v4.771
		c0,0.939,0.39,1.408,1.169,1.408c0.807,0,1.351-0.289,1.634-0.868V44.39h1.661v7.396h-1.565l-0.041-0.725
		C300.374,51.636,299.681,51.923,298.783,51.923 M291.487,51.923c-1.044,0-1.879-0.348-2.505-1.043
		c-0.627-0.695-0.94-1.621-0.94-2.779V48.02c0-0.725,0.144-1.377,0.431-1.958c0.287-0.581,0.691-1.028,1.21-1.34
		c0.52-0.312,1.117-0.468,1.791-0.468c0.998,0,1.808,0.321,2.43,0.964s0.958,1.495,1.008,2.557l0.007,0.39
		c0,0.729-0.14,1.381-0.42,1.955c-0.28,0.574-0.681,1.019-1.203,1.333C292.773,51.766,292.17,51.923,291.487,51.923 M291.473,45.586
		c-0.542,0-0.973,0.215-1.292,0.646c-0.319,0.431-0.479,1.074-0.479,1.931c0,0.761,0.157,1.357,0.472,1.788
		c0.314,0.431,0.752,0.646,1.313,0.646c0.561,0,0.997-0.219,1.309-0.656c0.312-0.438,0.468-1.078,0.468-1.921
		c0-0.747-0.161-1.34-0.482-1.777C292.461,45.805,292.024,45.586,291.473,45.586 M273.221,51.923c-1.044,0-1.879-0.348-2.505-1.043
		c-0.627-0.695-0.94-1.621-0.94-2.779V48.02c0-0.725,0.144-1.377,0.431-1.958c0.287-0.581,0.69-1.028,1.21-1.34
		c0.52-0.312,1.117-0.468,1.791-0.468c0.998,0,1.808,0.321,2.43,0.964c0.622,0.643,0.958,1.495,1.008,2.557l0.007,0.39
		c0,0.729-0.14,1.381-0.42,1.955c-0.28,0.574-0.681,1.019-1.203,1.333C274.507,51.766,273.905,51.923,273.221,51.923
		 M273.207,45.586c-0.542,0-0.973,0.215-1.292,0.646c-0.319,0.431-0.479,1.074-0.479,1.931c0,0.761,0.157,1.357,0.472,1.788
		c0.315,0.431,0.752,0.646,1.313,0.646c0.561,0,0.997-0.219,1.309-0.656s0.468-1.078,0.468-1.921c0-0.747-0.161-1.34-0.482-1.777
		S273.759,45.586,273.207,45.586 M267.863,51.923c-1.276,0-1.914-0.704-1.914-2.112v-4.19h-1.217v-1.23h1.217v-1.798h1.661v1.798
		h1.306v1.23h-1.306v4.129c0,0.283,0.056,0.487,0.167,0.612c0.112,0.125,0.311,0.188,0.598,0.188c0.191,0,0.385-0.023,0.581-0.068
		v1.285C268.578,51.87,268.213,51.923,267.863,51.923 M257.646,51.923c-1.053,0-1.906-0.331-2.56-0.995
		c-0.654-0.663-0.981-1.546-0.981-2.649v-0.205c0-0.738,0.142-1.398,0.427-1.979c0.285-0.581,0.685-1.033,1.2-1.357
		c0.515-0.324,1.089-0.485,1.723-0.485c1.007,0,1.785,0.321,2.334,0.964c0.549,0.643,0.824,1.552,0.824,2.727v0.67h-4.833
		c0.05,0.611,0.254,1.094,0.612,1.449c0.358,0.355,0.808,0.533,1.35,0.533c0.761,0,1.381-0.308,1.859-0.923l0.895,0.855
		c-0.296,0.442-0.692,0.785-1.186,1.029C258.816,51.801,258.262,51.923,257.646,51.923 M257.448,45.586
		c-0.456,0-0.824,0.16-1.104,0.479c-0.28,0.319-0.459,0.763-0.537,1.333h3.165v-0.123c-0.037-0.556-0.185-0.976-0.444-1.261
		C258.268,45.728,257.908,45.586,257.448,45.586 M246.439,51.923c-0.866,0-1.541-0.312-2.023-0.936l-0.082,0.8h-1.504v-10.5h1.661
		v3.814c0.479-0.565,1.123-0.848,1.935-0.848c0.902,0,1.611,0.335,2.126,1.005c0.515,0.67,0.772,1.606,0.772,2.81v0.096
		c0,1.148-0.256,2.062-0.769,2.741C248.042,51.583,247.336,51.923,246.439,51.923 M246.008,45.613c-0.72,0-1.226,0.314-1.518,0.943
		v3.049c0.296,0.643,0.807,0.964,1.531,0.964c0.519,0,0.92-0.194,1.203-0.581c0.283-0.387,0.428-0.973,0.438-1.757V48.02
		c0-0.802-0.141-1.404-0.424-1.805C246.956,45.814,246.546,45.613,246.008,45.613 M237.483,51.923c-0.743,0-1.349-0.212-1.818-0.636
		c-0.469-0.424-0.704-0.948-0.704-1.572c0-0.788,0.293-1.393,0.878-1.815c0.586-0.421,1.423-0.632,2.512-0.632h1.019v-0.485
		c0-0.383-0.107-0.689-0.321-0.92c-0.214-0.23-0.54-0.345-0.978-0.345c-0.378,0-0.688,0.095-0.93,0.284
		c-0.242,0.189-0.362,0.43-0.362,0.721h-1.661c0-0.405,0.134-0.785,0.403-1.138c0.269-0.353,0.635-0.63,1.097-0.831
		c0.463-0.201,0.979-0.301,1.548-0.301c0.866,0,1.556,0.218,2.071,0.653c0.515,0.435,0.779,1.047,0.793,1.835v3.336
		c0,0.665,0.093,1.196,0.28,1.593v0.116h-1.695c-0.073-0.141-0.137-0.371-0.191-0.69C238.896,51.647,238.249,51.923,237.483,51.923
		 M238.475,48.313c-0.615,0-1.078,0.107-1.388,0.321c-0.31,0.214-0.465,0.517-0.465,0.909c0,0.319,0.106,0.573,0.318,0.762
		c0.212,0.189,0.496,0.284,0.851,0.284c0.328,0,0.637-0.08,0.926-0.239c0.289-0.159,0.507-0.374,0.653-0.643v-1.395H238.475
		 M222.748,51.923c-0.743,0-1.349-0.212-1.818-0.636c-0.469-0.424-0.704-0.948-0.704-1.572c0-0.788,0.293-1.393,0.878-1.815
		c0.586-0.421,1.423-0.632,2.512-0.632h1.019v-0.485c0-0.383-0.107-0.689-0.321-0.92c-0.214-0.23-0.54-0.345-0.978-0.345
		c-0.378,0-0.688,0.095-0.93,0.284c-0.242,0.189-0.362,0.43-0.362,0.721h-1.661c0-0.405,0.134-0.785,0.403-1.138
		c0.269-0.353,0.635-0.63,1.097-0.831c0.463-0.201,0.979-0.301,1.548-0.301c0.866,0,1.556,0.218,2.071,0.653
		c0.515,0.435,0.779,1.047,0.793,1.835v3.336c0,0.665,0.093,1.196,0.28,1.593v0.116h-1.695c-0.073-0.141-0.137-0.371-0.191-0.69
		C224.16,51.647,223.513,51.923,222.748,51.923 M223.739,48.313c-0.615,0-1.078,0.107-1.388,0.321
		c-0.31,0.214-0.465,0.517-0.465,0.909c0,0.319,0.106,0.573,0.318,0.762c0.212,0.189,0.496,0.284,0.851,0.284
		c0.328,0,0.637-0.08,0.926-0.239c0.289-0.159,0.507-0.374,0.653-0.643v-1.395H223.739 M208.578,51.923
		c-0.743,0-1.349-0.212-1.818-0.636c-0.469-0.424-0.704-0.948-0.704-1.572c0-0.788,0.293-1.393,0.878-1.815
		c0.586-0.421,1.423-0.632,2.512-0.632h1.019v-0.485c0-0.383-0.107-0.689-0.321-0.92c-0.214-0.23-0.54-0.345-0.978-0.345
		c-0.378,0-0.688,0.095-0.93,0.284c-0.242,0.189-0.362,0.43-0.362,0.721h-1.661c0-0.405,0.134-0.785,0.403-1.138
		c0.269-0.353,0.635-0.63,1.097-0.831c0.462-0.201,0.979-0.301,1.548-0.301c0.866,0,1.556,0.218,2.071,0.653
		c0.515,0.435,0.779,1.047,0.793,1.835v3.336c0,0.665,0.093,1.196,0.28,1.593v0.116h-1.695c-0.073-0.141-0.137-0.371-0.191-0.69
		C209.99,51.647,209.343,51.923,208.578,51.923 M209.569,48.313c-0.615,0-1.078,0.107-1.388,0.321
		c-0.31,0.214-0.465,0.517-0.465,0.909c0,0.319,0.106,0.573,0.318,0.762c0.212,0.189,0.496,0.284,0.851,0.284
		c0.328,0,0.637-0.08,0.926-0.239c0.289-0.159,0.507-0.374,0.653-0.643v-1.395H209.569 M198.409,51.923
		c-1.053,0-1.906-0.331-2.56-0.995c-0.654-0.663-0.981-1.546-0.981-2.649v-0.205c0-0.738,0.142-1.398,0.427-1.979
		c0.285-0.581,0.685-1.033,1.2-1.357c0.515-0.324,1.089-0.485,1.723-0.485c1.007,0,1.785,0.321,2.334,0.964
		c0.549,0.643,0.824,1.552,0.824,2.727v0.67h-4.833c0.05,0.611,0.254,1.094,0.612,1.449c0.358,0.355,0.808,0.533,1.35,0.533
		c0.761,0,1.381-0.308,1.859-0.923l0.896,0.855c-0.296,0.442-0.692,0.785-1.186,1.029C199.579,51.801,199.024,51.923,198.409,51.923
		 M198.211,45.586c-0.456,0-0.824,0.16-1.104,0.479c-0.28,0.319-0.459,0.763-0.537,1.333h3.165v-0.123
		c-0.037-0.556-0.185-0.976-0.444-1.261C199.031,45.728,198.671,45.586,198.211,45.586 M190.789,51.923
		c-0.866,0-1.54-0.312-2.023-0.936l-0.082,0.8h-1.504v-10.5h1.661v3.814c0.479-0.565,1.123-0.848,1.935-0.848
		c0.902,0,1.611,0.335,2.126,1.005c0.515,0.67,0.772,1.606,0.772,2.81v0.096c0,1.148-0.256,2.062-0.769,2.741
		C192.392,51.583,191.687,51.923,190.789,51.923 M190.359,45.613c-0.72,0-1.226,0.314-1.518,0.943v3.049
		c0.296,0.643,0.807,0.964,1.531,0.964c0.519,0,0.92-0.194,1.203-0.581c0.283-0.387,0.428-0.973,0.438-1.757V48.02
		c0-0.802-0.141-1.404-0.424-1.805C191.306,45.814,190.896,45.613,190.359,45.613 M171.616,51.923c-0.743,0-1.349-0.212-1.818-0.636
		c-0.469-0.424-0.704-0.948-0.704-1.572c0-0.788,0.293-1.393,0.878-1.815c0.586-0.421,1.423-0.632,2.512-0.632h1.019v-0.485
		c0-0.383-0.107-0.689-0.321-0.92c-0.214-0.23-0.54-0.345-0.978-0.345c-0.378,0-0.688,0.095-0.93,0.284
		c-0.242,0.189-0.362,0.43-0.362,0.721h-1.661c0-0.405,0.134-0.785,0.403-1.138c0.269-0.353,0.635-0.63,1.097-0.831
		c0.463-0.201,0.979-0.301,1.548-0.301c0.866,0,1.556,0.218,2.071,0.653c0.515,0.435,0.779,1.047,0.793,1.835v3.336
		c0,0.665,0.093,1.196,0.28,1.593v0.116h-1.695c-0.073-0.141-0.137-0.371-0.191-0.69C173.029,51.647,172.382,51.923,171.616,51.923
		 M172.608,48.313c-0.615,0-1.078,0.107-1.388,0.321c-0.31,0.214-0.465,0.517-0.465,0.909c0,0.319,0.106,0.573,0.318,0.762
		c0.212,0.189,0.496,0.284,0.851,0.284c0.328,0,0.637-0.08,0.926-0.239c0.289-0.159,0.507-0.374,0.653-0.643v-1.395H172.608
		 M151.184,51.923c-1.276,0-1.914-0.704-1.914-2.112v-4.19h-1.217v-1.23h1.217v-1.798h1.661v1.798h1.306v1.23h-1.306v4.129
		c0,0.283,0.056,0.487,0.168,0.612c0.112,0.125,0.311,0.188,0.598,0.188c0.191,0,0.385-0.023,0.581-0.068v1.285
		C151.9,51.87,151.535,51.923,151.184,51.923 M143.515,51.923c-0.743,0-1.349-0.212-1.818-0.636
		c-0.469-0.424-0.704-0.948-0.704-1.572c0-0.788,0.293-1.393,0.879-1.815c0.586-0.421,1.423-0.632,2.512-0.632h1.019v-0.485
		c0-0.383-0.107-0.689-0.321-0.92c-0.214-0.23-0.54-0.345-0.978-0.345c-0.378,0-0.688,0.095-0.93,0.284
		c-0.242,0.189-0.362,0.43-0.362,0.721h-1.661c0-0.405,0.134-0.785,0.403-1.138c0.269-0.353,0.635-0.63,1.097-0.831
		c0.463-0.201,0.979-0.301,1.548-0.301c0.866,0,1.556,0.218,2.071,0.653c0.515,0.435,0.779,1.047,0.793,1.835v3.336
		c0,0.665,0.093,1.196,0.28,1.593v0.116h-1.695c-0.073-0.141-0.137-0.371-0.191-0.69C144.927,51.647,144.28,51.923,143.515,51.923
		 M144.506,48.313c-0.615,0-1.078,0.107-1.388,0.321c-0.31,0.214-0.465,0.517-0.465,0.909c0,0.319,0.106,0.573,0.318,0.762
		c0.212,0.189,0.496,0.284,0.851,0.284c0.328,0,0.637-0.08,0.926-0.239c0.289-0.159,0.507-0.374,0.653-0.643v-1.395H144.506
		 M131.042,51.923c-1.276,0-1.914-0.704-1.914-2.112v-4.19h-1.217v-1.23h1.217v-1.798h1.661v1.798h1.306v1.23h-1.306v4.129
		c0,0.283,0.056,0.487,0.167,0.612c0.112,0.125,0.311,0.188,0.598,0.188c0.191,0,0.385-0.023,0.581-0.068v1.285
		C131.758,51.87,131.393,51.923,131.042,51.923 M120.826,51.923c-1.053,0-1.906-0.331-2.56-0.995
		c-0.654-0.663-0.981-1.546-0.981-2.649v-0.205c0-0.738,0.142-1.398,0.427-1.979c0.285-0.581,0.685-1.033,1.2-1.357
		c0.515-0.324,1.089-0.485,1.723-0.485c1.007,0,1.785,0.321,2.334,0.964s0.824,1.552,0.824,2.727v0.67h-4.833
		c0.05,0.611,0.254,1.094,0.612,1.449c0.358,0.355,0.808,0.533,1.35,0.533c0.761,0,1.381-0.308,1.859-0.923l0.896,0.855
		c-0.296,0.442-0.692,0.785-1.186,1.029C121.996,51.801,121.441,51.923,120.826,51.923 M120.628,45.586
		c-0.456,0-0.824,0.16-1.104,0.479c-0.28,0.319-0.459,0.763-0.537,1.333h3.165v-0.123c-0.037-0.556-0.185-0.976-0.444-1.261
		C121.448,45.728,121.088,45.586,120.628,45.586 M113.204,51.923c-1.035,0-1.855-0.335-2.461-1.005
		c-0.606-0.67-0.909-1.595-0.909-2.775v-0.171c0-1.126,0.301-2.027,0.902-2.704c0.602-0.677,1.422-1.015,2.461-1.015
		c0.879,0,1.596,0.256,2.15,0.769c0.554,0.513,0.844,1.186,0.872,2.02h-1.565c-0.018-0.424-0.163-0.772-0.434-1.046
		c-0.271-0.273-0.616-0.41-1.036-0.41c-0.538,0-0.952,0.195-1.244,0.584s-0.44,0.981-0.444,1.774v0.267
		c0,0.802,0.145,1.4,0.434,1.794c0.289,0.394,0.707,0.591,1.254,0.591c0.415,0,0.759-0.121,1.032-0.362
		c0.273-0.242,0.419-0.54,0.438-0.896h1.565c-0.018,0.46-0.162,0.89-0.431,1.289c-0.269,0.399-0.633,0.714-1.094,0.947
		C114.234,51.807,113.738,51.923,113.204,51.923 M96.922,51.923c-0.743,0-1.349-0.212-1.818-0.636
		c-0.469-0.424-0.704-0.948-0.704-1.572c0-0.788,0.293-1.393,0.878-1.815c0.586-0.421,1.423-0.632,2.512-0.632h1.019v-0.485
		c0-0.383-0.107-0.689-0.321-0.92c-0.214-0.23-0.54-0.345-0.978-0.345c-0.378,0-0.688,0.095-0.93,0.284
		c-0.242,0.189-0.362,0.43-0.362,0.721h-1.661c0-0.405,0.134-0.785,0.403-1.138s0.635-0.63,1.097-0.831s0.979-0.301,1.548-0.301
		c0.866,0,1.556,0.218,2.071,0.653c0.515,0.435,0.779,1.047,0.793,1.835v3.336c0,0.665,0.093,1.196,0.28,1.593v0.116h-1.695
		c-0.073-0.141-0.137-0.371-0.191-0.69C98.334,51.647,97.688,51.923,96.922,51.923 M97.913,48.313c-0.615,0-1.078,0.107-1.388,0.321
		c-0.31,0.214-0.465,0.517-0.465,0.909c0,0.319,0.106,0.573,0.318,0.762c0.212,0.189,0.496,0.284,0.851,0.284
		c0.328,0,0.637-0.08,0.926-0.239c0.289-0.159,0.507-0.374,0.653-0.643v-1.395H97.913 M92.235,51.923
		c-1.276,0-1.914-0.704-1.914-2.112v-4.19h-1.217v-1.23h1.217v-1.798h1.661v1.798h1.306v1.23h-1.306v4.129
		c0,0.283,0.056,0.487,0.167,0.612c0.112,0.125,0.311,0.188,0.598,0.188c0.191,0,0.385-0.023,0.581-0.068v1.285
		C92.95,51.87,92.585,51.923,92.235,51.923 M85.278,51.923c-0.606,0-1.146-0.109-1.62-0.328c-0.474-0.219-0.843-0.519-1.107-0.902
		c-0.264-0.383-0.396-0.795-0.396-1.237h1.613c0.023,0.392,0.171,0.694,0.444,0.906c0.273,0.212,0.636,0.318,1.087,0.318
		c0.438,0,0.77-0.083,0.998-0.25c0.228-0.166,0.342-0.384,0.342-0.653c0-0.296-0.122-0.522-0.366-0.677
		c-0.244-0.155-0.648-0.292-1.213-0.41c-0.565-0.118-1.037-0.269-1.415-0.451c-0.83-0.401-1.244-0.982-1.244-1.743
		c0-0.638,0.269-1.171,0.807-1.6c0.538-0.428,1.221-0.643,2.051-0.643c0.884,0,1.599,0.219,2.143,0.656
		c0.544,0.438,0.817,1.005,0.817,1.702h-1.661c0-0.319-0.119-0.584-0.356-0.796c-0.237-0.212-0.551-0.318-0.943-0.318
		c-0.365,0-0.662,0.084-0.892,0.253c-0.23,0.169-0.345,0.394-0.345,0.677c0,0.255,0.107,0.454,0.321,0.595
		c0.214,0.141,0.647,0.284,1.299,0.427c0.652,0.144,1.163,0.315,1.535,0.513c0.371,0.198,0.647,0.436,0.827,0.714
		c0.18,0.278,0.27,0.615,0.27,1.012c0,0.665-0.276,1.204-0.827,1.617C86.894,51.717,86.171,51.923,85.278,51.923 M74.468,51.923
		c-0.606,0-1.146-0.109-1.62-0.328c-0.474-0.219-0.843-0.519-1.107-0.902c-0.264-0.383-0.396-0.795-0.396-1.237h1.613
		c0.023,0.392,0.171,0.694,0.444,0.906c0.273,0.212,0.636,0.318,1.087,0.318c0.438,0,0.77-0.083,0.998-0.25
		c0.228-0.166,0.342-0.384,0.342-0.653c0-0.296-0.122-0.522-0.366-0.677c-0.244-0.155-0.648-0.292-1.213-0.41
		c-0.565-0.118-1.037-0.269-1.415-0.451c-0.83-0.401-1.244-0.982-1.244-1.743c0-0.638,0.269-1.171,0.807-1.6
		c0.538-0.428,1.221-0.643,2.051-0.643c0.884,0,1.598,0.219,2.143,0.656s0.817,1.005,0.817,1.702h-1.661
		c0-0.319-0.118-0.584-0.355-0.796c-0.237-0.212-0.552-0.318-0.943-0.318c-0.365,0-0.662,0.084-0.892,0.253
		c-0.23,0.169-0.345,0.394-0.345,0.677c0,0.255,0.107,0.454,0.321,0.595c0.214,0.141,0.647,0.284,1.299,0.427
		c0.652,0.144,1.163,0.315,1.535,0.513c0.371,0.198,0.647,0.436,0.827,0.714c0.18,0.278,0.27,0.615,0.27,1.012
		c0,0.665-0.276,1.204-0.827,1.617C76.083,51.717,75.361,51.923,74.468,51.923 M67.187,51.923c-0.606,0-1.146-0.109-1.62-0.328
		c-0.474-0.219-0.843-0.519-1.107-0.902c-0.264-0.383-0.396-0.795-0.396-1.237h1.613c0.023,0.392,0.171,0.694,0.444,0.906
		c0.274,0.212,0.636,0.318,1.087,0.318c0.438,0,0.77-0.083,0.998-0.25c0.228-0.166,0.342-0.384,0.342-0.653
		c0-0.296-0.122-0.522-0.366-0.677c-0.244-0.155-0.648-0.292-1.213-0.41c-0.565-0.118-1.037-0.269-1.415-0.451
		c-0.829-0.401-1.244-0.982-1.244-1.743c0-0.638,0.269-1.171,0.807-1.6c0.538-0.428,1.221-0.643,2.051-0.643
		c0.884,0,1.598,0.219,2.143,0.656s0.817,1.005,0.817,1.702h-1.661c0-0.319-0.119-0.584-0.355-0.796
		c-0.237-0.212-0.552-0.318-0.943-0.318c-0.365,0-0.662,0.084-0.892,0.253c-0.23,0.169-0.345,0.394-0.345,0.677
		c0,0.255,0.107,0.454,0.321,0.595c0.214,0.141,0.647,0.284,1.299,0.427c0.652,0.144,1.163,0.315,1.535,0.513
		c0.371,0.198,0.647,0.436,0.827,0.714c0.18,0.278,0.27,0.615,0.27,1.012c0,0.665-0.276,1.204-0.827,1.617
		C68.803,51.717,68.081,51.923,67.187,51.923 M59.131,51.923c-0.743,0-1.349-0.212-1.818-0.636
		c-0.469-0.424-0.704-0.948-0.704-1.572c0-0.788,0.293-1.393,0.878-1.815c0.586-0.421,1.423-0.632,2.512-0.632h1.019v-0.485
		c0-0.383-0.107-0.689-0.321-0.92c-0.214-0.23-0.54-0.345-0.978-0.345c-0.378,0-0.688,0.095-0.93,0.284
		c-0.242,0.189-0.362,0.43-0.362,0.721h-1.661c0-0.405,0.134-0.785,0.403-1.138c0.269-0.353,0.635-0.63,1.097-0.831
		c0.462-0.201,0.979-0.301,1.548-0.301c0.866,0,1.556,0.218,2.071,0.653c0.515,0.435,0.779,1.047,0.793,1.835v3.336
		c0,0.665,0.093,1.196,0.28,1.593v0.116h-1.695c-0.073-0.141-0.137-0.371-0.191-0.69C60.544,51.647,59.897,51.923,59.131,51.923
		 M60.122,48.313c-0.615,0-1.078,0.107-1.388,0.321c-0.31,0.214-0.465,0.517-0.465,0.909c0,0.319,0.106,0.573,0.318,0.762
		c0.212,0.189,0.496,0.284,0.851,0.284c0.328,0,0.637-0.08,0.926-0.239c0.289-0.159,0.507-0.374,0.653-0.643v-1.395H60.122
		 M464.673,51.861c-0.296,0-0.531-0.084-0.704-0.253c-0.173-0.169-0.26-0.385-0.26-0.649c0-0.264,0.084-0.484,0.253-0.66
		c0.169-0.175,0.406-0.263,0.711-0.263c0.31,0,0.549,0.088,0.718,0.263c0.169,0.176,0.253,0.395,0.253,0.66
		c0,0.26-0.084,0.475-0.253,0.646C465.222,51.776,464.983,51.861,464.673,51.861 M455.733,51.786h-1.921l-2.194-3.172l-0.738,0.759
		v2.413h-1.661v-10.5h1.661v6.057l0.52-0.649l2.044-2.304h1.996l-2.748,3.083L455.733,51.786 M447.434,51.786h-1.661v-4.792
		c0-0.469-0.102-0.817-0.304-1.042c-0.203-0.226-0.534-0.338-0.995-0.338c-0.67,0-1.169,0.303-1.497,0.909v5.264h-1.661V44.39h1.565
		l0.048,0.854c0.547-0.661,1.265-0.991,2.153-0.991c1.54,0,2.324,0.882,2.352,2.645V51.786 M439.463,51.786h-1.661V44.39h1.661
		V51.786 M435.887,51.786h-1.661v-10.5h1.661V51.786 M424.057,51.786h-1.661v-4.792c0-0.469-0.101-0.817-0.304-1.042
		c-0.203-0.226-0.534-0.338-0.995-0.338c-0.67,0-1.169,0.303-1.497,0.909v5.264h-1.661V44.39h1.565l0.048,0.854
		c0.547-0.661,1.265-0.991,2.153-0.991c1.54,0,2.324,0.882,2.352,2.645V51.786 M406.86,51.786h-1.442l-2.584-7.396h1.723
		l1.586,5.291l1.565-5.291h1.716L406.86,51.786 M394.271,51.786h-1.661v-10.5h1.661V51.786 M381.582,51.786h-1.661V44.39h1.586
		l0.041,0.827c0.401-0.643,0.957-0.964,1.668-0.964c0.237,0,0.433,0.032,0.588,0.096l-0.007,1.559
		c-0.219-0.036-0.444-0.055-0.677-0.055c-0.761,0-1.274,0.292-1.538,0.875V51.786 M374.62,51.786h-1.661v-4.771
		c0-0.51-0.111-0.871-0.331-1.083c-0.221-0.212-0.546-0.318-0.974-0.318c-0.665,0-1.162,0.296-1.49,0.889v5.284h-1.661v-10.5h1.661
		v3.91c0.542-0.629,1.228-0.943,2.058-0.943c1.577,0,2.377,0.9,2.399,2.7V51.786 M361.892,51.786h-1.661V44.39h1.661V51.786
		 M356.999,51.786h-1.367l-1.586-5.079l-1.559,5.079h-1.367l-2.023-7.396h1.62l1.196,5.052l1.518-5.052h1.251l1.538,5.106
		l1.176-5.106h1.62L356.999,51.786 M336.4,51.786h-1.661v-4.792c0-0.469-0.101-0.817-0.304-1.042
		c-0.203-0.226-0.534-0.338-0.995-0.338c-0.67,0-1.169,0.303-1.497,0.909v5.264h-1.661V44.39h1.565l0.048,0.854
		c0.547-0.661,1.265-0.991,2.153-0.991c1.54,0,2.324,0.882,2.352,2.645V51.786 M320.392,51.786h-1.661v-10.5h1.661V51.786
		 M252.556,51.786h-1.661v-10.5h1.661V51.786 M233.385,51.786h-1.661v-10.5h1.661V51.786 M229.812,51.786h-1.661V44.39h1.661V51.786
		 M217,51.786h-1.442l-2.584-7.396h1.723l1.586,5.291l1.565-5.291h1.716L217,51.786 M167.607,51.786h-1.661v-4.813
		c0-0.469-0.102-0.813-0.308-1.032c-0.205-0.219-0.545-0.328-1.019-0.328c-0.378,0-0.687,0.101-0.926,0.304
		c-0.239,0.203-0.407,0.468-0.503,0.796l0.007,5.072h-1.661v-4.867c-0.023-0.87-0.467-1.306-1.333-1.306
		c-0.665,0-1.137,0.271-1.415,0.813v5.359h-1.661V44.39h1.565l0.048,0.772c0.52-0.606,1.23-0.909,2.133-0.909
		c0.989,0,1.666,0.378,2.03,1.135c0.538-0.756,1.294-1.135,2.27-1.135c0.816,0,1.423,0.226,1.822,0.677
		c0.399,0.451,0.603,1.117,0.612,1.996V51.786 M139.519,51.786h-1.661v-4.771c0-0.51-0.111-0.871-0.331-1.083
		c-0.221-0.212-0.546-0.318-0.974-0.318c-0.665,0-1.162,0.296-1.49,0.889v5.284h-1.661v-10.5h1.661v3.91
		c0.542-0.629,1.228-0.943,2.058-0.943c1.577,0,2.377,0.9,2.399,2.7V51.786 M108.372,51.786h-1.661v-4.792
		c0-0.469-0.102-0.817-0.304-1.042c-0.203-0.226-0.534-0.338-0.995-0.338c-0.67,0-1.169,0.303-1.497,0.909v5.264h-1.661V44.39h1.565
		l0.048,0.854c0.547-0.661,1.265-0.991,2.153-0.991c1.54,0,2.324,0.882,2.352,2.645V51.786 M80.691,51.786H79.03V44.39h1.661V51.786
		 M438.635,43.344c-0.301,0-0.532-0.083-0.694-0.25c-0.162-0.166-0.243-0.375-0.243-0.626c0-0.255,0.081-0.467,0.243-0.636
		c0.162-0.169,0.393-0.253,0.694-0.253s0.533,0.084,0.697,0.253c0.164,0.169,0.246,0.381,0.246,0.636
		c0,0.251-0.082,0.459-0.246,0.626C439.169,43.261,438.936,43.344,438.635,43.344 M361.065,43.344c-0.301,0-0.532-0.083-0.694-0.25
		c-0.162-0.166-0.243-0.375-0.243-0.626c0-0.255,0.081-0.467,0.243-0.636c0.162-0.169,0.393-0.253,0.694-0.253
		c0.301,0,0.533,0.084,0.697,0.253c0.164,0.169,0.246,0.381,0.246,0.636c0,0.251-0.082,0.459-0.246,0.626
		C361.598,43.261,361.365,43.344,361.065,43.344 M228.985,43.344c-0.301,0-0.532-0.083-0.694-0.25
		c-0.162-0.166-0.243-0.375-0.243-0.626c0-0.255,0.081-0.467,0.243-0.636c0.162-0.169,0.393-0.253,0.694-0.253
		c0.301,0,0.533,0.084,0.697,0.253c0.164,0.169,0.246,0.381,0.246,0.636c0,0.251-0.082,0.459-0.246,0.626
		C229.518,43.261,229.286,43.344,228.985,43.344 M79.864,43.344c-0.301,0-0.532-0.083-0.694-0.25
		c-0.162-0.166-0.243-0.375-0.243-0.626c0-0.255,0.081-0.467,0.243-0.636c0.162-0.169,0.393-0.253,0.694-0.253
		c0.301,0,0.533,0.084,0.697,0.253c0.164,0.169,0.246,0.381,0.246,0.636c0,0.251-0.082,0.459-0.246,0.626
		C80.397,43.261,80.165,43.344,79.864,43.344"/>
</g>
</svg>
