<!-- Generator: Adobe InDesign 20.3 SVG Export Plug-in, SVG Library version: 9.3 build 254 -->
<!DOCTYPE svg PUBLIC "-//W3C//DTD SVG 1.1//EN" "http://www.w3.org/Graphics/SVG/1.1/DTD/svg11.dtd">
<svg version="1.1" xmlns="http://www.w3.org/2000/svg" xmlns:xlink="http://www.w3.org/1999/xlink" x="0%" y="0%" width="100%"
	 height="100%" viewBox="0 0 518.705 51.426" preserveAspectRatio="xMidYMid slice" overflow="visible" xml:space="preserve">
<clipPath id="clp_unq_id_1" fill="none">
	<path shape-rendering="crispEdges" stroke="#000000" d="M0,0h518.705v51.426H0V0"/>
</clipPath>
<g clip-path="url(#clp_unq_id_1)" fill="none">
	<g transform="matrix(1 0 0 1 9.8418 45.6738)">
		<path stroke="#0080FF" stroke-width="0.5859" stroke-miterlimit="10" d="M121.476,2H235.45"/>
	</g>
	<path fill="#000000" d="M500.203,16.428l-0.229-0.662c0.601-0.461,1.085-1.177,1.45-2.148c0.365-0.971,0.552-2.048,0.56-3.231
		v-0.188c0-0.82-0.086-1.583-0.258-2.288c-0.172-0.705-0.411-1.337-0.718-1.895c-0.307-0.559-0.651-0.994-1.034-1.307l0.229-0.662
		c0.516,0.285,1.007,0.762,1.474,1.43c0.467,0.668,0.817,1.404,1.049,2.209c0.232,0.805,0.349,1.666,0.349,2.584
		c0,0.871-0.114,1.706-0.343,2.505c-0.229,0.799-0.578,1.536-1.049,2.212C501.212,15.662,500.719,16.143,500.203,16.428
		 M408.486,16.428c-0.52-0.289-1.016-0.773-1.488-1.453c-0.922-1.328-1.383-2.916-1.383-4.764c0-0.883,0.118-1.73,0.354-2.543
		c0.236-0.812,0.589-1.551,1.058-2.215s0.955-1.133,1.459-1.406l0.223,0.715c-0.57,0.438-1.038,1.106-1.403,2.004
		c-0.365,0.899-0.565,1.904-0.601,3.018l-0.006,0.498c0,1.508,0.275,2.816,0.826,3.926c0.332,0.664,0.727,1.184,1.184,1.559
		L408.486,16.428 M285.644,16.234l-0.205-0.018l-0.404-0.076v-0.879l0.293,0.024c0.367,0,0.653-0.074,0.858-0.223
		c0.205-0.149,0.374-0.42,0.507-0.814l0.24-0.645l-2.262-6.27h1.184l1.582,4.752l1.477-4.752h1.16l-2.549,7.318
		C287.13,15.707,286.503,16.234,285.644,16.234 M398.241,16.17c-0.457,0-0.904-0.098-1.342-0.293s-0.771-0.463-1.002-0.803
		l0.563-0.65c0.465,0.574,1.033,0.861,1.705,0.861c0.527,0,0.938-0.149,1.233-0.445c0.295-0.297,0.442-0.715,0.442-1.254v-0.545
		c-0.434,0.5-1.025,0.75-1.775,0.75c-0.742,0-1.343-0.299-1.802-0.897c-0.459-0.598-0.688-1.412-0.688-2.443
		c0-0.988,0.229-1.774,0.686-2.358c0.457-0.584,1.062-0.876,1.816-0.876c0.773,0,1.377,0.273,1.811,0.82l0.053-0.703h0.99v6.188
		c0,0.82-0.243,1.467-0.73,1.939S399.061,16.17,398.241,16.17 M398.346,8.137c-0.527,0-0.94,0.205-1.236,0.615
		c-0.297,0.41-0.445,1.018-0.445,1.822c0,0.715,0.146,1.276,0.44,1.685c0.293,0.408,0.703,0.612,1.23,0.612
		c0.684,0,1.186-0.311,1.506-0.932V9.045C399.508,8.439,399.01,8.137,398.346,8.137 M164.207,16.111h-1.084V7.334h0.99l0.053,0.703
		c0.441-0.547,1.055-0.82,1.84-0.82c0.762,0,1.364,0.287,1.808,0.861c0.443,0.574,0.665,1.373,0.665,2.396v0.1
		c0,0.965-0.221,1.742-0.662,2.332c-0.441,0.59-1.039,0.885-1.793,0.885c-0.77,0-1.375-0.244-1.816-0.732V16.111 M165.684,8.137
		c-0.656,0-1.148,0.291-1.477,0.873v3.029c0.324,0.578,0.82,0.867,1.488,0.867c0.519,0,0.932-0.206,1.239-0.618
		c0.307-0.412,0.46-1.024,0.46-1.837c0-0.715-0.152-1.279-0.457-1.693C166.633,8.344,166.215,8.137,165.684,8.137 M496.855,13.791
		c-0.859,0-1.556-0.299-2.089-0.897c-0.533-0.598-0.8-1.389-0.8-2.373v-0.076c0-0.621,0.122-1.18,0.366-1.676
		c0.244-0.496,0.584-0.879,1.02-1.149c0.435-0.269,0.932-0.404,1.491-0.404c0.863,0,1.561,0.299,2.095,0.897
		c0.533,0.598,0.8,1.393,0.8,2.385v0.076c0,0.617-0.118,1.171-0.354,1.661c-0.236,0.49-0.574,0.872-1.014,1.146
		C497.93,13.654,497.425,13.791,496.855,13.791 M496.843,8.107c-0.535,0-0.967,0.213-1.295,0.639
		c-0.328,0.426-0.492,1.035-0.492,1.828c0,0.703,0.163,1.268,0.489,1.693c0.326,0.426,0.763,0.639,1.31,0.639
		c0.551,0,0.988-0.216,1.313-0.647c0.324-0.432,0.486-1.036,0.486-1.814c0-0.695-0.165-1.259-0.495-1.69
		C497.828,8.323,497.39,8.107,496.843,8.107 M492.349,13.791c-0.484,0-0.849-0.146-1.096-0.439
		c-0.246-0.293-0.369-0.709-0.369-1.248V8.172h-1.154V7.334h1.154V5.799h1.084v1.535h1.184v0.838h-1.184v3.937
		c0,0.254,0.053,0.445,0.158,0.572c0.105,0.127,0.285,0.191,0.539,0.191c0.125,0,0.297-0.024,0.516-0.07v0.874
		C492.896,13.752,492.619,13.791,492.349,13.791 M482.866,13.791c-0.734,0-1.333-0.301-1.796-0.902
		c-0.463-0.601-0.694-1.387-0.694-2.355v-0.082c0-0.973,0.23-1.755,0.691-2.347c0.461-0.592,1.064-0.888,1.811-0.888
		c0.742,0,1.33,0.254,1.764,0.762V4.674h1.084v9h-0.996l-0.053-0.68C484.243,13.525,483.639,13.791,482.866,13.791 M483.147,8.137
		c-0.531,0-0.945,0.205-1.242,0.615c-0.297,0.41-0.445,1.018-0.445,1.822c0,0.719,0.148,1.281,0.445,1.687
		c0.297,0.406,0.707,0.609,1.23,0.609c0.687,0,1.189-0.309,1.506-0.926V9.033C484.317,8.436,483.819,8.137,483.147,8.137
		 M476.787,13.791c-0.859,0-1.559-0.282-2.098-0.847c-0.539-0.564-0.809-1.319-0.809-2.265v-0.199c0-0.629,0.12-1.19,0.36-1.685
		c0.24-0.494,0.576-0.881,1.008-1.16c0.431-0.279,0.899-0.419,1.403-0.419c0.824,0,1.465,0.272,1.922,0.814
		c0.457,0.543,0.686,1.32,0.686,2.332v0.451h-4.295c0.016,0.625,0.198,1.13,0.548,1.515c0.35,0.385,0.794,0.577,1.333,0.577
		c0.383,0,0.707-0.078,0.973-0.234c0.266-0.156,0.498-0.363,0.697-0.621l0.662,0.516C478.646,13.383,477.849,13.791,476.787,13.791
		 M476.652,8.107c-0.437,0-0.805,0.159-1.102,0.477c-0.297,0.318-0.48,0.765-0.551,1.339h3.176V9.842
		c-0.031-0.551-0.18-0.978-0.445-1.28C477.464,8.259,477.105,8.107,476.652,8.107 M472.24,13.791c-0.484,0-0.85-0.146-1.096-0.439
		c-0.246-0.293-0.369-0.709-0.369-1.248V8.172h-1.154V7.334h1.154V5.799h1.084v1.535h1.184v0.838h-1.184v3.937
		c0,0.254,0.053,0.445,0.158,0.572s0.285,0.191,0.539,0.191c0.125,0,0.297-0.024,0.516-0.07v0.874
		C472.787,13.752,472.509,13.791,472.24,13.791 M445.865,13.791c-0.484,0-0.85-0.146-1.096-0.439
		c-0.246-0.293-0.369-0.709-0.369-1.248V8.172h-1.154V7.334h1.154V5.799h1.084v1.535h1.184v0.838h-1.184v3.937
		c0,0.254,0.053,0.445,0.158,0.572c0.105,0.127,0.285,0.191,0.539,0.191c0.125,0,0.297-0.024,0.516-0.07v0.874
		C446.412,13.752,446.134,13.791,445.865,13.791 M439.759,13.791c-0.859,0-1.556-0.299-2.089-0.897
		c-0.533-0.598-0.8-1.389-0.8-2.373v-0.076c0-0.621,0.122-1.18,0.366-1.676c0.244-0.496,0.584-0.879,1.02-1.149
		c0.436-0.269,0.932-0.404,1.491-0.404c0.863,0,1.561,0.299,2.095,0.897c0.533,0.598,0.8,1.393,0.8,2.385v0.076
		c0,0.617-0.118,1.171-0.355,1.661c-0.236,0.49-0.574,0.872-1.014,1.146C440.834,13.654,440.329,13.791,439.759,13.791
		 M439.747,8.107c-0.535,0-0.967,0.213-1.295,0.639c-0.328,0.426-0.492,1.035-0.492,1.828c0,0.703,0.163,1.268,0.489,1.693
		c0.326,0.426,0.763,0.639,1.31,0.639c0.551,0,0.988-0.216,1.313-0.647c0.324-0.432,0.486-1.036,0.486-1.814
		c0-0.695-0.165-1.259-0.495-1.69C440.733,8.323,440.294,8.107,439.747,8.107 M425.34,13.791c-0.484,0-0.849-0.146-1.096-0.439
		c-0.246-0.293-0.369-0.709-0.369-1.248V8.172h-1.154V7.334h1.154V5.799h1.084v1.535h1.184v0.838h-1.184v3.937
		c0,0.254,0.053,0.445,0.158,0.572c0.105,0.127,0.285,0.191,0.539,0.191c0.125,0,0.297-0.024,0.516-0.07v0.874
		C425.887,13.752,425.61,13.791,425.34,13.791 M418.774,13.791c-0.676,0-1.19-0.196-1.544-0.589
		c-0.354-0.393-0.532-0.974-0.536-1.743V7.334h1.084v4.096c0,0.961,0.391,1.441,1.172,1.441c0.828,0,1.379-0.309,1.652-0.926V7.334
		h1.084v6.34h-1.031l-0.023-0.627C420.21,13.543,419.59,13.791,418.774,13.791 M412.812,13.791c-0.801,0-1.42-0.283-1.857-0.85
		l-0.053,0.732h-0.996v-9h1.084v3.357c0.437-0.543,1.041-0.814,1.811-0.814c0.77,0,1.374,0.291,1.814,0.873
		c0.439,0.582,0.659,1.379,0.659,2.391v0.094c0,0.969-0.223,1.747-0.668,2.335C414.16,13.497,413.562,13.791,412.812,13.791
		 M412.531,8.137c-0.715,0-1.229,0.332-1.541,0.996v2.742c0.332,0.664,0.85,0.996,1.553,0.996c0.52,0,0.924-0.201,1.213-0.604
		c0.289-0.402,0.434-1.008,0.434-1.816c0-0.738-0.143-1.309-0.428-1.711C413.476,8.338,413.066,8.137,412.531,8.137 M381.681,13.791
		c-0.734,0-1.333-0.301-1.796-0.902c-0.463-0.601-0.694-1.387-0.694-2.355v-0.082c0-0.973,0.23-1.755,0.691-2.347
		c0.461-0.592,1.064-0.888,1.811-0.888c0.742,0,1.33,0.254,1.764,0.762V4.674h1.084v9h-0.996l-0.053-0.68
		C383.058,13.525,382.455,13.791,381.681,13.791 M381.963,8.137c-0.531,0-0.945,0.205-1.242,0.615
		c-0.297,0.41-0.445,1.018-0.445,1.822c0,0.719,0.148,1.281,0.445,1.687c0.297,0.406,0.707,0.609,1.23,0.609
		c0.687,0,1.189-0.309,1.506-0.926V9.033C383.132,8.436,382.634,8.137,381.963,8.137 M374.836,13.791
		c-0.676,0-1.19-0.196-1.544-0.589c-0.354-0.393-0.532-0.974-0.536-1.743V7.334h1.084v4.096c0,0.961,0.391,1.441,1.172,1.441
		c0.828,0,1.379-0.309,1.652-0.926V7.334h1.084v6.34h-1.031l-0.023-0.627C376.272,13.543,375.653,13.791,374.836,13.791
		 M366.038,13.791c-0.863,0-1.55-0.288-2.059-0.864c-0.51-0.576-0.765-1.364-0.765-2.364v-0.182c0-0.617,0.113-1.166,0.34-1.647
		c0.226-0.48,0.552-0.854,0.976-1.119c0.424-0.266,0.925-0.398,1.503-0.398c0.711,0,1.302,0.213,1.772,0.639
		c0.471,0.426,0.722,0.979,0.753,1.658h-1.025c-0.031-0.41-0.187-0.747-0.466-1.011c-0.279-0.264-0.624-0.395-1.034-0.395
		c-0.551,0-0.978,0.198-1.28,0.595c-0.303,0.396-0.454,0.97-0.454,1.72v0.205c0,0.73,0.15,1.293,0.451,1.687
		c0.301,0.395,0.73,0.592,1.289,0.592c0.387,0,0.725-0.117,1.014-0.352c0.289-0.234,0.449-0.527,0.48-0.879h1.025
		c-0.019,0.363-0.145,0.709-0.375,1.037c-0.231,0.328-0.538,0.59-0.923,0.785C366.875,13.693,366.468,13.791,366.038,13.791
		 M346.935,13.791c-0.508,0-0.957-0.09-1.348-0.269c-0.391-0.18-0.696-0.431-0.917-0.753c-0.221-0.322-0.331-0.671-0.331-1.046
		h1.084c0.019,0.363,0.165,0.651,0.436,0.864c0.272,0.213,0.63,0.319,1.075,0.319c0.41,0,0.739-0.083,0.987-0.249
		c0.248-0.166,0.372-0.388,0.372-0.665c0-0.293-0.11-0.52-0.331-0.683c-0.221-0.162-0.606-0.302-1.154-0.419
		c-0.549-0.117-0.984-0.258-1.307-0.422c-0.322-0.164-0.561-0.359-0.715-0.586c-0.154-0.226-0.232-0.496-0.232-0.809
		c0-0.519,0.22-0.959,0.659-1.318c0.439-0.359,1.001-0.539,1.685-0.539c0.719,0,1.302,0.186,1.749,0.557
		c0.447,0.371,0.671,0.846,0.671,1.424h-1.09c0-0.297-0.126-0.553-0.378-0.768c-0.252-0.215-0.569-0.322-0.952-0.322
		c-0.395,0-0.703,0.086-0.926,0.258c-0.223,0.172-0.334,0.397-0.334,0.674c0,0.262,0.104,0.459,0.311,0.592
		c0.207,0.133,0.581,0.26,1.122,0.381c0.541,0.121,0.979,0.266,1.315,0.434c0.336,0.168,0.585,0.37,0.747,0.606
		c0.162,0.236,0.243,0.524,0.243,0.864c0,0.566-0.227,1.021-0.68,1.362C348.246,13.62,347.658,13.791,346.935,13.791
		 M340.862,13.791c-0.859,0-1.559-0.282-2.098-0.847c-0.539-0.564-0.809-1.319-0.809-2.265v-0.199c0-0.629,0.12-1.19,0.36-1.685
		c0.24-0.494,0.576-0.881,1.008-1.16c0.432-0.279,0.899-0.419,1.403-0.419c0.824,0,1.465,0.272,1.922,0.814
		c0.457,0.543,0.685,1.32,0.685,2.332v0.451h-4.295c0.015,0.625,0.198,1.13,0.548,1.515c0.35,0.385,0.794,0.577,1.333,0.577
		c0.383,0,0.707-0.078,0.973-0.234c0.266-0.156,0.498-0.363,0.697-0.621l0.662,0.516C342.722,13.383,341.925,13.791,340.862,13.791
		 M340.727,8.107c-0.438,0-0.805,0.159-1.102,0.477c-0.297,0.318-0.48,0.765-0.551,1.339h3.176V9.842
		c-0.031-0.551-0.18-0.978-0.445-1.28C341.54,8.259,341.181,8.107,340.727,8.107 M330.776,13.791c-0.734,0-1.333-0.301-1.796-0.902
		c-0.463-0.601-0.694-1.387-0.694-2.355v-0.082c0-0.973,0.23-1.755,0.691-2.347c0.461-0.592,1.064-0.888,1.811-0.888
		c0.742,0,1.33,0.254,1.764,0.762V4.674h1.084v9h-0.996l-0.053-0.68C332.153,13.525,331.549,13.791,330.776,13.791 M331.057,8.137
		c-0.531,0-0.945,0.205-1.242,0.615c-0.297,0.41-0.445,1.018-0.445,1.822c0,0.719,0.148,1.281,0.445,1.687
		c0.297,0.406,0.707,0.609,1.23,0.609c0.687,0,1.189-0.309,1.506-0.926V9.033C332.227,8.436,331.729,8.137,331.057,8.137
		 M323.931,13.791c-0.676,0-1.19-0.196-1.544-0.589c-0.354-0.393-0.532-0.974-0.536-1.743V7.334h1.084v4.096
		c0,0.961,0.391,1.441,1.172,1.441c0.828,0,1.379-0.309,1.652-0.926V7.334h1.084v6.34h-1.031l-0.023-0.627
		C325.366,13.543,324.747,13.791,323.931,13.791 M319.832,13.791c-0.484,0-0.85-0.146-1.096-0.439
		c-0.246-0.293-0.369-0.709-0.369-1.248V8.172h-1.154V7.334h1.154V5.799h1.084v1.535h1.184v0.838h-1.184v3.937
		c0,0.254,0.053,0.445,0.158,0.572c0.105,0.127,0.285,0.191,0.539,0.191c0.125,0,0.297-0.024,0.516-0.07v0.874
		C320.379,13.752,320.102,13.791,319.832,13.791 M313.971,13.791c-0.508,0-0.957-0.09-1.348-0.269
		c-0.391-0.18-0.696-0.431-0.917-0.753c-0.221-0.322-0.331-0.671-0.331-1.046h1.084c0.02,0.363,0.165,0.651,0.436,0.864
		c0.272,0.213,0.63,0.319,1.075,0.319c0.41,0,0.739-0.083,0.987-0.249c0.248-0.166,0.372-0.388,0.372-0.665
		c0-0.293-0.11-0.52-0.331-0.683c-0.221-0.162-0.606-0.302-1.154-0.419c-0.549-0.117-0.984-0.258-1.307-0.422
		c-0.322-0.164-0.561-0.359-0.715-0.586c-0.154-0.226-0.232-0.496-0.232-0.809c0-0.519,0.22-0.959,0.659-1.318
		c0.439-0.359,1.001-0.539,1.685-0.539c0.719,0,1.302,0.186,1.749,0.557c0.447,0.371,0.671,0.846,0.671,1.424h-1.09
		c0-0.297-0.126-0.553-0.378-0.768c-0.252-0.215-0.569-0.322-0.952-0.322c-0.395,0-0.703,0.086-0.926,0.258
		c-0.223,0.172-0.334,0.397-0.334,0.674c0,0.262,0.103,0.459,0.311,0.592c0.207,0.133,0.581,0.26,1.122,0.381
		c0.541,0.121,0.979,0.266,1.315,0.434c0.336,0.168,0.585,0.37,0.747,0.606c0.162,0.236,0.243,0.524,0.243,0.864
		c0,0.566-0.227,1.021-0.68,1.362C315.282,13.62,314.694,13.791,313.971,13.791 M299.867,13.791c-0.676,0-1.19-0.196-1.544-0.589
		c-0.354-0.393-0.532-0.974-0.536-1.743V7.334h1.084v4.096c0,0.961,0.391,1.441,1.172,1.441c0.828,0,1.379-0.309,1.652-0.926V7.334
		h1.084v6.34h-1.031l-0.023-0.627C301.303,13.543,300.684,13.791,299.867,13.791 M293.523,13.791c-0.859,0-1.556-0.299-2.089-0.897
		c-0.533-0.598-0.8-1.389-0.8-2.373v-0.076c0-0.621,0.122-1.18,0.366-1.676c0.244-0.496,0.584-0.879,1.019-1.149
		c0.436-0.269,0.933-0.404,1.491-0.404c0.863,0,1.561,0.299,2.095,0.897c0.533,0.598,0.8,1.393,0.8,2.385v0.076
		c0,0.617-0.118,1.171-0.354,1.661c-0.236,0.49-0.574,0.872-1.014,1.146C294.598,13.654,294.093,13.791,293.523,13.791
		 M293.511,8.107c-0.535,0-0.967,0.213-1.295,0.639c-0.328,0.426-0.492,1.035-0.492,1.828c0,0.703,0.163,1.268,0.489,1.693
		c0.326,0.426,0.763,0.639,1.31,0.639c0.551,0,0.988-0.216,1.313-0.647c0.324-0.432,0.486-1.036,0.486-1.814
		c0-0.695-0.165-1.259-0.495-1.69C294.496,8.323,294.058,8.107,293.511,8.107 M280.203,13.791c-0.484,0-0.85-0.146-1.096-0.439
		c-0.246-0.293-0.369-0.709-0.369-1.248V8.172h-1.154V7.334h1.154V5.799h1.084v1.535h1.183v0.838h-1.183v3.937
		c0,0.254,0.053,0.445,0.158,0.572s0.285,0.191,0.539,0.191c0.125,0,0.297-0.024,0.516-0.07v0.874
		C280.75,13.752,280.473,13.791,280.203,13.791 M273.637,13.791c-0.676,0-1.19-0.196-1.544-0.589
		c-0.354-0.393-0.532-0.974-0.536-1.743V7.334h1.084v4.096c0,0.961,0.391,1.441,1.172,1.441c0.828,0,1.379-0.309,1.652-0.926V7.334
		h1.084v6.34h-1.031l-0.023-0.627C275.073,13.543,274.453,13.791,273.637,13.791 M267.293,13.791c-0.859,0-1.556-0.299-2.089-0.897
		c-0.533-0.598-0.8-1.389-0.8-2.373v-0.076c0-0.621,0.122-1.18,0.366-1.676c0.244-0.496,0.584-0.879,1.019-1.149
		c0.436-0.269,0.933-0.404,1.491-0.404c0.863,0,1.562,0.299,2.095,0.897c0.533,0.598,0.8,1.393,0.8,2.385v0.076
		c0,0.617-0.118,1.171-0.354,1.661c-0.236,0.49-0.574,0.872-1.014,1.146C268.368,13.654,267.863,13.791,267.293,13.791
		 M267.281,8.107c-0.535,0-0.967,0.213-1.295,0.639c-0.328,0.426-0.492,1.035-0.492,1.828c0,0.703,0.163,1.268,0.489,1.693
		c0.326,0.426,0.763,0.639,1.31,0.639c0.551,0,0.988-0.216,1.312-0.647c0.324-0.432,0.486-1.036,0.486-1.814
		c0-0.695-0.165-1.259-0.495-1.69C268.266,8.323,267.828,8.107,267.281,8.107 M260.783,13.791c-0.801,0-1.42-0.283-1.857-0.85
		l-0.053,0.732h-0.996v-9h1.084v3.357c0.437-0.543,1.041-0.814,1.811-0.814c0.769,0,1.374,0.291,1.813,0.873
		c0.439,0.582,0.659,1.379,0.659,2.391v0.094c0,0.969-0.223,1.747-0.668,2.335C262.131,13.497,261.533,13.791,260.783,13.791
		 M260.502,8.137c-0.715,0-1.229,0.332-1.541,0.996v2.742c0.332,0.664,0.85,0.996,1.553,0.996c0.52,0,0.924-0.201,1.213-0.604
		c0.289-0.402,0.434-1.008,0.434-1.816c0-0.738-0.143-1.309-0.428-1.711C261.447,8.338,261.037,8.137,260.502,8.137 M253.275,13.791
		c-0.625,0-1.138-0.177-1.538-0.53c-0.4-0.354-0.601-0.802-0.601-1.345c0-0.66,0.251-1.173,0.753-1.538
		c0.502-0.365,1.208-0.548,2.118-0.548h1.055V9.332c0-0.379-0.113-0.681-0.34-0.905c-0.227-0.225-0.561-0.337-1.002-0.337
		c-0.387,0-0.711,0.098-0.973,0.293c-0.262,0.195-0.393,0.432-0.393,0.709h-1.09c0-0.316,0.112-0.622,0.337-0.917
		c0.225-0.295,0.529-0.528,0.914-0.7c0.385-0.172,0.808-0.258,1.269-0.258c0.73,0,1.303,0.183,1.717,0.548
		c0.414,0.365,0.629,0.868,0.645,1.509v2.918c0,0.582,0.074,1.045,0.223,1.389v0.094h-1.137c-0.062-0.125-0.113-0.348-0.152-0.668
		C254.576,13.529,253.975,13.791,253.275,13.791 M254.213,10.598c-1.328,0-1.992,0.389-1.992,1.166c0,0.34,0.113,0.606,0.34,0.797
		c0.226,0.192,0.518,0.287,0.873,0.287c0.34,0,0.662-0.088,0.967-0.264c0.305-0.176,0.525-0.404,0.662-0.686v-1.301H254.213
		 M246.159,13.791c-0.484,0-0.85-0.146-1.096-0.439c-0.246-0.293-0.369-0.709-0.369-1.248V8.172h-1.154V7.334h1.154V5.799h1.084
		v1.535h1.184v0.838h-1.184v3.937c0,0.254,0.053,0.445,0.158,0.572c0.105,0.127,0.285,0.191,0.539,0.191
		c0.125,0,0.297-0.024,0.516-0.07v0.874C246.706,13.752,246.429,13.791,246.159,13.791 M240.355,13.791
		c-0.863,0-1.55-0.288-2.06-0.864c-0.51-0.576-0.765-1.364-0.765-2.364v-0.182c0-0.617,0.113-1.166,0.34-1.647
		c0.226-0.48,0.552-0.854,0.976-1.119c0.424-0.266,0.925-0.398,1.503-0.398c0.711,0,1.302,0.213,1.772,0.639
		c0.471,0.426,0.722,0.979,0.753,1.658h-1.025c-0.031-0.41-0.187-0.747-0.466-1.011c-0.279-0.264-0.624-0.395-1.034-0.395
		c-0.551,0-0.978,0.198-1.28,0.595s-0.454,0.97-0.454,1.72v0.205c0,0.73,0.15,1.293,0.451,1.687c0.301,0.395,0.73,0.592,1.289,0.592
		c0.387,0,0.725-0.117,1.014-0.352s0.449-0.527,0.48-0.879h1.025c-0.02,0.363-0.145,0.709-0.375,1.037
		c-0.23,0.328-0.538,0.59-0.923,0.785S240.784,13.791,240.355,13.791 M233.239,13.791c-0.625,0-1.138-0.177-1.538-0.53
		c-0.4-0.354-0.601-0.802-0.601-1.345c0-0.66,0.251-1.173,0.753-1.538c0.502-0.365,1.208-0.548,2.118-0.548h1.055V9.332
		c0-0.379-0.113-0.681-0.34-0.905c-0.227-0.225-0.561-0.337-1.002-0.337c-0.387,0-0.711,0.098-0.973,0.293
		c-0.262,0.195-0.393,0.432-0.393,0.709h-1.09c0-0.316,0.112-0.622,0.337-0.917c0.225-0.295,0.529-0.528,0.914-0.7
		c0.385-0.172,0.808-0.258,1.269-0.258c0.73,0,1.303,0.183,1.717,0.548c0.414,0.365,0.629,0.868,0.645,1.509v2.918
		c0,0.582,0.074,1.045,0.223,1.389v0.094h-1.137c-0.063-0.125-0.113-0.348-0.152-0.668C234.54,13.529,233.938,13.791,233.239,13.791
		 M234.177,10.598c-1.328,0-1.992,0.389-1.992,1.166c0,0.34,0.113,0.606,0.34,0.797c0.226,0.192,0.517,0.287,0.873,0.287
		c0.34,0,0.662-0.088,0.967-0.264c0.305-0.176,0.525-0.404,0.662-0.686v-1.301H234.177 M229.21,13.791
		c-0.484,0-0.85-0.146-1.096-0.439c-0.246-0.293-0.369-0.709-0.369-1.248V8.172h-1.154V7.334h1.154V5.799h1.084v1.535h1.184v0.838
		h-1.184v3.937c0,0.254,0.053,0.445,0.158,0.572c0.106,0.127,0.285,0.191,0.539,0.191c0.125,0,0.297-0.024,0.516-0.07v0.874
		C229.757,13.752,229.48,13.791,229.21,13.791 M216.361,13.791c-0.859,0-1.556-0.299-2.089-0.897c-0.533-0.598-0.8-1.389-0.8-2.373
		v-0.076c0-0.621,0.122-1.18,0.366-1.676c0.244-0.496,0.584-0.879,1.019-1.149c0.436-0.269,0.933-0.404,1.491-0.404
		c0.863,0,1.562,0.299,2.095,0.897c0.533,0.598,0.8,1.393,0.8,2.385v0.076c0,0.617-0.118,1.171-0.354,1.661
		c-0.236,0.49-0.574,0.872-1.014,1.146C217.436,13.654,216.931,13.791,216.361,13.791 M216.349,8.107
		c-0.535,0-0.967,0.213-1.295,0.639c-0.328,0.426-0.492,1.035-0.492,1.828c0,0.703,0.163,1.268,0.489,1.693
		c0.326,0.426,0.763,0.639,1.31,0.639c0.551,0,0.988-0.216,1.312-0.647c0.324-0.432,0.486-1.036,0.486-1.814
		c0-0.695-0.165-1.259-0.495-1.69C217.334,8.323,216.896,8.107,216.349,8.107 M209.92,13.791c-0.863,0-1.55-0.288-2.06-0.864
		c-0.51-0.576-0.765-1.364-0.765-2.364v-0.182c0-0.617,0.113-1.166,0.34-1.647c0.226-0.48,0.552-0.854,0.976-1.119
		c0.424-0.266,0.925-0.398,1.503-0.398c0.711,0,1.302,0.213,1.772,0.639c0.471,0.426,0.722,0.979,0.753,1.658h-1.025
		c-0.031-0.41-0.187-0.747-0.466-1.011c-0.279-0.264-0.624-0.395-1.034-0.395c-0.551,0-0.978,0.198-1.28,0.595
		s-0.454,0.97-0.454,1.72v0.205c0,0.73,0.15,1.293,0.451,1.687c0.301,0.395,0.73,0.592,1.289,0.592c0.387,0,0.725-0.117,1.014-0.352
		s0.449-0.527,0.48-0.879h1.025c-0.02,0.363-0.145,0.709-0.375,1.037c-0.23,0.328-0.538,0.59-0.923,0.785
		S210.35,13.791,209.92,13.791 M196.016,13.791c-0.859,0-1.556-0.299-2.089-0.897c-0.533-0.598-0.8-1.389-0.8-2.373v-0.076
		c0-0.621,0.122-1.18,0.366-1.676c0.244-0.496,0.584-0.879,1.019-1.149c0.436-0.269,0.933-0.404,1.491-0.404
		c0.863,0,1.562,0.299,2.095,0.897c0.533,0.598,0.8,1.393,0.8,2.385v0.076c0,0.617-0.118,1.171-0.354,1.661
		c-0.236,0.49-0.574,0.872-1.014,1.146C197.092,13.654,196.587,13.791,196.016,13.791 M196.005,8.107
		c-0.535,0-0.967,0.213-1.295,0.639c-0.328,0.426-0.492,1.035-0.492,1.828c0,0.703,0.163,1.268,0.489,1.693
		c0.326,0.426,0.763,0.639,1.31,0.639c0.551,0,0.988-0.216,1.313-0.647c0.324-0.432,0.486-1.036,0.486-1.814
		c0-0.695-0.165-1.259-0.495-1.69C196.99,8.323,196.551,8.107,196.005,8.107 M188.256,13.791c-0.484,0-0.85-0.146-1.096-0.439
		c-0.246-0.293-0.369-0.709-0.369-1.248V8.172h-1.154V7.334h1.154V5.799h1.084v1.535h1.184v0.838h-1.184v3.937
		c0,0.254,0.053,0.445,0.158,0.572s0.285,0.191,0.539,0.191c0.125,0,0.297-0.024,0.516-0.07v0.874
		C188.803,13.752,188.525,13.791,188.256,13.791 M172.533,13.791c-0.859,0-1.556-0.299-2.089-0.897
		c-0.533-0.598-0.8-1.389-0.8-2.373v-0.076c0-0.621,0.122-1.18,0.366-1.676c0.244-0.496,0.584-0.879,1.019-1.149
		c0.436-0.269,0.933-0.404,1.491-0.404c0.863,0,1.561,0.299,2.095,0.897c0.533,0.598,0.8,1.393,0.8,2.385v0.076
		c0,0.617-0.118,1.171-0.354,1.661c-0.236,0.49-0.574,0.872-1.014,1.146C173.608,13.654,173.103,13.791,172.533,13.791
		 M172.521,8.107c-0.535,0-0.967,0.213-1.295,0.639c-0.328,0.426-0.492,1.035-0.492,1.828c0,0.703,0.163,1.268,0.489,1.693
		c0.326,0.426,0.763,0.639,1.31,0.639c0.551,0,0.988-0.216,1.313-0.647c0.324-0.432,0.486-1.036,0.486-1.814
		c0-0.695-0.165-1.259-0.495-1.69C173.506,8.323,173.068,8.107,172.521,8.107 M157.964,13.791c-0.484,0-0.85-0.146-1.096-0.439
		c-0.246-0.293-0.369-0.709-0.369-1.248V8.172h-1.154V7.334h1.154V5.799h1.084v1.535h1.184v0.838h-1.184v3.937
		c0,0.254,0.053,0.445,0.158,0.572c0.105,0.127,0.285,0.191,0.539,0.191c0.125,0,0.297-0.024,0.516-0.07v0.874
		C158.511,13.752,158.234,13.791,157.964,13.791 M152.103,13.791c-0.508,0-0.957-0.09-1.348-0.269
		c-0.391-0.18-0.696-0.431-0.917-0.753c-0.221-0.322-0.331-0.671-0.331-1.046h1.084c0.019,0.363,0.165,0.651,0.436,0.864
		c0.272,0.213,0.63,0.319,1.075,0.319c0.41,0,0.739-0.083,0.987-0.249c0.248-0.166,0.372-0.388,0.372-0.665
		c0-0.293-0.11-0.52-0.331-0.683c-0.221-0.162-0.605-0.302-1.154-0.419c-0.549-0.117-0.984-0.258-1.307-0.422
		c-0.322-0.164-0.561-0.359-0.715-0.586c-0.154-0.226-0.232-0.496-0.232-0.809c0-0.519,0.22-0.959,0.659-1.318
		c0.439-0.359,1.001-0.539,1.685-0.539c0.719,0,1.302,0.186,1.749,0.557c0.447,0.371,0.671,0.846,0.671,1.424h-1.09
		c0-0.297-0.126-0.553-0.378-0.768c-0.252-0.215-0.569-0.322-0.952-0.322c-0.395,0-0.703,0.086-0.926,0.258
		c-0.223,0.172-0.334,0.397-0.334,0.674c0,0.262,0.104,0.459,0.311,0.592c0.207,0.133,0.581,0.26,1.122,0.381
		c0.541,0.121,0.979,0.266,1.315,0.434c0.336,0.168,0.585,0.37,0.747,0.606c0.162,0.236,0.243,0.524,0.243,0.864
		c0,0.566-0.227,1.021-0.68,1.362C153.414,13.62,152.826,13.791,152.103,13.791 M132.092,13.791c-0.859,0-1.559-0.282-2.098-0.847
		s-0.809-1.319-0.809-2.265v-0.199c0-0.629,0.12-1.19,0.36-1.685c0.24-0.494,0.576-0.881,1.008-1.16
		c0.432-0.279,0.899-0.419,1.403-0.419c0.824,0,1.465,0.272,1.922,0.814c0.457,0.543,0.685,1.32,0.685,2.332v0.451h-4.295
		c0.016,0.625,0.198,1.13,0.548,1.515c0.35,0.385,0.794,0.577,1.333,0.577c0.383,0,0.707-0.078,0.973-0.234
		c0.266-0.156,0.498-0.363,0.697-0.621l0.662,0.516C133.951,13.383,133.154,13.791,132.092,13.791 M131.957,8.107
		c-0.437,0-0.805,0.159-1.102,0.477c-0.297,0.318-0.48,0.765-0.551,1.339h3.176V9.842c-0.031-0.551-0.18-0.978-0.445-1.28
		C132.77,8.259,132.41,8.107,131.957,8.107 M120.753,13.791c-0.484,0-0.85-0.146-1.096-0.439c-0.246-0.293-0.369-0.709-0.369-1.248
		V8.172h-1.154V7.334h1.154V5.799h1.084v1.535h1.184v0.838h-1.184v3.937c0,0.254,0.053,0.445,0.158,0.572
		c0.105,0.127,0.285,0.191,0.539,0.191c0.125,0,0.297-0.024,0.516-0.07v0.874C121.3,13.752,121.023,13.791,120.753,13.791
		 M113.743,13.791c-0.484,0-0.85-0.146-1.096-0.439c-0.246-0.293-0.369-0.709-0.369-1.248V8.172h-1.154V7.334h1.154V5.799h1.084
		v1.535h1.184v0.838h-1.184v3.937c0,0.254,0.053,0.445,0.158,0.572c0.105,0.127,0.285,0.191,0.539,0.191
		c0.125,0,0.297-0.024,0.516-0.07v0.874C114.289,13.752,114.012,13.791,113.743,13.791 M101.338,13.791
		c-0.859,0-1.559-0.282-2.098-0.847c-0.539-0.564-0.809-1.319-0.809-2.265v-0.199c0-0.629,0.12-1.19,0.36-1.685
		c0.24-0.494,0.576-0.881,1.008-1.16c0.432-0.279,0.899-0.419,1.403-0.419c0.824,0,1.465,0.272,1.922,0.814
		c0.457,0.543,0.685,1.32,0.685,2.332v0.451h-4.295c0.015,0.625,0.198,1.13,0.548,1.515c0.349,0.385,0.794,0.577,1.333,0.577
		c0.383,0,0.707-0.078,0.973-0.234c0.266-0.156,0.498-0.363,0.697-0.621l0.662,0.516C103.198,13.383,102.401,13.791,101.338,13.791
		 M101.203,8.107c-0.437,0-0.805,0.159-1.102,0.477c-0.297,0.318-0.48,0.765-0.551,1.339h3.176V9.842
		c-0.031-0.551-0.18-0.978-0.445-1.28C102.016,8.259,101.657,8.107,101.203,8.107 M94.116,13.791c-0.734,0-1.333-0.301-1.796-0.902
		c-0.463-0.601-0.694-1.387-0.694-2.355v-0.082c0-0.973,0.23-1.755,0.691-2.347c0.461-0.592,1.064-0.888,1.811-0.888
		c0.742,0,1.33,0.254,1.764,0.762V4.674h1.084v9h-0.996l-0.053-0.68C95.493,13.525,94.889,13.791,94.116,13.791 M94.397,8.137
		c-0.531,0-0.945,0.205-1.242,0.615c-0.297,0.41-0.445,1.018-0.445,1.822c0,0.719,0.148,1.281,0.445,1.687
		c0.297,0.406,0.707,0.609,1.23,0.609c0.688,0,1.19-0.309,1.506-0.926V9.033C95.567,8.436,95.069,8.137,94.397,8.137 M87.271,13.791
		c-0.676,0-1.19-0.196-1.544-0.589c-0.354-0.393-0.532-0.974-0.536-1.743V7.334h1.084v4.096c0,0.961,0.391,1.441,1.172,1.441
		c0.828,0,1.379-0.309,1.652-0.926V7.334h1.084v6.34h-1.031l-0.024-0.627C88.706,13.543,88.087,13.791,87.271,13.791 M83.172,13.791
		c-0.484,0-0.85-0.146-1.096-0.439c-0.246-0.293-0.369-0.709-0.369-1.248V8.172h-1.154V7.334h1.154V5.799h1.084v1.535h1.183v0.838
		h-1.183v3.937c0,0.254,0.053,0.445,0.158,0.572c0.105,0.127,0.285,0.191,0.539,0.191c0.125,0,0.297-0.024,0.516-0.07v0.874
		C83.719,13.752,83.442,13.791,83.172,13.791 M77.312,13.791c-0.508,0-0.957-0.09-1.348-0.269c-0.391-0.18-0.696-0.431-0.917-0.753
		c-0.221-0.322-0.331-0.671-0.331-1.046H75.8c0.019,0.363,0.165,0.651,0.436,0.864c0.272,0.213,0.63,0.319,1.075,0.319
		c0.41,0,0.739-0.083,0.987-0.249c0.248-0.166,0.372-0.388,0.372-0.665c0-0.293-0.11-0.52-0.331-0.683
		c-0.221-0.162-0.606-0.302-1.154-0.419c-0.549-0.117-0.984-0.258-1.307-0.422c-0.322-0.164-0.561-0.359-0.715-0.586
		c-0.154-0.226-0.232-0.496-0.232-0.809c0-0.519,0.22-0.959,0.659-1.318c0.439-0.359,1.001-0.539,1.685-0.539
		c0.719,0,1.302,0.186,1.749,0.557c0.447,0.371,0.671,0.846,0.671,1.424h-1.09c0-0.297-0.126-0.553-0.378-0.768
		c-0.252-0.215-0.569-0.322-0.952-0.322c-0.395,0-0.703,0.086-0.926,0.258c-0.223,0.172-0.334,0.397-0.334,0.674
		c0,0.262,0.103,0.459,0.311,0.592c0.207,0.133,0.581,0.26,1.122,0.381c0.541,0.121,0.979,0.266,1.315,0.434
		c0.336,0.168,0.585,0.37,0.747,0.606c0.162,0.236,0.243,0.524,0.243,0.864c0,0.566-0.227,1.021-0.68,1.362
		C78.622,13.62,78.034,13.791,77.312,13.791 M56.89,13.791c-0.586,0-1.133-0.112-1.641-0.337c-0.508-0.225-0.899-0.532-1.175-0.923
		c-0.275-0.391-0.413-0.834-0.413-1.33h1.131c0,0.516,0.19,0.923,0.571,1.222c0.381,0.299,0.89,0.448,1.526,0.448
		c0.594,0,1.049-0.121,1.365-0.363c0.316-0.242,0.475-0.572,0.475-0.99c0-0.418-0.146-0.741-0.439-0.97
		c-0.293-0.229-0.824-0.454-1.594-0.677c-0.965-0.277-1.667-0.618-2.106-1.022c-0.439-0.404-0.659-0.903-0.659-1.497
		c0-0.672,0.269-1.228,0.806-1.667c0.537-0.439,1.235-0.659,2.095-0.659c0.586,0,1.108,0.113,1.567,0.34
		c0.459,0.227,0.814,0.539,1.066,0.938c0.252,0.398,0.378,0.834,0.378,1.307h-1.131c0-0.517-0.164-0.924-0.492-1.22
		c-0.328-0.296-0.791-0.444-1.389-0.444c-0.555,0-0.987,0.122-1.298,0.367c-0.311,0.245-0.466,0.584-0.466,1.018
		c0,0.348,0.147,0.643,0.442,0.884c0.295,0.241,0.797,0.461,1.506,0.66c0.709,0.2,1.264,0.419,1.664,0.66
		c0.4,0.24,0.697,0.521,0.891,0.841c0.193,0.32,0.29,0.697,0.29,1.131c0,0.691-0.27,1.245-0.809,1.661
		C58.513,13.583,57.792,13.791,56.89,13.791 M40.518,13.791c-0.934,0-1.678-0.252-2.232-0.756c-0.555-0.504-0.836-1.197-0.844-2.08
		V5.143h1.113v5.777c0,0.617,0.17,1.097,0.51,1.439c0.34,0.342,0.824,0.513,1.453,0.513c0.637,0,1.124-0.17,1.462-0.51
		c0.338-0.34,0.507-0.818,0.507-1.436V5.143h1.131v5.801c-0.004,0.805-0.257,1.463-0.759,1.975
		c-0.502,0.512-1.183,0.799-2.042,0.861L40.518,13.791 M29.781,13.791c-0.625,0-1.138-0.177-1.538-0.53
		c-0.4-0.354-0.601-0.802-0.601-1.345c0-0.66,0.251-1.173,0.753-1.538c0.502-0.365,1.208-0.548,2.118-0.548h1.055V9.332
		c0-0.379-0.113-0.681-0.34-0.905c-0.227-0.225-0.561-0.337-1.002-0.337c-0.387,0-0.711,0.098-0.973,0.293
		c-0.262,0.195-0.393,0.432-0.393,0.709h-1.09c0-0.316,0.112-0.622,0.337-0.917c0.225-0.295,0.529-0.528,0.914-0.7
		c0.385-0.172,0.808-0.258,1.269-0.258c0.73,0,1.303,0.183,1.717,0.548c0.414,0.365,0.629,0.868,0.645,1.509v2.918
		c0,0.582,0.074,1.045,0.223,1.389v0.094h-1.137c-0.063-0.125-0.113-0.348-0.152-0.668C31.081,13.529,30.48,13.791,29.781,13.791
		 M30.718,10.598c-1.328,0-1.992,0.389-1.992,1.166c0,0.34,0.113,0.606,0.34,0.797c0.227,0.192,0.518,0.287,0.873,0.287
		c0.34,0,0.662-0.088,0.967-0.264c0.305-0.176,0.525-0.404,0.662-0.686v-1.301H30.718 M20.878,13.791
		c-0.508,0-0.957-0.09-1.348-0.269c-0.391-0.18-0.696-0.431-0.917-0.753c-0.221-0.322-0.331-0.671-0.331-1.046h1.084
		c0.019,0.363,0.165,0.651,0.436,0.864c0.272,0.213,0.63,0.319,1.075,0.319c0.41,0,0.739-0.083,0.987-0.249
		c0.248-0.166,0.372-0.388,0.372-0.665c0-0.293-0.11-0.52-0.331-0.683c-0.221-0.162-0.606-0.302-1.154-0.419
		c-0.549-0.117-0.984-0.258-1.307-0.422c-0.322-0.164-0.561-0.359-0.715-0.586c-0.154-0.226-0.232-0.496-0.232-0.809
		c0-0.519,0.22-0.959,0.659-1.318c0.439-0.359,1.001-0.539,1.685-0.539c0.719,0,1.302,0.186,1.749,0.557
		c0.447,0.371,0.671,0.846,0.671,1.424h-1.09c0-0.297-0.126-0.553-0.378-0.768c-0.252-0.215-0.569-0.322-0.952-0.322
		c-0.395,0-0.703,0.086-0.926,0.258c-0.223,0.172-0.334,0.397-0.334,0.674c0,0.262,0.103,0.459,0.311,0.592
		c0.207,0.133,0.581,0.26,1.122,0.381c0.541,0.121,0.979,0.266,1.315,0.434c0.336,0.168,0.585,0.37,0.747,0.606
		c0.162,0.236,0.243,0.524,0.243,0.864c0,0.566-0.227,1.021-0.68,1.362C22.188,13.62,21.6,13.791,20.878,13.791 M468.542,13.674
		h-1.084v-6.34h1.084V13.674 M465.735,13.674h-1.084V9.49c0-0.453-0.103-0.792-0.31-1.017c-0.207-0.225-0.555-0.337-1.043-0.337
		c-0.402,0-0.736,0.12-1.002,0.36c-0.266,0.24-0.42,0.564-0.463,0.97v4.207h-1.09V9.519c0-0.922-0.451-1.383-1.353-1.383
		c-0.711,0-1.197,0.303-1.459,0.908v4.629h-1.084v-6.34h1.025l0.029,0.703c0.465-0.547,1.092-0.82,1.881-0.82
		c0.887,0,1.49,0.34,1.811,1.019c0.211-0.305,0.485-0.551,0.823-0.738c0.338-0.188,0.737-0.281,1.198-0.281
		c1.391,0,2.098,0.736,2.121,2.209V13.674 M455.087,13.674h-1.084v-6.34h1.084V13.674 M452.202,13.674h-1.084v-9h1.084V13.674
		 M435.486,13.674h-1.084V9.479c-0.004-0.457-0.108-0.795-0.313-1.014c-0.205-0.219-0.524-0.328-0.958-0.328
		c-0.352,0-0.66,0.094-0.926,0.281s-0.473,0.434-0.621,0.738v4.518h-1.084v-6.34h1.025l0.035,0.797
		c0.484-0.609,1.117-0.914,1.898-0.914c1.34,0,2.016,0.756,2.027,2.268V13.674 M394.153,13.674h-1.084V9.479
		c-0.004-0.457-0.108-0.795-0.313-1.014c-0.205-0.219-0.524-0.328-0.958-0.328c-0.352,0-0.66,0.094-0.926,0.281
		c-0.266,0.188-0.473,0.434-0.621,0.738v4.518h-1.084v-6.34h1.025l0.035,0.797c0.484-0.609,1.117-0.914,1.898-0.914
		c1.34,0,2.016,0.756,2.027,2.268V13.674 M387.409,13.674h-1.084v-6.34h1.084V13.674 M371.024,13.674h-1.084v-9h1.084V13.674
		 M361.804,13.674h-1.084V9.479c-0.004-0.457-0.108-0.795-0.313-1.014c-0.205-0.219-0.524-0.328-0.958-0.328
		c-0.352,0-0.66,0.094-0.926,0.281c-0.266,0.188-0.473,0.434-0.621,0.738v4.518h-1.084v-6.34h1.025l0.035,0.797
		c0.484-0.609,1.117-0.914,1.898-0.914c1.34,0,2.016,0.756,2.027,2.268V13.674 M355.059,13.674h-1.084v-6.34h1.084V13.674
		 M336.503,13.674h-1.084v-6.34h1.084V13.674 M305.572,13.674h-1.084v-6.34h1.055l0.018,0.732c0.355-0.566,0.859-0.85,1.512-0.85
		c0.211,0,0.371,0.027,0.48,0.082v1.008c-0.164-0.027-0.342-0.041-0.533-0.041c-0.711,0-1.193,0.303-1.447,0.908V13.674
		 M225.642,13.674h-1.084V9.479c-0.004-0.457-0.108-0.795-0.313-1.014c-0.205-0.219-0.524-0.328-0.958-0.328
		c-0.352,0-0.66,0.094-0.926,0.281c-0.266,0.188-0.473,0.434-0.621,0.738v4.518h-1.084v-6.34h1.025l0.035,0.797
		c0.484-0.609,1.117-0.914,1.898-0.914c1.34,0,2.016,0.756,2.027,2.268V13.674 M201.738,13.674h-1.084V8.172h-1.002V7.334h1.002
		v-0.65c0-0.68,0.182-1.205,0.545-1.576c0.363-0.371,0.877-0.557,1.541-0.557c0.25,0,0.498,0.033,0.744,0.099l-0.059,0.874
		c-0.184-0.035-0.379-0.053-0.586-0.053c-0.352,0-0.623,0.103-0.814,0.309c-0.191,0.206-0.287,0.501-0.287,0.885v0.67h1.353v0.838
		h-1.353V13.674 M184.688,13.674h-1.084V9.479c-0.004-0.457-0.108-0.795-0.313-1.014c-0.205-0.219-0.524-0.328-0.958-0.328
		c-0.352,0-0.66,0.094-0.926,0.281c-0.266,0.188-0.473,0.434-0.621,0.738v4.518h-1.084v-6.34h1.025l0.035,0.797
		c0.484-0.609,1.117-0.914,1.898-0.914c1.34,0,2.016,0.756,2.027,2.268V13.674 M177.943,13.674h-1.084v-6.34h1.084V13.674
		 M146.723,13.674h-1.084v-6.34h1.055l0.018,0.732c0.355-0.566,0.859-0.85,1.512-0.85c0.211,0,0.371,0.027,0.48,0.082v1.008
		c-0.164-0.027-0.342-0.041-0.533-0.041c-0.711,0-1.193,0.303-1.447,0.908V13.674 M143.79,13.674h-1.09v-6.34h1.09V13.674
		 M140.362,13.674h-1.09V8.172h-1.002V7.334h1.002V6.795c0-0.707,0.202-1.258,0.606-1.652c0.404-0.394,0.976-0.592,1.714-0.592
		c0.437,0,0.99,0.119,1.658,0.357l-0.182,0.914c-0.488-0.195-0.953-0.293-1.394-0.293c-0.465,0-0.8,0.105-1.005,0.313
		c-0.205,0.209-0.308,0.523-0.308,0.941v0.551h1.295v0.838h-1.295V13.674 M127.782,13.674h-1.084V9.479
		c-0.004-0.457-0.108-0.795-0.314-1.014c-0.205-0.219-0.524-0.328-0.958-0.328c-0.352,0-0.66,0.094-0.926,0.281
		s-0.473,0.434-0.621,0.738v4.518h-1.084v-9h1.084v3.428c0.48-0.59,1.105-0.885,1.875-0.885c1.34,0,2.016,0.756,2.027,2.268V13.674
		 M110.175,13.674h-1.084V9.479c-0.004-0.457-0.108-0.795-0.313-1.014c-0.205-0.219-0.524-0.328-0.958-0.328
		c-0.352,0-0.66,0.094-0.926,0.281s-0.473,0.434-0.621,0.738v4.518h-1.084v-6.34h1.025l0.035,0.797
		c0.484-0.609,1.117-0.914,1.898-0.914c1.34,0,2.016,0.756,2.027,2.268V13.674 M68.742,13.674h-1.025l-1.758-6.217l-0.135-0.65
		l-0.135,0.65l-1.822,6.217h-1.025L60.78,5.143h1.125l1.348,5.842l0.164,1.125l0.24-1.014l1.688-5.953h0.949l1.647,5.953
		l0.234,1.031l0.182-1.148l1.324-5.836h1.131L68.742,13.674 M52.121,13.674H50.99L46.695,7.1v6.574h-1.131V5.143h1.131l4.307,6.604
		V5.143h1.119V13.674 M17.512,13.674h-1.154l-0.814-2.232h-3.574l-0.803,2.232h-1.16l3.258-8.531h0.984L17.512,13.674 M13.756,6.531
		l-1.447,3.99h2.9L13.756,6.531 M468.009,6.268c-0.211,0-0.37-0.059-0.478-0.176c-0.108-0.117-0.161-0.264-0.161-0.439
		s0.054-0.324,0.161-0.445c0.107-0.121,0.267-0.182,0.478-0.182c0.211,0,0.371,0.061,0.48,0.182
		c0.109,0.121,0.164,0.269,0.164,0.445s-0.055,0.322-0.164,0.439C468.38,6.209,468.22,6.268,468.009,6.268 M454.554,6.268
		c-0.211,0-0.37-0.059-0.478-0.176c-0.108-0.117-0.161-0.264-0.161-0.439s0.054-0.324,0.161-0.445
		c0.107-0.121,0.267-0.182,0.478-0.182c0.211,0,0.371,0.061,0.48,0.182c0.109,0.121,0.164,0.269,0.164,0.445
		s-0.055,0.322-0.164,0.439C454.925,6.209,454.765,6.268,454.554,6.268 M386.875,6.268c-0.211,0-0.37-0.059-0.478-0.176
		c-0.107-0.117-0.161-0.264-0.161-0.439s0.054-0.324,0.161-0.445c0.107-0.121,0.267-0.182,0.478-0.182
		c0.211,0,0.371,0.061,0.48,0.182c0.109,0.121,0.164,0.269,0.164,0.445s-0.055,0.322-0.164,0.439
		C387.246,6.209,387.086,6.268,386.875,6.268 M354.526,6.268c-0.211,0-0.37-0.059-0.478-0.176c-0.108-0.117-0.161-0.264-0.161-0.439
		s0.054-0.324,0.161-0.445c0.107-0.121,0.267-0.182,0.478-0.182c0.211,0,0.371,0.061,0.48,0.182
		c0.109,0.121,0.164,0.269,0.164,0.445s-0.055,0.322-0.164,0.439C354.897,6.209,354.737,6.268,354.526,6.268"/>
	<path fill="#000000" d="M335.97,6.268c-0.211,0-0.37-0.059-0.478-0.176c-0.107-0.117-0.161-0.264-0.161-0.439
		s0.054-0.324,0.161-0.445c0.107-0.121,0.267-0.182,0.478-0.182c0.211,0,0.371,0.061,0.48,0.182
		c0.109,0.121,0.164,0.269,0.164,0.445s-0.055,0.322-0.164,0.439C336.341,6.209,336.181,6.268,335.97,6.268 M177.41,6.268
		c-0.211,0-0.37-0.059-0.477-0.176c-0.108-0.117-0.161-0.264-0.161-0.439s0.054-0.324,0.161-0.445
		c0.107-0.121,0.267-0.182,0.477-0.182c0.211,0,0.371,0.061,0.48,0.182c0.109,0.121,0.164,0.269,0.164,0.445S178,5.975,177.89,6.092
		C177.781,6.209,177.621,6.268,177.41,6.268"/>
	<path fill="#000000" d="M385.082,32.17c-0.457,0-0.904-0.098-1.342-0.293c-0.438-0.195-0.772-0.463-1.002-0.803l0.563-0.65
		c0.465,0.574,1.033,0.861,1.705,0.861c0.527,0,0.938-0.149,1.233-0.445s0.442-0.715,0.442-1.254v-0.545
		c-0.434,0.5-1.025,0.75-1.775,0.75c-0.742,0-1.343-0.299-1.802-0.897c-0.459-0.598-0.688-1.412-0.688-2.443
		c0-0.988,0.229-1.774,0.686-2.358c0.457-0.584,1.062-0.876,1.816-0.876c0.773,0,1.377,0.273,1.811,0.82l0.053-0.703h0.99v6.187
		c0,0.82-0.243,1.467-0.73,1.939C386.555,31.934,385.902,32.17,385.082,32.17 M385.187,24.137c-0.527,0-0.94,0.205-1.236,0.615
		c-0.297,0.41-0.445,1.018-0.445,1.822c0,0.715,0.146,1.276,0.439,1.685c0.293,0.408,0.703,0.612,1.23,0.612
		c0.684,0,1.186-0.311,1.506-0.932v-2.895C386.349,24.44,385.851,24.137,385.187,24.137 M230.717,32.17
		c-0.457,0-0.904-0.098-1.342-0.293c-0.438-0.195-0.772-0.463-1.002-0.803l0.562-0.65c0.465,0.574,1.033,0.861,1.705,0.861
		c0.527,0,0.938-0.149,1.233-0.445c0.295-0.297,0.442-0.715,0.442-1.254v-0.545c-0.434,0.5-1.025,0.75-1.775,0.75
		c-0.742,0-1.343-0.299-1.802-0.897c-0.459-0.598-0.688-1.412-0.688-2.443c0-0.988,0.229-1.774,0.685-2.358
		c0.457-0.584,1.062-0.876,1.816-0.876c0.774,0,1.377,0.273,1.811,0.82l0.053-0.703h0.99v6.187c0,0.82-0.243,1.467-0.73,1.939
		C232.191,31.934,231.538,32.17,230.717,32.17 M230.823,24.137c-0.527,0-0.939,0.205-1.236,0.615s-0.445,1.018-0.445,1.822
		c0,0.715,0.146,1.276,0.439,1.685c0.293,0.408,0.703,0.612,1.23,0.612c0.684,0,1.186-0.311,1.506-0.932v-2.895
		C231.985,24.44,231.487,24.137,230.823,24.137 M366.007,32.111h-1.084v-8.777h0.99l0.053,0.703c0.441-0.547,1.055-0.82,1.84-0.82
		c0.762,0,1.364,0.287,1.808,0.861c0.443,0.574,0.665,1.373,0.665,2.396v0.1c0,0.965-0.221,1.742-0.662,2.332
		c-0.441,0.59-1.039,0.885-1.793,0.885c-0.77,0-1.375-0.244-1.816-0.732V32.111 M367.483,24.137c-0.656,0-1.148,0.291-1.477,0.873
		v3.029c0.324,0.578,0.82,0.867,1.488,0.867c0.519,0,0.932-0.206,1.239-0.618c0.307-0.412,0.46-1.024,0.46-1.837
		c0-0.715-0.152-1.279-0.457-1.693C368.433,24.344,368.015,24.137,367.483,24.137 M275.005,32.111h-1.084v-3.023
		c-0.437,0.469-1.019,0.703-1.746,0.703c-0.766,0-1.376-0.298-1.831-0.894c-0.455-0.596-0.683-1.386-0.683-2.37v-0.076
		c0-0.996,0.229-1.784,0.685-2.364c0.457-0.58,1.07-0.87,1.84-0.87c0.75,0,1.342,0.252,1.775,0.756l0.047-0.639h0.996V32.111
		 M272.456,24.107c-0.524,0-0.94,0.208-1.248,0.624c-0.309,0.416-0.463,1.03-0.463,1.843c0,0.727,0.153,1.297,0.46,1.711
		c0.307,0.414,0.72,0.621,1.239,0.621c0.645,0,1.137-0.285,1.477-0.855v-3.105C273.577,24.387,273.089,24.107,272.456,24.107
		 M211.642,32.111h-1.084v-8.777h0.99l0.053,0.703c0.441-0.547,1.055-0.82,1.84-0.82c0.762,0,1.364,0.287,1.808,0.861
		c0.443,0.574,0.665,1.373,0.665,2.396v0.1c0,0.965-0.221,1.742-0.662,2.332c-0.441,0.59-1.039,0.885-1.793,0.885
		c-0.77,0-1.375-0.244-1.816-0.732V32.111 M213.119,24.137c-0.656,0-1.148,0.291-1.477,0.873v3.029
		c0.324,0.578,0.82,0.867,1.488,0.867c0.52,0,0.933-0.206,1.239-0.618c0.307-0.412,0.46-1.024,0.46-1.837
		c0-0.715-0.152-1.279-0.457-1.693C214.068,24.344,213.65,24.137,213.119,24.137 M15.742,32.111h-1.084v-3.023
		c-0.438,0.469-1.02,0.703-1.746,0.703c-0.766,0-1.376-0.298-1.831-0.894c-0.455-0.596-0.683-1.386-0.683-2.37v-0.076
		c0-0.996,0.229-1.784,0.685-2.364c0.457-0.58,1.07-0.87,1.84-0.87c0.75,0,1.342,0.252,1.775,0.756l0.047-0.639h0.996V32.111
		 M13.193,24.107c-0.524,0-0.939,0.208-1.248,0.624c-0.309,0.416-0.463,1.03-0.463,1.843c0,0.727,0.153,1.297,0.46,1.711
		c0.307,0.414,0.72,0.621,1.239,0.621c0.644,0,1.137-0.285,1.477-0.855v-3.105C14.314,24.387,13.826,24.107,13.193,24.107
		 M428.839,31.373l-0.615-0.422c0.367-0.512,0.559-1.039,0.574-1.582v-0.978h1.06v0.849c0,0.395-0.097,0.789-0.29,1.184
		C429.376,30.818,429.132,31.135,428.839,31.373 M359.441,31.373l-0.615-0.422c0.367-0.512,0.559-1.039,0.574-1.582v-0.978h1.06
		v0.849c0,0.395-0.097,0.789-0.29,1.184C359.978,30.818,359.734,31.135,359.441,31.373 M330.823,31.373l-0.615-0.422
		c0.367-0.512,0.559-1.039,0.574-1.582v-0.978h1.06v0.849c0,0.395-0.097,0.789-0.29,1.184
		C331.359,30.818,331.116,31.135,330.823,31.373 M205.077,31.373l-0.615-0.422c0.367-0.512,0.559-1.039,0.574-1.582v-0.978h1.061
		v0.849c0,0.395-0.097,0.789-0.29,1.184C205.613,30.818,205.37,31.135,205.077,31.373 M155.282,31.373l-0.615-0.422
		c0.367-0.512,0.559-1.039,0.574-1.582v-0.978h1.061v0.849c0,0.395-0.097,0.789-0.29,1.184
		C155.818,30.818,155.575,31.135,155.282,31.373 M481.927,29.791c-0.859,0-1.556-0.299-2.089-0.897
		c-0.533-0.598-0.8-1.389-0.8-2.373v-0.076c0-0.621,0.122-1.18,0.366-1.676c0.244-0.496,0.584-0.879,1.019-1.148
		c0.436-0.269,0.933-0.404,1.491-0.404c0.863,0,1.561,0.299,2.095,0.896c0.533,0.598,0.8,1.393,0.8,2.385v0.076
		c0,0.617-0.118,1.171-0.354,1.661c-0.236,0.49-0.574,0.872-1.014,1.145C483.002,29.654,482.497,29.791,481.927,29.791
		 M481.915,24.107c-0.535,0-0.967,0.213-1.295,0.639c-0.328,0.426-0.492,1.035-0.492,1.828c0,0.703,0.163,1.268,0.489,1.693
		c0.326,0.426,0.763,0.639,1.31,0.639c0.551,0,0.988-0.216,1.313-0.647c0.324-0.431,0.486-1.036,0.486-1.813
		c0-0.695-0.165-1.259-0.495-1.69S482.462,24.107,481.915,24.107 M468.324,29.791c-0.859,0-1.559-0.282-2.098-0.847
		c-0.539-0.564-0.809-1.319-0.809-2.265V26.48c0-0.629,0.12-1.19,0.36-1.685c0.24-0.494,0.576-0.881,1.008-1.16
		c0.432-0.279,0.899-0.419,1.403-0.419c0.824,0,1.465,0.272,1.922,0.814c0.457,0.543,0.685,1.32,0.685,2.332v0.451h-4.295
		c0.016,0.625,0.198,1.13,0.548,1.515c0.35,0.385,0.794,0.577,1.333,0.577c0.383,0,0.707-0.078,0.973-0.234
		c0.266-0.156,0.498-0.363,0.697-0.621l0.662,0.516C470.183,29.383,469.386,29.791,468.324,29.791 M468.189,24.107
		c-0.437,0-0.805,0.159-1.102,0.478c-0.297,0.318-0.48,0.765-0.551,1.339h3.176v-0.082c-0.031-0.551-0.18-0.978-0.445-1.28
		C469.001,24.259,468.642,24.107,468.189,24.107 M457.829,29.791c-0.508,0-0.957-0.09-1.348-0.27
		c-0.391-0.18-0.696-0.431-0.917-0.753c-0.221-0.322-0.331-0.671-0.331-1.046h1.084c0.02,0.363,0.165,0.651,0.437,0.864
		c0.272,0.213,0.63,0.319,1.075,0.319c0.41,0,0.739-0.083,0.987-0.249c0.248-0.166,0.372-0.388,0.372-0.665
		c0-0.293-0.11-0.52-0.331-0.683c-0.221-0.162-0.605-0.302-1.154-0.419c-0.549-0.117-0.984-0.258-1.307-0.422
		c-0.322-0.164-0.561-0.359-0.715-0.586c-0.154-0.226-0.232-0.496-0.232-0.809c0-0.52,0.22-0.959,0.659-1.318
		c0.439-0.359,1.001-0.539,1.685-0.539c0.719,0,1.302,0.186,1.749,0.557c0.447,0.371,0.671,0.846,0.671,1.424h-1.09
		c0-0.297-0.126-0.553-0.378-0.768c-0.252-0.215-0.569-0.322-0.952-0.322c-0.395,0-0.703,0.086-0.926,0.258
		s-0.334,0.396-0.334,0.674c0,0.262,0.103,0.459,0.311,0.592c0.207,0.133,0.581,0.26,1.122,0.381
		c0.541,0.121,0.979,0.266,1.315,0.434c0.336,0.168,0.585,0.37,0.747,0.606c0.162,0.236,0.243,0.524,0.243,0.864
		c0,0.566-0.227,1.021-0.68,1.362C459.139,29.62,458.551,29.791,457.829,29.791 M444.292,29.791c-0.625,0-1.138-0.177-1.538-0.53
		c-0.4-0.353-0.601-0.802-0.601-1.345c0-0.66,0.251-1.173,0.753-1.538c0.502-0.365,1.208-0.548,2.118-0.548h1.055v-0.498
		c0-0.379-0.113-0.681-0.34-0.905c-0.227-0.225-0.561-0.337-1.002-0.337c-0.387,0-0.711,0.098-0.973,0.293
		c-0.262,0.195-0.393,0.432-0.393,0.709h-1.09c0-0.316,0.112-0.622,0.337-0.917c0.225-0.295,0.529-0.528,0.914-0.7
		c0.385-0.172,0.808-0.258,1.269-0.258c0.73,0,1.303,0.183,1.717,0.548c0.414,0.365,0.629,0.868,0.645,1.509v2.918
		c0,0.582,0.074,1.045,0.223,1.389v0.094h-1.137c-0.063-0.125-0.113-0.348-0.152-0.668
		C445.593,29.529,444.991,29.791,444.292,29.791 M445.229,26.598c-1.328,0-1.992,0.389-1.992,1.166c0,0.34,0.113,0.606,0.34,0.797
		c0.226,0.191,0.517,0.287,0.873,0.287c0.34,0,0.662-0.088,0.967-0.264c0.305-0.176,0.525-0.404,0.662-0.686v-1.301H445.229
		 M436.172,29.791c-0.484,0-0.85-0.146-1.096-0.439c-0.246-0.293-0.369-0.709-0.369-1.248v-3.932h-1.154v-0.838h1.154v-1.535h1.084
		v1.535h1.184v0.838h-1.184v3.937c0,0.254,0.053,0.445,0.158,0.572c0.105,0.127,0.285,0.191,0.539,0.191
		c0.125,0,0.297-0.024,0.516-0.07v0.874C436.719,29.752,436.442,29.791,436.172,29.791 M417.78,29.791
		c-0.859,0-1.556-0.299-2.089-0.897c-0.533-0.598-0.8-1.389-0.8-2.373v-0.076c0-0.621,0.122-1.18,0.366-1.676
		c0.244-0.496,0.584-0.879,1.02-1.148c0.435-0.269,0.932-0.404,1.491-0.404c0.863,0,1.562,0.299,2.095,0.896
		c0.533,0.598,0.8,1.393,0.8,2.385v0.076c0,0.617-0.118,1.171-0.354,1.661c-0.236,0.49-0.574,0.872-1.014,1.145
		C418.855,29.654,418.35,29.791,417.78,29.791 M417.768,24.107c-0.535,0-0.967,0.213-1.295,0.639
		c-0.328,0.426-0.492,1.035-0.492,1.828c0,0.703,0.163,1.268,0.489,1.693c0.326,0.426,0.763,0.639,1.31,0.639
		c0.551,0,0.988-0.216,1.312-0.647c0.324-0.431,0.486-1.036,0.486-1.813c0-0.695-0.165-1.259-0.495-1.69
		C418.753,24.323,418.315,24.107,417.768,24.107 M408.425,29.791c-0.508,0-0.957-0.09-1.348-0.27
		c-0.391-0.18-0.696-0.431-0.917-0.753c-0.221-0.322-0.331-0.671-0.331-1.046h1.084c0.019,0.363,0.165,0.651,0.436,0.864
		c0.272,0.213,0.63,0.319,1.075,0.319c0.41,0,0.739-0.083,0.987-0.249c0.248-0.166,0.372-0.388,0.372-0.665
		c0-0.293-0.11-0.52-0.331-0.683c-0.221-0.162-0.606-0.302-1.154-0.419c-0.549-0.117-0.984-0.258-1.307-0.422
		c-0.322-0.164-0.561-0.359-0.715-0.586c-0.154-0.226-0.232-0.496-0.232-0.809c0-0.52,0.22-0.959,0.659-1.318
		c0.439-0.359,1.001-0.539,1.685-0.539c0.719,0,1.302,0.186,1.749,0.557c0.447,0.371,0.671,0.846,0.671,1.424h-1.09
		c0-0.297-0.126-0.553-0.378-0.768c-0.252-0.215-0.569-0.322-0.952-0.322c-0.395,0-0.703,0.086-0.926,0.258
		c-0.223,0.172-0.334,0.396-0.334,0.674c0,0.262,0.103,0.459,0.311,0.592c0.207,0.133,0.581,0.26,1.122,0.381
		c0.541,0.121,0.979,0.266,1.315,0.434c0.336,0.168,0.585,0.37,0.747,0.606c0.162,0.236,0.243,0.524,0.243,0.864
		c0,0.566-0.227,1.021-0.68,1.362C409.736,29.62,409.148,29.791,408.425,29.791 M402.216,29.791c-0.508,0-0.957-0.09-1.348-0.27
		c-0.391-0.18-0.696-0.431-0.917-0.753c-0.221-0.322-0.331-0.671-0.331-1.046h1.084c0.019,0.363,0.165,0.651,0.437,0.864
		c0.271,0.213,0.63,0.319,1.075,0.319c0.41,0,0.739-0.083,0.987-0.249c0.248-0.166,0.372-0.388,0.372-0.665
		c0-0.293-0.11-0.52-0.331-0.683c-0.221-0.162-0.605-0.302-1.154-0.419c-0.549-0.117-0.984-0.258-1.307-0.422
		c-0.322-0.164-0.561-0.359-0.715-0.586c-0.154-0.226-0.231-0.496-0.231-0.809c0-0.52,0.22-0.959,0.659-1.318
		c0.439-0.359,1.001-0.539,1.685-0.539c0.719,0,1.302,0.186,1.749,0.557c0.447,0.371,0.671,0.846,0.671,1.424h-1.09
		c0-0.297-0.126-0.553-0.378-0.768c-0.252-0.215-0.569-0.322-0.952-0.322c-0.395,0-0.703,0.086-0.926,0.258
		c-0.223,0.172-0.334,0.396-0.334,0.674c0,0.262,0.103,0.459,0.31,0.592c0.207,0.133,0.581,0.26,1.122,0.381
		c0.541,0.121,0.979,0.266,1.315,0.434c0.336,0.168,0.585,0.37,0.747,0.606c0.162,0.236,0.243,0.524,0.243,0.864
		c0,0.566-0.227,1.021-0.68,1.362C403.526,29.62,402.939,29.791,402.216,29.791 M396.143,29.791c-0.859,0-1.559-0.282-2.098-0.847
		c-0.539-0.564-0.809-1.319-0.809-2.265V26.48c0-0.629,0.12-1.19,0.36-1.685c0.24-0.494,0.576-0.881,1.008-1.16
		c0.432-0.279,0.899-0.419,1.403-0.419c0.824,0,1.465,0.272,1.922,0.814c0.457,0.543,0.685,1.32,0.685,2.332v0.451h-4.295
		c0.016,0.625,0.198,1.13,0.548,1.515c0.35,0.385,0.794,0.577,1.333,0.577c0.383,0,0.707-0.078,0.973-0.234
		c0.266-0.156,0.498-0.363,0.697-0.621l0.662,0.516C398.002,29.383,397.205,29.791,396.143,29.791 M396.008,24.107
		c-0.438,0-0.805,0.159-1.102,0.478c-0.297,0.318-0.48,0.765-0.551,1.339h3.176v-0.082c-0.031-0.551-0.18-0.978-0.445-1.28
		C396.821,24.259,396.461,24.107,396.008,24.107 M378.383,29.791c-0.859,0-1.556-0.299-2.089-0.897
		c-0.533-0.598-0.8-1.389-0.8-2.373v-0.076c0-0.621,0.122-1.18,0.366-1.676c0.244-0.496,0.584-0.879,1.019-1.148
		c0.436-0.269,0.933-0.404,1.491-0.404c0.863,0,1.562,0.299,2.095,0.896c0.533,0.598,0.8,1.393,0.8,2.385v0.076
		c0,0.617-0.118,1.171-0.354,1.661c-0.236,0.49-0.574,0.872-1.014,1.145C379.459,29.654,378.954,29.791,378.383,29.791
		 M378.372,24.107c-0.535,0-0.967,0.213-1.295,0.639c-0.328,0.426-0.492,1.035-0.492,1.828c0,0.703,0.163,1.268,0.489,1.693
		c0.326,0.426,0.763,0.639,1.31,0.639c0.551,0,0.988-0.216,1.313-0.647c0.324-0.431,0.486-1.036,0.486-1.813
		c0-0.695-0.165-1.259-0.495-1.69C379.357,24.323,378.918,24.107,378.372,24.107 M355.476,29.791c-0.508,0-0.957-0.09-1.348-0.27
		c-0.391-0.18-0.696-0.431-0.917-0.753c-0.221-0.322-0.331-0.671-0.331-1.046h1.084c0.019,0.363,0.165,0.651,0.437,0.864
		c0.271,0.213,0.63,0.319,1.075,0.319c0.41,0,0.739-0.083,0.987-0.249c0.248-0.166,0.372-0.388,0.372-0.665
		c0-0.293-0.11-0.52-0.331-0.683c-0.221-0.162-0.605-0.302-1.154-0.419c-0.549-0.117-0.984-0.258-1.307-0.422
		c-0.322-0.164-0.561-0.359-0.715-0.586c-0.154-0.226-0.231-0.496-0.231-0.809c0-0.52,0.22-0.959,0.659-1.318
		c0.439-0.359,1.001-0.539,1.685-0.539c0.719,0,1.302,0.186,1.749,0.557c0.447,0.371,0.671,0.846,0.671,1.424h-1.09
		c0-0.297-0.126-0.553-0.378-0.768c-0.252-0.215-0.569-0.322-0.952-0.322c-0.395,0-0.703,0.086-0.926,0.258
		c-0.223,0.172-0.334,0.396-0.334,0.674c0,0.262,0.103,0.459,0.31,0.592c0.207,0.133,0.581,0.26,1.122,0.381
		c0.541,0.121,0.979,0.266,1.315,0.434c0.336,0.168,0.585,0.37,0.747,0.606c0.162,0.236,0.243,0.524,0.243,0.864
		c0,0.566-0.227,1.021-0.68,1.362C356.786,29.62,356.199,29.791,355.476,29.791 M349.403,29.791c-0.859,0-1.558-0.282-2.098-0.847
		c-0.539-0.564-0.809-1.319-0.809-2.265V26.48c0-0.629,0.12-1.19,0.36-1.685c0.24-0.494,0.576-0.881,1.008-1.16
		c0.431-0.279,0.899-0.419,1.403-0.419c0.824,0,1.465,0.272,1.922,0.814c0.457,0.543,0.685,1.32,0.685,2.332v0.451h-4.295
		c0.016,0.625,0.198,1.13,0.548,1.515c0.35,0.385,0.794,0.577,1.333,0.577c0.383,0,0.707-0.078,0.973-0.234
		c0.266-0.156,0.498-0.363,0.697-0.621l0.662,0.516C351.262,29.383,350.465,29.791,349.403,29.791 M349.268,24.107
		c-0.438,0-0.805,0.159-1.102,0.478c-0.297,0.318-0.48,0.765-0.551,1.339h3.176v-0.082c-0.031-0.551-0.18-0.978-0.445-1.28
		C350.081,24.259,349.721,24.107,349.268,24.107 M342.94,29.791c-0.859,0-1.558-0.282-2.098-0.847
		c-0.539-0.564-0.809-1.319-0.809-2.265V26.48c0-0.629,0.12-1.19,0.36-1.685c0.24-0.494,0.576-0.881,1.008-1.16
		c0.431-0.279,0.899-0.419,1.403-0.419c0.824,0,1.465,0.272,1.922,0.814c0.457,0.543,0.685,1.32,0.685,2.332v0.451h-4.295
		c0.016,0.625,0.198,1.13,0.548,1.515c0.35,0.385,0.794,0.577,1.333,0.577c0.383,0,0.707-0.078,0.973-0.234
		c0.266-0.156,0.498-0.363,0.697-0.621l0.662,0.516C344.799,29.383,344.002,29.791,342.94,29.791 M342.805,24.107
		c-0.438,0-0.805,0.159-1.102,0.478c-0.297,0.318-0.48,0.765-0.551,1.339h3.176v-0.082c-0.031-0.551-0.18-0.978-0.445-1.28
		C343.618,24.259,343.258,24.107,342.805,24.107 M326.857,29.791c-0.508,0-0.957-0.09-1.348-0.27
		c-0.391-0.18-0.696-0.431-0.917-0.753c-0.221-0.322-0.331-0.671-0.331-1.046h1.084c0.019,0.363,0.165,0.651,0.437,0.864
		c0.271,0.213,0.63,0.319,1.075,0.319c0.41,0,0.739-0.083,0.987-0.249c0.248-0.166,0.372-0.388,0.372-0.665
		c0-0.293-0.11-0.52-0.331-0.683c-0.221-0.162-0.605-0.302-1.154-0.419c-0.549-0.117-0.984-0.258-1.307-0.422
		c-0.322-0.164-0.561-0.359-0.715-0.586c-0.154-0.226-0.231-0.496-0.231-0.809c0-0.52,0.22-0.959,0.659-1.318
		c0.439-0.359,1.001-0.539,1.685-0.539c0.719,0,1.302,0.186,1.749,0.557c0.447,0.371,0.671,0.846,0.671,1.424h-1.09
		c0-0.297-0.126-0.553-0.378-0.768c-0.252-0.215-0.569-0.322-0.952-0.322c-0.395,0-0.703,0.086-0.926,0.258
		c-0.223,0.172-0.334,0.396-0.334,0.674c0,0.262,0.103,0.459,0.31,0.592c0.207,0.133,0.581,0.26,1.122,0.381
		c0.541,0.121,0.979,0.266,1.315,0.434c0.336,0.168,0.585,0.37,0.747,0.606c0.162,0.236,0.243,0.524,0.243,0.864
		c0,0.566-0.227,1.021-0.68,1.362C328.167,29.62,327.58,29.791,326.857,29.791 M322.465,29.791c-0.484,0-0.85-0.146-1.096-0.439
		c-0.246-0.293-0.369-0.709-0.369-1.248v-3.932h-1.154v-0.838H321v-1.535h1.084v1.535h1.184v0.838h-1.184v3.937
		c0,0.254,0.053,0.445,0.158,0.572c0.106,0.127,0.285,0.191,0.539,0.191c0.125,0,0.297-0.024,0.516-0.07v0.874
		C323.012,29.752,322.735,29.791,322.465,29.791 M310.061,29.791c-0.859,0-1.559-0.282-2.098-0.847
		c-0.539-0.564-0.809-1.319-0.809-2.265V26.48c0-0.629,0.12-1.19,0.36-1.685c0.24-0.494,0.576-0.881,1.008-1.16
		c0.432-0.279,0.9-0.419,1.403-0.419c0.824,0,1.465,0.272,1.922,0.814c0.457,0.543,0.686,1.32,0.686,2.332v0.451h-4.295
		c0.016,0.625,0.198,1.13,0.548,1.515c0.35,0.385,0.794,0.577,1.333,0.577c0.383,0,0.707-0.078,0.973-0.234
		c0.266-0.156,0.498-0.363,0.697-0.621l0.662,0.516C311.92,29.383,311.123,29.791,310.061,29.791 M309.926,24.107
		c-0.437,0-0.805,0.159-1.102,0.478c-0.297,0.318-0.48,0.765-0.551,1.339h3.176v-0.082c-0.031-0.551-0.18-0.978-0.445-1.28
		C310.738,24.259,310.379,24.107,309.926,24.107 M293.004,29.791c-0.859,0-1.559-0.282-2.098-0.847
		c-0.539-0.564-0.809-1.319-0.809-2.265V26.48c0-0.629,0.12-1.19,0.36-1.685c0.24-0.494,0.576-0.881,1.008-1.16
		c0.432-0.279,0.9-0.419,1.403-0.419c0.824,0,1.465,0.272,1.922,0.814c0.457,0.543,0.686,1.32,0.686,2.332v0.451h-4.295
		c0.016,0.625,0.198,1.13,0.548,1.515c0.35,0.385,0.794,0.577,1.333,0.577c0.383,0,0.707-0.078,0.973-0.234
		c0.266-0.156,0.498-0.363,0.697-0.621l0.662,0.516C294.864,29.383,294.067,29.791,293.004,29.791 M292.87,24.107
		c-0.437,0-0.805,0.159-1.102,0.478c-0.297,0.318-0.48,0.765-0.551,1.339h3.176v-0.082c-0.031-0.551-0.18-0.978-0.445-1.28
		C293.682,24.259,293.323,24.107,292.87,24.107 M278.818,29.791c-0.676,0-1.19-0.196-1.544-0.589
		c-0.353-0.393-0.532-0.974-0.536-1.743v-4.125h1.084v4.096c0,0.961,0.391,1.441,1.172,1.441c0.828,0,1.379-0.309,1.652-0.926
		v-4.611h1.084v6.34h-1.031l-0.023-0.627C280.254,29.543,279.635,29.791,278.818,29.791 M266.072,29.791
		c-0.859,0-1.559-0.282-2.098-0.847c-0.539-0.564-0.809-1.319-0.809-2.265V26.48c0-0.629,0.12-1.19,0.36-1.685
		c0.24-0.494,0.576-0.881,1.008-1.16c0.432-0.279,0.9-0.419,1.403-0.419c0.824,0,1.465,0.272,1.922,0.814
		c0.457,0.543,0.686,1.32,0.686,2.332v0.451h-4.295c0.016,0.625,0.198,1.13,0.548,1.515c0.35,0.385,0.794,0.577,1.333,0.577
		c0.383,0,0.707-0.078,0.973-0.234c0.266-0.156,0.498-0.363,0.697-0.621l0.662,0.516C267.931,29.383,267.134,29.791,266.072,29.791
		 M265.937,24.107c-0.437,0-0.805,0.159-1.102,0.478c-0.297,0.318-0.48,0.765-0.551,1.339h3.176v-0.082
		c-0.031-0.551-0.18-0.978-0.445-1.28C266.75,24.259,266.39,24.107,265.937,24.107 M241.189,29.791c-0.625,0-1.138-0.177-1.538-0.53
		c-0.4-0.353-0.601-0.802-0.601-1.345c0-0.66,0.251-1.173,0.753-1.538c0.502-0.365,1.208-0.548,2.118-0.548h1.055v-0.498
		c0-0.379-0.113-0.681-0.34-0.905c-0.227-0.225-0.561-0.337-1.002-0.337c-0.387,0-0.711,0.098-0.973,0.293
		c-0.262,0.195-0.393,0.432-0.393,0.709h-1.09c0-0.316,0.112-0.622,0.337-0.917c0.225-0.295,0.529-0.528,0.914-0.7
		c0.385-0.172,0.808-0.258,1.269-0.258c0.73,0,1.303,0.183,1.717,0.548c0.414,0.365,0.629,0.868,0.644,1.509v2.918
		c0,0.582,0.074,1.045,0.223,1.389v0.094h-1.137c-0.063-0.125-0.113-0.348-0.152-0.668C242.49,29.529,241.888,29.791,241.189,29.791
		 M242.126,26.598c-1.328,0-1.992,0.389-1.992,1.166c0,0.34,0.113,0.606,0.34,0.797c0.226,0.191,0.517,0.287,0.873,0.287
		c0.34,0,0.662-0.088,0.967-0.264c0.305-0.176,0.525-0.404,0.662-0.686v-1.301H242.126 M224.019,29.791
		c-0.859,0-1.556-0.299-2.089-0.897c-0.533-0.598-0.8-1.389-0.8-2.373v-0.076c0-0.621,0.122-1.18,0.366-1.676
		c0.244-0.496,0.584-0.879,1.019-1.148c0.436-0.269,0.933-0.404,1.491-0.404c0.863,0,1.561,0.299,2.095,0.896
		c0.533,0.598,0.8,1.393,0.8,2.385v0.076c0,0.617-0.118,1.171-0.355,1.661c-0.236,0.49-0.574,0.872-1.014,1.145
		C225.094,29.654,224.589,29.791,224.019,29.791 M224.007,24.107c-0.535,0-0.967,0.213-1.295,0.639
		c-0.328,0.426-0.492,1.035-0.492,1.828c0,0.703,0.163,1.268,0.489,1.693c0.326,0.426,0.763,0.639,1.31,0.639
		c0.551,0,0.988-0.216,1.313-0.647c0.324-0.431,0.486-1.036,0.486-1.813c0-0.695-0.165-1.259-0.495-1.69
		C224.993,24.323,224.554,24.107,224.007,24.107 M201.112,29.791c-0.508,0-0.957-0.09-1.348-0.27
		c-0.391-0.18-0.696-0.431-0.917-0.753c-0.221-0.322-0.331-0.671-0.331-1.046h1.084c0.019,0.363,0.165,0.651,0.436,0.864
		c0.272,0.213,0.63,0.319,1.075,0.319c0.41,0,0.739-0.083,0.987-0.249c0.248-0.166,0.372-0.388,0.372-0.665
		c0-0.293-0.11-0.52-0.331-0.683c-0.221-0.162-0.606-0.302-1.154-0.419s-0.984-0.258-1.307-0.422
		c-0.322-0.164-0.561-0.359-0.715-0.586c-0.154-0.226-0.232-0.496-0.232-0.809c0-0.52,0.22-0.959,0.659-1.318
		c0.439-0.359,1.001-0.539,1.685-0.539c0.719,0,1.302,0.186,1.749,0.557c0.447,0.371,0.671,0.846,0.671,1.424h-1.09
		c0-0.297-0.126-0.553-0.378-0.768c-0.252-0.215-0.569-0.322-0.952-0.322c-0.395,0-0.703,0.086-0.926,0.258
		c-0.223,0.172-0.334,0.396-0.334,0.674c0,0.262,0.104,0.459,0.311,0.592c0.207,0.133,0.581,0.26,1.122,0.381
		c0.541,0.121,0.979,0.266,1.315,0.434c0.336,0.168,0.585,0.37,0.747,0.606c0.162,0.236,0.243,0.524,0.243,0.864
		c0,0.566-0.227,1.021-0.68,1.362C202.422,29.62,201.834,29.791,201.112,29.791 M194.254,29.791c-0.734,0-1.333-0.301-1.796-0.902
		c-0.463-0.601-0.694-1.387-0.694-2.355v-0.082c0-0.973,0.23-1.755,0.691-2.347c0.461-0.592,1.064-0.888,1.811-0.888
		c0.742,0,1.33,0.254,1.764,0.762v-3.305h1.084v9h-0.996l-0.053-0.68C195.631,29.525,195.028,29.791,194.254,29.791 M194.535,24.137
		c-0.531,0-0.945,0.205-1.242,0.615c-0.297,0.41-0.445,1.018-0.445,1.822c0,0.719,0.148,1.281,0.445,1.688
		c0.297,0.406,0.707,0.609,1.23,0.609c0.687,0,1.189-0.309,1.506-0.926v-2.912C195.705,24.436,195.207,24.137,194.535,24.137
		 M183.348,29.791c-0.625,0-1.138-0.177-1.538-0.53c-0.4-0.353-0.601-0.802-0.601-1.345c0-0.66,0.251-1.173,0.753-1.538
		c0.502-0.365,1.208-0.548,2.118-0.548h1.055v-0.498c0-0.379-0.113-0.681-0.34-0.905c-0.227-0.225-0.561-0.337-1.002-0.337
		c-0.387,0-0.711,0.098-0.973,0.293c-0.262,0.195-0.393,0.432-0.393,0.709h-1.09c0-0.316,0.112-0.622,0.337-0.917
		c0.225-0.295,0.529-0.528,0.914-0.7c0.385-0.172,0.808-0.258,1.269-0.258c0.73,0,1.303,0.183,1.717,0.548
		c0.414,0.365,0.629,0.868,0.645,1.509v2.918c0,0.582,0.074,1.045,0.223,1.389v0.094h-1.137c-0.063-0.125-0.113-0.348-0.152-0.668
		C184.648,29.529,184.047,29.791,183.348,29.791 M184.285,26.598c-1.328,0-1.992,0.389-1.992,1.166c0,0.34,0.113,0.606,0.34,0.797
		c0.227,0.191,0.518,0.287,0.873,0.287c0.34,0,0.662-0.088,0.967-0.264c0.305-0.176,0.525-0.404,0.662-0.686v-1.301H184.285
		 M177.575,29.791c-0.863,0-1.55-0.288-2.06-0.864c-0.51-0.576-0.765-1.364-0.765-2.364v-0.182c0-0.617,0.113-1.166,0.34-1.646
		c0.226-0.48,0.552-0.854,0.976-1.119c0.424-0.266,0.925-0.398,1.503-0.398c0.711,0,1.302,0.213,1.772,0.639
		c0.471,0.426,0.722,0.979,0.753,1.658h-1.025c-0.031-0.41-0.187-0.747-0.466-1.011c-0.279-0.264-0.624-0.396-1.034-0.396
		c-0.551,0-0.978,0.198-1.28,0.595c-0.303,0.397-0.454,0.97-0.454,1.72v0.205c0,0.731,0.15,1.293,0.451,1.688
		c0.301,0.395,0.73,0.592,1.289,0.592c0.387,0,0.725-0.117,1.014-0.352c0.289-0.234,0.449-0.527,0.48-0.879h1.025
		c-0.02,0.363-0.145,0.709-0.375,1.037c-0.23,0.328-0.538,0.59-0.923,0.785C178.412,29.693,178.005,29.791,177.575,29.791
		 M153.087,29.791c-0.484,0-0.85-0.146-1.096-0.439c-0.246-0.293-0.369-0.709-0.369-1.248v-3.932h-1.154v-0.838h1.154v-1.535h1.084
		v1.535h1.184v0.838h-1.184v3.937c0,0.254,0.053,0.445,0.158,0.572c0.106,0.127,0.285,0.191,0.539,0.191
		c0.125,0,0.297-0.024,0.516-0.07v0.874C153.634,29.752,153.356,29.791,153.087,29.791 M140.682,29.791
		c-0.859,0-1.559-0.282-2.098-0.847c-0.539-0.564-0.809-1.319-0.809-2.265V26.48c0-0.629,0.12-1.19,0.36-1.685
		c0.24-0.494,0.576-0.881,1.008-1.16c0.432-0.279,0.899-0.419,1.403-0.419c0.824,0,1.465,0.272,1.922,0.814
		c0.457,0.543,0.686,1.32,0.686,2.332v0.451h-4.295c0.016,0.625,0.198,1.13,0.548,1.515c0.35,0.385,0.794,0.577,1.333,0.577
		c0.383,0,0.707-0.078,0.973-0.234c0.266-0.156,0.498-0.363,0.697-0.621l0.662,0.516C142.542,29.383,141.745,29.791,140.682,29.791
		 M140.548,24.107c-0.437,0-0.805,0.159-1.102,0.478c-0.297,0.318-0.48,0.765-0.551,1.339h3.176v-0.082
		c-0.031-0.551-0.18-0.978-0.445-1.28C141.36,24.259,141.001,24.107,140.548,24.107 M120.286,29.791
		c-0.859,0-1.556-0.299-2.089-0.897c-0.533-0.598-0.8-1.389-0.8-2.373v-0.076c0-0.621,0.122-1.18,0.366-1.676
		c0.244-0.496,0.584-0.879,1.02-1.148c0.436-0.269,0.932-0.404,1.491-0.404c0.863,0,1.561,0.299,2.095,0.896
		c0.533,0.598,0.8,1.393,0.8,2.385v0.076c0,0.617-0.118,1.171-0.354,1.661c-0.236,0.49-0.574,0.872-1.014,1.145
		C121.361,29.654,120.856,29.791,120.286,29.791 M120.274,24.107c-0.535,0-0.967,0.213-1.295,0.639
		c-0.328,0.426-0.492,1.035-0.492,1.828c0,0.703,0.163,1.268,0.489,1.693c0.326,0.426,0.763,0.639,1.31,0.639
		c0.551,0,0.988-0.216,1.313-0.647c0.324-0.431,0.486-1.036,0.486-1.813c0-0.695-0.165-1.259-0.495-1.69
		C121.26,24.323,120.821,24.107,120.274,24.107 M103.103,29.791c-0.859,0-1.559-0.282-2.098-0.847
		c-0.539-0.564-0.809-1.319-0.809-2.265V26.48c0-0.629,0.12-1.19,0.36-1.685c0.24-0.494,0.576-0.881,1.008-1.16
		c0.432-0.279,0.899-0.419,1.403-0.419c0.824,0,1.465,0.272,1.922,0.814c0.457,0.543,0.685,1.32,0.685,2.332v0.451h-4.295
		c0.016,0.625,0.198,1.13,0.548,1.515c0.35,0.385,0.794,0.577,1.333,0.577c0.383,0,0.707-0.078,0.973-0.234
		c0.266-0.156,0.498-0.363,0.697-0.621l0.662,0.516C104.963,29.383,104.166,29.791,103.103,29.791 M102.969,24.107
		c-0.437,0-0.805,0.159-1.102,0.478c-0.297,0.318-0.48,0.765-0.551,1.339h3.176v-0.082c-0.031-0.551-0.18-0.978-0.445-1.28
		C103.781,24.259,103.422,24.107,102.969,24.107 M95.314,29.791c-0.484,0-0.85-0.146-1.096-0.439
		c-0.246-0.293-0.369-0.709-0.369-1.248v-3.932h-1.154v-0.838h1.154v-1.535h1.084v1.535h1.184v0.838h-1.184v3.937
		c0,0.254,0.053,0.445,0.158,0.572c0.105,0.127,0.285,0.191,0.539,0.191c0.125,0,0.297-0.024,0.516-0.07v0.874
		C95.86,29.752,95.583,29.791,95.314,29.791 M88.747,29.791c-0.676,0-1.19-0.196-1.544-0.589c-0.354-0.393-0.532-0.974-0.536-1.743
		v-4.125h1.084v4.096c0,0.961,0.391,1.441,1.172,1.441c0.828,0,1.379-0.309,1.652-0.926v-4.611h1.084v6.34h-1.031l-0.023-0.627
		C90.183,29.543,89.564,29.791,88.747,29.791 M82.403,29.791c-0.859,0-1.556-0.299-2.089-0.897c-0.533-0.598-0.8-1.389-0.8-2.373
		v-0.076c0-0.621,0.122-1.18,0.366-1.676c0.244-0.496,0.584-0.879,1.019-1.148c0.436-0.269,0.933-0.404,1.491-0.404
		c0.863,0,1.562,0.299,2.095,0.896c0.533,0.598,0.8,1.393,0.8,2.385v0.076c0,0.617-0.118,1.171-0.354,1.661
		c-0.236,0.49-0.574,0.872-1.014,1.145C83.478,29.654,82.973,29.791,82.403,29.791 M82.391,24.107c-0.535,0-0.967,0.213-1.295,0.639
		c-0.328,0.426-0.492,1.035-0.492,1.828c0,0.703,0.163,1.268,0.489,1.693c0.326,0.426,0.763,0.639,1.31,0.639
		c0.551,0,0.988-0.216,1.312-0.647c0.324-0.431,0.486-1.036,0.486-1.813c0-0.695-0.165-1.259-0.495-1.69
		C83.377,24.323,82.938,24.107,82.391,24.107 M75.894,29.791c-0.801,0-1.42-0.283-1.857-0.85l-0.053,0.732h-0.996v-9h1.084v3.357
		c0.437-0.543,1.041-0.814,1.811-0.814c0.77,0,1.374,0.291,1.813,0.873c0.44,0.582,0.659,1.379,0.659,2.391v0.094
		c0,0.969-0.223,1.747-0.668,2.335C77.241,29.497,76.644,29.791,75.894,29.791 M75.612,24.137c-0.715,0-1.229,0.332-1.541,0.996
		v2.742c0.332,0.664,0.85,0.996,1.553,0.996c0.52,0,0.924-0.201,1.213-0.604c0.289-0.402,0.434-1.008,0.434-1.816
		c0-0.738-0.143-1.309-0.428-1.711C76.558,24.338,76.148,24.137,75.612,24.137 M68.386,29.791c-0.625,0-1.138-0.177-1.538-0.53
		c-0.4-0.353-0.601-0.802-0.601-1.345c0-0.66,0.251-1.173,0.753-1.538c0.502-0.365,1.208-0.548,2.118-0.548h1.055v-0.498
		c0-0.379-0.113-0.681-0.34-0.905c-0.227-0.225-0.561-0.337-1.002-0.337c-0.387,0-0.711,0.098-0.973,0.293
		c-0.262,0.195-0.393,0.432-0.393,0.709h-1.09c0-0.316,0.112-0.622,0.337-0.917c0.225-0.295,0.529-0.528,0.914-0.7
		c0.385-0.172,0.808-0.258,1.269-0.258c0.73,0,1.303,0.183,1.717,0.548c0.414,0.365,0.629,0.868,0.645,1.509v2.918
		c0,0.582,0.074,1.045,0.223,1.389v0.094h-1.137c-0.062-0.125-0.113-0.348-0.152-0.668C69.687,29.529,69.085,29.791,68.386,29.791
		 M69.323,26.598c-1.328,0-1.992,0.389-1.992,1.166c0,0.34,0.113,0.606,0.34,0.797c0.227,0.191,0.518,0.287,0.873,0.287
		c0.34,0,0.662-0.088,0.967-0.264c0.305-0.176,0.525-0.404,0.662-0.686v-1.301H69.323 M59.483,29.791
		c-0.508,0-0.957-0.09-1.348-0.27c-0.391-0.18-0.696-0.431-0.917-0.753c-0.221-0.322-0.331-0.671-0.331-1.046h1.084
		c0.02,0.363,0.165,0.651,0.437,0.864c0.272,0.213,0.63,0.319,1.075,0.319c0.41,0,0.739-0.083,0.987-0.249
		c0.248-0.166,0.372-0.388,0.372-0.665c0-0.293-0.11-0.52-0.331-0.683c-0.221-0.162-0.606-0.302-1.154-0.419
		c-0.549-0.117-0.984-0.258-1.307-0.422c-0.322-0.164-0.561-0.359-0.715-0.586c-0.154-0.226-0.231-0.496-0.231-0.809
		c0-0.52,0.22-0.959,0.659-1.318c0.44-0.359,1.001-0.539,1.685-0.539c0.719,0,1.302,0.186,1.749,0.557
		c0.447,0.371,0.671,0.846,0.671,1.424h-1.09c0-0.297-0.126-0.553-0.378-0.768c-0.252-0.215-0.569-0.322-0.952-0.322
		c-0.394,0-0.703,0.086-0.926,0.258c-0.223,0.172-0.334,0.396-0.334,0.674c0,0.262,0.103,0.459,0.31,0.592
		c0.207,0.133,0.581,0.26,1.122,0.381c0.541,0.121,0.979,0.266,1.315,0.434c0.336,0.168,0.585,0.37,0.747,0.606
		c0.162,0.236,0.243,0.524,0.243,0.864c0,0.566-0.227,1.021-0.68,1.362C60.793,29.62,60.205,29.791,59.483,29.791 M46.253,29.791
		c-0.859,0-1.556-0.299-2.089-0.897c-0.533-0.598-0.8-1.389-0.8-2.373v-0.076c0-0.621,0.122-1.18,0.366-1.676
		c0.244-0.496,0.584-0.879,1.019-1.148c0.436-0.269,0.933-0.404,1.491-0.404c0.863,0,1.562,0.299,2.095,0.896
		c0.533,0.598,0.8,1.393,0.8,2.385v0.076c0,0.617-0.118,1.171-0.354,1.661c-0.236,0.49-0.574,0.872-1.014,1.145
		C47.328,29.654,46.823,29.791,46.253,29.791 M46.241,24.107c-0.535,0-0.967,0.213-1.295,0.639
		c-0.328,0.426-0.492,1.035-0.492,1.828c0,0.703,0.163,1.268,0.489,1.693c0.326,0.426,0.763,0.639,1.31,0.639
		c0.551,0,0.988-0.216,1.312-0.647c0.324-0.431,0.486-1.036,0.486-1.813c0-0.695-0.165-1.259-0.495-1.69
		C47.226,24.323,46.788,24.107,46.241,24.107 M38.745,29.791c-0.484,0-0.85-0.146-1.096-0.439c-0.246-0.293-0.369-0.709-0.369-1.248
		v-3.932h-1.154v-0.838h1.154v-1.535h1.084v1.535h1.184v0.838h-1.184v3.937c0,0.254,0.053,0.445,0.158,0.572
		c0.105,0.127,0.285,0.191,0.539,0.191c0.125,0,0.297-0.024,0.516-0.07v0.874C39.292,29.752,39.014,29.791,38.745,29.791
		 M32.884,29.791c-0.508,0-0.957-0.09-1.348-0.27c-0.391-0.18-0.696-0.431-0.917-0.753c-0.221-0.322-0.331-0.671-0.331-1.046h1.084
		c0.019,0.363,0.165,0.651,0.437,0.864c0.271,0.213,0.63,0.319,1.075,0.319c0.41,0,0.739-0.083,0.987-0.249
		c0.248-0.166,0.372-0.388,0.372-0.665c0-0.293-0.11-0.52-0.331-0.683c-0.221-0.162-0.606-0.302-1.154-0.419
		c-0.549-0.117-0.984-0.258-1.307-0.422c-0.322-0.164-0.561-0.359-0.715-0.586c-0.154-0.226-0.231-0.496-0.231-0.809
		c0-0.52,0.22-0.959,0.659-1.318c0.439-0.359,1.001-0.539,1.685-0.539c0.719,0,1.302,0.186,1.749,0.557
		c0.447,0.371,0.671,0.846,0.671,1.424h-1.09c0-0.297-0.126-0.553-0.378-0.768c-0.252-0.215-0.569-0.322-0.952-0.322
		c-0.395,0-0.703,0.086-0.926,0.258c-0.223,0.172-0.334,0.396-0.334,0.674c0,0.262,0.103,0.459,0.31,0.592
		c0.207,0.133,0.581,0.26,1.122,0.381c0.541,0.121,0.979,0.266,1.315,0.434c0.336,0.168,0.585,0.37,0.747,0.606
		c0.162,0.236,0.243,0.524,0.243,0.864c0,0.566-0.227,1.021-0.68,1.362C34.195,29.62,33.607,29.791,32.884,29.791 M26.811,29.791
		c-0.859,0-1.558-0.282-2.098-0.847c-0.539-0.564-0.809-1.319-0.809-2.265V26.48c0-0.629,0.12-1.19,0.36-1.685
		c0.24-0.494,0.576-0.881,1.008-1.16c0.432-0.279,0.899-0.419,1.403-0.419c0.824,0,1.465,0.272,1.922,0.814
		c0.457,0.543,0.685,1.32,0.685,2.332v0.451h-4.295c0.016,0.625,0.198,1.13,0.548,1.515c0.35,0.385,0.794,0.577,1.333,0.577
		c0.383,0,0.707-0.078,0.973-0.234c0.266-0.156,0.498-0.363,0.697-0.621l0.662,0.516C28.671,29.383,27.874,29.791,26.811,29.791
		 M26.676,24.107c-0.437,0-0.805,0.159-1.102,0.478c-0.297,0.318-0.48,0.765-0.551,1.339H28.2v-0.082
		c-0.031-0.551-0.18-0.978-0.445-1.28C27.489,24.259,27.13,24.107,26.676,24.107 M19.556,29.791c-0.676,0-1.19-0.196-1.544-0.589
		c-0.354-0.393-0.532-0.974-0.536-1.743v-4.125h1.084v4.096c0,0.961,0.391,1.441,1.172,1.441c0.828,0,1.379-0.309,1.652-0.926
		v-4.611h1.084v6.34h-1.031l-0.023-0.627C20.991,29.543,20.372,29.791,19.556,29.791 M487.306,29.674h-1.084v-6.34h1.055
		l0.018,0.732c0.355-0.566,0.859-0.85,1.512-0.85c0.211,0,0.371,0.027,0.48,0.082v1.008c-0.164-0.027-0.342-0.041-0.533-0.041
		c-0.711,0-1.193,0.303-1.447,0.908V29.674 M473.258,29.674h-1.084v-6.34h1.055l0.018,0.732c0.355-0.566,0.859-0.85,1.512-0.85
		c0.211,0,0.371,0.027,0.48,0.082v1.008c-0.164-0.027-0.342-0.041-0.533-0.041c-0.711,0-1.193,0.303-1.447,0.908V29.674
		 M463.305,29.674h-1.084v-5.502h-1.002v-0.838h1.002v-0.65c0-0.68,0.182-1.205,0.545-1.576c0.363-0.371,0.877-0.557,1.541-0.557
		c0.25,0,0.498,0.033,0.744,0.099l-0.059,0.874c-0.184-0.035-0.379-0.053-0.586-0.053c-0.352,0-0.623,0.103-0.814,0.309
		c-0.191,0.206-0.287,0.501-0.287,0.885v0.67h1.354v0.838h-1.354V29.674 M453.88,29.674h-1.084v-4.195
		c-0.004-0.457-0.108-0.795-0.313-1.014c-0.205-0.219-0.524-0.328-0.958-0.328c-0.352,0-0.66,0.094-0.926,0.281
		c-0.266,0.188-0.473,0.434-0.621,0.738v4.518h-1.084v-6.34h1.025l0.035,0.797c0.484-0.609,1.117-0.914,1.898-0.914
		c1.34,0,2.016,0.756,2.027,2.267V29.674 M439.298,29.674h-1.084v-6.34h1.055l0.018,0.732c0.355-0.566,0.859-0.85,1.512-0.85
		c0.211,0,0.371,0.027,0.48,0.082v1.008c-0.164-0.027-0.342-0.041-0.533-0.041c-0.711,0-1.193,0.303-1.447,0.908V29.674
		 M427.061,29.674h-1.084v-4.195c-0.004-0.457-0.108-0.795-0.313-1.014c-0.205-0.219-0.524-0.328-0.958-0.328
		c-0.352,0-0.66,0.094-0.926,0.281c-0.266,0.188-0.473,0.434-0.621,0.738v4.518h-1.084v-6.34h1.025l0.035,0.797
		c0.484-0.609,1.117-0.914,1.898-0.914c1.34,0,2.016,0.756,2.027,2.267V29.674 M413.444,29.674h-1.084v-6.34h1.084V29.674
		 M390.56,29.674h-1.084v-6.34h1.055l0.018,0.732c0.355-0.566,0.859-0.85,1.512-0.85c0.211,0,0.371,0.027,0.48,0.082v1.008
		c-0.164-0.027-0.342-0.041-0.533-0.041c-0.711,0-1.193,0.303-1.447,0.908V29.674 M372.817,29.674h-1.084v-6.34h1.055l0.018,0.732
		c0.355-0.566,0.859-0.85,1.512-0.85c0.211,0,0.371,0.027,0.48,0.082v1.008c-0.164-0.027-0.342-0.041-0.533-0.041
		c-0.711,0-1.193,0.303-1.447,0.908V29.674 M337.921,29.674h-1.084v-5.502h-1.002v-0.838h1.002v-0.65
		c0-0.68,0.182-1.205,0.545-1.576c0.363-0.371,0.877-0.557,1.541-0.557c0.25,0,0.498,0.033,0.744,0.099l-0.059,0.874
		c-0.184-0.035-0.379-0.053-0.586-0.053c-0.352,0-0.623,0.103-0.814,0.309c-0.192,0.206-0.287,0.501-0.287,0.885v0.67h1.353v0.838
		h-1.353V29.674 M318.897,29.674h-1.084v-4.195c-0.004-0.457-0.108-0.795-0.313-1.014c-0.205-0.219-0.524-0.328-0.958-0.328
		c-0.352,0-0.66,0.094-0.926,0.281c-0.266,0.188-0.473,0.434-0.621,0.738v4.518h-1.084v-6.34h1.025l0.035,0.797
		c0.484-0.609,1.117-0.914,1.898-0.914c1.34,0,2.016,0.756,2.027,2.267V29.674 M305.743,29.674h-1.084V25.49
		c0-0.453-0.103-0.792-0.311-1.017c-0.207-0.225-0.555-0.337-1.043-0.337c-0.402,0-0.736,0.12-1.002,0.36s-0.42,0.564-0.463,0.97
		v4.207h-1.09V25.52c0-0.922-0.451-1.383-1.354-1.383c-0.711,0-1.197,0.303-1.459,0.908v4.629h-1.084v-6.34h1.025l0.029,0.703
		c0.465-0.547,1.092-0.82,1.881-0.82c0.887,0,1.49,0.34,1.811,1.019c0.211-0.305,0.485-0.551,0.823-0.738
		c0.338-0.188,0.737-0.281,1.198-0.281c1.391,0,2.098,0.736,2.121,2.209V29.674 M287.421,29.674h-1.084v-6.34h1.055l0.018,0.732
		c0.355-0.566,0.859-0.85,1.512-0.85c0.211,0,0.371,0.027,0.48,0.082v1.008c-0.164-0.027-0.342-0.041-0.533-0.041
		c-0.711,0-1.193,0.303-1.447,0.908V29.674 M284.579,29.674h-1.084v-6.34h1.084V29.674 M260.489,29.674h-1.084v-6.34h1.055
		l0.018,0.732c0.355-0.566,0.859-0.85,1.512-0.85c0.211,0,0.371,0.027,0.48,0.082v1.008c-0.164-0.027-0.342-0.041-0.533-0.041
		c-0.711,0-1.193,0.303-1.447,0.908V29.674 M254.679,29.674h-1.084V25.49c0-0.453-0.104-0.792-0.311-1.017
		c-0.207-0.225-0.555-0.337-1.043-0.337c-0.402,0-0.736,0.12-1.002,0.36c-0.266,0.24-0.42,0.564-0.463,0.97v4.207h-1.09V25.52
		c0-0.922-0.451-1.383-1.353-1.383c-0.711,0-1.197,0.303-1.459,0.908v4.629h-1.084v-6.34h1.025l0.029,0.703
		c0.465-0.547,1.092-0.82,1.881-0.82c0.887,0,1.49,0.34,1.811,1.019c0.211-0.305,0.485-0.551,0.823-0.738s0.737-0.281,1.198-0.281
		c1.391,0,2.098,0.736,2.121,2.209V29.674 M236.195,29.674h-1.084v-6.34h1.055l0.018,0.732c0.355-0.566,0.859-0.85,1.512-0.85
		c0.211,0,0.371,0.027,0.48,0.082v1.008c-0.164-0.027-0.342-0.041-0.533-0.041c-0.711,0-1.193,0.303-1.447,0.908V29.674"/>
	<path fill="#000000" d="M218.453,29.674h-1.084v-6.34h1.055l0.018,0.732c0.355-0.566,0.859-0.85,1.512-0.85
		c0.211,0,0.371,0.027,0.48,0.082v1.008c-0.164-0.027-0.342-0.041-0.533-0.041c-0.711,0-1.193,0.303-1.447,0.908V29.674
		 M189.033,29.674h-1.084v-6.34h1.055l0.018,0.732c0.355-0.566,0.859-0.85,1.512-0.85c0.211,0,0.371,0.027,0.481,0.082v1.008
		c-0.164-0.027-0.342-0.041-0.533-0.041c-0.711,0-1.193,0.303-1.447,0.908V29.674 M166.604,29.674h-2.361v-8.531h2.408
		c0.742,0,1.398,0.164,1.969,0.492s1.011,0.795,1.321,1.4c0.311,0.606,0.468,1.301,0.472,2.086v0.545
		c0,0.805-0.155,1.51-0.466,2.115c-0.31,0.606-0.754,1.07-1.33,1.394C168.04,29.5,167.369,29.666,166.604,29.674 M165.368,22.062
		v6.691h1.183c0.867,0,1.542-0.27,2.025-0.809c0.482-0.54,0.724-1.308,0.724-2.305v-0.499c0-0.97-0.227-1.723-0.683-2.261
		c-0.455-0.538-1.101-0.81-1.936-0.818H165.368 M162.14,29.674h-1.125v-8.531h1.125V29.674 M149.519,29.674h-1.084v-4.195
		c-0.004-0.457-0.108-0.795-0.313-1.014c-0.205-0.219-0.524-0.328-0.958-0.328c-0.352,0-0.66,0.094-0.926,0.281
		c-0.266,0.188-0.473,0.434-0.621,0.738v4.518h-1.084v-6.34h1.025l0.035,0.797c0.484-0.609,1.117-0.914,1.898-0.914
		c1.34,0,2.016,0.756,2.027,2.267V29.674 M136.365,29.674h-1.084V25.49c0-0.453-0.103-0.792-0.31-1.017
		c-0.207-0.225-0.555-0.337-1.043-0.337c-0.402,0-0.736,0.12-1.002,0.36c-0.266,0.24-0.42,0.564-0.463,0.97v4.207h-1.09V25.52
		c0-0.922-0.451-1.383-1.354-1.383c-0.711,0-1.197,0.303-1.459,0.908v4.629h-1.084v-6.34h1.025l0.029,0.703
		c0.465-0.547,1.092-0.82,1.881-0.82c0.887,0,1.49,0.34,1.811,1.019c0.211-0.305,0.485-0.551,0.823-0.738
		c0.338-0.188,0.737-0.281,1.198-0.281c1.391,0,2.098,0.736,2.121,2.209V29.674 M125.724,29.674h-1.084v-9h1.084V29.674
		 M114.72,29.674h-1.084v-6.34h1.055l0.018,0.732c0.355-0.566,0.859-0.85,1.512-0.85c0.211,0,0.371,0.027,0.48,0.082v1.008
		c-0.164-0.027-0.342-0.041-0.533-0.041c-0.711,0-1.193,0.303-1.447,0.908V29.674 M111.94,29.674h-1.084v-4.195
		c-0.004-0.457-0.108-0.795-0.313-1.014c-0.205-0.219-0.524-0.328-0.958-0.328c-0.352,0-0.66,0.094-0.926,0.281
		c-0.266,0.188-0.473,0.434-0.621,0.738v4.518h-1.084v-6.34h1.025l0.035,0.797c0.484-0.609,1.117-0.914,1.898-0.914
		c1.34,0,2.016,0.756,2.027,2.267V29.674 M55.534,29.674H54.45v-4.195c-0.004-0.457-0.108-0.795-0.314-1.014
		c-0.205-0.219-0.524-0.328-0.958-0.328c-0.352,0-0.66,0.094-0.926,0.281c-0.266,0.188-0.473,0.434-0.621,0.738v4.518h-1.084v-6.34
		h1.025l0.035,0.797c0.484-0.609,1.117-0.914,1.898-0.914c1.34,0,2.016,0.756,2.027,2.267V29.674 M41.917,29.674h-1.084v-6.34h1.084
		V29.674 M412.911,22.268c-0.211,0-0.37-0.059-0.477-0.176c-0.108-0.117-0.161-0.264-0.161-0.439c0-0.176,0.054-0.324,0.161-0.445
		c0.107-0.121,0.267-0.182,0.477-0.182c0.211,0,0.371,0.061,0.48,0.182c0.109,0.121,0.164,0.27,0.164,0.445
		c0,0.176-0.055,0.322-0.164,0.439C413.282,22.209,413.122,22.268,412.911,22.268 M284.045,22.268c-0.211,0-0.37-0.059-0.478-0.176
		c-0.108-0.117-0.161-0.264-0.161-0.439c0-0.176,0.054-0.324,0.161-0.445c0.107-0.121,0.267-0.182,0.478-0.182
		c0.211,0,0.371,0.061,0.48,0.182c0.109,0.121,0.164,0.27,0.164,0.445c0,0.176-0.055,0.322-0.164,0.439
		C284.417,22.209,284.256,22.268,284.045,22.268 M41.383,22.268c-0.211,0-0.37-0.059-0.478-0.176s-0.161-0.264-0.161-0.439
		c0-0.176,0.054-0.324,0.161-0.445c0.107-0.121,0.267-0.182,0.478-0.182s0.371,0.061,0.48,0.182c0.109,0.121,0.164,0.27,0.164,0.445
		c0,0.176-0.055,0.322-0.164,0.439C41.755,22.209,41.594,22.268,41.383,22.268"/>
	<path fill="#000000" d="M46.789,48.111h-1.084v-3.023c-0.438,0.469-1.02,0.703-1.746,0.703c-0.766,0-1.376-0.298-1.831-0.894
		c-0.455-0.596-0.683-1.386-0.683-2.37v-0.076c0-0.996,0.229-1.784,0.685-2.364c0.457-0.58,1.07-0.87,1.84-0.87
		c0.75,0,1.342,0.252,1.775,0.756l0.047-0.639h0.996V48.111 M44.241,40.107c-0.524,0-0.939,0.208-1.248,0.624
		c-0.309,0.416-0.463,1.03-0.463,1.843c0,0.727,0.153,1.297,0.46,1.711c0.307,0.414,0.72,0.621,1.239,0.621
		c0.644,0,1.137-0.285,1.477-0.855v-3.105C45.362,40.387,44.873,40.107,44.241,40.107 M94.496,47.373l-0.615-0.422
		c0.367-0.512,0.558-1.039,0.574-1.582v-0.979h1.061v0.85c0,0.395-0.097,0.789-0.29,1.184
		C95.032,46.818,94.789,47.135,94.496,47.373 M125.321,45.791c-0.859,0-1.559-0.282-2.098-0.847
		c-0.539-0.564-0.809-1.319-0.809-2.265V42.48c0-0.629,0.12-1.19,0.36-1.685c0.24-0.494,0.576-0.881,1.008-1.16
		c0.432-0.279,0.899-0.419,1.403-0.419c0.824,0,1.465,0.272,1.922,0.815c0.457,0.543,0.686,1.32,0.686,2.332v0.451h-4.295
		c0.016,0.625,0.198,1.13,0.548,1.515c0.35,0.385,0.794,0.577,1.333,0.577c0.383,0,0.707-0.078,0.973-0.234
		c0.266-0.156,0.498-0.363,0.697-0.621l0.662,0.516C127.181,45.383,126.384,45.791,125.321,45.791 M125.187,40.107
		c-0.438,0-0.805,0.159-1.102,0.478c-0.297,0.318-0.48,0.765-0.551,1.339h3.176v-0.082c-0.031-0.551-0.18-0.978-0.445-1.28
		C125.999,40.259,125.64,40.107,125.187,40.107 M113.983,45.791c-0.484,0-0.85-0.146-1.096-0.439
		c-0.246-0.293-0.369-0.709-0.369-1.248v-3.932h-1.154v-0.838h1.154v-1.535h1.084v1.535h1.184v0.838h-1.184v3.936
		c0,0.254,0.053,0.445,0.158,0.572c0.105,0.127,0.285,0.191,0.539,0.191c0.125,0,0.297-0.024,0.516-0.07v0.874
		C114.53,45.752,114.252,45.791,113.983,45.791 M105.185,45.791c-0.508,0-0.957-0.09-1.348-0.27
		c-0.391-0.18-0.696-0.431-0.917-0.753c-0.221-0.322-0.331-0.671-0.331-1.046h1.084c0.019,0.363,0.165,0.651,0.437,0.864
		c0.271,0.213,0.63,0.319,1.075,0.319c0.41,0,0.739-0.083,0.987-0.249c0.248-0.166,0.372-0.388,0.372-0.665
		c0-0.293-0.111-0.52-0.331-0.683c-0.221-0.162-0.605-0.302-1.154-0.419c-0.549-0.117-0.984-0.258-1.307-0.422
		c-0.322-0.164-0.561-0.359-0.715-0.586c-0.154-0.227-0.231-0.496-0.231-0.809c0-0.52,0.22-0.959,0.659-1.318
		c0.44-0.359,1.001-0.539,1.685-0.539c0.719,0,1.302,0.186,1.749,0.557c0.447,0.371,0.671,0.846,0.671,1.424h-1.09
		c0-0.297-0.126-0.553-0.378-0.768c-0.252-0.215-0.569-0.322-0.952-0.322c-0.395,0-0.703,0.086-0.926,0.258
		c-0.223,0.172-0.334,0.396-0.334,0.674c0,0.262,0.103,0.459,0.31,0.592c0.207,0.133,0.581,0.26,1.122,0.381
		c0.541,0.121,0.979,0.266,1.316,0.434c0.336,0.168,0.585,0.37,0.747,0.607c0.162,0.236,0.243,0.524,0.243,0.864
		c0,0.567-0.227,1.021-0.68,1.362C106.495,45.62,105.908,45.791,105.185,45.791 M90.53,45.791c-0.508,0-0.957-0.09-1.348-0.27
		c-0.391-0.18-0.696-0.431-0.917-0.753c-0.221-0.322-0.331-0.671-0.331-1.046h1.084c0.019,0.363,0.165,0.651,0.437,0.864
		c0.271,0.213,0.63,0.319,1.075,0.319c0.41,0,0.739-0.083,0.987-0.249c0.248-0.166,0.372-0.388,0.372-0.665
		c0-0.293-0.111-0.52-0.331-0.683c-0.221-0.162-0.606-0.302-1.154-0.419c-0.549-0.117-0.984-0.258-1.307-0.422
		c-0.322-0.164-0.561-0.359-0.715-0.586c-0.154-0.227-0.231-0.496-0.231-0.809c0-0.52,0.22-0.959,0.659-1.318
		c0.44-0.359,1.001-0.539,1.685-0.539c0.719,0,1.302,0.186,1.749,0.557c0.447,0.371,0.671,0.846,0.671,1.424h-1.09
		c0-0.297-0.126-0.553-0.378-0.768c-0.252-0.215-0.569-0.322-0.952-0.322c-0.394,0-0.703,0.086-0.926,0.258
		s-0.334,0.396-0.334,0.674c0,0.262,0.103,0.459,0.31,0.592c0.207,0.133,0.581,0.26,1.122,0.381
		c0.541,0.121,0.979,0.266,1.315,0.434c0.336,0.168,0.585,0.37,0.747,0.607c0.162,0.236,0.243,0.524,0.243,0.864
		c0,0.567-0.227,1.021-0.68,1.362C91.84,45.62,91.253,45.791,90.53,45.791 M77.3,45.791c-0.859,0-1.556-0.299-2.089-0.896
		c-0.533-0.598-0.8-1.389-0.8-2.373v-0.076c0-0.621,0.122-1.18,0.366-1.676c0.244-0.496,0.584-0.879,1.019-1.148
		s0.933-0.404,1.491-0.404c0.863,0,1.562,0.299,2.095,0.897c0.533,0.598,0.8,1.393,0.8,2.385v0.076c0,0.617-0.118,1.171-0.354,1.661
		c-0.236,0.49-0.574,0.872-1.014,1.145C78.375,45.654,77.87,45.791,77.3,45.791 M77.288,40.107c-0.535,0-0.967,0.213-1.295,0.639
		c-0.328,0.426-0.492,1.035-0.492,1.828c0,0.703,0.163,1.268,0.489,1.693c0.326,0.426,0.763,0.639,1.31,0.639
		c0.551,0,0.988-0.216,1.313-0.647c0.324-0.431,0.486-1.036,0.486-1.814c0-0.695-0.165-1.259-0.495-1.69
		C78.273,40.323,77.835,40.107,77.288,40.107 M69.792,45.791c-0.484,0-0.85-0.146-1.096-0.439c-0.246-0.293-0.369-0.709-0.369-1.248
		v-3.932h-1.154v-0.838h1.154v-1.535h1.084v1.535h1.184v0.838h-1.184v3.936c0,0.254,0.053,0.445,0.158,0.572
		c0.105,0.127,0.285,0.191,0.539,0.191c0.125,0,0.297-0.024,0.516-0.07v0.874C70.339,45.752,70.062,45.791,69.792,45.791
		 M63.932,45.791c-0.508,0-0.957-0.09-1.348-0.27c-0.391-0.18-0.696-0.431-0.917-0.753c-0.221-0.322-0.331-0.671-0.331-1.046h1.084
		c0.019,0.363,0.165,0.651,0.437,0.864c0.271,0.213,0.63,0.319,1.075,0.319c0.41,0,0.739-0.083,0.987-0.249
		c0.248-0.166,0.372-0.388,0.372-0.665c0-0.293-0.11-0.52-0.331-0.683c-0.221-0.162-0.605-0.302-1.154-0.419
		c-0.549-0.117-0.984-0.258-1.307-0.422c-0.322-0.164-0.561-0.359-0.715-0.586c-0.154-0.227-0.231-0.496-0.231-0.809
		c0-0.52,0.22-0.959,0.659-1.318c0.439-0.359,1.001-0.539,1.685-0.539c0.719,0,1.302,0.186,1.749,0.557
		c0.447,0.371,0.671,0.846,0.671,1.424h-1.09c0-0.297-0.126-0.553-0.378-0.768c-0.252-0.215-0.569-0.322-0.952-0.322
		c-0.395,0-0.703,0.086-0.926,0.258c-0.223,0.172-0.334,0.396-0.334,0.674c0,0.262,0.103,0.459,0.311,0.592
		c0.207,0.133,0.581,0.26,1.122,0.381c0.541,0.121,0.979,0.266,1.315,0.434c0.336,0.168,0.585,0.37,0.747,0.607
		c0.162,0.236,0.243,0.524,0.243,0.864c0,0.567-0.227,1.021-0.68,1.362C65.242,45.62,64.654,45.791,63.932,45.791 M57.859,45.791
		c-0.859,0-1.558-0.282-2.098-0.847c-0.539-0.564-0.809-1.319-0.809-2.265V42.48c0-0.629,0.12-1.19,0.36-1.685
		c0.24-0.494,0.576-0.881,1.008-1.16c0.431-0.279,0.899-0.419,1.403-0.419c0.824,0,1.465,0.272,1.922,0.815
		c0.457,0.543,0.685,1.32,0.685,2.332v0.451h-4.295c0.016,0.625,0.198,1.13,0.548,1.515c0.35,0.385,0.794,0.577,1.333,0.577
		c0.383,0,0.707-0.078,0.973-0.234c0.266-0.156,0.498-0.363,0.697-0.621l0.662,0.516C59.718,45.383,58.921,45.791,57.859,45.791
		 M57.724,40.107c-0.438,0-0.805,0.159-1.102,0.478c-0.297,0.318-0.48,0.765-0.551,1.339h3.176v-0.082
		c-0.031-0.551-0.18-0.978-0.445-1.28C58.536,40.259,58.177,40.107,57.724,40.107 M50.603,45.791c-0.676,0-1.19-0.196-1.544-0.589
		c-0.354-0.393-0.532-0.974-0.536-1.743v-4.125h1.084v4.096c0,0.961,0.39,1.441,1.172,1.441c0.828,0,1.379-0.309,1.652-0.926v-4.611
		h1.084v6.34h-1.031l-0.023-0.627C52.039,45.543,51.42,45.791,50.603,45.791 M30.708,45.791c-0.859,0-1.559-0.282-2.098-0.847
		c-0.539-0.564-0.809-1.319-0.809-2.265V42.48c0-0.629,0.12-1.19,0.36-1.685c0.24-0.494,0.576-0.881,1.008-1.16
		c0.432-0.279,0.899-0.419,1.403-0.419c0.824,0,1.465,0.272,1.922,0.815c0.457,0.543,0.685,1.32,0.685,2.332v0.451h-4.295
		c0.016,0.625,0.198,1.13,0.548,1.515c0.35,0.385,0.794,0.577,1.333,0.577c0.383,0,0.707-0.078,0.973-0.234
		c0.266-0.156,0.498-0.363,0.697-0.621l0.662,0.516C32.567,45.383,31.77,45.791,30.708,45.791 M30.573,40.107
		c-0.437,0-0.805,0.159-1.102,0.478s-0.48,0.765-0.551,1.339h3.176v-0.082c-0.031-0.551-0.18-0.978-0.445-1.28
		C31.386,40.259,31.026,40.107,30.573,40.107 M19.369,45.791c-0.484,0-0.85-0.146-1.096-0.439c-0.246-0.293-0.369-0.709-0.369-1.248
		v-3.932H16.75v-0.838h1.154v-1.535h1.084v1.535h1.184v0.838h-1.184v3.936c0,0.254,0.053,0.445,0.158,0.572
		c0.105,0.127,0.285,0.191,0.539,0.191c0.125,0,0.297-0.024,0.516-0.07v0.874C19.916,45.752,19.639,45.791,19.369,45.791
		 M13.264,45.791c-0.859,0-1.556-0.299-2.089-0.896c-0.533-0.598-0.8-1.389-0.8-2.373v-0.076c0-0.621,0.122-1.18,0.366-1.676
		c0.244-0.496,0.584-0.879,1.019-1.148c0.436-0.27,0.933-0.404,1.491-0.404c0.863,0,1.561,0.299,2.095,0.897
		c0.533,0.598,0.8,1.393,0.8,2.385v0.076c0,0.617-0.118,1.171-0.354,1.661c-0.236,0.49-0.574,0.872-1.014,1.145
		C14.339,45.654,13.834,45.791,13.264,45.791 M13.252,40.107c-0.535,0-0.967,0.213-1.295,0.639
		c-0.328,0.426-0.492,1.035-0.492,1.828c0,0.703,0.163,1.268,0.489,1.693c0.326,0.426,0.763,0.639,1.31,0.639
		c0.551,0,0.988-0.216,1.313-0.647c0.324-0.431,0.486-1.036,0.486-1.814c0-0.695-0.165-1.259-0.495-1.69
		C14.237,40.323,13.799,40.107,13.252,40.107 M121.011,45.674h-1.084v-4.195c-0.004-0.457-0.108-0.795-0.313-1.014
		c-0.205-0.219-0.524-0.328-0.958-0.328c-0.352,0-0.66,0.094-0.926,0.281c-0.266,0.188-0.473,0.434-0.621,0.738v4.518h-1.084v-9
		h1.084v3.428c0.48-0.59,1.105-0.885,1.875-0.885c1.34,0,2.016,0.756,2.027,2.268V45.674 M101.155,45.674h-1.084v-6.34h1.084V45.674
		 M86.581,45.674h-1.084v-4.195c-0.004-0.457-0.108-0.795-0.313-1.014c-0.205-0.219-0.524-0.328-0.958-0.328
		c-0.352,0-0.66,0.094-0.926,0.281s-0.473,0.434-0.621,0.738v4.518h-1.084v-6.34h1.025l0.035,0.797
		c0.484-0.609,1.117-0.914,1.898-0.914c1.34,0,2.016,0.756,2.027,2.268V45.674 M72.964,45.674H71.88v-6.34h1.084V45.674
		 M35.642,45.674h-1.084v-6.34h1.055l0.018,0.732c0.355-0.566,0.859-0.85,1.512-0.85c0.211,0,0.371,0.027,0.48,0.082v1.008
		c-0.164-0.027-0.342-0.041-0.533-0.041c-0.711,0-1.193,0.303-1.447,0.908V45.674 M26.398,45.674h-1.084v-4.195
		c-0.004-0.457-0.108-0.795-0.313-1.014c-0.205-0.219-0.524-0.328-0.958-0.328c-0.352,0-0.66,0.094-0.926,0.281
		c-0.266,0.188-0.473,0.434-0.621,0.738v4.518h-1.084v-9h1.084v3.428c0.48-0.59,1.105-0.885,1.875-0.885
		c1.34,0,2.016,0.756,2.027,2.268V45.674 M100.621,38.268c-0.211,0-0.37-0.059-0.477-0.176c-0.108-0.117-0.161-0.264-0.161-0.439
		c0-0.176,0.054-0.324,0.161-0.445c0.107-0.121,0.267-0.182,0.477-0.182c0.211,0,0.371,0.061,0.48,0.182
		c0.109,0.121,0.164,0.27,0.164,0.445c0,0.176-0.055,0.322-0.164,0.439C100.992,38.209,100.832,38.268,100.621,38.268
		 M72.431,38.268c-0.211,0-0.37-0.059-0.478-0.176c-0.107-0.117-0.161-0.264-0.161-0.439c0-0.176,0.054-0.324,0.161-0.445
		c0.107-0.121,0.267-0.182,0.478-0.182c0.211,0,0.371,0.061,0.48,0.182c0.109,0.121,0.164,0.27,0.164,0.445
		c0,0.176-0.055,0.322-0.164,0.439C72.802,38.209,72.642,38.268,72.431,38.268"/>
	<path fill="#0080FF" d="M138.865,37.143h-1.119v6.604l-4.307-6.604h-1.131v8.531h1.131V39.1l4.295,6.574h1.131V37.143z
		 M144.694,45.674h1.031v-6.34h-1.084v4.611c-0.273,0.617-0.824,0.926-1.652,0.926c-0.781,0-1.172-0.48-1.172-1.441v-4.096h-1.084
		v4.125c0.004,0.77,0.183,1.351,0.536,1.743c0.353,0.393,0.868,0.589,1.544,0.589c0.816,0,1.436-0.248,1.857-0.744L144.694,45.674z
		 M148.698,44.314c-0.301-0.395-0.451-0.957-0.451-1.688v-0.205c0-0.75,0.151-1.323,0.454-1.72c0.303-0.396,0.729-0.595,1.28-0.595
		c0.41,0,0.755,0.132,1.034,0.396c0.279,0.264,0.435,0.601,0.466,1.011h1.025c-0.031-0.68-0.282-1.232-0.753-1.658
		c-0.471-0.426-1.062-0.639-1.772-0.639c-0.578,0-1.079,0.133-1.503,0.398c-0.424,0.266-0.749,0.639-0.976,1.119
		c-0.227,0.48-0.34,1.029-0.34,1.646v0.182c0,1,0.255,1.788,0.765,2.364c0.51,0.576,1.196,0.864,2.06,0.864
		c0.43,0,0.837-0.098,1.222-0.293c0.385-0.195,0.692-0.457,0.923-0.785c0.23-0.328,0.355-0.674,0.375-1.037h-1.025
		c-0.031,0.352-0.191,0.645-0.48,0.879c-0.289,0.234-0.627,0.352-1.014,0.352C149.428,44.906,148.999,44.709,148.698,44.314z
		 M154.973,36.674h-1.084v9h1.084V36.674z M161.761,44.566l-0.662-0.516c-0.199,0.258-0.432,0.465-0.697,0.621
		c-0.266,0.156-0.59,0.234-0.973,0.234c-0.539,0-0.983-0.192-1.333-0.577c-0.35-0.385-0.532-0.89-0.548-1.515h4.295v-0.451
		c0-1.012-0.229-1.789-0.686-2.332c-0.457-0.543-1.098-0.814-1.922-0.814c-0.504,0-0.972,0.14-1.403,0.419
		c-0.432,0.279-0.768,0.666-1.008,1.16c-0.24,0.494-0.36,1.056-0.36,1.685v0.199c0,0.945,0.27,1.7,0.809,2.265
		c0.539,0.565,1.238,0.847,2.098,0.847C160.433,45.791,161.23,45.383,161.761,44.566z M160.314,40.562
		c0.266,0.303,0.414,0.729,0.445,1.28v0.082h-3.176c0.07-0.574,0.254-1.02,0.551-1.339c0.297-0.318,0.664-0.478,1.102-0.478
		C159.689,40.107,160.048,40.259,160.314,40.562z"/>
	<path fill="#0080FF" d="M167.151,45.674h1.031v-6.34h-1.084v4.611c-0.273,0.617-0.824,0.926-1.652,0.926
		c-0.781,0-1.172-0.48-1.172-1.441v-4.096h-1.084v4.125c0.004,0.77,0.183,1.351,0.536,1.743c0.353,0.393,0.868,0.589,1.544,0.589
		c0.816,0,1.436-0.248,1.857-0.744L167.151,45.674z M173.148,44.657c-0.248,0.166-0.577,0.249-0.987,0.249
		c-0.445,0-0.804-0.106-1.075-0.319c-0.272-0.213-0.417-0.501-0.437-0.864h-1.084c0,0.375,0.11,0.724,0.331,1.046
		c0.221,0.322,0.526,0.573,0.917,0.753c0.391,0.18,0.84,0.27,1.348,0.27c0.723,0,1.31-0.171,1.764-0.513
		c0.453-0.342,0.68-0.796,0.68-1.362c0-0.34-0.081-0.628-0.243-0.864c-0.162-0.236-0.411-0.438-0.747-0.606
		c-0.336-0.168-0.774-0.312-1.315-0.434c-0.541-0.121-0.915-0.248-1.122-0.381c-0.207-0.133-0.311-0.33-0.311-0.592
		c0-0.277,0.111-0.502,0.334-0.674c0.223-0.172,0.531-0.258,0.926-0.258c0.383,0,0.7,0.107,0.952,0.322
		c0.252,0.215,0.378,0.471,0.378,0.768h1.09c0-0.578-0.224-1.053-0.671-1.424c-0.447-0.371-1.03-0.557-1.749-0.557
		c-0.684,0-1.245,0.18-1.685,0.539c-0.439,0.359-0.659,0.799-0.659,1.318c0,0.313,0.077,0.582,0.231,0.809
		c0.154,0.227,0.393,0.422,0.715,0.586s0.758,0.305,1.307,0.422c0.549,0.117,0.934,0.257,1.154,0.419
		c0.221,0.162,0.331,0.39,0.331,0.683C173.52,44.27,173.396,44.491,173.148,44.657z M183.384,42.548
		c0.293,0.229,0.439,0.552,0.439,0.97c0,0.418-0.158,0.748-0.475,0.99c-0.316,0.242-0.772,0.363-1.365,0.363
		c-0.637,0-1.146-0.149-1.526-0.448s-0.571-0.706-0.571-1.222h-1.131c0,0.496,0.138,0.94,0.413,1.33
		c0.275,0.391,0.667,0.698,1.175,0.923c0.508,0.225,1.055,0.337,1.641,0.337c0.902,0,1.623-0.208,2.162-0.624
		s0.809-0.97,0.809-1.661c0-0.434-0.097-0.811-0.29-1.131c-0.193-0.32-0.49-0.601-0.891-0.841c-0.4-0.24-0.955-0.46-1.664-0.66
		s-1.211-0.42-1.506-0.66c-0.295-0.241-0.442-0.535-0.442-0.883c0-0.434,0.155-0.774,0.466-1.018s0.743-0.367,1.298-0.367
		c0.598,0,1.061,0.148,1.389,0.444c0.328,0.296,0.492,0.703,0.492,1.22h1.131c0-0.473-0.126-0.908-0.378-1.307
		s-0.607-0.711-1.066-0.938c-0.459-0.227-0.981-0.34-1.567-0.34c-0.859,0-1.558,0.22-2.095,0.659
		c-0.537,0.439-0.806,0.995-0.806,1.667c0,0.594,0.22,1.093,0.659,1.497s1.142,0.745,2.106,1.022
		C182.56,42.094,183.091,42.319,183.384,42.548z M187.028,37.799v1.535h-1.154v0.838h1.154v3.932c0,0.539,0.123,0.955,0.369,1.248
		s0.611,0.439,1.096,0.439c0.27,0,0.547-0.039,0.832-0.116v-0.874c-0.219,0.047-0.391,0.07-0.516,0.07
		c-0.254,0-0.434-0.064-0.539-0.191s-0.158-0.318-0.158-0.572v-3.937h1.184v-0.838h-1.184v-1.535H187.028z M194.472,45.674h1.031
		v-6.34h-1.084v4.611c-0.273,0.617-0.824,0.926-1.652,0.926c-0.781,0-1.172-0.48-1.172-1.441v-4.096h-1.084v4.125
		c0.004,0.77,0.183,1.351,0.536,1.743c0.353,0.393,0.868,0.589,1.544,0.589c0.816,0,1.436-0.248,1.857-0.744L194.472,45.674z
		 M196.946,42.533c0,0.969,0.231,1.754,0.694,2.355c0.463,0.602,1.061,0.902,1.796,0.902c0.773,0,1.377-0.266,1.811-0.797
		l0.053,0.68h0.996v-9h-1.084v3.305c-0.434-0.508-1.022-0.762-1.764-0.762c-0.746,0-1.35,0.296-1.811,0.888
		c-0.461,0.592-0.691,1.374-0.691,2.347V42.533z M198.475,40.752c0.297-0.41,0.711-0.615,1.242-0.615
		c0.672,0,1.17,0.299,1.494,0.896v2.912c-0.316,0.617-0.818,0.926-1.506,0.926c-0.523,0-0.934-0.203-1.23-0.609
		c-0.297-0.406-0.445-0.969-0.445-1.688C198.03,41.77,198.179,41.162,198.475,40.752z M209.049,44.566l-0.662-0.516
		c-0.199,0.258-0.432,0.465-0.697,0.621c-0.266,0.156-0.59,0.234-0.973,0.234c-0.539,0-0.983-0.192-1.333-0.577
		c-0.35-0.385-0.532-0.89-0.548-1.515h4.295v-0.451c0-1.012-0.229-1.789-0.686-2.332c-0.457-0.543-1.098-0.814-1.922-0.814
		c-0.504,0-0.972,0.14-1.403,0.419c-0.432,0.279-0.768,0.666-1.008,1.16c-0.24,0.494-0.36,1.056-0.36,1.685v0.199
		c0,0.945,0.27,1.7,0.809,2.265c0.539,0.565,1.238,0.847,2.098,0.847C207.721,45.791,208.518,45.383,209.049,44.566z
		 M207.602,40.562c0.266,0.303,0.414,0.729,0.445,1.28v0.082h-3.176c0.07-0.574,0.254-1.02,0.551-1.339
		c0.297-0.318,0.664-0.478,1.102-0.478C206.977,40.107,207.336,40.259,207.602,40.562z M210.509,39.334v6.34h1.084v-4.518
		c0.148-0.305,0.355-0.551,0.621-0.738c0.266-0.188,0.574-0.281,0.926-0.281c0.434,0,0.753,0.109,0.958,0.328
		c0.205,0.219,0.31,0.557,0.313,1.014v4.195h1.084v-4.189c-0.012-1.512-0.688-2.268-2.027-2.268c-0.781,0-1.414,0.305-1.898,0.914
		l-0.035-0.797H210.509z M217.598,37.799v1.535h-1.154v0.838h1.154v3.932c0,0.539,0.123,0.955,0.369,1.248s0.611,0.439,1.096,0.439
		c0.27,0,0.547-0.039,0.832-0.116v-0.874c-0.219,0.047-0.391,0.07-0.516,0.07c-0.254,0-0.434-0.064-0.539-0.191
		s-0.158-0.318-0.158-0.572v-3.937h1.184v-0.838h-1.184v-1.535H217.598z M230.949,37.143h-1.131v3.668h-4.301v-3.668h-1.125v8.531
		h1.125V41.73h4.301v3.943h1.131V37.143z M236.778,45.674h1.031v-6.34h-1.084v4.611c-0.273,0.617-0.824,0.926-1.652,0.926
		c-0.781,0-1.172-0.48-1.172-1.441v-4.096h-1.084v4.125c0.004,0.77,0.183,1.351,0.536,1.743c0.353,0.393,0.868,0.589,1.544,0.589
		c0.816,0,1.436-0.248,1.857-0.744L236.778,45.674z M244.885,42.48c0-1.012-0.22-1.809-0.659-2.391
		c-0.439-0.582-1.044-0.873-1.813-0.873c-0.77,0-1.373,0.272-1.811,0.814v-3.357h-1.084v9h0.996l0.053-0.732
		c0.437,0.566,1.057,0.85,1.857,0.85c0.75,0,1.348-0.294,1.793-0.882c0.445-0.588,0.668-1.366,0.668-2.335V42.48z M243.368,44.268
		c-0.289,0.402-0.693,0.604-1.213,0.604c-0.703,0-1.221-0.332-1.553-0.996v-2.742c0.312-0.664,0.826-0.996,1.541-0.996
		c0.535,0,0.945,0.201,1.23,0.604c0.285,0.402,0.428,0.973,0.428,1.711C243.801,43.26,243.657,43.865,243.368,44.268z"/>
	<path fill="#000000" d="M246.804,45.738c-0.223,0-0.39-0.061-0.501-0.182s-0.167-0.272-0.167-0.451
		c0-0.188,0.056-0.344,0.167-0.469c0.111-0.125,0.278-0.188,0.501-0.188c0.223,0,0.392,0.062,0.507,0.188
		c0.115,0.125,0.173,0.281,0.173,0.469c0,0.18-0.058,0.33-0.173,0.451C247.195,45.678,247.027,45.738,246.804,45.738"/>
</g>
</svg>
